G04 (created by PCBNEW (2013-june-11)-stable) date Tue 10 Oct 2017 05:17:01 PM CEST*
%MOIN*%
G04 Gerber Fmt 3.4, Leading zero omitted, Abs format*
%FSLAX34Y34*%
G01*
G70*
G90*
G04 APERTURE LIST*
%ADD10C,0.00590551*%
%ADD11C,0.00787402*%
%ADD12C,0.00984252*%
%ADD13C,0.019685*%
%ADD14C,0.011811*%
%ADD15C,0.0077*%
%ADD16C,0.0079*%
%ADD17C,0.015748*%
%ADD18C,0.0157*%
%ADD19C,0.01*%
%ADD20C,0.00492126*%
%ADD21C,0.00393701*%
G04 APERTURE END LIST*
G54D10*
G54D11*
X40574Y-57658D02*
X40583Y-57658D01*
X40574Y-19850D02*
X40574Y-57658D01*
X40575Y-19849D02*
X40575Y-19862D01*
X70460Y-19849D02*
X40575Y-19849D01*
X70460Y-19868D02*
X70460Y-19849D01*
X70460Y-57658D02*
X70460Y-19868D01*
X40575Y-57658D02*
X70460Y-57658D01*
X68894Y-23267D02*
X68906Y-23267D01*
X68890Y-53390D02*
X68902Y-53390D01*
X43087Y-57659D02*
X43087Y-57647D01*
X40561Y-53217D02*
X40573Y-53217D01*
X40565Y-23094D02*
X40577Y-23094D01*
X68472Y-19849D02*
X68472Y-19861D01*
X44228Y-19839D02*
X44228Y-19851D01*
X42134Y-45546D02*
X42132Y-45546D01*
X42134Y-56091D02*
X42134Y-45546D01*
X47037Y-56091D02*
X42134Y-56091D01*
X42132Y-45546D02*
X42132Y-56028D01*
X42140Y-44129D02*
X42137Y-44129D01*
X42140Y-21415D02*
X42140Y-44129D01*
X47009Y-21415D02*
X42140Y-21415D01*
X48421Y-21415D02*
X48421Y-21427D01*
X62986Y-21415D02*
X48421Y-21415D01*
X64402Y-21424D02*
X64402Y-21430D01*
X68891Y-21424D02*
X64402Y-21424D01*
X68891Y-56132D02*
X68891Y-21424D01*
X68891Y-56134D02*
X63758Y-56134D01*
X68891Y-53037D02*
X68891Y-56134D01*
X48452Y-56093D02*
X48452Y-56096D01*
X62337Y-56110D02*
X48453Y-56110D01*
X63753Y-54537D02*
X63753Y-54539D01*
X65949Y-54537D02*
X63753Y-54537D01*
X48423Y-22989D02*
X48423Y-22991D01*
X62988Y-22989D02*
X48423Y-22989D01*
X64404Y-22993D02*
X64404Y-22989D01*
X65944Y-22993D02*
X64404Y-22993D01*
X47009Y-22991D02*
X45088Y-22991D01*
X47037Y-54537D02*
X47037Y-54538D01*
X45099Y-54537D02*
X47037Y-54537D01*
X63759Y-56135D02*
X63759Y-54560D01*
X62336Y-56109D02*
X62336Y-54534D01*
X62337Y-54539D02*
X54171Y-54539D01*
X63754Y-54538D02*
X63754Y-54539D01*
X62986Y-22990D02*
X62986Y-21415D01*
X64402Y-23001D02*
X64402Y-21426D01*
X64403Y-22990D02*
X64403Y-22989D01*
X48453Y-54536D02*
X48453Y-54537D01*
X59734Y-54536D02*
X48453Y-54536D01*
X43713Y-45545D02*
X43715Y-45545D01*
X43713Y-53156D02*
X43713Y-45545D01*
X43714Y-44133D02*
X43715Y-44133D01*
X43714Y-24370D02*
X43714Y-44133D01*
X48424Y-22992D02*
X48424Y-22991D01*
X43722Y-44129D02*
X42147Y-44129D01*
X43704Y-45546D02*
X42129Y-45546D01*
X47035Y-56091D02*
X47035Y-54516D01*
X48452Y-56109D02*
X48452Y-54534D01*
X48421Y-22997D02*
X48421Y-21422D01*
X47007Y-22992D02*
X47007Y-21417D01*
X43713Y-53157D02*
G75*
G03X45091Y-54535I1377J0D01*
G74*
G01*
X65950Y-54536D02*
G75*
G03X67328Y-53158I0J1377D01*
G74*
G01*
X45091Y-22991D02*
G75*
G03X43713Y-24369I0J-1377D01*
G74*
G01*
X67327Y-24370D02*
G75*
G03X65949Y-22992I-1377J0D01*
G74*
G01*
X67328Y-24372D02*
X67328Y-53149D01*
G54D12*
X44899Y-34697D02*
X46671Y-34697D01*
X44899Y-32689D02*
X46671Y-32689D01*
G54D13*
X44178Y-34603D02*
G75*
G03X44178Y-34603I-73J0D01*
G74*
G01*
G54D14*
X52844Y-52358D02*
G75*
G03X52844Y-52358I-55J0D01*
G74*
G01*
G54D11*
X52686Y-51267D02*
X54103Y-51267D01*
X54103Y-51267D02*
X54103Y-52134D01*
X54103Y-52134D02*
X52686Y-52134D01*
X52686Y-52134D02*
X52686Y-51267D01*
G54D15*
X52185Y-27589D02*
X52341Y-27589D01*
X51732Y-27334D02*
X51732Y-27490D01*
X49889Y-27362D02*
X49889Y-27518D01*
X49381Y-27009D02*
X49381Y-27165D01*
X50244Y-25294D02*
X50244Y-25138D01*
X49413Y-24211D02*
X49569Y-24211D01*
X50343Y-27619D02*
X50499Y-27619D01*
X52086Y-25314D02*
X52086Y-25158D01*
X51266Y-24219D02*
X51422Y-24219D01*
X51224Y-27009D02*
X51224Y-27165D01*
X50243Y-27171D02*
X50243Y-27015D01*
X52090Y-27163D02*
X52090Y-27007D01*
G54D16*
X50828Y-28165D02*
X51142Y-28165D01*
X50828Y-28589D02*
X51142Y-28589D01*
X51882Y-28579D02*
X51568Y-28579D01*
X51882Y-28155D02*
X51568Y-28155D01*
X49857Y-24565D02*
X49857Y-24251D01*
X50281Y-24565D02*
X50281Y-24251D01*
X51706Y-24573D02*
X51706Y-24259D01*
X52130Y-24573D02*
X52130Y-24259D01*
G54D17*
X50592Y-26666D02*
G75*
G03X50592Y-26666I-53J0D01*
G74*
G01*
G54D12*
X49130Y-26796D02*
X49052Y-26796D01*
X49130Y-25536D02*
X49052Y-25536D01*
X50312Y-25536D02*
X50234Y-25536D01*
X50312Y-26796D02*
X50234Y-26796D01*
X49052Y-26796D02*
X49052Y-25536D01*
X50312Y-26796D02*
X50312Y-25536D01*
G54D17*
X52427Y-26730D02*
G75*
G03X52427Y-26730I-53J0D01*
G74*
G01*
G54D12*
X50977Y-26804D02*
X50899Y-26804D01*
X50977Y-25544D02*
X50899Y-25544D01*
X52159Y-25544D02*
X52081Y-25544D01*
X52159Y-26804D02*
X52081Y-26804D01*
X50899Y-26804D02*
X50899Y-25544D01*
X52159Y-26804D02*
X52159Y-25544D01*
G54D15*
X47392Y-32620D02*
X47548Y-32620D01*
X47873Y-33638D02*
X47717Y-33638D01*
X47546Y-33638D02*
X47390Y-33638D01*
X48040Y-33638D02*
X48196Y-33638D01*
X46746Y-34940D02*
X46746Y-35096D01*
X45391Y-34940D02*
X45391Y-35096D01*
X49026Y-31973D02*
X49026Y-32129D01*
X46074Y-34940D02*
X46074Y-35096D01*
X46491Y-35541D02*
X46647Y-35541D01*
X47628Y-34986D02*
X47628Y-34830D01*
X47647Y-33046D02*
X47647Y-33202D01*
X43990Y-33133D02*
X44146Y-33133D01*
X48182Y-32620D02*
X48026Y-32620D01*
X47861Y-32620D02*
X47705Y-32620D01*
X45138Y-35622D02*
X45294Y-35622D01*
X48517Y-33642D02*
X48361Y-33642D01*
X48365Y-32976D02*
X48521Y-32976D01*
X48709Y-32822D02*
X48983Y-32822D01*
X48713Y-33675D02*
X48987Y-33675D01*
G54D18*
X57438Y-24454D02*
G75*
G03X57438Y-24454I-62J0D01*
G74*
G01*
G54D19*
X56697Y-25124D02*
X56697Y-26334D01*
X56697Y-26334D02*
X57101Y-26787D01*
X57101Y-26787D02*
X58361Y-26787D01*
X58361Y-26787D02*
X58843Y-26334D01*
X58843Y-26334D02*
X58843Y-25114D01*
X58843Y-25114D02*
X58361Y-24651D01*
X58361Y-24651D02*
X57111Y-24661D01*
X57111Y-24661D02*
X56697Y-25124D01*
G54D15*
X59289Y-26232D02*
X59289Y-26076D01*
X59331Y-24332D02*
X59331Y-24488D01*
X58667Y-24022D02*
X58667Y-24178D01*
X58667Y-24326D02*
X58667Y-24482D01*
X59289Y-25614D02*
X59289Y-25458D01*
X56908Y-26653D02*
X56752Y-26653D01*
X56234Y-25808D02*
X56234Y-25652D01*
X57894Y-27207D02*
X58050Y-27207D01*
X58229Y-27205D02*
X58385Y-27205D01*
X57562Y-27205D02*
X57718Y-27205D01*
X56234Y-25328D02*
X56234Y-25484D01*
X58042Y-24212D02*
X57886Y-24212D01*
X59188Y-25043D02*
X59032Y-25043D01*
X58818Y-27065D02*
X58662Y-27065D01*
X56234Y-26141D02*
X56234Y-25985D01*
X59289Y-25763D02*
X59289Y-25919D01*
X59965Y-25763D02*
X59965Y-25919D01*
X55200Y-24894D02*
X55044Y-24894D01*
X55614Y-24995D02*
X55614Y-25151D01*
X55620Y-24645D02*
X55620Y-24801D01*
X56178Y-24898D02*
X56022Y-24898D01*
X56487Y-24898D02*
X56331Y-24898D01*
X56240Y-27900D02*
X56240Y-27744D01*
X52314Y-50345D02*
X52314Y-50189D01*
X50333Y-43259D02*
X50177Y-43259D01*
X50166Y-43988D02*
X50322Y-43988D01*
X51169Y-45402D02*
X51169Y-45558D01*
X48259Y-45414D02*
X48259Y-45570D01*
X47993Y-50877D02*
X48149Y-50877D01*
X50977Y-51268D02*
X50977Y-51112D01*
X54788Y-51874D02*
X54944Y-51874D01*
X54439Y-51871D02*
X54595Y-51871D01*
X44743Y-48663D02*
X44743Y-48819D01*
X46839Y-50217D02*
X46995Y-50217D01*
X52271Y-52134D02*
X52427Y-52134D01*
X60684Y-51236D02*
X60528Y-51236D01*
X62029Y-51233D02*
X61873Y-51233D01*
X46712Y-47939D02*
X46868Y-47939D01*
X46058Y-48836D02*
X46058Y-48680D01*
X50479Y-51212D02*
X50323Y-51212D01*
X55145Y-51911D02*
X55419Y-51911D01*
X46200Y-47630D02*
X46200Y-47904D01*
G54D16*
X46500Y-47427D02*
X46186Y-47427D01*
X46500Y-47003D02*
X46186Y-47003D01*
G54D10*
X61008Y-51017D02*
G75*
G03X61008Y-51017I-39J0D01*
G74*
G01*
X60929Y-51135D02*
X61638Y-51135D01*
X61638Y-51135D02*
X61638Y-52316D01*
X61638Y-52316D02*
X60929Y-52316D01*
X60929Y-52316D02*
X60929Y-51135D01*
X44017Y-50865D02*
X44017Y-49211D01*
X44017Y-49211D02*
X44253Y-48975D01*
X44253Y-48975D02*
X46694Y-48975D01*
X46694Y-48975D02*
X46694Y-50865D01*
X46694Y-50865D02*
X44017Y-50865D01*
X48063Y-50254D02*
G75*
G03X48063Y-50254I-157J0D01*
G74*
G01*
X47984Y-49781D02*
X48378Y-50175D01*
X48378Y-50175D02*
X51763Y-50175D01*
X51763Y-50175D02*
X51763Y-46395D01*
X51763Y-46395D02*
X47984Y-46395D01*
X47984Y-46395D02*
X47984Y-49781D01*
G54D15*
X61196Y-42842D02*
X61040Y-42842D01*
X60889Y-42842D02*
X60733Y-42842D01*
X60581Y-42842D02*
X60425Y-42842D01*
X60274Y-42842D02*
X60118Y-42842D01*
X62424Y-42842D02*
X62268Y-42842D01*
X62117Y-42842D02*
X61961Y-42842D01*
X61810Y-42842D02*
X61654Y-42842D01*
X61503Y-42842D02*
X61347Y-42842D01*
X51318Y-42622D02*
X51162Y-42622D01*
X45271Y-27767D02*
X45115Y-27767D01*
X46028Y-30791D02*
X46184Y-30791D01*
X46492Y-27274D02*
X46492Y-27118D01*
X45404Y-30216D02*
X45404Y-29942D01*
G54D16*
X45496Y-27729D02*
X45496Y-27415D01*
X45920Y-27729D02*
X45920Y-27415D01*
G54D13*
X44817Y-28434D02*
G75*
G03X44817Y-28434I-45J0D01*
G74*
G01*
G54D12*
X46158Y-28731D02*
X46158Y-29321D01*
X44977Y-28731D02*
X44977Y-29321D01*
G54D15*
X49543Y-52613D02*
X49543Y-52457D01*
X52870Y-52339D02*
X52870Y-52495D01*
X52818Y-49547D02*
X52662Y-49547D01*
X50527Y-52429D02*
X50527Y-52585D01*
X51251Y-51961D02*
X51251Y-52117D01*
X52450Y-36363D02*
X52450Y-36207D01*
X51424Y-35598D02*
X51424Y-35442D01*
X52450Y-36668D02*
X52450Y-36512D01*
G54D11*
X54638Y-37090D02*
X54638Y-36972D01*
X53629Y-41612D02*
X53629Y-41494D01*
X56392Y-38982D02*
X56510Y-38982D01*
G54D15*
X53959Y-36413D02*
X54155Y-36413D01*
X54337Y-36413D02*
X54533Y-36413D01*
X54743Y-36413D02*
X54939Y-36413D01*
X55120Y-36413D02*
X55316Y-36413D01*
G54D11*
X55167Y-37986D02*
X55285Y-37986D01*
X55522Y-37395D02*
X55404Y-37395D01*
X55404Y-37986D02*
X55522Y-37986D01*
X55758Y-37395D02*
X55640Y-37395D01*
X55640Y-37986D02*
X55758Y-37986D01*
X54596Y-37533D02*
X54596Y-37415D01*
X55010Y-37552D02*
X54892Y-37552D01*
X54203Y-37100D02*
X54203Y-37218D01*
X54222Y-37986D02*
X54341Y-37986D01*
X54459Y-37986D02*
X54577Y-37986D01*
X54931Y-37986D02*
X55049Y-37986D01*
X54695Y-37986D02*
X54813Y-37986D01*
X55345Y-38360D02*
X55345Y-38478D01*
X55345Y-38596D02*
X55345Y-38714D01*
X56230Y-37316D02*
X56112Y-37316D01*
X55994Y-37316D02*
X55876Y-37316D01*
X56289Y-37730D02*
X56289Y-37848D01*
X56289Y-37966D02*
X56289Y-38084D01*
X55285Y-37395D02*
X55167Y-37395D01*
X55651Y-36302D02*
X55651Y-36184D01*
X53629Y-36185D02*
X53629Y-36303D01*
X55651Y-35948D02*
X55651Y-36066D01*
X53629Y-36066D02*
X53629Y-35948D01*
X55278Y-35903D02*
X55160Y-35903D01*
X55042Y-35903D02*
X54924Y-35903D01*
G54D15*
X53377Y-37001D02*
X53533Y-37001D01*
G54D11*
X53261Y-38012D02*
X53261Y-37894D01*
X52710Y-38012D02*
X52710Y-37894D01*
X52710Y-38642D02*
X52710Y-38760D01*
X52887Y-38347D02*
X52769Y-38347D01*
X53951Y-39561D02*
X53833Y-39561D01*
X53715Y-39561D02*
X53597Y-39561D01*
X54128Y-40093D02*
X54128Y-40211D01*
X55053Y-39561D02*
X54935Y-39561D01*
X54817Y-39561D02*
X54699Y-39561D01*
X54581Y-39561D02*
X54463Y-39561D01*
X54345Y-39561D02*
X54226Y-39561D01*
X55076Y-40459D02*
X55076Y-40341D01*
X55073Y-39975D02*
X55073Y-39857D01*
X55073Y-40211D02*
X55073Y-40093D01*
G54D15*
X55321Y-41147D02*
X55125Y-41147D01*
X54943Y-41147D02*
X54747Y-41147D01*
X54160Y-41148D02*
X53964Y-41148D01*
X54536Y-41148D02*
X54340Y-41148D01*
G54D11*
X54929Y-41657D02*
X55047Y-41657D01*
X54001Y-41657D02*
X54119Y-41657D01*
X55650Y-41375D02*
X55650Y-41257D01*
X53629Y-41258D02*
X53629Y-41376D01*
X55650Y-41495D02*
X55650Y-41613D01*
X55165Y-41658D02*
X55283Y-41658D01*
X53734Y-38642D02*
X53734Y-38524D01*
X53734Y-38878D02*
X53734Y-38760D01*
X53095Y-39086D02*
X53095Y-39204D01*
X56360Y-38603D02*
X56360Y-38485D01*
X54640Y-40469D02*
X54640Y-40587D01*
X54238Y-41657D02*
X54356Y-41657D01*
X54115Y-35903D02*
X53997Y-35903D01*
X54351Y-35903D02*
X54233Y-35903D01*
G54D15*
X51597Y-36006D02*
X51441Y-36006D01*
X51984Y-36110D02*
X51828Y-36110D01*
X45444Y-31046D02*
X45444Y-30890D01*
G54D11*
X54247Y-40737D02*
X54247Y-40856D01*
X54246Y-36821D02*
X54246Y-36702D01*
X55035Y-40738D02*
X55035Y-40857D01*
X55034Y-36820D02*
X55034Y-36701D01*
X46255Y-32112D02*
X46255Y-32431D01*
X46236Y-32468D01*
X46217Y-32487D01*
X46180Y-32506D01*
X46105Y-32506D01*
X46067Y-32487D01*
X46049Y-32468D01*
X46030Y-32431D01*
X46030Y-32112D01*
X45861Y-32150D02*
X45842Y-32131D01*
X45805Y-32112D01*
X45711Y-32112D01*
X45674Y-32131D01*
X45655Y-32150D01*
X45636Y-32187D01*
X45636Y-32225D01*
X45655Y-32281D01*
X45880Y-32506D01*
X45636Y-32506D01*
X45261Y-32506D02*
X45486Y-32506D01*
X45374Y-32506D02*
X45374Y-32112D01*
X45411Y-32168D01*
X45449Y-32206D01*
X45486Y-32225D01*
G54D20*
X52653Y-27445D02*
X52559Y-27379D01*
X52653Y-27332D02*
X52456Y-27332D01*
X52456Y-27407D01*
X52466Y-27426D01*
X52475Y-27436D01*
X52494Y-27445D01*
X52522Y-27445D01*
X52541Y-27436D01*
X52550Y-27426D01*
X52559Y-27407D01*
X52559Y-27332D01*
X52456Y-27623D02*
X52456Y-27529D01*
X52550Y-27520D01*
X52541Y-27529D01*
X52531Y-27548D01*
X52531Y-27595D01*
X52541Y-27614D01*
X52550Y-27623D01*
X52569Y-27632D01*
X52616Y-27632D01*
X52634Y-27623D01*
X52644Y-27614D01*
X52653Y-27595D01*
X52653Y-27548D01*
X52644Y-27529D01*
X52634Y-27520D01*
X52456Y-27698D02*
X52456Y-27820D01*
X52531Y-27754D01*
X52531Y-27782D01*
X52541Y-27801D01*
X52550Y-27811D01*
X52569Y-27820D01*
X52616Y-27820D01*
X52634Y-27811D01*
X52644Y-27801D01*
X52653Y-27782D01*
X52653Y-27726D01*
X52644Y-27707D01*
X52634Y-27698D01*
X51871Y-27800D02*
X51937Y-27706D01*
X51984Y-27800D02*
X51984Y-27603D01*
X51909Y-27603D01*
X51890Y-27613D01*
X51881Y-27622D01*
X51871Y-27641D01*
X51871Y-27669D01*
X51881Y-27687D01*
X51890Y-27697D01*
X51909Y-27706D01*
X51984Y-27706D01*
X51806Y-27603D02*
X51684Y-27603D01*
X51749Y-27678D01*
X51721Y-27678D01*
X51702Y-27687D01*
X51693Y-27697D01*
X51684Y-27716D01*
X51684Y-27762D01*
X51693Y-27781D01*
X51702Y-27791D01*
X51721Y-27800D01*
X51777Y-27800D01*
X51796Y-27791D01*
X51806Y-27781D01*
X51506Y-27603D02*
X51599Y-27603D01*
X51609Y-27697D01*
X51599Y-27687D01*
X51581Y-27678D01*
X51534Y-27678D01*
X51515Y-27687D01*
X51506Y-27697D01*
X51496Y-27716D01*
X51496Y-27762D01*
X51506Y-27781D01*
X51515Y-27791D01*
X51534Y-27800D01*
X51581Y-27800D01*
X51599Y-27791D01*
X51609Y-27781D01*
X50036Y-27849D02*
X50102Y-27755D01*
X50149Y-27849D02*
X50149Y-27652D01*
X50074Y-27652D01*
X50055Y-27662D01*
X50045Y-27671D01*
X50036Y-27690D01*
X50036Y-27718D01*
X50045Y-27737D01*
X50055Y-27746D01*
X50074Y-27755D01*
X50149Y-27755D01*
X49970Y-27652D02*
X49849Y-27652D01*
X49914Y-27727D01*
X49886Y-27727D01*
X49867Y-27737D01*
X49858Y-27746D01*
X49849Y-27765D01*
X49849Y-27812D01*
X49858Y-27830D01*
X49867Y-27840D01*
X49886Y-27849D01*
X49942Y-27849D01*
X49961Y-27840D01*
X49970Y-27830D01*
X49783Y-27652D02*
X49661Y-27652D01*
X49727Y-27727D01*
X49699Y-27727D01*
X49680Y-27737D01*
X49670Y-27746D01*
X49661Y-27765D01*
X49661Y-27812D01*
X49670Y-27830D01*
X49680Y-27840D01*
X49699Y-27849D01*
X49755Y-27849D01*
X49774Y-27840D01*
X49783Y-27830D01*
X48851Y-27192D02*
X48917Y-27098D01*
X48964Y-27192D02*
X48964Y-26995D01*
X48889Y-26995D01*
X48870Y-27005D01*
X48861Y-27014D01*
X48851Y-27033D01*
X48851Y-27061D01*
X48861Y-27079D01*
X48870Y-27089D01*
X48889Y-27098D01*
X48964Y-27098D01*
X48786Y-26995D02*
X48664Y-26995D01*
X48729Y-27070D01*
X48701Y-27070D01*
X48682Y-27079D01*
X48673Y-27089D01*
X48664Y-27108D01*
X48664Y-27154D01*
X48673Y-27173D01*
X48682Y-27183D01*
X48701Y-27192D01*
X48757Y-27192D01*
X48776Y-27183D01*
X48786Y-27173D01*
X48495Y-27061D02*
X48495Y-27192D01*
X48542Y-26986D02*
X48589Y-27126D01*
X48467Y-27126D01*
X49707Y-25288D02*
X49716Y-25298D01*
X49745Y-25307D01*
X49763Y-25307D01*
X49791Y-25298D01*
X49810Y-25279D01*
X49820Y-25260D01*
X49829Y-25223D01*
X49829Y-25195D01*
X49820Y-25157D01*
X49810Y-25138D01*
X49791Y-25120D01*
X49763Y-25110D01*
X49745Y-25110D01*
X49716Y-25120D01*
X49707Y-25129D01*
X49529Y-25110D02*
X49623Y-25110D01*
X49632Y-25204D01*
X49623Y-25195D01*
X49604Y-25185D01*
X49557Y-25185D01*
X49538Y-25195D01*
X49529Y-25204D01*
X49520Y-25223D01*
X49520Y-25270D01*
X49529Y-25288D01*
X49538Y-25298D01*
X49557Y-25307D01*
X49604Y-25307D01*
X49623Y-25298D01*
X49632Y-25288D01*
X49351Y-25176D02*
X49351Y-25307D01*
X49398Y-25101D02*
X49445Y-25242D01*
X49323Y-25242D01*
X49214Y-24061D02*
X49223Y-24051D01*
X49232Y-24023D01*
X49232Y-24005D01*
X49223Y-23976D01*
X49204Y-23958D01*
X49185Y-23948D01*
X49148Y-23939D01*
X49120Y-23939D01*
X49082Y-23948D01*
X49064Y-23958D01*
X49045Y-23976D01*
X49035Y-24005D01*
X49035Y-24023D01*
X49045Y-24051D01*
X49054Y-24061D01*
X49035Y-24239D02*
X49035Y-24145D01*
X49129Y-24136D01*
X49120Y-24145D01*
X49110Y-24164D01*
X49110Y-24211D01*
X49120Y-24229D01*
X49129Y-24239D01*
X49148Y-24248D01*
X49195Y-24248D01*
X49214Y-24239D01*
X49223Y-24229D01*
X49232Y-24211D01*
X49232Y-24164D01*
X49223Y-24145D01*
X49214Y-24136D01*
X49232Y-24436D02*
X49232Y-24323D01*
X49232Y-24379D02*
X49035Y-24379D01*
X49064Y-24361D01*
X49082Y-24342D01*
X49092Y-24323D01*
X50799Y-27521D02*
X50705Y-27455D01*
X50799Y-27408D02*
X50602Y-27408D01*
X50602Y-27483D01*
X50612Y-27502D01*
X50621Y-27512D01*
X50640Y-27521D01*
X50668Y-27521D01*
X50687Y-27512D01*
X50696Y-27502D01*
X50705Y-27483D01*
X50705Y-27408D01*
X50602Y-27699D02*
X50602Y-27605D01*
X50696Y-27596D01*
X50687Y-27605D01*
X50677Y-27624D01*
X50677Y-27671D01*
X50687Y-27690D01*
X50696Y-27699D01*
X50715Y-27708D01*
X50762Y-27708D01*
X50780Y-27699D01*
X50790Y-27690D01*
X50799Y-27671D01*
X50799Y-27624D01*
X50790Y-27605D01*
X50780Y-27596D01*
X50621Y-27783D02*
X50612Y-27793D01*
X50602Y-27812D01*
X50602Y-27858D01*
X50612Y-27877D01*
X50621Y-27887D01*
X50640Y-27896D01*
X50659Y-27896D01*
X50687Y-27887D01*
X50799Y-27774D01*
X50799Y-27896D01*
X52927Y-25295D02*
X52936Y-25305D01*
X52965Y-25314D01*
X52983Y-25314D01*
X53011Y-25305D01*
X53030Y-25286D01*
X53040Y-25267D01*
X53049Y-25230D01*
X53049Y-25202D01*
X53040Y-25164D01*
X53030Y-25145D01*
X53011Y-25127D01*
X52983Y-25117D01*
X52965Y-25117D01*
X52936Y-25127D01*
X52927Y-25136D01*
X52749Y-25117D02*
X52843Y-25117D01*
X52852Y-25211D01*
X52843Y-25202D01*
X52824Y-25192D01*
X52777Y-25192D01*
X52758Y-25202D01*
X52749Y-25211D01*
X52740Y-25230D01*
X52740Y-25277D01*
X52749Y-25295D01*
X52758Y-25305D01*
X52777Y-25314D01*
X52824Y-25314D01*
X52843Y-25305D01*
X52852Y-25295D01*
X52561Y-25117D02*
X52655Y-25117D01*
X52665Y-25211D01*
X52655Y-25202D01*
X52636Y-25192D01*
X52590Y-25192D01*
X52571Y-25202D01*
X52561Y-25211D01*
X52552Y-25230D01*
X52552Y-25277D01*
X52561Y-25295D01*
X52571Y-25305D01*
X52590Y-25314D01*
X52636Y-25314D01*
X52655Y-25305D01*
X52665Y-25295D01*
X51405Y-24765D02*
X51415Y-24756D01*
X51424Y-24727D01*
X51424Y-24709D01*
X51415Y-24681D01*
X51396Y-24662D01*
X51377Y-24652D01*
X51340Y-24643D01*
X51312Y-24643D01*
X51274Y-24652D01*
X51255Y-24662D01*
X51237Y-24681D01*
X51227Y-24709D01*
X51227Y-24727D01*
X51237Y-24756D01*
X51246Y-24765D01*
X51227Y-24943D02*
X51227Y-24849D01*
X51321Y-24840D01*
X51312Y-24849D01*
X51302Y-24868D01*
X51302Y-24915D01*
X51312Y-24934D01*
X51321Y-24943D01*
X51340Y-24952D01*
X51387Y-24952D01*
X51405Y-24943D01*
X51415Y-24934D01*
X51424Y-24915D01*
X51424Y-24868D01*
X51415Y-24849D01*
X51405Y-24840D01*
X51246Y-25027D02*
X51237Y-25037D01*
X51227Y-25056D01*
X51227Y-25102D01*
X51237Y-25121D01*
X51246Y-25131D01*
X51265Y-25140D01*
X51284Y-25140D01*
X51312Y-25131D01*
X51424Y-25018D01*
X51424Y-25140D01*
X51242Y-27475D02*
X51308Y-27381D01*
X51355Y-27475D02*
X51355Y-27278D01*
X51280Y-27278D01*
X51261Y-27288D01*
X51251Y-27297D01*
X51242Y-27316D01*
X51242Y-27344D01*
X51251Y-27363D01*
X51261Y-27372D01*
X51280Y-27381D01*
X51355Y-27381D01*
X51176Y-27278D02*
X51055Y-27278D01*
X51120Y-27353D01*
X51092Y-27353D01*
X51073Y-27363D01*
X51064Y-27372D01*
X51055Y-27391D01*
X51055Y-27438D01*
X51064Y-27456D01*
X51073Y-27466D01*
X51092Y-27475D01*
X51148Y-27475D01*
X51167Y-27466D01*
X51176Y-27456D01*
X50886Y-27278D02*
X50923Y-27278D01*
X50942Y-27288D01*
X50951Y-27297D01*
X50970Y-27325D01*
X50980Y-27363D01*
X50980Y-27438D01*
X50970Y-27456D01*
X50961Y-27466D01*
X50942Y-27475D01*
X50905Y-27475D01*
X50886Y-27466D01*
X50876Y-27456D01*
X50867Y-27438D01*
X50867Y-27391D01*
X50876Y-27372D01*
X50886Y-27363D01*
X50905Y-27353D01*
X50942Y-27353D01*
X50961Y-27363D01*
X50970Y-27372D01*
X50980Y-27391D01*
X50771Y-26927D02*
X50781Y-26918D01*
X50790Y-26889D01*
X50790Y-26871D01*
X50781Y-26843D01*
X50762Y-26824D01*
X50743Y-26814D01*
X50706Y-26805D01*
X50678Y-26805D01*
X50640Y-26814D01*
X50621Y-26824D01*
X50603Y-26843D01*
X50593Y-26871D01*
X50593Y-26889D01*
X50603Y-26918D01*
X50612Y-26927D01*
X50593Y-27096D02*
X50593Y-27058D01*
X50603Y-27039D01*
X50612Y-27030D01*
X50640Y-27011D01*
X50678Y-27002D01*
X50753Y-27002D01*
X50771Y-27011D01*
X50781Y-27021D01*
X50790Y-27039D01*
X50790Y-27077D01*
X50781Y-27096D01*
X50771Y-27105D01*
X50753Y-27114D01*
X50706Y-27114D01*
X50687Y-27105D01*
X50678Y-27096D01*
X50668Y-27077D01*
X50668Y-27039D01*
X50678Y-27021D01*
X50687Y-27011D01*
X50706Y-27002D01*
X50612Y-27189D02*
X50603Y-27199D01*
X50593Y-27218D01*
X50593Y-27264D01*
X50603Y-27283D01*
X50612Y-27293D01*
X50631Y-27302D01*
X50650Y-27302D01*
X50678Y-27293D01*
X50790Y-27180D01*
X50790Y-27302D01*
X52840Y-27143D02*
X52850Y-27153D01*
X52878Y-27162D01*
X52896Y-27162D01*
X52925Y-27153D01*
X52943Y-27134D01*
X52953Y-27115D01*
X52962Y-27078D01*
X52962Y-27049D01*
X52953Y-27012D01*
X52943Y-26993D01*
X52925Y-26975D01*
X52896Y-26965D01*
X52878Y-26965D01*
X52850Y-26975D01*
X52840Y-26984D01*
X52671Y-26965D02*
X52709Y-26965D01*
X52728Y-26975D01*
X52737Y-26984D01*
X52756Y-27012D01*
X52765Y-27049D01*
X52765Y-27124D01*
X52756Y-27143D01*
X52746Y-27153D01*
X52728Y-27162D01*
X52690Y-27162D01*
X52671Y-27153D01*
X52662Y-27143D01*
X52653Y-27124D01*
X52653Y-27078D01*
X52662Y-27059D01*
X52671Y-27049D01*
X52690Y-27040D01*
X52728Y-27040D01*
X52746Y-27049D01*
X52756Y-27059D01*
X52765Y-27078D01*
X52484Y-27031D02*
X52484Y-27162D01*
X52531Y-26956D02*
X52578Y-27096D01*
X52456Y-27096D01*
G54D11*
X51064Y-29095D02*
X51169Y-28945D01*
X51244Y-29095D02*
X51244Y-28780D01*
X51124Y-28780D01*
X51094Y-28795D01*
X51079Y-28810D01*
X51064Y-28840D01*
X51064Y-28885D01*
X51079Y-28915D01*
X51094Y-28930D01*
X51124Y-28945D01*
X51244Y-28945D01*
X50914Y-29095D02*
X50854Y-29095D01*
X50824Y-29080D01*
X50809Y-29065D01*
X50779Y-29020D01*
X50764Y-28960D01*
X50764Y-28840D01*
X50779Y-28810D01*
X50794Y-28795D01*
X50824Y-28780D01*
X50884Y-28780D01*
X50914Y-28795D01*
X50929Y-28810D01*
X50944Y-28840D01*
X50944Y-28915D01*
X50929Y-28945D01*
X50914Y-28960D01*
X50884Y-28975D01*
X50824Y-28975D01*
X50794Y-28960D01*
X50779Y-28945D01*
X50764Y-28915D01*
X50659Y-28780D02*
X50464Y-28780D01*
X50569Y-28900D01*
X50524Y-28900D01*
X50494Y-28915D01*
X50479Y-28930D01*
X50464Y-28960D01*
X50464Y-29035D01*
X50479Y-29065D01*
X50494Y-29080D01*
X50524Y-29095D01*
X50614Y-29095D01*
X50644Y-29080D01*
X50659Y-29065D01*
X52111Y-29074D02*
X52216Y-28924D01*
X52291Y-29074D02*
X52291Y-28759D01*
X52171Y-28759D01*
X52141Y-28774D01*
X52126Y-28789D01*
X52111Y-28819D01*
X52111Y-28864D01*
X52126Y-28894D01*
X52141Y-28909D01*
X52171Y-28924D01*
X52291Y-28924D01*
X51961Y-29074D02*
X51901Y-29074D01*
X51871Y-29059D01*
X51856Y-29044D01*
X51826Y-28999D01*
X51811Y-28939D01*
X51811Y-28819D01*
X51826Y-28789D01*
X51841Y-28774D01*
X51871Y-28759D01*
X51931Y-28759D01*
X51961Y-28774D01*
X51976Y-28789D01*
X51991Y-28819D01*
X51991Y-28894D01*
X51976Y-28924D01*
X51961Y-28939D01*
X51931Y-28954D01*
X51871Y-28954D01*
X51841Y-28939D01*
X51826Y-28924D01*
X51811Y-28894D01*
X51631Y-28894D02*
X51661Y-28879D01*
X51676Y-28864D01*
X51691Y-28834D01*
X51691Y-28819D01*
X51676Y-28789D01*
X51661Y-28774D01*
X51631Y-28759D01*
X51571Y-28759D01*
X51541Y-28774D01*
X51526Y-28789D01*
X51511Y-28819D01*
X51511Y-28834D01*
X51526Y-28864D01*
X51541Y-28879D01*
X51571Y-28894D01*
X51631Y-28894D01*
X51661Y-28909D01*
X51676Y-28924D01*
X51691Y-28954D01*
X51691Y-29014D01*
X51676Y-29044D01*
X51661Y-29059D01*
X51631Y-29074D01*
X51571Y-29074D01*
X51541Y-29059D01*
X51526Y-29044D01*
X51511Y-29014D01*
X51511Y-28954D01*
X51526Y-28924D01*
X51541Y-28909D01*
X51571Y-28894D01*
X50621Y-23982D02*
X50621Y-23877D01*
X50786Y-23877D02*
X50471Y-23877D01*
X50471Y-24027D01*
X50621Y-24252D02*
X50636Y-24297D01*
X50651Y-24312D01*
X50681Y-24327D01*
X50726Y-24327D01*
X50756Y-24312D01*
X50771Y-24297D01*
X50786Y-24267D01*
X50786Y-24147D01*
X50471Y-24147D01*
X50471Y-24252D01*
X50486Y-24282D01*
X50501Y-24297D01*
X50531Y-24312D01*
X50561Y-24312D01*
X50591Y-24297D01*
X50606Y-24282D01*
X50621Y-24252D01*
X50621Y-24147D01*
X50786Y-24627D02*
X50786Y-24447D01*
X50786Y-24537D02*
X50471Y-24537D01*
X50516Y-24507D01*
X50546Y-24477D01*
X50561Y-24447D01*
X50606Y-24807D02*
X50591Y-24777D01*
X50576Y-24762D01*
X50546Y-24747D01*
X50531Y-24747D01*
X50501Y-24762D01*
X50486Y-24777D01*
X50471Y-24807D01*
X50471Y-24867D01*
X50486Y-24897D01*
X50501Y-24912D01*
X50531Y-24927D01*
X50546Y-24927D01*
X50576Y-24912D01*
X50591Y-24897D01*
X50606Y-24867D01*
X50606Y-24807D01*
X50621Y-24777D01*
X50636Y-24762D01*
X50666Y-24747D01*
X50726Y-24747D01*
X50756Y-24762D01*
X50771Y-24777D01*
X50786Y-24807D01*
X50786Y-24867D01*
X50771Y-24897D01*
X50756Y-24912D01*
X50726Y-24927D01*
X50666Y-24927D01*
X50636Y-24912D01*
X50621Y-24897D01*
X50606Y-24867D01*
X52504Y-23954D02*
X52504Y-23849D01*
X52669Y-23849D02*
X52354Y-23849D01*
X52354Y-23999D01*
X52504Y-24224D02*
X52519Y-24269D01*
X52534Y-24284D01*
X52564Y-24299D01*
X52609Y-24299D01*
X52639Y-24284D01*
X52654Y-24269D01*
X52669Y-24239D01*
X52669Y-24119D01*
X52354Y-24119D01*
X52354Y-24224D01*
X52369Y-24254D01*
X52384Y-24269D01*
X52414Y-24284D01*
X52444Y-24284D01*
X52474Y-24269D01*
X52489Y-24254D01*
X52504Y-24224D01*
X52504Y-24119D01*
X52669Y-24599D02*
X52669Y-24419D01*
X52669Y-24509D02*
X52354Y-24509D01*
X52399Y-24479D01*
X52429Y-24449D01*
X52444Y-24419D01*
X52669Y-24749D02*
X52669Y-24809D01*
X52654Y-24839D01*
X52639Y-24854D01*
X52594Y-24884D01*
X52534Y-24899D01*
X52414Y-24899D01*
X52384Y-24884D01*
X52369Y-24869D01*
X52354Y-24839D01*
X52354Y-24779D01*
X52369Y-24749D01*
X52384Y-24734D01*
X52414Y-24719D01*
X52489Y-24719D01*
X52519Y-24734D01*
X52534Y-24749D01*
X52549Y-24779D01*
X52549Y-24839D01*
X52534Y-24869D01*
X52519Y-24884D01*
X52489Y-24899D01*
X51120Y-25868D02*
X51439Y-25868D01*
X51476Y-25887D01*
X51495Y-25906D01*
X51514Y-25943D01*
X51514Y-26018D01*
X51495Y-26056D01*
X51476Y-26074D01*
X51439Y-26093D01*
X51120Y-26093D01*
X51120Y-26468D02*
X51120Y-26281D01*
X51308Y-26262D01*
X51289Y-26281D01*
X51270Y-26318D01*
X51270Y-26412D01*
X51289Y-26449D01*
X51308Y-26468D01*
X51345Y-26487D01*
X51439Y-26487D01*
X51476Y-26468D01*
X51495Y-26449D01*
X51514Y-26412D01*
X51514Y-26318D01*
X51495Y-26281D01*
X51476Y-26262D01*
X52261Y-25858D02*
X52580Y-25858D01*
X52618Y-25877D01*
X52636Y-25896D01*
X52655Y-25933D01*
X52655Y-26008D01*
X52636Y-26046D01*
X52618Y-26065D01*
X52580Y-26083D01*
X52261Y-26083D01*
X52261Y-26440D02*
X52261Y-26365D01*
X52280Y-26327D01*
X52299Y-26308D01*
X52355Y-26271D01*
X52430Y-26252D01*
X52580Y-26252D01*
X52618Y-26271D01*
X52636Y-26290D01*
X52655Y-26327D01*
X52655Y-26402D01*
X52636Y-26440D01*
X52618Y-26458D01*
X52580Y-26477D01*
X52486Y-26477D01*
X52449Y-26458D01*
X52430Y-26440D01*
X52411Y-26402D01*
X52411Y-26327D01*
X52430Y-26290D01*
X52449Y-26271D01*
X52486Y-26252D01*
G54D20*
X47058Y-31207D02*
X47068Y-31198D01*
X47077Y-31170D01*
X47077Y-31151D01*
X47068Y-31123D01*
X47049Y-31104D01*
X47030Y-31095D01*
X46993Y-31085D01*
X46965Y-31085D01*
X46927Y-31095D01*
X46908Y-31104D01*
X46890Y-31123D01*
X46880Y-31151D01*
X46880Y-31170D01*
X46890Y-31198D01*
X46899Y-31207D01*
X47077Y-31395D02*
X47077Y-31282D01*
X47077Y-31338D02*
X46880Y-31338D01*
X46908Y-31320D01*
X46927Y-31301D01*
X46937Y-31282D01*
X46880Y-31460D02*
X46880Y-31592D01*
X47077Y-31507D01*
X46946Y-31751D02*
X47077Y-31751D01*
X46871Y-31704D02*
X47012Y-31657D01*
X47012Y-31779D01*
X47859Y-34146D02*
X47869Y-34137D01*
X47878Y-34109D01*
X47878Y-34090D01*
X47869Y-34062D01*
X47850Y-34043D01*
X47831Y-34034D01*
X47794Y-34024D01*
X47766Y-34024D01*
X47728Y-34034D01*
X47709Y-34043D01*
X47691Y-34062D01*
X47681Y-34090D01*
X47681Y-34109D01*
X47691Y-34137D01*
X47700Y-34146D01*
X47878Y-34334D02*
X47878Y-34221D01*
X47878Y-34277D02*
X47681Y-34277D01*
X47709Y-34259D01*
X47728Y-34240D01*
X47738Y-34221D01*
X47681Y-34502D02*
X47681Y-34465D01*
X47691Y-34446D01*
X47700Y-34437D01*
X47728Y-34418D01*
X47766Y-34409D01*
X47841Y-34409D01*
X47859Y-34418D01*
X47869Y-34427D01*
X47878Y-34446D01*
X47878Y-34484D01*
X47869Y-34502D01*
X47859Y-34512D01*
X47841Y-34521D01*
X47794Y-34521D01*
X47775Y-34512D01*
X47766Y-34502D01*
X47756Y-34484D01*
X47756Y-34446D01*
X47766Y-34427D01*
X47775Y-34418D01*
X47794Y-34409D01*
X47766Y-34634D02*
X47756Y-34615D01*
X47747Y-34606D01*
X47728Y-34596D01*
X47719Y-34596D01*
X47700Y-34606D01*
X47691Y-34615D01*
X47681Y-34634D01*
X47681Y-34671D01*
X47691Y-34690D01*
X47700Y-34699D01*
X47719Y-34709D01*
X47728Y-34709D01*
X47747Y-34699D01*
X47756Y-34690D01*
X47766Y-34671D01*
X47766Y-34634D01*
X47775Y-34615D01*
X47784Y-34606D01*
X47803Y-34596D01*
X47841Y-34596D01*
X47859Y-34606D01*
X47869Y-34615D01*
X47878Y-34634D01*
X47878Y-34671D01*
X47869Y-34690D01*
X47859Y-34699D01*
X47841Y-34709D01*
X47803Y-34709D01*
X47784Y-34699D01*
X47775Y-34690D01*
X47766Y-34671D01*
X47544Y-34155D02*
X47554Y-34146D01*
X47563Y-34118D01*
X47563Y-34099D01*
X47554Y-34071D01*
X47535Y-34052D01*
X47516Y-34043D01*
X47479Y-34033D01*
X47451Y-34033D01*
X47413Y-34043D01*
X47394Y-34052D01*
X47376Y-34071D01*
X47366Y-34099D01*
X47366Y-34118D01*
X47376Y-34146D01*
X47385Y-34155D01*
X47563Y-34343D02*
X47563Y-34230D01*
X47563Y-34286D02*
X47366Y-34286D01*
X47394Y-34268D01*
X47413Y-34249D01*
X47423Y-34230D01*
X47366Y-34511D02*
X47366Y-34474D01*
X47376Y-34455D01*
X47385Y-34446D01*
X47413Y-34427D01*
X47451Y-34418D01*
X47526Y-34418D01*
X47544Y-34427D01*
X47554Y-34436D01*
X47563Y-34455D01*
X47563Y-34493D01*
X47554Y-34511D01*
X47544Y-34521D01*
X47526Y-34530D01*
X47479Y-34530D01*
X47460Y-34521D01*
X47451Y-34511D01*
X47441Y-34493D01*
X47441Y-34455D01*
X47451Y-34436D01*
X47460Y-34427D01*
X47479Y-34418D01*
X47432Y-34699D02*
X47563Y-34699D01*
X47357Y-34652D02*
X47498Y-34605D01*
X47498Y-34727D01*
X48197Y-34137D02*
X48207Y-34128D01*
X48216Y-34100D01*
X48216Y-34081D01*
X48207Y-34053D01*
X48188Y-34034D01*
X48169Y-34025D01*
X48132Y-34015D01*
X48104Y-34015D01*
X48066Y-34025D01*
X48047Y-34034D01*
X48029Y-34053D01*
X48019Y-34081D01*
X48019Y-34100D01*
X48029Y-34128D01*
X48038Y-34137D01*
X48216Y-34325D02*
X48216Y-34212D01*
X48216Y-34268D02*
X48019Y-34268D01*
X48047Y-34250D01*
X48066Y-34231D01*
X48076Y-34212D01*
X48019Y-34493D02*
X48019Y-34456D01*
X48029Y-34437D01*
X48038Y-34428D01*
X48066Y-34409D01*
X48104Y-34400D01*
X48179Y-34400D01*
X48197Y-34409D01*
X48207Y-34418D01*
X48216Y-34437D01*
X48216Y-34475D01*
X48207Y-34493D01*
X48197Y-34503D01*
X48179Y-34512D01*
X48132Y-34512D01*
X48113Y-34503D01*
X48104Y-34493D01*
X48094Y-34475D01*
X48094Y-34437D01*
X48104Y-34418D01*
X48113Y-34409D01*
X48132Y-34400D01*
X48019Y-34681D02*
X48019Y-34643D01*
X48029Y-34625D01*
X48038Y-34615D01*
X48066Y-34597D01*
X48104Y-34587D01*
X48179Y-34587D01*
X48197Y-34597D01*
X48207Y-34606D01*
X48216Y-34625D01*
X48216Y-34662D01*
X48207Y-34681D01*
X48197Y-34690D01*
X48179Y-34700D01*
X48132Y-34700D01*
X48113Y-34690D01*
X48104Y-34681D01*
X48094Y-34662D01*
X48094Y-34625D01*
X48104Y-34606D01*
X48113Y-34597D01*
X48132Y-34587D01*
X47358Y-35412D02*
X47367Y-35422D01*
X47395Y-35431D01*
X47414Y-35431D01*
X47442Y-35422D01*
X47461Y-35403D01*
X47470Y-35384D01*
X47480Y-35347D01*
X47480Y-35319D01*
X47470Y-35281D01*
X47461Y-35262D01*
X47442Y-35244D01*
X47414Y-35234D01*
X47395Y-35234D01*
X47367Y-35244D01*
X47358Y-35253D01*
X47170Y-35431D02*
X47283Y-35431D01*
X47227Y-35431D02*
X47227Y-35234D01*
X47245Y-35262D01*
X47264Y-35281D01*
X47283Y-35291D01*
X47002Y-35234D02*
X47039Y-35234D01*
X47058Y-35244D01*
X47067Y-35253D01*
X47086Y-35281D01*
X47095Y-35319D01*
X47095Y-35394D01*
X47086Y-35412D01*
X47077Y-35422D01*
X47058Y-35431D01*
X47020Y-35431D01*
X47002Y-35422D01*
X46992Y-35412D01*
X46983Y-35394D01*
X46983Y-35347D01*
X46992Y-35328D01*
X47002Y-35319D01*
X47020Y-35309D01*
X47058Y-35309D01*
X47077Y-35319D01*
X47086Y-35328D01*
X47095Y-35347D01*
X46908Y-35253D02*
X46898Y-35244D01*
X46880Y-35234D01*
X46833Y-35234D01*
X46814Y-35244D01*
X46805Y-35253D01*
X46795Y-35272D01*
X46795Y-35291D01*
X46805Y-35319D01*
X46917Y-35431D01*
X46795Y-35431D01*
X44887Y-35084D02*
X44896Y-35094D01*
X44924Y-35103D01*
X44943Y-35103D01*
X44971Y-35094D01*
X44990Y-35075D01*
X44999Y-35056D01*
X45009Y-35019D01*
X45009Y-34991D01*
X44999Y-34953D01*
X44990Y-34934D01*
X44971Y-34916D01*
X44943Y-34906D01*
X44924Y-34906D01*
X44896Y-34916D01*
X44887Y-34925D01*
X44699Y-35103D02*
X44812Y-35103D01*
X44756Y-35103D02*
X44756Y-34906D01*
X44774Y-34934D01*
X44793Y-34953D01*
X44812Y-34963D01*
X44577Y-34906D02*
X44559Y-34906D01*
X44540Y-34916D01*
X44531Y-34925D01*
X44521Y-34944D01*
X44512Y-34981D01*
X44512Y-35028D01*
X44521Y-35066D01*
X44531Y-35084D01*
X44540Y-35094D01*
X44559Y-35103D01*
X44577Y-35103D01*
X44596Y-35094D01*
X44606Y-35084D01*
X44615Y-35066D01*
X44624Y-35028D01*
X44624Y-34981D01*
X44615Y-34944D01*
X44606Y-34925D01*
X44596Y-34916D01*
X44577Y-34906D01*
X44390Y-34906D02*
X44371Y-34906D01*
X44352Y-34916D01*
X44343Y-34925D01*
X44334Y-34944D01*
X44324Y-34981D01*
X44324Y-35028D01*
X44334Y-35066D01*
X44343Y-35084D01*
X44352Y-35094D01*
X44371Y-35103D01*
X44390Y-35103D01*
X44409Y-35094D01*
X44418Y-35084D01*
X44427Y-35066D01*
X44437Y-35028D01*
X44437Y-34981D01*
X44427Y-34944D01*
X44418Y-34925D01*
X44409Y-34916D01*
X44390Y-34906D01*
X49630Y-31815D02*
X49639Y-31825D01*
X49667Y-31834D01*
X49686Y-31834D01*
X49714Y-31825D01*
X49733Y-31806D01*
X49742Y-31787D01*
X49752Y-31750D01*
X49752Y-31722D01*
X49742Y-31684D01*
X49733Y-31665D01*
X49714Y-31647D01*
X49686Y-31637D01*
X49667Y-31637D01*
X49639Y-31647D01*
X49630Y-31656D01*
X49442Y-31834D02*
X49555Y-31834D01*
X49499Y-31834D02*
X49499Y-31637D01*
X49517Y-31665D01*
X49536Y-31684D01*
X49555Y-31694D01*
X49264Y-31637D02*
X49358Y-31637D01*
X49367Y-31731D01*
X49358Y-31722D01*
X49339Y-31712D01*
X49292Y-31712D01*
X49274Y-31722D01*
X49264Y-31731D01*
X49255Y-31750D01*
X49255Y-31797D01*
X49264Y-31815D01*
X49274Y-31825D01*
X49292Y-31834D01*
X49339Y-31834D01*
X49358Y-31825D01*
X49367Y-31815D01*
X49161Y-31834D02*
X49124Y-31834D01*
X49105Y-31825D01*
X49095Y-31815D01*
X49077Y-31787D01*
X49067Y-31750D01*
X49067Y-31675D01*
X49077Y-31656D01*
X49086Y-31647D01*
X49105Y-31637D01*
X49142Y-31637D01*
X49161Y-31647D01*
X49170Y-31656D01*
X49180Y-31675D01*
X49180Y-31722D01*
X49170Y-31740D01*
X49161Y-31750D01*
X49142Y-31759D01*
X49105Y-31759D01*
X49086Y-31750D01*
X49077Y-31740D01*
X49067Y-31722D01*
X46163Y-35341D02*
X46069Y-35276D01*
X46163Y-35229D02*
X45966Y-35229D01*
X45966Y-35304D01*
X45976Y-35322D01*
X45985Y-35332D01*
X46004Y-35341D01*
X46032Y-35341D01*
X46051Y-35332D01*
X46060Y-35322D01*
X46069Y-35304D01*
X46069Y-35229D01*
X46163Y-35529D02*
X46163Y-35416D01*
X46163Y-35472D02*
X45966Y-35472D01*
X45994Y-35454D01*
X46013Y-35435D01*
X46023Y-35416D01*
X46163Y-35716D02*
X46163Y-35604D01*
X46163Y-35660D02*
X45966Y-35660D01*
X45994Y-35641D01*
X46013Y-35622D01*
X46023Y-35604D01*
X45985Y-35791D02*
X45976Y-35801D01*
X45966Y-35819D01*
X45966Y-35866D01*
X45976Y-35885D01*
X45985Y-35894D01*
X46004Y-35904D01*
X46023Y-35904D01*
X46051Y-35894D01*
X46163Y-35782D01*
X46163Y-35904D01*
X46667Y-36048D02*
X46573Y-35983D01*
X46667Y-35936D02*
X46470Y-35936D01*
X46470Y-36011D01*
X46480Y-36029D01*
X46489Y-36039D01*
X46508Y-36048D01*
X46536Y-36048D01*
X46555Y-36039D01*
X46564Y-36029D01*
X46573Y-36011D01*
X46573Y-35936D01*
X46667Y-36236D02*
X46667Y-36123D01*
X46667Y-36179D02*
X46470Y-36179D01*
X46498Y-36161D01*
X46517Y-36142D01*
X46527Y-36123D01*
X46667Y-36423D02*
X46667Y-36311D01*
X46667Y-36367D02*
X46470Y-36367D01*
X46498Y-36348D01*
X46517Y-36329D01*
X46527Y-36311D01*
X46470Y-36489D02*
X46470Y-36611D01*
X46545Y-36545D01*
X46545Y-36573D01*
X46555Y-36592D01*
X46564Y-36601D01*
X46583Y-36611D01*
X46630Y-36611D01*
X46648Y-36601D01*
X46658Y-36592D01*
X46667Y-36573D01*
X46667Y-36517D01*
X46658Y-36498D01*
X46648Y-36489D01*
X48609Y-34999D02*
X48674Y-34905D01*
X48721Y-34999D02*
X48721Y-34802D01*
X48646Y-34802D01*
X48628Y-34812D01*
X48618Y-34821D01*
X48609Y-34840D01*
X48609Y-34868D01*
X48618Y-34887D01*
X48628Y-34896D01*
X48646Y-34905D01*
X48721Y-34905D01*
X48421Y-34999D02*
X48534Y-34999D01*
X48478Y-34999D02*
X48478Y-34802D01*
X48496Y-34830D01*
X48515Y-34849D01*
X48534Y-34859D01*
X48234Y-34999D02*
X48346Y-34999D01*
X48290Y-34999D02*
X48290Y-34802D01*
X48309Y-34830D01*
X48328Y-34849D01*
X48346Y-34859D01*
X48065Y-34868D02*
X48065Y-34999D01*
X48112Y-34793D02*
X48159Y-34934D01*
X48037Y-34934D01*
X47421Y-32052D02*
X47486Y-31958D01*
X47533Y-32052D02*
X47533Y-31855D01*
X47458Y-31855D01*
X47440Y-31865D01*
X47430Y-31874D01*
X47421Y-31893D01*
X47421Y-31921D01*
X47430Y-31940D01*
X47440Y-31949D01*
X47458Y-31958D01*
X47533Y-31958D01*
X47233Y-32052D02*
X47346Y-32052D01*
X47290Y-32052D02*
X47290Y-31855D01*
X47308Y-31883D01*
X47327Y-31902D01*
X47346Y-31912D01*
X47158Y-31874D02*
X47149Y-31865D01*
X47130Y-31855D01*
X47083Y-31855D01*
X47065Y-31865D01*
X47055Y-31874D01*
X47046Y-31893D01*
X47046Y-31912D01*
X47055Y-31940D01*
X47168Y-32052D01*
X47046Y-32052D01*
X46971Y-31874D02*
X46961Y-31865D01*
X46943Y-31855D01*
X46896Y-31855D01*
X46877Y-31865D01*
X46868Y-31874D01*
X46858Y-31893D01*
X46858Y-31912D01*
X46868Y-31940D01*
X46980Y-32052D01*
X46858Y-32052D01*
X44142Y-32162D02*
X44048Y-32096D01*
X44142Y-32049D02*
X43945Y-32049D01*
X43945Y-32124D01*
X43954Y-32143D01*
X43964Y-32153D01*
X43982Y-32162D01*
X44010Y-32162D01*
X44029Y-32153D01*
X44039Y-32143D01*
X44048Y-32124D01*
X44048Y-32049D01*
X44142Y-32349D02*
X44142Y-32237D01*
X44142Y-32293D02*
X43945Y-32293D01*
X43973Y-32274D01*
X43992Y-32256D01*
X44001Y-32237D01*
X43964Y-32424D02*
X43954Y-32434D01*
X43945Y-32453D01*
X43945Y-32499D01*
X43954Y-32518D01*
X43964Y-32528D01*
X43982Y-32537D01*
X44001Y-32537D01*
X44029Y-32528D01*
X44142Y-32415D01*
X44142Y-32537D01*
X44142Y-32724D02*
X44142Y-32612D01*
X44142Y-32668D02*
X43945Y-32668D01*
X43973Y-32649D01*
X43992Y-32631D01*
X44001Y-32612D01*
X48178Y-31669D02*
X48188Y-31660D01*
X48197Y-31632D01*
X48197Y-31613D01*
X48188Y-31585D01*
X48169Y-31566D01*
X48150Y-31557D01*
X48113Y-31547D01*
X48085Y-31547D01*
X48047Y-31557D01*
X48028Y-31566D01*
X48010Y-31585D01*
X48000Y-31613D01*
X48000Y-31632D01*
X48010Y-31660D01*
X48019Y-31669D01*
X48197Y-31857D02*
X48197Y-31744D01*
X48197Y-31800D02*
X48000Y-31800D01*
X48028Y-31782D01*
X48047Y-31763D01*
X48057Y-31744D01*
X48000Y-31922D02*
X48000Y-32054D01*
X48197Y-31969D01*
X48000Y-32222D02*
X48000Y-32129D01*
X48094Y-32119D01*
X48085Y-32129D01*
X48075Y-32147D01*
X48075Y-32194D01*
X48085Y-32213D01*
X48094Y-32222D01*
X48113Y-32232D01*
X48160Y-32232D01*
X48178Y-32222D01*
X48188Y-32213D01*
X48197Y-32194D01*
X48197Y-32147D01*
X48188Y-32129D01*
X48178Y-32119D01*
X47427Y-31225D02*
X47437Y-31216D01*
X47446Y-31188D01*
X47446Y-31169D01*
X47437Y-31141D01*
X47418Y-31122D01*
X47399Y-31113D01*
X47362Y-31103D01*
X47334Y-31103D01*
X47296Y-31113D01*
X47277Y-31122D01*
X47259Y-31141D01*
X47249Y-31169D01*
X47249Y-31188D01*
X47259Y-31216D01*
X47268Y-31225D01*
X47446Y-31413D02*
X47446Y-31300D01*
X47446Y-31356D02*
X47249Y-31356D01*
X47277Y-31338D01*
X47296Y-31319D01*
X47306Y-31300D01*
X47249Y-31478D02*
X47249Y-31610D01*
X47446Y-31525D01*
X47249Y-31769D02*
X47249Y-31731D01*
X47259Y-31713D01*
X47268Y-31703D01*
X47296Y-31685D01*
X47334Y-31675D01*
X47409Y-31675D01*
X47427Y-31685D01*
X47437Y-31694D01*
X47446Y-31713D01*
X47446Y-31750D01*
X47437Y-31769D01*
X47427Y-31778D01*
X47409Y-31788D01*
X47362Y-31788D01*
X47343Y-31778D01*
X47334Y-31769D01*
X47324Y-31750D01*
X47324Y-31713D01*
X47334Y-31694D01*
X47343Y-31685D01*
X47362Y-31675D01*
X45016Y-35478D02*
X44922Y-35412D01*
X45016Y-35366D02*
X44819Y-35366D01*
X44819Y-35441D01*
X44828Y-35459D01*
X44838Y-35469D01*
X44856Y-35478D01*
X44884Y-35478D01*
X44903Y-35469D01*
X44913Y-35459D01*
X44922Y-35441D01*
X44922Y-35366D01*
X44903Y-35590D02*
X44894Y-35572D01*
X44884Y-35562D01*
X44866Y-35553D01*
X44856Y-35553D01*
X44838Y-35562D01*
X44828Y-35572D01*
X44819Y-35590D01*
X44819Y-35628D01*
X44828Y-35647D01*
X44838Y-35656D01*
X44856Y-35665D01*
X44866Y-35665D01*
X44884Y-35656D01*
X44894Y-35647D01*
X44903Y-35628D01*
X44903Y-35590D01*
X44913Y-35572D01*
X44922Y-35562D01*
X44941Y-35553D01*
X44978Y-35553D01*
X44997Y-35562D01*
X45006Y-35572D01*
X45016Y-35590D01*
X45016Y-35628D01*
X45006Y-35647D01*
X44997Y-35656D01*
X44978Y-35665D01*
X44941Y-35665D01*
X44922Y-35656D01*
X44913Y-35647D01*
X44903Y-35628D01*
X44819Y-35787D02*
X44819Y-35806D01*
X44828Y-35825D01*
X44838Y-35834D01*
X44856Y-35844D01*
X44894Y-35853D01*
X44941Y-35853D01*
X44978Y-35844D01*
X44997Y-35834D01*
X45006Y-35825D01*
X45016Y-35806D01*
X45016Y-35787D01*
X45006Y-35769D01*
X44997Y-35759D01*
X44978Y-35750D01*
X44941Y-35740D01*
X44894Y-35740D01*
X44856Y-35750D01*
X44838Y-35759D01*
X44828Y-35769D01*
X44819Y-35787D01*
X48517Y-34150D02*
X48423Y-34085D01*
X48517Y-34038D02*
X48320Y-34038D01*
X48320Y-34113D01*
X48330Y-34131D01*
X48339Y-34141D01*
X48358Y-34150D01*
X48386Y-34150D01*
X48405Y-34141D01*
X48414Y-34131D01*
X48423Y-34113D01*
X48423Y-34038D01*
X48517Y-34338D02*
X48517Y-34225D01*
X48517Y-34281D02*
X48320Y-34281D01*
X48348Y-34263D01*
X48367Y-34244D01*
X48377Y-34225D01*
X48517Y-34525D02*
X48517Y-34413D01*
X48517Y-34469D02*
X48320Y-34469D01*
X48348Y-34450D01*
X48367Y-34431D01*
X48377Y-34413D01*
X48320Y-34703D02*
X48320Y-34610D01*
X48414Y-34600D01*
X48405Y-34610D01*
X48395Y-34628D01*
X48395Y-34675D01*
X48405Y-34694D01*
X48414Y-34703D01*
X48433Y-34713D01*
X48480Y-34713D01*
X48498Y-34703D01*
X48508Y-34694D01*
X48517Y-34675D01*
X48517Y-34628D01*
X48508Y-34610D01*
X48498Y-34600D01*
X48532Y-32056D02*
X48438Y-31991D01*
X48532Y-31944D02*
X48335Y-31944D01*
X48335Y-32019D01*
X48345Y-32037D01*
X48354Y-32047D01*
X48373Y-32056D01*
X48401Y-32056D01*
X48420Y-32047D01*
X48429Y-32037D01*
X48438Y-32019D01*
X48438Y-31944D01*
X48532Y-32244D02*
X48532Y-32131D01*
X48532Y-32187D02*
X48335Y-32187D01*
X48363Y-32169D01*
X48382Y-32150D01*
X48392Y-32131D01*
X48532Y-32431D02*
X48532Y-32319D01*
X48532Y-32375D02*
X48335Y-32375D01*
X48363Y-32356D01*
X48382Y-32337D01*
X48392Y-32319D01*
X48335Y-32600D02*
X48335Y-32562D01*
X48345Y-32544D01*
X48354Y-32534D01*
X48382Y-32516D01*
X48420Y-32506D01*
X48495Y-32506D01*
X48513Y-32516D01*
X48523Y-32525D01*
X48532Y-32544D01*
X48532Y-32581D01*
X48523Y-32600D01*
X48513Y-32609D01*
X48495Y-32619D01*
X48448Y-32619D01*
X48429Y-32609D01*
X48420Y-32600D01*
X48410Y-32581D01*
X48410Y-32544D01*
X48420Y-32525D01*
X48429Y-32516D01*
X48448Y-32506D01*
X49203Y-32541D02*
X49203Y-32475D01*
X49306Y-32475D02*
X49109Y-32475D01*
X49109Y-32569D01*
X49203Y-32709D02*
X49212Y-32738D01*
X49222Y-32747D01*
X49241Y-32756D01*
X49269Y-32756D01*
X49287Y-32747D01*
X49297Y-32738D01*
X49306Y-32719D01*
X49306Y-32644D01*
X49109Y-32644D01*
X49109Y-32709D01*
X49119Y-32728D01*
X49128Y-32738D01*
X49147Y-32747D01*
X49166Y-32747D01*
X49184Y-32738D01*
X49194Y-32728D01*
X49203Y-32709D01*
X49203Y-32644D01*
X49128Y-32831D02*
X49119Y-32841D01*
X49109Y-32859D01*
X49109Y-32906D01*
X49119Y-32925D01*
X49128Y-32934D01*
X49147Y-32944D01*
X49166Y-32944D01*
X49194Y-32934D01*
X49306Y-32822D01*
X49306Y-32944D01*
X49306Y-33038D02*
X49306Y-33075D01*
X49297Y-33094D01*
X49287Y-33103D01*
X49259Y-33122D01*
X49222Y-33131D01*
X49147Y-33131D01*
X49128Y-33122D01*
X49119Y-33113D01*
X49109Y-33094D01*
X49109Y-33056D01*
X49119Y-33038D01*
X49128Y-33028D01*
X49147Y-33019D01*
X49194Y-33019D01*
X49212Y-33028D01*
X49222Y-33038D01*
X49231Y-33056D01*
X49231Y-33094D01*
X49222Y-33113D01*
X49212Y-33122D01*
X49194Y-33131D01*
X49299Y-33439D02*
X49309Y-33430D01*
X49318Y-33402D01*
X49318Y-33383D01*
X49309Y-33355D01*
X49290Y-33336D01*
X49271Y-33327D01*
X49234Y-33317D01*
X49206Y-33317D01*
X49168Y-33327D01*
X49149Y-33336D01*
X49131Y-33355D01*
X49121Y-33383D01*
X49121Y-33402D01*
X49131Y-33430D01*
X49140Y-33439D01*
X49318Y-33627D02*
X49318Y-33514D01*
X49318Y-33570D02*
X49121Y-33570D01*
X49149Y-33552D01*
X49168Y-33533D01*
X49178Y-33514D01*
X49121Y-33795D02*
X49121Y-33758D01*
X49131Y-33739D01*
X49140Y-33730D01*
X49168Y-33711D01*
X49206Y-33702D01*
X49281Y-33702D01*
X49299Y-33711D01*
X49309Y-33720D01*
X49318Y-33739D01*
X49318Y-33777D01*
X49309Y-33795D01*
X49299Y-33805D01*
X49281Y-33814D01*
X49234Y-33814D01*
X49215Y-33805D01*
X49206Y-33795D01*
X49196Y-33777D01*
X49196Y-33739D01*
X49206Y-33720D01*
X49215Y-33711D01*
X49234Y-33702D01*
X49121Y-33936D02*
X49121Y-33955D01*
X49131Y-33974D01*
X49140Y-33983D01*
X49159Y-33992D01*
X49196Y-34002D01*
X49243Y-34002D01*
X49281Y-33992D01*
X49299Y-33983D01*
X49309Y-33974D01*
X49318Y-33955D01*
X49318Y-33936D01*
X49309Y-33917D01*
X49299Y-33908D01*
X49281Y-33899D01*
X49243Y-33889D01*
X49196Y-33889D01*
X49159Y-33899D01*
X49140Y-33908D01*
X49131Y-33917D01*
X49121Y-33936D01*
X59413Y-26533D02*
X59479Y-26439D01*
X59526Y-26533D02*
X59526Y-26336D01*
X59451Y-26336D01*
X59432Y-26346D01*
X59422Y-26355D01*
X59413Y-26374D01*
X59413Y-26402D01*
X59422Y-26421D01*
X59432Y-26430D01*
X59451Y-26439D01*
X59526Y-26439D01*
X59347Y-26336D02*
X59216Y-26336D01*
X59301Y-26533D01*
X59057Y-26402D02*
X59057Y-26533D01*
X59104Y-26327D02*
X59151Y-26468D01*
X59029Y-26468D01*
X59466Y-24178D02*
X59475Y-24188D01*
X59504Y-24197D01*
X59522Y-24197D01*
X59550Y-24188D01*
X59569Y-24169D01*
X59579Y-24150D01*
X59588Y-24113D01*
X59588Y-24085D01*
X59579Y-24047D01*
X59569Y-24028D01*
X59550Y-24010D01*
X59522Y-24000D01*
X59504Y-24000D01*
X59475Y-24010D01*
X59466Y-24019D01*
X59354Y-24085D02*
X59372Y-24075D01*
X59382Y-24066D01*
X59391Y-24047D01*
X59391Y-24038D01*
X59382Y-24019D01*
X59372Y-24010D01*
X59354Y-24000D01*
X59316Y-24000D01*
X59297Y-24010D01*
X59288Y-24019D01*
X59279Y-24038D01*
X59279Y-24047D01*
X59288Y-24066D01*
X59297Y-24075D01*
X59316Y-24085D01*
X59354Y-24085D01*
X59372Y-24094D01*
X59382Y-24103D01*
X59391Y-24122D01*
X59391Y-24160D01*
X59382Y-24178D01*
X59372Y-24188D01*
X59354Y-24197D01*
X59316Y-24197D01*
X59297Y-24188D01*
X59288Y-24178D01*
X59279Y-24160D01*
X59279Y-24122D01*
X59288Y-24103D01*
X59297Y-24094D01*
X59316Y-24085D01*
X59185Y-24197D02*
X59147Y-24197D01*
X59129Y-24188D01*
X59119Y-24178D01*
X59100Y-24150D01*
X59091Y-24113D01*
X59091Y-24038D01*
X59100Y-24019D01*
X59110Y-24010D01*
X59129Y-24000D01*
X59166Y-24000D01*
X59185Y-24010D01*
X59194Y-24019D01*
X59204Y-24038D01*
X59204Y-24085D01*
X59194Y-24103D01*
X59185Y-24113D01*
X59166Y-24122D01*
X59129Y-24122D01*
X59110Y-24113D01*
X59100Y-24103D01*
X59091Y-24085D01*
X58767Y-23894D02*
X58833Y-23800D01*
X58880Y-23894D02*
X58880Y-23697D01*
X58805Y-23697D01*
X58786Y-23707D01*
X58776Y-23716D01*
X58767Y-23735D01*
X58767Y-23763D01*
X58776Y-23782D01*
X58786Y-23791D01*
X58805Y-23800D01*
X58880Y-23800D01*
X58701Y-23697D02*
X58570Y-23697D01*
X58655Y-23894D01*
X58486Y-23894D02*
X58448Y-23894D01*
X58430Y-23885D01*
X58420Y-23875D01*
X58401Y-23847D01*
X58392Y-23810D01*
X58392Y-23735D01*
X58401Y-23716D01*
X58411Y-23707D01*
X58430Y-23697D01*
X58467Y-23697D01*
X58486Y-23707D01*
X58495Y-23716D01*
X58505Y-23735D01*
X58505Y-23782D01*
X58495Y-23800D01*
X58486Y-23810D01*
X58467Y-23819D01*
X58430Y-23819D01*
X58411Y-23810D01*
X58401Y-23800D01*
X58392Y-23782D01*
X58908Y-24742D02*
X58917Y-24752D01*
X58946Y-24761D01*
X58964Y-24761D01*
X58992Y-24752D01*
X59011Y-24733D01*
X59021Y-24714D01*
X59030Y-24677D01*
X59030Y-24649D01*
X59021Y-24611D01*
X59011Y-24592D01*
X58992Y-24574D01*
X58964Y-24564D01*
X58946Y-24564D01*
X58917Y-24574D01*
X58908Y-24583D01*
X58796Y-24649D02*
X58814Y-24639D01*
X58824Y-24630D01*
X58833Y-24611D01*
X58833Y-24602D01*
X58824Y-24583D01*
X58814Y-24574D01*
X58796Y-24564D01*
X58758Y-24564D01*
X58739Y-24574D01*
X58730Y-24583D01*
X58721Y-24602D01*
X58721Y-24611D01*
X58730Y-24630D01*
X58739Y-24639D01*
X58758Y-24649D01*
X58796Y-24649D01*
X58814Y-24658D01*
X58824Y-24667D01*
X58833Y-24686D01*
X58833Y-24724D01*
X58824Y-24742D01*
X58814Y-24752D01*
X58796Y-24761D01*
X58758Y-24761D01*
X58739Y-24752D01*
X58730Y-24742D01*
X58721Y-24724D01*
X58721Y-24686D01*
X58730Y-24667D01*
X58739Y-24658D01*
X58758Y-24649D01*
X58542Y-24564D02*
X58636Y-24564D01*
X58646Y-24658D01*
X58636Y-24649D01*
X58617Y-24639D01*
X58571Y-24639D01*
X58552Y-24649D01*
X58542Y-24658D01*
X58533Y-24677D01*
X58533Y-24724D01*
X58542Y-24742D01*
X58552Y-24752D01*
X58571Y-24761D01*
X58617Y-24761D01*
X58636Y-24752D01*
X58646Y-24742D01*
X59778Y-25330D02*
X59787Y-25340D01*
X59816Y-25349D01*
X59834Y-25349D01*
X59862Y-25340D01*
X59881Y-25321D01*
X59891Y-25302D01*
X59900Y-25265D01*
X59900Y-25237D01*
X59891Y-25199D01*
X59881Y-25180D01*
X59862Y-25162D01*
X59834Y-25152D01*
X59816Y-25152D01*
X59787Y-25162D01*
X59778Y-25171D01*
X59712Y-25152D02*
X59581Y-25152D01*
X59666Y-25349D01*
X59412Y-25152D02*
X59506Y-25152D01*
X59516Y-25246D01*
X59506Y-25237D01*
X59487Y-25227D01*
X59441Y-25227D01*
X59422Y-25237D01*
X59412Y-25246D01*
X59403Y-25265D01*
X59403Y-25312D01*
X59412Y-25330D01*
X59422Y-25340D01*
X59441Y-25349D01*
X59487Y-25349D01*
X59506Y-25340D01*
X59516Y-25330D01*
X56608Y-26530D02*
X56618Y-26521D01*
X56627Y-26493D01*
X56627Y-26474D01*
X56618Y-26446D01*
X56599Y-26427D01*
X56580Y-26418D01*
X56543Y-26408D01*
X56514Y-26408D01*
X56477Y-26418D01*
X56458Y-26427D01*
X56439Y-26446D01*
X56430Y-26474D01*
X56430Y-26493D01*
X56439Y-26521D01*
X56449Y-26530D01*
X56430Y-26596D02*
X56430Y-26727D01*
X56627Y-26643D01*
X56496Y-26886D02*
X56627Y-26886D01*
X56421Y-26839D02*
X56561Y-26792D01*
X56561Y-26914D01*
X55734Y-26005D02*
X55743Y-26015D01*
X55772Y-26024D01*
X55790Y-26024D01*
X55818Y-26015D01*
X55837Y-25996D01*
X55847Y-25977D01*
X55856Y-25940D01*
X55856Y-25912D01*
X55847Y-25874D01*
X55837Y-25855D01*
X55818Y-25837D01*
X55790Y-25827D01*
X55772Y-25827D01*
X55743Y-25837D01*
X55734Y-25846D01*
X55668Y-25827D02*
X55537Y-25827D01*
X55622Y-26024D01*
X55481Y-25827D02*
X55359Y-25827D01*
X55425Y-25902D01*
X55397Y-25902D01*
X55378Y-25912D01*
X55368Y-25921D01*
X55359Y-25940D01*
X55359Y-25987D01*
X55368Y-26005D01*
X55378Y-26015D01*
X55397Y-26024D01*
X55453Y-26024D01*
X55472Y-26015D01*
X55481Y-26005D01*
X58031Y-27710D02*
X58041Y-27701D01*
X58050Y-27672D01*
X58050Y-27654D01*
X58041Y-27626D01*
X58022Y-27607D01*
X58003Y-27597D01*
X57966Y-27588D01*
X57938Y-27588D01*
X57900Y-27597D01*
X57881Y-27607D01*
X57863Y-27626D01*
X57853Y-27654D01*
X57853Y-27672D01*
X57863Y-27701D01*
X57872Y-27710D01*
X57853Y-27776D02*
X57853Y-27907D01*
X58050Y-27822D01*
X57853Y-28066D02*
X57853Y-28029D01*
X57863Y-28010D01*
X57872Y-28001D01*
X57900Y-27982D01*
X57938Y-27972D01*
X58013Y-27972D01*
X58031Y-27982D01*
X58041Y-27991D01*
X58050Y-28010D01*
X58050Y-28047D01*
X58041Y-28066D01*
X58031Y-28076D01*
X58013Y-28085D01*
X57966Y-28085D01*
X57947Y-28076D01*
X57938Y-28066D01*
X57928Y-28047D01*
X57928Y-28010D01*
X57938Y-27991D01*
X57947Y-27982D01*
X57966Y-27972D01*
X58387Y-27737D02*
X58293Y-27671D01*
X58387Y-27624D02*
X58190Y-27624D01*
X58190Y-27699D01*
X58200Y-27718D01*
X58209Y-27728D01*
X58228Y-27737D01*
X58256Y-27737D01*
X58275Y-27728D01*
X58284Y-27718D01*
X58293Y-27699D01*
X58293Y-27624D01*
X58190Y-27803D02*
X58190Y-27934D01*
X58387Y-27849D01*
X58190Y-28093D02*
X58190Y-28056D01*
X58200Y-28037D01*
X58209Y-28028D01*
X58237Y-28009D01*
X58275Y-27999D01*
X58350Y-27999D01*
X58368Y-28009D01*
X58378Y-28018D01*
X58387Y-28037D01*
X58387Y-28074D01*
X58378Y-28093D01*
X58368Y-28103D01*
X58350Y-28112D01*
X58303Y-28112D01*
X58284Y-28103D01*
X58275Y-28093D01*
X58265Y-28074D01*
X58265Y-28037D01*
X58275Y-28018D01*
X58284Y-28009D01*
X58303Y-27999D01*
X57456Y-27107D02*
X57362Y-27041D01*
X57456Y-26994D02*
X57259Y-26994D01*
X57259Y-27069D01*
X57269Y-27088D01*
X57278Y-27098D01*
X57297Y-27107D01*
X57325Y-27107D01*
X57344Y-27098D01*
X57353Y-27088D01*
X57362Y-27069D01*
X57362Y-26994D01*
X57259Y-27173D02*
X57259Y-27304D01*
X57456Y-27219D01*
X57259Y-27360D02*
X57259Y-27491D01*
X57456Y-27407D01*
X55849Y-25374D02*
X55755Y-25308D01*
X55849Y-25261D02*
X55652Y-25261D01*
X55652Y-25336D01*
X55662Y-25355D01*
X55671Y-25365D01*
X55690Y-25374D01*
X55718Y-25374D01*
X55737Y-25365D01*
X55746Y-25355D01*
X55755Y-25336D01*
X55755Y-25261D01*
X55652Y-25440D02*
X55652Y-25571D01*
X55849Y-25486D01*
X55652Y-25683D02*
X55652Y-25702D01*
X55662Y-25721D01*
X55671Y-25730D01*
X55690Y-25740D01*
X55727Y-25749D01*
X55774Y-25749D01*
X55812Y-25740D01*
X55830Y-25730D01*
X55840Y-25721D01*
X55849Y-25702D01*
X55849Y-25683D01*
X55840Y-25665D01*
X55830Y-25655D01*
X55812Y-25646D01*
X55774Y-25636D01*
X55727Y-25636D01*
X55690Y-25646D01*
X55671Y-25655D01*
X55662Y-25665D01*
X55652Y-25683D01*
X57752Y-24093D02*
X57761Y-24084D01*
X57770Y-24055D01*
X57770Y-24037D01*
X57761Y-24009D01*
X57742Y-23990D01*
X57723Y-23980D01*
X57686Y-23971D01*
X57658Y-23971D01*
X57620Y-23980D01*
X57602Y-23990D01*
X57583Y-24009D01*
X57574Y-24037D01*
X57574Y-24055D01*
X57583Y-24084D01*
X57592Y-24093D01*
X57658Y-24205D02*
X57648Y-24187D01*
X57639Y-24177D01*
X57620Y-24168D01*
X57611Y-24168D01*
X57592Y-24177D01*
X57583Y-24187D01*
X57574Y-24205D01*
X57574Y-24243D01*
X57583Y-24262D01*
X57592Y-24271D01*
X57611Y-24280D01*
X57620Y-24280D01*
X57639Y-24271D01*
X57648Y-24262D01*
X57658Y-24243D01*
X57658Y-24205D01*
X57667Y-24187D01*
X57677Y-24177D01*
X57695Y-24168D01*
X57733Y-24168D01*
X57752Y-24177D01*
X57761Y-24187D01*
X57770Y-24205D01*
X57770Y-24243D01*
X57761Y-24262D01*
X57752Y-24271D01*
X57733Y-24280D01*
X57695Y-24280D01*
X57677Y-24271D01*
X57667Y-24262D01*
X57658Y-24243D01*
X57574Y-24402D02*
X57574Y-24421D01*
X57583Y-24440D01*
X57592Y-24449D01*
X57611Y-24459D01*
X57648Y-24468D01*
X57695Y-24468D01*
X57733Y-24459D01*
X57752Y-24449D01*
X57761Y-24440D01*
X57770Y-24421D01*
X57770Y-24402D01*
X57761Y-24384D01*
X57752Y-24374D01*
X57733Y-24365D01*
X57695Y-24355D01*
X57648Y-24355D01*
X57611Y-24365D01*
X57592Y-24374D01*
X57583Y-24384D01*
X57574Y-24402D01*
X59933Y-24841D02*
X59999Y-24841D01*
X59999Y-24944D02*
X59999Y-24747D01*
X59905Y-24747D01*
X59765Y-24841D02*
X59736Y-24850D01*
X59727Y-24860D01*
X59718Y-24879D01*
X59718Y-24907D01*
X59727Y-24925D01*
X59736Y-24935D01*
X59755Y-24944D01*
X59830Y-24944D01*
X59830Y-24747D01*
X59765Y-24747D01*
X59746Y-24757D01*
X59736Y-24766D01*
X59727Y-24785D01*
X59727Y-24804D01*
X59736Y-24822D01*
X59746Y-24832D01*
X59765Y-24841D01*
X59830Y-24841D01*
X59643Y-24766D02*
X59633Y-24757D01*
X59615Y-24747D01*
X59568Y-24747D01*
X59549Y-24757D01*
X59540Y-24766D01*
X59530Y-24785D01*
X59530Y-24804D01*
X59540Y-24832D01*
X59652Y-24944D01*
X59530Y-24944D01*
X59455Y-24766D02*
X59446Y-24757D01*
X59427Y-24747D01*
X59380Y-24747D01*
X59361Y-24757D01*
X59352Y-24766D01*
X59343Y-24785D01*
X59343Y-24804D01*
X59352Y-24832D01*
X59465Y-24944D01*
X59343Y-24944D01*
X59157Y-26949D02*
X59063Y-26883D01*
X59157Y-26836D02*
X58960Y-26836D01*
X58960Y-26911D01*
X58970Y-26930D01*
X58979Y-26940D01*
X58998Y-26949D01*
X59026Y-26949D01*
X59045Y-26940D01*
X59054Y-26930D01*
X59063Y-26911D01*
X59063Y-26836D01*
X58960Y-27118D02*
X58960Y-27080D01*
X58970Y-27061D01*
X58979Y-27052D01*
X59007Y-27033D01*
X59045Y-27024D01*
X59120Y-27024D01*
X59138Y-27033D01*
X59148Y-27043D01*
X59157Y-27061D01*
X59157Y-27099D01*
X59148Y-27118D01*
X59138Y-27127D01*
X59120Y-27136D01*
X59073Y-27136D01*
X59054Y-27127D01*
X59045Y-27118D01*
X59035Y-27099D01*
X59035Y-27061D01*
X59045Y-27043D01*
X59054Y-27033D01*
X59073Y-27024D01*
X59157Y-27230D02*
X59157Y-27268D01*
X59148Y-27286D01*
X59138Y-27296D01*
X59110Y-27315D01*
X59073Y-27324D01*
X58998Y-27324D01*
X58979Y-27315D01*
X58970Y-27305D01*
X58960Y-27286D01*
X58960Y-27249D01*
X58970Y-27230D01*
X58979Y-27221D01*
X58998Y-27211D01*
X59045Y-27211D01*
X59063Y-27221D01*
X59073Y-27230D01*
X59082Y-27249D01*
X59082Y-27286D01*
X59073Y-27305D01*
X59063Y-27315D01*
X59045Y-27324D01*
X55740Y-26306D02*
X55806Y-26212D01*
X55853Y-26306D02*
X55853Y-26109D01*
X55778Y-26109D01*
X55759Y-26119D01*
X55749Y-26128D01*
X55740Y-26147D01*
X55740Y-26175D01*
X55749Y-26194D01*
X55759Y-26203D01*
X55778Y-26212D01*
X55853Y-26212D01*
X55571Y-26109D02*
X55609Y-26109D01*
X55628Y-26119D01*
X55637Y-26128D01*
X55656Y-26156D01*
X55665Y-26194D01*
X55665Y-26269D01*
X55656Y-26287D01*
X55646Y-26297D01*
X55628Y-26306D01*
X55590Y-26306D01*
X55571Y-26297D01*
X55562Y-26287D01*
X55553Y-26269D01*
X55553Y-26222D01*
X55562Y-26203D01*
X55571Y-26194D01*
X55590Y-26184D01*
X55628Y-26184D01*
X55646Y-26194D01*
X55656Y-26203D01*
X55665Y-26222D01*
X55384Y-26109D02*
X55421Y-26109D01*
X55440Y-26119D01*
X55449Y-26128D01*
X55468Y-26156D01*
X55478Y-26194D01*
X55478Y-26269D01*
X55468Y-26287D01*
X55459Y-26297D01*
X55440Y-26306D01*
X55403Y-26306D01*
X55384Y-26297D01*
X55374Y-26287D01*
X55365Y-26269D01*
X55365Y-26222D01*
X55374Y-26203D01*
X55384Y-26194D01*
X55403Y-26184D01*
X55440Y-26184D01*
X55459Y-26194D01*
X55468Y-26203D01*
X55478Y-26222D01*
X60032Y-26200D02*
X60041Y-26210D01*
X60070Y-26219D01*
X60088Y-26219D01*
X60116Y-26210D01*
X60135Y-26191D01*
X60145Y-26172D01*
X60154Y-26135D01*
X60154Y-26107D01*
X60145Y-26069D01*
X60135Y-26050D01*
X60116Y-26032D01*
X60088Y-26022D01*
X60070Y-26022D01*
X60041Y-26032D01*
X60032Y-26041D01*
X59966Y-26022D02*
X59835Y-26022D01*
X59920Y-26219D01*
X59751Y-26219D02*
X59713Y-26219D01*
X59695Y-26210D01*
X59685Y-26200D01*
X59666Y-26172D01*
X59657Y-26135D01*
X59657Y-26060D01*
X59666Y-26041D01*
X59676Y-26032D01*
X59695Y-26022D01*
X59732Y-26022D01*
X59751Y-26032D01*
X59760Y-26041D01*
X59770Y-26060D01*
X59770Y-26107D01*
X59760Y-26125D01*
X59751Y-26135D01*
X59732Y-26144D01*
X59695Y-26144D01*
X59676Y-26135D01*
X59666Y-26125D01*
X59657Y-26107D01*
X60717Y-25885D02*
X60726Y-25895D01*
X60755Y-25904D01*
X60773Y-25904D01*
X60801Y-25895D01*
X60820Y-25876D01*
X60830Y-25857D01*
X60839Y-25820D01*
X60839Y-25792D01*
X60830Y-25754D01*
X60820Y-25735D01*
X60801Y-25717D01*
X60773Y-25707D01*
X60755Y-25707D01*
X60726Y-25717D01*
X60717Y-25726D01*
X60605Y-25792D02*
X60623Y-25782D01*
X60633Y-25773D01*
X60642Y-25754D01*
X60642Y-25745D01*
X60633Y-25726D01*
X60623Y-25717D01*
X60605Y-25707D01*
X60567Y-25707D01*
X60548Y-25717D01*
X60539Y-25726D01*
X60530Y-25745D01*
X60530Y-25754D01*
X60539Y-25773D01*
X60548Y-25782D01*
X60567Y-25792D01*
X60605Y-25792D01*
X60623Y-25801D01*
X60633Y-25810D01*
X60642Y-25829D01*
X60642Y-25867D01*
X60633Y-25885D01*
X60623Y-25895D01*
X60605Y-25904D01*
X60567Y-25904D01*
X60548Y-25895D01*
X60539Y-25885D01*
X60530Y-25867D01*
X60530Y-25829D01*
X60539Y-25810D01*
X60548Y-25801D01*
X60567Y-25792D01*
X60361Y-25773D02*
X60361Y-25904D01*
X60408Y-25698D02*
X60455Y-25839D01*
X60333Y-25839D01*
X54910Y-24775D02*
X54919Y-24765D01*
X54928Y-24737D01*
X54928Y-24718D01*
X54919Y-24690D01*
X54900Y-24672D01*
X54881Y-24662D01*
X54844Y-24653D01*
X54816Y-24653D01*
X54778Y-24662D01*
X54760Y-24672D01*
X54741Y-24690D01*
X54731Y-24718D01*
X54731Y-24737D01*
X54741Y-24765D01*
X54750Y-24775D01*
X54731Y-24943D02*
X54731Y-24906D01*
X54741Y-24887D01*
X54750Y-24878D01*
X54778Y-24859D01*
X54816Y-24850D01*
X54891Y-24850D01*
X54910Y-24859D01*
X54919Y-24868D01*
X54928Y-24887D01*
X54928Y-24925D01*
X54919Y-24943D01*
X54910Y-24953D01*
X54891Y-24962D01*
X54844Y-24962D01*
X54825Y-24953D01*
X54816Y-24943D01*
X54806Y-24925D01*
X54806Y-24887D01*
X54816Y-24868D01*
X54825Y-24859D01*
X54844Y-24850D01*
X54928Y-25056D02*
X54928Y-25093D01*
X54919Y-25112D01*
X54910Y-25121D01*
X54881Y-25140D01*
X54844Y-25150D01*
X54769Y-25150D01*
X54750Y-25140D01*
X54741Y-25131D01*
X54731Y-25112D01*
X54731Y-25075D01*
X54741Y-25056D01*
X54750Y-25046D01*
X54769Y-25037D01*
X54816Y-25037D01*
X54835Y-25046D01*
X54844Y-25056D01*
X54853Y-25075D01*
X54853Y-25112D01*
X54844Y-25131D01*
X54835Y-25140D01*
X54816Y-25150D01*
X55415Y-25459D02*
X55481Y-25365D01*
X55528Y-25459D02*
X55528Y-25262D01*
X55453Y-25262D01*
X55434Y-25272D01*
X55424Y-25281D01*
X55415Y-25300D01*
X55415Y-25328D01*
X55424Y-25347D01*
X55434Y-25356D01*
X55453Y-25365D01*
X55528Y-25365D01*
X55246Y-25262D02*
X55284Y-25262D01*
X55303Y-25272D01*
X55312Y-25281D01*
X55331Y-25309D01*
X55340Y-25347D01*
X55340Y-25422D01*
X55331Y-25440D01*
X55321Y-25450D01*
X55303Y-25459D01*
X55265Y-25459D01*
X55246Y-25450D01*
X55237Y-25440D01*
X55228Y-25422D01*
X55228Y-25375D01*
X55237Y-25356D01*
X55246Y-25347D01*
X55265Y-25337D01*
X55303Y-25337D01*
X55321Y-25347D01*
X55331Y-25356D01*
X55340Y-25375D01*
X55162Y-25262D02*
X55040Y-25262D01*
X55106Y-25337D01*
X55078Y-25337D01*
X55059Y-25347D01*
X55049Y-25356D01*
X55040Y-25375D01*
X55040Y-25422D01*
X55049Y-25440D01*
X55059Y-25450D01*
X55078Y-25459D01*
X55134Y-25459D01*
X55153Y-25450D01*
X55162Y-25440D01*
X55751Y-24517D02*
X55817Y-24423D01*
X55864Y-24517D02*
X55864Y-24320D01*
X55789Y-24320D01*
X55770Y-24330D01*
X55760Y-24339D01*
X55751Y-24358D01*
X55751Y-24386D01*
X55760Y-24405D01*
X55770Y-24414D01*
X55789Y-24423D01*
X55864Y-24423D01*
X55582Y-24320D02*
X55620Y-24320D01*
X55639Y-24330D01*
X55648Y-24339D01*
X55667Y-24367D01*
X55676Y-24405D01*
X55676Y-24480D01*
X55667Y-24498D01*
X55657Y-24508D01*
X55639Y-24517D01*
X55601Y-24517D01*
X55582Y-24508D01*
X55573Y-24498D01*
X55564Y-24480D01*
X55564Y-24433D01*
X55573Y-24414D01*
X55582Y-24405D01*
X55601Y-24395D01*
X55639Y-24395D01*
X55657Y-24405D01*
X55667Y-24414D01*
X55676Y-24433D01*
X55385Y-24320D02*
X55479Y-24320D01*
X55489Y-24414D01*
X55479Y-24405D01*
X55460Y-24395D01*
X55414Y-24395D01*
X55395Y-24405D01*
X55385Y-24414D01*
X55376Y-24433D01*
X55376Y-24480D01*
X55385Y-24498D01*
X55395Y-24508D01*
X55414Y-24517D01*
X55460Y-24517D01*
X55479Y-24508D01*
X55489Y-24498D01*
X56187Y-24161D02*
X56197Y-24152D01*
X56206Y-24123D01*
X56206Y-24105D01*
X56197Y-24077D01*
X56178Y-24058D01*
X56159Y-24048D01*
X56122Y-24039D01*
X56094Y-24039D01*
X56056Y-24048D01*
X56037Y-24058D01*
X56019Y-24077D01*
X56009Y-24105D01*
X56009Y-24123D01*
X56019Y-24152D01*
X56028Y-24161D01*
X56009Y-24227D02*
X56009Y-24358D01*
X56206Y-24273D01*
X56009Y-24470D02*
X56009Y-24489D01*
X56019Y-24508D01*
X56028Y-24517D01*
X56047Y-24527D01*
X56084Y-24536D01*
X56131Y-24536D01*
X56169Y-24527D01*
X56187Y-24517D01*
X56197Y-24508D01*
X56206Y-24489D01*
X56206Y-24470D01*
X56197Y-24452D01*
X56187Y-24442D01*
X56169Y-24433D01*
X56131Y-24423D01*
X56084Y-24423D01*
X56047Y-24433D01*
X56028Y-24442D01*
X56019Y-24452D01*
X56009Y-24470D01*
X56485Y-24153D02*
X56495Y-24144D01*
X56504Y-24115D01*
X56504Y-24097D01*
X56495Y-24069D01*
X56476Y-24050D01*
X56457Y-24040D01*
X56420Y-24031D01*
X56392Y-24031D01*
X56354Y-24040D01*
X56335Y-24050D01*
X56317Y-24069D01*
X56307Y-24097D01*
X56307Y-24115D01*
X56317Y-24144D01*
X56326Y-24153D01*
X56307Y-24219D02*
X56307Y-24350D01*
X56504Y-24265D01*
X56326Y-24415D02*
X56317Y-24425D01*
X56307Y-24444D01*
X56307Y-24490D01*
X56317Y-24509D01*
X56326Y-24519D01*
X56345Y-24528D01*
X56364Y-24528D01*
X56392Y-24519D01*
X56504Y-24406D01*
X56504Y-24528D01*
X56455Y-27605D02*
X56521Y-27511D01*
X56567Y-27605D02*
X56567Y-27408D01*
X56492Y-27408D01*
X56474Y-27418D01*
X56464Y-27427D01*
X56455Y-27446D01*
X56455Y-27474D01*
X56464Y-27493D01*
X56474Y-27502D01*
X56492Y-27511D01*
X56567Y-27511D01*
X56380Y-27427D02*
X56371Y-27418D01*
X56352Y-27408D01*
X56305Y-27408D01*
X56286Y-27418D01*
X56277Y-27427D01*
X56267Y-27446D01*
X56267Y-27464D01*
X56277Y-27493D01*
X56389Y-27605D01*
X56267Y-27605D01*
X56146Y-27408D02*
X56127Y-27408D01*
X56108Y-27418D01*
X56099Y-27427D01*
X56089Y-27446D01*
X56080Y-27483D01*
X56080Y-27530D01*
X56089Y-27568D01*
X56099Y-27586D01*
X56108Y-27596D01*
X56127Y-27605D01*
X56146Y-27605D01*
X56164Y-27596D01*
X56174Y-27586D01*
X56183Y-27568D01*
X56192Y-27530D01*
X56192Y-27483D01*
X56183Y-27446D01*
X56174Y-27427D01*
X56164Y-27418D01*
X56146Y-27408D01*
X55893Y-27605D02*
X56005Y-27605D01*
X55949Y-27605D02*
X55949Y-27408D01*
X55968Y-27436D01*
X55986Y-27455D01*
X56005Y-27464D01*
X53074Y-50320D02*
X53083Y-50330D01*
X53112Y-50339D01*
X53130Y-50339D01*
X53158Y-50330D01*
X53177Y-50311D01*
X53187Y-50292D01*
X53196Y-50255D01*
X53196Y-50227D01*
X53187Y-50189D01*
X53177Y-50170D01*
X53158Y-50152D01*
X53130Y-50142D01*
X53112Y-50142D01*
X53083Y-50152D01*
X53074Y-50161D01*
X53008Y-50142D02*
X52887Y-50142D01*
X52952Y-50217D01*
X52924Y-50217D01*
X52905Y-50227D01*
X52896Y-50236D01*
X52887Y-50255D01*
X52887Y-50302D01*
X52896Y-50320D01*
X52905Y-50330D01*
X52924Y-50339D01*
X52980Y-50339D01*
X52999Y-50330D01*
X53008Y-50320D01*
X52718Y-50208D02*
X52718Y-50339D01*
X52765Y-50133D02*
X52812Y-50274D01*
X52690Y-50274D01*
X50649Y-43153D02*
X50555Y-43087D01*
X50649Y-43040D02*
X50452Y-43040D01*
X50452Y-43115D01*
X50462Y-43134D01*
X50471Y-43144D01*
X50490Y-43153D01*
X50518Y-43153D01*
X50537Y-43144D01*
X50546Y-43134D01*
X50555Y-43115D01*
X50555Y-43040D01*
X50471Y-43228D02*
X50462Y-43237D01*
X50452Y-43256D01*
X50452Y-43303D01*
X50462Y-43322D01*
X50471Y-43331D01*
X50490Y-43340D01*
X50509Y-43340D01*
X50537Y-43331D01*
X50649Y-43219D01*
X50649Y-43340D01*
X50452Y-43462D02*
X50452Y-43481D01*
X50462Y-43500D01*
X50471Y-43509D01*
X50490Y-43519D01*
X50527Y-43528D01*
X50574Y-43528D01*
X50612Y-43519D01*
X50630Y-43509D01*
X50640Y-43500D01*
X50649Y-43481D01*
X50649Y-43462D01*
X50640Y-43444D01*
X50630Y-43434D01*
X50612Y-43425D01*
X50574Y-43415D01*
X50527Y-43415D01*
X50490Y-43425D01*
X50471Y-43434D01*
X50462Y-43444D01*
X50452Y-43462D01*
X50629Y-43823D02*
X50535Y-43757D01*
X50629Y-43710D02*
X50432Y-43710D01*
X50432Y-43785D01*
X50442Y-43804D01*
X50451Y-43814D01*
X50470Y-43823D01*
X50498Y-43823D01*
X50517Y-43814D01*
X50526Y-43804D01*
X50535Y-43785D01*
X50535Y-43710D01*
X50629Y-44010D02*
X50629Y-43898D01*
X50629Y-43954D02*
X50432Y-43954D01*
X50460Y-43935D01*
X50479Y-43917D01*
X50489Y-43898D01*
X50629Y-44104D02*
X50629Y-44142D01*
X50620Y-44160D01*
X50610Y-44170D01*
X50582Y-44189D01*
X50545Y-44198D01*
X50470Y-44198D01*
X50451Y-44189D01*
X50442Y-44179D01*
X50432Y-44160D01*
X50432Y-44123D01*
X50442Y-44104D01*
X50451Y-44095D01*
X50470Y-44085D01*
X50517Y-44085D01*
X50535Y-44095D01*
X50545Y-44104D01*
X50554Y-44123D01*
X50554Y-44160D01*
X50545Y-44179D01*
X50535Y-44189D01*
X50517Y-44198D01*
X50476Y-41930D02*
X50485Y-41940D01*
X50514Y-41949D01*
X50532Y-41949D01*
X50560Y-41940D01*
X50579Y-41921D01*
X50589Y-41902D01*
X50598Y-41865D01*
X50598Y-41837D01*
X50589Y-41799D01*
X50579Y-41780D01*
X50560Y-41762D01*
X50532Y-41752D01*
X50514Y-41752D01*
X50485Y-41762D01*
X50476Y-41771D01*
X50410Y-41752D02*
X50289Y-41752D01*
X50354Y-41827D01*
X50326Y-41827D01*
X50307Y-41837D01*
X50298Y-41846D01*
X50289Y-41865D01*
X50289Y-41912D01*
X50298Y-41930D01*
X50307Y-41940D01*
X50326Y-41949D01*
X50382Y-41949D01*
X50401Y-41940D01*
X50410Y-41930D01*
X50195Y-41949D02*
X50157Y-41949D01*
X50139Y-41940D01*
X50129Y-41930D01*
X50110Y-41902D01*
X50101Y-41865D01*
X50101Y-41790D01*
X50110Y-41771D01*
X50120Y-41762D01*
X50139Y-41752D01*
X50176Y-41752D01*
X50195Y-41762D01*
X50204Y-41771D01*
X50214Y-41790D01*
X50214Y-41837D01*
X50204Y-41855D01*
X50195Y-41865D01*
X50176Y-41874D01*
X50139Y-41874D01*
X50120Y-41865D01*
X50110Y-41855D01*
X50101Y-41837D01*
X48376Y-45250D02*
X48385Y-45260D01*
X48414Y-45269D01*
X48432Y-45269D01*
X48460Y-45260D01*
X48479Y-45241D01*
X48489Y-45222D01*
X48498Y-45185D01*
X48498Y-45157D01*
X48489Y-45119D01*
X48479Y-45100D01*
X48460Y-45082D01*
X48432Y-45072D01*
X48414Y-45072D01*
X48385Y-45082D01*
X48376Y-45091D01*
X48310Y-45072D02*
X48189Y-45072D01*
X48254Y-45147D01*
X48226Y-45147D01*
X48207Y-45157D01*
X48198Y-45166D01*
X48189Y-45185D01*
X48189Y-45232D01*
X48198Y-45250D01*
X48207Y-45260D01*
X48226Y-45269D01*
X48282Y-45269D01*
X48301Y-45260D01*
X48310Y-45250D01*
X48076Y-45157D02*
X48095Y-45147D01*
X48104Y-45138D01*
X48114Y-45119D01*
X48114Y-45110D01*
X48104Y-45091D01*
X48095Y-45082D01*
X48076Y-45072D01*
X48039Y-45072D01*
X48020Y-45082D01*
X48010Y-45091D01*
X48001Y-45110D01*
X48001Y-45119D01*
X48010Y-45138D01*
X48020Y-45147D01*
X48039Y-45157D01*
X48076Y-45157D01*
X48095Y-45166D01*
X48104Y-45175D01*
X48114Y-45194D01*
X48114Y-45232D01*
X48104Y-45250D01*
X48095Y-45260D01*
X48076Y-45269D01*
X48039Y-45269D01*
X48020Y-45260D01*
X48010Y-45250D01*
X48001Y-45232D01*
X48001Y-45194D01*
X48010Y-45175D01*
X48020Y-45166D01*
X48039Y-45157D01*
X47847Y-50716D02*
X47857Y-50707D01*
X47866Y-50678D01*
X47866Y-50660D01*
X47857Y-50632D01*
X47838Y-50613D01*
X47819Y-50603D01*
X47782Y-50594D01*
X47754Y-50594D01*
X47716Y-50603D01*
X47697Y-50613D01*
X47679Y-50632D01*
X47669Y-50660D01*
X47669Y-50678D01*
X47679Y-50707D01*
X47688Y-50716D01*
X47669Y-50782D02*
X47669Y-50903D01*
X47744Y-50838D01*
X47744Y-50866D01*
X47754Y-50885D01*
X47763Y-50894D01*
X47782Y-50903D01*
X47829Y-50903D01*
X47847Y-50894D01*
X47857Y-50885D01*
X47866Y-50866D01*
X47866Y-50810D01*
X47857Y-50791D01*
X47847Y-50782D01*
X47669Y-51072D02*
X47669Y-51035D01*
X47679Y-51016D01*
X47688Y-51007D01*
X47716Y-50988D01*
X47754Y-50978D01*
X47829Y-50978D01*
X47847Y-50988D01*
X47857Y-50997D01*
X47866Y-51016D01*
X47866Y-51053D01*
X47857Y-51072D01*
X47847Y-51082D01*
X47829Y-51091D01*
X47782Y-51091D01*
X47763Y-51082D01*
X47754Y-51072D01*
X47744Y-51053D01*
X47744Y-51016D01*
X47754Y-50997D01*
X47763Y-50988D01*
X47782Y-50978D01*
X51105Y-51586D02*
X51171Y-51492D01*
X51218Y-51586D02*
X51218Y-51389D01*
X51143Y-51389D01*
X51124Y-51399D01*
X51114Y-51408D01*
X51105Y-51427D01*
X51105Y-51455D01*
X51114Y-51474D01*
X51124Y-51483D01*
X51143Y-51492D01*
X51218Y-51492D01*
X50918Y-51586D02*
X51030Y-51586D01*
X50974Y-51586D02*
X50974Y-51389D01*
X50993Y-51417D01*
X51011Y-51436D01*
X51030Y-51446D01*
X50805Y-51474D02*
X50824Y-51464D01*
X50833Y-51455D01*
X50843Y-51436D01*
X50843Y-51427D01*
X50833Y-51408D01*
X50824Y-51399D01*
X50805Y-51389D01*
X50768Y-51389D01*
X50749Y-51399D01*
X50739Y-51408D01*
X50730Y-51427D01*
X50730Y-51436D01*
X50739Y-51455D01*
X50749Y-51464D01*
X50768Y-51474D01*
X50805Y-51474D01*
X50824Y-51483D01*
X50833Y-51492D01*
X50843Y-51511D01*
X50843Y-51549D01*
X50833Y-51567D01*
X50824Y-51577D01*
X50805Y-51586D01*
X50768Y-51586D01*
X50749Y-51577D01*
X50739Y-51567D01*
X50730Y-51549D01*
X50730Y-51511D01*
X50739Y-51492D01*
X50749Y-51483D01*
X50768Y-51474D01*
X54941Y-52379D02*
X54951Y-52370D01*
X54960Y-52342D01*
X54960Y-52323D01*
X54951Y-52295D01*
X54932Y-52276D01*
X54913Y-52267D01*
X54876Y-52257D01*
X54848Y-52257D01*
X54810Y-52267D01*
X54791Y-52276D01*
X54773Y-52295D01*
X54763Y-52323D01*
X54763Y-52342D01*
X54773Y-52370D01*
X54782Y-52379D01*
X54763Y-52445D02*
X54763Y-52566D01*
X54838Y-52501D01*
X54838Y-52529D01*
X54848Y-52548D01*
X54857Y-52557D01*
X54876Y-52566D01*
X54923Y-52566D01*
X54941Y-52557D01*
X54951Y-52548D01*
X54960Y-52529D01*
X54960Y-52473D01*
X54951Y-52454D01*
X54941Y-52445D01*
X54763Y-52632D02*
X54763Y-52763D01*
X54960Y-52679D01*
X54600Y-52385D02*
X54609Y-52376D01*
X54619Y-52348D01*
X54619Y-52329D01*
X54609Y-52301D01*
X54591Y-52282D01*
X54572Y-52273D01*
X54534Y-52263D01*
X54506Y-52263D01*
X54469Y-52273D01*
X54450Y-52282D01*
X54431Y-52301D01*
X54422Y-52329D01*
X54422Y-52348D01*
X54431Y-52376D01*
X54441Y-52385D01*
X54422Y-52451D02*
X54422Y-52572D01*
X54497Y-52507D01*
X54497Y-52535D01*
X54506Y-52554D01*
X54516Y-52563D01*
X54534Y-52572D01*
X54581Y-52572D01*
X54600Y-52563D01*
X54609Y-52554D01*
X54619Y-52535D01*
X54619Y-52479D01*
X54609Y-52460D01*
X54600Y-52451D01*
X54422Y-52638D02*
X54422Y-52760D01*
X54497Y-52694D01*
X54497Y-52722D01*
X54506Y-52741D01*
X54516Y-52751D01*
X54534Y-52760D01*
X54581Y-52760D01*
X54600Y-52751D01*
X54609Y-52741D01*
X54619Y-52722D01*
X54619Y-52666D01*
X54609Y-52647D01*
X54600Y-52638D01*
X44861Y-48517D02*
X44870Y-48527D01*
X44899Y-48536D01*
X44917Y-48536D01*
X44945Y-48527D01*
X44964Y-48508D01*
X44974Y-48489D01*
X44983Y-48452D01*
X44983Y-48424D01*
X44974Y-48386D01*
X44964Y-48367D01*
X44945Y-48349D01*
X44917Y-48339D01*
X44899Y-48339D01*
X44870Y-48349D01*
X44861Y-48358D01*
X44786Y-48358D02*
X44777Y-48349D01*
X44758Y-48339D01*
X44711Y-48339D01*
X44692Y-48349D01*
X44683Y-48358D01*
X44674Y-48377D01*
X44674Y-48396D01*
X44683Y-48424D01*
X44795Y-48536D01*
X44674Y-48536D01*
X44580Y-48536D02*
X44542Y-48536D01*
X44524Y-48527D01*
X44514Y-48517D01*
X44495Y-48489D01*
X44486Y-48452D01*
X44486Y-48377D01*
X44495Y-48358D01*
X44505Y-48349D01*
X44524Y-48339D01*
X44561Y-48339D01*
X44580Y-48349D01*
X44589Y-48358D01*
X44599Y-48377D01*
X44599Y-48424D01*
X44589Y-48442D01*
X44580Y-48452D01*
X44561Y-48461D01*
X44524Y-48461D01*
X44505Y-48452D01*
X44495Y-48442D01*
X44486Y-48424D01*
X47288Y-50067D02*
X47298Y-50058D01*
X47307Y-50029D01*
X47307Y-50011D01*
X47298Y-49983D01*
X47279Y-49964D01*
X47260Y-49954D01*
X47223Y-49945D01*
X47195Y-49945D01*
X47157Y-49954D01*
X47138Y-49964D01*
X47120Y-49983D01*
X47110Y-50011D01*
X47110Y-50029D01*
X47120Y-50058D01*
X47129Y-50067D01*
X47110Y-50133D02*
X47110Y-50254D01*
X47185Y-50189D01*
X47185Y-50217D01*
X47195Y-50236D01*
X47204Y-50245D01*
X47223Y-50254D01*
X47270Y-50254D01*
X47288Y-50245D01*
X47298Y-50236D01*
X47307Y-50217D01*
X47307Y-50161D01*
X47298Y-50142D01*
X47288Y-50133D01*
X47110Y-50376D02*
X47110Y-50395D01*
X47120Y-50414D01*
X47129Y-50423D01*
X47148Y-50433D01*
X47185Y-50442D01*
X47232Y-50442D01*
X47270Y-50433D01*
X47288Y-50423D01*
X47298Y-50414D01*
X47307Y-50395D01*
X47307Y-50376D01*
X47298Y-50358D01*
X47288Y-50348D01*
X47270Y-50339D01*
X47232Y-50329D01*
X47185Y-50329D01*
X47148Y-50339D01*
X47129Y-50348D01*
X47120Y-50358D01*
X47110Y-50376D01*
X52140Y-52023D02*
X52150Y-52014D01*
X52159Y-51985D01*
X52159Y-51967D01*
X52150Y-51939D01*
X52131Y-51920D01*
X52112Y-51910D01*
X52075Y-51901D01*
X52047Y-51901D01*
X52009Y-51910D01*
X51990Y-51920D01*
X51972Y-51939D01*
X51962Y-51967D01*
X51962Y-51985D01*
X51972Y-52014D01*
X51981Y-52023D01*
X52028Y-52192D02*
X52159Y-52192D01*
X51953Y-52145D02*
X52094Y-52098D01*
X52094Y-52220D01*
X51962Y-52332D02*
X51962Y-52351D01*
X51972Y-52370D01*
X51981Y-52379D01*
X52000Y-52389D01*
X52037Y-52398D01*
X52084Y-52398D01*
X52122Y-52389D01*
X52140Y-52379D01*
X52150Y-52370D01*
X52159Y-52351D01*
X52159Y-52332D01*
X52150Y-52314D01*
X52140Y-52304D01*
X52122Y-52295D01*
X52084Y-52285D01*
X52037Y-52285D01*
X52000Y-52295D01*
X51981Y-52304D01*
X51972Y-52314D01*
X51962Y-52332D01*
X60391Y-51207D02*
X60297Y-51141D01*
X60391Y-51094D02*
X60194Y-51094D01*
X60194Y-51169D01*
X60204Y-51188D01*
X60213Y-51197D01*
X60232Y-51207D01*
X60260Y-51207D01*
X60279Y-51197D01*
X60288Y-51188D01*
X60297Y-51169D01*
X60297Y-51094D01*
X60260Y-51375D02*
X60391Y-51375D01*
X60185Y-51329D02*
X60326Y-51282D01*
X60326Y-51404D01*
X62351Y-51165D02*
X62257Y-51099D01*
X62351Y-51052D02*
X62154Y-51052D01*
X62154Y-51127D01*
X62164Y-51146D01*
X62173Y-51155D01*
X62192Y-51165D01*
X62220Y-51165D01*
X62239Y-51155D01*
X62248Y-51146D01*
X62257Y-51127D01*
X62257Y-51052D01*
X62154Y-51343D02*
X62154Y-51249D01*
X62248Y-51240D01*
X62239Y-51249D01*
X62229Y-51268D01*
X62229Y-51315D01*
X62239Y-51333D01*
X62248Y-51343D01*
X62267Y-51352D01*
X62314Y-51352D01*
X62332Y-51343D01*
X62342Y-51333D01*
X62351Y-51315D01*
X62351Y-51268D01*
X62342Y-51249D01*
X62332Y-51240D01*
X46869Y-48454D02*
X46879Y-48445D01*
X46888Y-48416D01*
X46888Y-48398D01*
X46879Y-48370D01*
X46860Y-48351D01*
X46841Y-48341D01*
X46804Y-48332D01*
X46776Y-48332D01*
X46738Y-48341D01*
X46719Y-48351D01*
X46701Y-48370D01*
X46691Y-48398D01*
X46691Y-48416D01*
X46701Y-48445D01*
X46710Y-48454D01*
X46757Y-48623D02*
X46888Y-48623D01*
X46682Y-48576D02*
X46823Y-48529D01*
X46823Y-48651D01*
X46888Y-48829D02*
X46888Y-48716D01*
X46888Y-48773D02*
X46691Y-48773D01*
X46719Y-48754D01*
X46738Y-48735D01*
X46748Y-48716D01*
X46084Y-48565D02*
X46149Y-48471D01*
X46196Y-48565D02*
X46196Y-48368D01*
X46121Y-48368D01*
X46102Y-48377D01*
X46093Y-48387D01*
X46084Y-48405D01*
X46084Y-48433D01*
X46093Y-48452D01*
X46102Y-48461D01*
X46121Y-48471D01*
X46196Y-48471D01*
X45990Y-48565D02*
X45952Y-48565D01*
X45934Y-48555D01*
X45924Y-48546D01*
X45906Y-48518D01*
X45896Y-48480D01*
X45896Y-48405D01*
X45906Y-48387D01*
X45915Y-48377D01*
X45934Y-48368D01*
X45971Y-48368D01*
X45990Y-48377D01*
X45999Y-48387D01*
X46009Y-48405D01*
X46009Y-48452D01*
X45999Y-48471D01*
X45990Y-48480D01*
X45971Y-48490D01*
X45934Y-48490D01*
X45915Y-48480D01*
X45906Y-48471D01*
X45896Y-48452D01*
X50207Y-51093D02*
X50114Y-51027D01*
X50207Y-50980D02*
X50011Y-50980D01*
X50011Y-51055D01*
X50020Y-51074D01*
X50029Y-51084D01*
X50048Y-51093D01*
X50076Y-51093D01*
X50095Y-51084D01*
X50104Y-51074D01*
X50114Y-51055D01*
X50114Y-50980D01*
X50011Y-51159D02*
X50011Y-51290D01*
X50207Y-51205D01*
X50095Y-51393D02*
X50085Y-51374D01*
X50076Y-51365D01*
X50057Y-51355D01*
X50048Y-51355D01*
X50029Y-51365D01*
X50020Y-51374D01*
X50011Y-51393D01*
X50011Y-51430D01*
X50020Y-51449D01*
X50029Y-51459D01*
X50048Y-51468D01*
X50057Y-51468D01*
X50076Y-51459D01*
X50085Y-51449D01*
X50095Y-51430D01*
X50095Y-51393D01*
X50104Y-51374D01*
X50114Y-51365D01*
X50132Y-51355D01*
X50170Y-51355D01*
X50189Y-51365D01*
X50198Y-51374D01*
X50207Y-51393D01*
X50207Y-51430D01*
X50198Y-51449D01*
X50189Y-51459D01*
X50170Y-51468D01*
X50132Y-51468D01*
X50114Y-51459D01*
X50104Y-51449D01*
X50095Y-51430D01*
X55343Y-52499D02*
X55352Y-52490D01*
X55362Y-52462D01*
X55362Y-52443D01*
X55352Y-52415D01*
X55334Y-52396D01*
X55315Y-52387D01*
X55277Y-52377D01*
X55249Y-52377D01*
X55212Y-52387D01*
X55193Y-52396D01*
X55174Y-52415D01*
X55165Y-52443D01*
X55165Y-52462D01*
X55174Y-52490D01*
X55184Y-52499D01*
X55165Y-52565D02*
X55165Y-52687D01*
X55240Y-52621D01*
X55240Y-52649D01*
X55249Y-52668D01*
X55259Y-52677D01*
X55277Y-52687D01*
X55324Y-52687D01*
X55343Y-52677D01*
X55352Y-52668D01*
X55362Y-52649D01*
X55362Y-52593D01*
X55352Y-52574D01*
X55343Y-52565D01*
X55165Y-52865D02*
X55165Y-52771D01*
X55259Y-52762D01*
X55249Y-52771D01*
X55240Y-52790D01*
X55240Y-52837D01*
X55249Y-52855D01*
X55259Y-52865D01*
X55277Y-52874D01*
X55324Y-52874D01*
X55343Y-52865D01*
X55352Y-52855D01*
X55362Y-52837D01*
X55362Y-52790D01*
X55352Y-52771D01*
X55343Y-52762D01*
X46332Y-48201D02*
X46341Y-48211D01*
X46370Y-48220D01*
X46388Y-48220D01*
X46416Y-48211D01*
X46435Y-48192D01*
X46445Y-48173D01*
X46454Y-48136D01*
X46454Y-48108D01*
X46445Y-48070D01*
X46435Y-48051D01*
X46416Y-48033D01*
X46388Y-48023D01*
X46370Y-48023D01*
X46341Y-48033D01*
X46332Y-48042D01*
X46163Y-48089D02*
X46163Y-48220D01*
X46210Y-48014D02*
X46257Y-48155D01*
X46135Y-48155D01*
X46070Y-48042D02*
X46060Y-48033D01*
X46041Y-48023D01*
X45995Y-48023D01*
X45976Y-48033D01*
X45966Y-48042D01*
X45957Y-48061D01*
X45957Y-48080D01*
X45966Y-48108D01*
X46079Y-48220D01*
X45957Y-48220D01*
G54D11*
X46749Y-46649D02*
X46854Y-46649D01*
X46854Y-46814D02*
X46854Y-46499D01*
X46704Y-46499D01*
X46479Y-46649D02*
X46434Y-46664D01*
X46419Y-46679D01*
X46404Y-46709D01*
X46404Y-46754D01*
X46419Y-46784D01*
X46434Y-46799D01*
X46464Y-46814D01*
X46584Y-46814D01*
X46584Y-46499D01*
X46479Y-46499D01*
X46449Y-46514D01*
X46434Y-46529D01*
X46419Y-46559D01*
X46419Y-46589D01*
X46434Y-46619D01*
X46449Y-46634D01*
X46479Y-46649D01*
X46584Y-46649D01*
X46104Y-46814D02*
X46284Y-46814D01*
X46194Y-46814D02*
X46194Y-46499D01*
X46224Y-46544D01*
X46254Y-46574D01*
X46284Y-46589D01*
X45999Y-46499D02*
X45789Y-46499D01*
X45924Y-46814D01*
G54D10*
X61057Y-50387D02*
X61376Y-50387D01*
X61413Y-50405D01*
X61432Y-50424D01*
X61451Y-50462D01*
X61451Y-50537D01*
X61432Y-50574D01*
X61413Y-50593D01*
X61376Y-50612D01*
X61057Y-50612D01*
X61095Y-50780D02*
X61076Y-50799D01*
X61057Y-50836D01*
X61057Y-50930D01*
X61076Y-50968D01*
X61095Y-50986D01*
X61132Y-51005D01*
X61170Y-51005D01*
X61226Y-50986D01*
X61451Y-50761D01*
X61451Y-51005D01*
X43956Y-51012D02*
X44350Y-51274D01*
X43956Y-51274D02*
X44350Y-51012D01*
X44350Y-51630D02*
X44350Y-51405D01*
X44350Y-51518D02*
X43956Y-51518D01*
X44012Y-51480D01*
X44050Y-51443D01*
X44069Y-51405D01*
X52218Y-50522D02*
X52218Y-50841D01*
X52200Y-50878D01*
X52181Y-50897D01*
X52143Y-50916D01*
X52068Y-50916D01*
X52031Y-50897D01*
X52012Y-50878D01*
X51993Y-50841D01*
X51993Y-50522D01*
X51844Y-50522D02*
X51600Y-50522D01*
X51731Y-50672D01*
X51675Y-50672D01*
X51637Y-50691D01*
X51619Y-50710D01*
X51600Y-50747D01*
X51600Y-50841D01*
X51619Y-50878D01*
X51637Y-50897D01*
X51675Y-50916D01*
X51787Y-50916D01*
X51825Y-50897D01*
X51844Y-50878D01*
G54D20*
X61186Y-43357D02*
X61093Y-43292D01*
X61186Y-43245D02*
X60989Y-43245D01*
X60989Y-43320D01*
X60999Y-43339D01*
X61008Y-43348D01*
X61027Y-43357D01*
X61055Y-43357D01*
X61074Y-43348D01*
X61083Y-43339D01*
X61093Y-43320D01*
X61093Y-43245D01*
X61008Y-43432D02*
X60999Y-43442D01*
X60989Y-43461D01*
X60989Y-43507D01*
X60999Y-43526D01*
X61008Y-43536D01*
X61027Y-43545D01*
X61046Y-43545D01*
X61074Y-43536D01*
X61186Y-43423D01*
X61186Y-43545D01*
X60989Y-43723D02*
X60989Y-43629D01*
X61083Y-43620D01*
X61074Y-43629D01*
X61064Y-43648D01*
X61064Y-43695D01*
X61074Y-43714D01*
X61083Y-43723D01*
X61102Y-43732D01*
X61149Y-43732D01*
X61168Y-43723D01*
X61177Y-43714D01*
X61186Y-43695D01*
X61186Y-43648D01*
X61177Y-43629D01*
X61168Y-43620D01*
X60880Y-43355D02*
X60786Y-43290D01*
X60880Y-43243D02*
X60683Y-43243D01*
X60683Y-43318D01*
X60693Y-43337D01*
X60702Y-43346D01*
X60721Y-43355D01*
X60749Y-43355D01*
X60768Y-43346D01*
X60777Y-43337D01*
X60786Y-43318D01*
X60786Y-43243D01*
X60702Y-43430D02*
X60693Y-43440D01*
X60683Y-43459D01*
X60683Y-43505D01*
X60693Y-43524D01*
X60702Y-43534D01*
X60721Y-43543D01*
X60740Y-43543D01*
X60768Y-43534D01*
X60880Y-43421D01*
X60880Y-43543D01*
X60683Y-43712D02*
X60683Y-43674D01*
X60693Y-43655D01*
X60702Y-43646D01*
X60730Y-43627D01*
X60768Y-43618D01*
X60843Y-43618D01*
X60861Y-43627D01*
X60871Y-43637D01*
X60880Y-43655D01*
X60880Y-43693D01*
X60871Y-43712D01*
X60861Y-43721D01*
X60843Y-43730D01*
X60796Y-43730D01*
X60777Y-43721D01*
X60768Y-43712D01*
X60758Y-43693D01*
X60758Y-43655D01*
X60768Y-43637D01*
X60777Y-43627D01*
X60796Y-43618D01*
X60584Y-43363D02*
X60490Y-43298D01*
X60584Y-43251D02*
X60387Y-43251D01*
X60387Y-43326D01*
X60397Y-43345D01*
X60406Y-43354D01*
X60425Y-43363D01*
X60453Y-43363D01*
X60472Y-43354D01*
X60481Y-43345D01*
X60490Y-43326D01*
X60490Y-43251D01*
X60406Y-43438D02*
X60397Y-43448D01*
X60387Y-43467D01*
X60387Y-43513D01*
X60397Y-43532D01*
X60406Y-43542D01*
X60425Y-43551D01*
X60444Y-43551D01*
X60472Y-43542D01*
X60584Y-43429D01*
X60584Y-43551D01*
X60387Y-43617D02*
X60387Y-43748D01*
X60584Y-43663D01*
X60290Y-43367D02*
X60196Y-43302D01*
X60290Y-43255D02*
X60093Y-43255D01*
X60093Y-43330D01*
X60103Y-43349D01*
X60112Y-43358D01*
X60131Y-43367D01*
X60159Y-43367D01*
X60178Y-43358D01*
X60187Y-43349D01*
X60196Y-43330D01*
X60196Y-43255D01*
X60112Y-43442D02*
X60103Y-43452D01*
X60093Y-43471D01*
X60093Y-43517D01*
X60103Y-43536D01*
X60112Y-43546D01*
X60131Y-43555D01*
X60149Y-43555D01*
X60178Y-43546D01*
X60290Y-43433D01*
X60290Y-43555D01*
X60178Y-43667D02*
X60168Y-43649D01*
X60159Y-43639D01*
X60140Y-43630D01*
X60131Y-43630D01*
X60112Y-43639D01*
X60103Y-43649D01*
X60093Y-43667D01*
X60093Y-43705D01*
X60103Y-43724D01*
X60112Y-43733D01*
X60131Y-43742D01*
X60140Y-43742D01*
X60159Y-43733D01*
X60168Y-43724D01*
X60178Y-43705D01*
X60178Y-43667D01*
X60187Y-43649D01*
X60196Y-43639D01*
X60215Y-43630D01*
X60253Y-43630D01*
X60271Y-43639D01*
X60281Y-43649D01*
X60290Y-43667D01*
X60290Y-43705D01*
X60281Y-43724D01*
X60271Y-43733D01*
X60253Y-43742D01*
X60215Y-43742D01*
X60196Y-43733D01*
X60187Y-43724D01*
X60178Y-43705D01*
X62449Y-43388D02*
X62355Y-43322D01*
X62449Y-43275D02*
X62252Y-43275D01*
X62252Y-43350D01*
X62262Y-43369D01*
X62271Y-43379D01*
X62290Y-43388D01*
X62318Y-43388D01*
X62337Y-43379D01*
X62346Y-43369D01*
X62355Y-43350D01*
X62355Y-43275D01*
X62271Y-43463D02*
X62262Y-43472D01*
X62252Y-43491D01*
X62252Y-43538D01*
X62262Y-43557D01*
X62271Y-43566D01*
X62290Y-43575D01*
X62309Y-43575D01*
X62337Y-43566D01*
X62449Y-43454D01*
X62449Y-43575D01*
X62449Y-43763D02*
X62449Y-43650D01*
X62449Y-43707D02*
X62252Y-43707D01*
X62280Y-43688D01*
X62299Y-43669D01*
X62309Y-43650D01*
X62130Y-43366D02*
X62036Y-43300D01*
X62130Y-43253D02*
X61933Y-43253D01*
X61933Y-43328D01*
X61943Y-43347D01*
X61952Y-43357D01*
X61971Y-43366D01*
X61999Y-43366D01*
X62018Y-43357D01*
X62027Y-43347D01*
X62036Y-43328D01*
X62036Y-43253D01*
X61952Y-43441D02*
X61943Y-43450D01*
X61933Y-43469D01*
X61933Y-43516D01*
X61943Y-43535D01*
X61952Y-43544D01*
X61971Y-43553D01*
X61990Y-43553D01*
X62018Y-43544D01*
X62130Y-43432D01*
X62130Y-43553D01*
X61952Y-43628D02*
X61943Y-43638D01*
X61933Y-43657D01*
X61933Y-43703D01*
X61943Y-43722D01*
X61952Y-43732D01*
X61971Y-43741D01*
X61990Y-43741D01*
X62018Y-43732D01*
X62130Y-43619D01*
X62130Y-43741D01*
X61828Y-43357D02*
X61734Y-43291D01*
X61828Y-43244D02*
X61631Y-43244D01*
X61631Y-43319D01*
X61641Y-43338D01*
X61650Y-43348D01*
X61669Y-43357D01*
X61697Y-43357D01*
X61716Y-43348D01*
X61725Y-43338D01*
X61734Y-43319D01*
X61734Y-43244D01*
X61650Y-43432D02*
X61641Y-43441D01*
X61631Y-43460D01*
X61631Y-43507D01*
X61641Y-43526D01*
X61650Y-43535D01*
X61669Y-43544D01*
X61688Y-43544D01*
X61716Y-43535D01*
X61828Y-43423D01*
X61828Y-43544D01*
X61631Y-43610D02*
X61631Y-43732D01*
X61706Y-43666D01*
X61706Y-43694D01*
X61716Y-43713D01*
X61725Y-43723D01*
X61744Y-43732D01*
X61791Y-43732D01*
X61809Y-43723D01*
X61819Y-43713D01*
X61828Y-43694D01*
X61828Y-43638D01*
X61819Y-43619D01*
X61809Y-43610D01*
X61504Y-43361D02*
X61410Y-43295D01*
X61504Y-43248D02*
X61307Y-43248D01*
X61307Y-43323D01*
X61317Y-43342D01*
X61326Y-43352D01*
X61345Y-43361D01*
X61373Y-43361D01*
X61392Y-43352D01*
X61401Y-43342D01*
X61410Y-43323D01*
X61410Y-43248D01*
X61326Y-43436D02*
X61317Y-43445D01*
X61307Y-43464D01*
X61307Y-43511D01*
X61317Y-43530D01*
X61326Y-43539D01*
X61345Y-43548D01*
X61364Y-43548D01*
X61392Y-43539D01*
X61504Y-43427D01*
X61504Y-43548D01*
X61373Y-43717D02*
X61504Y-43717D01*
X61298Y-43670D02*
X61439Y-43623D01*
X61439Y-43745D01*
X51679Y-42503D02*
X51585Y-42437D01*
X51679Y-42390D02*
X51482Y-42390D01*
X51482Y-42465D01*
X51492Y-42484D01*
X51501Y-42494D01*
X51520Y-42503D01*
X51548Y-42503D01*
X51567Y-42494D01*
X51576Y-42484D01*
X51585Y-42465D01*
X51585Y-42390D01*
X51679Y-42690D02*
X51679Y-42578D01*
X51679Y-42634D02*
X51482Y-42634D01*
X51510Y-42615D01*
X51529Y-42597D01*
X51539Y-42578D01*
X51482Y-42756D02*
X51482Y-42887D01*
X51679Y-42803D01*
X44944Y-27640D02*
X44953Y-27630D01*
X44962Y-27602D01*
X44962Y-27583D01*
X44953Y-27555D01*
X44934Y-27536D01*
X44916Y-27527D01*
X44878Y-27518D01*
X44850Y-27518D01*
X44812Y-27527D01*
X44794Y-27536D01*
X44775Y-27555D01*
X44766Y-27583D01*
X44766Y-27602D01*
X44775Y-27630D01*
X44784Y-27640D01*
X44766Y-27808D02*
X44766Y-27771D01*
X44775Y-27752D01*
X44784Y-27743D01*
X44812Y-27724D01*
X44850Y-27715D01*
X44925Y-27715D01*
X44944Y-27724D01*
X44953Y-27733D01*
X44962Y-27752D01*
X44962Y-27789D01*
X44953Y-27808D01*
X44944Y-27818D01*
X44925Y-27827D01*
X44878Y-27827D01*
X44859Y-27818D01*
X44850Y-27808D01*
X44841Y-27789D01*
X44841Y-27752D01*
X44850Y-27733D01*
X44859Y-27724D01*
X44878Y-27715D01*
X44766Y-28005D02*
X44766Y-27911D01*
X44859Y-27902D01*
X44850Y-27911D01*
X44841Y-27930D01*
X44841Y-27977D01*
X44850Y-27996D01*
X44859Y-28005D01*
X44878Y-28014D01*
X44925Y-28014D01*
X44944Y-28005D01*
X44953Y-27996D01*
X44962Y-27977D01*
X44962Y-27930D01*
X44953Y-27911D01*
X44944Y-27902D01*
X46193Y-31285D02*
X46099Y-31219D01*
X46193Y-31173D02*
X45996Y-31173D01*
X45996Y-31248D01*
X46006Y-31266D01*
X46015Y-31276D01*
X46034Y-31285D01*
X46062Y-31285D01*
X46081Y-31276D01*
X46090Y-31266D01*
X46099Y-31248D01*
X46099Y-31173D01*
X45996Y-31454D02*
X45996Y-31416D01*
X46006Y-31398D01*
X46015Y-31388D01*
X46043Y-31369D01*
X46081Y-31360D01*
X46156Y-31360D01*
X46174Y-31369D01*
X46184Y-31379D01*
X46193Y-31398D01*
X46193Y-31435D01*
X46184Y-31454D01*
X46174Y-31463D01*
X46156Y-31473D01*
X46109Y-31473D01*
X46090Y-31463D01*
X46081Y-31454D01*
X46071Y-31435D01*
X46071Y-31398D01*
X46081Y-31379D01*
X46090Y-31369D01*
X46109Y-31360D01*
X46081Y-31585D02*
X46071Y-31566D01*
X46062Y-31557D01*
X46043Y-31548D01*
X46034Y-31548D01*
X46015Y-31557D01*
X46006Y-31566D01*
X45996Y-31585D01*
X45996Y-31623D01*
X46006Y-31641D01*
X46015Y-31651D01*
X46034Y-31660D01*
X46043Y-31660D01*
X46062Y-31651D01*
X46071Y-31641D01*
X46081Y-31623D01*
X46081Y-31585D01*
X46090Y-31566D01*
X46099Y-31557D01*
X46118Y-31548D01*
X46156Y-31548D01*
X46174Y-31557D01*
X46184Y-31566D01*
X46193Y-31585D01*
X46193Y-31623D01*
X46184Y-31641D01*
X46174Y-31651D01*
X46156Y-31660D01*
X46118Y-31660D01*
X46099Y-31651D01*
X46090Y-31641D01*
X46081Y-31623D01*
X46611Y-26984D02*
X46620Y-26993D01*
X46648Y-27003D01*
X46667Y-27003D01*
X46695Y-26993D01*
X46714Y-26975D01*
X46723Y-26956D01*
X46733Y-26918D01*
X46733Y-26890D01*
X46723Y-26853D01*
X46714Y-26834D01*
X46695Y-26815D01*
X46667Y-26806D01*
X46648Y-26806D01*
X46620Y-26815D01*
X46611Y-26825D01*
X46442Y-26806D02*
X46480Y-26806D01*
X46498Y-26815D01*
X46508Y-26825D01*
X46526Y-26853D01*
X46536Y-26890D01*
X46536Y-26965D01*
X46526Y-26984D01*
X46517Y-26993D01*
X46498Y-27003D01*
X46461Y-27003D01*
X46442Y-26993D01*
X46433Y-26984D01*
X46423Y-26965D01*
X46423Y-26918D01*
X46433Y-26900D01*
X46442Y-26890D01*
X46461Y-26881D01*
X46498Y-26881D01*
X46517Y-26890D01*
X46526Y-26900D01*
X46536Y-26918D01*
X46358Y-26806D02*
X46236Y-26806D01*
X46301Y-26881D01*
X46273Y-26881D01*
X46255Y-26890D01*
X46245Y-26900D01*
X46236Y-26918D01*
X46236Y-26965D01*
X46245Y-26984D01*
X46255Y-26993D01*
X46273Y-27003D01*
X46330Y-27003D01*
X46348Y-26993D01*
X46358Y-26984D01*
X46242Y-30118D02*
X46252Y-30127D01*
X46280Y-30137D01*
X46299Y-30137D01*
X46327Y-30127D01*
X46345Y-30109D01*
X46355Y-30090D01*
X46364Y-30052D01*
X46364Y-30024D01*
X46355Y-29987D01*
X46345Y-29968D01*
X46327Y-29949D01*
X46299Y-29940D01*
X46280Y-29940D01*
X46252Y-29949D01*
X46242Y-29959D01*
X46074Y-29940D02*
X46111Y-29940D01*
X46130Y-29949D01*
X46139Y-29959D01*
X46158Y-29987D01*
X46167Y-30024D01*
X46167Y-30099D01*
X46158Y-30118D01*
X46149Y-30127D01*
X46130Y-30137D01*
X46092Y-30137D01*
X46074Y-30127D01*
X46064Y-30118D01*
X46055Y-30099D01*
X46055Y-30052D01*
X46064Y-30034D01*
X46074Y-30024D01*
X46092Y-30015D01*
X46130Y-30015D01*
X46149Y-30024D01*
X46158Y-30034D01*
X46167Y-30052D01*
X45886Y-29940D02*
X45924Y-29940D01*
X45942Y-29949D01*
X45952Y-29959D01*
X45970Y-29987D01*
X45980Y-30024D01*
X45980Y-30099D01*
X45970Y-30118D01*
X45961Y-30127D01*
X45942Y-30137D01*
X45905Y-30137D01*
X45886Y-30127D01*
X45877Y-30118D01*
X45867Y-30099D01*
X45867Y-30052D01*
X45877Y-30034D01*
X45886Y-30024D01*
X45905Y-30015D01*
X45942Y-30015D01*
X45961Y-30024D01*
X45970Y-30034D01*
X45980Y-30052D01*
X45959Y-26801D02*
X46025Y-26801D01*
X46025Y-26904D02*
X46025Y-26707D01*
X45931Y-26707D01*
X45791Y-26801D02*
X45762Y-26810D01*
X45753Y-26820D01*
X45744Y-26839D01*
X45744Y-26867D01*
X45753Y-26885D01*
X45762Y-26895D01*
X45781Y-26904D01*
X45856Y-26904D01*
X45856Y-26707D01*
X45791Y-26707D01*
X45772Y-26717D01*
X45762Y-26726D01*
X45753Y-26745D01*
X45753Y-26764D01*
X45762Y-26782D01*
X45772Y-26792D01*
X45791Y-26801D01*
X45856Y-26801D01*
X45669Y-26726D02*
X45659Y-26717D01*
X45641Y-26707D01*
X45594Y-26707D01*
X45575Y-26717D01*
X45566Y-26726D01*
X45556Y-26745D01*
X45556Y-26764D01*
X45566Y-26792D01*
X45678Y-26904D01*
X45556Y-26904D01*
X45369Y-26904D02*
X45481Y-26904D01*
X45425Y-26904D02*
X45425Y-26707D01*
X45444Y-26735D01*
X45462Y-26754D01*
X45481Y-26764D01*
G54D11*
X44397Y-28737D02*
X44716Y-28737D01*
X44753Y-28756D01*
X44772Y-28775D01*
X44791Y-28812D01*
X44791Y-28887D01*
X44772Y-28925D01*
X44753Y-28943D01*
X44716Y-28962D01*
X44397Y-28962D01*
X44791Y-29356D02*
X44791Y-29131D01*
X44791Y-29243D02*
X44397Y-29243D01*
X44453Y-29206D01*
X44491Y-29168D01*
X44510Y-29131D01*
X44397Y-29693D02*
X44397Y-29618D01*
X44416Y-29581D01*
X44435Y-29562D01*
X44491Y-29524D01*
X44566Y-29506D01*
X44716Y-29506D01*
X44753Y-29524D01*
X44772Y-29543D01*
X44791Y-29581D01*
X44791Y-29656D01*
X44772Y-29693D01*
X44753Y-29712D01*
X44716Y-29731D01*
X44622Y-29731D01*
X44585Y-29712D01*
X44566Y-29693D01*
X44547Y-29656D01*
X44547Y-29581D01*
X44566Y-29543D01*
X44585Y-29524D01*
X44622Y-29506D01*
G54D20*
X49020Y-52615D02*
X49085Y-52521D01*
X49132Y-52615D02*
X49132Y-52418D01*
X49057Y-52418D01*
X49038Y-52427D01*
X49029Y-52437D01*
X49020Y-52455D01*
X49020Y-52483D01*
X49029Y-52502D01*
X49038Y-52511D01*
X49057Y-52521D01*
X49132Y-52521D01*
X48832Y-52615D02*
X48945Y-52615D01*
X48889Y-52615D02*
X48889Y-52418D01*
X48907Y-52446D01*
X48926Y-52465D01*
X48945Y-52474D01*
X48757Y-52437D02*
X48748Y-52427D01*
X48729Y-52418D01*
X48682Y-52418D01*
X48664Y-52427D01*
X48654Y-52437D01*
X48645Y-52455D01*
X48645Y-52474D01*
X48654Y-52502D01*
X48767Y-52615D01*
X48645Y-52615D01*
X53627Y-52495D02*
X53693Y-52401D01*
X53740Y-52495D02*
X53740Y-52298D01*
X53665Y-52298D01*
X53646Y-52308D01*
X53636Y-52317D01*
X53627Y-52336D01*
X53627Y-52364D01*
X53636Y-52383D01*
X53646Y-52392D01*
X53665Y-52401D01*
X53740Y-52401D01*
X53440Y-52495D02*
X53552Y-52495D01*
X53496Y-52495D02*
X53496Y-52298D01*
X53515Y-52326D01*
X53533Y-52345D01*
X53552Y-52355D01*
X53252Y-52495D02*
X53365Y-52495D01*
X53308Y-52495D02*
X53308Y-52298D01*
X53327Y-52326D01*
X53346Y-52345D01*
X53365Y-52355D01*
X53125Y-49412D02*
X53031Y-49346D01*
X53125Y-49299D02*
X52928Y-49299D01*
X52928Y-49374D01*
X52938Y-49393D01*
X52947Y-49403D01*
X52966Y-49412D01*
X52994Y-49412D01*
X53013Y-49403D01*
X53022Y-49393D01*
X53031Y-49374D01*
X53031Y-49299D01*
X53125Y-49599D02*
X53125Y-49487D01*
X53125Y-49543D02*
X52928Y-49543D01*
X52956Y-49524D01*
X52975Y-49506D01*
X52985Y-49487D01*
X52928Y-49721D02*
X52928Y-49740D01*
X52938Y-49759D01*
X52947Y-49768D01*
X52966Y-49778D01*
X53003Y-49787D01*
X53050Y-49787D01*
X53088Y-49778D01*
X53106Y-49768D01*
X53116Y-49759D01*
X53125Y-49740D01*
X53125Y-49721D01*
X53116Y-49703D01*
X53106Y-49693D01*
X53088Y-49684D01*
X53050Y-49674D01*
X53003Y-49674D01*
X52966Y-49684D01*
X52947Y-49693D01*
X52938Y-49703D01*
X52928Y-49721D01*
X51318Y-52561D02*
X51327Y-52570D01*
X51355Y-52579D01*
X51374Y-52579D01*
X51402Y-52570D01*
X51421Y-52551D01*
X51430Y-52533D01*
X51440Y-52495D01*
X51440Y-52467D01*
X51430Y-52429D01*
X51421Y-52411D01*
X51402Y-52392D01*
X51374Y-52383D01*
X51355Y-52383D01*
X51327Y-52392D01*
X51318Y-52401D01*
X51243Y-52401D02*
X51233Y-52392D01*
X51215Y-52383D01*
X51168Y-52383D01*
X51149Y-52392D01*
X51140Y-52401D01*
X51130Y-52420D01*
X51130Y-52439D01*
X51140Y-52467D01*
X51252Y-52579D01*
X51130Y-52579D01*
X51018Y-52467D02*
X51036Y-52458D01*
X51046Y-52448D01*
X51055Y-52429D01*
X51055Y-52420D01*
X51046Y-52401D01*
X51036Y-52392D01*
X51018Y-52383D01*
X50980Y-52383D01*
X50961Y-52392D01*
X50952Y-52401D01*
X50943Y-52420D01*
X50943Y-52429D01*
X50952Y-52448D01*
X50961Y-52458D01*
X50980Y-52467D01*
X51018Y-52467D01*
X51036Y-52476D01*
X51046Y-52486D01*
X51055Y-52504D01*
X51055Y-52542D01*
X51046Y-52561D01*
X51036Y-52570D01*
X51018Y-52579D01*
X50980Y-52579D01*
X50961Y-52570D01*
X50952Y-52561D01*
X50943Y-52542D01*
X50943Y-52504D01*
X50952Y-52486D01*
X50961Y-52476D01*
X50980Y-52467D01*
X50734Y-52150D02*
X50800Y-52057D01*
X50847Y-52150D02*
X50847Y-51953D01*
X50772Y-51953D01*
X50753Y-51963D01*
X50744Y-51972D01*
X50734Y-51991D01*
X50734Y-52019D01*
X50744Y-52038D01*
X50753Y-52047D01*
X50772Y-52057D01*
X50847Y-52057D01*
X50669Y-51953D02*
X50547Y-51953D01*
X50613Y-52028D01*
X50584Y-52028D01*
X50566Y-52038D01*
X50556Y-52047D01*
X50547Y-52066D01*
X50547Y-52113D01*
X50556Y-52132D01*
X50566Y-52141D01*
X50584Y-52150D01*
X50641Y-52150D01*
X50659Y-52141D01*
X50669Y-52132D01*
X52630Y-36084D02*
X52695Y-35990D01*
X52742Y-36084D02*
X52742Y-35887D01*
X52667Y-35887D01*
X52649Y-35897D01*
X52639Y-35906D01*
X52630Y-35925D01*
X52630Y-35953D01*
X52639Y-35972D01*
X52649Y-35981D01*
X52667Y-35990D01*
X52742Y-35990D01*
X52442Y-36084D02*
X52555Y-36084D01*
X52499Y-36084D02*
X52499Y-35887D01*
X52517Y-35915D01*
X52536Y-35934D01*
X52555Y-35944D01*
X52367Y-35906D02*
X52358Y-35897D01*
X52339Y-35887D01*
X52292Y-35887D01*
X52274Y-35897D01*
X52264Y-35906D01*
X52255Y-35925D01*
X52255Y-35944D01*
X52264Y-35972D01*
X52377Y-36084D01*
X52255Y-36084D01*
X52086Y-35953D02*
X52086Y-36084D01*
X52133Y-35878D02*
X52180Y-36019D01*
X52058Y-36019D01*
X51502Y-35277D02*
X51511Y-35287D01*
X51539Y-35296D01*
X51558Y-35296D01*
X51586Y-35287D01*
X51605Y-35268D01*
X51614Y-35249D01*
X51624Y-35212D01*
X51624Y-35184D01*
X51614Y-35146D01*
X51605Y-35127D01*
X51586Y-35109D01*
X51558Y-35099D01*
X51539Y-35099D01*
X51511Y-35109D01*
X51502Y-35118D01*
X51314Y-35296D02*
X51427Y-35296D01*
X51371Y-35296D02*
X51371Y-35099D01*
X51389Y-35127D01*
X51408Y-35146D01*
X51427Y-35156D01*
X51249Y-35099D02*
X51117Y-35099D01*
X51202Y-35296D01*
X51052Y-35118D02*
X51042Y-35109D01*
X51024Y-35099D01*
X50977Y-35099D01*
X50958Y-35109D01*
X50949Y-35118D01*
X50939Y-35137D01*
X50939Y-35156D01*
X50949Y-35184D01*
X51061Y-35296D01*
X50939Y-35296D01*
X52670Y-36955D02*
X52679Y-36965D01*
X52707Y-36974D01*
X52726Y-36974D01*
X52754Y-36965D01*
X52773Y-36946D01*
X52782Y-36927D01*
X52792Y-36890D01*
X52792Y-36862D01*
X52782Y-36824D01*
X52773Y-36805D01*
X52754Y-36787D01*
X52726Y-36777D01*
X52707Y-36777D01*
X52679Y-36787D01*
X52670Y-36796D01*
X52482Y-36974D02*
X52595Y-36974D01*
X52539Y-36974D02*
X52539Y-36777D01*
X52557Y-36805D01*
X52576Y-36824D01*
X52595Y-36834D01*
X52417Y-36777D02*
X52285Y-36777D01*
X52370Y-36974D01*
X52107Y-36974D02*
X52220Y-36974D01*
X52164Y-36974D02*
X52164Y-36777D01*
X52182Y-36805D01*
X52201Y-36824D01*
X52220Y-36834D01*
G54D21*
X59496Y-32265D02*
X59505Y-32275D01*
X59534Y-32284D01*
X59552Y-32284D01*
X59580Y-32275D01*
X59599Y-32256D01*
X59609Y-32237D01*
X59618Y-32200D01*
X59618Y-32172D01*
X59609Y-32134D01*
X59599Y-32115D01*
X59580Y-32097D01*
X59552Y-32087D01*
X59534Y-32087D01*
X59505Y-32097D01*
X59496Y-32106D01*
X59421Y-32106D02*
X59412Y-32097D01*
X59393Y-32087D01*
X59346Y-32087D01*
X59327Y-32097D01*
X59318Y-32106D01*
X59309Y-32125D01*
X59309Y-32144D01*
X59318Y-32172D01*
X59430Y-32284D01*
X59309Y-32284D01*
X59243Y-32087D02*
X59121Y-32087D01*
X59187Y-32162D01*
X59159Y-32162D01*
X59140Y-32172D01*
X59130Y-32181D01*
X59121Y-32200D01*
X59121Y-32247D01*
X59130Y-32265D01*
X59140Y-32275D01*
X59159Y-32284D01*
X59215Y-32284D01*
X59234Y-32275D01*
X59243Y-32265D01*
G54D20*
X47065Y-45732D02*
X47131Y-45732D01*
X47131Y-45835D02*
X47131Y-45639D01*
X47037Y-45639D01*
X46896Y-45732D02*
X46868Y-45742D01*
X46859Y-45751D01*
X46849Y-45770D01*
X46849Y-45798D01*
X46859Y-45817D01*
X46868Y-45826D01*
X46887Y-45835D01*
X46962Y-45835D01*
X46962Y-45639D01*
X46896Y-45639D01*
X46878Y-45648D01*
X46868Y-45657D01*
X46859Y-45676D01*
X46859Y-45695D01*
X46868Y-45714D01*
X46878Y-45723D01*
X46896Y-45732D01*
X46962Y-45732D01*
X46774Y-45657D02*
X46765Y-45648D01*
X46746Y-45639D01*
X46699Y-45639D01*
X46681Y-45648D01*
X46671Y-45657D01*
X46662Y-45676D01*
X46662Y-45695D01*
X46671Y-45723D01*
X46784Y-45835D01*
X46662Y-45835D01*
X46493Y-45639D02*
X46531Y-45639D01*
X46550Y-45648D01*
X46559Y-45657D01*
X46578Y-45685D01*
X46587Y-45723D01*
X46587Y-45798D01*
X46578Y-45817D01*
X46568Y-45826D01*
X46550Y-45835D01*
X46512Y-45835D01*
X46493Y-45826D01*
X46484Y-45817D01*
X46475Y-45798D01*
X46475Y-45751D01*
X46484Y-45732D01*
X46493Y-45723D01*
X46512Y-45714D01*
X46550Y-45714D01*
X46568Y-45723D01*
X46578Y-45732D01*
X46587Y-45751D01*
X57220Y-39069D02*
X57286Y-39069D01*
X57286Y-39172D02*
X57286Y-38976D01*
X57192Y-38976D01*
X57051Y-39069D02*
X57023Y-39079D01*
X57014Y-39088D01*
X57004Y-39107D01*
X57004Y-39135D01*
X57014Y-39154D01*
X57023Y-39163D01*
X57042Y-39172D01*
X57117Y-39172D01*
X57117Y-38976D01*
X57051Y-38976D01*
X57033Y-38985D01*
X57023Y-38994D01*
X57014Y-39013D01*
X57014Y-39032D01*
X57023Y-39051D01*
X57033Y-39060D01*
X57051Y-39069D01*
X57117Y-39069D01*
X56817Y-39172D02*
X56929Y-39172D01*
X56873Y-39172D02*
X56873Y-38976D01*
X56892Y-39004D01*
X56911Y-39022D01*
X56929Y-39032D01*
X56742Y-38994D02*
X56733Y-38985D01*
X56714Y-38976D01*
X56667Y-38976D01*
X56648Y-38985D01*
X56639Y-38994D01*
X56630Y-39013D01*
X56630Y-39032D01*
X56639Y-39060D01*
X56751Y-39172D01*
X56630Y-39172D01*
G54D21*
X59149Y-31243D02*
X59149Y-31149D01*
X58952Y-31149D01*
X59149Y-31412D02*
X59149Y-31299D01*
X59149Y-31355D02*
X58952Y-31355D01*
X58980Y-31337D01*
X58999Y-31318D01*
X59009Y-31299D01*
X59149Y-31599D02*
X59149Y-31487D01*
X59149Y-31543D02*
X58952Y-31543D01*
X58980Y-31524D01*
X58999Y-31505D01*
X59009Y-31487D01*
X59519Y-31277D02*
X59519Y-31183D01*
X59322Y-31183D01*
X59322Y-31324D02*
X59322Y-31455D01*
X59519Y-31370D01*
X60119Y-31243D02*
X60119Y-31149D01*
X59922Y-31149D01*
X60119Y-31412D02*
X60119Y-31299D01*
X60119Y-31355D02*
X59922Y-31355D01*
X59950Y-31337D01*
X59969Y-31318D01*
X59979Y-31299D01*
X59941Y-31487D02*
X59932Y-31496D01*
X59922Y-31515D01*
X59922Y-31562D01*
X59932Y-31580D01*
X59941Y-31590D01*
X59960Y-31599D01*
X59979Y-31599D01*
X60007Y-31590D01*
X60119Y-31477D01*
X60119Y-31599D01*
X60479Y-31287D02*
X60479Y-31193D01*
X60282Y-31193D01*
X60367Y-31380D02*
X60357Y-31362D01*
X60348Y-31352D01*
X60329Y-31343D01*
X60320Y-31343D01*
X60301Y-31352D01*
X60292Y-31362D01*
X60282Y-31380D01*
X60282Y-31418D01*
X60292Y-31437D01*
X60301Y-31446D01*
X60320Y-31455D01*
X60329Y-31455D01*
X60348Y-31446D01*
X60357Y-31437D01*
X60367Y-31418D01*
X60367Y-31380D01*
X60376Y-31362D01*
X60385Y-31352D01*
X60404Y-31343D01*
X60442Y-31343D01*
X60460Y-31352D01*
X60470Y-31362D01*
X60479Y-31380D01*
X60479Y-31418D01*
X60470Y-31437D01*
X60460Y-31446D01*
X60442Y-31455D01*
X60404Y-31455D01*
X60385Y-31446D01*
X60376Y-31437D01*
X60367Y-31418D01*
X60330Y-33522D02*
X60340Y-33512D01*
X60349Y-33484D01*
X60349Y-33465D01*
X60340Y-33437D01*
X60321Y-33419D01*
X60302Y-33409D01*
X60265Y-33400D01*
X60237Y-33400D01*
X60199Y-33409D01*
X60180Y-33419D01*
X60162Y-33437D01*
X60152Y-33465D01*
X60152Y-33484D01*
X60162Y-33512D01*
X60171Y-33522D01*
X60152Y-33587D02*
X60152Y-33709D01*
X60227Y-33644D01*
X60227Y-33672D01*
X60237Y-33690D01*
X60246Y-33700D01*
X60265Y-33709D01*
X60312Y-33709D01*
X60330Y-33700D01*
X60340Y-33690D01*
X60349Y-33672D01*
X60349Y-33615D01*
X60340Y-33597D01*
X60330Y-33587D01*
X60654Y-32454D02*
X60664Y-32444D01*
X60673Y-32416D01*
X60673Y-32397D01*
X60664Y-32369D01*
X60645Y-32351D01*
X60626Y-32341D01*
X60589Y-32332D01*
X60561Y-32332D01*
X60523Y-32341D01*
X60504Y-32351D01*
X60486Y-32369D01*
X60476Y-32397D01*
X60476Y-32416D01*
X60486Y-32444D01*
X60495Y-32454D01*
X60561Y-32566D02*
X60551Y-32547D01*
X60542Y-32538D01*
X60523Y-32529D01*
X60514Y-32529D01*
X60495Y-32538D01*
X60486Y-32547D01*
X60476Y-32566D01*
X60476Y-32604D01*
X60486Y-32622D01*
X60495Y-32632D01*
X60514Y-32641D01*
X60523Y-32641D01*
X60542Y-32632D01*
X60551Y-32622D01*
X60561Y-32604D01*
X60561Y-32566D01*
X60570Y-32547D01*
X60579Y-32538D01*
X60598Y-32529D01*
X60636Y-32529D01*
X60654Y-32538D01*
X60664Y-32547D01*
X60673Y-32566D01*
X60673Y-32604D01*
X60664Y-32622D01*
X60654Y-32632D01*
X60636Y-32641D01*
X60598Y-32641D01*
X60579Y-32632D01*
X60570Y-32622D01*
X60561Y-32604D01*
X60660Y-33507D02*
X60670Y-33497D01*
X60679Y-33469D01*
X60679Y-33450D01*
X60670Y-33422D01*
X60651Y-33404D01*
X60632Y-33394D01*
X60595Y-33385D01*
X60567Y-33385D01*
X60529Y-33394D01*
X60510Y-33404D01*
X60492Y-33422D01*
X60482Y-33450D01*
X60482Y-33469D01*
X60492Y-33497D01*
X60501Y-33507D01*
X60482Y-33685D02*
X60482Y-33591D01*
X60576Y-33582D01*
X60567Y-33591D01*
X60557Y-33610D01*
X60557Y-33657D01*
X60567Y-33675D01*
X60576Y-33685D01*
X60595Y-33694D01*
X60642Y-33694D01*
X60660Y-33685D01*
X60670Y-33675D01*
X60679Y-33657D01*
X60679Y-33610D01*
X60670Y-33591D01*
X60660Y-33582D01*
X60927Y-32369D02*
X60937Y-32360D01*
X60946Y-32331D01*
X60946Y-32313D01*
X60937Y-32285D01*
X60918Y-32266D01*
X60899Y-32256D01*
X60862Y-32247D01*
X60834Y-32247D01*
X60796Y-32256D01*
X60777Y-32266D01*
X60759Y-32285D01*
X60749Y-32313D01*
X60749Y-32331D01*
X60759Y-32360D01*
X60768Y-32369D01*
X60946Y-32556D02*
X60946Y-32444D01*
X60946Y-32500D02*
X60749Y-32500D01*
X60777Y-32481D01*
X60796Y-32463D01*
X60806Y-32444D01*
X60946Y-32744D02*
X60946Y-32631D01*
X60946Y-32688D02*
X60749Y-32688D01*
X60777Y-32669D01*
X60796Y-32650D01*
X60806Y-32631D01*
X60945Y-33488D02*
X60955Y-33479D01*
X60964Y-33450D01*
X60964Y-33432D01*
X60955Y-33404D01*
X60936Y-33385D01*
X60917Y-33375D01*
X60880Y-33366D01*
X60852Y-33366D01*
X60814Y-33375D01*
X60795Y-33385D01*
X60777Y-33404D01*
X60767Y-33432D01*
X60767Y-33450D01*
X60777Y-33479D01*
X60786Y-33488D01*
X60964Y-33675D02*
X60964Y-33563D01*
X60964Y-33619D02*
X60767Y-33619D01*
X60795Y-33600D01*
X60814Y-33582D01*
X60824Y-33563D01*
X60767Y-33797D02*
X60767Y-33816D01*
X60777Y-33835D01*
X60786Y-33844D01*
X60805Y-33854D01*
X60842Y-33863D01*
X60889Y-33863D01*
X60927Y-33854D01*
X60945Y-33844D01*
X60955Y-33835D01*
X60964Y-33816D01*
X60964Y-33797D01*
X60955Y-33779D01*
X60945Y-33769D01*
X60927Y-33760D01*
X60889Y-33750D01*
X60842Y-33750D01*
X60805Y-33760D01*
X60786Y-33769D01*
X60777Y-33779D01*
X60767Y-33797D01*
G54D20*
X59594Y-32656D02*
X59659Y-32656D01*
X59659Y-32759D02*
X59659Y-32562D01*
X59565Y-32562D01*
X59425Y-32656D02*
X59397Y-32665D01*
X59387Y-32675D01*
X59378Y-32694D01*
X59378Y-32722D01*
X59387Y-32740D01*
X59397Y-32750D01*
X59415Y-32759D01*
X59490Y-32759D01*
X59490Y-32562D01*
X59425Y-32562D01*
X59406Y-32572D01*
X59397Y-32581D01*
X59387Y-32600D01*
X59387Y-32619D01*
X59397Y-32637D01*
X59406Y-32647D01*
X59425Y-32656D01*
X59490Y-32656D01*
X59284Y-32759D02*
X59247Y-32759D01*
X59228Y-32750D01*
X59219Y-32740D01*
X59200Y-32712D01*
X59190Y-32675D01*
X59190Y-32600D01*
X59200Y-32581D01*
X59209Y-32572D01*
X59228Y-32562D01*
X59265Y-32562D01*
X59284Y-32572D01*
X59294Y-32581D01*
X59303Y-32600D01*
X59303Y-32647D01*
X59294Y-32665D01*
X59284Y-32675D01*
X59265Y-32684D01*
X59228Y-32684D01*
X59209Y-32675D01*
X59200Y-32665D01*
X59190Y-32647D01*
X59896Y-32582D02*
X59896Y-32516D01*
X59999Y-32516D02*
X59802Y-32516D01*
X59802Y-32610D01*
X59896Y-32750D02*
X59905Y-32779D01*
X59915Y-32788D01*
X59934Y-32797D01*
X59962Y-32797D01*
X59980Y-32788D01*
X59990Y-32779D01*
X59999Y-32760D01*
X59999Y-32685D01*
X59802Y-32685D01*
X59802Y-32750D01*
X59812Y-32769D01*
X59821Y-32779D01*
X59840Y-32788D01*
X59859Y-32788D01*
X59877Y-32779D01*
X59887Y-32769D01*
X59896Y-32750D01*
X59896Y-32685D01*
X59999Y-32985D02*
X59999Y-32872D01*
X59999Y-32929D02*
X59802Y-32929D01*
X59830Y-32910D01*
X59849Y-32891D01*
X59859Y-32872D01*
X59802Y-33107D02*
X59802Y-33125D01*
X59812Y-33144D01*
X59821Y-33154D01*
X59840Y-33163D01*
X59877Y-33172D01*
X59924Y-33172D01*
X59962Y-33163D01*
X59980Y-33154D01*
X59990Y-33144D01*
X59999Y-33125D01*
X59999Y-33107D01*
X59990Y-33088D01*
X59980Y-33079D01*
X59962Y-33069D01*
X59924Y-33060D01*
X59877Y-33060D01*
X59840Y-33069D01*
X59821Y-33079D01*
X59812Y-33088D01*
X59802Y-33107D01*
X58934Y-32346D02*
X58999Y-32346D01*
X58999Y-32449D02*
X58999Y-32252D01*
X58905Y-32252D01*
X58765Y-32346D02*
X58737Y-32355D01*
X58727Y-32365D01*
X58718Y-32384D01*
X58718Y-32412D01*
X58727Y-32430D01*
X58737Y-32440D01*
X58755Y-32449D01*
X58830Y-32449D01*
X58830Y-32252D01*
X58765Y-32252D01*
X58746Y-32262D01*
X58737Y-32271D01*
X58727Y-32290D01*
X58727Y-32309D01*
X58737Y-32327D01*
X58746Y-32337D01*
X58765Y-32346D01*
X58830Y-32346D01*
X58605Y-32337D02*
X58624Y-32327D01*
X58634Y-32318D01*
X58643Y-32299D01*
X58643Y-32290D01*
X58634Y-32271D01*
X58624Y-32262D01*
X58605Y-32252D01*
X58568Y-32252D01*
X58549Y-32262D01*
X58540Y-32271D01*
X58530Y-32290D01*
X58530Y-32299D01*
X58540Y-32318D01*
X58549Y-32327D01*
X58568Y-32337D01*
X58605Y-32337D01*
X58624Y-32346D01*
X58634Y-32355D01*
X58643Y-32374D01*
X58643Y-32412D01*
X58634Y-32430D01*
X58624Y-32440D01*
X58605Y-32449D01*
X58568Y-32449D01*
X58549Y-32440D01*
X58540Y-32430D01*
X58530Y-32412D01*
X58530Y-32374D01*
X58540Y-32355D01*
X58549Y-32346D01*
X58568Y-32337D01*
G54D21*
X59100Y-33548D02*
X59110Y-33539D01*
X59119Y-33510D01*
X59119Y-33492D01*
X59110Y-33464D01*
X59091Y-33445D01*
X59072Y-33435D01*
X59035Y-33426D01*
X59007Y-33426D01*
X58969Y-33435D01*
X58950Y-33445D01*
X58932Y-33464D01*
X58922Y-33492D01*
X58922Y-33510D01*
X58932Y-33539D01*
X58941Y-33548D01*
X58941Y-33623D02*
X58932Y-33632D01*
X58922Y-33651D01*
X58922Y-33698D01*
X58932Y-33717D01*
X58941Y-33726D01*
X58960Y-33735D01*
X58979Y-33735D01*
X59007Y-33726D01*
X59119Y-33614D01*
X59119Y-33735D01*
X58922Y-33857D02*
X58922Y-33876D01*
X58932Y-33895D01*
X58941Y-33904D01*
X58960Y-33914D01*
X58997Y-33923D01*
X59044Y-33923D01*
X59082Y-33914D01*
X59100Y-33904D01*
X59110Y-33895D01*
X59119Y-33876D01*
X59119Y-33857D01*
X59110Y-33839D01*
X59100Y-33829D01*
X59082Y-33820D01*
X59044Y-33810D01*
X58997Y-33810D01*
X58960Y-33820D01*
X58941Y-33829D01*
X58932Y-33839D01*
X58922Y-33857D01*
X59400Y-33548D02*
X59410Y-33539D01*
X59419Y-33510D01*
X59419Y-33492D01*
X59410Y-33464D01*
X59391Y-33445D01*
X59372Y-33435D01*
X59335Y-33426D01*
X59307Y-33426D01*
X59269Y-33435D01*
X59250Y-33445D01*
X59232Y-33464D01*
X59222Y-33492D01*
X59222Y-33510D01*
X59232Y-33539D01*
X59241Y-33548D01*
X59419Y-33735D02*
X59419Y-33623D01*
X59419Y-33679D02*
X59222Y-33679D01*
X59250Y-33660D01*
X59269Y-33642D01*
X59279Y-33623D01*
X59307Y-33848D02*
X59297Y-33829D01*
X59288Y-33820D01*
X59269Y-33810D01*
X59260Y-33810D01*
X59241Y-33820D01*
X59232Y-33829D01*
X59222Y-33848D01*
X59222Y-33885D01*
X59232Y-33904D01*
X59241Y-33914D01*
X59260Y-33923D01*
X59269Y-33923D01*
X59288Y-33914D01*
X59297Y-33904D01*
X59307Y-33885D01*
X59307Y-33848D01*
X59316Y-33829D01*
X59325Y-33820D01*
X59344Y-33810D01*
X59382Y-33810D01*
X59400Y-33820D01*
X59410Y-33829D01*
X59419Y-33848D01*
X59419Y-33885D01*
X59410Y-33904D01*
X59400Y-33914D01*
X59382Y-33923D01*
X59344Y-33923D01*
X59325Y-33914D01*
X59316Y-33904D01*
X59307Y-33885D01*
X60015Y-33518D02*
X60025Y-33509D01*
X60034Y-33480D01*
X60034Y-33462D01*
X60025Y-33434D01*
X60006Y-33415D01*
X59987Y-33405D01*
X59950Y-33396D01*
X59922Y-33396D01*
X59884Y-33405D01*
X59865Y-33415D01*
X59847Y-33434D01*
X59837Y-33462D01*
X59837Y-33480D01*
X59847Y-33509D01*
X59856Y-33518D01*
X60034Y-33705D02*
X60034Y-33593D01*
X60034Y-33649D02*
X59837Y-33649D01*
X59865Y-33630D01*
X59884Y-33612D01*
X59894Y-33593D01*
X59903Y-33874D02*
X60034Y-33874D01*
X59828Y-33827D02*
X59969Y-33780D01*
X59969Y-33902D01*
X59715Y-33518D02*
X59725Y-33509D01*
X59734Y-33480D01*
X59734Y-33462D01*
X59725Y-33434D01*
X59706Y-33415D01*
X59687Y-33405D01*
X59650Y-33396D01*
X59622Y-33396D01*
X59584Y-33405D01*
X59565Y-33415D01*
X59547Y-33434D01*
X59537Y-33462D01*
X59537Y-33480D01*
X59547Y-33509D01*
X59556Y-33518D01*
X59734Y-33705D02*
X59734Y-33593D01*
X59734Y-33649D02*
X59537Y-33649D01*
X59565Y-33630D01*
X59584Y-33612D01*
X59594Y-33593D01*
X59537Y-33771D02*
X59537Y-33893D01*
X59612Y-33827D01*
X59612Y-33855D01*
X59622Y-33874D01*
X59631Y-33884D01*
X59650Y-33893D01*
X59697Y-33893D01*
X59715Y-33884D01*
X59725Y-33874D01*
X59734Y-33855D01*
X59734Y-33799D01*
X59725Y-33780D01*
X59715Y-33771D01*
X60546Y-34335D02*
X60555Y-34345D01*
X60584Y-34354D01*
X60602Y-34354D01*
X60630Y-34345D01*
X60649Y-34326D01*
X60659Y-34307D01*
X60668Y-34270D01*
X60668Y-34242D01*
X60659Y-34204D01*
X60649Y-34185D01*
X60630Y-34167D01*
X60602Y-34157D01*
X60584Y-34157D01*
X60555Y-34167D01*
X60546Y-34176D01*
X60471Y-34176D02*
X60462Y-34167D01*
X60443Y-34157D01*
X60396Y-34157D01*
X60377Y-34167D01*
X60368Y-34176D01*
X60359Y-34195D01*
X60359Y-34214D01*
X60368Y-34242D01*
X60480Y-34354D01*
X60359Y-34354D01*
X60190Y-34157D02*
X60227Y-34157D01*
X60246Y-34167D01*
X60255Y-34176D01*
X60274Y-34204D01*
X60284Y-34242D01*
X60284Y-34317D01*
X60274Y-34335D01*
X60265Y-34345D01*
X60246Y-34354D01*
X60209Y-34354D01*
X60190Y-34345D01*
X60180Y-34335D01*
X60171Y-34317D01*
X60171Y-34270D01*
X60180Y-34251D01*
X60190Y-34242D01*
X60209Y-34232D01*
X60246Y-34232D01*
X60265Y-34242D01*
X60274Y-34251D01*
X60284Y-34270D01*
X60546Y-34635D02*
X60555Y-34645D01*
X60584Y-34654D01*
X60602Y-34654D01*
X60630Y-34645D01*
X60649Y-34626D01*
X60659Y-34607D01*
X60668Y-34570D01*
X60668Y-34542D01*
X60659Y-34504D01*
X60649Y-34485D01*
X60630Y-34467D01*
X60602Y-34457D01*
X60584Y-34457D01*
X60555Y-34467D01*
X60546Y-34476D01*
X60471Y-34476D02*
X60462Y-34467D01*
X60443Y-34457D01*
X60396Y-34457D01*
X60377Y-34467D01*
X60368Y-34476D01*
X60359Y-34495D01*
X60359Y-34514D01*
X60368Y-34542D01*
X60480Y-34654D01*
X60359Y-34654D01*
X60190Y-34523D02*
X60190Y-34654D01*
X60237Y-34448D02*
X60284Y-34589D01*
X60162Y-34589D01*
X61499Y-32209D02*
X61509Y-32199D01*
X61518Y-32171D01*
X61518Y-32152D01*
X61509Y-32124D01*
X61490Y-32106D01*
X61471Y-32096D01*
X61434Y-32087D01*
X61406Y-32087D01*
X61368Y-32096D01*
X61349Y-32106D01*
X61331Y-32124D01*
X61321Y-32152D01*
X61321Y-32171D01*
X61331Y-32199D01*
X61340Y-32209D01*
X61518Y-32396D02*
X61518Y-32284D01*
X61518Y-32340D02*
X61321Y-32340D01*
X61349Y-32321D01*
X61368Y-32302D01*
X61378Y-32284D01*
X61233Y-32195D02*
X61243Y-32185D01*
X61252Y-32157D01*
X61252Y-32138D01*
X61243Y-32110D01*
X61224Y-32092D01*
X61205Y-32082D01*
X61168Y-32073D01*
X61140Y-32073D01*
X61102Y-32082D01*
X61083Y-32092D01*
X61065Y-32110D01*
X61055Y-32138D01*
X61055Y-32157D01*
X61065Y-32185D01*
X61074Y-32195D01*
X61074Y-32270D02*
X61065Y-32279D01*
X61055Y-32298D01*
X61055Y-32345D01*
X61065Y-32363D01*
X61074Y-32373D01*
X61093Y-32382D01*
X61112Y-32382D01*
X61140Y-32373D01*
X61252Y-32260D01*
X61252Y-32382D01*
G54D20*
X61709Y-33126D02*
X61774Y-33126D01*
X61774Y-33229D02*
X61774Y-33032D01*
X61680Y-33032D01*
X61540Y-33126D02*
X61512Y-33135D01*
X61502Y-33145D01*
X61493Y-33164D01*
X61493Y-33192D01*
X61502Y-33210D01*
X61512Y-33220D01*
X61530Y-33229D01*
X61605Y-33229D01*
X61605Y-33032D01*
X61540Y-33032D01*
X61521Y-33042D01*
X61512Y-33051D01*
X61502Y-33070D01*
X61502Y-33089D01*
X61512Y-33107D01*
X61521Y-33117D01*
X61540Y-33126D01*
X61605Y-33126D01*
X61305Y-33229D02*
X61418Y-33229D01*
X61362Y-33229D02*
X61362Y-33032D01*
X61380Y-33060D01*
X61399Y-33079D01*
X61418Y-33089D01*
X61679Y-33441D02*
X61744Y-33441D01*
X61744Y-33544D02*
X61744Y-33347D01*
X61650Y-33347D01*
X61510Y-33441D02*
X61482Y-33450D01*
X61472Y-33460D01*
X61463Y-33479D01*
X61463Y-33507D01*
X61472Y-33525D01*
X61482Y-33535D01*
X61500Y-33544D01*
X61575Y-33544D01*
X61575Y-33347D01*
X61510Y-33347D01*
X61491Y-33357D01*
X61482Y-33366D01*
X61472Y-33385D01*
X61472Y-33404D01*
X61482Y-33422D01*
X61491Y-33432D01*
X61510Y-33441D01*
X61575Y-33441D01*
X61388Y-33366D02*
X61379Y-33357D01*
X61360Y-33347D01*
X61313Y-33347D01*
X61294Y-33357D01*
X61285Y-33366D01*
X61275Y-33385D01*
X61275Y-33404D01*
X61285Y-33432D01*
X61397Y-33544D01*
X61275Y-33544D01*
G54D21*
X60380Y-32447D02*
X60390Y-32437D01*
X60399Y-32409D01*
X60399Y-32390D01*
X60390Y-32362D01*
X60371Y-32344D01*
X60352Y-32334D01*
X60315Y-32325D01*
X60287Y-32325D01*
X60249Y-32334D01*
X60230Y-32344D01*
X60212Y-32362D01*
X60202Y-32390D01*
X60202Y-32409D01*
X60212Y-32437D01*
X60221Y-32447D01*
X60268Y-32615D02*
X60399Y-32615D01*
X60193Y-32569D02*
X60334Y-32522D01*
X60334Y-32644D01*
X61146Y-31229D02*
X61212Y-31135D01*
X61259Y-31229D02*
X61259Y-31032D01*
X61184Y-31032D01*
X61165Y-31042D01*
X61155Y-31051D01*
X61146Y-31070D01*
X61146Y-31098D01*
X61155Y-31117D01*
X61165Y-31126D01*
X61184Y-31135D01*
X61259Y-31135D01*
X61052Y-31229D02*
X61015Y-31229D01*
X60996Y-31220D01*
X60987Y-31210D01*
X60968Y-31182D01*
X60959Y-31145D01*
X60959Y-31070D01*
X60968Y-31051D01*
X60977Y-31042D01*
X60996Y-31032D01*
X61034Y-31032D01*
X61052Y-31042D01*
X61062Y-31051D01*
X61071Y-31070D01*
X61071Y-31117D01*
X61062Y-31135D01*
X61052Y-31145D01*
X61034Y-31154D01*
X60996Y-31154D01*
X60977Y-31145D01*
X60968Y-31135D01*
X60959Y-31117D01*
X60893Y-31032D02*
X60762Y-31032D01*
X60846Y-31229D01*
X58546Y-31339D02*
X58612Y-31245D01*
X58659Y-31339D02*
X58659Y-31142D01*
X58584Y-31142D01*
X58565Y-31152D01*
X58555Y-31161D01*
X58546Y-31180D01*
X58546Y-31208D01*
X58555Y-31227D01*
X58565Y-31236D01*
X58584Y-31245D01*
X58659Y-31245D01*
X58452Y-31339D02*
X58415Y-31339D01*
X58396Y-31330D01*
X58387Y-31320D01*
X58368Y-31292D01*
X58359Y-31255D01*
X58359Y-31180D01*
X58368Y-31161D01*
X58377Y-31152D01*
X58396Y-31142D01*
X58434Y-31142D01*
X58452Y-31152D01*
X58462Y-31161D01*
X58471Y-31180D01*
X58471Y-31227D01*
X58462Y-31245D01*
X58452Y-31255D01*
X58434Y-31264D01*
X58396Y-31264D01*
X58377Y-31255D01*
X58368Y-31245D01*
X58359Y-31227D01*
X58190Y-31208D02*
X58190Y-31339D01*
X58237Y-31133D02*
X58284Y-31274D01*
X58162Y-31274D01*
X61317Y-30746D02*
X61383Y-30746D01*
X61383Y-30849D02*
X61383Y-30652D01*
X61289Y-30652D01*
X61149Y-30746D02*
X61120Y-30755D01*
X61111Y-30765D01*
X61102Y-30784D01*
X61102Y-30812D01*
X61111Y-30830D01*
X61120Y-30840D01*
X61139Y-30849D01*
X61214Y-30849D01*
X61214Y-30652D01*
X61149Y-30652D01*
X61130Y-30662D01*
X61120Y-30671D01*
X61111Y-30690D01*
X61111Y-30709D01*
X61120Y-30727D01*
X61130Y-30737D01*
X61149Y-30746D01*
X61214Y-30746D01*
X61027Y-30671D02*
X61017Y-30662D01*
X60999Y-30652D01*
X60952Y-30652D01*
X60933Y-30662D01*
X60924Y-30671D01*
X60914Y-30690D01*
X60914Y-30709D01*
X60924Y-30737D01*
X61036Y-30849D01*
X60914Y-30849D01*
X60802Y-30737D02*
X60820Y-30727D01*
X60830Y-30718D01*
X60839Y-30699D01*
X60839Y-30690D01*
X60830Y-30671D01*
X60820Y-30662D01*
X60802Y-30652D01*
X60764Y-30652D01*
X60745Y-30662D01*
X60736Y-30671D01*
X60727Y-30690D01*
X60727Y-30699D01*
X60736Y-30718D01*
X60745Y-30727D01*
X60764Y-30737D01*
X60802Y-30737D01*
X60820Y-30746D01*
X60830Y-30755D01*
X60839Y-30774D01*
X60839Y-30812D01*
X60830Y-30830D01*
X60820Y-30840D01*
X60802Y-30849D01*
X60764Y-30849D01*
X60745Y-30840D01*
X60736Y-30830D01*
X60727Y-30812D01*
X60727Y-30774D01*
X60736Y-30755D01*
X60745Y-30746D01*
X60764Y-30737D01*
X58597Y-30906D02*
X58663Y-30906D01*
X58663Y-31009D02*
X58663Y-30812D01*
X58569Y-30812D01*
X58429Y-30906D02*
X58400Y-30915D01*
X58391Y-30925D01*
X58382Y-30944D01*
X58382Y-30972D01*
X58391Y-30990D01*
X58400Y-31000D01*
X58419Y-31009D01*
X58494Y-31009D01*
X58494Y-30812D01*
X58429Y-30812D01*
X58410Y-30822D01*
X58400Y-30831D01*
X58391Y-30850D01*
X58391Y-30869D01*
X58400Y-30887D01*
X58410Y-30897D01*
X58429Y-30906D01*
X58494Y-30906D01*
X58307Y-30831D02*
X58297Y-30822D01*
X58279Y-30812D01*
X58232Y-30812D01*
X58213Y-30822D01*
X58204Y-30831D01*
X58194Y-30850D01*
X58194Y-30869D01*
X58204Y-30897D01*
X58316Y-31009D01*
X58194Y-31009D01*
X58016Y-30812D02*
X58110Y-30812D01*
X58119Y-30906D01*
X58110Y-30897D01*
X58091Y-30887D01*
X58044Y-30887D01*
X58025Y-30897D01*
X58016Y-30906D01*
X58007Y-30925D01*
X58007Y-30972D01*
X58016Y-30990D01*
X58025Y-31000D01*
X58044Y-31009D01*
X58091Y-31009D01*
X58110Y-31000D01*
X58119Y-30990D01*
X60435Y-30169D02*
X60445Y-30160D01*
X60454Y-30132D01*
X60454Y-30113D01*
X60445Y-30085D01*
X60426Y-30066D01*
X60407Y-30057D01*
X60370Y-30047D01*
X60342Y-30047D01*
X60304Y-30057D01*
X60285Y-30066D01*
X60267Y-30085D01*
X60257Y-30113D01*
X60257Y-30132D01*
X60267Y-30160D01*
X60276Y-30169D01*
X60454Y-30357D02*
X60454Y-30244D01*
X60454Y-30300D02*
X60257Y-30300D01*
X60285Y-30282D01*
X60304Y-30263D01*
X60314Y-30244D01*
X60323Y-30525D02*
X60454Y-30525D01*
X60248Y-30479D02*
X60389Y-30432D01*
X60389Y-30554D01*
X60257Y-30713D02*
X60257Y-30675D01*
X60267Y-30657D01*
X60276Y-30647D01*
X60304Y-30629D01*
X60342Y-30619D01*
X60417Y-30619D01*
X60435Y-30629D01*
X60445Y-30638D01*
X60454Y-30657D01*
X60454Y-30694D01*
X60445Y-30713D01*
X60435Y-30722D01*
X60417Y-30732D01*
X60370Y-30732D01*
X60351Y-30722D01*
X60342Y-30713D01*
X60332Y-30694D01*
X60332Y-30657D01*
X60342Y-30638D01*
X60351Y-30629D01*
X60370Y-30619D01*
X60150Y-30154D02*
X60160Y-30145D01*
X60169Y-30117D01*
X60169Y-30098D01*
X60160Y-30070D01*
X60141Y-30051D01*
X60122Y-30042D01*
X60085Y-30032D01*
X60057Y-30032D01*
X60019Y-30042D01*
X60000Y-30051D01*
X59982Y-30070D01*
X59972Y-30098D01*
X59972Y-30117D01*
X59982Y-30145D01*
X59991Y-30154D01*
X60169Y-30342D02*
X60169Y-30229D01*
X60169Y-30285D02*
X59972Y-30285D01*
X60000Y-30267D01*
X60019Y-30248D01*
X60029Y-30229D01*
X59972Y-30407D02*
X59972Y-30529D01*
X60047Y-30464D01*
X60047Y-30492D01*
X60057Y-30510D01*
X60066Y-30520D01*
X60085Y-30529D01*
X60132Y-30529D01*
X60150Y-30520D01*
X60160Y-30510D01*
X60169Y-30492D01*
X60169Y-30435D01*
X60160Y-30417D01*
X60150Y-30407D01*
X60038Y-30698D02*
X60169Y-30698D01*
X59963Y-30651D02*
X60104Y-30604D01*
X60104Y-30726D01*
X53259Y-36943D02*
X53165Y-36877D01*
X53259Y-36830D02*
X53062Y-36830D01*
X53062Y-36905D01*
X53071Y-36924D01*
X53081Y-36933D01*
X53100Y-36943D01*
X53128Y-36943D01*
X53146Y-36933D01*
X53156Y-36924D01*
X53165Y-36905D01*
X53165Y-36830D01*
X53081Y-37018D02*
X53071Y-37027D01*
X53062Y-37046D01*
X53062Y-37093D01*
X53071Y-37111D01*
X53081Y-37121D01*
X53100Y-37130D01*
X53118Y-37130D01*
X53146Y-37121D01*
X53259Y-37008D01*
X53259Y-37130D01*
X53292Y-37799D02*
X53301Y-37808D01*
X53330Y-37817D01*
X53348Y-37817D01*
X53376Y-37808D01*
X53395Y-37789D01*
X53405Y-37771D01*
X53414Y-37733D01*
X53414Y-37705D01*
X53405Y-37667D01*
X53395Y-37649D01*
X53376Y-37630D01*
X53348Y-37621D01*
X53330Y-37621D01*
X53301Y-37630D01*
X53292Y-37639D01*
X53123Y-37621D02*
X53161Y-37621D01*
X53180Y-37630D01*
X53189Y-37639D01*
X53208Y-37667D01*
X53217Y-37705D01*
X53217Y-37780D01*
X53208Y-37799D01*
X53198Y-37808D01*
X53180Y-37817D01*
X53142Y-37817D01*
X53123Y-37808D01*
X53114Y-37799D01*
X53105Y-37780D01*
X53105Y-37733D01*
X53114Y-37714D01*
X53123Y-37705D01*
X53142Y-37696D01*
X53180Y-37696D01*
X53198Y-37705D01*
X53208Y-37714D01*
X53217Y-37733D01*
X52851Y-37706D02*
X52917Y-37706D01*
X52917Y-37809D02*
X52917Y-37613D01*
X52823Y-37613D01*
X52683Y-37706D02*
X52654Y-37716D01*
X52645Y-37725D01*
X52636Y-37744D01*
X52636Y-37772D01*
X52645Y-37791D01*
X52654Y-37800D01*
X52673Y-37809D01*
X52748Y-37809D01*
X52748Y-37613D01*
X52683Y-37613D01*
X52664Y-37622D01*
X52654Y-37631D01*
X52645Y-37650D01*
X52645Y-37669D01*
X52654Y-37688D01*
X52664Y-37697D01*
X52683Y-37706D01*
X52748Y-37706D01*
X52570Y-37613D02*
X52439Y-37613D01*
X52523Y-37809D01*
X52838Y-39025D02*
X52847Y-39034D01*
X52875Y-39043D01*
X52894Y-39043D01*
X52922Y-39034D01*
X52941Y-39015D01*
X52950Y-38997D01*
X52960Y-38959D01*
X52960Y-38931D01*
X52950Y-38893D01*
X52941Y-38875D01*
X52922Y-38856D01*
X52894Y-38847D01*
X52875Y-38847D01*
X52847Y-38856D01*
X52838Y-38865D01*
X52650Y-39043D02*
X52763Y-39043D01*
X52707Y-39043D02*
X52707Y-38847D01*
X52725Y-38875D01*
X52744Y-38893D01*
X52763Y-38903D01*
X52575Y-38865D02*
X52566Y-38856D01*
X52547Y-38847D01*
X52500Y-38847D01*
X52482Y-38856D01*
X52472Y-38865D01*
X52463Y-38884D01*
X52463Y-38903D01*
X52472Y-38931D01*
X52585Y-39043D01*
X52463Y-39043D01*
G54D20*
X52606Y-38325D02*
X52672Y-38325D01*
X52672Y-38428D02*
X52672Y-38232D01*
X52578Y-38232D01*
X52437Y-38325D02*
X52409Y-38335D01*
X52400Y-38344D01*
X52390Y-38363D01*
X52390Y-38391D01*
X52400Y-38410D01*
X52409Y-38419D01*
X52428Y-38428D01*
X52503Y-38428D01*
X52503Y-38232D01*
X52437Y-38232D01*
X52419Y-38241D01*
X52409Y-38250D01*
X52400Y-38269D01*
X52400Y-38288D01*
X52409Y-38307D01*
X52419Y-38316D01*
X52437Y-38325D01*
X52503Y-38325D01*
X52203Y-38428D02*
X52315Y-38428D01*
X52259Y-38428D02*
X52259Y-38232D01*
X52278Y-38260D01*
X52297Y-38278D01*
X52315Y-38288D01*
X52016Y-38428D02*
X52128Y-38428D01*
X52072Y-38428D02*
X52072Y-38232D01*
X52091Y-38260D01*
X52109Y-38278D01*
X52128Y-38288D01*
G54D21*
X48350Y-39697D02*
X48360Y-39687D01*
X48369Y-39659D01*
X48369Y-39640D01*
X48360Y-39612D01*
X48341Y-39594D01*
X48322Y-39584D01*
X48285Y-39575D01*
X48257Y-39575D01*
X48219Y-39584D01*
X48200Y-39594D01*
X48182Y-39612D01*
X48172Y-39640D01*
X48172Y-39659D01*
X48182Y-39687D01*
X48191Y-39697D01*
X48369Y-39790D02*
X48369Y-39828D01*
X48360Y-39847D01*
X48350Y-39856D01*
X48322Y-39875D01*
X48285Y-39884D01*
X48210Y-39884D01*
X48191Y-39875D01*
X48182Y-39865D01*
X48172Y-39847D01*
X48172Y-39809D01*
X48182Y-39790D01*
X48191Y-39781D01*
X48210Y-39772D01*
X48257Y-39772D01*
X48275Y-39781D01*
X48285Y-39790D01*
X48294Y-39809D01*
X48294Y-39847D01*
X48285Y-39865D01*
X48275Y-39875D01*
X48257Y-39884D01*
X48040Y-39717D02*
X48050Y-39707D01*
X48059Y-39679D01*
X48059Y-39660D01*
X48050Y-39632D01*
X48031Y-39614D01*
X48012Y-39604D01*
X47975Y-39595D01*
X47947Y-39595D01*
X47909Y-39604D01*
X47890Y-39614D01*
X47872Y-39632D01*
X47862Y-39660D01*
X47862Y-39679D01*
X47872Y-39707D01*
X47881Y-39717D01*
X47862Y-39782D02*
X47862Y-39914D01*
X48059Y-39829D01*
X48774Y-40546D02*
X48839Y-40546D01*
X48839Y-40649D02*
X48839Y-40452D01*
X48745Y-40452D01*
X48605Y-40546D02*
X48577Y-40555D01*
X48567Y-40565D01*
X48558Y-40584D01*
X48558Y-40612D01*
X48567Y-40630D01*
X48577Y-40640D01*
X48595Y-40649D01*
X48670Y-40649D01*
X48670Y-40452D01*
X48605Y-40452D01*
X48586Y-40462D01*
X48577Y-40471D01*
X48567Y-40490D01*
X48567Y-40509D01*
X48577Y-40527D01*
X48586Y-40537D01*
X48605Y-40546D01*
X48670Y-40546D01*
X48389Y-40452D02*
X48427Y-40452D01*
X48445Y-40462D01*
X48455Y-40471D01*
X48474Y-40499D01*
X48483Y-40537D01*
X48483Y-40612D01*
X48474Y-40630D01*
X48464Y-40640D01*
X48445Y-40649D01*
X48408Y-40649D01*
X48389Y-40640D01*
X48380Y-40630D01*
X48370Y-40612D01*
X48370Y-40565D01*
X48380Y-40546D01*
X48389Y-40537D01*
X48408Y-40527D01*
X48445Y-40527D01*
X48464Y-40537D01*
X48474Y-40546D01*
X48483Y-40565D01*
X49815Y-39668D02*
X49825Y-39659D01*
X49834Y-39630D01*
X49834Y-39612D01*
X49825Y-39584D01*
X49806Y-39565D01*
X49787Y-39555D01*
X49750Y-39546D01*
X49722Y-39546D01*
X49684Y-39555D01*
X49665Y-39565D01*
X49647Y-39584D01*
X49637Y-39612D01*
X49637Y-39630D01*
X49647Y-39659D01*
X49656Y-39668D01*
X49834Y-39855D02*
X49834Y-39743D01*
X49834Y-39799D02*
X49637Y-39799D01*
X49665Y-39780D01*
X49684Y-39762D01*
X49694Y-39743D01*
X49637Y-40024D02*
X49637Y-39987D01*
X49647Y-39968D01*
X49656Y-39959D01*
X49684Y-39940D01*
X49722Y-39930D01*
X49797Y-39930D01*
X49815Y-39940D01*
X49825Y-39949D01*
X49834Y-39968D01*
X49834Y-40005D01*
X49825Y-40024D01*
X49815Y-40034D01*
X49797Y-40043D01*
X49750Y-40043D01*
X49731Y-40034D01*
X49722Y-40024D01*
X49712Y-40005D01*
X49712Y-39968D01*
X49722Y-39949D01*
X49731Y-39940D01*
X49750Y-39930D01*
X49515Y-39668D02*
X49525Y-39659D01*
X49534Y-39630D01*
X49534Y-39612D01*
X49525Y-39584D01*
X49506Y-39565D01*
X49487Y-39555D01*
X49450Y-39546D01*
X49422Y-39546D01*
X49384Y-39555D01*
X49365Y-39565D01*
X49347Y-39584D01*
X49337Y-39612D01*
X49337Y-39630D01*
X49347Y-39659D01*
X49356Y-39668D01*
X49534Y-39855D02*
X49534Y-39743D01*
X49534Y-39799D02*
X49337Y-39799D01*
X49365Y-39780D01*
X49384Y-39762D01*
X49394Y-39743D01*
X49534Y-39949D02*
X49534Y-39987D01*
X49525Y-40005D01*
X49515Y-40015D01*
X49487Y-40034D01*
X49450Y-40043D01*
X49375Y-40043D01*
X49356Y-40034D01*
X49347Y-40024D01*
X49337Y-40005D01*
X49337Y-39968D01*
X49347Y-39949D01*
X49356Y-39940D01*
X49375Y-39930D01*
X49422Y-39930D01*
X49440Y-39940D01*
X49450Y-39949D01*
X49459Y-39968D01*
X49459Y-40005D01*
X49450Y-40024D01*
X49440Y-40034D01*
X49422Y-40043D01*
X49215Y-39668D02*
X49225Y-39659D01*
X49234Y-39630D01*
X49234Y-39612D01*
X49225Y-39584D01*
X49206Y-39565D01*
X49187Y-39555D01*
X49150Y-39546D01*
X49122Y-39546D01*
X49084Y-39555D01*
X49065Y-39565D01*
X49047Y-39584D01*
X49037Y-39612D01*
X49037Y-39630D01*
X49047Y-39659D01*
X49056Y-39668D01*
X49056Y-39743D02*
X49047Y-39752D01*
X49037Y-39771D01*
X49037Y-39818D01*
X49047Y-39837D01*
X49056Y-39846D01*
X49075Y-39855D01*
X49094Y-39855D01*
X49122Y-39846D01*
X49234Y-39734D01*
X49234Y-39855D01*
X49056Y-39930D02*
X49047Y-39940D01*
X49037Y-39959D01*
X49037Y-40005D01*
X49047Y-40024D01*
X49056Y-40034D01*
X49075Y-40043D01*
X49094Y-40043D01*
X49122Y-40034D01*
X49234Y-39921D01*
X49234Y-40043D01*
X48910Y-39663D02*
X48920Y-39654D01*
X48929Y-39625D01*
X48929Y-39607D01*
X48920Y-39579D01*
X48901Y-39560D01*
X48882Y-39550D01*
X48845Y-39541D01*
X48817Y-39541D01*
X48779Y-39550D01*
X48760Y-39560D01*
X48742Y-39579D01*
X48732Y-39607D01*
X48732Y-39625D01*
X48742Y-39654D01*
X48751Y-39663D01*
X48751Y-39738D02*
X48742Y-39747D01*
X48732Y-39766D01*
X48732Y-39813D01*
X48742Y-39832D01*
X48751Y-39841D01*
X48770Y-39850D01*
X48789Y-39850D01*
X48817Y-39841D01*
X48929Y-39729D01*
X48929Y-39850D01*
X48732Y-40029D02*
X48732Y-39935D01*
X48826Y-39925D01*
X48817Y-39935D01*
X48807Y-39954D01*
X48807Y-40000D01*
X48817Y-40019D01*
X48826Y-40029D01*
X48845Y-40038D01*
X48892Y-40038D01*
X48910Y-40029D01*
X48920Y-40019D01*
X48929Y-40000D01*
X48929Y-39954D01*
X48920Y-39935D01*
X48910Y-39925D01*
G54D20*
X50077Y-40926D02*
X50143Y-40926D01*
X50143Y-41029D02*
X50143Y-40832D01*
X50049Y-40832D01*
X49909Y-40926D02*
X49880Y-40935D01*
X49871Y-40945D01*
X49862Y-40964D01*
X49862Y-40992D01*
X49871Y-41010D01*
X49880Y-41020D01*
X49899Y-41029D01*
X49974Y-41029D01*
X49974Y-40832D01*
X49909Y-40832D01*
X49890Y-40842D01*
X49880Y-40851D01*
X49871Y-40870D01*
X49871Y-40889D01*
X49880Y-40907D01*
X49890Y-40917D01*
X49909Y-40926D01*
X49974Y-40926D01*
X49674Y-41029D02*
X49787Y-41029D01*
X49730Y-41029D02*
X49730Y-40832D01*
X49749Y-40860D01*
X49768Y-40879D01*
X49787Y-40889D01*
X49609Y-40832D02*
X49487Y-40832D01*
X49552Y-40907D01*
X49524Y-40907D01*
X49505Y-40917D01*
X49496Y-40926D01*
X49487Y-40945D01*
X49487Y-40992D01*
X49496Y-41010D01*
X49505Y-41020D01*
X49524Y-41029D01*
X49580Y-41029D01*
X49599Y-41020D01*
X49609Y-41010D01*
X50087Y-40266D02*
X50153Y-40266D01*
X50153Y-40369D02*
X50153Y-40172D01*
X50059Y-40172D01*
X49919Y-40266D02*
X49890Y-40275D01*
X49881Y-40285D01*
X49872Y-40304D01*
X49872Y-40332D01*
X49881Y-40350D01*
X49890Y-40360D01*
X49909Y-40369D01*
X49984Y-40369D01*
X49984Y-40172D01*
X49919Y-40172D01*
X49900Y-40182D01*
X49890Y-40191D01*
X49881Y-40210D01*
X49881Y-40229D01*
X49890Y-40247D01*
X49900Y-40257D01*
X49919Y-40266D01*
X49984Y-40266D01*
X49684Y-40369D02*
X49797Y-40369D01*
X49740Y-40369D02*
X49740Y-40172D01*
X49759Y-40200D01*
X49778Y-40219D01*
X49797Y-40229D01*
X49506Y-40172D02*
X49600Y-40172D01*
X49609Y-40266D01*
X49600Y-40257D01*
X49581Y-40247D01*
X49534Y-40247D01*
X49515Y-40257D01*
X49506Y-40266D01*
X49497Y-40285D01*
X49497Y-40332D01*
X49506Y-40350D01*
X49515Y-40360D01*
X49534Y-40369D01*
X49581Y-40369D01*
X49600Y-40360D01*
X49609Y-40350D01*
X50087Y-40596D02*
X50153Y-40596D01*
X50153Y-40699D02*
X50153Y-40502D01*
X50059Y-40502D01*
X49919Y-40596D02*
X49890Y-40605D01*
X49881Y-40615D01*
X49872Y-40634D01*
X49872Y-40662D01*
X49881Y-40680D01*
X49890Y-40690D01*
X49909Y-40699D01*
X49984Y-40699D01*
X49984Y-40502D01*
X49919Y-40502D01*
X49900Y-40512D01*
X49890Y-40521D01*
X49881Y-40540D01*
X49881Y-40559D01*
X49890Y-40577D01*
X49900Y-40587D01*
X49919Y-40596D01*
X49984Y-40596D01*
X49684Y-40699D02*
X49797Y-40699D01*
X49740Y-40699D02*
X49740Y-40502D01*
X49759Y-40530D01*
X49778Y-40549D01*
X49797Y-40559D01*
X49515Y-40568D02*
X49515Y-40699D01*
X49562Y-40493D02*
X49609Y-40634D01*
X49487Y-40634D01*
G54D21*
X49929Y-41503D02*
X49929Y-41409D01*
X49732Y-41409D01*
X49929Y-41672D02*
X49929Y-41559D01*
X49929Y-41615D02*
X49732Y-41615D01*
X49760Y-41597D01*
X49779Y-41578D01*
X49789Y-41559D01*
X49732Y-41794D02*
X49732Y-41812D01*
X49742Y-41831D01*
X49751Y-41840D01*
X49770Y-41850D01*
X49807Y-41859D01*
X49854Y-41859D01*
X49892Y-41850D01*
X49910Y-41840D01*
X49920Y-41831D01*
X49929Y-41812D01*
X49929Y-41794D01*
X49920Y-41775D01*
X49910Y-41765D01*
X49892Y-41756D01*
X49854Y-41747D01*
X49807Y-41747D01*
X49770Y-41756D01*
X49751Y-41765D01*
X49742Y-41775D01*
X49732Y-41794D01*
X49559Y-41597D02*
X49559Y-41503D01*
X49362Y-41503D01*
X49362Y-41747D02*
X49362Y-41709D01*
X49372Y-41690D01*
X49381Y-41681D01*
X49409Y-41662D01*
X49447Y-41653D01*
X49522Y-41653D01*
X49540Y-41662D01*
X49550Y-41672D01*
X49559Y-41690D01*
X49559Y-41728D01*
X49550Y-41747D01*
X49540Y-41756D01*
X49522Y-41765D01*
X49475Y-41765D01*
X49456Y-41756D01*
X49447Y-41747D01*
X49437Y-41728D01*
X49437Y-41690D01*
X49447Y-41672D01*
X49456Y-41662D01*
X49475Y-41653D01*
X48779Y-41567D02*
X48779Y-41473D01*
X48582Y-41473D01*
X48582Y-41726D02*
X48582Y-41632D01*
X48676Y-41623D01*
X48667Y-41632D01*
X48657Y-41651D01*
X48657Y-41698D01*
X48667Y-41717D01*
X48676Y-41726D01*
X48695Y-41735D01*
X48742Y-41735D01*
X48760Y-41726D01*
X48770Y-41717D01*
X48779Y-41698D01*
X48779Y-41651D01*
X48770Y-41632D01*
X48760Y-41623D01*
X49129Y-41587D02*
X49129Y-41493D01*
X48932Y-41493D01*
X49129Y-41662D02*
X49129Y-41699D01*
X49120Y-41718D01*
X49110Y-41727D01*
X49082Y-41746D01*
X49045Y-41755D01*
X48970Y-41755D01*
X48951Y-41746D01*
X48942Y-41737D01*
X48932Y-41718D01*
X48932Y-41680D01*
X48942Y-41662D01*
X48951Y-41652D01*
X48970Y-41643D01*
X49017Y-41643D01*
X49035Y-41652D01*
X49045Y-41662D01*
X49054Y-41680D01*
X49054Y-41718D01*
X49045Y-41737D01*
X49035Y-41746D01*
X49017Y-41755D01*
X49610Y-42229D02*
X49620Y-42220D01*
X49629Y-42192D01*
X49629Y-42173D01*
X49620Y-42145D01*
X49601Y-42126D01*
X49582Y-42117D01*
X49545Y-42107D01*
X49517Y-42107D01*
X49479Y-42117D01*
X49460Y-42126D01*
X49442Y-42145D01*
X49432Y-42173D01*
X49432Y-42192D01*
X49442Y-42220D01*
X49451Y-42229D01*
X49629Y-42417D02*
X49629Y-42304D01*
X49629Y-42360D02*
X49432Y-42360D01*
X49460Y-42342D01*
X49479Y-42323D01*
X49489Y-42304D01*
X49432Y-42482D02*
X49432Y-42604D01*
X49507Y-42539D01*
X49507Y-42567D01*
X49517Y-42585D01*
X49526Y-42595D01*
X49545Y-42604D01*
X49592Y-42604D01*
X49610Y-42595D01*
X49620Y-42585D01*
X49629Y-42567D01*
X49629Y-42510D01*
X49620Y-42492D01*
X49610Y-42482D01*
X49451Y-42679D02*
X49442Y-42689D01*
X49432Y-42707D01*
X49432Y-42754D01*
X49442Y-42773D01*
X49451Y-42782D01*
X49470Y-42792D01*
X49489Y-42792D01*
X49517Y-42782D01*
X49629Y-42670D01*
X49629Y-42792D01*
X48610Y-42219D02*
X48620Y-42210D01*
X48629Y-42182D01*
X48629Y-42163D01*
X48620Y-42135D01*
X48601Y-42116D01*
X48582Y-42107D01*
X48545Y-42097D01*
X48517Y-42097D01*
X48479Y-42107D01*
X48460Y-42116D01*
X48442Y-42135D01*
X48432Y-42163D01*
X48432Y-42182D01*
X48442Y-42210D01*
X48451Y-42219D01*
X48629Y-42407D02*
X48629Y-42294D01*
X48629Y-42350D02*
X48432Y-42350D01*
X48460Y-42332D01*
X48479Y-42313D01*
X48489Y-42294D01*
X48432Y-42472D02*
X48432Y-42594D01*
X48507Y-42529D01*
X48507Y-42557D01*
X48517Y-42575D01*
X48526Y-42585D01*
X48545Y-42594D01*
X48592Y-42594D01*
X48610Y-42585D01*
X48620Y-42575D01*
X48629Y-42557D01*
X48629Y-42500D01*
X48620Y-42482D01*
X48610Y-42472D01*
X48629Y-42782D02*
X48629Y-42669D01*
X48629Y-42725D02*
X48432Y-42725D01*
X48460Y-42707D01*
X48479Y-42688D01*
X48489Y-42669D01*
X50308Y-45319D02*
X50373Y-45226D01*
X50420Y-45319D02*
X50420Y-45123D01*
X50345Y-45123D01*
X50327Y-45132D01*
X50317Y-45141D01*
X50308Y-45160D01*
X50308Y-45188D01*
X50317Y-45207D01*
X50327Y-45216D01*
X50345Y-45226D01*
X50420Y-45226D01*
X50214Y-45319D02*
X50177Y-45319D01*
X50158Y-45310D01*
X50148Y-45301D01*
X50130Y-45273D01*
X50120Y-45235D01*
X50120Y-45160D01*
X50130Y-45141D01*
X50139Y-45132D01*
X50158Y-45123D01*
X50195Y-45123D01*
X50214Y-45132D01*
X50223Y-45141D01*
X50233Y-45160D01*
X50233Y-45207D01*
X50223Y-45226D01*
X50214Y-45235D01*
X50195Y-45244D01*
X50158Y-45244D01*
X50139Y-45235D01*
X50130Y-45226D01*
X50120Y-45207D01*
X49952Y-45123D02*
X49989Y-45123D01*
X50008Y-45132D01*
X50017Y-45141D01*
X50036Y-45169D01*
X50045Y-45207D01*
X50045Y-45282D01*
X50036Y-45301D01*
X50027Y-45310D01*
X50008Y-45319D01*
X49970Y-45319D01*
X49952Y-45310D01*
X49942Y-45301D01*
X49933Y-45282D01*
X49933Y-45235D01*
X49942Y-45216D01*
X49952Y-45207D01*
X49970Y-45198D01*
X50008Y-45198D01*
X50027Y-45207D01*
X50036Y-45216D01*
X50045Y-45235D01*
X46931Y-45322D02*
X46996Y-45229D01*
X47043Y-45322D02*
X47043Y-45126D01*
X46968Y-45126D01*
X46950Y-45135D01*
X46940Y-45144D01*
X46931Y-45163D01*
X46931Y-45191D01*
X46940Y-45210D01*
X46950Y-45219D01*
X46968Y-45229D01*
X47043Y-45229D01*
X46837Y-45322D02*
X46800Y-45322D01*
X46781Y-45313D01*
X46771Y-45304D01*
X46753Y-45276D01*
X46743Y-45238D01*
X46743Y-45163D01*
X46753Y-45144D01*
X46762Y-45135D01*
X46781Y-45126D01*
X46818Y-45126D01*
X46837Y-45135D01*
X46846Y-45144D01*
X46856Y-45163D01*
X46856Y-45210D01*
X46846Y-45229D01*
X46837Y-45238D01*
X46818Y-45247D01*
X46781Y-45247D01*
X46762Y-45238D01*
X46753Y-45229D01*
X46743Y-45210D01*
X46565Y-45126D02*
X46659Y-45126D01*
X46668Y-45219D01*
X46659Y-45210D01*
X46640Y-45201D01*
X46593Y-45201D01*
X46575Y-45210D01*
X46565Y-45219D01*
X46556Y-45238D01*
X46556Y-45285D01*
X46565Y-45304D01*
X46575Y-45313D01*
X46593Y-45322D01*
X46640Y-45322D01*
X46659Y-45313D01*
X46668Y-45304D01*
X50697Y-42176D02*
X50763Y-42176D01*
X50763Y-42279D02*
X50763Y-42082D01*
X50669Y-42082D01*
X50529Y-42176D02*
X50500Y-42185D01*
X50491Y-42195D01*
X50482Y-42214D01*
X50482Y-42242D01*
X50491Y-42260D01*
X50500Y-42270D01*
X50519Y-42279D01*
X50594Y-42279D01*
X50594Y-42082D01*
X50529Y-42082D01*
X50510Y-42092D01*
X50500Y-42101D01*
X50491Y-42120D01*
X50491Y-42139D01*
X50500Y-42157D01*
X50510Y-42167D01*
X50529Y-42176D01*
X50594Y-42176D01*
X50407Y-42101D02*
X50397Y-42092D01*
X50379Y-42082D01*
X50332Y-42082D01*
X50313Y-42092D01*
X50304Y-42101D01*
X50294Y-42120D01*
X50294Y-42139D01*
X50304Y-42167D01*
X50416Y-42279D01*
X50294Y-42279D01*
X50229Y-42082D02*
X50097Y-42082D01*
X50182Y-42279D01*
X49920Y-42229D02*
X49930Y-42220D01*
X49939Y-42192D01*
X49939Y-42173D01*
X49930Y-42145D01*
X49911Y-42126D01*
X49892Y-42117D01*
X49855Y-42107D01*
X49827Y-42107D01*
X49789Y-42117D01*
X49770Y-42126D01*
X49752Y-42145D01*
X49742Y-42173D01*
X49742Y-42192D01*
X49752Y-42220D01*
X49761Y-42229D01*
X49939Y-42417D02*
X49939Y-42304D01*
X49939Y-42360D02*
X49742Y-42360D01*
X49770Y-42342D01*
X49789Y-42323D01*
X49799Y-42304D01*
X49808Y-42585D02*
X49939Y-42585D01*
X49733Y-42539D02*
X49874Y-42492D01*
X49874Y-42614D01*
X49761Y-42679D02*
X49752Y-42689D01*
X49742Y-42707D01*
X49742Y-42754D01*
X49752Y-42773D01*
X49761Y-42782D01*
X49780Y-42792D01*
X49799Y-42792D01*
X49827Y-42782D01*
X49939Y-42670D01*
X49939Y-42792D01*
X53349Y-38644D02*
X53358Y-38653D01*
X53387Y-38663D01*
X53405Y-38663D01*
X53433Y-38653D01*
X53452Y-38635D01*
X53462Y-38616D01*
X53471Y-38578D01*
X53471Y-38550D01*
X53462Y-38513D01*
X53452Y-38494D01*
X53433Y-38475D01*
X53405Y-38466D01*
X53387Y-38466D01*
X53358Y-38475D01*
X53349Y-38485D01*
X53162Y-38663D02*
X53274Y-38663D01*
X53218Y-38663D02*
X53218Y-38466D01*
X53237Y-38494D01*
X53255Y-38513D01*
X53274Y-38522D01*
X52983Y-38466D02*
X53077Y-38466D01*
X53087Y-38560D01*
X53077Y-38550D01*
X53058Y-38541D01*
X53012Y-38541D01*
X52993Y-38550D01*
X52983Y-38560D01*
X52974Y-38578D01*
X52974Y-38625D01*
X52983Y-38644D01*
X52993Y-38653D01*
X53012Y-38663D01*
X53058Y-38663D01*
X53077Y-38653D01*
X53087Y-38644D01*
X53784Y-39149D02*
X53793Y-39158D01*
X53821Y-39167D01*
X53840Y-39167D01*
X53868Y-39158D01*
X53887Y-39139D01*
X53896Y-39121D01*
X53906Y-39083D01*
X53906Y-39055D01*
X53896Y-39017D01*
X53887Y-38999D01*
X53868Y-38980D01*
X53840Y-38971D01*
X53821Y-38971D01*
X53793Y-38980D01*
X53784Y-38989D01*
X53596Y-39167D02*
X53709Y-39167D01*
X53653Y-39167D02*
X53653Y-38971D01*
X53671Y-38999D01*
X53690Y-39017D01*
X53709Y-39027D01*
X53531Y-38971D02*
X53400Y-38971D01*
X53484Y-39167D01*
X53128Y-39500D02*
X53194Y-39406D01*
X53241Y-39500D02*
X53241Y-39303D01*
X53166Y-39303D01*
X53147Y-39313D01*
X53137Y-39322D01*
X53128Y-39341D01*
X53128Y-39369D01*
X53137Y-39387D01*
X53147Y-39397D01*
X53166Y-39406D01*
X53241Y-39406D01*
X52941Y-39500D02*
X53053Y-39500D01*
X52997Y-39500D02*
X52997Y-39303D01*
X53016Y-39331D01*
X53034Y-39350D01*
X53053Y-39359D01*
G54D20*
X56126Y-38878D02*
X56135Y-38887D01*
X56163Y-38896D01*
X56182Y-38896D01*
X56210Y-38887D01*
X56229Y-38868D01*
X56238Y-38850D01*
X56248Y-38812D01*
X56248Y-38784D01*
X56238Y-38746D01*
X56229Y-38728D01*
X56210Y-38709D01*
X56182Y-38700D01*
X56163Y-38700D01*
X56135Y-38709D01*
X56126Y-38718D01*
X56051Y-38718D02*
X56041Y-38709D01*
X56023Y-38700D01*
X55976Y-38700D01*
X55957Y-38709D01*
X55948Y-38718D01*
X55938Y-38737D01*
X55938Y-38756D01*
X55948Y-38784D01*
X56060Y-38896D01*
X55938Y-38896D01*
X55751Y-38896D02*
X55863Y-38896D01*
X55807Y-38896D02*
X55807Y-38700D01*
X55826Y-38728D01*
X55845Y-38746D01*
X55863Y-38756D01*
G54D21*
X49276Y-41140D02*
X49285Y-41150D01*
X49314Y-41159D01*
X49332Y-41159D01*
X49360Y-41150D01*
X49379Y-41131D01*
X49389Y-41112D01*
X49398Y-41075D01*
X49398Y-41047D01*
X49389Y-41009D01*
X49379Y-40990D01*
X49360Y-40972D01*
X49332Y-40962D01*
X49314Y-40962D01*
X49285Y-40972D01*
X49276Y-40981D01*
X49201Y-40981D02*
X49192Y-40972D01*
X49173Y-40962D01*
X49126Y-40962D01*
X49107Y-40972D01*
X49098Y-40981D01*
X49089Y-41000D01*
X49089Y-41019D01*
X49098Y-41047D01*
X49210Y-41159D01*
X49089Y-41159D01*
X49023Y-40962D02*
X48892Y-40962D01*
X48976Y-41159D01*
X48940Y-42219D02*
X48950Y-42210D01*
X48959Y-42182D01*
X48959Y-42163D01*
X48950Y-42135D01*
X48931Y-42116D01*
X48912Y-42107D01*
X48875Y-42097D01*
X48847Y-42097D01*
X48809Y-42107D01*
X48790Y-42116D01*
X48772Y-42135D01*
X48762Y-42163D01*
X48762Y-42182D01*
X48772Y-42210D01*
X48781Y-42219D01*
X48959Y-42407D02*
X48959Y-42294D01*
X48959Y-42350D02*
X48762Y-42350D01*
X48790Y-42332D01*
X48809Y-42313D01*
X48819Y-42294D01*
X48828Y-42575D02*
X48959Y-42575D01*
X48753Y-42529D02*
X48894Y-42482D01*
X48894Y-42604D01*
X48959Y-42782D02*
X48959Y-42669D01*
X48959Y-42725D02*
X48762Y-42725D01*
X48790Y-42707D01*
X48809Y-42688D01*
X48819Y-42669D01*
X59025Y-30184D02*
X59035Y-30175D01*
X59044Y-30147D01*
X59044Y-30128D01*
X59035Y-30100D01*
X59016Y-30081D01*
X58997Y-30072D01*
X58960Y-30062D01*
X58932Y-30062D01*
X58894Y-30072D01*
X58875Y-30081D01*
X58857Y-30100D01*
X58847Y-30128D01*
X58847Y-30147D01*
X58857Y-30175D01*
X58866Y-30184D01*
X59044Y-30372D02*
X59044Y-30259D01*
X59044Y-30315D02*
X58847Y-30315D01*
X58875Y-30297D01*
X58894Y-30278D01*
X58904Y-30259D01*
X58847Y-30437D02*
X58847Y-30559D01*
X58922Y-30494D01*
X58922Y-30522D01*
X58932Y-30540D01*
X58941Y-30550D01*
X58960Y-30559D01*
X59007Y-30559D01*
X59025Y-30550D01*
X59035Y-30540D01*
X59044Y-30522D01*
X59044Y-30465D01*
X59035Y-30447D01*
X59025Y-30437D01*
X58847Y-30625D02*
X58847Y-30747D01*
X58922Y-30681D01*
X58922Y-30709D01*
X58932Y-30728D01*
X58941Y-30737D01*
X58960Y-30747D01*
X59007Y-30747D01*
X59025Y-30737D01*
X59035Y-30728D01*
X59044Y-30709D01*
X59044Y-30653D01*
X59035Y-30634D01*
X59025Y-30625D01*
X59355Y-30229D02*
X59365Y-30220D01*
X59374Y-30192D01*
X59374Y-30173D01*
X59365Y-30145D01*
X59346Y-30126D01*
X59327Y-30117D01*
X59290Y-30107D01*
X59262Y-30107D01*
X59224Y-30117D01*
X59205Y-30126D01*
X59187Y-30145D01*
X59177Y-30173D01*
X59177Y-30192D01*
X59187Y-30220D01*
X59196Y-30229D01*
X59374Y-30417D02*
X59374Y-30304D01*
X59374Y-30360D02*
X59177Y-30360D01*
X59205Y-30342D01*
X59224Y-30323D01*
X59234Y-30304D01*
X59243Y-30585D02*
X59374Y-30585D01*
X59168Y-30539D02*
X59309Y-30492D01*
X59309Y-30614D01*
X59177Y-30782D02*
X59177Y-30689D01*
X59271Y-30679D01*
X59262Y-30689D01*
X59252Y-30707D01*
X59252Y-30754D01*
X59262Y-30773D01*
X59271Y-30782D01*
X59290Y-30792D01*
X59337Y-30792D01*
X59355Y-30782D01*
X59365Y-30773D01*
X59374Y-30754D01*
X59374Y-30707D01*
X59365Y-30689D01*
X59355Y-30679D01*
G54D20*
X51306Y-35936D02*
X51316Y-35927D01*
X51325Y-35898D01*
X51325Y-35880D01*
X51316Y-35852D01*
X51297Y-35833D01*
X51278Y-35823D01*
X51241Y-35814D01*
X51213Y-35814D01*
X51175Y-35823D01*
X51156Y-35833D01*
X51138Y-35852D01*
X51128Y-35880D01*
X51128Y-35898D01*
X51138Y-35927D01*
X51147Y-35936D01*
X51128Y-36105D02*
X51128Y-36067D01*
X51138Y-36048D01*
X51147Y-36039D01*
X51175Y-36020D01*
X51213Y-36011D01*
X51288Y-36011D01*
X51306Y-36020D01*
X51316Y-36030D01*
X51325Y-36048D01*
X51325Y-36086D01*
X51316Y-36105D01*
X51306Y-36114D01*
X51288Y-36123D01*
X51241Y-36123D01*
X51222Y-36114D01*
X51213Y-36105D01*
X51203Y-36086D01*
X51203Y-36048D01*
X51213Y-36030D01*
X51222Y-36020D01*
X51241Y-36011D01*
X51128Y-36189D02*
X51128Y-36320D01*
X51325Y-36236D01*
X52014Y-35324D02*
X51920Y-35258D01*
X52014Y-35211D02*
X51817Y-35211D01*
X51817Y-35286D01*
X51827Y-35305D01*
X51836Y-35315D01*
X51855Y-35324D01*
X51883Y-35324D01*
X51902Y-35315D01*
X51911Y-35305D01*
X51920Y-35286D01*
X51920Y-35211D01*
X51883Y-35493D02*
X52014Y-35493D01*
X51808Y-35446D02*
X51949Y-35399D01*
X51949Y-35521D01*
X51836Y-35586D02*
X51827Y-35596D01*
X51817Y-35615D01*
X51817Y-35661D01*
X51827Y-35680D01*
X51836Y-35690D01*
X51855Y-35699D01*
X51874Y-35699D01*
X51902Y-35690D01*
X52014Y-35577D01*
X52014Y-35699D01*
X45657Y-30774D02*
X45723Y-30681D01*
X45770Y-30774D02*
X45770Y-30577D01*
X45695Y-30577D01*
X45676Y-30587D01*
X45667Y-30596D01*
X45657Y-30615D01*
X45657Y-30643D01*
X45667Y-30662D01*
X45676Y-30671D01*
X45695Y-30681D01*
X45770Y-30681D01*
X45582Y-30596D02*
X45573Y-30587D01*
X45554Y-30577D01*
X45507Y-30577D01*
X45489Y-30587D01*
X45479Y-30596D01*
X45470Y-30615D01*
X45470Y-30634D01*
X45479Y-30662D01*
X45592Y-30774D01*
X45470Y-30774D01*
X45282Y-30774D02*
X45395Y-30774D01*
X45339Y-30774D02*
X45339Y-30577D01*
X45357Y-30606D01*
X45376Y-30624D01*
X45395Y-30634D01*
X45095Y-30774D02*
X45207Y-30774D01*
X45151Y-30774D02*
X45151Y-30577D01*
X45170Y-30606D01*
X45189Y-30624D01*
X45207Y-30634D01*
G54D10*
X47971Y-53670D02*
X47956Y-53640D01*
X47956Y-53595D01*
X47971Y-53550D01*
X48001Y-53520D01*
X48031Y-53505D01*
X48091Y-53490D01*
X48136Y-53490D01*
X48196Y-53505D01*
X48226Y-53520D01*
X48256Y-53550D01*
X48271Y-53595D01*
X48271Y-53625D01*
X48256Y-53670D01*
X48241Y-53685D01*
X48136Y-53685D01*
X48136Y-53625D01*
X48271Y-53820D02*
X47956Y-53820D01*
X48271Y-53999D01*
X47956Y-53999D01*
X48271Y-54149D02*
X47956Y-54149D01*
X47956Y-54224D01*
X47971Y-54269D01*
X48001Y-54299D01*
X48031Y-54314D01*
X48091Y-54329D01*
X48136Y-54329D01*
X48196Y-54314D01*
X48226Y-54299D01*
X48256Y-54269D01*
X48271Y-54224D01*
X48271Y-54149D01*
G54D20*
X49189Y-53475D02*
X49198Y-53503D01*
X49198Y-53550D01*
X49189Y-53569D01*
X49179Y-53578D01*
X49161Y-53588D01*
X49142Y-53588D01*
X49123Y-53578D01*
X49114Y-53569D01*
X49104Y-53550D01*
X49095Y-53513D01*
X49086Y-53494D01*
X49076Y-53485D01*
X49058Y-53475D01*
X49039Y-53475D01*
X49020Y-53485D01*
X49011Y-53494D01*
X49001Y-53513D01*
X49001Y-53560D01*
X49011Y-53588D01*
X49001Y-53653D02*
X49198Y-53700D01*
X49058Y-53738D01*
X49198Y-53775D01*
X49001Y-53822D01*
X49198Y-53897D02*
X49001Y-53897D01*
X49001Y-53944D01*
X49011Y-53972D01*
X49029Y-53991D01*
X49048Y-54000D01*
X49086Y-54010D01*
X49114Y-54010D01*
X49151Y-54000D01*
X49170Y-53991D01*
X49189Y-53972D01*
X49198Y-53944D01*
X49198Y-53897D01*
X49198Y-54094D02*
X49001Y-54094D01*
X49001Y-54225D02*
X49001Y-54263D01*
X49011Y-54282D01*
X49029Y-54300D01*
X49067Y-54310D01*
X49133Y-54310D01*
X49170Y-54300D01*
X49189Y-54282D01*
X49198Y-54263D01*
X49198Y-54225D01*
X49189Y-54207D01*
X49170Y-54188D01*
X49133Y-54178D01*
X49067Y-54178D01*
X49029Y-54188D01*
X49011Y-54207D01*
X49001Y-54225D01*
G54D10*
X50152Y-53538D02*
X50167Y-53583D01*
X50167Y-53658D01*
X50152Y-53688D01*
X50137Y-53703D01*
X50107Y-53718D01*
X50077Y-53718D01*
X50047Y-53703D01*
X50032Y-53688D01*
X50017Y-53658D01*
X50002Y-53598D01*
X49987Y-53568D01*
X49972Y-53553D01*
X49942Y-53538D01*
X49912Y-53538D01*
X49882Y-53553D01*
X49867Y-53568D01*
X49852Y-53598D01*
X49852Y-53673D01*
X49867Y-53718D01*
X49852Y-53823D02*
X50167Y-53898D01*
X49942Y-53958D01*
X50167Y-54017D01*
X49852Y-54092D01*
X49852Y-54272D02*
X49852Y-54332D01*
X49867Y-54362D01*
X49897Y-54392D01*
X49957Y-54407D01*
X50062Y-54407D01*
X50122Y-54392D01*
X50152Y-54362D01*
X50167Y-54332D01*
X50167Y-54272D01*
X50152Y-54242D01*
X50122Y-54212D01*
X50062Y-54197D01*
X49957Y-54197D01*
X49897Y-54212D01*
X49867Y-54242D01*
X49852Y-54272D01*
X51184Y-53751D02*
X51034Y-53646D01*
X51184Y-53571D02*
X50869Y-53571D01*
X50869Y-53691D01*
X50884Y-53721D01*
X50899Y-53736D01*
X50929Y-53751D01*
X50974Y-53751D01*
X51004Y-53736D01*
X51019Y-53721D01*
X51034Y-53691D01*
X51034Y-53571D01*
X51169Y-53871D02*
X51184Y-53916D01*
X51184Y-53991D01*
X51169Y-54021D01*
X51154Y-54036D01*
X51124Y-54051D01*
X51094Y-54051D01*
X51064Y-54036D01*
X51049Y-54021D01*
X51034Y-53991D01*
X51019Y-53931D01*
X51004Y-53901D01*
X50989Y-53886D01*
X50959Y-53871D01*
X50929Y-53871D01*
X50899Y-53886D01*
X50884Y-53901D01*
X50869Y-53931D01*
X50869Y-54006D01*
X50884Y-54051D01*
X50869Y-54141D02*
X50869Y-54321D01*
X51184Y-54231D02*
X50869Y-54231D01*
G54D20*
X52120Y-53479D02*
X52129Y-53507D01*
X52129Y-53554D01*
X52120Y-53573D01*
X52110Y-53582D01*
X52092Y-53592D01*
X52073Y-53592D01*
X52054Y-53582D01*
X52045Y-53573D01*
X52035Y-53554D01*
X52026Y-53517D01*
X52017Y-53498D01*
X52007Y-53489D01*
X51989Y-53479D01*
X51970Y-53479D01*
X51951Y-53489D01*
X51942Y-53498D01*
X51932Y-53517D01*
X51932Y-53564D01*
X51942Y-53592D01*
X51932Y-53657D02*
X52129Y-53704D01*
X51989Y-53742D01*
X52129Y-53779D01*
X51932Y-53826D01*
X52110Y-54014D02*
X52120Y-54004D01*
X52129Y-53976D01*
X52129Y-53957D01*
X52120Y-53929D01*
X52101Y-53910D01*
X52082Y-53901D01*
X52045Y-53892D01*
X52017Y-53892D01*
X51979Y-53901D01*
X51960Y-53910D01*
X51942Y-53929D01*
X51932Y-53957D01*
X51932Y-53976D01*
X51942Y-54004D01*
X51951Y-54014D01*
X52129Y-54192D02*
X52129Y-54098D01*
X51932Y-54098D01*
X52129Y-54257D02*
X51932Y-54257D01*
X52129Y-54370D02*
X52017Y-54285D01*
X51932Y-54370D02*
X52045Y-54257D01*
X53083Y-53494D02*
X53083Y-53644D01*
X53158Y-53569D02*
X53008Y-53569D01*
X52961Y-53719D02*
X52961Y-53841D01*
X53036Y-53775D01*
X53036Y-53803D01*
X53046Y-53822D01*
X53055Y-53831D01*
X53074Y-53841D01*
X53121Y-53841D01*
X53139Y-53831D01*
X53149Y-53822D01*
X53158Y-53803D01*
X53158Y-53747D01*
X53149Y-53728D01*
X53139Y-53719D01*
X52961Y-53897D02*
X53158Y-53962D01*
X52961Y-54028D01*
X52961Y-54075D02*
X52961Y-54197D01*
X53036Y-54131D01*
X53036Y-54159D01*
X53046Y-54178D01*
X53055Y-54187D01*
X53074Y-54197D01*
X53121Y-54197D01*
X53139Y-54187D01*
X53149Y-54178D01*
X53158Y-54159D01*
X53158Y-54103D01*
X53149Y-54084D01*
X53139Y-54075D01*
G54D11*
X54404Y-40632D02*
X54509Y-40482D01*
X54584Y-40632D02*
X54584Y-40317D01*
X54464Y-40317D01*
X54434Y-40332D01*
X54419Y-40347D01*
X54404Y-40377D01*
X54404Y-40422D01*
X54419Y-40452D01*
X54434Y-40467D01*
X54464Y-40482D01*
X54584Y-40482D01*
X54134Y-40422D02*
X54134Y-40632D01*
X54209Y-40302D02*
X54284Y-40527D01*
X54089Y-40527D01*
X53999Y-40317D02*
X53789Y-40317D01*
X53924Y-40632D01*
X54484Y-36507D02*
X54589Y-36357D01*
X54664Y-36507D02*
X54664Y-36192D01*
X54544Y-36192D01*
X54514Y-36207D01*
X54499Y-36222D01*
X54484Y-36252D01*
X54484Y-36297D01*
X54499Y-36327D01*
X54514Y-36342D01*
X54544Y-36357D01*
X54664Y-36357D01*
X54214Y-36297D02*
X54214Y-36507D01*
X54289Y-36177D02*
X54364Y-36402D01*
X54169Y-36402D01*
X53914Y-36192D02*
X53974Y-36192D01*
X54004Y-36207D01*
X54019Y-36222D01*
X54049Y-36267D01*
X54064Y-36327D01*
X54064Y-36447D01*
X54049Y-36477D01*
X54034Y-36492D01*
X54004Y-36507D01*
X53944Y-36507D01*
X53914Y-36492D01*
X53899Y-36477D01*
X53884Y-36447D01*
X53884Y-36372D01*
X53899Y-36342D01*
X53914Y-36327D01*
X53944Y-36312D01*
X54004Y-36312D01*
X54034Y-36327D01*
X54049Y-36342D01*
X54064Y-36372D01*
X55255Y-40637D02*
X55360Y-40487D01*
X55435Y-40637D02*
X55435Y-40322D01*
X55315Y-40322D01*
X55285Y-40337D01*
X55270Y-40352D01*
X55255Y-40382D01*
X55255Y-40427D01*
X55270Y-40457D01*
X55285Y-40472D01*
X55315Y-40487D01*
X55435Y-40487D01*
X54985Y-40427D02*
X54985Y-40637D01*
X55060Y-40307D02*
X55135Y-40532D01*
X54940Y-40532D01*
X54775Y-40457D02*
X54805Y-40442D01*
X54820Y-40427D01*
X54835Y-40397D01*
X54835Y-40382D01*
X54820Y-40352D01*
X54805Y-40337D01*
X54775Y-40322D01*
X54715Y-40322D01*
X54685Y-40337D01*
X54670Y-40352D01*
X54655Y-40382D01*
X54655Y-40397D01*
X54670Y-40427D01*
X54685Y-40442D01*
X54715Y-40457D01*
X54775Y-40457D01*
X54805Y-40472D01*
X54820Y-40487D01*
X54835Y-40517D01*
X54835Y-40577D01*
X54820Y-40607D01*
X54805Y-40622D01*
X54775Y-40637D01*
X54715Y-40637D01*
X54685Y-40622D01*
X54670Y-40607D01*
X54655Y-40577D01*
X54655Y-40517D01*
X54670Y-40487D01*
X54685Y-40472D01*
X54715Y-40457D01*
X55252Y-37163D02*
X55357Y-37013D01*
X55432Y-37163D02*
X55432Y-36848D01*
X55312Y-36848D01*
X55282Y-36863D01*
X55267Y-36878D01*
X55252Y-36908D01*
X55252Y-36953D01*
X55267Y-36983D01*
X55282Y-36998D01*
X55312Y-37013D01*
X55432Y-37013D01*
X54982Y-36953D02*
X54982Y-37163D01*
X55057Y-36833D02*
X55132Y-37058D01*
X54937Y-37058D01*
X54802Y-37163D02*
X54742Y-37163D01*
X54712Y-37148D01*
X54697Y-37133D01*
X54667Y-37088D01*
X54652Y-37028D01*
X54652Y-36908D01*
X54667Y-36878D01*
X54682Y-36863D01*
X54712Y-36848D01*
X54772Y-36848D01*
X54802Y-36863D01*
X54817Y-36878D01*
X54832Y-36908D01*
X54832Y-36983D01*
X54817Y-37013D01*
X54802Y-37028D01*
X54772Y-37043D01*
X54712Y-37043D01*
X54682Y-37028D01*
X54667Y-37013D01*
X54652Y-36983D01*
M02*
