G04 (created by PCBNEW (2013-june-11)-stable) date Tue 10 Oct 2017 05:17:01 PM CEST*
%MOIN*%
G04 Gerber Fmt 3.4, Leading zero omitted, Abs format*
%FSLAX34Y34*%
G01*
G70*
G90*
G04 APERTURE LIST*
%ADD10C,0.00590551*%
%ADD11C,0.00787402*%
%ADD12R,0.0291339X0.0944882*%
%ADD13R,0.0751968X0.0751968*%
%ADD14R,0.0598425X0.0598425*%
%ADD15R,0.0866142X0.0393701*%
%ADD16R,0.0393701X0.0393701*%
%ADD17R,0.0393701X0.0531496*%
%ADD18R,0.0275591X0.0531496*%
%ADD19R,0.0531496X0.0275591*%
%ADD20R,0.0195X0.0195*%
%ADD21R,0.0314X0.0314*%
%ADD22R,0.0354X0.0551*%
%ADD23R,0.126X0.05*%
%ADD24R,0.0196X0.0787*%
%ADD25R,0.0984X0.0866*%
%ADD26R,0.0275591X0.0393701*%
%ADD27R,0.0314X0.0275*%
%ADD28R,0.0275X0.0314*%
%ADD29C,0.00590551*%
%ADD30R,0.00590551X0.011811*%
%ADD31R,0.092126X0.0590551*%
%ADD32R,0.0129921X0.0102362*%
%ADD33R,0.0413386X0.0472441*%
%ADD34R,0.08X0.06*%
%ADD35R,0.0629921X0.0925197*%
%ADD36R,0.0255906X0.011811*%
%ADD37R,0.0925197X0.0629921*%
%ADD38R,0.011811X0.0255906*%
%ADD39R,0.0472X0.0591*%
%ADD40R,0.0354331X0.0472441*%
%ADD41R,0.0669291X0.0314961*%
%ADD42R,0.0591X0.0299*%
%ADD43R,0.0393701X0.0866142*%
%ADD44R,0.19685X0.0589*%
%ADD45R,0.0984252X0.0275*%
%ADD46R,0.011811X0.0137795*%
%ADD47R,0.0137795X0.011811*%
%ADD48O,0.015748X0.00787402*%
%ADD49R,0.00787402X0.00787402*%
%ADD50O,0.00787402X0.015748*%
%ADD51R,0.181102X0.169291*%
%ADD52R,0.169291X0.011811*%
%ADD53R,0.0299213X0.0649606*%
%ADD54R,0.0700787X0.0161417*%
%ADD55R,0.0141732X0.0279528*%
%ADD56R,0.0141732X0.05*%
%ADD57R,0.0393701X0.0137795*%
%ADD58R,0.0299X0.0649*%
%ADD59R,0.0161417X0.0700787*%
%ADD60R,0.0279528X0.0141732*%
%ADD61R,0.05X0.0141732*%
%ADD62R,0.0137795X0.0393701*%
%ADD63R,0.0649X0.0299*%
G04 APERTURE END LIST*
G54D10*
G54D11*
X40574Y-57658D02*
X40583Y-57658D01*
X40574Y-19850D02*
X40574Y-57658D01*
X40575Y-19849D02*
X40575Y-19862D01*
X70460Y-19849D02*
X40575Y-19849D01*
X70460Y-19868D02*
X70460Y-19849D01*
X70460Y-57658D02*
X70460Y-19868D01*
X40575Y-57658D02*
X70460Y-57658D01*
X68894Y-23267D02*
X68906Y-23267D01*
X68890Y-53390D02*
X68902Y-53390D01*
X43087Y-57659D02*
X43087Y-57647D01*
X40561Y-53217D02*
X40573Y-53217D01*
X40565Y-23094D02*
X40577Y-23094D01*
X68472Y-19849D02*
X68472Y-19861D01*
X44228Y-19839D02*
X44228Y-19851D01*
X42134Y-45546D02*
X42132Y-45546D01*
X42134Y-56091D02*
X42134Y-45546D01*
X47037Y-56091D02*
X42134Y-56091D01*
X42132Y-45546D02*
X42132Y-56028D01*
X42140Y-44129D02*
X42137Y-44129D01*
X42140Y-21415D02*
X42140Y-44129D01*
X47009Y-21415D02*
X42140Y-21415D01*
X48421Y-21415D02*
X48421Y-21427D01*
X62986Y-21415D02*
X48421Y-21415D01*
X64402Y-21424D02*
X64402Y-21430D01*
X68891Y-21424D02*
X64402Y-21424D01*
X68891Y-56132D02*
X68891Y-21424D01*
X68891Y-56134D02*
X63758Y-56134D01*
X68891Y-53037D02*
X68891Y-56134D01*
X48452Y-56093D02*
X48452Y-56096D01*
X62337Y-56110D02*
X48453Y-56110D01*
X63753Y-54537D02*
X63753Y-54539D01*
X65949Y-54537D02*
X63753Y-54537D01*
X48423Y-22989D02*
X48423Y-22991D01*
X62988Y-22989D02*
X48423Y-22989D01*
X64404Y-22993D02*
X64404Y-22989D01*
X65944Y-22993D02*
X64404Y-22993D01*
X47009Y-22991D02*
X45088Y-22991D01*
X47037Y-54537D02*
X47037Y-54538D01*
X45099Y-54537D02*
X47037Y-54537D01*
X63759Y-56135D02*
X63759Y-54560D01*
X62336Y-56109D02*
X62336Y-54534D01*
X62337Y-54539D02*
X54171Y-54539D01*
X63754Y-54538D02*
X63754Y-54539D01*
X62986Y-22990D02*
X62986Y-21415D01*
X64402Y-23001D02*
X64402Y-21426D01*
X64403Y-22990D02*
X64403Y-22989D01*
X48453Y-54536D02*
X48453Y-54537D01*
X59734Y-54536D02*
X48453Y-54536D01*
X43713Y-45545D02*
X43715Y-45545D01*
X43713Y-53156D02*
X43713Y-45545D01*
X43714Y-44133D02*
X43715Y-44133D01*
X43714Y-24370D02*
X43714Y-44133D01*
X48424Y-22992D02*
X48424Y-22991D01*
X43722Y-44129D02*
X42147Y-44129D01*
X43704Y-45546D02*
X42129Y-45546D01*
X47035Y-56091D02*
X47035Y-54516D01*
X48452Y-56109D02*
X48452Y-54534D01*
X48421Y-22997D02*
X48421Y-21422D01*
X47007Y-22992D02*
X47007Y-21417D01*
X43713Y-53157D02*
G75*
G03X45091Y-54535I1377J0D01*
G74*
G01*
X65950Y-54536D02*
G75*
G03X67328Y-53158I0J1377D01*
G74*
G01*
X45091Y-22991D02*
G75*
G03X43713Y-24369I0J-1377D01*
G74*
G01*
X67327Y-24370D02*
G75*
G03X65949Y-22992I-1377J0D01*
G74*
G01*
X67328Y-24372D02*
X67328Y-53149D01*
G54D12*
X51309Y-47441D03*
X51309Y-48976D03*
X50809Y-47441D03*
X50809Y-48976D03*
X50309Y-47441D03*
X50309Y-48976D03*
X49809Y-47441D03*
X49809Y-48976D03*
X49309Y-47441D03*
X49309Y-48976D03*
G54D13*
X48860Y-31040D03*
X48860Y-29174D03*
G54D14*
X47927Y-30107D03*
G54D13*
X46994Y-29174D03*
X46994Y-31040D03*
G54D15*
X61649Y-26409D03*
X61649Y-25267D03*
G54D16*
X62240Y-25838D03*
X61059Y-25838D03*
G54D17*
X47543Y-35775D03*
X47543Y-34259D03*
X48449Y-35775D03*
X48449Y-34259D03*
G54D18*
X47996Y-35775D03*
G54D19*
X47612Y-35253D03*
X47612Y-34781D03*
X48380Y-34777D03*
X48380Y-35253D03*
G54D18*
X47998Y-34259D03*
G54D20*
X63094Y-45234D03*
X63448Y-45234D03*
G54D21*
X64580Y-45237D03*
X63950Y-45237D03*
G54D22*
X58764Y-52669D03*
X58014Y-52669D03*
G54D20*
X58759Y-53200D03*
X58405Y-53200D03*
X63301Y-52390D03*
X63655Y-52390D03*
X63301Y-52057D03*
X63655Y-52057D03*
X47151Y-49086D03*
X46797Y-49086D03*
X47151Y-50483D03*
X46797Y-50483D03*
X47151Y-49794D03*
X46797Y-49794D03*
G54D23*
X56743Y-53673D03*
X56743Y-52673D03*
X56743Y-51673D03*
X54774Y-53673D03*
X54774Y-52673D03*
X54774Y-51673D03*
G54D24*
X60664Y-51133D03*
X60979Y-51133D03*
X61293Y-51133D03*
X61607Y-51133D03*
X61922Y-51133D03*
G54D25*
X62946Y-53317D03*
X59640Y-53317D03*
X59640Y-51231D03*
X62946Y-51231D03*
G54D21*
X45656Y-49086D03*
X46286Y-49086D03*
X45656Y-49794D03*
X46286Y-49794D03*
X45656Y-50483D03*
X46286Y-50483D03*
G54D26*
X46342Y-46807D03*
X47090Y-46807D03*
X47090Y-47751D03*
X46342Y-47751D03*
X46716Y-47751D03*
G54D20*
X48070Y-41732D03*
X48070Y-42086D03*
X48042Y-52715D03*
X48042Y-52361D03*
X51757Y-52515D03*
X51403Y-52515D03*
X49058Y-53395D03*
X49058Y-53749D03*
X48042Y-53039D03*
X48042Y-53393D03*
X49577Y-41839D03*
X49223Y-41839D03*
X46343Y-46001D03*
X46343Y-46355D03*
X46343Y-46000D03*
X46343Y-45646D03*
X47555Y-44597D03*
X47555Y-44951D03*
X47555Y-44597D03*
X47555Y-44243D03*
X46633Y-42823D03*
X46633Y-43177D03*
X45913Y-43177D03*
X46267Y-43177D03*
X49989Y-41843D03*
X49989Y-41489D03*
X49130Y-42227D03*
X48776Y-42227D03*
X51005Y-53572D03*
X51359Y-53572D03*
X49062Y-53045D03*
X49062Y-52691D03*
X49635Y-42223D03*
X49989Y-42223D03*
G54D27*
X45913Y-42359D03*
X45913Y-42789D03*
G54D28*
X46526Y-45200D03*
X46096Y-45200D03*
G54D27*
X47129Y-44592D03*
X47129Y-45022D03*
X45444Y-46005D03*
X45444Y-46435D03*
G54D28*
X45423Y-45208D03*
X44993Y-45208D03*
G54D22*
X51762Y-53047D03*
X51012Y-53047D03*
G54D29*
X45770Y-43654D03*
G54D30*
X45770Y-43575D03*
X45573Y-43575D03*
G54D29*
X45573Y-43654D03*
X45967Y-43654D03*
G54D30*
X45967Y-43575D03*
X46164Y-43575D03*
G54D29*
X46164Y-43654D03*
X46164Y-44619D03*
G54D30*
X46164Y-44697D03*
X45967Y-44697D03*
G54D29*
X45967Y-44619D03*
X45573Y-44619D03*
G54D30*
X45573Y-44697D03*
X45770Y-44697D03*
G54D29*
X45770Y-44619D03*
G54D31*
X45868Y-44136D03*
G54D32*
X53303Y-53175D03*
X53303Y-52978D03*
X53303Y-52781D03*
X52566Y-52781D03*
X52566Y-52978D03*
X52566Y-53175D03*
G54D33*
X52935Y-52978D03*
G54D34*
X52937Y-51669D03*
X52937Y-50369D03*
G54D35*
X50009Y-53431D03*
G54D36*
X50550Y-53559D03*
X50550Y-53303D03*
X50550Y-53047D03*
X50550Y-53815D03*
X49468Y-53815D03*
X49468Y-53047D03*
X49468Y-53303D03*
X49468Y-53559D03*
G54D37*
X49254Y-43192D03*
G54D38*
X49127Y-43733D03*
X49382Y-43733D03*
X49638Y-43733D03*
X48870Y-43733D03*
X48870Y-42650D03*
X49638Y-42650D03*
X49382Y-42650D03*
X49127Y-42650D03*
G54D39*
X44844Y-34173D03*
X44844Y-32173D03*
X46576Y-32173D03*
X46576Y-34173D03*
G54D40*
X45710Y-31972D03*
X45710Y-34373D03*
G54D27*
X48696Y-32596D03*
X48696Y-32166D03*
X48244Y-32604D03*
X48244Y-32174D03*
G54D20*
X46253Y-31417D03*
X45899Y-31417D03*
X47203Y-32080D03*
X47203Y-31726D03*
X47854Y-31726D03*
X47854Y-32080D03*
X47525Y-31726D03*
X47525Y-32080D03*
X47297Y-32889D03*
X47297Y-32535D03*
X48673Y-33594D03*
X48673Y-33240D03*
X48358Y-33240D03*
X48358Y-33594D03*
X48043Y-33240D03*
X48043Y-33594D03*
X46958Y-36467D03*
X47312Y-36467D03*
X46348Y-35023D03*
X45994Y-35023D03*
X47666Y-36465D03*
X47312Y-36465D03*
X49014Y-35253D03*
X49014Y-34899D03*
X46348Y-35023D03*
X46702Y-35023D03*
X47297Y-33243D03*
X47297Y-32889D03*
X46698Y-35419D03*
X46344Y-35419D03*
X56791Y-26501D03*
X56437Y-26501D03*
G54D21*
X55236Y-26503D03*
X55866Y-26503D03*
G54D20*
X49055Y-51889D03*
X49055Y-52243D03*
X49425Y-51889D03*
X49425Y-52243D03*
G54D41*
X44810Y-48359D03*
X44810Y-47020D03*
G54D42*
X51807Y-51015D03*
X51807Y-50515D03*
X48815Y-50515D03*
X48815Y-51015D03*
G54D15*
X46528Y-39607D03*
X46528Y-40748D03*
G54D16*
X45937Y-40178D03*
X47118Y-40178D03*
G54D43*
X56091Y-30441D03*
X54950Y-30441D03*
G54D16*
X55521Y-29850D03*
X55521Y-31031D03*
G54D43*
X55950Y-47093D03*
X57091Y-47093D03*
G54D16*
X56521Y-47683D03*
X56521Y-46502D03*
G54D44*
X66221Y-27201D03*
X66221Y-30430D03*
G54D45*
X66713Y-28816D03*
G54D15*
X46520Y-37668D03*
X46520Y-38809D03*
G54D16*
X45929Y-38239D03*
X47110Y-38239D03*
G54D46*
X55144Y-36995D03*
X54927Y-36995D03*
G54D47*
X55147Y-36672D03*
X55147Y-36455D03*
X54915Y-36670D03*
X54915Y-36453D03*
G54D46*
X54356Y-36993D03*
X54139Y-36993D03*
G54D47*
X54365Y-36671D03*
X54365Y-36454D03*
X54130Y-36672D03*
X54130Y-36455D03*
G54D10*
G36*
X52095Y-36550D02*
X51997Y-36452D01*
X52081Y-36369D01*
X52178Y-36466D01*
X52095Y-36550D01*
X52095Y-36550D01*
G37*
G36*
X52248Y-36397D02*
X52150Y-36299D01*
X52234Y-36216D01*
X52331Y-36313D01*
X52248Y-36397D01*
X52248Y-36397D01*
G37*
G36*
X52482Y-36813D02*
X52385Y-36911D01*
X52301Y-36827D01*
X52399Y-36730D01*
X52482Y-36813D01*
X52482Y-36813D01*
G37*
G36*
X52329Y-36660D02*
X52232Y-36758D01*
X52148Y-36674D01*
X52246Y-36577D01*
X52329Y-36660D01*
X52329Y-36660D01*
G37*
G36*
X52691Y-36602D02*
X52594Y-36700D01*
X52510Y-36616D01*
X52608Y-36519D01*
X52691Y-36602D01*
X52691Y-36602D01*
G37*
G36*
X52538Y-36449D02*
X52441Y-36547D01*
X52357Y-36463D01*
X52455Y-36366D01*
X52538Y-36449D01*
X52538Y-36449D01*
G37*
G36*
X52615Y-37069D02*
X52517Y-36971D01*
X52601Y-36888D01*
X52698Y-36985D01*
X52615Y-37069D01*
X52615Y-37069D01*
G37*
G36*
X52768Y-36916D02*
X52670Y-36818D01*
X52754Y-36735D01*
X52851Y-36832D01*
X52768Y-36916D01*
X52768Y-36916D01*
G37*
G54D47*
X52771Y-37278D03*
X52771Y-37495D03*
G54D46*
X53043Y-36993D03*
X53260Y-36993D03*
X55902Y-35120D03*
X55685Y-35120D03*
X53597Y-35120D03*
X53380Y-35120D03*
G54D48*
X53262Y-37756D03*
X53262Y-37914D03*
X53262Y-38071D03*
X53262Y-38229D03*
X53262Y-38386D03*
X53262Y-38544D03*
X53262Y-38701D03*
X53262Y-38859D03*
X53262Y-39016D03*
X53262Y-39174D03*
X53262Y-39331D03*
X53262Y-39489D03*
X53262Y-39646D03*
X53262Y-39804D03*
G54D49*
X53223Y-37756D03*
X53223Y-37914D03*
X53223Y-38071D03*
X53223Y-38229D03*
X53223Y-38386D03*
X53223Y-38544D03*
X53223Y-38701D03*
X53223Y-38859D03*
X53223Y-39016D03*
X53223Y-39174D03*
X53223Y-39331D03*
X53223Y-39489D03*
X53223Y-39646D03*
X53223Y-39804D03*
X53537Y-40119D03*
X53695Y-40119D03*
X53852Y-40119D03*
X54010Y-40119D03*
X54167Y-40119D03*
X54325Y-40119D03*
X54482Y-40119D03*
X54640Y-40119D03*
X54797Y-40119D03*
X54955Y-40119D03*
X55112Y-40119D03*
X55270Y-40119D03*
X55427Y-40119D03*
X55585Y-40119D03*
X55900Y-39804D03*
X55900Y-39646D03*
X55900Y-39489D03*
X55900Y-39331D03*
X55900Y-39174D03*
X55900Y-39016D03*
X55900Y-38859D03*
X55900Y-38701D03*
X55900Y-38544D03*
X55900Y-38386D03*
X55900Y-38229D03*
X55900Y-38071D03*
X55900Y-37914D03*
X55900Y-37756D03*
X55585Y-37441D03*
X55427Y-37441D03*
X55270Y-37441D03*
X55112Y-37441D03*
X54955Y-37441D03*
X54797Y-37441D03*
X54640Y-37441D03*
X54482Y-37441D03*
X54325Y-37441D03*
X54167Y-37441D03*
X54010Y-37441D03*
X53852Y-37441D03*
X53695Y-37441D03*
X53537Y-37441D03*
G54D50*
X53537Y-40079D03*
X53695Y-40079D03*
X53852Y-40079D03*
X54010Y-40079D03*
X54167Y-40079D03*
X54325Y-40079D03*
X54482Y-40079D03*
X54640Y-40079D03*
X54797Y-40079D03*
X54955Y-40079D03*
X55112Y-40079D03*
X55270Y-40079D03*
X55427Y-40079D03*
X55585Y-40079D03*
G54D48*
X55860Y-39804D03*
X55860Y-39646D03*
X55860Y-39489D03*
X55860Y-39331D03*
X55860Y-39174D03*
X55860Y-39016D03*
X55860Y-38859D03*
X55860Y-38701D03*
X55860Y-38544D03*
X55860Y-38386D03*
X55860Y-38229D03*
X55860Y-38071D03*
X55860Y-37914D03*
X55860Y-37756D03*
G54D50*
X55585Y-37481D03*
X55427Y-37481D03*
X55270Y-37481D03*
X55112Y-37481D03*
X54955Y-37481D03*
X54797Y-37481D03*
X54640Y-37481D03*
X54482Y-37481D03*
X54325Y-37481D03*
X54167Y-37481D03*
X54010Y-37481D03*
X53852Y-37481D03*
X53695Y-37481D03*
X53537Y-37481D03*
G54D51*
X54561Y-38839D03*
G54D52*
X54620Y-37934D03*
G54D10*
G36*
X53656Y-37993D02*
X53774Y-37874D01*
X53852Y-37874D01*
X53971Y-37993D01*
X53656Y-37993D01*
X53656Y-37993D01*
G37*
G54D47*
X51923Y-39026D03*
X51923Y-39243D03*
X51923Y-38160D03*
X51923Y-38376D03*
G54D46*
X56520Y-37126D03*
X56303Y-37126D03*
X56520Y-37363D03*
X56303Y-37363D03*
X56520Y-36890D03*
X56303Y-36890D03*
G54D47*
X51687Y-39243D03*
X51687Y-39026D03*
X51923Y-39262D03*
X51923Y-39479D03*
X51923Y-38790D03*
X51923Y-39006D03*
G54D46*
X52169Y-39213D03*
X52386Y-39213D03*
X52169Y-38977D03*
X52386Y-38977D03*
G54D47*
X52632Y-38987D03*
X52632Y-39203D03*
X51687Y-38376D03*
X51687Y-38160D03*
X51923Y-38396D03*
X51923Y-38613D03*
X51923Y-37924D03*
X51923Y-38140D03*
G54D46*
X52169Y-38426D03*
X52386Y-38426D03*
X52169Y-38189D03*
X52386Y-38189D03*
G54D47*
X52632Y-38199D03*
X52632Y-38416D03*
G54D53*
X50846Y-33426D03*
X49846Y-33426D03*
X50846Y-32174D03*
X49846Y-32174D03*
X50346Y-32174D03*
X50346Y-33426D03*
G54D47*
X50847Y-31281D03*
X50847Y-31498D03*
G54D46*
X54924Y-40567D03*
X55141Y-40567D03*
X55683Y-42440D03*
X55900Y-42440D03*
X53378Y-42440D03*
X53595Y-42440D03*
X54136Y-40565D03*
X54353Y-40565D03*
G54D47*
X54364Y-40889D03*
X54364Y-41106D03*
X54132Y-40887D03*
X54132Y-41104D03*
X54914Y-40888D03*
X54914Y-41105D03*
X55149Y-40887D03*
X55149Y-41104D03*
X57159Y-37981D03*
X57159Y-37764D03*
X57160Y-38455D03*
X57160Y-38238D03*
G54D46*
X56914Y-38033D03*
X56697Y-38033D03*
G54D47*
X57160Y-38219D03*
X57160Y-38002D03*
X57160Y-39086D03*
X57160Y-38869D03*
X57396Y-38002D03*
X57396Y-38219D03*
G54D46*
X56914Y-38269D03*
X56697Y-38269D03*
G54D47*
X56451Y-38259D03*
X56451Y-38042D03*
G54D46*
X56698Y-39056D03*
X56915Y-39056D03*
G54D47*
X56451Y-39046D03*
X56451Y-38829D03*
G54D46*
X56698Y-38820D03*
X56915Y-38820D03*
G54D47*
X57160Y-39322D03*
X57160Y-39105D03*
X57160Y-38849D03*
X57160Y-38632D03*
X57397Y-38868D03*
X57397Y-39085D03*
G54D54*
X53263Y-44566D03*
G54D55*
X53542Y-44206D03*
G54D56*
X53263Y-44316D03*
G54D55*
X52983Y-44206D03*
G54D56*
X52983Y-44816D03*
G54D55*
X53263Y-44926D03*
G54D56*
X53542Y-44816D03*
G54D47*
X55524Y-31851D03*
X55524Y-31635D03*
G54D57*
X55664Y-32730D03*
X55664Y-32986D03*
X55664Y-33241D03*
X56373Y-33241D03*
X56373Y-32986D03*
X56373Y-32730D03*
G54D47*
X53261Y-31858D03*
X53261Y-31641D03*
G54D58*
X56518Y-33765D03*
X56018Y-33765D03*
X55518Y-33765D03*
X55518Y-32514D03*
X56518Y-32514D03*
G54D54*
X53264Y-32990D03*
G54D55*
X52985Y-33351D03*
G54D56*
X53264Y-33240D03*
G54D55*
X53544Y-33351D03*
G54D56*
X53544Y-32740D03*
G54D55*
X53264Y-32630D03*
G54D56*
X52985Y-32740D03*
G54D44*
X66221Y-34369D03*
X66221Y-37598D03*
G54D45*
X66713Y-35984D03*
G54D46*
X61412Y-37568D03*
X61195Y-37568D03*
G54D59*
X60039Y-37566D03*
G54D60*
X59679Y-37287D03*
G54D61*
X59789Y-37566D03*
G54D60*
X59679Y-37846D03*
G54D61*
X60289Y-37846D03*
G54D60*
X60399Y-37566D03*
G54D61*
X60289Y-37287D03*
G54D59*
X60044Y-39524D03*
G54D60*
X59683Y-39244D03*
G54D61*
X59794Y-39524D03*
G54D60*
X59683Y-39803D03*
G54D61*
X60294Y-39803D03*
G54D60*
X60404Y-39524D03*
G54D61*
X60294Y-39244D03*
G54D46*
X61407Y-39524D03*
X61190Y-39524D03*
G54D44*
X66217Y-39479D03*
X66217Y-42708D03*
G54D45*
X66709Y-41094D03*
G54D47*
X56523Y-45694D03*
X56523Y-45911D03*
X53265Y-45699D03*
X53265Y-45916D03*
G54D46*
X55683Y-42441D03*
X55900Y-42441D03*
G54D44*
X66220Y-47157D03*
X66220Y-50386D03*
G54D45*
X66712Y-48772D03*
G54D57*
X56374Y-44815D03*
X56374Y-44560D03*
X56374Y-44304D03*
X55665Y-44304D03*
X55665Y-44560D03*
X55665Y-44815D03*
G54D58*
X55522Y-43818D03*
X56022Y-43818D03*
X56522Y-43818D03*
X56522Y-45069D03*
X55522Y-45069D03*
G54D46*
X47672Y-40179D03*
X47889Y-40179D03*
G54D62*
X48779Y-40034D03*
X49035Y-40034D03*
X49291Y-40034D03*
X49291Y-39325D03*
X49035Y-39325D03*
X48779Y-39325D03*
G54D63*
X49778Y-39179D03*
X49778Y-39679D03*
X49778Y-40179D03*
X48527Y-40179D03*
X48527Y-39179D03*
G54D46*
X47678Y-38227D03*
X47894Y-38227D03*
G54D62*
X48777Y-38081D03*
X49033Y-38081D03*
X49289Y-38081D03*
X49289Y-37372D03*
X49033Y-37372D03*
X48777Y-37372D03*
G54D63*
X49775Y-37226D03*
X49775Y-37726D03*
X49775Y-38226D03*
X48524Y-38226D03*
X48524Y-37226D03*
G54D20*
X47275Y-27765D03*
X47629Y-27765D03*
G54D21*
X48835Y-27765D03*
X48205Y-27765D03*
G54D12*
X60980Y-43078D03*
X60980Y-44614D03*
X60480Y-43078D03*
X60480Y-44614D03*
X59980Y-43078D03*
X59980Y-44614D03*
X59480Y-43078D03*
X59480Y-44614D03*
X58980Y-43078D03*
X58980Y-44614D03*
G54D20*
X48905Y-44625D03*
X48905Y-44271D03*
X52566Y-52410D03*
X52212Y-52410D03*
X51975Y-47420D03*
X51975Y-47774D03*
M02*
