M48
;DRILL file {Pcbnew (2013-june-11)-stable} date Tue 10 Oct 2017 05:17:03 PM CEST
;FORMAT={-:-/ absolute / inch / decimal}
FMAT,2
INCH,TZ
T1C0.039
%
G90
G05
M72
T1
X4.3716Y-4.4129
X4.3716Y-4.4601
X4.3716Y-4.5073
X4.3716Y-4.5545
X4.7008Y-2.2991
X4.7037Y-5.4537
X4.748Y-2.2991
X4.7509Y-5.4537
X4.7952Y-2.2991
X4.7981Y-5.4537
X4.8424Y-2.2991
X4.8453Y-5.4537
X6.2338Y-5.4539
X6.281Y-5.4539
X6.2987Y-2.2989
X6.3282Y-5.4539
X6.3459Y-2.2989
X6.3754Y-5.4539
X6.3931Y-2.2989
X6.4403Y-2.2989
T0
M30
