G04 (created by PCBNEW (2013-june-11)-stable) date Tue 10 Oct 2017 05:17:01 PM CEST*
%MOIN*%
G04 Gerber Fmt 3.4, Leading zero omitted, Abs format*
%FSLAX34Y34*%
G01*
G70*
G90*
G04 APERTURE LIST*
%ADD10C,0.00590551*%
%ADD11C,0.00787402*%
%ADD12C,0.011811*%
%ADD13C,0.00984252*%
%ADD14C,0.019685*%
%ADD15C,0.0077*%
%ADD16C,0.0079*%
%ADD17C,0.006*%
%ADD18C,0.01*%
%ADD19C,0.005*%
%ADD20C,0.015748*%
%ADD21C,0.023622*%
%ADD22C,0.0039*%
%ADD23C,0.0117*%
%ADD24C,0.00492126*%
%ADD25C,0.0049*%
%ADD26C,0.00393701*%
%ADD27C,0.0078*%
G04 APERTURE END LIST*
G54D10*
G54D11*
X40574Y-57658D02*
X40583Y-57658D01*
X40574Y-19850D02*
X40574Y-57658D01*
X40575Y-19849D02*
X40575Y-19862D01*
X70460Y-19849D02*
X40575Y-19849D01*
X70460Y-19868D02*
X70460Y-19849D01*
X70460Y-57658D02*
X70460Y-19868D01*
X40575Y-57658D02*
X70460Y-57658D01*
X68894Y-23267D02*
X68906Y-23267D01*
X68890Y-53390D02*
X68902Y-53390D01*
X43087Y-57659D02*
X43087Y-57647D01*
X40561Y-53217D02*
X40573Y-53217D01*
X40565Y-23094D02*
X40577Y-23094D01*
X68472Y-19849D02*
X68472Y-19861D01*
X44228Y-19839D02*
X44228Y-19851D01*
X42134Y-45546D02*
X42132Y-45546D01*
X42134Y-56091D02*
X42134Y-45546D01*
X47037Y-56091D02*
X42134Y-56091D01*
X42132Y-45546D02*
X42132Y-56028D01*
X42140Y-44129D02*
X42137Y-44129D01*
X42140Y-21415D02*
X42140Y-44129D01*
X47009Y-21415D02*
X42140Y-21415D01*
X48421Y-21415D02*
X48421Y-21427D01*
X62986Y-21415D02*
X48421Y-21415D01*
X64402Y-21424D02*
X64402Y-21430D01*
X68891Y-21424D02*
X64402Y-21424D01*
X68891Y-56132D02*
X68891Y-21424D01*
X68891Y-56134D02*
X63758Y-56134D01*
X68891Y-53037D02*
X68891Y-56134D01*
X48452Y-56093D02*
X48452Y-56096D01*
X62337Y-56110D02*
X48453Y-56110D01*
X63753Y-54537D02*
X63753Y-54539D01*
X65949Y-54537D02*
X63753Y-54537D01*
X48423Y-22989D02*
X48423Y-22991D01*
X62988Y-22989D02*
X48423Y-22989D01*
X64404Y-22993D02*
X64404Y-22989D01*
X65944Y-22993D02*
X64404Y-22993D01*
X47009Y-22991D02*
X45088Y-22991D01*
X47037Y-54537D02*
X47037Y-54538D01*
X45099Y-54537D02*
X47037Y-54537D01*
X63759Y-56135D02*
X63759Y-54560D01*
X62336Y-56109D02*
X62336Y-54534D01*
X62337Y-54539D02*
X54171Y-54539D01*
X63754Y-54538D02*
X63754Y-54539D01*
X62986Y-22990D02*
X62986Y-21415D01*
X64402Y-23001D02*
X64402Y-21426D01*
X64403Y-22990D02*
X64403Y-22989D01*
X48453Y-54536D02*
X48453Y-54537D01*
X59734Y-54536D02*
X48453Y-54536D01*
X43713Y-45545D02*
X43715Y-45545D01*
X43713Y-53156D02*
X43713Y-45545D01*
X43714Y-44133D02*
X43715Y-44133D01*
X43714Y-24370D02*
X43714Y-44133D01*
X48424Y-22992D02*
X48424Y-22991D01*
X43722Y-44129D02*
X42147Y-44129D01*
X43704Y-45546D02*
X42129Y-45546D01*
X47035Y-56091D02*
X47035Y-54516D01*
X48452Y-56109D02*
X48452Y-54534D01*
X48421Y-22997D02*
X48421Y-21422D01*
X47007Y-22992D02*
X47007Y-21417D01*
G54D12*
X44542Y-49596D02*
X44260Y-49793D01*
X44542Y-49933D02*
X43951Y-49933D01*
X43951Y-49708D01*
X43979Y-49652D01*
X44007Y-49624D01*
X44063Y-49596D01*
X44148Y-49596D01*
X44204Y-49624D01*
X44232Y-49652D01*
X44260Y-49708D01*
X44260Y-49933D01*
X44513Y-49371D02*
X44542Y-49287D01*
X44542Y-49146D01*
X44513Y-49090D01*
X44485Y-49062D01*
X44429Y-49033D01*
X44373Y-49033D01*
X44317Y-49062D01*
X44288Y-49090D01*
X44260Y-49146D01*
X44232Y-49258D01*
X44204Y-49315D01*
X44176Y-49343D01*
X44120Y-49371D01*
X44063Y-49371D01*
X44007Y-49343D01*
X43979Y-49315D01*
X43951Y-49258D01*
X43951Y-49118D01*
X43979Y-49033D01*
X43951Y-48865D02*
X43951Y-48527D01*
X44542Y-48696D02*
X43951Y-48696D01*
X59444Y-33539D02*
X59163Y-33539D01*
X59163Y-32948D01*
X59641Y-33539D02*
X59641Y-32948D01*
X59837Y-33370D01*
X60034Y-32948D01*
X60034Y-33539D01*
X60287Y-33510D02*
X60372Y-33539D01*
X60512Y-33539D01*
X60569Y-33510D01*
X60597Y-33482D01*
X60625Y-33426D01*
X60625Y-33370D01*
X60597Y-33314D01*
X60569Y-33285D01*
X60512Y-33257D01*
X60400Y-33229D01*
X60344Y-33201D01*
X60316Y-33173D01*
X60287Y-33117D01*
X60287Y-33060D01*
X60316Y-33004D01*
X60344Y-32976D01*
X60400Y-32948D01*
X60540Y-32948D01*
X60625Y-32976D01*
X60962Y-33201D02*
X60906Y-33173D01*
X60878Y-33145D01*
X60850Y-33089D01*
X60850Y-33060D01*
X60878Y-33004D01*
X60906Y-32976D01*
X60962Y-32948D01*
X61075Y-32948D01*
X61131Y-32976D01*
X61159Y-33004D01*
X61187Y-33060D01*
X61187Y-33089D01*
X61159Y-33145D01*
X61131Y-33173D01*
X61075Y-33201D01*
X60962Y-33201D01*
X60906Y-33229D01*
X60878Y-33257D01*
X60850Y-33314D01*
X60850Y-33426D01*
X60878Y-33482D01*
X60906Y-33510D01*
X60962Y-33539D01*
X61075Y-33539D01*
X61131Y-33510D01*
X61159Y-33482D01*
X61187Y-33426D01*
X61187Y-33314D01*
X61159Y-33257D01*
X61131Y-33229D01*
X61075Y-33201D01*
X61553Y-32948D02*
X61609Y-32948D01*
X61665Y-32976D01*
X61693Y-33004D01*
X61722Y-33060D01*
X61750Y-33173D01*
X61750Y-33314D01*
X61722Y-33426D01*
X61693Y-33482D01*
X61665Y-33510D01*
X61609Y-33539D01*
X61553Y-33539D01*
X61497Y-33510D01*
X61469Y-33482D01*
X61440Y-33426D01*
X61412Y-33314D01*
X61412Y-33173D01*
X61440Y-33060D01*
X61469Y-33004D01*
X61497Y-32976D01*
X61553Y-32948D01*
X62115Y-32948D02*
X62172Y-32948D01*
X62228Y-32976D01*
X62256Y-33004D01*
X62284Y-33060D01*
X62312Y-33173D01*
X62312Y-33314D01*
X62284Y-33426D01*
X62256Y-33482D01*
X62228Y-33510D01*
X62172Y-33539D01*
X62115Y-33539D01*
X62059Y-33510D01*
X62031Y-33482D01*
X62003Y-33426D01*
X61975Y-33314D01*
X61975Y-33173D01*
X62003Y-33060D01*
X62031Y-33004D01*
X62059Y-32976D01*
X62115Y-32948D01*
X62875Y-33539D02*
X62537Y-33539D01*
X62706Y-33539D02*
X62706Y-32948D01*
X62650Y-33032D01*
X62593Y-33089D01*
X62537Y-33117D01*
X46629Y-27259D02*
X46348Y-27259D01*
X46348Y-26668D01*
X46826Y-27259D02*
X46826Y-26668D01*
X47023Y-27090D01*
X47220Y-26668D01*
X47220Y-27259D01*
X47473Y-27230D02*
X47557Y-27259D01*
X47698Y-27259D01*
X47754Y-27230D01*
X47782Y-27202D01*
X47811Y-27146D01*
X47811Y-27090D01*
X47782Y-27034D01*
X47754Y-27005D01*
X47698Y-26977D01*
X47586Y-26949D01*
X47529Y-26921D01*
X47501Y-26893D01*
X47473Y-26837D01*
X47473Y-26780D01*
X47501Y-26724D01*
X47529Y-26696D01*
X47586Y-26668D01*
X47726Y-26668D01*
X47811Y-26696D01*
X48148Y-26921D02*
X48092Y-26893D01*
X48064Y-26865D01*
X48035Y-26809D01*
X48035Y-26780D01*
X48064Y-26724D01*
X48092Y-26696D01*
X48148Y-26668D01*
X48260Y-26668D01*
X48317Y-26696D01*
X48345Y-26724D01*
X48373Y-26780D01*
X48373Y-26809D01*
X48345Y-26865D01*
X48317Y-26893D01*
X48260Y-26921D01*
X48148Y-26921D01*
X48092Y-26949D01*
X48064Y-26977D01*
X48035Y-27034D01*
X48035Y-27146D01*
X48064Y-27202D01*
X48092Y-27230D01*
X48148Y-27259D01*
X48260Y-27259D01*
X48317Y-27230D01*
X48345Y-27202D01*
X48373Y-27146D01*
X48373Y-27034D01*
X48345Y-26977D01*
X48317Y-26949D01*
X48260Y-26921D01*
X48485Y-27315D02*
X48935Y-27315D01*
X49076Y-27259D02*
X49076Y-26668D01*
X49301Y-26668D01*
X49357Y-26696D01*
X49385Y-26724D01*
X49413Y-26780D01*
X49413Y-26865D01*
X49385Y-26921D01*
X49357Y-26949D01*
X49301Y-26977D01*
X49076Y-26977D01*
X49610Y-26668D02*
X49751Y-27259D01*
X49863Y-26837D01*
X49976Y-27259D01*
X50116Y-26668D01*
X50679Y-27259D02*
X50482Y-26977D01*
X50341Y-27259D02*
X50341Y-26668D01*
X50566Y-26668D01*
X50623Y-26696D01*
X50651Y-26724D01*
X50679Y-26780D01*
X50679Y-26865D01*
X50651Y-26921D01*
X50623Y-26949D01*
X50566Y-26977D01*
X50341Y-26977D01*
X45194Y-41067D02*
X45222Y-41095D01*
X45251Y-41179D01*
X45251Y-41236D01*
X45222Y-41320D01*
X45166Y-41376D01*
X45110Y-41404D01*
X44997Y-41433D01*
X44913Y-41433D01*
X44801Y-41404D01*
X44744Y-41376D01*
X44688Y-41320D01*
X44660Y-41236D01*
X44660Y-41179D01*
X44688Y-41095D01*
X44716Y-41067D01*
X45251Y-40814D02*
X44660Y-40814D01*
X44941Y-40814D02*
X44941Y-40476D01*
X45251Y-40476D02*
X44660Y-40476D01*
X44941Y-39998D02*
X44969Y-39914D01*
X44997Y-39886D01*
X45054Y-39858D01*
X45138Y-39858D01*
X45194Y-39886D01*
X45222Y-39914D01*
X45251Y-39970D01*
X45251Y-40195D01*
X44660Y-40195D01*
X44660Y-39998D01*
X44688Y-39942D01*
X44716Y-39914D01*
X44772Y-39886D01*
X44829Y-39886D01*
X44885Y-39914D01*
X44913Y-39942D01*
X44941Y-39998D01*
X44941Y-40195D01*
X45251Y-39605D02*
X44660Y-39605D01*
X45208Y-38491D02*
X45236Y-38519D01*
X45265Y-38603D01*
X45265Y-38659D01*
X45236Y-38744D01*
X45180Y-38800D01*
X45124Y-38828D01*
X45011Y-38856D01*
X44927Y-38856D01*
X44815Y-38828D01*
X44758Y-38800D01*
X44702Y-38744D01*
X44674Y-38659D01*
X44674Y-38603D01*
X44702Y-38519D01*
X44730Y-38491D01*
X45265Y-38238D02*
X44674Y-38238D01*
X44955Y-38238D02*
X44955Y-37900D01*
X45265Y-37900D02*
X44674Y-37900D01*
X45096Y-37647D02*
X45096Y-37366D01*
X45265Y-37703D02*
X44674Y-37506D01*
X45265Y-37310D01*
X45265Y-37113D02*
X44674Y-37113D01*
X58248Y-47102D02*
X58220Y-47130D01*
X58136Y-47159D01*
X58080Y-47159D01*
X57995Y-47130D01*
X57939Y-47074D01*
X57911Y-47018D01*
X57883Y-46905D01*
X57883Y-46821D01*
X57911Y-46709D01*
X57939Y-46652D01*
X57995Y-46596D01*
X58080Y-46568D01*
X58136Y-46568D01*
X58220Y-46596D01*
X58248Y-46624D01*
X58501Y-47159D02*
X58501Y-46568D01*
X58501Y-46849D02*
X58839Y-46849D01*
X58839Y-47159D02*
X58839Y-46568D01*
X59458Y-47102D02*
X59429Y-47130D01*
X59345Y-47159D01*
X59289Y-47159D01*
X59204Y-47130D01*
X59148Y-47074D01*
X59120Y-47018D01*
X59092Y-46905D01*
X59092Y-46821D01*
X59120Y-46709D01*
X59148Y-46652D01*
X59204Y-46596D01*
X59289Y-46568D01*
X59345Y-46568D01*
X59429Y-46596D01*
X59458Y-46624D01*
X59823Y-46568D02*
X59936Y-46568D01*
X59992Y-46596D01*
X60048Y-46652D01*
X60076Y-46765D01*
X60076Y-46962D01*
X60048Y-47074D01*
X59992Y-47130D01*
X59936Y-47159D01*
X59823Y-47159D01*
X59767Y-47130D01*
X59711Y-47074D01*
X59683Y-46962D01*
X59683Y-46765D01*
X59711Y-46652D01*
X59767Y-46596D01*
X59823Y-46568D01*
X57137Y-30576D02*
X57109Y-30604D01*
X57025Y-30633D01*
X56969Y-30633D01*
X56884Y-30604D01*
X56828Y-30548D01*
X56800Y-30492D01*
X56772Y-30379D01*
X56772Y-30295D01*
X56800Y-30183D01*
X56828Y-30126D01*
X56884Y-30070D01*
X56969Y-30042D01*
X57025Y-30042D01*
X57109Y-30070D01*
X57137Y-30098D01*
X57390Y-30633D02*
X57390Y-30042D01*
X57390Y-30323D02*
X57728Y-30323D01*
X57728Y-30633D02*
X57728Y-30042D01*
X58009Y-30633D02*
X58009Y-30042D01*
X58150Y-30042D01*
X58234Y-30070D01*
X58290Y-30126D01*
X58318Y-30183D01*
X58347Y-30295D01*
X58347Y-30379D01*
X58318Y-30492D01*
X58290Y-30548D01*
X58234Y-30604D01*
X58150Y-30633D01*
X58009Y-30633D01*
X58712Y-30042D02*
X58825Y-30042D01*
X58881Y-30070D01*
X58937Y-30126D01*
X58965Y-30239D01*
X58965Y-30436D01*
X58937Y-30548D01*
X58881Y-30604D01*
X58825Y-30633D01*
X58712Y-30633D01*
X58656Y-30604D01*
X58600Y-30548D01*
X58572Y-30436D01*
X58572Y-30239D01*
X58600Y-30126D01*
X58656Y-30070D01*
X58712Y-30042D01*
X62298Y-44759D02*
X62298Y-44168D01*
X62495Y-44590D01*
X62692Y-44168D01*
X62692Y-44759D01*
X63310Y-44702D02*
X63282Y-44730D01*
X63198Y-44759D01*
X63142Y-44759D01*
X63057Y-44730D01*
X63001Y-44674D01*
X62973Y-44618D01*
X62945Y-44505D01*
X62945Y-44421D01*
X62973Y-44309D01*
X63001Y-44252D01*
X63057Y-44196D01*
X63142Y-44168D01*
X63198Y-44168D01*
X63282Y-44196D01*
X63310Y-44224D01*
X63564Y-44168D02*
X63564Y-44646D01*
X63592Y-44702D01*
X63620Y-44730D01*
X63676Y-44759D01*
X63788Y-44759D01*
X63845Y-44730D01*
X63873Y-44702D01*
X63901Y-44646D01*
X63901Y-44168D01*
X64042Y-44815D02*
X64492Y-44815D01*
X64632Y-44759D02*
X64632Y-44168D01*
X64857Y-44168D01*
X64913Y-44196D01*
X64941Y-44224D01*
X64970Y-44280D01*
X64970Y-44365D01*
X64941Y-44421D01*
X64913Y-44449D01*
X64857Y-44477D01*
X64632Y-44477D01*
X65166Y-44168D02*
X65307Y-44759D01*
X65420Y-44337D01*
X65532Y-44759D01*
X65673Y-44168D01*
X66235Y-44759D02*
X66038Y-44477D01*
X65898Y-44759D02*
X65898Y-44168D01*
X66123Y-44168D01*
X66179Y-44196D01*
X66207Y-44224D01*
X66235Y-44280D01*
X66235Y-44365D01*
X66207Y-44421D01*
X66179Y-44449D01*
X66123Y-44477D01*
X65898Y-44477D01*
G54D11*
X43713Y-53157D02*
G75*
G03X45091Y-54535I1377J0D01*
G74*
G01*
X65950Y-54536D02*
G75*
G03X67328Y-53158I0J1377D01*
G74*
G01*
G54D12*
X54056Y-27268D02*
X54253Y-27268D01*
X54338Y-27577D02*
X54056Y-27577D01*
X54056Y-26987D01*
X54338Y-26987D01*
X54534Y-26987D02*
X54928Y-27577D01*
X54928Y-26987D02*
X54534Y-27577D01*
X55069Y-26987D02*
X55406Y-26987D01*
X55237Y-27577D02*
X55237Y-26987D01*
X55462Y-27633D02*
X55912Y-27633D01*
X56334Y-27577D02*
X56053Y-27577D01*
X56053Y-26987D01*
X56868Y-27521D02*
X56840Y-27549D01*
X56756Y-27577D01*
X56700Y-27577D01*
X56615Y-27549D01*
X56559Y-27493D01*
X56531Y-27437D01*
X56503Y-27324D01*
X56503Y-27240D01*
X56531Y-27127D01*
X56559Y-27071D01*
X56615Y-27015D01*
X56700Y-26987D01*
X56756Y-26987D01*
X56840Y-27015D01*
X56868Y-27043D01*
X57122Y-27577D02*
X57122Y-26987D01*
X57459Y-27577D02*
X57206Y-27240D01*
X57459Y-26987D02*
X57122Y-27324D01*
X63122Y-27614D02*
X63122Y-27417D01*
X63431Y-27332D02*
X63431Y-27614D01*
X62841Y-27614D01*
X62841Y-27332D01*
X62841Y-27136D02*
X63431Y-26742D01*
X62841Y-26742D02*
X63431Y-27136D01*
X62841Y-26601D02*
X62841Y-26264D01*
X63431Y-26433D02*
X62841Y-26433D01*
X63487Y-26208D02*
X63487Y-25758D01*
X63431Y-25280D02*
X63150Y-25476D01*
X63431Y-25617D02*
X62841Y-25617D01*
X62841Y-25392D01*
X62869Y-25336D01*
X62897Y-25308D01*
X62953Y-25280D01*
X63037Y-25280D01*
X63094Y-25308D01*
X63122Y-25336D01*
X63150Y-25392D01*
X63150Y-25617D01*
X63122Y-25026D02*
X63122Y-24830D01*
X63431Y-24745D02*
X63431Y-25026D01*
X62841Y-25026D01*
X62841Y-24745D01*
X63122Y-24295D02*
X63122Y-24492D01*
X63431Y-24492D02*
X62841Y-24492D01*
X62841Y-24211D01*
G54D11*
X45091Y-22991D02*
G75*
G03X43713Y-24369I0J-1377D01*
G74*
G01*
X67327Y-24370D02*
G75*
G03X65949Y-22992I-1377J0D01*
G74*
G01*
X67328Y-24372D02*
X67328Y-53149D01*
G54D12*
X65355Y-31598D02*
X65326Y-31626D01*
X65242Y-31655D01*
X65186Y-31655D01*
X65101Y-31626D01*
X65045Y-31570D01*
X65017Y-31514D01*
X64989Y-31401D01*
X64989Y-31317D01*
X65017Y-31205D01*
X65045Y-31148D01*
X65101Y-31092D01*
X65186Y-31064D01*
X65242Y-31064D01*
X65326Y-31092D01*
X65355Y-31120D01*
X65608Y-31655D02*
X65608Y-31064D01*
X65608Y-31345D02*
X65945Y-31345D01*
X65945Y-31655D02*
X65945Y-31064D01*
X66198Y-31486D02*
X66479Y-31486D01*
X66142Y-31655D02*
X66339Y-31064D01*
X66536Y-31655D01*
X66845Y-31064D02*
X66957Y-31064D01*
X67014Y-31092D01*
X67070Y-31148D01*
X67098Y-31261D01*
X67098Y-31458D01*
X67070Y-31570D01*
X67014Y-31626D01*
X66957Y-31655D01*
X66845Y-31655D01*
X66789Y-31626D01*
X66732Y-31570D01*
X66704Y-31458D01*
X66704Y-31261D01*
X66732Y-31148D01*
X66789Y-31092D01*
X66845Y-31064D01*
X63387Y-42982D02*
X63359Y-43010D01*
X63275Y-43039D01*
X63218Y-43039D01*
X63134Y-43010D01*
X63078Y-42954D01*
X63050Y-42898D01*
X63021Y-42785D01*
X63021Y-42701D01*
X63050Y-42589D01*
X63078Y-42532D01*
X63134Y-42476D01*
X63218Y-42448D01*
X63275Y-42448D01*
X63359Y-42476D01*
X63387Y-42504D01*
X63640Y-43039D02*
X63640Y-42448D01*
X63640Y-42729D02*
X63978Y-42729D01*
X63978Y-43039D02*
X63978Y-42448D01*
X64596Y-42982D02*
X64568Y-43010D01*
X64484Y-43039D01*
X64428Y-43039D01*
X64343Y-43010D01*
X64287Y-42954D01*
X64259Y-42898D01*
X64231Y-42785D01*
X64231Y-42701D01*
X64259Y-42589D01*
X64287Y-42532D01*
X64343Y-42476D01*
X64428Y-42448D01*
X64484Y-42448D01*
X64568Y-42476D01*
X64596Y-42504D01*
X64849Y-43039D02*
X64849Y-42448D01*
X63108Y-47426D02*
X63080Y-47454D01*
X62996Y-47483D01*
X62940Y-47483D01*
X62855Y-47454D01*
X62799Y-47398D01*
X62771Y-47342D01*
X62743Y-47229D01*
X62743Y-47145D01*
X62771Y-47033D01*
X62799Y-46976D01*
X62855Y-46920D01*
X62940Y-46892D01*
X62996Y-46892D01*
X63080Y-46920D01*
X63108Y-46948D01*
X63361Y-47483D02*
X63361Y-46892D01*
X63361Y-47173D02*
X63699Y-47173D01*
X63699Y-47483D02*
X63699Y-46892D01*
X64177Y-47173D02*
X64261Y-47201D01*
X64289Y-47229D01*
X64318Y-47286D01*
X64318Y-47370D01*
X64289Y-47426D01*
X64261Y-47454D01*
X64205Y-47483D01*
X63980Y-47483D01*
X63980Y-46892D01*
X64177Y-46892D01*
X64233Y-46920D01*
X64261Y-46948D01*
X64289Y-47004D01*
X64289Y-47061D01*
X64261Y-47117D01*
X64233Y-47145D01*
X64177Y-47173D01*
X63980Y-47173D01*
X64683Y-46892D02*
X64796Y-46892D01*
X64852Y-46920D01*
X64908Y-46976D01*
X64936Y-47089D01*
X64936Y-47286D01*
X64908Y-47398D01*
X64852Y-47454D01*
X64796Y-47483D01*
X64683Y-47483D01*
X64627Y-47454D01*
X64571Y-47398D01*
X64543Y-47286D01*
X64543Y-47089D01*
X64571Y-46976D01*
X64627Y-46920D01*
X64683Y-46892D01*
X65525Y-33578D02*
X65497Y-33606D01*
X65413Y-33635D01*
X65356Y-33635D01*
X65272Y-33606D01*
X65216Y-33550D01*
X65188Y-33494D01*
X65159Y-33381D01*
X65159Y-33297D01*
X65188Y-33185D01*
X65216Y-33128D01*
X65272Y-33072D01*
X65356Y-33044D01*
X65413Y-33044D01*
X65497Y-33072D01*
X65525Y-33100D01*
X65778Y-33635D02*
X65778Y-33044D01*
X65778Y-33325D02*
X66116Y-33325D01*
X66116Y-33635D02*
X66116Y-33044D01*
X66397Y-33635D02*
X66397Y-33044D01*
X66537Y-33044D01*
X66622Y-33072D01*
X66678Y-33128D01*
X66706Y-33185D01*
X66734Y-33297D01*
X66734Y-33381D01*
X66706Y-33494D01*
X66678Y-33550D01*
X66622Y-33606D01*
X66537Y-33635D01*
X66397Y-33635D01*
X66987Y-33635D02*
X66987Y-33044D01*
G54D10*
X51647Y-49626D02*
X51647Y-46949D01*
X51647Y-46949D02*
X51490Y-46791D01*
X51490Y-46791D02*
X48970Y-46791D01*
X48970Y-46791D02*
X48970Y-49626D01*
X48970Y-49626D02*
X51647Y-49626D01*
G54D11*
X46549Y-28729D02*
X46549Y-31485D01*
X46549Y-31485D02*
X49305Y-31485D01*
X49305Y-31485D02*
X49305Y-28729D01*
X49305Y-28729D02*
X46549Y-28729D01*
G54D13*
X60761Y-25542D02*
X61117Y-24970D01*
X60759Y-26134D02*
X61115Y-26706D01*
X62553Y-26700D02*
X62553Y-26128D01*
X62193Y-26700D02*
X62553Y-26700D01*
X62183Y-24970D02*
X62543Y-24970D01*
X62543Y-24970D02*
X62543Y-25542D01*
G54D14*
X47602Y-33561D02*
G75*
G03X47602Y-33561I-63J0D01*
G74*
G01*
G54D10*
X47214Y-33836D02*
X48766Y-33836D01*
X47208Y-36198D02*
X47208Y-33836D01*
X47208Y-36198D02*
X48783Y-36198D01*
X48783Y-36198D02*
X48783Y-33836D01*
G54D15*
X63271Y-45156D02*
X63271Y-45312D01*
G54D11*
X64935Y-45001D02*
X64935Y-45473D01*
X63714Y-45001D02*
X63714Y-45473D01*
X63714Y-45473D02*
X64817Y-45473D01*
X64817Y-45473D02*
X64817Y-45001D01*
X64817Y-45001D02*
X63714Y-45001D01*
G54D16*
X58232Y-52876D02*
X58546Y-52876D01*
X58232Y-52452D02*
X58546Y-52452D01*
G54D15*
X58582Y-53278D02*
X58582Y-53122D01*
X63478Y-52312D02*
X63478Y-52468D01*
X63478Y-51979D02*
X63478Y-52135D01*
X46974Y-49164D02*
X46974Y-49008D01*
X46974Y-50561D02*
X46974Y-50405D01*
X46974Y-49872D02*
X46974Y-49716D01*
G54D17*
X57488Y-50653D02*
X57238Y-50403D01*
X57988Y-50653D02*
X57488Y-50653D01*
X58238Y-50403D02*
X57988Y-50653D01*
X58238Y-49903D02*
X58238Y-50403D01*
X57988Y-49653D02*
X58238Y-49903D01*
X57488Y-49653D02*
X57988Y-49653D01*
X57238Y-49903D02*
X57488Y-49653D01*
X57238Y-49917D02*
X57238Y-50389D01*
X56234Y-49917D02*
X56234Y-50389D01*
X55484Y-49653D02*
X55984Y-49653D01*
X55984Y-49653D02*
X56234Y-49903D01*
X56234Y-49903D02*
X56484Y-49653D01*
X56484Y-49653D02*
X56984Y-49653D01*
X56984Y-49653D02*
X57234Y-49903D01*
X57234Y-49903D02*
X57234Y-50403D01*
X57234Y-50403D02*
X56984Y-50653D01*
X56984Y-50653D02*
X56484Y-50653D01*
X56484Y-50653D02*
X56234Y-50403D01*
X56234Y-50403D02*
X55984Y-50653D01*
X55984Y-50653D02*
X55484Y-50653D01*
X55484Y-50653D02*
X55234Y-50403D01*
X55234Y-50403D02*
X55234Y-49903D01*
X55234Y-49903D02*
X55484Y-49653D01*
G54D18*
X53987Y-51282D02*
X57530Y-51282D01*
X57530Y-54067D02*
X53987Y-54067D01*
X53987Y-54067D02*
X53987Y-51282D01*
X57530Y-51282D02*
X57530Y-54067D01*
G54D19*
X59797Y-54498D02*
X59797Y-54538D01*
X59797Y-54538D02*
X62789Y-54538D01*
X62789Y-54538D02*
X62789Y-54498D01*
X62789Y-54459D02*
X62789Y-54498D01*
X62789Y-52805D02*
X62395Y-52805D01*
X62395Y-52805D02*
X62395Y-53829D01*
X62395Y-53829D02*
X62789Y-53829D01*
X62789Y-53829D02*
X62789Y-54459D01*
X62159Y-51034D02*
X62317Y-51034D01*
X62317Y-51034D02*
X62317Y-51742D01*
X62317Y-51742D02*
X62789Y-51742D01*
X62789Y-51742D02*
X62789Y-52805D01*
X60230Y-51742D02*
X60230Y-51034D01*
X60230Y-51034D02*
X60466Y-51034D01*
X59797Y-54498D02*
X59797Y-53829D01*
X59797Y-53829D02*
X60191Y-53829D01*
X60191Y-53829D02*
X60191Y-52805D01*
X60191Y-52805D02*
X59797Y-52805D01*
X59797Y-52805D02*
X59797Y-51742D01*
X59797Y-51742D02*
X60230Y-51742D01*
X59817Y-54049D02*
X60424Y-54049D01*
X60562Y-53911D02*
X60562Y-53894D01*
X60562Y-53894D02*
X60629Y-52448D01*
X60513Y-52443D02*
X60424Y-53778D01*
X60231Y-53773D02*
X60143Y-52432D01*
X60093Y-52387D02*
X59817Y-52387D01*
X60866Y-52404D02*
X60783Y-53988D01*
X60888Y-53994D02*
X60954Y-52768D01*
X61125Y-52597D02*
X61472Y-52597D01*
X61638Y-52763D02*
X61638Y-52790D01*
X61638Y-52790D02*
X61693Y-53988D01*
X61803Y-53988D02*
X61720Y-52415D01*
X61577Y-52272D02*
X60998Y-52272D01*
X62769Y-54049D02*
X62162Y-54049D01*
X62024Y-53911D02*
X62024Y-53894D01*
X62024Y-53894D02*
X61958Y-52448D01*
X62074Y-52443D02*
X62162Y-53778D01*
X62355Y-53773D02*
X62443Y-52432D01*
X62493Y-52387D02*
X62769Y-52387D01*
X60424Y-54049D02*
G75*
G03X60562Y-53911I0J138D01*
G74*
G01*
X60629Y-52446D02*
G75*
G03X60513Y-52443I-58J1D01*
G74*
G01*
X60232Y-53773D02*
G75*
G03X60424Y-53778I96J1D01*
G74*
G01*
X60144Y-52431D02*
G75*
G03X60093Y-52387I-47J-3D01*
G74*
G01*
X60998Y-52272D02*
G75*
G03X60866Y-52404I0J-131D01*
G74*
G01*
X60784Y-53988D02*
G75*
G03X60888Y-53994I52J-2D01*
G74*
G01*
X61125Y-52597D02*
G75*
G03X60954Y-52768I0J-171D01*
G74*
G01*
X61638Y-52763D02*
G75*
G03X61472Y-52597I-166J0D01*
G74*
G01*
X61693Y-53987D02*
G75*
G03X61803Y-53988I55J2D01*
G74*
G01*
X61720Y-52415D02*
G75*
G03X61577Y-52272I-143J0D01*
G74*
G01*
X62024Y-53911D02*
G75*
G03X62162Y-54049I137J0D01*
G74*
G01*
X62074Y-52441D02*
G75*
G03X61958Y-52448I-57J-3D01*
G74*
G01*
X62161Y-53778D02*
G75*
G03X62355Y-53773I96J6D01*
G74*
G01*
X62493Y-52387D02*
G75*
G03X62443Y-52432I-2J-48D01*
G74*
G01*
G54D11*
X45301Y-49322D02*
X45301Y-48849D01*
X46522Y-49322D02*
X46522Y-48849D01*
X46522Y-48849D02*
X45419Y-48849D01*
X45419Y-48849D02*
X45419Y-49322D01*
X45419Y-49322D02*
X46522Y-49322D01*
X45301Y-50031D02*
X45301Y-49558D01*
X46522Y-50031D02*
X46522Y-49558D01*
X46522Y-49558D02*
X45419Y-49558D01*
X45419Y-49558D02*
X45419Y-50031D01*
X45419Y-50031D02*
X46522Y-50031D01*
X45301Y-50720D02*
X45301Y-50247D01*
X46522Y-50720D02*
X46522Y-50247D01*
X46522Y-50247D02*
X45419Y-50247D01*
X45419Y-50247D02*
X45419Y-50720D01*
X45419Y-50720D02*
X46522Y-50720D01*
G54D14*
X46362Y-48225D02*
G75*
G03X46362Y-48225I-45J0D01*
G74*
G01*
G54D13*
X47307Y-47574D02*
X47307Y-46984D01*
X46125Y-47574D02*
X46125Y-46984D01*
G54D15*
X48148Y-41909D02*
X47992Y-41909D01*
X47964Y-52538D02*
X48120Y-52538D01*
X51580Y-52593D02*
X51580Y-52437D01*
X49136Y-53572D02*
X48980Y-53572D01*
X48120Y-53216D02*
X47964Y-53216D01*
X49400Y-41917D02*
X49400Y-41761D01*
X46421Y-46178D02*
X46265Y-46178D01*
X46265Y-45823D02*
X46421Y-45823D01*
X47633Y-44774D02*
X47477Y-44774D01*
X47477Y-44420D02*
X47633Y-44420D01*
X46711Y-43000D02*
X46555Y-43000D01*
X46090Y-43099D02*
X46090Y-43255D01*
X49911Y-41666D02*
X50067Y-41666D01*
X48953Y-42305D02*
X48953Y-42149D01*
X51182Y-53494D02*
X51182Y-53650D01*
X48984Y-52868D02*
X49140Y-52868D01*
X49812Y-42145D02*
X49812Y-42301D01*
X46050Y-42574D02*
X45776Y-42574D01*
X46311Y-45337D02*
X46311Y-45063D01*
X47266Y-44807D02*
X46992Y-44807D01*
X45581Y-46220D02*
X45307Y-46220D01*
X45208Y-45345D02*
X45208Y-45071D01*
G54D16*
X51230Y-53254D02*
X51544Y-53254D01*
X51230Y-52830D02*
X51544Y-52830D01*
G54D12*
X45356Y-44915D02*
G75*
G03X45356Y-44915I-39J0D01*
G74*
G01*
G54D10*
X45278Y-43664D02*
X45278Y-43546D01*
X45278Y-43546D02*
X45396Y-43546D01*
X46459Y-43664D02*
X46459Y-43546D01*
X46459Y-43546D02*
X46341Y-43546D01*
X46341Y-44727D02*
X46459Y-44727D01*
X46459Y-44727D02*
X46459Y-44609D01*
X45278Y-44609D02*
X45278Y-44727D01*
X45278Y-44727D02*
X45396Y-44727D01*
G54D11*
X53606Y-53175D02*
G75*
G03X53606Y-53175I-27J0D01*
G74*
G01*
X53460Y-53253D02*
X53460Y-52643D01*
X53460Y-52643D02*
X52417Y-52643D01*
X52417Y-52643D02*
X52417Y-53312D01*
X52417Y-53312D02*
X53460Y-53312D01*
X53460Y-53312D02*
X53460Y-53253D01*
G54D19*
X52487Y-52019D02*
X53387Y-52019D01*
X53387Y-52019D02*
X53387Y-51369D01*
X52487Y-50669D02*
X52487Y-50019D01*
X52487Y-50019D02*
X53387Y-50019D01*
X53387Y-50019D02*
X53387Y-50669D01*
X52487Y-51369D02*
X52487Y-52019D01*
G54D20*
X49517Y-52559D02*
G75*
G03X49517Y-52559I-53J0D01*
G74*
G01*
G54D13*
X49379Y-53983D02*
X49379Y-54061D01*
X50639Y-53983D02*
X50639Y-54061D01*
X50639Y-52801D02*
X50639Y-52879D01*
X49379Y-52801D02*
X49379Y-52879D01*
X49379Y-54061D02*
X50639Y-54061D01*
X49379Y-52801D02*
X50639Y-52801D01*
G54D20*
X50184Y-42670D02*
G75*
G03X50184Y-42670I-53J0D01*
G74*
G01*
G54D13*
X48702Y-42562D02*
X48624Y-42562D01*
X48702Y-43822D02*
X48624Y-43822D01*
X49884Y-43822D02*
X49806Y-43822D01*
X49884Y-42562D02*
X49806Y-42562D01*
X48625Y-42562D02*
X48625Y-43822D01*
X49884Y-42562D02*
X49884Y-43822D01*
G54D21*
X44282Y-31591D02*
G75*
G03X44282Y-31591I-91J0D01*
G74*
G01*
G54D13*
X46930Y-31756D02*
X44490Y-31756D01*
X44490Y-31756D02*
X44490Y-34590D01*
X44490Y-34590D02*
X46930Y-34590D01*
X46930Y-34590D02*
X46930Y-31756D01*
G54D15*
X48559Y-32381D02*
X48833Y-32381D01*
X48107Y-32389D02*
X48381Y-32389D01*
X46076Y-31495D02*
X46076Y-31339D01*
X47125Y-31903D02*
X47281Y-31903D01*
X47932Y-31903D02*
X47776Y-31903D01*
X47603Y-31903D02*
X47447Y-31903D01*
X47219Y-32712D02*
X47375Y-32712D01*
X48595Y-33417D02*
X48751Y-33417D01*
X48436Y-33417D02*
X48280Y-33417D01*
X48121Y-33417D02*
X47965Y-33417D01*
X47135Y-36389D02*
X47135Y-36545D01*
X46171Y-35101D02*
X46171Y-34945D01*
X47489Y-36543D02*
X47489Y-36387D01*
X48936Y-35076D02*
X49092Y-35076D01*
X46525Y-34945D02*
X46525Y-35101D01*
X47219Y-33066D02*
X47375Y-33066D01*
X46521Y-35497D02*
X46521Y-35341D01*
X56614Y-26579D02*
X56614Y-26423D01*
G54D11*
X54881Y-26740D02*
X54881Y-26267D01*
X56102Y-26740D02*
X56102Y-26267D01*
X56102Y-26267D02*
X55000Y-26267D01*
X55000Y-26267D02*
X55000Y-26740D01*
X55000Y-26740D02*
X56102Y-26740D01*
G54D15*
X49133Y-52066D02*
X48977Y-52066D01*
X49503Y-52066D02*
X49347Y-52066D01*
G54D10*
X45085Y-47690D02*
G75*
G03X45085Y-47690I-275J0D01*
G74*
G01*
X45243Y-48319D02*
X45400Y-48319D01*
X45400Y-48319D02*
X45400Y-47060D01*
X45400Y-47060D02*
X45243Y-47060D01*
X44376Y-48319D02*
X44219Y-48319D01*
X44219Y-48319D02*
X44219Y-47060D01*
X44219Y-47060D02*
X44376Y-47060D01*
G54D18*
X52240Y-51606D02*
X52240Y-49913D01*
X52240Y-49913D02*
X48382Y-49913D01*
X48382Y-49913D02*
X48382Y-51606D01*
X48382Y-51606D02*
X52240Y-51606D01*
G54D13*
X47416Y-40474D02*
X47060Y-41046D01*
X47418Y-39882D02*
X47062Y-39310D01*
X45624Y-39316D02*
X45624Y-39888D01*
X45984Y-39316D02*
X45624Y-39316D01*
X45994Y-41046D02*
X45634Y-41046D01*
X45634Y-41046D02*
X45634Y-40474D01*
X55225Y-31329D02*
X54653Y-30973D01*
X55817Y-31331D02*
X56389Y-30975D01*
X56383Y-29537D02*
X55811Y-29537D01*
X56383Y-29897D02*
X56383Y-29537D01*
X54653Y-29907D02*
X54653Y-29547D01*
X54653Y-29547D02*
X55225Y-29547D01*
X56817Y-46205D02*
X57389Y-46561D01*
X56225Y-46203D02*
X55653Y-46559D01*
X55659Y-47997D02*
X56231Y-47997D01*
X55659Y-47637D02*
X55659Y-47997D01*
X57389Y-47627D02*
X57389Y-47987D01*
X57389Y-47987D02*
X56817Y-47987D01*
G54D22*
X67796Y-27477D02*
X67796Y-30155D01*
X67796Y-30155D02*
X67323Y-30155D01*
X67323Y-27477D02*
X67795Y-27477D01*
G54D13*
X47408Y-38535D02*
X47052Y-39107D01*
X47410Y-37943D02*
X47054Y-37371D01*
X45616Y-37377D02*
X45616Y-37949D01*
X45976Y-37377D02*
X45616Y-37377D01*
X45986Y-39107D02*
X45626Y-39107D01*
X45626Y-39107D02*
X45626Y-38535D01*
G54D11*
X55035Y-37054D02*
X55035Y-36936D01*
X55088Y-36564D02*
X55206Y-36564D01*
X54856Y-36562D02*
X54974Y-36562D01*
X54247Y-37052D02*
X54247Y-36934D01*
X54306Y-36563D02*
X54424Y-36563D01*
X54071Y-36564D02*
X54189Y-36564D01*
X52123Y-36341D02*
X52206Y-36424D01*
X52274Y-36785D02*
X52357Y-36702D01*
X52483Y-36574D02*
X52566Y-36491D01*
X52643Y-36860D02*
X52726Y-36943D01*
X52830Y-37387D02*
X52712Y-37387D01*
X53151Y-36934D02*
X53151Y-37052D01*
X55793Y-35179D02*
X55793Y-35061D01*
X53488Y-35179D02*
X53488Y-35061D01*
G54D10*
X52986Y-37481D02*
G75*
G03X52986Y-37481I-78J0D01*
G74*
G01*
X55742Y-40237D02*
X56018Y-40237D01*
X56018Y-40237D02*
X56018Y-39961D01*
X53104Y-39961D02*
X53104Y-40237D01*
X53104Y-40237D02*
X53380Y-40237D01*
X53380Y-37323D02*
X53104Y-37323D01*
X53104Y-37323D02*
X53104Y-37599D01*
X55742Y-37323D02*
X56018Y-37323D01*
X56018Y-37323D02*
X56018Y-37599D01*
X53380Y-40237D02*
X53183Y-40237D01*
X53104Y-40158D02*
X53104Y-39961D01*
X55742Y-40237D02*
X55939Y-40237D01*
X56018Y-40158D02*
X56018Y-39961D01*
X55742Y-37323D02*
X55939Y-37323D01*
X56018Y-37402D02*
X56018Y-37599D01*
X53380Y-37323D02*
X53183Y-37323D01*
X53104Y-37402D02*
X53104Y-37599D01*
G54D11*
X51982Y-39134D02*
X51864Y-39134D01*
X51982Y-38268D02*
X51864Y-38268D01*
X56411Y-37185D02*
X56411Y-37067D01*
X56411Y-37422D02*
X56411Y-37304D01*
X56411Y-36949D02*
X56411Y-36831D01*
X51628Y-39134D02*
X51746Y-39134D01*
X51982Y-39371D02*
X51864Y-39371D01*
X51982Y-38898D02*
X51864Y-38898D01*
X52278Y-39154D02*
X52278Y-39272D01*
X52278Y-38918D02*
X52278Y-39036D01*
X52691Y-39095D02*
X52573Y-39095D01*
X51628Y-38268D02*
X51746Y-38268D01*
X51982Y-38504D02*
X51864Y-38504D01*
X51982Y-38032D02*
X51864Y-38032D01*
X52278Y-38367D02*
X52278Y-38485D01*
X52278Y-38130D02*
X52278Y-38248D01*
X52691Y-38308D02*
X52573Y-38308D01*
G54D14*
X49441Y-32170D02*
G75*
G03X49441Y-32170I-78J0D01*
G74*
G01*
G54D11*
X51094Y-31737D02*
X51094Y-33863D01*
X49598Y-31737D02*
X49598Y-33863D01*
X49598Y-31737D02*
X51094Y-31737D01*
X51094Y-33863D02*
X49598Y-33863D01*
X50906Y-31390D02*
X50788Y-31390D01*
X55032Y-40508D02*
X55032Y-40626D01*
X55791Y-42381D02*
X55791Y-42499D01*
X53486Y-42381D02*
X53486Y-42499D01*
X54244Y-40506D02*
X54244Y-40624D01*
X54423Y-40998D02*
X54305Y-40998D01*
X54191Y-40996D02*
X54073Y-40996D01*
X54973Y-40997D02*
X54855Y-40997D01*
X55208Y-40996D02*
X55090Y-40996D01*
X57100Y-37873D02*
X57218Y-37873D01*
X57101Y-38347D02*
X57219Y-38347D01*
X56805Y-38092D02*
X56805Y-37974D01*
X57101Y-38111D02*
X57219Y-38111D01*
X57101Y-38978D02*
X57219Y-38978D01*
X57455Y-38111D02*
X57337Y-38111D01*
X56805Y-38328D02*
X56805Y-38210D01*
X56392Y-38151D02*
X56510Y-38151D01*
X56806Y-38997D02*
X56806Y-39115D01*
X56392Y-38938D02*
X56510Y-38938D01*
X56806Y-38761D02*
X56806Y-38879D01*
X57101Y-39214D02*
X57219Y-39214D01*
X57101Y-38741D02*
X57219Y-38741D01*
X57456Y-38977D02*
X57338Y-38977D01*
G54D10*
X53729Y-45091D02*
X53729Y-44993D01*
X53828Y-45091D02*
X53729Y-45091D01*
X53828Y-44993D02*
X53828Y-45091D01*
X53729Y-44993D02*
X53828Y-44993D01*
G54D11*
X55465Y-31743D02*
X55583Y-31743D01*
G54D10*
X55959Y-32769D02*
X55959Y-32671D01*
X55959Y-32671D02*
X56058Y-32671D01*
X56058Y-32671D02*
X56058Y-32769D01*
X56058Y-32769D02*
X55959Y-32769D01*
G54D11*
X53202Y-31750D02*
X53320Y-31750D01*
G54D14*
X57099Y-34117D02*
G75*
G03X57099Y-34117I-83J0D01*
G74*
G01*
G54D23*
X56875Y-32265D02*
X56813Y-32265D01*
X56813Y-33765D02*
X56875Y-33765D01*
X55141Y-33765D02*
X55219Y-33765D01*
X55141Y-33765D02*
X55141Y-32265D01*
X55141Y-32265D02*
X55219Y-32265D01*
X56875Y-33765D02*
X56875Y-32265D01*
G54D10*
X52798Y-32465D02*
X52798Y-32564D01*
X52699Y-32465D02*
X52798Y-32465D01*
X52699Y-32564D02*
X52699Y-32465D01*
X52798Y-32564D02*
X52699Y-32564D01*
G54D22*
X67796Y-34645D02*
X67796Y-37323D01*
X67796Y-37323D02*
X67323Y-37323D01*
X67323Y-34645D02*
X67795Y-34645D01*
G54D11*
X61304Y-37627D02*
X61304Y-37508D01*
G54D10*
X60564Y-37100D02*
X60466Y-37100D01*
X60564Y-37001D02*
X60564Y-37100D01*
X60466Y-37001D02*
X60564Y-37001D01*
X60466Y-37100D02*
X60466Y-37001D01*
X60569Y-39057D02*
X60470Y-39057D01*
X60569Y-38959D02*
X60569Y-39057D01*
X60470Y-38959D02*
X60569Y-38959D01*
X60470Y-39057D02*
X60470Y-38959D01*
G54D11*
X61299Y-39583D02*
X61299Y-39464D01*
G54D22*
X67792Y-39755D02*
X67792Y-42433D01*
X67792Y-42433D02*
X67319Y-42433D01*
X67319Y-39755D02*
X67791Y-39755D01*
G54D11*
X56582Y-45803D02*
X56464Y-45803D01*
X53324Y-45808D02*
X53205Y-45808D01*
X55791Y-42382D02*
X55791Y-42500D01*
G54D22*
X67795Y-47433D02*
X67795Y-50111D01*
X67795Y-50111D02*
X67322Y-50111D01*
X67322Y-47433D02*
X67794Y-47433D01*
G54D10*
X56079Y-44776D02*
X56079Y-44874D01*
X56079Y-44874D02*
X55980Y-44874D01*
X55980Y-44874D02*
X55980Y-44776D01*
X55980Y-44776D02*
X56079Y-44776D01*
G54D14*
X55108Y-43466D02*
G75*
G03X55108Y-43466I-83J0D01*
G74*
G01*
G54D23*
X55165Y-45318D02*
X55227Y-45318D01*
X55227Y-43818D02*
X55165Y-43818D01*
X56899Y-43818D02*
X56821Y-43818D01*
X56899Y-43818D02*
X56899Y-45318D01*
X56899Y-45318D02*
X56821Y-45318D01*
X55165Y-43818D02*
X55165Y-45318D01*
G54D11*
X47781Y-40119D02*
X47781Y-40238D01*
G54D10*
X48818Y-39738D02*
X48720Y-39738D01*
X48720Y-39738D02*
X48720Y-39640D01*
X48720Y-39640D02*
X48818Y-39640D01*
X48818Y-39640D02*
X48818Y-39738D01*
G54D23*
X48278Y-38822D02*
X48278Y-38884D01*
X49778Y-38884D02*
X49778Y-38822D01*
X49778Y-40556D02*
X49778Y-40478D01*
X49778Y-40556D02*
X48278Y-40556D01*
X48278Y-40556D02*
X48278Y-40478D01*
X49778Y-38822D02*
X48278Y-38822D01*
G54D11*
X47786Y-38168D02*
X47786Y-38286D01*
G54D10*
X48816Y-37785D02*
X48718Y-37785D01*
X48718Y-37785D02*
X48718Y-37687D01*
X48718Y-37687D02*
X48816Y-37687D01*
X48816Y-37687D02*
X48816Y-37785D01*
G54D23*
X48275Y-36869D02*
X48275Y-36931D01*
X49775Y-36931D02*
X49775Y-36869D01*
X49775Y-38603D02*
X49775Y-38525D01*
X49775Y-38603D02*
X48275Y-38603D01*
X48275Y-38603D02*
X48275Y-38525D01*
X49775Y-36869D02*
X48275Y-36869D01*
G54D15*
X47452Y-27687D02*
X47452Y-27843D01*
G54D11*
X49189Y-27529D02*
X49189Y-28002D01*
X47969Y-27529D02*
X47969Y-28002D01*
X47969Y-28002D02*
X49071Y-28002D01*
X49071Y-28002D02*
X49071Y-27529D01*
X49071Y-27529D02*
X47969Y-27529D01*
G54D10*
X61318Y-45263D02*
X61318Y-42586D01*
X61318Y-42586D02*
X61161Y-42429D01*
X61161Y-42429D02*
X58641Y-42429D01*
X58641Y-42429D02*
X58641Y-45263D01*
X58641Y-45263D02*
X61318Y-45263D01*
G54D15*
X48827Y-44448D02*
X48983Y-44448D01*
X52389Y-52488D02*
X52389Y-52332D01*
X52053Y-47597D02*
X51897Y-47597D01*
G54D10*
X52219Y-49510D02*
X51825Y-49510D01*
X51825Y-49360D01*
X51844Y-49323D01*
X51863Y-49304D01*
X51900Y-49285D01*
X51956Y-49285D01*
X51994Y-49304D01*
X52013Y-49323D01*
X52031Y-49360D01*
X52031Y-49510D01*
X51825Y-49154D02*
X51825Y-48910D01*
X51975Y-49041D01*
X51975Y-48985D01*
X51994Y-48948D01*
X52013Y-48929D01*
X52050Y-48910D01*
X52144Y-48910D01*
X52181Y-48929D01*
X52200Y-48948D01*
X52219Y-48985D01*
X52219Y-49098D01*
X52200Y-49135D01*
X52181Y-49154D01*
G54D24*
X51273Y-46624D02*
X51273Y-46474D01*
X51348Y-46549D02*
X51198Y-46549D01*
X51151Y-46399D02*
X51151Y-46277D01*
X51226Y-46343D01*
X51226Y-46315D01*
X51236Y-46296D01*
X51245Y-46287D01*
X51264Y-46277D01*
X51311Y-46277D01*
X51329Y-46287D01*
X51339Y-46296D01*
X51348Y-46315D01*
X51348Y-46371D01*
X51339Y-46390D01*
X51329Y-46399D01*
X51151Y-46221D02*
X51348Y-46155D01*
X51151Y-46090D01*
X51151Y-46043D02*
X51151Y-45921D01*
X51226Y-45987D01*
X51226Y-45959D01*
X51236Y-45940D01*
X51245Y-45930D01*
X51264Y-45921D01*
X51311Y-45921D01*
X51329Y-45930D01*
X51339Y-45940D01*
X51348Y-45959D01*
X51348Y-46015D01*
X51339Y-46034D01*
X51329Y-46043D01*
X51367Y-45884D02*
X51367Y-45734D01*
X51245Y-45687D02*
X51245Y-45621D01*
X51348Y-45593D02*
X51348Y-45687D01*
X51151Y-45687D01*
X51151Y-45593D01*
X51151Y-45527D02*
X51348Y-45396D01*
X51151Y-45396D02*
X51348Y-45527D01*
X51151Y-45349D02*
X51151Y-45237D01*
X51348Y-45293D02*
X51151Y-45293D01*
X48563Y-49461D02*
X48573Y-49470D01*
X48582Y-49498D01*
X48582Y-49517D01*
X48573Y-49545D01*
X48554Y-49564D01*
X48535Y-49573D01*
X48498Y-49582D01*
X48470Y-49582D01*
X48432Y-49573D01*
X48413Y-49564D01*
X48395Y-49545D01*
X48385Y-49517D01*
X48385Y-49498D01*
X48395Y-49470D01*
X48404Y-49461D01*
X48385Y-49339D02*
X48385Y-49301D01*
X48395Y-49282D01*
X48413Y-49264D01*
X48451Y-49254D01*
X48517Y-49254D01*
X48554Y-49264D01*
X48573Y-49282D01*
X48582Y-49301D01*
X48582Y-49339D01*
X48573Y-49357D01*
X48554Y-49376D01*
X48517Y-49386D01*
X48451Y-49386D01*
X48413Y-49376D01*
X48395Y-49357D01*
X48385Y-49339D01*
X48582Y-49057D02*
X48488Y-49123D01*
X48582Y-49170D02*
X48385Y-49170D01*
X48385Y-49095D01*
X48395Y-49076D01*
X48404Y-49067D01*
X48423Y-49057D01*
X48451Y-49057D01*
X48470Y-49067D01*
X48479Y-49076D01*
X48488Y-49095D01*
X48488Y-49170D01*
X48479Y-48973D02*
X48479Y-48907D01*
X48582Y-48879D02*
X48582Y-48973D01*
X48385Y-48973D01*
X48385Y-48879D01*
X48601Y-48842D02*
X48601Y-48692D01*
X48582Y-48551D02*
X48582Y-48645D01*
X48385Y-48645D01*
X48582Y-48486D02*
X48385Y-48486D01*
X48385Y-48439D01*
X48395Y-48411D01*
X48413Y-48392D01*
X48432Y-48383D01*
X48470Y-48373D01*
X48498Y-48373D01*
X48535Y-48383D01*
X48554Y-48392D01*
X48573Y-48411D01*
X48582Y-48439D01*
X48582Y-48486D01*
X48385Y-48251D02*
X48385Y-48214D01*
X48395Y-48195D01*
X48413Y-48176D01*
X48451Y-48167D01*
X48517Y-48167D01*
X48554Y-48176D01*
X48573Y-48195D01*
X48582Y-48214D01*
X48582Y-48251D01*
X48573Y-48270D01*
X48554Y-48289D01*
X48517Y-48298D01*
X48451Y-48298D01*
X48413Y-48289D01*
X48395Y-48270D01*
X48385Y-48251D01*
X48601Y-48129D02*
X48601Y-47979D01*
X48479Y-47933D02*
X48479Y-47867D01*
X48582Y-47839D02*
X48582Y-47933D01*
X48385Y-47933D01*
X48385Y-47839D01*
X48582Y-47754D02*
X48385Y-47754D01*
X48582Y-47642D01*
X48385Y-47642D01*
X49861Y-46641D02*
X49870Y-46613D01*
X49870Y-46566D01*
X49861Y-46548D01*
X49851Y-46538D01*
X49833Y-46529D01*
X49814Y-46529D01*
X49795Y-46538D01*
X49786Y-46548D01*
X49776Y-46566D01*
X49767Y-46604D01*
X49758Y-46623D01*
X49748Y-46632D01*
X49730Y-46641D01*
X49711Y-46641D01*
X49692Y-46632D01*
X49683Y-46623D01*
X49673Y-46604D01*
X49673Y-46557D01*
X49683Y-46529D01*
X49851Y-46332D02*
X49861Y-46341D01*
X49870Y-46369D01*
X49870Y-46388D01*
X49861Y-46416D01*
X49842Y-46435D01*
X49823Y-46444D01*
X49786Y-46454D01*
X49758Y-46454D01*
X49720Y-46444D01*
X49701Y-46435D01*
X49683Y-46416D01*
X49673Y-46388D01*
X49673Y-46369D01*
X49683Y-46341D01*
X49692Y-46332D01*
X49870Y-46154D02*
X49870Y-46248D01*
X49673Y-46248D01*
X49870Y-46088D02*
X49673Y-46088D01*
X49870Y-45976D02*
X49758Y-46060D01*
X49673Y-45976D02*
X49786Y-46088D01*
X48292Y-49439D02*
X48198Y-49504D01*
X48292Y-49551D02*
X48095Y-49551D01*
X48095Y-49476D01*
X48105Y-49457D01*
X48114Y-49448D01*
X48133Y-49439D01*
X48161Y-49439D01*
X48180Y-49448D01*
X48189Y-49457D01*
X48198Y-49476D01*
X48198Y-49551D01*
X48189Y-49354D02*
X48189Y-49289D01*
X48292Y-49260D02*
X48292Y-49354D01*
X48095Y-49354D01*
X48095Y-49260D01*
X48283Y-49185D02*
X48292Y-49157D01*
X48292Y-49110D01*
X48283Y-49092D01*
X48273Y-49082D01*
X48255Y-49073D01*
X48236Y-49073D01*
X48217Y-49082D01*
X48208Y-49092D01*
X48198Y-49110D01*
X48189Y-49148D01*
X48180Y-49167D01*
X48170Y-49176D01*
X48152Y-49185D01*
X48133Y-49185D01*
X48114Y-49176D01*
X48105Y-49167D01*
X48095Y-49148D01*
X48095Y-49101D01*
X48105Y-49073D01*
X48189Y-48989D02*
X48189Y-48923D01*
X48292Y-48895D02*
X48292Y-48989D01*
X48095Y-48989D01*
X48095Y-48895D01*
X48095Y-48839D02*
X48095Y-48726D01*
X48292Y-48782D02*
X48095Y-48782D01*
X48292Y-48660D02*
X48095Y-48660D01*
X48292Y-48548D01*
X48095Y-48548D01*
X47721Y-49537D02*
X47524Y-49537D01*
X47721Y-49425D01*
X47524Y-49425D01*
X47702Y-49218D02*
X47712Y-49228D01*
X47721Y-49256D01*
X47721Y-49275D01*
X47712Y-49303D01*
X47693Y-49322D01*
X47674Y-49331D01*
X47637Y-49340D01*
X47609Y-49340D01*
X47571Y-49331D01*
X47552Y-49322D01*
X47534Y-49303D01*
X47524Y-49275D01*
X47524Y-49256D01*
X47534Y-49228D01*
X47543Y-49218D01*
X48677Y-49447D02*
X48667Y-49466D01*
X48667Y-49494D01*
X48677Y-49522D01*
X48695Y-49541D01*
X48714Y-49551D01*
X48752Y-49560D01*
X48780Y-49560D01*
X48817Y-49551D01*
X48836Y-49541D01*
X48855Y-49522D01*
X48864Y-49494D01*
X48864Y-49476D01*
X48855Y-49447D01*
X48845Y-49438D01*
X48780Y-49438D01*
X48780Y-49476D01*
X48864Y-49354D02*
X48667Y-49354D01*
X48864Y-49241D01*
X48667Y-49241D01*
X48864Y-49148D02*
X48667Y-49148D01*
X48667Y-49101D01*
X48677Y-49073D01*
X48695Y-49054D01*
X48714Y-49044D01*
X48752Y-49035D01*
X48780Y-49035D01*
X48817Y-49044D01*
X48836Y-49054D01*
X48855Y-49073D01*
X48864Y-49101D01*
X48864Y-49148D01*
X49390Y-46633D02*
X49193Y-46633D01*
X49390Y-46521D01*
X49193Y-46521D01*
X49371Y-46314D02*
X49381Y-46324D01*
X49390Y-46352D01*
X49390Y-46371D01*
X49381Y-46399D01*
X49362Y-46418D01*
X49343Y-46427D01*
X49306Y-46436D01*
X49278Y-46436D01*
X49240Y-46427D01*
X49221Y-46418D01*
X49203Y-46399D01*
X49193Y-46371D01*
X49193Y-46352D01*
X49203Y-46324D01*
X49212Y-46314D01*
X47995Y-49540D02*
X48004Y-49512D01*
X48004Y-49465D01*
X47995Y-49447D01*
X47985Y-49437D01*
X47967Y-49428D01*
X47948Y-49428D01*
X47929Y-49437D01*
X47920Y-49447D01*
X47910Y-49465D01*
X47901Y-49503D01*
X47892Y-49522D01*
X47882Y-49531D01*
X47864Y-49540D01*
X47845Y-49540D01*
X47826Y-49531D01*
X47817Y-49522D01*
X47807Y-49503D01*
X47807Y-49456D01*
X47817Y-49428D01*
X47901Y-49343D02*
X47901Y-49278D01*
X48004Y-49250D02*
X48004Y-49343D01*
X47807Y-49343D01*
X47807Y-49250D01*
X47948Y-49175D02*
X47948Y-49081D01*
X48004Y-49193D02*
X47807Y-49128D01*
X48004Y-49062D01*
X48004Y-48997D02*
X47807Y-48997D01*
X48004Y-48884D01*
X47807Y-48884D01*
X50365Y-46641D02*
X50374Y-46613D01*
X50374Y-46566D01*
X50365Y-46547D01*
X50355Y-46538D01*
X50337Y-46529D01*
X50318Y-46529D01*
X50299Y-46538D01*
X50290Y-46547D01*
X50280Y-46566D01*
X50271Y-46604D01*
X50262Y-46622D01*
X50252Y-46632D01*
X50234Y-46641D01*
X50215Y-46641D01*
X50196Y-46632D01*
X50187Y-46622D01*
X50177Y-46604D01*
X50177Y-46557D01*
X50187Y-46529D01*
X50374Y-46444D02*
X50177Y-46444D01*
X50177Y-46397D01*
X50187Y-46369D01*
X50205Y-46351D01*
X50224Y-46341D01*
X50262Y-46332D01*
X50290Y-46332D01*
X50327Y-46341D01*
X50346Y-46351D01*
X50365Y-46369D01*
X50374Y-46397D01*
X50374Y-46444D01*
X50374Y-46247D02*
X50177Y-46247D01*
X50177Y-46116D02*
X50177Y-46079D01*
X50187Y-46060D01*
X50205Y-46041D01*
X50243Y-46032D01*
X50309Y-46032D01*
X50346Y-46041D01*
X50365Y-46060D01*
X50374Y-46079D01*
X50374Y-46116D01*
X50365Y-46135D01*
X50346Y-46154D01*
X50309Y-46163D01*
X50243Y-46163D01*
X50205Y-46154D01*
X50187Y-46135D01*
X50177Y-46116D01*
X50863Y-46630D02*
X50872Y-46602D01*
X50872Y-46555D01*
X50863Y-46537D01*
X50853Y-46527D01*
X50835Y-46518D01*
X50816Y-46518D01*
X50797Y-46527D01*
X50788Y-46537D01*
X50778Y-46555D01*
X50769Y-46593D01*
X50760Y-46612D01*
X50750Y-46621D01*
X50732Y-46630D01*
X50713Y-46630D01*
X50694Y-46621D01*
X50685Y-46612D01*
X50675Y-46593D01*
X50675Y-46546D01*
X50685Y-46518D01*
X50872Y-46433D02*
X50675Y-46433D01*
X50675Y-46387D01*
X50685Y-46358D01*
X50703Y-46340D01*
X50722Y-46330D01*
X50760Y-46321D01*
X50788Y-46321D01*
X50825Y-46330D01*
X50844Y-46340D01*
X50863Y-46358D01*
X50872Y-46387D01*
X50872Y-46433D01*
X50675Y-46199D02*
X50675Y-46162D01*
X50685Y-46143D01*
X50703Y-46124D01*
X50741Y-46115D01*
X50807Y-46115D01*
X50844Y-46124D01*
X50863Y-46143D01*
X50872Y-46162D01*
X50872Y-46199D01*
X50863Y-46218D01*
X50844Y-46237D01*
X50807Y-46246D01*
X50741Y-46246D01*
X50703Y-46237D01*
X50685Y-46218D01*
X50675Y-46199D01*
G54D11*
X46068Y-29737D02*
X46068Y-29962D01*
X46053Y-30007D01*
X46023Y-30037D01*
X45978Y-30052D01*
X45948Y-30052D01*
X46187Y-29737D02*
X46382Y-29737D01*
X46277Y-29857D01*
X46322Y-29857D01*
X46352Y-29872D01*
X46367Y-29887D01*
X46382Y-29917D01*
X46382Y-29992D01*
X46367Y-30022D01*
X46352Y-30037D01*
X46322Y-30052D01*
X46232Y-30052D01*
X46202Y-30037D01*
X46187Y-30022D01*
G54D10*
X62690Y-26001D02*
X62859Y-26001D01*
X62893Y-26013D01*
X62915Y-26035D01*
X62927Y-26069D01*
X62927Y-26091D01*
X62927Y-25765D02*
X62927Y-25900D01*
X62927Y-25833D02*
X62690Y-25833D01*
X62724Y-25855D01*
X62747Y-25878D01*
X62758Y-25900D01*
X62690Y-25686D02*
X62690Y-25540D01*
X62780Y-25619D01*
X62780Y-25585D01*
X62792Y-25563D01*
X62803Y-25551D01*
X62825Y-25540D01*
X62882Y-25540D01*
X62904Y-25551D01*
X62915Y-25563D01*
X62927Y-25585D01*
X62927Y-25653D01*
X62915Y-25675D01*
X62904Y-25686D01*
G54D11*
X48891Y-35777D02*
X49153Y-36171D01*
X49153Y-35777D02*
X48891Y-36171D01*
X49378Y-35777D02*
X49453Y-35777D01*
X49490Y-35796D01*
X49528Y-35833D01*
X49547Y-35908D01*
X49547Y-36040D01*
X49528Y-36115D01*
X49490Y-36152D01*
X49453Y-36171D01*
X49378Y-36171D01*
X49341Y-36152D01*
X49303Y-36115D01*
X49284Y-36040D01*
X49284Y-35908D01*
X49303Y-35833D01*
X49341Y-35796D01*
X49378Y-35777D01*
X49884Y-35908D02*
X49884Y-36171D01*
X49790Y-35758D02*
X49697Y-36040D01*
X49940Y-36040D01*
G54D24*
X63137Y-45688D02*
X63071Y-45594D01*
X63024Y-45688D02*
X63024Y-45491D01*
X63099Y-45491D01*
X63118Y-45501D01*
X63128Y-45510D01*
X63137Y-45529D01*
X63137Y-45557D01*
X63128Y-45576D01*
X63118Y-45585D01*
X63099Y-45594D01*
X63024Y-45594D01*
X63324Y-45688D02*
X63212Y-45688D01*
X63268Y-45688D02*
X63268Y-45491D01*
X63249Y-45519D01*
X63231Y-45538D01*
X63212Y-45548D01*
X63493Y-45491D02*
X63456Y-45491D01*
X63437Y-45501D01*
X63428Y-45510D01*
X63409Y-45538D01*
X63399Y-45576D01*
X63399Y-45651D01*
X63409Y-45669D01*
X63418Y-45679D01*
X63437Y-45688D01*
X63474Y-45688D01*
X63493Y-45679D01*
X63503Y-45669D01*
X63512Y-45651D01*
X63512Y-45604D01*
X63503Y-45585D01*
X63493Y-45576D01*
X63474Y-45566D01*
X63437Y-45566D01*
X63418Y-45576D01*
X63409Y-45585D01*
X63399Y-45604D01*
G54D11*
X64092Y-45942D02*
X63942Y-45942D01*
X63942Y-45627D01*
X64197Y-45942D02*
X64197Y-45627D01*
X64272Y-45627D01*
X64316Y-45642D01*
X64346Y-45672D01*
X64361Y-45702D01*
X64376Y-45762D01*
X64376Y-45807D01*
X64361Y-45867D01*
X64346Y-45897D01*
X64316Y-45927D01*
X64272Y-45942D01*
X64197Y-45942D01*
X64646Y-45732D02*
X64646Y-45942D01*
X64571Y-45612D02*
X64496Y-45837D01*
X64691Y-45837D01*
G54D24*
X58136Y-52147D02*
X58070Y-52147D01*
X58070Y-52250D02*
X58070Y-52053D01*
X58164Y-52053D01*
X58304Y-52147D02*
X58333Y-52156D01*
X58342Y-52166D01*
X58351Y-52185D01*
X58351Y-52213D01*
X58342Y-52231D01*
X58333Y-52241D01*
X58314Y-52250D01*
X58239Y-52250D01*
X58239Y-52053D01*
X58304Y-52053D01*
X58323Y-52063D01*
X58333Y-52072D01*
X58342Y-52091D01*
X58342Y-52110D01*
X58333Y-52128D01*
X58323Y-52138D01*
X58304Y-52147D01*
X58239Y-52147D01*
X58539Y-52250D02*
X58426Y-52250D01*
X58483Y-52250D02*
X58483Y-52053D01*
X58464Y-52081D01*
X58445Y-52100D01*
X58426Y-52110D01*
X58708Y-52053D02*
X58670Y-52053D01*
X58651Y-52063D01*
X58642Y-52072D01*
X58623Y-52100D01*
X58614Y-52138D01*
X58614Y-52213D01*
X58623Y-52231D01*
X58633Y-52241D01*
X58651Y-52250D01*
X58689Y-52250D01*
X58708Y-52241D01*
X58717Y-52231D01*
X58726Y-52213D01*
X58726Y-52166D01*
X58717Y-52147D01*
X58708Y-52138D01*
X58689Y-52128D01*
X58651Y-52128D01*
X58633Y-52138D01*
X58623Y-52147D01*
X58614Y-52166D01*
X57826Y-53267D02*
X57817Y-53277D01*
X57788Y-53286D01*
X57770Y-53286D01*
X57742Y-53277D01*
X57723Y-53258D01*
X57713Y-53239D01*
X57704Y-53202D01*
X57704Y-53174D01*
X57713Y-53136D01*
X57723Y-53117D01*
X57742Y-53099D01*
X57770Y-53089D01*
X57788Y-53089D01*
X57817Y-53099D01*
X57826Y-53108D01*
X57892Y-53089D02*
X58013Y-53089D01*
X57948Y-53164D01*
X57976Y-53164D01*
X57995Y-53174D01*
X58004Y-53183D01*
X58013Y-53202D01*
X58013Y-53249D01*
X58004Y-53267D01*
X57995Y-53277D01*
X57976Y-53286D01*
X57920Y-53286D01*
X57901Y-53277D01*
X57892Y-53267D01*
X58201Y-53286D02*
X58088Y-53286D01*
X58145Y-53286D02*
X58145Y-53089D01*
X58126Y-53117D01*
X58107Y-53136D01*
X58088Y-53146D01*
X63344Y-52743D02*
X63279Y-52649D01*
X63232Y-52743D02*
X63232Y-52546D01*
X63307Y-52546D01*
X63326Y-52555D01*
X63335Y-52565D01*
X63344Y-52584D01*
X63344Y-52612D01*
X63335Y-52630D01*
X63326Y-52640D01*
X63307Y-52649D01*
X63232Y-52649D01*
X63532Y-52743D02*
X63419Y-52743D01*
X63476Y-52743D02*
X63476Y-52546D01*
X63457Y-52574D01*
X63438Y-52593D01*
X63419Y-52602D01*
X63597Y-52546D02*
X63719Y-52546D01*
X63654Y-52621D01*
X63682Y-52621D01*
X63700Y-52630D01*
X63710Y-52640D01*
X63719Y-52659D01*
X63719Y-52705D01*
X63710Y-52724D01*
X63700Y-52734D01*
X63682Y-52743D01*
X63625Y-52743D01*
X63607Y-52734D01*
X63597Y-52724D01*
X63344Y-52391D02*
X63335Y-52401D01*
X63307Y-52410D01*
X63288Y-52410D01*
X63260Y-52401D01*
X63241Y-52382D01*
X63232Y-52363D01*
X63222Y-52326D01*
X63222Y-52298D01*
X63232Y-52260D01*
X63241Y-52241D01*
X63260Y-52223D01*
X63288Y-52213D01*
X63307Y-52213D01*
X63335Y-52223D01*
X63344Y-52232D01*
X63410Y-52213D02*
X63532Y-52213D01*
X63466Y-52288D01*
X63494Y-52288D01*
X63513Y-52298D01*
X63522Y-52307D01*
X63532Y-52326D01*
X63532Y-52373D01*
X63522Y-52391D01*
X63513Y-52401D01*
X63494Y-52410D01*
X63438Y-52410D01*
X63419Y-52401D01*
X63410Y-52391D01*
X63607Y-52232D02*
X63616Y-52223D01*
X63635Y-52213D01*
X63682Y-52213D01*
X63700Y-52223D01*
X63710Y-52232D01*
X63719Y-52251D01*
X63719Y-52270D01*
X63710Y-52298D01*
X63597Y-52410D01*
X63719Y-52410D01*
X46947Y-48873D02*
X46881Y-48779D01*
X46834Y-48873D02*
X46834Y-48676D01*
X46909Y-48676D01*
X46928Y-48686D01*
X46937Y-48695D01*
X46947Y-48714D01*
X46947Y-48742D01*
X46937Y-48761D01*
X46928Y-48770D01*
X46909Y-48779D01*
X46834Y-48779D01*
X47059Y-48761D02*
X47040Y-48751D01*
X47031Y-48742D01*
X47022Y-48723D01*
X47022Y-48714D01*
X47031Y-48695D01*
X47040Y-48686D01*
X47059Y-48676D01*
X47097Y-48676D01*
X47115Y-48686D01*
X47125Y-48695D01*
X47134Y-48714D01*
X47134Y-48723D01*
X47125Y-48742D01*
X47115Y-48751D01*
X47097Y-48761D01*
X47059Y-48761D01*
X47040Y-48770D01*
X47031Y-48779D01*
X47022Y-48798D01*
X47022Y-48836D01*
X47031Y-48854D01*
X47040Y-48864D01*
X47059Y-48873D01*
X47097Y-48873D01*
X47115Y-48864D01*
X47125Y-48854D01*
X47134Y-48836D01*
X47134Y-48798D01*
X47125Y-48779D01*
X47115Y-48770D01*
X47097Y-48761D01*
X46949Y-50290D02*
X46883Y-50196D01*
X46837Y-50290D02*
X46837Y-50093D01*
X46912Y-50093D01*
X46930Y-50102D01*
X46940Y-50111D01*
X46949Y-50130D01*
X46949Y-50158D01*
X46940Y-50177D01*
X46930Y-50186D01*
X46912Y-50196D01*
X46837Y-50196D01*
X47118Y-50093D02*
X47080Y-50093D01*
X47062Y-50102D01*
X47052Y-50111D01*
X47033Y-50140D01*
X47024Y-50177D01*
X47024Y-50252D01*
X47033Y-50271D01*
X47043Y-50280D01*
X47062Y-50290D01*
X47099Y-50290D01*
X47118Y-50280D01*
X47127Y-50271D01*
X47137Y-50252D01*
X47137Y-50205D01*
X47127Y-50186D01*
X47118Y-50177D01*
X47099Y-50168D01*
X47062Y-50168D01*
X47043Y-50177D01*
X47033Y-50186D01*
X47024Y-50205D01*
X46949Y-49601D02*
X46883Y-49507D01*
X46837Y-49601D02*
X46837Y-49404D01*
X46912Y-49404D01*
X46930Y-49413D01*
X46940Y-49422D01*
X46949Y-49441D01*
X46949Y-49469D01*
X46940Y-49488D01*
X46930Y-49497D01*
X46912Y-49507D01*
X46837Y-49507D01*
X47015Y-49404D02*
X47146Y-49404D01*
X47062Y-49601D01*
G54D25*
X58589Y-49991D02*
X58589Y-50188D01*
X58574Y-50227D01*
X58544Y-50253D01*
X58499Y-50266D01*
X58469Y-50266D01*
X58723Y-50018D02*
X58738Y-50005D01*
X58768Y-49991D01*
X58843Y-49991D01*
X58873Y-50005D01*
X58888Y-50018D01*
X58903Y-50044D01*
X58903Y-50070D01*
X58888Y-50109D01*
X58708Y-50266D01*
X58903Y-50266D01*
G54D11*
X54201Y-50695D02*
X54201Y-50976D01*
X54183Y-51033D01*
X54145Y-51070D01*
X54089Y-51089D01*
X54051Y-51089D01*
X54389Y-51089D02*
X54389Y-50695D01*
X54539Y-50695D01*
X54576Y-50714D01*
X54595Y-50733D01*
X54614Y-50770D01*
X54614Y-50826D01*
X54595Y-50864D01*
X54576Y-50883D01*
X54539Y-50901D01*
X54389Y-50901D01*
X54989Y-51089D02*
X54764Y-51089D01*
X54876Y-51089D02*
X54876Y-50695D01*
X54839Y-50751D01*
X54801Y-50789D01*
X54764Y-50808D01*
X58424Y-53910D02*
X58705Y-53910D01*
X58762Y-53928D01*
X58799Y-53966D01*
X58818Y-54022D01*
X58818Y-54060D01*
X58818Y-53516D02*
X58818Y-53741D01*
X58818Y-53629D02*
X58424Y-53629D01*
X58480Y-53666D01*
X58518Y-53704D01*
X58537Y-53741D01*
X45757Y-48745D02*
X45607Y-48745D01*
X45607Y-48430D01*
X45862Y-48745D02*
X45862Y-48430D01*
X45937Y-48430D01*
X45982Y-48445D01*
X46012Y-48475D01*
X46027Y-48505D01*
X46042Y-48565D01*
X46042Y-48610D01*
X46027Y-48670D01*
X46012Y-48700D01*
X45982Y-48730D01*
X45937Y-48745D01*
X45862Y-48745D01*
X46147Y-48430D02*
X46342Y-48430D01*
X46237Y-48550D01*
X46282Y-48550D01*
X46312Y-48565D01*
X46327Y-48580D01*
X46342Y-48610D01*
X46342Y-48685D01*
X46327Y-48715D01*
X46312Y-48730D01*
X46282Y-48745D01*
X46192Y-48745D01*
X46162Y-48730D01*
X46147Y-48715D01*
X45181Y-50043D02*
X45181Y-50192D01*
X44866Y-50192D01*
X45181Y-49938D02*
X44866Y-49938D01*
X44866Y-49863D01*
X44881Y-49818D01*
X44911Y-49788D01*
X44941Y-49773D01*
X45001Y-49758D01*
X45046Y-49758D01*
X45106Y-49773D01*
X45136Y-49788D01*
X45166Y-49818D01*
X45181Y-49863D01*
X45181Y-49938D01*
X44896Y-49638D02*
X44881Y-49623D01*
X44866Y-49593D01*
X44866Y-49518D01*
X44881Y-49488D01*
X44896Y-49473D01*
X44926Y-49458D01*
X44956Y-49458D01*
X45001Y-49473D01*
X45181Y-49653D01*
X45181Y-49458D01*
X45753Y-51135D02*
X45603Y-51135D01*
X45603Y-50820D01*
X45858Y-51135D02*
X45858Y-50820D01*
X45933Y-50820D01*
X45978Y-50835D01*
X46008Y-50865D01*
X46023Y-50895D01*
X46038Y-50955D01*
X46038Y-51000D01*
X46023Y-51060D01*
X46008Y-51090D01*
X45978Y-51120D01*
X45933Y-51135D01*
X45858Y-51135D01*
X46338Y-51135D02*
X46158Y-51135D01*
X46248Y-51135D02*
X46248Y-50820D01*
X46218Y-50865D01*
X46188Y-50895D01*
X46158Y-50910D01*
X45489Y-47570D02*
X45808Y-47570D01*
X45845Y-47552D01*
X45864Y-47533D01*
X45883Y-47495D01*
X45883Y-47420D01*
X45864Y-47383D01*
X45845Y-47364D01*
X45808Y-47345D01*
X45489Y-47345D01*
X45883Y-47139D02*
X45883Y-47064D01*
X45864Y-47027D01*
X45845Y-47008D01*
X45789Y-46971D01*
X45714Y-46952D01*
X45564Y-46952D01*
X45527Y-46971D01*
X45508Y-46989D01*
X45489Y-47027D01*
X45489Y-47102D01*
X45508Y-47139D01*
X45527Y-47158D01*
X45564Y-47177D01*
X45658Y-47177D01*
X45695Y-47158D01*
X45714Y-47139D01*
X45733Y-47102D01*
X45733Y-47027D01*
X45714Y-46989D01*
X45695Y-46971D01*
X45658Y-46952D01*
G54D24*
X47877Y-42028D02*
X47783Y-42094D01*
X47877Y-42141D02*
X47680Y-42141D01*
X47680Y-42066D01*
X47689Y-42047D01*
X47699Y-42037D01*
X47717Y-42028D01*
X47745Y-42028D01*
X47764Y-42037D01*
X47774Y-42047D01*
X47783Y-42066D01*
X47783Y-42141D01*
X47680Y-41850D02*
X47680Y-41944D01*
X47774Y-41953D01*
X47764Y-41944D01*
X47755Y-41925D01*
X47755Y-41878D01*
X47764Y-41859D01*
X47774Y-41850D01*
X47792Y-41841D01*
X47839Y-41841D01*
X47858Y-41850D01*
X47867Y-41859D01*
X47877Y-41878D01*
X47877Y-41925D01*
X47867Y-41944D01*
X47858Y-41953D01*
X47680Y-41672D02*
X47680Y-41709D01*
X47689Y-41728D01*
X47699Y-41738D01*
X47727Y-41756D01*
X47764Y-41766D01*
X47839Y-41766D01*
X47858Y-41756D01*
X47867Y-41747D01*
X47877Y-41728D01*
X47877Y-41691D01*
X47867Y-41672D01*
X47858Y-41663D01*
X47839Y-41653D01*
X47792Y-41653D01*
X47774Y-41663D01*
X47764Y-41672D01*
X47755Y-41691D01*
X47755Y-41728D01*
X47764Y-41747D01*
X47774Y-41756D01*
X47792Y-41766D01*
X47817Y-52673D02*
X47724Y-52738D01*
X47817Y-52785D02*
X47621Y-52785D01*
X47621Y-52710D01*
X47630Y-52692D01*
X47639Y-52682D01*
X47658Y-52673D01*
X47686Y-52673D01*
X47705Y-52682D01*
X47714Y-52692D01*
X47724Y-52710D01*
X47724Y-52785D01*
X47621Y-52495D02*
X47621Y-52588D01*
X47714Y-52598D01*
X47705Y-52588D01*
X47696Y-52570D01*
X47696Y-52523D01*
X47705Y-52504D01*
X47714Y-52495D01*
X47733Y-52485D01*
X47780Y-52485D01*
X47799Y-52495D01*
X47808Y-52504D01*
X47817Y-52523D01*
X47817Y-52570D01*
X47808Y-52588D01*
X47799Y-52598D01*
X47686Y-52317D02*
X47817Y-52317D01*
X47611Y-52364D02*
X47752Y-52410D01*
X47752Y-52289D01*
X51443Y-52274D02*
X51434Y-52284D01*
X51405Y-52293D01*
X51387Y-52293D01*
X51359Y-52284D01*
X51340Y-52265D01*
X51330Y-52246D01*
X51321Y-52209D01*
X51321Y-52181D01*
X51330Y-52143D01*
X51340Y-52124D01*
X51359Y-52106D01*
X51387Y-52096D01*
X51405Y-52096D01*
X51434Y-52106D01*
X51443Y-52115D01*
X51621Y-52096D02*
X51527Y-52096D01*
X51518Y-52190D01*
X51527Y-52181D01*
X51546Y-52171D01*
X51593Y-52171D01*
X51612Y-52181D01*
X51621Y-52190D01*
X51630Y-52209D01*
X51630Y-52256D01*
X51621Y-52274D01*
X51612Y-52284D01*
X51593Y-52293D01*
X51546Y-52293D01*
X51527Y-52284D01*
X51518Y-52274D01*
X51696Y-52096D02*
X51818Y-52096D01*
X51752Y-52171D01*
X51780Y-52171D01*
X51799Y-52181D01*
X51809Y-52190D01*
X51818Y-52209D01*
X51818Y-52256D01*
X51809Y-52274D01*
X51799Y-52284D01*
X51780Y-52293D01*
X51724Y-52293D01*
X51705Y-52284D01*
X51696Y-52274D01*
X48801Y-53676D02*
X48707Y-53742D01*
X48801Y-53789D02*
X48604Y-53789D01*
X48604Y-53714D01*
X48614Y-53695D01*
X48623Y-53685D01*
X48642Y-53676D01*
X48670Y-53676D01*
X48689Y-53685D01*
X48698Y-53695D01*
X48707Y-53714D01*
X48707Y-53789D01*
X48604Y-53610D02*
X48604Y-53489D01*
X48679Y-53554D01*
X48679Y-53526D01*
X48689Y-53507D01*
X48698Y-53498D01*
X48717Y-53489D01*
X48764Y-53489D01*
X48782Y-53498D01*
X48792Y-53507D01*
X48801Y-53526D01*
X48801Y-53582D01*
X48792Y-53601D01*
X48782Y-53610D01*
X48623Y-53414D02*
X48614Y-53404D01*
X48604Y-53385D01*
X48604Y-53339D01*
X48614Y-53320D01*
X48623Y-53310D01*
X48642Y-53301D01*
X48661Y-53301D01*
X48689Y-53310D01*
X48801Y-53423D01*
X48801Y-53301D01*
X48119Y-54008D02*
X48025Y-54073D01*
X48119Y-54120D02*
X47922Y-54120D01*
X47922Y-54045D01*
X47931Y-54026D01*
X47941Y-54017D01*
X47959Y-54008D01*
X47988Y-54008D01*
X48006Y-54017D01*
X48016Y-54026D01*
X48025Y-54045D01*
X48025Y-54120D01*
X47922Y-53942D02*
X47922Y-53820D01*
X47997Y-53886D01*
X47997Y-53858D01*
X48006Y-53839D01*
X48016Y-53829D01*
X48034Y-53820D01*
X48081Y-53820D01*
X48100Y-53829D01*
X48109Y-53839D01*
X48119Y-53858D01*
X48119Y-53914D01*
X48109Y-53933D01*
X48100Y-53942D01*
X48119Y-53633D02*
X48119Y-53745D01*
X48119Y-53689D02*
X47922Y-53689D01*
X47950Y-53708D01*
X47969Y-53726D01*
X47978Y-53745D01*
X49280Y-41603D02*
X49214Y-41509D01*
X49167Y-41603D02*
X49167Y-41406D01*
X49242Y-41406D01*
X49261Y-41416D01*
X49270Y-41425D01*
X49280Y-41444D01*
X49280Y-41472D01*
X49270Y-41490D01*
X49261Y-41500D01*
X49242Y-41509D01*
X49167Y-41509D01*
X49355Y-41425D02*
X49364Y-41416D01*
X49383Y-41406D01*
X49430Y-41406D01*
X49449Y-41416D01*
X49458Y-41425D01*
X49467Y-41444D01*
X49467Y-41462D01*
X49458Y-41490D01*
X49345Y-41603D01*
X49467Y-41603D01*
X49561Y-41603D02*
X49599Y-41603D01*
X49617Y-41594D01*
X49627Y-41584D01*
X49645Y-41556D01*
X49655Y-41519D01*
X49655Y-41444D01*
X49645Y-41425D01*
X49636Y-41416D01*
X49617Y-41406D01*
X49580Y-41406D01*
X49561Y-41416D01*
X49552Y-41425D01*
X49542Y-41444D01*
X49542Y-41490D01*
X49552Y-41509D01*
X49561Y-41519D01*
X49580Y-41528D01*
X49617Y-41528D01*
X49636Y-41519D01*
X49645Y-41509D01*
X49655Y-41490D01*
X46119Y-46481D02*
X46025Y-46547D01*
X46119Y-46594D02*
X45922Y-46594D01*
X45922Y-46519D01*
X45932Y-46500D01*
X45941Y-46490D01*
X45960Y-46481D01*
X45988Y-46481D01*
X46007Y-46490D01*
X46016Y-46500D01*
X46025Y-46519D01*
X46025Y-46594D01*
X45988Y-46312D02*
X46119Y-46312D01*
X45913Y-46359D02*
X46054Y-46406D01*
X46054Y-46284D01*
X45922Y-46172D02*
X45922Y-46153D01*
X45932Y-46134D01*
X45941Y-46125D01*
X45960Y-46115D01*
X45997Y-46106D01*
X46044Y-46106D01*
X46082Y-46115D01*
X46100Y-46125D01*
X46110Y-46134D01*
X46119Y-46153D01*
X46119Y-46172D01*
X46110Y-46190D01*
X46100Y-46200D01*
X46082Y-46209D01*
X46044Y-46219D01*
X45997Y-46219D01*
X45960Y-46209D01*
X45941Y-46200D01*
X45932Y-46190D01*
X45922Y-46172D01*
X46132Y-45882D02*
X46038Y-45948D01*
X46132Y-45995D02*
X45935Y-45995D01*
X45935Y-45920D01*
X45945Y-45901D01*
X45954Y-45891D01*
X45973Y-45882D01*
X46001Y-45882D01*
X46020Y-45891D01*
X46029Y-45901D01*
X46038Y-45920D01*
X46038Y-45995D01*
X45935Y-45816D02*
X45935Y-45695D01*
X46010Y-45760D01*
X46010Y-45732D01*
X46020Y-45713D01*
X46029Y-45704D01*
X46048Y-45695D01*
X46095Y-45695D01*
X46113Y-45704D01*
X46123Y-45713D01*
X46132Y-45732D01*
X46132Y-45788D01*
X46123Y-45807D01*
X46113Y-45816D01*
X46132Y-45601D02*
X46132Y-45563D01*
X46123Y-45545D01*
X46113Y-45535D01*
X46085Y-45516D01*
X46048Y-45507D01*
X45973Y-45507D01*
X45954Y-45516D01*
X45945Y-45526D01*
X45935Y-45545D01*
X45935Y-45582D01*
X45945Y-45601D01*
X45954Y-45610D01*
X45973Y-45620D01*
X46020Y-45620D01*
X46038Y-45610D01*
X46048Y-45601D01*
X46057Y-45582D01*
X46057Y-45545D01*
X46048Y-45526D01*
X46038Y-45516D01*
X46020Y-45507D01*
X47653Y-45572D02*
X47559Y-45638D01*
X47653Y-45685D02*
X47456Y-45685D01*
X47456Y-45610D01*
X47466Y-45591D01*
X47475Y-45581D01*
X47494Y-45572D01*
X47522Y-45572D01*
X47541Y-45581D01*
X47550Y-45591D01*
X47559Y-45610D01*
X47559Y-45685D01*
X47456Y-45506D02*
X47456Y-45385D01*
X47531Y-45450D01*
X47531Y-45422D01*
X47541Y-45403D01*
X47550Y-45394D01*
X47569Y-45385D01*
X47616Y-45385D01*
X47634Y-45394D01*
X47644Y-45403D01*
X47653Y-45422D01*
X47653Y-45478D01*
X47644Y-45497D01*
X47634Y-45506D01*
X47541Y-45272D02*
X47531Y-45291D01*
X47522Y-45300D01*
X47503Y-45310D01*
X47494Y-45310D01*
X47475Y-45300D01*
X47466Y-45291D01*
X47456Y-45272D01*
X47456Y-45235D01*
X47466Y-45216D01*
X47475Y-45206D01*
X47494Y-45197D01*
X47503Y-45197D01*
X47522Y-45206D01*
X47531Y-45216D01*
X47541Y-45235D01*
X47541Y-45272D01*
X47550Y-45291D01*
X47559Y-45300D01*
X47578Y-45310D01*
X47616Y-45310D01*
X47634Y-45300D01*
X47644Y-45291D01*
X47653Y-45272D01*
X47653Y-45235D01*
X47644Y-45216D01*
X47634Y-45206D01*
X47616Y-45197D01*
X47578Y-45197D01*
X47559Y-45206D01*
X47550Y-45216D01*
X47541Y-45235D01*
X47644Y-43889D02*
X47550Y-43955D01*
X47644Y-44002D02*
X47447Y-44002D01*
X47447Y-43927D01*
X47457Y-43908D01*
X47466Y-43898D01*
X47485Y-43889D01*
X47513Y-43889D01*
X47532Y-43898D01*
X47541Y-43908D01*
X47550Y-43927D01*
X47550Y-44002D01*
X47447Y-43823D02*
X47447Y-43702D01*
X47522Y-43767D01*
X47522Y-43739D01*
X47532Y-43720D01*
X47541Y-43711D01*
X47560Y-43702D01*
X47607Y-43702D01*
X47625Y-43711D01*
X47635Y-43720D01*
X47644Y-43739D01*
X47644Y-43795D01*
X47635Y-43814D01*
X47625Y-43823D01*
X47447Y-43636D02*
X47447Y-43505D01*
X47644Y-43589D01*
X46720Y-42495D02*
X46626Y-42561D01*
X46720Y-42608D02*
X46523Y-42608D01*
X46523Y-42533D01*
X46533Y-42514D01*
X46542Y-42504D01*
X46561Y-42495D01*
X46589Y-42495D01*
X46608Y-42504D01*
X46617Y-42514D01*
X46626Y-42533D01*
X46626Y-42608D01*
X46589Y-42326D02*
X46720Y-42326D01*
X46514Y-42373D02*
X46655Y-42420D01*
X46655Y-42298D01*
X46720Y-42120D02*
X46720Y-42233D01*
X46720Y-42176D02*
X46523Y-42176D01*
X46551Y-42195D01*
X46570Y-42214D01*
X46580Y-42233D01*
X45303Y-43261D02*
X45237Y-43167D01*
X45190Y-43261D02*
X45190Y-43064D01*
X45265Y-43064D01*
X45284Y-43074D01*
X45294Y-43083D01*
X45303Y-43102D01*
X45303Y-43130D01*
X45294Y-43149D01*
X45284Y-43158D01*
X45265Y-43167D01*
X45190Y-43167D01*
X45472Y-43130D02*
X45472Y-43261D01*
X45425Y-43055D02*
X45378Y-43196D01*
X45500Y-43196D01*
X45669Y-43064D02*
X45575Y-43064D01*
X45565Y-43158D01*
X45575Y-43149D01*
X45594Y-43139D01*
X45640Y-43139D01*
X45659Y-43149D01*
X45669Y-43158D01*
X45678Y-43177D01*
X45678Y-43224D01*
X45669Y-43242D01*
X45659Y-43252D01*
X45640Y-43261D01*
X45594Y-43261D01*
X45575Y-43252D01*
X45565Y-43242D01*
X50086Y-41188D02*
X49992Y-41253D01*
X50086Y-41300D02*
X49889Y-41300D01*
X49889Y-41225D01*
X49899Y-41207D01*
X49908Y-41197D01*
X49927Y-41188D01*
X49955Y-41188D01*
X49974Y-41197D01*
X49983Y-41207D01*
X49992Y-41225D01*
X49992Y-41300D01*
X49889Y-41010D02*
X49889Y-41103D01*
X49983Y-41113D01*
X49974Y-41103D01*
X49964Y-41085D01*
X49964Y-41038D01*
X49974Y-41019D01*
X49983Y-41010D01*
X50002Y-41000D01*
X50049Y-41000D01*
X50067Y-41010D01*
X50077Y-41019D01*
X50086Y-41038D01*
X50086Y-41085D01*
X50077Y-41103D01*
X50067Y-41113D01*
X49889Y-40879D02*
X49889Y-40860D01*
X49899Y-40841D01*
X49908Y-40832D01*
X49927Y-40822D01*
X49964Y-40813D01*
X50011Y-40813D01*
X50049Y-40822D01*
X50067Y-40832D01*
X50077Y-40841D01*
X50086Y-40860D01*
X50086Y-40879D01*
X50077Y-40897D01*
X50067Y-40907D01*
X50049Y-40916D01*
X50011Y-40925D01*
X49964Y-40925D01*
X49927Y-40916D01*
X49908Y-40907D01*
X49899Y-40897D01*
X49889Y-40879D01*
X48665Y-42002D02*
X48599Y-41908D01*
X48552Y-42002D02*
X48552Y-41805D01*
X48627Y-41805D01*
X48646Y-41815D01*
X48655Y-41824D01*
X48665Y-41843D01*
X48665Y-41871D01*
X48655Y-41889D01*
X48646Y-41899D01*
X48627Y-41908D01*
X48552Y-41908D01*
X48730Y-41805D02*
X48852Y-41805D01*
X48787Y-41880D01*
X48815Y-41880D01*
X48834Y-41889D01*
X48843Y-41899D01*
X48852Y-41918D01*
X48852Y-41964D01*
X48843Y-41983D01*
X48834Y-41993D01*
X48815Y-42002D01*
X48759Y-42002D01*
X48740Y-41993D01*
X48730Y-41983D01*
X48974Y-41805D02*
X48993Y-41805D01*
X49012Y-41815D01*
X49021Y-41824D01*
X49030Y-41843D01*
X49040Y-41880D01*
X49040Y-41927D01*
X49030Y-41964D01*
X49021Y-41983D01*
X49012Y-41993D01*
X48993Y-42002D01*
X48974Y-42002D01*
X48955Y-41993D01*
X48946Y-41983D01*
X48937Y-41964D01*
X48927Y-41927D01*
X48927Y-41880D01*
X48937Y-41843D01*
X48946Y-41824D01*
X48955Y-41815D01*
X48974Y-41805D01*
X51061Y-53997D02*
X51052Y-54007D01*
X51023Y-54016D01*
X51005Y-54016D01*
X50977Y-54007D01*
X50958Y-53988D01*
X50948Y-53969D01*
X50939Y-53932D01*
X50939Y-53904D01*
X50948Y-53866D01*
X50958Y-53847D01*
X50977Y-53829D01*
X51005Y-53819D01*
X51023Y-53819D01*
X51052Y-53829D01*
X51061Y-53838D01*
X51239Y-53819D02*
X51145Y-53819D01*
X51136Y-53913D01*
X51145Y-53904D01*
X51164Y-53894D01*
X51211Y-53894D01*
X51230Y-53904D01*
X51239Y-53913D01*
X51248Y-53932D01*
X51248Y-53979D01*
X51239Y-53997D01*
X51230Y-54007D01*
X51211Y-54016D01*
X51164Y-54016D01*
X51145Y-54007D01*
X51136Y-53997D01*
X51361Y-53904D02*
X51342Y-53894D01*
X51333Y-53885D01*
X51323Y-53866D01*
X51323Y-53857D01*
X51333Y-53838D01*
X51342Y-53829D01*
X51361Y-53819D01*
X51398Y-53819D01*
X51417Y-53829D01*
X51427Y-53838D01*
X51436Y-53857D01*
X51436Y-53866D01*
X51427Y-53885D01*
X51417Y-53894D01*
X51398Y-53904D01*
X51361Y-53904D01*
X51342Y-53913D01*
X51333Y-53922D01*
X51323Y-53941D01*
X51323Y-53979D01*
X51333Y-53997D01*
X51342Y-54007D01*
X51361Y-54016D01*
X51398Y-54016D01*
X51417Y-54007D01*
X51427Y-53997D01*
X51436Y-53979D01*
X51436Y-53941D01*
X51427Y-53922D01*
X51417Y-53913D01*
X51398Y-53904D01*
X48746Y-52934D02*
X48756Y-52943D01*
X48765Y-52972D01*
X48765Y-52990D01*
X48756Y-53018D01*
X48737Y-53037D01*
X48718Y-53047D01*
X48681Y-53056D01*
X48653Y-53056D01*
X48615Y-53047D01*
X48596Y-53037D01*
X48578Y-53018D01*
X48568Y-52990D01*
X48568Y-52972D01*
X48578Y-52943D01*
X48587Y-52934D01*
X48568Y-52765D02*
X48568Y-52803D01*
X48578Y-52822D01*
X48587Y-52831D01*
X48615Y-52850D01*
X48653Y-52859D01*
X48728Y-52859D01*
X48746Y-52850D01*
X48756Y-52840D01*
X48765Y-52822D01*
X48765Y-52784D01*
X48756Y-52765D01*
X48746Y-52756D01*
X48728Y-52747D01*
X48681Y-52747D01*
X48662Y-52756D01*
X48653Y-52765D01*
X48643Y-52784D01*
X48643Y-52822D01*
X48653Y-52840D01*
X48662Y-52850D01*
X48681Y-52859D01*
X48765Y-52559D02*
X48765Y-52672D01*
X48765Y-52615D02*
X48568Y-52615D01*
X48596Y-52634D01*
X48615Y-52653D01*
X48625Y-52672D01*
X50346Y-42382D02*
X50356Y-42391D01*
X50365Y-42419D01*
X50365Y-42438D01*
X50356Y-42466D01*
X50337Y-42485D01*
X50318Y-42494D01*
X50281Y-42504D01*
X50253Y-42504D01*
X50215Y-42494D01*
X50196Y-42485D01*
X50178Y-42466D01*
X50168Y-42438D01*
X50168Y-42419D01*
X50178Y-42391D01*
X50187Y-42382D01*
X50168Y-42213D02*
X50168Y-42251D01*
X50178Y-42269D01*
X50187Y-42279D01*
X50215Y-42297D01*
X50253Y-42307D01*
X50328Y-42307D01*
X50346Y-42297D01*
X50356Y-42288D01*
X50365Y-42269D01*
X50365Y-42232D01*
X50356Y-42213D01*
X50346Y-42204D01*
X50328Y-42194D01*
X50281Y-42194D01*
X50262Y-42204D01*
X50253Y-42213D01*
X50243Y-42232D01*
X50243Y-42269D01*
X50253Y-42288D01*
X50262Y-42297D01*
X50281Y-42307D01*
X50168Y-42073D02*
X50168Y-42054D01*
X50178Y-42035D01*
X50187Y-42026D01*
X50206Y-42016D01*
X50243Y-42007D01*
X50290Y-42007D01*
X50328Y-42016D01*
X50346Y-42026D01*
X50356Y-42035D01*
X50365Y-42054D01*
X50365Y-42073D01*
X50356Y-42091D01*
X50346Y-42101D01*
X50328Y-42110D01*
X50290Y-42119D01*
X50243Y-42119D01*
X50206Y-42110D01*
X50187Y-42101D01*
X50178Y-42091D01*
X50168Y-42073D01*
X45620Y-42691D02*
X45629Y-42700D01*
X45639Y-42728D01*
X45639Y-42747D01*
X45629Y-42775D01*
X45610Y-42794D01*
X45592Y-42803D01*
X45554Y-42813D01*
X45526Y-42813D01*
X45489Y-42803D01*
X45470Y-42794D01*
X45451Y-42775D01*
X45442Y-42747D01*
X45442Y-42728D01*
X45451Y-42700D01*
X45460Y-42691D01*
X45442Y-42513D02*
X45442Y-42606D01*
X45535Y-42616D01*
X45526Y-42606D01*
X45517Y-42588D01*
X45517Y-42541D01*
X45526Y-42522D01*
X45535Y-42513D01*
X45554Y-42503D01*
X45601Y-42503D01*
X45620Y-42513D01*
X45629Y-42522D01*
X45639Y-42541D01*
X45639Y-42588D01*
X45629Y-42606D01*
X45620Y-42616D01*
X45639Y-42410D02*
X45639Y-42372D01*
X45629Y-42353D01*
X45620Y-42344D01*
X45592Y-42325D01*
X45554Y-42316D01*
X45479Y-42316D01*
X45460Y-42325D01*
X45451Y-42335D01*
X45442Y-42353D01*
X45442Y-42391D01*
X45451Y-42410D01*
X45460Y-42419D01*
X45479Y-42428D01*
X45526Y-42428D01*
X45545Y-42419D01*
X45554Y-42410D01*
X45564Y-42391D01*
X45564Y-42353D01*
X45554Y-42335D01*
X45545Y-42325D01*
X45526Y-42316D01*
X46829Y-45846D02*
X46839Y-45855D01*
X46848Y-45884D01*
X46848Y-45902D01*
X46839Y-45930D01*
X46820Y-45949D01*
X46801Y-45959D01*
X46764Y-45968D01*
X46736Y-45968D01*
X46698Y-45959D01*
X46679Y-45949D01*
X46661Y-45930D01*
X46651Y-45902D01*
X46651Y-45884D01*
X46661Y-45855D01*
X46670Y-45846D01*
X46736Y-45734D02*
X46726Y-45752D01*
X46717Y-45762D01*
X46698Y-45771D01*
X46689Y-45771D01*
X46670Y-45762D01*
X46661Y-45752D01*
X46651Y-45734D01*
X46651Y-45696D01*
X46661Y-45677D01*
X46670Y-45668D01*
X46689Y-45659D01*
X46698Y-45659D01*
X46717Y-45668D01*
X46726Y-45677D01*
X46736Y-45696D01*
X46736Y-45734D01*
X46745Y-45752D01*
X46754Y-45762D01*
X46773Y-45771D01*
X46811Y-45771D01*
X46829Y-45762D01*
X46839Y-45752D01*
X46848Y-45734D01*
X46848Y-45696D01*
X46839Y-45677D01*
X46829Y-45668D01*
X46811Y-45659D01*
X46773Y-45659D01*
X46754Y-45668D01*
X46745Y-45677D01*
X46736Y-45696D01*
X46670Y-45584D02*
X46661Y-45574D01*
X46651Y-45555D01*
X46651Y-45509D01*
X46661Y-45490D01*
X46670Y-45480D01*
X46689Y-45471D01*
X46708Y-45471D01*
X46736Y-45480D01*
X46848Y-45593D01*
X46848Y-45471D01*
X47211Y-44204D02*
X47221Y-44213D01*
X47230Y-44242D01*
X47230Y-44260D01*
X47221Y-44288D01*
X47202Y-44307D01*
X47183Y-44317D01*
X47146Y-44326D01*
X47118Y-44326D01*
X47080Y-44317D01*
X47061Y-44307D01*
X47043Y-44288D01*
X47033Y-44260D01*
X47033Y-44242D01*
X47043Y-44213D01*
X47052Y-44204D01*
X47033Y-44138D02*
X47033Y-44007D01*
X47230Y-44092D01*
X47033Y-43951D02*
X47033Y-43820D01*
X47230Y-43904D01*
X45168Y-46346D02*
X45178Y-46355D01*
X45187Y-46384D01*
X45187Y-46402D01*
X45178Y-46430D01*
X45159Y-46449D01*
X45140Y-46459D01*
X45103Y-46468D01*
X45075Y-46468D01*
X45037Y-46459D01*
X45018Y-46449D01*
X45000Y-46430D01*
X44990Y-46402D01*
X44990Y-46384D01*
X45000Y-46355D01*
X45009Y-46346D01*
X45075Y-46234D02*
X45065Y-46252D01*
X45056Y-46262D01*
X45037Y-46271D01*
X45028Y-46271D01*
X45009Y-46262D01*
X45000Y-46252D01*
X44990Y-46234D01*
X44990Y-46196D01*
X45000Y-46177D01*
X45009Y-46168D01*
X45028Y-46159D01*
X45037Y-46159D01*
X45056Y-46168D01*
X45065Y-46177D01*
X45075Y-46196D01*
X45075Y-46234D01*
X45084Y-46252D01*
X45093Y-46262D01*
X45112Y-46271D01*
X45150Y-46271D01*
X45168Y-46262D01*
X45178Y-46252D01*
X45187Y-46234D01*
X45187Y-46196D01*
X45178Y-46177D01*
X45168Y-46168D01*
X45150Y-46159D01*
X45112Y-46159D01*
X45093Y-46168D01*
X45084Y-46177D01*
X45075Y-46196D01*
X44990Y-45990D02*
X44990Y-46027D01*
X45000Y-46046D01*
X45009Y-46055D01*
X45037Y-46074D01*
X45075Y-46084D01*
X45150Y-46084D01*
X45168Y-46074D01*
X45178Y-46065D01*
X45187Y-46046D01*
X45187Y-46009D01*
X45178Y-45990D01*
X45168Y-45980D01*
X45150Y-45971D01*
X45103Y-45971D01*
X45084Y-45980D01*
X45075Y-45990D01*
X45065Y-46009D01*
X45065Y-46046D01*
X45075Y-46065D01*
X45084Y-46074D01*
X45103Y-46084D01*
X44705Y-45315D02*
X44715Y-45324D01*
X44724Y-45353D01*
X44724Y-45371D01*
X44715Y-45399D01*
X44696Y-45418D01*
X44677Y-45428D01*
X44640Y-45437D01*
X44612Y-45437D01*
X44574Y-45428D01*
X44555Y-45418D01*
X44537Y-45399D01*
X44527Y-45371D01*
X44527Y-45353D01*
X44537Y-45324D01*
X44546Y-45315D01*
X44612Y-45203D02*
X44602Y-45221D01*
X44593Y-45231D01*
X44574Y-45240D01*
X44565Y-45240D01*
X44546Y-45231D01*
X44537Y-45221D01*
X44527Y-45203D01*
X44527Y-45165D01*
X44537Y-45146D01*
X44546Y-45137D01*
X44565Y-45128D01*
X44574Y-45128D01*
X44593Y-45137D01*
X44602Y-45146D01*
X44612Y-45165D01*
X44612Y-45203D01*
X44621Y-45221D01*
X44630Y-45231D01*
X44649Y-45240D01*
X44687Y-45240D01*
X44705Y-45231D01*
X44715Y-45221D01*
X44724Y-45203D01*
X44724Y-45165D01*
X44715Y-45146D01*
X44705Y-45137D01*
X44687Y-45128D01*
X44649Y-45128D01*
X44630Y-45137D01*
X44621Y-45146D01*
X44612Y-45165D01*
X44724Y-44940D02*
X44724Y-45053D01*
X44724Y-44996D02*
X44527Y-44996D01*
X44555Y-45015D01*
X44574Y-45034D01*
X44584Y-45053D01*
X50939Y-52606D02*
X50939Y-52672D01*
X51042Y-52672D02*
X50845Y-52672D01*
X50845Y-52578D01*
X50939Y-52438D02*
X50948Y-52409D01*
X50958Y-52400D01*
X50977Y-52391D01*
X51005Y-52391D01*
X51023Y-52400D01*
X51033Y-52409D01*
X51042Y-52428D01*
X51042Y-52503D01*
X50845Y-52503D01*
X50845Y-52438D01*
X50855Y-52419D01*
X50864Y-52409D01*
X50883Y-52400D01*
X50902Y-52400D01*
X50920Y-52409D01*
X50930Y-52419D01*
X50939Y-52438D01*
X50939Y-52503D01*
X50864Y-52316D02*
X50855Y-52306D01*
X50845Y-52288D01*
X50845Y-52241D01*
X50855Y-52222D01*
X50864Y-52213D01*
X50883Y-52203D01*
X50902Y-52203D01*
X50930Y-52213D01*
X51042Y-52325D01*
X51042Y-52203D01*
X50845Y-52081D02*
X50845Y-52063D01*
X50855Y-52044D01*
X50864Y-52034D01*
X50883Y-52025D01*
X50920Y-52016D01*
X50967Y-52016D01*
X51005Y-52025D01*
X51023Y-52034D01*
X51033Y-52044D01*
X51042Y-52063D01*
X51042Y-52081D01*
X51033Y-52100D01*
X51023Y-52109D01*
X51005Y-52119D01*
X50967Y-52128D01*
X50920Y-52128D01*
X50883Y-52119D01*
X50864Y-52109D01*
X50855Y-52100D01*
X50845Y-52081D01*
G54D10*
X44848Y-44519D02*
X45103Y-44519D01*
X45133Y-44504D01*
X45148Y-44489D01*
X45163Y-44459D01*
X45163Y-44399D01*
X45148Y-44369D01*
X45133Y-44354D01*
X45103Y-44339D01*
X44848Y-44339D01*
X45163Y-44025D02*
X45163Y-44204D01*
X45163Y-44115D02*
X44848Y-44115D01*
X44893Y-44144D01*
X44923Y-44174D01*
X44938Y-44204D01*
X44848Y-43830D02*
X44848Y-43800D01*
X44863Y-43770D01*
X44878Y-43755D01*
X44908Y-43740D01*
X44968Y-43725D01*
X45043Y-43725D01*
X45103Y-43740D01*
X45133Y-43755D01*
X45148Y-43770D01*
X45163Y-43800D01*
X45163Y-43830D01*
X45148Y-43860D01*
X45133Y-43875D01*
X45103Y-43890D01*
X45043Y-43905D01*
X44968Y-43905D01*
X44908Y-43890D01*
X44878Y-43875D01*
X44863Y-43860D01*
X44848Y-43830D01*
G54D11*
X52533Y-53408D02*
X52533Y-53663D01*
X52548Y-53693D01*
X52563Y-53708D01*
X52593Y-53723D01*
X52653Y-53723D01*
X52683Y-53708D01*
X52698Y-53693D01*
X52713Y-53663D01*
X52713Y-53408D01*
X53028Y-53723D02*
X52848Y-53723D01*
X52938Y-53723D02*
X52938Y-53408D01*
X52908Y-53453D01*
X52878Y-53483D01*
X52848Y-53498D01*
X53298Y-53513D02*
X53298Y-53723D01*
X53223Y-53393D02*
X53148Y-53618D01*
X53343Y-53618D01*
G54D24*
X52814Y-49893D02*
X52805Y-49903D01*
X52776Y-49912D01*
X52758Y-49912D01*
X52730Y-49903D01*
X52711Y-49884D01*
X52701Y-49865D01*
X52692Y-49828D01*
X52692Y-49800D01*
X52701Y-49762D01*
X52711Y-49743D01*
X52730Y-49725D01*
X52758Y-49715D01*
X52776Y-49715D01*
X52805Y-49725D01*
X52814Y-49734D01*
X52992Y-49715D02*
X52898Y-49715D01*
X52889Y-49809D01*
X52898Y-49800D01*
X52917Y-49790D01*
X52964Y-49790D01*
X52983Y-49800D01*
X52992Y-49809D01*
X53001Y-49828D01*
X53001Y-49875D01*
X52992Y-49893D01*
X52983Y-49903D01*
X52964Y-49912D01*
X52917Y-49912D01*
X52898Y-49903D01*
X52889Y-49893D01*
X53067Y-49715D02*
X53198Y-49715D01*
X53114Y-49912D01*
G54D11*
X50055Y-52258D02*
X50055Y-52577D01*
X50073Y-52614D01*
X50092Y-52633D01*
X50130Y-52652D01*
X50205Y-52652D01*
X50242Y-52633D01*
X50261Y-52614D01*
X50280Y-52577D01*
X50280Y-52258D01*
X50429Y-52258D02*
X50692Y-52258D01*
X50523Y-52652D01*
X50119Y-43647D02*
X50438Y-43647D01*
X50475Y-43629D01*
X50494Y-43610D01*
X50513Y-43572D01*
X50513Y-43497D01*
X50494Y-43460D01*
X50475Y-43441D01*
X50438Y-43422D01*
X50119Y-43422D01*
X50288Y-43179D02*
X50269Y-43216D01*
X50250Y-43235D01*
X50213Y-43254D01*
X50194Y-43254D01*
X50157Y-43235D01*
X50138Y-43216D01*
X50119Y-43179D01*
X50119Y-43104D01*
X50138Y-43066D01*
X50157Y-43047D01*
X50194Y-43029D01*
X50213Y-43029D01*
X50250Y-43047D01*
X50269Y-43066D01*
X50288Y-43104D01*
X50288Y-43179D01*
X50307Y-43216D01*
X50325Y-43235D01*
X50363Y-43254D01*
X50438Y-43254D01*
X50475Y-43235D01*
X50494Y-43216D01*
X50513Y-43179D01*
X50513Y-43104D01*
X50494Y-43066D01*
X50475Y-43047D01*
X50438Y-43029D01*
X50363Y-43029D01*
X50325Y-43047D01*
X50307Y-43066D01*
X50288Y-43104D01*
G54D10*
X44533Y-31225D02*
X44795Y-31618D01*
X44795Y-31225D02*
X44533Y-31618D01*
X45020Y-31225D02*
X45095Y-31225D01*
X45133Y-31243D01*
X45170Y-31281D01*
X45189Y-31356D01*
X45189Y-31487D01*
X45170Y-31562D01*
X45133Y-31600D01*
X45095Y-31618D01*
X45020Y-31618D01*
X44983Y-31600D01*
X44945Y-31562D01*
X44926Y-31487D01*
X44926Y-31356D01*
X44945Y-31281D01*
X44983Y-31243D01*
X45020Y-31225D01*
X45320Y-31225D02*
X45564Y-31225D01*
X45433Y-31375D01*
X45489Y-31375D01*
X45526Y-31393D01*
X45545Y-31412D01*
X45564Y-31450D01*
X45564Y-31543D01*
X45545Y-31581D01*
X45526Y-31600D01*
X45489Y-31618D01*
X45376Y-31618D01*
X45339Y-31600D01*
X45320Y-31581D01*
G54D24*
X46010Y-29220D02*
X46020Y-29229D01*
X46029Y-29257D01*
X46029Y-29276D01*
X46020Y-29304D01*
X46001Y-29323D01*
X45982Y-29332D01*
X45945Y-29342D01*
X45917Y-29342D01*
X45879Y-29332D01*
X45860Y-29323D01*
X45842Y-29304D01*
X45832Y-29276D01*
X45832Y-29257D01*
X45842Y-29229D01*
X45851Y-29220D01*
X45851Y-29145D02*
X45842Y-29135D01*
X45832Y-29117D01*
X45832Y-29070D01*
X45842Y-29051D01*
X45851Y-29042D01*
X45870Y-29032D01*
X45889Y-29032D01*
X45917Y-29042D01*
X46029Y-29154D01*
X46029Y-29032D01*
X45832Y-28910D02*
X45832Y-28892D01*
X45842Y-28873D01*
X45851Y-28864D01*
X45870Y-28854D01*
X45907Y-28845D01*
X45954Y-28845D01*
X45992Y-28854D01*
X46010Y-28864D01*
X46020Y-28873D01*
X46029Y-28892D01*
X46029Y-28910D01*
X46020Y-28929D01*
X46010Y-28939D01*
X45992Y-28948D01*
X45954Y-28957D01*
X45907Y-28957D01*
X45870Y-28948D01*
X45851Y-28939D01*
X45842Y-28929D01*
X45832Y-28910D01*
X46029Y-28657D02*
X46029Y-28770D01*
X46029Y-28714D02*
X45832Y-28714D01*
X45860Y-28732D01*
X45879Y-28751D01*
X45889Y-28770D01*
X45740Y-29220D02*
X45750Y-29229D01*
X45759Y-29257D01*
X45759Y-29276D01*
X45750Y-29304D01*
X45731Y-29323D01*
X45712Y-29332D01*
X45675Y-29342D01*
X45647Y-29342D01*
X45609Y-29332D01*
X45590Y-29323D01*
X45572Y-29304D01*
X45562Y-29276D01*
X45562Y-29257D01*
X45572Y-29229D01*
X45581Y-29220D01*
X45581Y-29145D02*
X45572Y-29135D01*
X45562Y-29117D01*
X45562Y-29070D01*
X45572Y-29051D01*
X45581Y-29042D01*
X45600Y-29032D01*
X45619Y-29032D01*
X45647Y-29042D01*
X45759Y-29154D01*
X45759Y-29032D01*
X45562Y-28910D02*
X45562Y-28892D01*
X45572Y-28873D01*
X45581Y-28864D01*
X45600Y-28854D01*
X45637Y-28845D01*
X45684Y-28845D01*
X45722Y-28854D01*
X45740Y-28864D01*
X45750Y-28873D01*
X45759Y-28892D01*
X45759Y-28910D01*
X45750Y-28929D01*
X45740Y-28939D01*
X45722Y-28948D01*
X45684Y-28957D01*
X45637Y-28957D01*
X45600Y-28948D01*
X45581Y-28939D01*
X45572Y-28929D01*
X45562Y-28910D01*
X45562Y-28723D02*
X45562Y-28704D01*
X45572Y-28685D01*
X45581Y-28676D01*
X45600Y-28667D01*
X45637Y-28657D01*
X45684Y-28657D01*
X45722Y-28667D01*
X45740Y-28676D01*
X45750Y-28685D01*
X45759Y-28704D01*
X45759Y-28723D01*
X45750Y-28742D01*
X45740Y-28751D01*
X45722Y-28760D01*
X45684Y-28770D01*
X45637Y-28770D01*
X45600Y-28760D01*
X45581Y-28751D01*
X45572Y-28742D01*
X45562Y-28723D01*
X45956Y-31223D02*
X45891Y-31129D01*
X45844Y-31223D02*
X45844Y-31026D01*
X45919Y-31026D01*
X45938Y-31035D01*
X45947Y-31045D01*
X45956Y-31063D01*
X45956Y-31092D01*
X45947Y-31110D01*
X45938Y-31120D01*
X45919Y-31129D01*
X45844Y-31129D01*
X46125Y-31026D02*
X46088Y-31026D01*
X46069Y-31035D01*
X46059Y-31045D01*
X46041Y-31073D01*
X46031Y-31110D01*
X46031Y-31185D01*
X46041Y-31204D01*
X46050Y-31213D01*
X46069Y-31223D01*
X46106Y-31223D01*
X46125Y-31213D01*
X46134Y-31204D01*
X46144Y-31185D01*
X46144Y-31138D01*
X46134Y-31120D01*
X46125Y-31110D01*
X46106Y-31101D01*
X46069Y-31101D01*
X46050Y-31110D01*
X46041Y-31120D01*
X46031Y-31138D01*
X46219Y-31045D02*
X46228Y-31035D01*
X46247Y-31026D01*
X46294Y-31026D01*
X46313Y-31035D01*
X46322Y-31045D01*
X46331Y-31063D01*
X46331Y-31082D01*
X46322Y-31110D01*
X46209Y-31223D01*
X46331Y-31223D01*
X44850Y-28990D02*
X44860Y-28999D01*
X44869Y-29027D01*
X44869Y-29046D01*
X44860Y-29074D01*
X44841Y-29093D01*
X44822Y-29102D01*
X44785Y-29112D01*
X44757Y-29112D01*
X44719Y-29102D01*
X44700Y-29093D01*
X44682Y-29074D01*
X44672Y-29046D01*
X44672Y-29027D01*
X44682Y-28999D01*
X44691Y-28990D01*
X44869Y-28802D02*
X44869Y-28915D01*
X44869Y-28859D02*
X44672Y-28859D01*
X44700Y-28877D01*
X44719Y-28896D01*
X44729Y-28915D01*
X44672Y-28634D02*
X44672Y-28671D01*
X44682Y-28690D01*
X44691Y-28699D01*
X44719Y-28718D01*
X44757Y-28727D01*
X44832Y-28727D01*
X44850Y-28718D01*
X44860Y-28709D01*
X44869Y-28690D01*
X44869Y-28652D01*
X44860Y-28634D01*
X44850Y-28624D01*
X44832Y-28615D01*
X44785Y-28615D01*
X44766Y-28624D01*
X44757Y-28634D01*
X44747Y-28652D01*
X44747Y-28690D01*
X44757Y-28709D01*
X44766Y-28718D01*
X44785Y-28727D01*
X44672Y-28549D02*
X44672Y-28427D01*
X44747Y-28493D01*
X44747Y-28465D01*
X44757Y-28446D01*
X44766Y-28437D01*
X44785Y-28427D01*
X44832Y-28427D01*
X44850Y-28437D01*
X44860Y-28446D01*
X44869Y-28465D01*
X44869Y-28521D01*
X44860Y-28540D01*
X44850Y-28549D01*
X45400Y-28980D02*
X45410Y-28989D01*
X45419Y-29017D01*
X45419Y-29036D01*
X45410Y-29064D01*
X45391Y-29083D01*
X45372Y-29092D01*
X45335Y-29102D01*
X45307Y-29102D01*
X45269Y-29092D01*
X45250Y-29083D01*
X45232Y-29064D01*
X45222Y-29036D01*
X45222Y-29017D01*
X45232Y-28989D01*
X45241Y-28980D01*
X45419Y-28792D02*
X45419Y-28905D01*
X45419Y-28849D02*
X45222Y-28849D01*
X45250Y-28867D01*
X45269Y-28886D01*
X45279Y-28905D01*
X45222Y-28727D02*
X45222Y-28595D01*
X45419Y-28680D01*
X45222Y-28539D02*
X45222Y-28417D01*
X45297Y-28483D01*
X45297Y-28455D01*
X45307Y-28436D01*
X45316Y-28427D01*
X45335Y-28417D01*
X45382Y-28417D01*
X45400Y-28427D01*
X45410Y-28436D01*
X45419Y-28455D01*
X45419Y-28511D01*
X45410Y-28530D01*
X45400Y-28539D01*
X45120Y-28980D02*
X45130Y-28989D01*
X45139Y-29017D01*
X45139Y-29036D01*
X45130Y-29064D01*
X45111Y-29083D01*
X45092Y-29092D01*
X45055Y-29102D01*
X45027Y-29102D01*
X44989Y-29092D01*
X44970Y-29083D01*
X44952Y-29064D01*
X44942Y-29036D01*
X44942Y-29017D01*
X44952Y-28989D01*
X44961Y-28980D01*
X45139Y-28792D02*
X45139Y-28905D01*
X45139Y-28849D02*
X44942Y-28849D01*
X44970Y-28867D01*
X44989Y-28886D01*
X44999Y-28905D01*
X44942Y-28624D02*
X44942Y-28661D01*
X44952Y-28680D01*
X44961Y-28689D01*
X44989Y-28708D01*
X45027Y-28717D01*
X45102Y-28717D01*
X45120Y-28708D01*
X45130Y-28699D01*
X45139Y-28680D01*
X45139Y-28642D01*
X45130Y-28624D01*
X45120Y-28614D01*
X45102Y-28605D01*
X45055Y-28605D01*
X45036Y-28614D01*
X45027Y-28624D01*
X45017Y-28642D01*
X45017Y-28680D01*
X45027Y-28699D01*
X45036Y-28708D01*
X45055Y-28717D01*
X44942Y-28427D02*
X44942Y-28520D01*
X45036Y-28530D01*
X45027Y-28520D01*
X45017Y-28502D01*
X45017Y-28455D01*
X45027Y-28436D01*
X45036Y-28427D01*
X45055Y-28417D01*
X45102Y-28417D01*
X45120Y-28427D01*
X45130Y-28436D01*
X45139Y-28455D01*
X45139Y-28502D01*
X45130Y-28520D01*
X45120Y-28530D01*
X47683Y-32818D02*
X47589Y-32883D01*
X47683Y-32930D02*
X47486Y-32930D01*
X47486Y-32855D01*
X47496Y-32837D01*
X47505Y-32827D01*
X47524Y-32818D01*
X47552Y-32818D01*
X47571Y-32827D01*
X47580Y-32837D01*
X47589Y-32855D01*
X47589Y-32930D01*
X47683Y-32630D02*
X47683Y-32743D01*
X47683Y-32687D02*
X47486Y-32687D01*
X47514Y-32705D01*
X47533Y-32724D01*
X47543Y-32743D01*
X47505Y-32555D02*
X47496Y-32546D01*
X47486Y-32527D01*
X47486Y-32480D01*
X47496Y-32462D01*
X47505Y-32452D01*
X47524Y-32443D01*
X47543Y-32443D01*
X47571Y-32452D01*
X47683Y-32565D01*
X47683Y-32443D01*
X47571Y-32330D02*
X47561Y-32349D01*
X47552Y-32358D01*
X47533Y-32368D01*
X47524Y-32368D01*
X47505Y-32358D01*
X47496Y-32349D01*
X47486Y-32330D01*
X47486Y-32293D01*
X47496Y-32274D01*
X47505Y-32265D01*
X47524Y-32255D01*
X47533Y-32255D01*
X47552Y-32265D01*
X47561Y-32274D01*
X47571Y-32293D01*
X47571Y-32330D01*
X47580Y-32349D01*
X47589Y-32358D01*
X47608Y-32368D01*
X47646Y-32368D01*
X47664Y-32358D01*
X47674Y-32349D01*
X47683Y-32330D01*
X47683Y-32293D01*
X47674Y-32274D01*
X47664Y-32265D01*
X47646Y-32255D01*
X47608Y-32255D01*
X47589Y-32265D01*
X47580Y-32274D01*
X47571Y-32293D01*
X50442Y-34898D02*
X50452Y-34907D01*
X50461Y-34936D01*
X50461Y-34954D01*
X50452Y-34982D01*
X50433Y-35001D01*
X50414Y-35011D01*
X50377Y-35020D01*
X50349Y-35020D01*
X50311Y-35011D01*
X50292Y-35001D01*
X50274Y-34982D01*
X50264Y-34954D01*
X50264Y-34936D01*
X50274Y-34907D01*
X50283Y-34898D01*
X50264Y-34729D02*
X50264Y-34767D01*
X50274Y-34786D01*
X50283Y-34795D01*
X50311Y-34814D01*
X50349Y-34823D01*
X50424Y-34823D01*
X50442Y-34814D01*
X50452Y-34804D01*
X50461Y-34786D01*
X50461Y-34748D01*
X50452Y-34729D01*
X50442Y-34720D01*
X50424Y-34711D01*
X50377Y-34711D01*
X50358Y-34720D01*
X50349Y-34729D01*
X50339Y-34748D01*
X50339Y-34786D01*
X50349Y-34804D01*
X50358Y-34814D01*
X50377Y-34823D01*
X50349Y-34598D02*
X50339Y-34617D01*
X50330Y-34626D01*
X50311Y-34636D01*
X50302Y-34636D01*
X50283Y-34626D01*
X50274Y-34617D01*
X50264Y-34598D01*
X50264Y-34561D01*
X50274Y-34542D01*
X50283Y-34532D01*
X50302Y-34523D01*
X50311Y-34523D01*
X50330Y-34532D01*
X50339Y-34542D01*
X50349Y-34561D01*
X50349Y-34598D01*
X50358Y-34617D01*
X50367Y-34626D01*
X50386Y-34636D01*
X50424Y-34636D01*
X50442Y-34626D01*
X50452Y-34617D01*
X50461Y-34598D01*
X50461Y-34561D01*
X50452Y-34542D01*
X50442Y-34532D01*
X50424Y-34523D01*
X50386Y-34523D01*
X50367Y-34532D01*
X50358Y-34542D01*
X50349Y-34561D01*
X50136Y-34915D02*
X50146Y-34924D01*
X50155Y-34952D01*
X50155Y-34971D01*
X50146Y-34999D01*
X50127Y-35018D01*
X50108Y-35027D01*
X50071Y-35037D01*
X50043Y-35037D01*
X50005Y-35027D01*
X49986Y-35018D01*
X49968Y-34999D01*
X49958Y-34971D01*
X49958Y-34952D01*
X49968Y-34924D01*
X49977Y-34915D01*
X50155Y-34727D02*
X50155Y-34840D01*
X50155Y-34784D02*
X49958Y-34784D01*
X49986Y-34802D01*
X50005Y-34821D01*
X50015Y-34840D01*
X49958Y-34662D02*
X49958Y-34530D01*
X50155Y-34615D01*
X50043Y-34427D02*
X50033Y-34446D01*
X50024Y-34455D01*
X50005Y-34465D01*
X49996Y-34465D01*
X49977Y-34455D01*
X49968Y-34446D01*
X49958Y-34427D01*
X49958Y-34390D01*
X49968Y-34371D01*
X49977Y-34362D01*
X49996Y-34352D01*
X50005Y-34352D01*
X50024Y-34362D01*
X50033Y-34371D01*
X50043Y-34390D01*
X50043Y-34427D01*
X50052Y-34446D01*
X50061Y-34455D01*
X50080Y-34465D01*
X50118Y-34465D01*
X50136Y-34455D01*
X50146Y-34446D01*
X50155Y-34427D01*
X50155Y-34390D01*
X50146Y-34371D01*
X50136Y-34362D01*
X50118Y-34352D01*
X50080Y-34352D01*
X50061Y-34362D01*
X50052Y-34371D01*
X50043Y-34390D01*
X49790Y-34911D02*
X49800Y-34920D01*
X49809Y-34948D01*
X49809Y-34967D01*
X49800Y-34995D01*
X49781Y-35014D01*
X49762Y-35023D01*
X49725Y-35033D01*
X49697Y-35033D01*
X49659Y-35023D01*
X49640Y-35014D01*
X49622Y-34995D01*
X49612Y-34967D01*
X49612Y-34948D01*
X49622Y-34920D01*
X49631Y-34911D01*
X49809Y-34723D02*
X49809Y-34836D01*
X49809Y-34780D02*
X49612Y-34780D01*
X49640Y-34798D01*
X49659Y-34817D01*
X49669Y-34836D01*
X49612Y-34658D02*
X49612Y-34526D01*
X49809Y-34611D01*
X49612Y-34470D02*
X49612Y-34339D01*
X49809Y-34423D01*
X46136Y-36567D02*
X46071Y-36473D01*
X46024Y-36567D02*
X46024Y-36370D01*
X46099Y-36370D01*
X46117Y-36380D01*
X46127Y-36389D01*
X46136Y-36408D01*
X46136Y-36436D01*
X46127Y-36455D01*
X46117Y-36464D01*
X46099Y-36473D01*
X46024Y-36473D01*
X46324Y-36567D02*
X46211Y-36567D01*
X46267Y-36567D02*
X46267Y-36370D01*
X46249Y-36398D01*
X46230Y-36417D01*
X46211Y-36427D01*
X46446Y-36370D02*
X46464Y-36370D01*
X46483Y-36380D01*
X46492Y-36389D01*
X46502Y-36408D01*
X46511Y-36445D01*
X46511Y-36492D01*
X46502Y-36530D01*
X46492Y-36548D01*
X46483Y-36558D01*
X46464Y-36567D01*
X46446Y-36567D01*
X46427Y-36558D01*
X46417Y-36548D01*
X46408Y-36530D01*
X46399Y-36492D01*
X46399Y-36445D01*
X46408Y-36408D01*
X46417Y-36389D01*
X46427Y-36380D01*
X46446Y-36370D01*
X46624Y-36455D02*
X46605Y-36445D01*
X46596Y-36436D01*
X46586Y-36417D01*
X46586Y-36408D01*
X46596Y-36389D01*
X46605Y-36380D01*
X46624Y-36370D01*
X46661Y-36370D01*
X46680Y-36380D01*
X46689Y-36389D01*
X46699Y-36408D01*
X46699Y-36417D01*
X46689Y-36436D01*
X46680Y-36445D01*
X46661Y-36455D01*
X46624Y-36455D01*
X46605Y-36464D01*
X46596Y-36473D01*
X46586Y-36492D01*
X46586Y-36530D01*
X46596Y-36548D01*
X46605Y-36558D01*
X46624Y-36567D01*
X46661Y-36567D01*
X46680Y-36558D01*
X46689Y-36548D01*
X46699Y-36530D01*
X46699Y-36492D01*
X46689Y-36473D01*
X46680Y-36464D01*
X46661Y-36455D01*
X45210Y-35133D02*
X45145Y-35039D01*
X45098Y-35133D02*
X45098Y-34936D01*
X45173Y-34936D01*
X45191Y-34946D01*
X45201Y-34955D01*
X45210Y-34974D01*
X45210Y-35002D01*
X45201Y-35021D01*
X45191Y-35030D01*
X45173Y-35039D01*
X45098Y-35039D01*
X45398Y-35133D02*
X45285Y-35133D01*
X45341Y-35133D02*
X45341Y-34936D01*
X45323Y-34964D01*
X45304Y-34983D01*
X45285Y-34993D01*
X45520Y-34936D02*
X45538Y-34936D01*
X45557Y-34946D01*
X45566Y-34955D01*
X45576Y-34974D01*
X45585Y-35011D01*
X45585Y-35058D01*
X45576Y-35096D01*
X45566Y-35114D01*
X45557Y-35124D01*
X45538Y-35133D01*
X45520Y-35133D01*
X45501Y-35124D01*
X45491Y-35114D01*
X45482Y-35096D01*
X45473Y-35058D01*
X45473Y-35011D01*
X45482Y-34974D01*
X45491Y-34955D01*
X45501Y-34946D01*
X45520Y-34936D01*
X45763Y-34936D02*
X45670Y-34936D01*
X45660Y-35030D01*
X45670Y-35021D01*
X45688Y-35011D01*
X45735Y-35011D01*
X45754Y-35021D01*
X45763Y-35030D01*
X45773Y-35049D01*
X45773Y-35096D01*
X45763Y-35114D01*
X45754Y-35124D01*
X45735Y-35133D01*
X45688Y-35133D01*
X45670Y-35124D01*
X45660Y-35114D01*
X48026Y-36553D02*
X47961Y-36459D01*
X47914Y-36553D02*
X47914Y-36356D01*
X47989Y-36356D01*
X48007Y-36366D01*
X48017Y-36375D01*
X48026Y-36394D01*
X48026Y-36422D01*
X48017Y-36441D01*
X48007Y-36450D01*
X47989Y-36459D01*
X47914Y-36459D01*
X48214Y-36553D02*
X48101Y-36553D01*
X48157Y-36553D02*
X48157Y-36356D01*
X48139Y-36384D01*
X48120Y-36403D01*
X48101Y-36413D01*
X48401Y-36553D02*
X48289Y-36553D01*
X48345Y-36553D02*
X48345Y-36356D01*
X48326Y-36384D01*
X48307Y-36403D01*
X48289Y-36413D01*
X48523Y-36356D02*
X48542Y-36356D01*
X48561Y-36366D01*
X48570Y-36375D01*
X48579Y-36394D01*
X48589Y-36431D01*
X48589Y-36478D01*
X48579Y-36516D01*
X48570Y-36534D01*
X48561Y-36544D01*
X48542Y-36553D01*
X48523Y-36553D01*
X48504Y-36544D01*
X48495Y-36534D01*
X48486Y-36516D01*
X48476Y-36478D01*
X48476Y-36431D01*
X48486Y-36394D01*
X48495Y-36375D01*
X48504Y-36366D01*
X48523Y-36356D01*
X49399Y-35207D02*
X49409Y-35216D01*
X49418Y-35245D01*
X49418Y-35263D01*
X49409Y-35291D01*
X49390Y-35310D01*
X49371Y-35320D01*
X49334Y-35329D01*
X49306Y-35329D01*
X49268Y-35320D01*
X49249Y-35310D01*
X49231Y-35291D01*
X49221Y-35263D01*
X49221Y-35245D01*
X49231Y-35216D01*
X49240Y-35207D01*
X49418Y-35113D02*
X49418Y-35076D01*
X49409Y-35057D01*
X49399Y-35048D01*
X49371Y-35029D01*
X49334Y-35020D01*
X49259Y-35020D01*
X49240Y-35029D01*
X49231Y-35038D01*
X49221Y-35057D01*
X49221Y-35095D01*
X49231Y-35113D01*
X49240Y-35123D01*
X49259Y-35132D01*
X49306Y-35132D01*
X49324Y-35123D01*
X49334Y-35113D01*
X49343Y-35095D01*
X49343Y-35057D01*
X49334Y-35038D01*
X49324Y-35029D01*
X49306Y-35020D01*
X49418Y-34926D02*
X49418Y-34888D01*
X49409Y-34870D01*
X49399Y-34860D01*
X49371Y-34841D01*
X49334Y-34832D01*
X49259Y-34832D01*
X49240Y-34841D01*
X49231Y-34851D01*
X49221Y-34870D01*
X49221Y-34907D01*
X49231Y-34926D01*
X49240Y-34935D01*
X49259Y-34945D01*
X49306Y-34945D01*
X49324Y-34935D01*
X49334Y-34926D01*
X49343Y-34907D01*
X49343Y-34870D01*
X49334Y-34851D01*
X49324Y-34841D01*
X49306Y-34832D01*
X47098Y-35248D02*
X47004Y-35313D01*
X47098Y-35360D02*
X46901Y-35360D01*
X46901Y-35285D01*
X46911Y-35267D01*
X46920Y-35257D01*
X46939Y-35248D01*
X46967Y-35248D01*
X46986Y-35257D01*
X46995Y-35267D01*
X47004Y-35285D01*
X47004Y-35360D01*
X47098Y-35060D02*
X47098Y-35173D01*
X47098Y-35117D02*
X46901Y-35117D01*
X46929Y-35135D01*
X46948Y-35154D01*
X46958Y-35173D01*
X46901Y-34938D02*
X46901Y-34920D01*
X46911Y-34901D01*
X46920Y-34892D01*
X46939Y-34882D01*
X46976Y-34873D01*
X47023Y-34873D01*
X47061Y-34882D01*
X47079Y-34892D01*
X47089Y-34901D01*
X47098Y-34920D01*
X47098Y-34938D01*
X47089Y-34957D01*
X47079Y-34967D01*
X47061Y-34976D01*
X47023Y-34985D01*
X46976Y-34985D01*
X46939Y-34976D01*
X46920Y-34967D01*
X46911Y-34957D01*
X46901Y-34938D01*
X46901Y-34807D02*
X46901Y-34676D01*
X47098Y-34760D01*
X47686Y-33622D02*
X47592Y-33687D01*
X47686Y-33734D02*
X47489Y-33734D01*
X47489Y-33659D01*
X47499Y-33641D01*
X47508Y-33631D01*
X47527Y-33622D01*
X47555Y-33622D01*
X47574Y-33631D01*
X47583Y-33641D01*
X47592Y-33659D01*
X47592Y-33734D01*
X47686Y-33434D02*
X47686Y-33547D01*
X47686Y-33491D02*
X47489Y-33491D01*
X47517Y-33509D01*
X47536Y-33528D01*
X47546Y-33547D01*
X47489Y-33312D02*
X47489Y-33294D01*
X47499Y-33275D01*
X47508Y-33266D01*
X47527Y-33256D01*
X47564Y-33247D01*
X47611Y-33247D01*
X47649Y-33256D01*
X47667Y-33266D01*
X47677Y-33275D01*
X47686Y-33294D01*
X47686Y-33312D01*
X47677Y-33331D01*
X47667Y-33341D01*
X47649Y-33350D01*
X47611Y-33359D01*
X47564Y-33359D01*
X47527Y-33350D01*
X47508Y-33341D01*
X47499Y-33331D01*
X47489Y-33312D01*
X47686Y-33153D02*
X47686Y-33116D01*
X47677Y-33097D01*
X47667Y-33087D01*
X47639Y-33069D01*
X47602Y-33059D01*
X47527Y-33059D01*
X47508Y-33069D01*
X47499Y-33078D01*
X47489Y-33097D01*
X47489Y-33134D01*
X47499Y-33153D01*
X47508Y-33162D01*
X47527Y-33172D01*
X47574Y-33172D01*
X47592Y-33162D01*
X47602Y-33153D01*
X47611Y-33134D01*
X47611Y-33097D01*
X47602Y-33078D01*
X47592Y-33069D01*
X47574Y-33059D01*
X46312Y-35826D02*
X46247Y-35732D01*
X46200Y-35826D02*
X46200Y-35629D01*
X46275Y-35629D01*
X46293Y-35639D01*
X46303Y-35648D01*
X46312Y-35667D01*
X46312Y-35695D01*
X46303Y-35714D01*
X46293Y-35723D01*
X46275Y-35732D01*
X46200Y-35732D01*
X46500Y-35826D02*
X46387Y-35826D01*
X46443Y-35826D02*
X46443Y-35629D01*
X46425Y-35657D01*
X46406Y-35676D01*
X46387Y-35686D01*
X46622Y-35629D02*
X46640Y-35629D01*
X46659Y-35639D01*
X46668Y-35648D01*
X46678Y-35667D01*
X46687Y-35704D01*
X46687Y-35751D01*
X46678Y-35789D01*
X46668Y-35807D01*
X46659Y-35817D01*
X46640Y-35826D01*
X46622Y-35826D01*
X46603Y-35817D01*
X46593Y-35807D01*
X46584Y-35789D01*
X46575Y-35751D01*
X46575Y-35704D01*
X46584Y-35667D01*
X46593Y-35648D01*
X46603Y-35639D01*
X46622Y-35629D01*
X46856Y-35695D02*
X46856Y-35826D01*
X46809Y-35620D02*
X46762Y-35761D01*
X46884Y-35761D01*
X56495Y-26308D02*
X56429Y-26214D01*
X56382Y-26308D02*
X56382Y-26111D01*
X56457Y-26111D01*
X56476Y-26120D01*
X56485Y-26130D01*
X56495Y-26148D01*
X56495Y-26176D01*
X56485Y-26195D01*
X56476Y-26205D01*
X56457Y-26214D01*
X56382Y-26214D01*
X56663Y-26111D02*
X56626Y-26111D01*
X56607Y-26120D01*
X56598Y-26130D01*
X56579Y-26158D01*
X56570Y-26195D01*
X56570Y-26270D01*
X56579Y-26289D01*
X56588Y-26298D01*
X56607Y-26308D01*
X56645Y-26308D01*
X56663Y-26298D01*
X56673Y-26289D01*
X56682Y-26270D01*
X56682Y-26223D01*
X56673Y-26205D01*
X56663Y-26195D01*
X56645Y-26186D01*
X56607Y-26186D01*
X56588Y-26195D01*
X56579Y-26205D01*
X56570Y-26223D01*
X56748Y-26111D02*
X56879Y-26111D01*
X56795Y-26308D01*
G54D11*
X55250Y-26137D02*
X55100Y-26137D01*
X55100Y-25822D01*
X55355Y-26137D02*
X55355Y-25822D01*
X55430Y-25822D01*
X55474Y-25837D01*
X55504Y-25867D01*
X55519Y-25897D01*
X55534Y-25957D01*
X55534Y-26002D01*
X55519Y-26062D01*
X55504Y-26092D01*
X55474Y-26122D01*
X55430Y-26137D01*
X55355Y-26137D01*
X55804Y-25822D02*
X55744Y-25822D01*
X55714Y-25837D01*
X55699Y-25852D01*
X55669Y-25897D01*
X55654Y-25957D01*
X55654Y-26077D01*
X55669Y-26107D01*
X55684Y-26122D01*
X55714Y-26137D01*
X55774Y-26137D01*
X55804Y-26122D01*
X55819Y-26107D01*
X55834Y-26077D01*
X55834Y-26002D01*
X55819Y-25972D01*
X55804Y-25957D01*
X55774Y-25942D01*
X55714Y-25942D01*
X55684Y-25957D01*
X55669Y-25972D01*
X55654Y-26002D01*
G54D24*
X48488Y-51928D02*
X48422Y-51834D01*
X48375Y-51928D02*
X48375Y-51731D01*
X48450Y-51731D01*
X48469Y-51741D01*
X48479Y-51750D01*
X48488Y-51769D01*
X48488Y-51797D01*
X48479Y-51816D01*
X48469Y-51825D01*
X48450Y-51834D01*
X48375Y-51834D01*
X48675Y-51928D02*
X48563Y-51928D01*
X48619Y-51928D02*
X48619Y-51731D01*
X48600Y-51759D01*
X48582Y-51778D01*
X48563Y-51788D01*
X48854Y-51731D02*
X48760Y-51731D01*
X48750Y-51825D01*
X48760Y-51816D01*
X48779Y-51806D01*
X48825Y-51806D01*
X48844Y-51816D01*
X48854Y-51825D01*
X48863Y-51844D01*
X48863Y-51891D01*
X48854Y-51909D01*
X48844Y-51919D01*
X48825Y-51928D01*
X48779Y-51928D01*
X48760Y-51919D01*
X48750Y-51909D01*
X49849Y-52115D02*
X49755Y-52181D01*
X49849Y-52228D02*
X49652Y-52228D01*
X49652Y-52153D01*
X49662Y-52134D01*
X49671Y-52124D01*
X49690Y-52115D01*
X49718Y-52115D01*
X49737Y-52124D01*
X49746Y-52134D01*
X49755Y-52153D01*
X49755Y-52228D01*
X49849Y-51928D02*
X49849Y-52040D01*
X49849Y-51984D02*
X49652Y-51984D01*
X49680Y-52003D01*
X49699Y-52021D01*
X49709Y-52040D01*
X49718Y-51759D02*
X49849Y-51759D01*
X49643Y-51806D02*
X49784Y-51853D01*
X49784Y-51731D01*
G54D10*
X44510Y-46744D02*
X44529Y-46688D01*
X44529Y-46594D01*
X44510Y-46557D01*
X44491Y-46538D01*
X44454Y-46519D01*
X44416Y-46519D01*
X44379Y-46538D01*
X44360Y-46557D01*
X44341Y-46594D01*
X44323Y-46669D01*
X44304Y-46707D01*
X44285Y-46726D01*
X44248Y-46744D01*
X44210Y-46744D01*
X44173Y-46726D01*
X44154Y-46707D01*
X44135Y-46669D01*
X44135Y-46576D01*
X44154Y-46519D01*
X44135Y-46388D02*
X44529Y-46294D01*
X44248Y-46219D01*
X44529Y-46145D01*
X44135Y-46051D01*
X44529Y-45695D02*
X44529Y-45920D01*
X44529Y-45807D02*
X44135Y-45807D01*
X44191Y-45845D01*
X44229Y-45882D01*
X44248Y-45920D01*
G54D16*
X52229Y-51717D02*
X52229Y-51942D01*
X52229Y-51830D02*
X51835Y-51830D01*
X51891Y-51867D01*
X51929Y-51905D01*
X51948Y-51942D01*
G54D10*
X45205Y-40284D02*
X45374Y-40284D01*
X45407Y-40295D01*
X45430Y-40318D01*
X45441Y-40352D01*
X45441Y-40374D01*
X45205Y-40071D02*
X45205Y-40116D01*
X45216Y-40138D01*
X45227Y-40149D01*
X45261Y-40172D01*
X45306Y-40183D01*
X45396Y-40183D01*
X45419Y-40172D01*
X45430Y-40161D01*
X45441Y-40138D01*
X45441Y-40093D01*
X45430Y-40071D01*
X45419Y-40059D01*
X45396Y-40048D01*
X45340Y-40048D01*
X45317Y-40059D01*
X45306Y-40071D01*
X45295Y-40093D01*
X45295Y-40138D01*
X45306Y-40161D01*
X45317Y-40172D01*
X45340Y-40183D01*
X56718Y-30909D02*
X56718Y-31078D01*
X56707Y-31111D01*
X56685Y-31134D01*
X56651Y-31145D01*
X56628Y-31145D01*
X56954Y-31145D02*
X56820Y-31145D01*
X56887Y-31145D02*
X56887Y-30909D01*
X56865Y-30943D01*
X56842Y-30965D01*
X56820Y-30976D01*
X57179Y-31145D02*
X57044Y-31145D01*
X57112Y-31145D02*
X57112Y-30909D01*
X57089Y-30943D01*
X57067Y-30965D01*
X57044Y-30976D01*
X54688Y-46969D02*
X54688Y-47138D01*
X54677Y-47171D01*
X54655Y-47194D01*
X54621Y-47205D01*
X54598Y-47205D01*
X54924Y-47205D02*
X54790Y-47205D01*
X54857Y-47205D02*
X54857Y-46969D01*
X54835Y-47003D01*
X54812Y-47025D01*
X54790Y-47036D01*
X55071Y-46969D02*
X55093Y-46969D01*
X55116Y-46980D01*
X55127Y-46991D01*
X55138Y-47014D01*
X55149Y-47059D01*
X55149Y-47115D01*
X55138Y-47160D01*
X55127Y-47183D01*
X55116Y-47194D01*
X55093Y-47205D01*
X55071Y-47205D01*
X55048Y-47194D01*
X55037Y-47183D01*
X55026Y-47160D01*
X55014Y-47115D01*
X55014Y-47059D01*
X55026Y-47014D01*
X55037Y-46991D01*
X55048Y-46980D01*
X55071Y-46969D01*
X64761Y-27286D02*
X64930Y-27286D01*
X64963Y-27297D01*
X64986Y-27320D01*
X64997Y-27354D01*
X64997Y-27376D01*
X64862Y-27140D02*
X64851Y-27163D01*
X64840Y-27174D01*
X64817Y-27185D01*
X64806Y-27185D01*
X64783Y-27174D01*
X64772Y-27163D01*
X64761Y-27140D01*
X64761Y-27095D01*
X64772Y-27073D01*
X64783Y-27061D01*
X64806Y-27050D01*
X64817Y-27050D01*
X64840Y-27061D01*
X64851Y-27073D01*
X64862Y-27095D01*
X64862Y-27140D01*
X64873Y-27163D01*
X64885Y-27174D01*
X64907Y-27185D01*
X64952Y-27185D01*
X64975Y-27174D01*
X64986Y-27163D01*
X64997Y-27140D01*
X64997Y-27095D01*
X64986Y-27073D01*
X64975Y-27061D01*
X64952Y-27050D01*
X64907Y-27050D01*
X64885Y-27061D01*
X64873Y-27073D01*
X64862Y-27095D01*
X45197Y-38345D02*
X45366Y-38345D01*
X45399Y-38356D01*
X45422Y-38379D01*
X45433Y-38413D01*
X45433Y-38435D01*
X45197Y-38120D02*
X45197Y-38233D01*
X45309Y-38244D01*
X45298Y-38233D01*
X45287Y-38210D01*
X45287Y-38154D01*
X45298Y-38132D01*
X45309Y-38120D01*
X45332Y-38109D01*
X45388Y-38109D01*
X45411Y-38120D01*
X45422Y-38132D01*
X45433Y-38154D01*
X45433Y-38210D01*
X45422Y-38233D01*
X45411Y-38244D01*
G54D26*
X61358Y-31448D02*
X61349Y-31458D01*
X61321Y-31467D01*
X61302Y-31467D01*
X61274Y-31458D01*
X61255Y-31439D01*
X61246Y-31420D01*
X61236Y-31383D01*
X61236Y-31355D01*
X61246Y-31317D01*
X61255Y-31298D01*
X61274Y-31280D01*
X61302Y-31270D01*
X61321Y-31270D01*
X61349Y-31280D01*
X61358Y-31289D01*
X61546Y-31467D02*
X61433Y-31467D01*
X61489Y-31467D02*
X61489Y-31270D01*
X61471Y-31298D01*
X61452Y-31317D01*
X61433Y-31327D01*
X61724Y-31270D02*
X61630Y-31270D01*
X61621Y-31364D01*
X61630Y-31355D01*
X61649Y-31345D01*
X61696Y-31345D01*
X61714Y-31355D01*
X61724Y-31364D01*
X61733Y-31383D01*
X61733Y-31430D01*
X61724Y-31448D01*
X61714Y-31458D01*
X61696Y-31467D01*
X61649Y-31467D01*
X61630Y-31458D01*
X61621Y-31448D01*
X61799Y-31270D02*
X61921Y-31270D01*
X61855Y-31345D01*
X61883Y-31345D01*
X61902Y-31355D01*
X61911Y-31364D01*
X61921Y-31383D01*
X61921Y-31430D01*
X61911Y-31448D01*
X61902Y-31458D01*
X61883Y-31467D01*
X61827Y-31467D01*
X61808Y-31458D01*
X61799Y-31448D01*
X61884Y-31027D02*
X61894Y-31036D01*
X61903Y-31064D01*
X61903Y-31083D01*
X61894Y-31111D01*
X61875Y-31130D01*
X61856Y-31139D01*
X61819Y-31149D01*
X61791Y-31149D01*
X61753Y-31139D01*
X61734Y-31130D01*
X61716Y-31111D01*
X61706Y-31083D01*
X61706Y-31064D01*
X61716Y-31036D01*
X61725Y-31027D01*
X61903Y-30839D02*
X61903Y-30952D01*
X61903Y-30896D02*
X61706Y-30896D01*
X61734Y-30914D01*
X61753Y-30933D01*
X61763Y-30952D01*
X61772Y-30671D02*
X61903Y-30671D01*
X61697Y-30717D02*
X61838Y-30764D01*
X61838Y-30642D01*
X61706Y-30586D02*
X61706Y-30464D01*
X61781Y-30530D01*
X61781Y-30502D01*
X61791Y-30483D01*
X61800Y-30474D01*
X61819Y-30464D01*
X61866Y-30464D01*
X61884Y-30474D01*
X61894Y-30483D01*
X61903Y-30502D01*
X61903Y-30558D01*
X61894Y-30577D01*
X61884Y-30586D01*
X61415Y-31041D02*
X61425Y-31050D01*
X61434Y-31078D01*
X61434Y-31097D01*
X61425Y-31125D01*
X61406Y-31144D01*
X61387Y-31153D01*
X61350Y-31163D01*
X61322Y-31163D01*
X61284Y-31153D01*
X61265Y-31144D01*
X61247Y-31125D01*
X61237Y-31097D01*
X61237Y-31078D01*
X61247Y-31050D01*
X61256Y-31041D01*
X61434Y-30853D02*
X61434Y-30966D01*
X61434Y-30910D02*
X61237Y-30910D01*
X61265Y-30928D01*
X61284Y-30947D01*
X61294Y-30966D01*
X61303Y-30685D02*
X61434Y-30685D01*
X61228Y-30731D02*
X61369Y-30778D01*
X61369Y-30656D01*
X61303Y-30497D02*
X61434Y-30497D01*
X61228Y-30544D02*
X61369Y-30591D01*
X61369Y-30469D01*
X60175Y-31448D02*
X60166Y-31458D01*
X60138Y-31467D01*
X60119Y-31467D01*
X60091Y-31458D01*
X60072Y-31439D01*
X60063Y-31420D01*
X60053Y-31383D01*
X60053Y-31355D01*
X60063Y-31317D01*
X60072Y-31298D01*
X60091Y-31280D01*
X60119Y-31270D01*
X60138Y-31270D01*
X60166Y-31280D01*
X60175Y-31289D01*
X60363Y-31467D02*
X60250Y-31467D01*
X60306Y-31467D02*
X60306Y-31270D01*
X60288Y-31298D01*
X60269Y-31317D01*
X60250Y-31327D01*
X60541Y-31270D02*
X60447Y-31270D01*
X60438Y-31364D01*
X60447Y-31355D01*
X60466Y-31345D01*
X60513Y-31345D01*
X60531Y-31355D01*
X60541Y-31364D01*
X60550Y-31383D01*
X60550Y-31430D01*
X60541Y-31448D01*
X60531Y-31458D01*
X60513Y-31467D01*
X60466Y-31467D01*
X60447Y-31458D01*
X60438Y-31448D01*
X60719Y-31336D02*
X60719Y-31467D01*
X60672Y-31261D02*
X60625Y-31402D01*
X60747Y-31402D01*
X60722Y-31027D02*
X60732Y-31036D01*
X60741Y-31064D01*
X60741Y-31083D01*
X60732Y-31111D01*
X60713Y-31130D01*
X60694Y-31139D01*
X60657Y-31149D01*
X60629Y-31149D01*
X60591Y-31139D01*
X60572Y-31130D01*
X60554Y-31111D01*
X60544Y-31083D01*
X60544Y-31064D01*
X60554Y-31036D01*
X60563Y-31027D01*
X60741Y-30839D02*
X60741Y-30952D01*
X60741Y-30896D02*
X60544Y-30896D01*
X60572Y-30914D01*
X60591Y-30933D01*
X60601Y-30952D01*
X60544Y-30774D02*
X60544Y-30652D01*
X60619Y-30717D01*
X60619Y-30689D01*
X60629Y-30671D01*
X60638Y-30661D01*
X60657Y-30652D01*
X60704Y-30652D01*
X60722Y-30661D01*
X60732Y-30671D01*
X60741Y-30689D01*
X60741Y-30746D01*
X60732Y-30764D01*
X60722Y-30774D01*
X60741Y-30558D02*
X60741Y-30521D01*
X60732Y-30502D01*
X60722Y-30492D01*
X60694Y-30474D01*
X60657Y-30464D01*
X60582Y-30464D01*
X60563Y-30474D01*
X60554Y-30483D01*
X60544Y-30502D01*
X60544Y-30539D01*
X60554Y-30558D01*
X60563Y-30567D01*
X60582Y-30577D01*
X60629Y-30577D01*
X60647Y-30567D01*
X60657Y-30558D01*
X60666Y-30539D01*
X60666Y-30502D01*
X60657Y-30483D01*
X60647Y-30474D01*
X60629Y-30464D01*
X60225Y-31027D02*
X60235Y-31036D01*
X60244Y-31064D01*
X60244Y-31083D01*
X60235Y-31111D01*
X60216Y-31130D01*
X60197Y-31139D01*
X60160Y-31149D01*
X60132Y-31149D01*
X60094Y-31139D01*
X60075Y-31130D01*
X60057Y-31111D01*
X60047Y-31083D01*
X60047Y-31064D01*
X60057Y-31036D01*
X60066Y-31027D01*
X60244Y-30839D02*
X60244Y-30952D01*
X60244Y-30896D02*
X60047Y-30896D01*
X60075Y-30914D01*
X60094Y-30933D01*
X60104Y-30952D01*
X60113Y-30671D02*
X60244Y-30671D01*
X60038Y-30717D02*
X60179Y-30764D01*
X60179Y-30642D01*
X60047Y-30530D02*
X60047Y-30511D01*
X60057Y-30492D01*
X60066Y-30483D01*
X60085Y-30474D01*
X60122Y-30464D01*
X60169Y-30464D01*
X60207Y-30474D01*
X60225Y-30483D01*
X60235Y-30492D01*
X60244Y-30511D01*
X60244Y-30530D01*
X60235Y-30549D01*
X60225Y-30558D01*
X60207Y-30567D01*
X60169Y-30577D01*
X60122Y-30577D01*
X60085Y-30567D01*
X60066Y-30558D01*
X60057Y-30549D01*
X60047Y-30530D01*
X51056Y-35415D02*
X50944Y-35395D01*
X50977Y-35495D02*
X50838Y-35356D01*
X50891Y-35303D01*
X50911Y-35296D01*
X50924Y-35296D01*
X50944Y-35303D01*
X50964Y-35323D01*
X50970Y-35342D01*
X50970Y-35356D01*
X50964Y-35376D01*
X50911Y-35429D01*
X51123Y-35349D02*
X51149Y-35323D01*
X51156Y-35303D01*
X51156Y-35289D01*
X51149Y-35256D01*
X51129Y-35223D01*
X51076Y-35170D01*
X51056Y-35163D01*
X51043Y-35163D01*
X51023Y-35170D01*
X50997Y-35197D01*
X50990Y-35216D01*
X50990Y-35230D01*
X50997Y-35250D01*
X51030Y-35283D01*
X51050Y-35289D01*
X51063Y-35289D01*
X51083Y-35283D01*
X51109Y-35256D01*
X51116Y-35236D01*
X51116Y-35223D01*
X51109Y-35203D01*
X51136Y-35057D02*
X51149Y-35044D01*
X51169Y-35038D01*
X51182Y-35038D01*
X51202Y-35044D01*
X51235Y-35064D01*
X51268Y-35097D01*
X51288Y-35130D01*
X51295Y-35150D01*
X51295Y-35163D01*
X51288Y-35183D01*
X51275Y-35197D01*
X51255Y-35203D01*
X51242Y-35203D01*
X51222Y-35197D01*
X51189Y-35177D01*
X51156Y-35144D01*
X51136Y-35110D01*
X51129Y-35091D01*
X51129Y-35077D01*
X51136Y-35057D01*
X51104Y-35676D02*
X51124Y-35564D01*
X51024Y-35597D02*
X51163Y-35458D01*
X51216Y-35511D01*
X51223Y-35531D01*
X51223Y-35544D01*
X51216Y-35564D01*
X51196Y-35584D01*
X51177Y-35590D01*
X51163Y-35590D01*
X51143Y-35584D01*
X51090Y-35531D01*
X51170Y-35743D02*
X51196Y-35769D01*
X51216Y-35776D01*
X51230Y-35776D01*
X51263Y-35769D01*
X51296Y-35749D01*
X51349Y-35696D01*
X51356Y-35676D01*
X51356Y-35663D01*
X51349Y-35643D01*
X51322Y-35617D01*
X51303Y-35610D01*
X51289Y-35610D01*
X51269Y-35617D01*
X51236Y-35650D01*
X51230Y-35670D01*
X51230Y-35683D01*
X51236Y-35703D01*
X51263Y-35729D01*
X51283Y-35736D01*
X51296Y-35736D01*
X51316Y-35729D01*
X51369Y-35941D02*
X51289Y-35862D01*
X51329Y-35902D02*
X51468Y-35763D01*
X51435Y-35769D01*
X51409Y-35769D01*
X51389Y-35763D01*
X51364Y-35386D02*
X51384Y-35274D01*
X51284Y-35307D02*
X51423Y-35168D01*
X51476Y-35221D01*
X51483Y-35241D01*
X51483Y-35254D01*
X51476Y-35274D01*
X51456Y-35294D01*
X51437Y-35300D01*
X51423Y-35300D01*
X51403Y-35294D01*
X51350Y-35241D01*
X51430Y-35453D02*
X51456Y-35479D01*
X51476Y-35486D01*
X51490Y-35486D01*
X51523Y-35479D01*
X51556Y-35459D01*
X51609Y-35406D01*
X51616Y-35386D01*
X51616Y-35373D01*
X51609Y-35353D01*
X51582Y-35327D01*
X51563Y-35320D01*
X51549Y-35320D01*
X51529Y-35327D01*
X51496Y-35360D01*
X51490Y-35380D01*
X51490Y-35393D01*
X51496Y-35413D01*
X51523Y-35439D01*
X51543Y-35446D01*
X51556Y-35446D01*
X51576Y-35439D01*
X51675Y-35446D02*
X51688Y-35446D01*
X51708Y-35453D01*
X51741Y-35486D01*
X51748Y-35506D01*
X51748Y-35519D01*
X51741Y-35539D01*
X51728Y-35552D01*
X51702Y-35565D01*
X51543Y-35565D01*
X51629Y-35651D01*
X51627Y-36118D02*
X51627Y-36132D01*
X51614Y-36158D01*
X51600Y-36171D01*
X51574Y-36185D01*
X51547Y-36185D01*
X51527Y-36178D01*
X51494Y-36158D01*
X51474Y-36138D01*
X51454Y-36105D01*
X51448Y-36085D01*
X51448Y-36059D01*
X51461Y-36032D01*
X51474Y-36019D01*
X51501Y-36006D01*
X51514Y-36006D01*
X51773Y-35999D02*
X51693Y-36079D01*
X51733Y-36039D02*
X51594Y-35900D01*
X51600Y-35933D01*
X51600Y-35959D01*
X51594Y-35979D01*
X51753Y-35741D02*
X51726Y-35767D01*
X51720Y-35787D01*
X51720Y-35800D01*
X51726Y-35833D01*
X51746Y-35866D01*
X51799Y-35919D01*
X51819Y-35926D01*
X51832Y-35926D01*
X51852Y-35919D01*
X51879Y-35893D01*
X51885Y-35873D01*
X51885Y-35860D01*
X51879Y-35840D01*
X51846Y-35807D01*
X51826Y-35800D01*
X51812Y-35800D01*
X51793Y-35807D01*
X51766Y-35833D01*
X51759Y-35853D01*
X51759Y-35866D01*
X51766Y-35886D01*
X52038Y-35734D02*
X51958Y-35813D01*
X51998Y-35774D02*
X51859Y-35634D01*
X51865Y-35668D01*
X51865Y-35694D01*
X51859Y-35714D01*
X52571Y-37759D02*
X52581Y-37768D01*
X52590Y-37796D01*
X52590Y-37815D01*
X52581Y-37843D01*
X52562Y-37862D01*
X52543Y-37871D01*
X52506Y-37881D01*
X52478Y-37881D01*
X52440Y-37871D01*
X52421Y-37862D01*
X52403Y-37843D01*
X52393Y-37815D01*
X52393Y-37796D01*
X52403Y-37768D01*
X52412Y-37759D01*
X52590Y-37571D02*
X52590Y-37684D01*
X52590Y-37628D02*
X52393Y-37628D01*
X52421Y-37646D01*
X52440Y-37665D01*
X52450Y-37684D01*
X52393Y-37449D02*
X52393Y-37431D01*
X52403Y-37412D01*
X52412Y-37403D01*
X52431Y-37393D01*
X52468Y-37384D01*
X52515Y-37384D01*
X52553Y-37393D01*
X52571Y-37403D01*
X52581Y-37412D01*
X52590Y-37431D01*
X52590Y-37449D01*
X52581Y-37468D01*
X52571Y-37478D01*
X52553Y-37487D01*
X52515Y-37496D01*
X52468Y-37496D01*
X52431Y-37487D01*
X52412Y-37478D01*
X52403Y-37468D01*
X52393Y-37449D01*
X52590Y-37196D02*
X52590Y-37309D01*
X52590Y-37253D02*
X52393Y-37253D01*
X52421Y-37271D01*
X52440Y-37290D01*
X52450Y-37309D01*
X53073Y-36812D02*
X53064Y-36822D01*
X53036Y-36831D01*
X53017Y-36831D01*
X52989Y-36822D01*
X52970Y-36803D01*
X52961Y-36784D01*
X52951Y-36747D01*
X52951Y-36719D01*
X52961Y-36681D01*
X52970Y-36662D01*
X52989Y-36644D01*
X53017Y-36634D01*
X53036Y-36634D01*
X53064Y-36644D01*
X53073Y-36653D01*
X53261Y-36831D02*
X53148Y-36831D01*
X53204Y-36831D02*
X53204Y-36634D01*
X53186Y-36662D01*
X53167Y-36681D01*
X53148Y-36691D01*
X53383Y-36634D02*
X53401Y-36634D01*
X53420Y-36644D01*
X53429Y-36653D01*
X53439Y-36672D01*
X53448Y-36709D01*
X53448Y-36756D01*
X53439Y-36794D01*
X53429Y-36812D01*
X53420Y-36822D01*
X53401Y-36831D01*
X53383Y-36831D01*
X53364Y-36822D01*
X53354Y-36812D01*
X53345Y-36794D01*
X53336Y-36756D01*
X53336Y-36709D01*
X53345Y-36672D01*
X53354Y-36653D01*
X53364Y-36644D01*
X53383Y-36634D01*
X53523Y-36653D02*
X53533Y-36644D01*
X53551Y-36634D01*
X53598Y-36634D01*
X53617Y-36644D01*
X53626Y-36653D01*
X53636Y-36672D01*
X53636Y-36691D01*
X53626Y-36719D01*
X53514Y-36831D01*
X53636Y-36831D01*
X55548Y-34920D02*
X55539Y-34930D01*
X55511Y-34939D01*
X55492Y-34939D01*
X55464Y-34930D01*
X55445Y-34911D01*
X55436Y-34892D01*
X55426Y-34855D01*
X55426Y-34827D01*
X55436Y-34789D01*
X55445Y-34770D01*
X55464Y-34752D01*
X55492Y-34742D01*
X55511Y-34742D01*
X55539Y-34752D01*
X55548Y-34761D01*
X55736Y-34939D02*
X55623Y-34939D01*
X55679Y-34939D02*
X55679Y-34742D01*
X55661Y-34770D01*
X55642Y-34789D01*
X55623Y-34799D01*
X55914Y-34742D02*
X55820Y-34742D01*
X55811Y-34836D01*
X55820Y-34827D01*
X55839Y-34817D01*
X55886Y-34817D01*
X55904Y-34827D01*
X55914Y-34836D01*
X55923Y-34855D01*
X55923Y-34902D01*
X55914Y-34920D01*
X55904Y-34930D01*
X55886Y-34939D01*
X55839Y-34939D01*
X55820Y-34930D01*
X55811Y-34920D01*
X56036Y-34827D02*
X56017Y-34817D01*
X56008Y-34808D01*
X55998Y-34789D01*
X55998Y-34780D01*
X56008Y-34761D01*
X56017Y-34752D01*
X56036Y-34742D01*
X56073Y-34742D01*
X56092Y-34752D01*
X56101Y-34761D01*
X56111Y-34780D01*
X56111Y-34789D01*
X56101Y-34808D01*
X56092Y-34817D01*
X56073Y-34827D01*
X56036Y-34827D01*
X56017Y-34836D01*
X56008Y-34845D01*
X55998Y-34864D01*
X55998Y-34902D01*
X56008Y-34920D01*
X56017Y-34930D01*
X56036Y-34939D01*
X56073Y-34939D01*
X56092Y-34930D01*
X56101Y-34920D01*
X56111Y-34902D01*
X56111Y-34864D01*
X56101Y-34845D01*
X56092Y-34836D01*
X56073Y-34827D01*
X53262Y-34920D02*
X53253Y-34930D01*
X53225Y-34939D01*
X53206Y-34939D01*
X53178Y-34930D01*
X53159Y-34911D01*
X53150Y-34892D01*
X53140Y-34855D01*
X53140Y-34827D01*
X53150Y-34789D01*
X53159Y-34770D01*
X53178Y-34752D01*
X53206Y-34742D01*
X53225Y-34742D01*
X53253Y-34752D01*
X53262Y-34761D01*
X53450Y-34939D02*
X53337Y-34939D01*
X53393Y-34939D02*
X53393Y-34742D01*
X53375Y-34770D01*
X53356Y-34789D01*
X53337Y-34799D01*
X53628Y-34742D02*
X53534Y-34742D01*
X53525Y-34836D01*
X53534Y-34827D01*
X53553Y-34817D01*
X53600Y-34817D01*
X53618Y-34827D01*
X53628Y-34836D01*
X53637Y-34855D01*
X53637Y-34902D01*
X53628Y-34920D01*
X53618Y-34930D01*
X53600Y-34939D01*
X53553Y-34939D01*
X53534Y-34930D01*
X53525Y-34920D01*
X53806Y-34742D02*
X53768Y-34742D01*
X53750Y-34752D01*
X53740Y-34761D01*
X53722Y-34789D01*
X53712Y-34827D01*
X53712Y-34902D01*
X53722Y-34920D01*
X53731Y-34930D01*
X53750Y-34939D01*
X53787Y-34939D01*
X53806Y-34930D01*
X53815Y-34920D01*
X53825Y-34902D01*
X53825Y-34855D01*
X53815Y-34836D01*
X53806Y-34827D01*
X53787Y-34817D01*
X53750Y-34817D01*
X53731Y-34827D01*
X53722Y-34836D01*
X53712Y-34855D01*
G54D10*
X56088Y-40324D02*
X56088Y-40643D01*
X56107Y-40680D01*
X56125Y-40699D01*
X56163Y-40717D01*
X56238Y-40717D01*
X56275Y-40699D01*
X56294Y-40680D01*
X56313Y-40643D01*
X56313Y-40324D01*
X56707Y-40717D02*
X56482Y-40717D01*
X56594Y-40717D02*
X56594Y-40324D01*
X56557Y-40380D01*
X56519Y-40418D01*
X56482Y-40436D01*
G54D24*
X58596Y-34776D02*
X58606Y-34785D01*
X58615Y-34813D01*
X58615Y-34832D01*
X58606Y-34860D01*
X58587Y-34879D01*
X58568Y-34888D01*
X58531Y-34898D01*
X58503Y-34898D01*
X58465Y-34888D01*
X58446Y-34879D01*
X58428Y-34860D01*
X58418Y-34832D01*
X58418Y-34813D01*
X58428Y-34785D01*
X58437Y-34776D01*
X58615Y-34588D02*
X58615Y-34701D01*
X58615Y-34645D02*
X58418Y-34645D01*
X58446Y-34663D01*
X58465Y-34682D01*
X58475Y-34701D01*
X58418Y-34466D02*
X58418Y-34448D01*
X58428Y-34429D01*
X58437Y-34420D01*
X58456Y-34410D01*
X58493Y-34401D01*
X58540Y-34401D01*
X58578Y-34410D01*
X58596Y-34420D01*
X58606Y-34429D01*
X58615Y-34448D01*
X58615Y-34466D01*
X58606Y-34485D01*
X58596Y-34495D01*
X58578Y-34504D01*
X58540Y-34513D01*
X58493Y-34513D01*
X58456Y-34504D01*
X58437Y-34495D01*
X58428Y-34485D01*
X58418Y-34466D01*
X58418Y-34335D02*
X58418Y-34204D01*
X58615Y-34288D01*
G54D26*
X58596Y-32278D02*
X58606Y-32287D01*
X58615Y-32315D01*
X58615Y-32334D01*
X58606Y-32362D01*
X58587Y-32381D01*
X58568Y-32390D01*
X58531Y-32400D01*
X58503Y-32400D01*
X58465Y-32390D01*
X58446Y-32381D01*
X58428Y-32362D01*
X58418Y-32334D01*
X58418Y-32315D01*
X58428Y-32287D01*
X58437Y-32278D01*
X58615Y-32090D02*
X58615Y-32203D01*
X58615Y-32147D02*
X58418Y-32147D01*
X58446Y-32165D01*
X58465Y-32184D01*
X58475Y-32203D01*
X58418Y-31968D02*
X58418Y-31950D01*
X58428Y-31931D01*
X58437Y-31922D01*
X58456Y-31912D01*
X58493Y-31903D01*
X58540Y-31903D01*
X58578Y-31912D01*
X58596Y-31922D01*
X58606Y-31931D01*
X58615Y-31950D01*
X58615Y-31968D01*
X58606Y-31987D01*
X58596Y-31997D01*
X58578Y-32006D01*
X58540Y-32015D01*
X58493Y-32015D01*
X58456Y-32006D01*
X58437Y-31997D01*
X58428Y-31987D01*
X58418Y-31968D01*
X58615Y-31809D02*
X58615Y-31772D01*
X58606Y-31753D01*
X58596Y-31743D01*
X58568Y-31725D01*
X58531Y-31715D01*
X58456Y-31715D01*
X58437Y-31725D01*
X58428Y-31734D01*
X58418Y-31753D01*
X58418Y-31790D01*
X58428Y-31809D01*
X58437Y-31818D01*
X58456Y-31828D01*
X58503Y-31828D01*
X58521Y-31818D01*
X58531Y-31809D01*
X58540Y-31790D01*
X58540Y-31753D01*
X58531Y-31734D01*
X58521Y-31725D01*
X58503Y-31715D01*
G54D24*
X56854Y-37149D02*
X56788Y-37149D01*
X56788Y-37252D02*
X56788Y-37055D01*
X56882Y-37055D01*
X57023Y-37149D02*
X57051Y-37158D01*
X57060Y-37168D01*
X57069Y-37186D01*
X57069Y-37214D01*
X57060Y-37233D01*
X57051Y-37243D01*
X57032Y-37252D01*
X56957Y-37252D01*
X56957Y-37055D01*
X57023Y-37055D01*
X57041Y-37065D01*
X57051Y-37074D01*
X57060Y-37093D01*
X57060Y-37111D01*
X57051Y-37130D01*
X57041Y-37140D01*
X57023Y-37149D01*
X56957Y-37149D01*
X57238Y-37121D02*
X57238Y-37252D01*
X57191Y-37046D02*
X57144Y-37186D01*
X57266Y-37186D01*
X56559Y-37602D02*
X56493Y-37602D01*
X56493Y-37705D02*
X56493Y-37508D01*
X56587Y-37508D01*
X56727Y-37602D02*
X56755Y-37611D01*
X56765Y-37620D01*
X56774Y-37639D01*
X56774Y-37667D01*
X56765Y-37686D01*
X56755Y-37695D01*
X56737Y-37705D01*
X56662Y-37705D01*
X56662Y-37508D01*
X56727Y-37508D01*
X56746Y-37517D01*
X56755Y-37527D01*
X56765Y-37545D01*
X56765Y-37564D01*
X56755Y-37583D01*
X56746Y-37592D01*
X56727Y-37602D01*
X56662Y-37602D01*
X56840Y-37508D02*
X56962Y-37508D01*
X56896Y-37583D01*
X56924Y-37583D01*
X56943Y-37592D01*
X56952Y-37602D01*
X56962Y-37620D01*
X56962Y-37667D01*
X56952Y-37686D01*
X56943Y-37695D01*
X56924Y-37705D01*
X56868Y-37705D01*
X56849Y-37695D01*
X56840Y-37686D01*
X56184Y-36637D02*
X56119Y-36637D01*
X56119Y-36740D02*
X56119Y-36543D01*
X56213Y-36543D01*
X56353Y-36637D02*
X56381Y-36646D01*
X56391Y-36656D01*
X56400Y-36675D01*
X56400Y-36703D01*
X56391Y-36721D01*
X56381Y-36731D01*
X56363Y-36740D01*
X56288Y-36740D01*
X56288Y-36543D01*
X56353Y-36543D01*
X56372Y-36553D01*
X56381Y-36562D01*
X56391Y-36581D01*
X56391Y-36600D01*
X56381Y-36618D01*
X56372Y-36628D01*
X56353Y-36637D01*
X56288Y-36637D01*
X56578Y-36543D02*
X56484Y-36543D01*
X56475Y-36637D01*
X56484Y-36628D01*
X56503Y-36618D01*
X56550Y-36618D01*
X56569Y-36628D01*
X56578Y-36637D01*
X56588Y-36656D01*
X56588Y-36703D01*
X56578Y-36721D01*
X56569Y-36731D01*
X56550Y-36740D01*
X56503Y-36740D01*
X56484Y-36731D01*
X56475Y-36721D01*
G54D26*
X58305Y-34597D02*
X58305Y-34691D01*
X58108Y-34691D01*
X58305Y-34429D02*
X58305Y-34541D01*
X58305Y-34485D02*
X58108Y-34485D01*
X58136Y-34504D01*
X58155Y-34522D01*
X58165Y-34541D01*
X58583Y-35568D02*
X58593Y-35577D01*
X58602Y-35605D01*
X58602Y-35624D01*
X58593Y-35652D01*
X58574Y-35671D01*
X58555Y-35680D01*
X58518Y-35690D01*
X58490Y-35690D01*
X58452Y-35680D01*
X58433Y-35671D01*
X58415Y-35652D01*
X58405Y-35624D01*
X58405Y-35605D01*
X58415Y-35577D01*
X58424Y-35568D01*
X58602Y-35380D02*
X58602Y-35493D01*
X58602Y-35437D02*
X58405Y-35437D01*
X58433Y-35455D01*
X58452Y-35474D01*
X58462Y-35493D01*
X58602Y-35193D02*
X58602Y-35305D01*
X58602Y-35249D02*
X58405Y-35249D01*
X58433Y-35268D01*
X58452Y-35287D01*
X58462Y-35305D01*
X58424Y-35118D02*
X58415Y-35108D01*
X58405Y-35090D01*
X58405Y-35043D01*
X58415Y-35024D01*
X58424Y-35015D01*
X58443Y-35005D01*
X58462Y-35005D01*
X58490Y-35015D01*
X58602Y-35127D01*
X58602Y-35005D01*
X58592Y-33993D02*
X58602Y-34002D01*
X58611Y-34030D01*
X58611Y-34049D01*
X58602Y-34077D01*
X58583Y-34096D01*
X58564Y-34105D01*
X58527Y-34115D01*
X58499Y-34115D01*
X58461Y-34105D01*
X58442Y-34096D01*
X58424Y-34077D01*
X58414Y-34049D01*
X58414Y-34030D01*
X58424Y-34002D01*
X58433Y-33993D01*
X58611Y-33805D02*
X58611Y-33918D01*
X58611Y-33862D02*
X58414Y-33862D01*
X58442Y-33880D01*
X58461Y-33899D01*
X58471Y-33918D01*
X58611Y-33618D02*
X58611Y-33730D01*
X58611Y-33674D02*
X58414Y-33674D01*
X58442Y-33693D01*
X58461Y-33712D01*
X58471Y-33730D01*
X58611Y-33430D02*
X58611Y-33543D01*
X58611Y-33487D02*
X58414Y-33487D01*
X58442Y-33505D01*
X58461Y-33524D01*
X58471Y-33543D01*
X58867Y-34845D02*
X58858Y-34855D01*
X58830Y-34864D01*
X58811Y-34864D01*
X58783Y-34855D01*
X58764Y-34836D01*
X58755Y-34817D01*
X58745Y-34780D01*
X58745Y-34752D01*
X58755Y-34714D01*
X58764Y-34695D01*
X58783Y-34677D01*
X58811Y-34667D01*
X58830Y-34667D01*
X58858Y-34677D01*
X58867Y-34686D01*
X59055Y-34864D02*
X58942Y-34864D01*
X58998Y-34864D02*
X58998Y-34667D01*
X58980Y-34695D01*
X58961Y-34714D01*
X58942Y-34724D01*
X59130Y-34686D02*
X59139Y-34677D01*
X59158Y-34667D01*
X59205Y-34667D01*
X59223Y-34677D01*
X59233Y-34686D01*
X59242Y-34705D01*
X59242Y-34724D01*
X59233Y-34752D01*
X59120Y-34864D01*
X59242Y-34864D01*
X59364Y-34667D02*
X59383Y-34667D01*
X59402Y-34677D01*
X59411Y-34686D01*
X59420Y-34705D01*
X59430Y-34742D01*
X59430Y-34789D01*
X59420Y-34827D01*
X59411Y-34845D01*
X59402Y-34855D01*
X59383Y-34864D01*
X59364Y-34864D01*
X59345Y-34855D01*
X59336Y-34845D01*
X59327Y-34827D01*
X59317Y-34789D01*
X59317Y-34742D01*
X59327Y-34705D01*
X59336Y-34686D01*
X59345Y-34677D01*
X59364Y-34667D01*
X58861Y-34386D02*
X58852Y-34396D01*
X58824Y-34405D01*
X58805Y-34405D01*
X58777Y-34396D01*
X58758Y-34377D01*
X58749Y-34358D01*
X58739Y-34321D01*
X58739Y-34293D01*
X58749Y-34255D01*
X58758Y-34236D01*
X58777Y-34218D01*
X58805Y-34208D01*
X58824Y-34208D01*
X58852Y-34218D01*
X58861Y-34227D01*
X59049Y-34405D02*
X58936Y-34405D01*
X58992Y-34405D02*
X58992Y-34208D01*
X58974Y-34236D01*
X58955Y-34255D01*
X58936Y-34265D01*
X59236Y-34405D02*
X59124Y-34405D01*
X59180Y-34405D02*
X59180Y-34208D01*
X59161Y-34236D01*
X59142Y-34255D01*
X59124Y-34265D01*
X59330Y-34405D02*
X59367Y-34405D01*
X59386Y-34396D01*
X59396Y-34386D01*
X59414Y-34358D01*
X59424Y-34321D01*
X59424Y-34246D01*
X59414Y-34227D01*
X59405Y-34218D01*
X59386Y-34208D01*
X59349Y-34208D01*
X59330Y-34218D01*
X59321Y-34227D01*
X59311Y-34246D01*
X59311Y-34293D01*
X59321Y-34311D01*
X59330Y-34321D01*
X59349Y-34330D01*
X59386Y-34330D01*
X59405Y-34321D01*
X59414Y-34311D01*
X59424Y-34293D01*
X59724Y-34777D02*
X59734Y-34786D01*
X59743Y-34814D01*
X59743Y-34833D01*
X59734Y-34861D01*
X59715Y-34880D01*
X59696Y-34889D01*
X59659Y-34899D01*
X59631Y-34899D01*
X59593Y-34889D01*
X59574Y-34880D01*
X59556Y-34861D01*
X59546Y-34833D01*
X59546Y-34814D01*
X59556Y-34786D01*
X59565Y-34777D01*
X59743Y-34589D02*
X59743Y-34702D01*
X59743Y-34646D02*
X59546Y-34646D01*
X59574Y-34664D01*
X59593Y-34683D01*
X59603Y-34702D01*
X59565Y-34514D02*
X59556Y-34505D01*
X59546Y-34486D01*
X59546Y-34439D01*
X59556Y-34421D01*
X59565Y-34411D01*
X59584Y-34402D01*
X59603Y-34402D01*
X59631Y-34411D01*
X59743Y-34524D01*
X59743Y-34402D01*
X59546Y-34336D02*
X59546Y-34205D01*
X59743Y-34289D01*
X58296Y-32099D02*
X58296Y-32193D01*
X58099Y-32193D01*
X58099Y-32052D02*
X58099Y-31931D01*
X58174Y-31996D01*
X58174Y-31968D01*
X58184Y-31949D01*
X58193Y-31940D01*
X58212Y-31931D01*
X58259Y-31931D01*
X58277Y-31940D01*
X58287Y-31949D01*
X58296Y-31968D01*
X58296Y-32024D01*
X58287Y-32043D01*
X58277Y-32052D01*
X58587Y-33066D02*
X58597Y-33075D01*
X58606Y-33103D01*
X58606Y-33122D01*
X58597Y-33150D01*
X58578Y-33169D01*
X58559Y-33178D01*
X58522Y-33188D01*
X58494Y-33188D01*
X58456Y-33178D01*
X58437Y-33169D01*
X58419Y-33150D01*
X58409Y-33122D01*
X58409Y-33103D01*
X58419Y-33075D01*
X58428Y-33066D01*
X58606Y-32878D02*
X58606Y-32991D01*
X58606Y-32935D02*
X58409Y-32935D01*
X58437Y-32953D01*
X58456Y-32972D01*
X58466Y-32991D01*
X58606Y-32691D02*
X58606Y-32803D01*
X58606Y-32747D02*
X58409Y-32747D01*
X58437Y-32766D01*
X58456Y-32785D01*
X58466Y-32803D01*
X58409Y-32522D02*
X58409Y-32560D01*
X58419Y-32578D01*
X58428Y-32588D01*
X58456Y-32606D01*
X58494Y-32616D01*
X58569Y-32616D01*
X58587Y-32606D01*
X58597Y-32597D01*
X58606Y-32578D01*
X58606Y-32541D01*
X58597Y-32522D01*
X58587Y-32513D01*
X58569Y-32503D01*
X58522Y-32503D01*
X58503Y-32513D01*
X58494Y-32522D01*
X58484Y-32541D01*
X58484Y-32578D01*
X58494Y-32597D01*
X58503Y-32606D01*
X58522Y-32616D01*
X58596Y-31486D02*
X58606Y-31495D01*
X58615Y-31523D01*
X58615Y-31542D01*
X58606Y-31570D01*
X58587Y-31589D01*
X58568Y-31598D01*
X58531Y-31608D01*
X58503Y-31608D01*
X58465Y-31598D01*
X58446Y-31589D01*
X58428Y-31570D01*
X58418Y-31542D01*
X58418Y-31523D01*
X58428Y-31495D01*
X58437Y-31486D01*
X58615Y-31298D02*
X58615Y-31411D01*
X58615Y-31355D02*
X58418Y-31355D01*
X58446Y-31373D01*
X58465Y-31392D01*
X58475Y-31411D01*
X58615Y-31111D02*
X58615Y-31223D01*
X58615Y-31167D02*
X58418Y-31167D01*
X58446Y-31186D01*
X58465Y-31205D01*
X58475Y-31223D01*
X58418Y-30933D02*
X58418Y-31026D01*
X58512Y-31036D01*
X58503Y-31026D01*
X58493Y-31008D01*
X58493Y-30961D01*
X58503Y-30942D01*
X58512Y-30933D01*
X58531Y-30923D01*
X58578Y-30923D01*
X58596Y-30933D01*
X58606Y-30942D01*
X58615Y-30961D01*
X58615Y-31008D01*
X58606Y-31026D01*
X58596Y-31036D01*
X58873Y-32321D02*
X58864Y-32331D01*
X58836Y-32340D01*
X58817Y-32340D01*
X58789Y-32331D01*
X58770Y-32312D01*
X58761Y-32293D01*
X58751Y-32256D01*
X58751Y-32228D01*
X58761Y-32190D01*
X58770Y-32171D01*
X58789Y-32153D01*
X58817Y-32143D01*
X58836Y-32143D01*
X58864Y-32153D01*
X58873Y-32162D01*
X59061Y-32340D02*
X58948Y-32340D01*
X59004Y-32340D02*
X59004Y-32143D01*
X58986Y-32171D01*
X58967Y-32190D01*
X58948Y-32200D01*
X59136Y-32162D02*
X59145Y-32153D01*
X59164Y-32143D01*
X59211Y-32143D01*
X59229Y-32153D01*
X59239Y-32162D01*
X59248Y-32181D01*
X59248Y-32200D01*
X59239Y-32228D01*
X59126Y-32340D01*
X59248Y-32340D01*
X59417Y-32209D02*
X59417Y-32340D01*
X59370Y-32134D02*
X59323Y-32275D01*
X59445Y-32275D01*
X58851Y-31884D02*
X58842Y-31894D01*
X58814Y-31903D01*
X58795Y-31903D01*
X58767Y-31894D01*
X58748Y-31875D01*
X58739Y-31856D01*
X58729Y-31819D01*
X58729Y-31791D01*
X58739Y-31753D01*
X58748Y-31734D01*
X58767Y-31716D01*
X58795Y-31706D01*
X58814Y-31706D01*
X58842Y-31716D01*
X58851Y-31725D01*
X59039Y-31903D02*
X58926Y-31903D01*
X58982Y-31903D02*
X58982Y-31706D01*
X58964Y-31734D01*
X58945Y-31753D01*
X58926Y-31763D01*
X59114Y-31725D02*
X59123Y-31716D01*
X59142Y-31706D01*
X59189Y-31706D01*
X59207Y-31716D01*
X59217Y-31725D01*
X59226Y-31744D01*
X59226Y-31763D01*
X59217Y-31791D01*
X59104Y-31903D01*
X59226Y-31903D01*
X59292Y-31706D02*
X59414Y-31706D01*
X59348Y-31781D01*
X59376Y-31781D01*
X59395Y-31791D01*
X59404Y-31800D01*
X59414Y-31819D01*
X59414Y-31866D01*
X59404Y-31884D01*
X59395Y-31894D01*
X59376Y-31903D01*
X59320Y-31903D01*
X59301Y-31894D01*
X59292Y-31884D01*
X59728Y-32238D02*
X59738Y-32247D01*
X59747Y-32275D01*
X59747Y-32294D01*
X59738Y-32322D01*
X59719Y-32341D01*
X59700Y-32350D01*
X59663Y-32360D01*
X59635Y-32360D01*
X59597Y-32350D01*
X59578Y-32341D01*
X59560Y-32322D01*
X59550Y-32294D01*
X59550Y-32275D01*
X59560Y-32247D01*
X59569Y-32238D01*
X59747Y-32050D02*
X59747Y-32163D01*
X59747Y-32107D02*
X59550Y-32107D01*
X59578Y-32125D01*
X59597Y-32144D01*
X59607Y-32163D01*
X59569Y-31975D02*
X59560Y-31966D01*
X59550Y-31947D01*
X59550Y-31900D01*
X59560Y-31882D01*
X59569Y-31872D01*
X59588Y-31863D01*
X59607Y-31863D01*
X59635Y-31872D01*
X59747Y-31985D01*
X59747Y-31863D01*
X59747Y-31769D02*
X59747Y-31732D01*
X59738Y-31713D01*
X59728Y-31703D01*
X59700Y-31685D01*
X59663Y-31675D01*
X59588Y-31675D01*
X59569Y-31685D01*
X59560Y-31694D01*
X59550Y-31713D01*
X59550Y-31750D01*
X59560Y-31769D01*
X59569Y-31778D01*
X59588Y-31788D01*
X59635Y-31788D01*
X59653Y-31778D01*
X59663Y-31769D01*
X59672Y-31750D01*
X59672Y-31713D01*
X59663Y-31694D01*
X59653Y-31685D01*
X59635Y-31675D01*
G54D11*
X49694Y-31216D02*
X49919Y-31216D01*
X49806Y-31610D02*
X49806Y-31216D01*
X50256Y-31610D02*
X50031Y-31610D01*
X50143Y-31610D02*
X50143Y-31216D01*
X50106Y-31272D01*
X50068Y-31310D01*
X50031Y-31329D01*
G54D24*
X50701Y-31492D02*
X50710Y-31501D01*
X50720Y-31529D01*
X50720Y-31548D01*
X50710Y-31576D01*
X50691Y-31595D01*
X50673Y-31604D01*
X50635Y-31614D01*
X50607Y-31614D01*
X50570Y-31604D01*
X50551Y-31595D01*
X50532Y-31576D01*
X50523Y-31548D01*
X50523Y-31529D01*
X50532Y-31501D01*
X50541Y-31492D01*
X50720Y-31398D02*
X50720Y-31361D01*
X50710Y-31342D01*
X50701Y-31332D01*
X50673Y-31314D01*
X50635Y-31304D01*
X50560Y-31304D01*
X50541Y-31314D01*
X50532Y-31323D01*
X50523Y-31342D01*
X50523Y-31379D01*
X50532Y-31398D01*
X50541Y-31407D01*
X50560Y-31417D01*
X50607Y-31417D01*
X50626Y-31407D01*
X50635Y-31398D01*
X50645Y-31379D01*
X50645Y-31342D01*
X50635Y-31323D01*
X50626Y-31314D01*
X50607Y-31304D01*
X50588Y-31136D02*
X50720Y-31136D01*
X50513Y-31182D02*
X50654Y-31229D01*
X50654Y-31107D01*
X61249Y-35340D02*
X61240Y-35350D01*
X61212Y-35359D01*
X61193Y-35359D01*
X61165Y-35350D01*
X61146Y-35331D01*
X61137Y-35312D01*
X61127Y-35275D01*
X61127Y-35247D01*
X61137Y-35209D01*
X61146Y-35190D01*
X61165Y-35172D01*
X61193Y-35162D01*
X61212Y-35162D01*
X61240Y-35172D01*
X61249Y-35181D01*
X61437Y-35359D02*
X61324Y-35359D01*
X61380Y-35359D02*
X61380Y-35162D01*
X61362Y-35190D01*
X61343Y-35209D01*
X61324Y-35219D01*
X61615Y-35162D02*
X61521Y-35162D01*
X61512Y-35256D01*
X61521Y-35247D01*
X61540Y-35237D01*
X61587Y-35237D01*
X61605Y-35247D01*
X61615Y-35256D01*
X61624Y-35275D01*
X61624Y-35322D01*
X61615Y-35340D01*
X61605Y-35350D01*
X61587Y-35359D01*
X61540Y-35359D01*
X61521Y-35350D01*
X61512Y-35340D01*
X61812Y-35359D02*
X61699Y-35359D01*
X61755Y-35359D02*
X61755Y-35162D01*
X61737Y-35190D01*
X61718Y-35209D01*
X61699Y-35219D01*
X55577Y-42253D02*
X55568Y-42262D01*
X55540Y-42272D01*
X55521Y-42272D01*
X55493Y-42262D01*
X55474Y-42244D01*
X55465Y-42225D01*
X55455Y-42187D01*
X55455Y-42159D01*
X55465Y-42122D01*
X55474Y-42103D01*
X55493Y-42084D01*
X55521Y-42075D01*
X55540Y-42075D01*
X55568Y-42084D01*
X55577Y-42094D01*
X55765Y-42272D02*
X55652Y-42272D01*
X55708Y-42272D02*
X55708Y-42075D01*
X55690Y-42103D01*
X55671Y-42122D01*
X55652Y-42131D01*
X55943Y-42075D02*
X55849Y-42075D01*
X55840Y-42169D01*
X55849Y-42159D01*
X55868Y-42150D01*
X55915Y-42150D01*
X55933Y-42159D01*
X55943Y-42169D01*
X55952Y-42187D01*
X55952Y-42234D01*
X55943Y-42253D01*
X55933Y-42262D01*
X55915Y-42272D01*
X55868Y-42272D01*
X55849Y-42262D01*
X55840Y-42253D01*
X56018Y-42075D02*
X56149Y-42075D01*
X56065Y-42272D01*
X53368Y-42272D02*
X53274Y-42272D01*
X53274Y-42075D01*
X53536Y-42272D02*
X53424Y-42272D01*
X53480Y-42272D02*
X53480Y-42075D01*
X53461Y-42103D01*
X53443Y-42122D01*
X53424Y-42131D01*
X53602Y-42075D02*
X53724Y-42075D01*
X53658Y-42150D01*
X53686Y-42150D01*
X53705Y-42159D01*
X53714Y-42169D01*
X53724Y-42187D01*
X53724Y-42234D01*
X53714Y-42253D01*
X53705Y-42262D01*
X53686Y-42272D01*
X53630Y-42272D01*
X53611Y-42262D01*
X53602Y-42253D01*
X60161Y-35333D02*
X60152Y-35343D01*
X60124Y-35352D01*
X60105Y-35352D01*
X60077Y-35343D01*
X60058Y-35324D01*
X60049Y-35305D01*
X60039Y-35268D01*
X60039Y-35240D01*
X60049Y-35202D01*
X60058Y-35183D01*
X60077Y-35165D01*
X60105Y-35155D01*
X60124Y-35155D01*
X60152Y-35165D01*
X60161Y-35174D01*
X60349Y-35352D02*
X60236Y-35352D01*
X60292Y-35352D02*
X60292Y-35155D01*
X60274Y-35183D01*
X60255Y-35202D01*
X60236Y-35212D01*
X60527Y-35155D02*
X60433Y-35155D01*
X60424Y-35249D01*
X60433Y-35240D01*
X60452Y-35230D01*
X60499Y-35230D01*
X60517Y-35240D01*
X60527Y-35249D01*
X60536Y-35268D01*
X60536Y-35315D01*
X60527Y-35333D01*
X60517Y-35343D01*
X60499Y-35352D01*
X60452Y-35352D01*
X60433Y-35343D01*
X60424Y-35333D01*
X60611Y-35174D02*
X60621Y-35165D01*
X60639Y-35155D01*
X60686Y-35155D01*
X60705Y-35165D01*
X60714Y-35174D01*
X60724Y-35193D01*
X60724Y-35212D01*
X60714Y-35240D01*
X60602Y-35352D01*
X60724Y-35352D01*
G54D26*
X60694Y-36039D02*
X60704Y-36048D01*
X60713Y-36076D01*
X60713Y-36095D01*
X60704Y-36123D01*
X60685Y-36142D01*
X60666Y-36151D01*
X60629Y-36161D01*
X60601Y-36161D01*
X60563Y-36151D01*
X60544Y-36142D01*
X60526Y-36123D01*
X60516Y-36095D01*
X60516Y-36076D01*
X60526Y-36048D01*
X60535Y-36039D01*
X60713Y-35851D02*
X60713Y-35964D01*
X60713Y-35908D02*
X60516Y-35908D01*
X60544Y-35926D01*
X60563Y-35945D01*
X60573Y-35964D01*
X60516Y-35786D02*
X60516Y-35664D01*
X60591Y-35729D01*
X60591Y-35701D01*
X60601Y-35683D01*
X60610Y-35673D01*
X60629Y-35664D01*
X60676Y-35664D01*
X60694Y-35673D01*
X60704Y-35683D01*
X60713Y-35701D01*
X60713Y-35758D01*
X60704Y-35776D01*
X60694Y-35786D01*
X60516Y-35495D02*
X60516Y-35533D01*
X60526Y-35551D01*
X60535Y-35561D01*
X60563Y-35579D01*
X60601Y-35589D01*
X60676Y-35589D01*
X60694Y-35579D01*
X60704Y-35570D01*
X60713Y-35551D01*
X60713Y-35514D01*
X60704Y-35495D01*
X60694Y-35486D01*
X60676Y-35476D01*
X60629Y-35476D01*
X60610Y-35486D01*
X60601Y-35495D01*
X60591Y-35514D01*
X60591Y-35551D01*
X60601Y-35570D01*
X60610Y-35579D01*
X60629Y-35589D01*
X60225Y-36032D02*
X60235Y-36041D01*
X60244Y-36069D01*
X60244Y-36088D01*
X60235Y-36116D01*
X60216Y-36135D01*
X60197Y-36144D01*
X60160Y-36154D01*
X60132Y-36154D01*
X60094Y-36144D01*
X60075Y-36135D01*
X60057Y-36116D01*
X60047Y-36088D01*
X60047Y-36069D01*
X60057Y-36041D01*
X60066Y-36032D01*
X60244Y-35844D02*
X60244Y-35957D01*
X60244Y-35901D02*
X60047Y-35901D01*
X60075Y-35919D01*
X60094Y-35938D01*
X60104Y-35957D01*
X60047Y-35779D02*
X60047Y-35657D01*
X60122Y-35722D01*
X60122Y-35694D01*
X60132Y-35676D01*
X60141Y-35666D01*
X60160Y-35657D01*
X60207Y-35657D01*
X60225Y-35666D01*
X60235Y-35676D01*
X60244Y-35694D01*
X60244Y-35751D01*
X60235Y-35769D01*
X60225Y-35779D01*
X60047Y-35479D02*
X60047Y-35572D01*
X60141Y-35582D01*
X60132Y-35572D01*
X60122Y-35554D01*
X60122Y-35507D01*
X60132Y-35488D01*
X60141Y-35479D01*
X60160Y-35469D01*
X60207Y-35469D01*
X60225Y-35479D01*
X60235Y-35488D01*
X60244Y-35507D01*
X60244Y-35554D01*
X60235Y-35572D01*
X60225Y-35582D01*
X61352Y-36067D02*
X61362Y-36076D01*
X61371Y-36104D01*
X61371Y-36123D01*
X61362Y-36151D01*
X61343Y-36170D01*
X61324Y-36179D01*
X61287Y-36189D01*
X61259Y-36189D01*
X61221Y-36179D01*
X61202Y-36170D01*
X61184Y-36151D01*
X61174Y-36123D01*
X61174Y-36104D01*
X61184Y-36076D01*
X61193Y-36067D01*
X61371Y-35879D02*
X61371Y-35992D01*
X61371Y-35936D02*
X61174Y-35936D01*
X61202Y-35954D01*
X61221Y-35973D01*
X61231Y-35992D01*
X61174Y-35814D02*
X61174Y-35692D01*
X61249Y-35757D01*
X61249Y-35729D01*
X61259Y-35711D01*
X61268Y-35701D01*
X61287Y-35692D01*
X61334Y-35692D01*
X61352Y-35701D01*
X61362Y-35711D01*
X61371Y-35729D01*
X61371Y-35786D01*
X61362Y-35804D01*
X61352Y-35814D01*
X61174Y-35626D02*
X61174Y-35495D01*
X61371Y-35579D01*
X61786Y-36060D02*
X61796Y-36069D01*
X61805Y-36097D01*
X61805Y-36116D01*
X61796Y-36144D01*
X61777Y-36163D01*
X61758Y-36172D01*
X61721Y-36182D01*
X61693Y-36182D01*
X61655Y-36172D01*
X61636Y-36163D01*
X61618Y-36144D01*
X61608Y-36116D01*
X61608Y-36097D01*
X61618Y-36069D01*
X61627Y-36060D01*
X61805Y-35872D02*
X61805Y-35985D01*
X61805Y-35929D02*
X61608Y-35929D01*
X61636Y-35947D01*
X61655Y-35966D01*
X61665Y-35985D01*
X61608Y-35807D02*
X61608Y-35685D01*
X61683Y-35750D01*
X61683Y-35722D01*
X61693Y-35704D01*
X61702Y-35694D01*
X61721Y-35685D01*
X61768Y-35685D01*
X61786Y-35694D01*
X61796Y-35704D01*
X61805Y-35722D01*
X61805Y-35779D01*
X61796Y-35797D01*
X61786Y-35807D01*
X61693Y-35572D02*
X61683Y-35591D01*
X61674Y-35600D01*
X61655Y-35610D01*
X61646Y-35610D01*
X61627Y-35600D01*
X61618Y-35591D01*
X61608Y-35572D01*
X61608Y-35535D01*
X61618Y-35516D01*
X61627Y-35507D01*
X61646Y-35497D01*
X61655Y-35497D01*
X61674Y-35507D01*
X61683Y-35516D01*
X61693Y-35535D01*
X61693Y-35572D01*
X61702Y-35591D01*
X61711Y-35600D01*
X61730Y-35610D01*
X61768Y-35610D01*
X61786Y-35600D01*
X61796Y-35591D01*
X61805Y-35572D01*
X61805Y-35535D01*
X61796Y-35516D01*
X61786Y-35507D01*
X61768Y-35497D01*
X61730Y-35497D01*
X61711Y-35507D01*
X61702Y-35516D01*
X61693Y-35535D01*
X63350Y-31520D02*
X63360Y-31529D01*
X63369Y-31557D01*
X63369Y-31576D01*
X63360Y-31604D01*
X63341Y-31623D01*
X63322Y-31632D01*
X63285Y-31642D01*
X63257Y-31642D01*
X63219Y-31632D01*
X63200Y-31623D01*
X63182Y-31604D01*
X63172Y-31576D01*
X63172Y-31557D01*
X63182Y-31529D01*
X63191Y-31520D01*
X63369Y-31332D02*
X63369Y-31445D01*
X63369Y-31389D02*
X63172Y-31389D01*
X63200Y-31407D01*
X63219Y-31426D01*
X63229Y-31445D01*
X63369Y-31145D02*
X63369Y-31257D01*
X63369Y-31201D02*
X63172Y-31201D01*
X63200Y-31220D01*
X63219Y-31239D01*
X63229Y-31257D01*
X63257Y-31032D02*
X63247Y-31051D01*
X63238Y-31060D01*
X63219Y-31070D01*
X63210Y-31070D01*
X63191Y-31060D01*
X63182Y-31051D01*
X63172Y-31032D01*
X63172Y-30995D01*
X63182Y-30976D01*
X63191Y-30967D01*
X63210Y-30957D01*
X63219Y-30957D01*
X63238Y-30967D01*
X63247Y-30976D01*
X63257Y-30995D01*
X63257Y-31032D01*
X63266Y-31051D01*
X63275Y-31060D01*
X63294Y-31070D01*
X63332Y-31070D01*
X63350Y-31060D01*
X63360Y-31051D01*
X63369Y-31032D01*
X63369Y-30995D01*
X63360Y-30976D01*
X63350Y-30967D01*
X63332Y-30957D01*
X63294Y-30957D01*
X63275Y-30967D01*
X63266Y-30976D01*
X63257Y-30995D01*
X63370Y-33060D02*
X63380Y-33069D01*
X63389Y-33097D01*
X63389Y-33116D01*
X63380Y-33144D01*
X63361Y-33163D01*
X63342Y-33172D01*
X63305Y-33182D01*
X63277Y-33182D01*
X63239Y-33172D01*
X63220Y-33163D01*
X63202Y-33144D01*
X63192Y-33116D01*
X63192Y-33097D01*
X63202Y-33069D01*
X63211Y-33060D01*
X63389Y-32872D02*
X63389Y-32985D01*
X63389Y-32929D02*
X63192Y-32929D01*
X63220Y-32947D01*
X63239Y-32966D01*
X63249Y-32985D01*
X63389Y-32685D02*
X63389Y-32797D01*
X63389Y-32741D02*
X63192Y-32741D01*
X63220Y-32760D01*
X63239Y-32779D01*
X63249Y-32797D01*
X63192Y-32619D02*
X63192Y-32488D01*
X63389Y-32572D01*
X62549Y-31940D02*
X62540Y-31950D01*
X62512Y-31959D01*
X62493Y-31959D01*
X62465Y-31950D01*
X62446Y-31931D01*
X62437Y-31912D01*
X62427Y-31875D01*
X62427Y-31847D01*
X62437Y-31809D01*
X62446Y-31790D01*
X62465Y-31772D01*
X62493Y-31762D01*
X62512Y-31762D01*
X62540Y-31772D01*
X62549Y-31781D01*
X62737Y-31959D02*
X62624Y-31959D01*
X62680Y-31959D02*
X62680Y-31762D01*
X62662Y-31790D01*
X62643Y-31809D01*
X62624Y-31819D01*
X62812Y-31781D02*
X62821Y-31772D01*
X62840Y-31762D01*
X62887Y-31762D01*
X62905Y-31772D01*
X62915Y-31781D01*
X62924Y-31800D01*
X62924Y-31819D01*
X62915Y-31847D01*
X62802Y-31959D01*
X62924Y-31959D01*
X63093Y-31762D02*
X63055Y-31762D01*
X63037Y-31772D01*
X63027Y-31781D01*
X63009Y-31809D01*
X62999Y-31847D01*
X62999Y-31922D01*
X63009Y-31940D01*
X63018Y-31950D01*
X63037Y-31959D01*
X63074Y-31959D01*
X63093Y-31950D01*
X63102Y-31940D01*
X63112Y-31922D01*
X63112Y-31875D01*
X63102Y-31856D01*
X63093Y-31847D01*
X63074Y-31837D01*
X63037Y-31837D01*
X63018Y-31847D01*
X63009Y-31856D01*
X62999Y-31875D01*
X63360Y-32290D02*
X63370Y-32299D01*
X63379Y-32327D01*
X63379Y-32346D01*
X63370Y-32374D01*
X63351Y-32393D01*
X63332Y-32402D01*
X63295Y-32412D01*
X63267Y-32412D01*
X63229Y-32402D01*
X63210Y-32393D01*
X63192Y-32374D01*
X63182Y-32346D01*
X63182Y-32327D01*
X63192Y-32299D01*
X63201Y-32290D01*
X63379Y-32102D02*
X63379Y-32215D01*
X63379Y-32159D02*
X63182Y-32159D01*
X63210Y-32177D01*
X63229Y-32196D01*
X63239Y-32215D01*
X63379Y-31915D02*
X63379Y-32027D01*
X63379Y-31971D02*
X63182Y-31971D01*
X63210Y-31990D01*
X63229Y-32009D01*
X63239Y-32027D01*
X63182Y-31793D02*
X63182Y-31774D01*
X63192Y-31755D01*
X63201Y-31746D01*
X63220Y-31737D01*
X63257Y-31727D01*
X63304Y-31727D01*
X63342Y-31737D01*
X63360Y-31746D01*
X63370Y-31755D01*
X63379Y-31774D01*
X63379Y-31793D01*
X63370Y-31812D01*
X63360Y-31821D01*
X63342Y-31830D01*
X63304Y-31840D01*
X63257Y-31840D01*
X63220Y-31830D01*
X63201Y-31821D01*
X63192Y-31812D01*
X63182Y-31793D01*
G54D24*
X63370Y-34840D02*
X63380Y-34849D01*
X63389Y-34877D01*
X63389Y-34896D01*
X63380Y-34924D01*
X63361Y-34943D01*
X63342Y-34952D01*
X63305Y-34962D01*
X63277Y-34962D01*
X63239Y-34952D01*
X63220Y-34943D01*
X63202Y-34924D01*
X63192Y-34896D01*
X63192Y-34877D01*
X63202Y-34849D01*
X63211Y-34840D01*
X63389Y-34652D02*
X63389Y-34765D01*
X63389Y-34709D02*
X63192Y-34709D01*
X63220Y-34727D01*
X63239Y-34746D01*
X63249Y-34765D01*
X63192Y-34530D02*
X63192Y-34512D01*
X63202Y-34493D01*
X63211Y-34484D01*
X63230Y-34474D01*
X63267Y-34465D01*
X63314Y-34465D01*
X63352Y-34474D01*
X63370Y-34484D01*
X63380Y-34493D01*
X63389Y-34512D01*
X63389Y-34530D01*
X63380Y-34549D01*
X63370Y-34559D01*
X63352Y-34568D01*
X63314Y-34577D01*
X63267Y-34577D01*
X63230Y-34568D01*
X63211Y-34559D01*
X63202Y-34549D01*
X63192Y-34530D01*
X63277Y-34352D02*
X63267Y-34371D01*
X63258Y-34380D01*
X63239Y-34390D01*
X63230Y-34390D01*
X63211Y-34380D01*
X63202Y-34371D01*
X63192Y-34352D01*
X63192Y-34315D01*
X63202Y-34296D01*
X63211Y-34287D01*
X63230Y-34277D01*
X63239Y-34277D01*
X63258Y-34287D01*
X63267Y-34296D01*
X63277Y-34315D01*
X63277Y-34352D01*
X63286Y-34371D01*
X63295Y-34380D01*
X63314Y-34390D01*
X63352Y-34390D01*
X63370Y-34380D01*
X63380Y-34371D01*
X63389Y-34352D01*
X63389Y-34315D01*
X63380Y-34296D01*
X63370Y-34287D01*
X63352Y-34277D01*
X63314Y-34277D01*
X63295Y-34287D01*
X63286Y-34296D01*
X63277Y-34315D01*
G54D26*
X63699Y-32062D02*
X63699Y-32156D01*
X63502Y-32156D01*
X63568Y-31912D02*
X63699Y-31912D01*
X63493Y-31959D02*
X63634Y-32006D01*
X63634Y-31884D01*
X62549Y-32330D02*
X62540Y-32340D01*
X62512Y-32349D01*
X62493Y-32349D01*
X62465Y-32340D01*
X62446Y-32321D01*
X62437Y-32302D01*
X62427Y-32265D01*
X62427Y-32237D01*
X62437Y-32199D01*
X62446Y-32180D01*
X62465Y-32162D01*
X62493Y-32152D01*
X62512Y-32152D01*
X62540Y-32162D01*
X62549Y-32171D01*
X62737Y-32349D02*
X62624Y-32349D01*
X62680Y-32349D02*
X62680Y-32152D01*
X62662Y-32180D01*
X62643Y-32199D01*
X62624Y-32209D01*
X62812Y-32171D02*
X62821Y-32162D01*
X62840Y-32152D01*
X62887Y-32152D01*
X62905Y-32162D01*
X62915Y-32171D01*
X62924Y-32190D01*
X62924Y-32209D01*
X62915Y-32237D01*
X62802Y-32349D01*
X62924Y-32349D01*
X63102Y-32152D02*
X63009Y-32152D01*
X62999Y-32246D01*
X63009Y-32237D01*
X63027Y-32227D01*
X63074Y-32227D01*
X63093Y-32237D01*
X63102Y-32246D01*
X63112Y-32265D01*
X63112Y-32312D01*
X63102Y-32330D01*
X63093Y-32340D01*
X63074Y-32349D01*
X63027Y-32349D01*
X63009Y-32340D01*
X62999Y-32330D01*
X62319Y-32296D02*
X62329Y-32305D01*
X62338Y-32333D01*
X62338Y-32352D01*
X62329Y-32380D01*
X62310Y-32399D01*
X62291Y-32408D01*
X62254Y-32418D01*
X62226Y-32418D01*
X62188Y-32408D01*
X62169Y-32399D01*
X62151Y-32380D01*
X62141Y-32352D01*
X62141Y-32333D01*
X62151Y-32305D01*
X62160Y-32296D01*
X62338Y-32108D02*
X62338Y-32221D01*
X62338Y-32165D02*
X62141Y-32165D01*
X62169Y-32183D01*
X62188Y-32202D01*
X62198Y-32221D01*
X62141Y-32043D02*
X62141Y-31921D01*
X62216Y-31986D01*
X62216Y-31958D01*
X62226Y-31940D01*
X62235Y-31930D01*
X62254Y-31921D01*
X62301Y-31921D01*
X62319Y-31930D01*
X62329Y-31940D01*
X62338Y-31958D01*
X62338Y-32015D01*
X62329Y-32033D01*
X62319Y-32043D01*
X62141Y-31799D02*
X62141Y-31780D01*
X62151Y-31761D01*
X62160Y-31752D01*
X62179Y-31743D01*
X62216Y-31733D01*
X62263Y-31733D01*
X62301Y-31743D01*
X62319Y-31752D01*
X62329Y-31761D01*
X62338Y-31780D01*
X62338Y-31799D01*
X62329Y-31818D01*
X62319Y-31827D01*
X62301Y-31836D01*
X62263Y-31846D01*
X62216Y-31846D01*
X62179Y-31836D01*
X62160Y-31827D01*
X62151Y-31818D01*
X62141Y-31799D01*
X50716Y-43371D02*
X50622Y-43371D01*
X50622Y-43174D01*
X50884Y-43371D02*
X50772Y-43371D01*
X50828Y-43371D02*
X50828Y-43174D01*
X50809Y-43202D01*
X50791Y-43221D01*
X50772Y-43230D01*
X51053Y-43239D02*
X51053Y-43371D01*
X51006Y-43164D02*
X50959Y-43305D01*
X51081Y-43305D01*
X62304Y-34825D02*
X62314Y-34834D01*
X62323Y-34862D01*
X62323Y-34881D01*
X62314Y-34909D01*
X62295Y-34928D01*
X62276Y-34937D01*
X62239Y-34947D01*
X62211Y-34947D01*
X62173Y-34937D01*
X62154Y-34928D01*
X62136Y-34909D01*
X62126Y-34881D01*
X62126Y-34862D01*
X62136Y-34834D01*
X62145Y-34825D01*
X62323Y-34637D02*
X62323Y-34750D01*
X62323Y-34694D02*
X62126Y-34694D01*
X62154Y-34712D01*
X62173Y-34731D01*
X62183Y-34750D01*
X62145Y-34562D02*
X62136Y-34553D01*
X62126Y-34534D01*
X62126Y-34487D01*
X62136Y-34469D01*
X62145Y-34459D01*
X62164Y-34450D01*
X62183Y-34450D01*
X62211Y-34459D01*
X62323Y-34572D01*
X62323Y-34450D01*
X62211Y-34337D02*
X62201Y-34356D01*
X62192Y-34365D01*
X62173Y-34375D01*
X62164Y-34375D01*
X62145Y-34365D01*
X62136Y-34356D01*
X62126Y-34337D01*
X62126Y-34300D01*
X62136Y-34281D01*
X62145Y-34272D01*
X62164Y-34262D01*
X62173Y-34262D01*
X62192Y-34272D01*
X62201Y-34281D01*
X62211Y-34300D01*
X62211Y-34337D01*
X62220Y-34356D01*
X62229Y-34365D01*
X62248Y-34375D01*
X62286Y-34375D01*
X62304Y-34365D01*
X62314Y-34356D01*
X62323Y-34337D01*
X62323Y-34300D01*
X62314Y-34281D01*
X62304Y-34272D01*
X62286Y-34262D01*
X62248Y-34262D01*
X62229Y-34272D01*
X62220Y-34281D01*
X62211Y-34300D01*
X50727Y-43330D02*
X50633Y-43330D01*
X50633Y-43133D01*
X50895Y-43330D02*
X50783Y-43330D01*
X50839Y-43330D02*
X50839Y-43133D01*
X50820Y-43161D01*
X50802Y-43180D01*
X50783Y-43189D01*
X51073Y-43133D02*
X50980Y-43133D01*
X50970Y-43226D01*
X50980Y-43217D01*
X50998Y-43208D01*
X51045Y-43208D01*
X51064Y-43217D01*
X51073Y-43226D01*
X51083Y-43245D01*
X51083Y-43292D01*
X51073Y-43311D01*
X51064Y-43320D01*
X51045Y-43330D01*
X50998Y-43330D01*
X50980Y-43320D01*
X50970Y-43311D01*
X63390Y-35670D02*
X63400Y-35679D01*
X63409Y-35707D01*
X63409Y-35726D01*
X63400Y-35754D01*
X63381Y-35773D01*
X63362Y-35782D01*
X63325Y-35792D01*
X63297Y-35792D01*
X63259Y-35782D01*
X63240Y-35773D01*
X63222Y-35754D01*
X63212Y-35726D01*
X63212Y-35707D01*
X63222Y-35679D01*
X63231Y-35670D01*
X63409Y-35482D02*
X63409Y-35595D01*
X63409Y-35539D02*
X63212Y-35539D01*
X63240Y-35557D01*
X63259Y-35576D01*
X63269Y-35595D01*
X63409Y-35295D02*
X63409Y-35407D01*
X63409Y-35351D02*
X63212Y-35351D01*
X63240Y-35370D01*
X63259Y-35389D01*
X63269Y-35407D01*
X63212Y-35229D02*
X63212Y-35107D01*
X63287Y-35173D01*
X63287Y-35145D01*
X63297Y-35126D01*
X63306Y-35117D01*
X63325Y-35107D01*
X63372Y-35107D01*
X63390Y-35117D01*
X63400Y-35126D01*
X63409Y-35145D01*
X63409Y-35201D01*
X63400Y-35220D01*
X63390Y-35229D01*
X63390Y-34040D02*
X63400Y-34049D01*
X63409Y-34077D01*
X63409Y-34096D01*
X63400Y-34124D01*
X63381Y-34143D01*
X63362Y-34152D01*
X63325Y-34162D01*
X63297Y-34162D01*
X63259Y-34152D01*
X63240Y-34143D01*
X63222Y-34124D01*
X63212Y-34096D01*
X63212Y-34077D01*
X63222Y-34049D01*
X63231Y-34040D01*
X63409Y-33852D02*
X63409Y-33965D01*
X63409Y-33909D02*
X63212Y-33909D01*
X63240Y-33927D01*
X63259Y-33946D01*
X63269Y-33965D01*
X63409Y-33665D02*
X63409Y-33777D01*
X63409Y-33721D02*
X63212Y-33721D01*
X63240Y-33740D01*
X63259Y-33759D01*
X63269Y-33777D01*
X63278Y-33496D02*
X63409Y-33496D01*
X63203Y-33543D02*
X63344Y-33590D01*
X63344Y-33468D01*
X63709Y-34662D02*
X63709Y-34756D01*
X63512Y-34756D01*
X63531Y-34606D02*
X63522Y-34597D01*
X63512Y-34578D01*
X63512Y-34531D01*
X63522Y-34512D01*
X63531Y-34503D01*
X63550Y-34494D01*
X63569Y-34494D01*
X63597Y-34503D01*
X63709Y-34615D01*
X63709Y-34494D01*
X55250Y-31943D02*
X55260Y-31953D01*
X55269Y-31981D01*
X55269Y-32000D01*
X55260Y-32028D01*
X55241Y-32047D01*
X55222Y-32056D01*
X55185Y-32065D01*
X55157Y-32065D01*
X55119Y-32056D01*
X55100Y-32047D01*
X55082Y-32028D01*
X55072Y-32000D01*
X55072Y-31981D01*
X55082Y-31953D01*
X55091Y-31943D01*
X55269Y-31756D02*
X55269Y-31869D01*
X55269Y-31812D02*
X55072Y-31812D01*
X55100Y-31831D01*
X55119Y-31850D01*
X55129Y-31869D01*
X55072Y-31578D02*
X55072Y-31672D01*
X55166Y-31681D01*
X55157Y-31672D01*
X55147Y-31653D01*
X55147Y-31606D01*
X55157Y-31587D01*
X55166Y-31578D01*
X55185Y-31569D01*
X55232Y-31569D01*
X55250Y-31578D01*
X55260Y-31587D01*
X55269Y-31606D01*
X55269Y-31653D01*
X55260Y-31672D01*
X55250Y-31681D01*
X55072Y-31447D02*
X55072Y-31428D01*
X55082Y-31409D01*
X55091Y-31400D01*
X55110Y-31390D01*
X55147Y-31381D01*
X55194Y-31381D01*
X55232Y-31390D01*
X55250Y-31400D01*
X55260Y-31409D01*
X55269Y-31428D01*
X55269Y-31447D01*
X55260Y-31465D01*
X55250Y-31475D01*
X55232Y-31484D01*
X55194Y-31494D01*
X55147Y-31494D01*
X55110Y-31484D01*
X55091Y-31475D01*
X55082Y-31465D01*
X55072Y-31447D01*
X52965Y-31950D02*
X52975Y-31959D01*
X52984Y-31987D01*
X52984Y-32006D01*
X52975Y-32034D01*
X52956Y-32053D01*
X52937Y-32062D01*
X52900Y-32072D01*
X52872Y-32072D01*
X52834Y-32062D01*
X52815Y-32053D01*
X52797Y-32034D01*
X52787Y-32006D01*
X52787Y-31987D01*
X52797Y-31959D01*
X52806Y-31950D01*
X52984Y-31762D02*
X52984Y-31875D01*
X52984Y-31819D02*
X52787Y-31819D01*
X52815Y-31837D01*
X52834Y-31856D01*
X52844Y-31875D01*
X52853Y-31594D02*
X52984Y-31594D01*
X52778Y-31640D02*
X52919Y-31687D01*
X52919Y-31565D01*
X52872Y-31462D02*
X52862Y-31481D01*
X52853Y-31490D01*
X52834Y-31500D01*
X52825Y-31500D01*
X52806Y-31490D01*
X52797Y-31481D01*
X52787Y-31462D01*
X52787Y-31425D01*
X52797Y-31406D01*
X52806Y-31397D01*
X52825Y-31387D01*
X52834Y-31387D01*
X52853Y-31397D01*
X52862Y-31406D01*
X52872Y-31425D01*
X52872Y-31462D01*
X52881Y-31481D01*
X52890Y-31490D01*
X52909Y-31500D01*
X52947Y-31500D01*
X52965Y-31490D01*
X52975Y-31481D01*
X52984Y-31462D01*
X52984Y-31425D01*
X52975Y-31406D01*
X52965Y-31397D01*
X52947Y-31387D01*
X52909Y-31387D01*
X52890Y-31397D01*
X52881Y-31406D01*
X52872Y-31425D01*
G54D11*
X56106Y-31685D02*
X56286Y-31685D01*
X56196Y-32000D02*
X56196Y-31685D01*
X56555Y-32000D02*
X56376Y-32000D01*
X56466Y-32000D02*
X56466Y-31685D01*
X56436Y-31730D01*
X56406Y-31760D01*
X56376Y-31775D01*
X56855Y-32000D02*
X56675Y-32000D01*
X56765Y-32000D02*
X56765Y-31685D01*
X56735Y-31730D01*
X56705Y-31760D01*
X56675Y-31775D01*
G54D10*
X64727Y-34442D02*
X64896Y-34442D01*
X64929Y-34453D01*
X64952Y-34476D01*
X64963Y-34510D01*
X64963Y-34532D01*
X64806Y-34229D02*
X64963Y-34229D01*
X64716Y-34285D02*
X64884Y-34341D01*
X64884Y-34195D01*
G54D26*
X61083Y-37353D02*
X61074Y-37362D01*
X61046Y-37372D01*
X61027Y-37372D01*
X60999Y-37362D01*
X60980Y-37343D01*
X60971Y-37325D01*
X60961Y-37287D01*
X60961Y-37259D01*
X60971Y-37222D01*
X60980Y-37203D01*
X60999Y-37184D01*
X61027Y-37175D01*
X61046Y-37175D01*
X61074Y-37184D01*
X61083Y-37193D01*
X61271Y-37372D02*
X61158Y-37372D01*
X61214Y-37372D02*
X61214Y-37175D01*
X61196Y-37203D01*
X61177Y-37222D01*
X61158Y-37231D01*
X61393Y-37175D02*
X61411Y-37175D01*
X61430Y-37184D01*
X61439Y-37193D01*
X61449Y-37212D01*
X61458Y-37250D01*
X61458Y-37297D01*
X61449Y-37334D01*
X61439Y-37353D01*
X61430Y-37362D01*
X61411Y-37372D01*
X61393Y-37372D01*
X61374Y-37362D01*
X61364Y-37353D01*
X61355Y-37334D01*
X61346Y-37297D01*
X61346Y-37250D01*
X61355Y-37212D01*
X61364Y-37193D01*
X61374Y-37184D01*
X61393Y-37175D01*
X61627Y-37175D02*
X61589Y-37175D01*
X61571Y-37184D01*
X61561Y-37193D01*
X61543Y-37222D01*
X61533Y-37259D01*
X61533Y-37334D01*
X61543Y-37353D01*
X61552Y-37362D01*
X61571Y-37372D01*
X61608Y-37372D01*
X61627Y-37362D01*
X61636Y-37353D01*
X61646Y-37334D01*
X61646Y-37287D01*
X61636Y-37268D01*
X61627Y-37259D01*
X61608Y-37250D01*
X61571Y-37250D01*
X61552Y-37259D01*
X61543Y-37268D01*
X61533Y-37287D01*
X61078Y-39309D02*
X61069Y-39318D01*
X61041Y-39328D01*
X61022Y-39328D01*
X60994Y-39318D01*
X60975Y-39299D01*
X60966Y-39281D01*
X60956Y-39243D01*
X60956Y-39215D01*
X60966Y-39178D01*
X60975Y-39159D01*
X60994Y-39140D01*
X61022Y-39131D01*
X61041Y-39131D01*
X61069Y-39140D01*
X61078Y-39149D01*
X61266Y-39328D02*
X61153Y-39328D01*
X61209Y-39328D02*
X61209Y-39131D01*
X61191Y-39159D01*
X61172Y-39178D01*
X61153Y-39187D01*
X61388Y-39131D02*
X61406Y-39131D01*
X61425Y-39140D01*
X61434Y-39149D01*
X61444Y-39168D01*
X61453Y-39206D01*
X61453Y-39253D01*
X61444Y-39290D01*
X61434Y-39309D01*
X61425Y-39318D01*
X61406Y-39328D01*
X61388Y-39328D01*
X61369Y-39318D01*
X61359Y-39309D01*
X61350Y-39290D01*
X61341Y-39253D01*
X61341Y-39206D01*
X61350Y-39168D01*
X61359Y-39149D01*
X61369Y-39140D01*
X61388Y-39131D01*
X61631Y-39131D02*
X61538Y-39131D01*
X61528Y-39224D01*
X61538Y-39215D01*
X61556Y-39206D01*
X61603Y-39206D01*
X61622Y-39215D01*
X61631Y-39224D01*
X61641Y-39243D01*
X61641Y-39290D01*
X61631Y-39309D01*
X61622Y-39318D01*
X61603Y-39328D01*
X61556Y-39328D01*
X61538Y-39318D01*
X61528Y-39309D01*
G54D10*
X64782Y-42895D02*
X64950Y-42895D01*
X64984Y-42906D01*
X65006Y-42928D01*
X65018Y-42962D01*
X65018Y-42985D01*
X64782Y-42805D02*
X64782Y-42647D01*
X65018Y-42748D01*
G54D26*
X56866Y-46019D02*
X56875Y-46028D01*
X56885Y-46056D01*
X56885Y-46075D01*
X56875Y-46103D01*
X56857Y-46122D01*
X56838Y-46131D01*
X56800Y-46141D01*
X56772Y-46141D01*
X56735Y-46131D01*
X56716Y-46122D01*
X56697Y-46103D01*
X56688Y-46075D01*
X56688Y-46056D01*
X56697Y-46028D01*
X56707Y-46019D01*
X56885Y-45832D02*
X56885Y-45944D01*
X56885Y-45888D02*
X56688Y-45888D01*
X56716Y-45907D01*
X56735Y-45925D01*
X56744Y-45944D01*
X56754Y-45663D02*
X56885Y-45663D01*
X56679Y-45710D02*
X56819Y-45757D01*
X56819Y-45635D01*
X56688Y-45578D02*
X56688Y-45447D01*
X56885Y-45532D01*
X53603Y-46035D02*
X53613Y-46044D01*
X53622Y-46072D01*
X53622Y-46091D01*
X53613Y-46119D01*
X53594Y-46138D01*
X53575Y-46147D01*
X53538Y-46157D01*
X53510Y-46157D01*
X53472Y-46147D01*
X53453Y-46138D01*
X53435Y-46119D01*
X53425Y-46091D01*
X53425Y-46072D01*
X53435Y-46044D01*
X53444Y-46035D01*
X53622Y-45847D02*
X53622Y-45960D01*
X53622Y-45904D02*
X53425Y-45904D01*
X53453Y-45922D01*
X53472Y-45941D01*
X53482Y-45960D01*
X53491Y-45679D02*
X53622Y-45679D01*
X53416Y-45725D02*
X53557Y-45772D01*
X53557Y-45650D01*
X53622Y-45566D02*
X53622Y-45529D01*
X53613Y-45510D01*
X53603Y-45500D01*
X53575Y-45482D01*
X53538Y-45472D01*
X53463Y-45472D01*
X53444Y-45482D01*
X53435Y-45491D01*
X53425Y-45510D01*
X53425Y-45547D01*
X53435Y-45566D01*
X53444Y-45575D01*
X53463Y-45585D01*
X53510Y-45585D01*
X53528Y-45575D01*
X53538Y-45566D01*
X53547Y-45547D01*
X53547Y-45510D01*
X53538Y-45491D01*
X53528Y-45482D01*
X53510Y-45472D01*
G54D24*
X55577Y-42254D02*
X55568Y-42263D01*
X55540Y-42273D01*
X55521Y-42273D01*
X55493Y-42263D01*
X55474Y-42245D01*
X55465Y-42226D01*
X55455Y-42188D01*
X55455Y-42160D01*
X55465Y-42123D01*
X55474Y-42104D01*
X55493Y-42085D01*
X55521Y-42076D01*
X55540Y-42076D01*
X55568Y-42085D01*
X55577Y-42095D01*
X55765Y-42273D02*
X55652Y-42273D01*
X55708Y-42273D02*
X55708Y-42076D01*
X55690Y-42104D01*
X55671Y-42123D01*
X55652Y-42132D01*
X55943Y-42076D02*
X55849Y-42076D01*
X55840Y-42170D01*
X55849Y-42160D01*
X55868Y-42151D01*
X55915Y-42151D01*
X55933Y-42160D01*
X55943Y-42170D01*
X55952Y-42188D01*
X55952Y-42235D01*
X55943Y-42254D01*
X55933Y-42263D01*
X55915Y-42273D01*
X55868Y-42273D01*
X55849Y-42263D01*
X55840Y-42254D01*
X56018Y-42076D02*
X56149Y-42076D01*
X56065Y-42273D01*
G54D10*
X64760Y-47242D02*
X64929Y-47242D01*
X64962Y-47253D01*
X64985Y-47276D01*
X64996Y-47310D01*
X64996Y-47332D01*
X64996Y-47119D02*
X64996Y-47074D01*
X64985Y-47051D01*
X64974Y-47040D01*
X64940Y-47017D01*
X64895Y-47006D01*
X64805Y-47006D01*
X64782Y-47017D01*
X64771Y-47029D01*
X64760Y-47051D01*
X64760Y-47096D01*
X64771Y-47119D01*
X64782Y-47130D01*
X64805Y-47141D01*
X64861Y-47141D01*
X64884Y-47130D01*
X64895Y-47119D01*
X64906Y-47096D01*
X64906Y-47051D01*
X64895Y-47029D01*
X64884Y-47017D01*
X64861Y-47006D01*
G54D11*
X55069Y-45466D02*
X55249Y-45466D01*
X55159Y-45780D02*
X55159Y-45466D01*
X55519Y-45780D02*
X55339Y-45780D01*
X55429Y-45780D02*
X55429Y-45466D01*
X55399Y-45511D01*
X55369Y-45541D01*
X55339Y-45556D01*
X55804Y-45466D02*
X55654Y-45466D01*
X55639Y-45616D01*
X55654Y-45601D01*
X55684Y-45586D01*
X55759Y-45586D01*
X55789Y-45601D01*
X55804Y-45616D01*
X55819Y-45646D01*
X55819Y-45720D01*
X55804Y-45750D01*
X55789Y-45765D01*
X55759Y-45780D01*
X55684Y-45780D01*
X55654Y-45765D01*
X55639Y-45750D01*
G54D26*
X47850Y-40981D02*
X47860Y-40990D01*
X47869Y-41018D01*
X47869Y-41037D01*
X47860Y-41065D01*
X47841Y-41084D01*
X47822Y-41093D01*
X47785Y-41103D01*
X47757Y-41103D01*
X47719Y-41093D01*
X47700Y-41084D01*
X47682Y-41065D01*
X47672Y-41037D01*
X47672Y-41018D01*
X47682Y-40990D01*
X47691Y-40981D01*
X47869Y-40793D02*
X47869Y-40906D01*
X47869Y-40850D02*
X47672Y-40850D01*
X47700Y-40868D01*
X47719Y-40887D01*
X47729Y-40906D01*
X47672Y-40671D02*
X47672Y-40653D01*
X47682Y-40634D01*
X47691Y-40625D01*
X47710Y-40615D01*
X47747Y-40606D01*
X47794Y-40606D01*
X47832Y-40615D01*
X47850Y-40625D01*
X47860Y-40634D01*
X47869Y-40653D01*
X47869Y-40671D01*
X47860Y-40690D01*
X47850Y-40700D01*
X47832Y-40709D01*
X47794Y-40718D01*
X47747Y-40718D01*
X47710Y-40709D01*
X47691Y-40700D01*
X47682Y-40690D01*
X47672Y-40671D01*
X47738Y-40437D02*
X47869Y-40437D01*
X47663Y-40484D02*
X47804Y-40531D01*
X47804Y-40409D01*
G54D15*
X50240Y-39466D02*
X50420Y-39466D01*
X50330Y-39858D02*
X50330Y-39466D01*
X50539Y-39858D02*
X50599Y-39858D01*
X50629Y-39840D01*
X50644Y-39821D01*
X50674Y-39765D01*
X50689Y-39690D01*
X50689Y-39541D01*
X50674Y-39504D01*
X50659Y-39485D01*
X50629Y-39466D01*
X50569Y-39466D01*
X50539Y-39485D01*
X50524Y-39504D01*
X50509Y-39541D01*
X50509Y-39634D01*
X50524Y-39672D01*
X50539Y-39690D01*
X50569Y-39709D01*
X50629Y-39709D01*
X50659Y-39690D01*
X50674Y-39672D01*
X50689Y-39634D01*
G54D27*
X50107Y-38841D02*
X50200Y-38841D01*
X50163Y-38916D02*
X50200Y-38841D01*
X50163Y-38766D01*
X50275Y-38886D02*
X50200Y-38841D01*
X50275Y-38796D01*
G54D26*
X47871Y-37909D02*
X47881Y-37918D01*
X47890Y-37946D01*
X47890Y-37965D01*
X47881Y-37993D01*
X47862Y-38012D01*
X47843Y-38021D01*
X47806Y-38031D01*
X47778Y-38031D01*
X47740Y-38021D01*
X47721Y-38012D01*
X47703Y-37993D01*
X47693Y-37965D01*
X47693Y-37946D01*
X47703Y-37918D01*
X47712Y-37909D01*
X47890Y-37721D02*
X47890Y-37834D01*
X47890Y-37778D02*
X47693Y-37778D01*
X47721Y-37796D01*
X47740Y-37815D01*
X47750Y-37834D01*
X47693Y-37599D02*
X47693Y-37581D01*
X47703Y-37562D01*
X47712Y-37553D01*
X47731Y-37543D01*
X47768Y-37534D01*
X47815Y-37534D01*
X47853Y-37543D01*
X47871Y-37553D01*
X47881Y-37562D01*
X47890Y-37581D01*
X47890Y-37599D01*
X47881Y-37618D01*
X47871Y-37628D01*
X47853Y-37637D01*
X47815Y-37646D01*
X47768Y-37646D01*
X47731Y-37637D01*
X47712Y-37628D01*
X47703Y-37618D01*
X47693Y-37599D01*
X47693Y-37468D02*
X47693Y-37346D01*
X47768Y-37412D01*
X47768Y-37384D01*
X47778Y-37365D01*
X47787Y-37356D01*
X47806Y-37346D01*
X47853Y-37346D01*
X47871Y-37356D01*
X47881Y-37365D01*
X47890Y-37384D01*
X47890Y-37440D01*
X47881Y-37459D01*
X47871Y-37468D01*
G54D15*
X50237Y-37552D02*
X50417Y-37552D01*
X50327Y-37944D02*
X50327Y-37552D01*
X50671Y-37552D02*
X50521Y-37552D01*
X50506Y-37739D01*
X50521Y-37720D01*
X50551Y-37702D01*
X50626Y-37702D01*
X50656Y-37720D01*
X50671Y-37739D01*
X50686Y-37776D01*
X50686Y-37870D01*
X50671Y-37907D01*
X50656Y-37926D01*
X50626Y-37944D01*
X50551Y-37944D01*
X50521Y-37926D01*
X50506Y-37907D01*
G54D27*
X50104Y-36888D02*
X50197Y-36888D01*
X50160Y-36963D02*
X50197Y-36888D01*
X50160Y-36813D01*
X50272Y-36933D02*
X50197Y-36888D01*
X50272Y-36843D01*
G54D24*
X47326Y-28186D02*
X47260Y-28092D01*
X47213Y-28186D02*
X47213Y-27989D01*
X47288Y-27989D01*
X47307Y-27999D01*
X47317Y-28008D01*
X47326Y-28027D01*
X47326Y-28055D01*
X47317Y-28074D01*
X47307Y-28083D01*
X47288Y-28092D01*
X47213Y-28092D01*
X47504Y-27989D02*
X47410Y-27989D01*
X47401Y-28083D01*
X47410Y-28074D01*
X47429Y-28064D01*
X47476Y-28064D01*
X47495Y-28074D01*
X47504Y-28083D01*
X47513Y-28102D01*
X47513Y-28149D01*
X47504Y-28167D01*
X47495Y-28177D01*
X47476Y-28186D01*
X47429Y-28186D01*
X47410Y-28177D01*
X47401Y-28167D01*
X47692Y-27989D02*
X47598Y-27989D01*
X47588Y-28083D01*
X47598Y-28074D01*
X47617Y-28064D01*
X47663Y-28064D01*
X47682Y-28074D01*
X47692Y-28083D01*
X47701Y-28102D01*
X47701Y-28149D01*
X47692Y-28167D01*
X47682Y-28177D01*
X47663Y-28186D01*
X47617Y-28186D01*
X47598Y-28177D01*
X47588Y-28167D01*
G54D11*
X48287Y-28446D02*
X48137Y-28446D01*
X48137Y-28131D01*
X48392Y-28446D02*
X48392Y-28131D01*
X48467Y-28131D01*
X48511Y-28146D01*
X48541Y-28176D01*
X48556Y-28206D01*
X48571Y-28266D01*
X48571Y-28311D01*
X48556Y-28371D01*
X48541Y-28401D01*
X48511Y-28431D01*
X48467Y-28446D01*
X48392Y-28446D01*
X48856Y-28131D02*
X48706Y-28131D01*
X48691Y-28281D01*
X48706Y-28266D01*
X48736Y-28251D01*
X48811Y-28251D01*
X48841Y-28266D01*
X48856Y-28281D01*
X48871Y-28311D01*
X48871Y-28386D01*
X48856Y-28416D01*
X48841Y-28431D01*
X48811Y-28446D01*
X48736Y-28446D01*
X48706Y-28431D01*
X48691Y-28416D01*
G54D10*
X58393Y-44121D02*
X57999Y-44121D01*
X57999Y-43971D01*
X58018Y-43933D01*
X58037Y-43914D01*
X58074Y-43896D01*
X58131Y-43896D01*
X58168Y-43914D01*
X58187Y-43933D01*
X58206Y-43971D01*
X58206Y-44121D01*
X58037Y-43746D02*
X58018Y-43727D01*
X57999Y-43689D01*
X57999Y-43596D01*
X58018Y-43558D01*
X58037Y-43539D01*
X58074Y-43521D01*
X58112Y-43521D01*
X58168Y-43539D01*
X58393Y-43764D01*
X58393Y-43521D01*
G54D24*
X60894Y-42152D02*
X60884Y-42171D01*
X60884Y-42199D01*
X60894Y-42227D01*
X60912Y-42246D01*
X60931Y-42256D01*
X60969Y-42265D01*
X60997Y-42265D01*
X61034Y-42256D01*
X61053Y-42246D01*
X61072Y-42227D01*
X61081Y-42199D01*
X61081Y-42181D01*
X61072Y-42152D01*
X61062Y-42143D01*
X60997Y-42143D01*
X60997Y-42181D01*
X61081Y-42059D02*
X60884Y-42059D01*
X61081Y-41946D01*
X60884Y-41946D01*
X61081Y-41853D02*
X60884Y-41853D01*
X60884Y-41806D01*
X60894Y-41778D01*
X60912Y-41759D01*
X60931Y-41749D01*
X60969Y-41740D01*
X60997Y-41740D01*
X61034Y-41749D01*
X61053Y-41759D01*
X61072Y-41778D01*
X61081Y-41806D01*
X61081Y-41853D01*
X60868Y-46137D02*
X60859Y-46155D01*
X60859Y-46183D01*
X60868Y-46212D01*
X60887Y-46230D01*
X60906Y-46240D01*
X60943Y-46249D01*
X60971Y-46249D01*
X61009Y-46240D01*
X61027Y-46230D01*
X61046Y-46212D01*
X61055Y-46183D01*
X61055Y-46165D01*
X61046Y-46137D01*
X61037Y-46127D01*
X60971Y-46127D01*
X60971Y-46165D01*
X61055Y-46043D02*
X60859Y-46043D01*
X60859Y-45968D01*
X60868Y-45949D01*
X60877Y-45940D01*
X60896Y-45930D01*
X60924Y-45930D01*
X60943Y-45940D01*
X60952Y-45949D01*
X60962Y-45968D01*
X60962Y-46043D01*
X61055Y-45846D02*
X60859Y-45846D01*
X60859Y-45715D02*
X60859Y-45677D01*
X60868Y-45658D01*
X60887Y-45640D01*
X60924Y-45630D01*
X60990Y-45630D01*
X61027Y-45640D01*
X61046Y-45658D01*
X61055Y-45677D01*
X61055Y-45715D01*
X61046Y-45733D01*
X61027Y-45752D01*
X60990Y-45762D01*
X60924Y-45762D01*
X60887Y-45752D01*
X60868Y-45733D01*
X60859Y-45715D01*
X60943Y-45518D02*
X60934Y-45537D01*
X60924Y-45546D01*
X60906Y-45555D01*
X60896Y-45555D01*
X60877Y-45546D01*
X60868Y-45537D01*
X60859Y-45518D01*
X60859Y-45480D01*
X60868Y-45462D01*
X60877Y-45452D01*
X60896Y-45443D01*
X60906Y-45443D01*
X60924Y-45452D01*
X60934Y-45462D01*
X60943Y-45480D01*
X60943Y-45518D01*
X60952Y-45537D01*
X60962Y-45546D01*
X60981Y-45555D01*
X61018Y-45555D01*
X61037Y-45546D01*
X61046Y-45537D01*
X61055Y-45518D01*
X61055Y-45480D01*
X61046Y-45462D01*
X61037Y-45452D01*
X61018Y-45443D01*
X60981Y-45443D01*
X60962Y-45452D01*
X60952Y-45462D01*
X60943Y-45480D01*
X59356Y-42167D02*
X59347Y-42185D01*
X59347Y-42213D01*
X59356Y-42242D01*
X59375Y-42260D01*
X59394Y-42270D01*
X59431Y-42279D01*
X59459Y-42279D01*
X59497Y-42270D01*
X59515Y-42260D01*
X59534Y-42242D01*
X59543Y-42213D01*
X59543Y-42195D01*
X59534Y-42167D01*
X59525Y-42157D01*
X59459Y-42157D01*
X59459Y-42195D01*
X59543Y-42073D02*
X59347Y-42073D01*
X59347Y-41998D01*
X59356Y-41979D01*
X59365Y-41970D01*
X59384Y-41960D01*
X59412Y-41960D01*
X59431Y-41970D01*
X59440Y-41979D01*
X59450Y-41998D01*
X59450Y-42073D01*
X59543Y-41876D02*
X59347Y-41876D01*
X59347Y-41745D02*
X59347Y-41707D01*
X59356Y-41688D01*
X59375Y-41670D01*
X59412Y-41660D01*
X59478Y-41660D01*
X59515Y-41670D01*
X59534Y-41688D01*
X59543Y-41707D01*
X59543Y-41745D01*
X59534Y-41763D01*
X59515Y-41782D01*
X59478Y-41792D01*
X59412Y-41792D01*
X59375Y-41782D01*
X59356Y-41763D01*
X59347Y-41745D01*
X59365Y-41585D02*
X59356Y-41576D01*
X59347Y-41557D01*
X59347Y-41510D01*
X59356Y-41492D01*
X59365Y-41482D01*
X59384Y-41473D01*
X59403Y-41473D01*
X59431Y-41482D01*
X59543Y-41595D01*
X59543Y-41473D01*
X59376Y-46107D02*
X59367Y-46125D01*
X59367Y-46153D01*
X59376Y-46182D01*
X59395Y-46200D01*
X59414Y-46210D01*
X59451Y-46219D01*
X59479Y-46219D01*
X59517Y-46210D01*
X59535Y-46200D01*
X59554Y-46182D01*
X59563Y-46153D01*
X59563Y-46135D01*
X59554Y-46107D01*
X59545Y-46097D01*
X59479Y-46097D01*
X59479Y-46135D01*
X59563Y-46013D02*
X59367Y-46013D01*
X59367Y-45938D01*
X59376Y-45919D01*
X59385Y-45910D01*
X59404Y-45900D01*
X59432Y-45900D01*
X59451Y-45910D01*
X59460Y-45919D01*
X59470Y-45938D01*
X59470Y-46013D01*
X59563Y-45816D02*
X59367Y-45816D01*
X59367Y-45685D02*
X59367Y-45647D01*
X59376Y-45628D01*
X59395Y-45610D01*
X59432Y-45600D01*
X59498Y-45600D01*
X59535Y-45610D01*
X59554Y-45628D01*
X59563Y-45647D01*
X59563Y-45685D01*
X59554Y-45703D01*
X59535Y-45722D01*
X59498Y-45732D01*
X59432Y-45732D01*
X59395Y-45722D01*
X59376Y-45703D01*
X59367Y-45685D01*
X59367Y-45422D02*
X59367Y-45516D01*
X59460Y-45525D01*
X59451Y-45516D01*
X59442Y-45497D01*
X59442Y-45450D01*
X59451Y-45432D01*
X59460Y-45422D01*
X59479Y-45413D01*
X59526Y-45413D01*
X59545Y-45422D01*
X59554Y-45432D01*
X59563Y-45450D01*
X59563Y-45497D01*
X59554Y-45516D01*
X59545Y-45525D01*
X59846Y-46117D02*
X59837Y-46135D01*
X59837Y-46163D01*
X59846Y-46192D01*
X59865Y-46210D01*
X59884Y-46220D01*
X59921Y-46229D01*
X59949Y-46229D01*
X59987Y-46220D01*
X60005Y-46210D01*
X60024Y-46192D01*
X60033Y-46163D01*
X60033Y-46145D01*
X60024Y-46117D01*
X60015Y-46107D01*
X59949Y-46107D01*
X59949Y-46145D01*
X60033Y-46023D02*
X59837Y-46023D01*
X59837Y-45948D01*
X59846Y-45929D01*
X59855Y-45920D01*
X59874Y-45910D01*
X59902Y-45910D01*
X59921Y-45920D01*
X59930Y-45929D01*
X59940Y-45948D01*
X59940Y-46023D01*
X60033Y-45826D02*
X59837Y-45826D01*
X59837Y-45695D02*
X59837Y-45657D01*
X59846Y-45638D01*
X59865Y-45620D01*
X59902Y-45610D01*
X59968Y-45610D01*
X60005Y-45620D01*
X60024Y-45638D01*
X60033Y-45657D01*
X60033Y-45695D01*
X60024Y-45713D01*
X60005Y-45732D01*
X59968Y-45742D01*
X59902Y-45742D01*
X59865Y-45732D01*
X59846Y-45713D01*
X59837Y-45695D01*
X59837Y-45442D02*
X59837Y-45479D01*
X59846Y-45498D01*
X59855Y-45507D01*
X59884Y-45526D01*
X59921Y-45535D01*
X59996Y-45535D01*
X60015Y-45526D01*
X60024Y-45517D01*
X60033Y-45498D01*
X60033Y-45460D01*
X60024Y-45442D01*
X60015Y-45432D01*
X59996Y-45423D01*
X59949Y-45423D01*
X59930Y-45432D01*
X59921Y-45442D01*
X59912Y-45460D01*
X59912Y-45498D01*
X59921Y-45517D01*
X59930Y-45526D01*
X59949Y-45535D01*
X60348Y-46127D02*
X60339Y-46145D01*
X60339Y-46173D01*
X60348Y-46202D01*
X60367Y-46220D01*
X60386Y-46230D01*
X60423Y-46239D01*
X60451Y-46239D01*
X60489Y-46230D01*
X60507Y-46220D01*
X60526Y-46202D01*
X60535Y-46173D01*
X60535Y-46155D01*
X60526Y-46127D01*
X60517Y-46117D01*
X60451Y-46117D01*
X60451Y-46155D01*
X60535Y-46033D02*
X60339Y-46033D01*
X60339Y-45958D01*
X60348Y-45939D01*
X60357Y-45930D01*
X60376Y-45920D01*
X60404Y-45920D01*
X60423Y-45930D01*
X60432Y-45939D01*
X60442Y-45958D01*
X60442Y-46033D01*
X60535Y-45836D02*
X60339Y-45836D01*
X60339Y-45705D02*
X60339Y-45667D01*
X60348Y-45648D01*
X60367Y-45630D01*
X60404Y-45620D01*
X60470Y-45620D01*
X60507Y-45630D01*
X60526Y-45648D01*
X60535Y-45667D01*
X60535Y-45705D01*
X60526Y-45723D01*
X60507Y-45742D01*
X60470Y-45752D01*
X60404Y-45752D01*
X60367Y-45742D01*
X60348Y-45723D01*
X60339Y-45705D01*
X60339Y-45555D02*
X60339Y-45424D01*
X60535Y-45508D01*
X58846Y-46117D02*
X58837Y-46135D01*
X58837Y-46163D01*
X58846Y-46192D01*
X58865Y-46210D01*
X58884Y-46220D01*
X58921Y-46229D01*
X58949Y-46229D01*
X58987Y-46220D01*
X59005Y-46210D01*
X59024Y-46192D01*
X59033Y-46163D01*
X59033Y-46145D01*
X59024Y-46117D01*
X59015Y-46107D01*
X58949Y-46107D01*
X58949Y-46145D01*
X59033Y-46023D02*
X58837Y-46023D01*
X58837Y-45948D01*
X58846Y-45929D01*
X58855Y-45920D01*
X58874Y-45910D01*
X58902Y-45910D01*
X58921Y-45920D01*
X58930Y-45929D01*
X58940Y-45948D01*
X58940Y-46023D01*
X59033Y-45826D02*
X58837Y-45826D01*
X58837Y-45695D02*
X58837Y-45657D01*
X58846Y-45638D01*
X58865Y-45620D01*
X58902Y-45610D01*
X58968Y-45610D01*
X59005Y-45620D01*
X59024Y-45638D01*
X59033Y-45657D01*
X59033Y-45695D01*
X59024Y-45713D01*
X59005Y-45732D01*
X58968Y-45742D01*
X58902Y-45742D01*
X58865Y-45732D01*
X58846Y-45713D01*
X58837Y-45695D01*
X58902Y-45442D02*
X59033Y-45442D01*
X58827Y-45488D02*
X58968Y-45535D01*
X58968Y-45414D01*
X58826Y-42157D02*
X58817Y-42175D01*
X58817Y-42203D01*
X58826Y-42232D01*
X58845Y-42250D01*
X58864Y-42260D01*
X58901Y-42269D01*
X58929Y-42269D01*
X58967Y-42260D01*
X58985Y-42250D01*
X59004Y-42232D01*
X59013Y-42203D01*
X59013Y-42185D01*
X59004Y-42157D01*
X58995Y-42147D01*
X58929Y-42147D01*
X58929Y-42185D01*
X59013Y-42063D02*
X58817Y-42063D01*
X58817Y-41988D01*
X58826Y-41969D01*
X58835Y-41960D01*
X58854Y-41950D01*
X58882Y-41950D01*
X58901Y-41960D01*
X58910Y-41969D01*
X58920Y-41988D01*
X58920Y-42063D01*
X59013Y-41866D02*
X58817Y-41866D01*
X58817Y-41735D02*
X58817Y-41697D01*
X58826Y-41678D01*
X58845Y-41660D01*
X58882Y-41650D01*
X58948Y-41650D01*
X58985Y-41660D01*
X59004Y-41678D01*
X59013Y-41697D01*
X59013Y-41735D01*
X59004Y-41753D01*
X58985Y-41772D01*
X58948Y-41782D01*
X58882Y-41782D01*
X58845Y-41772D01*
X58826Y-41753D01*
X58817Y-41735D01*
X58817Y-41585D02*
X58817Y-41463D01*
X58892Y-41528D01*
X58892Y-41500D01*
X58901Y-41482D01*
X58910Y-41472D01*
X58929Y-41463D01*
X58976Y-41463D01*
X58995Y-41472D01*
X59004Y-41482D01*
X59013Y-41500D01*
X59013Y-41557D01*
X59004Y-41575D01*
X58995Y-41585D01*
X59878Y-42157D02*
X59869Y-42175D01*
X59869Y-42203D01*
X59878Y-42232D01*
X59897Y-42250D01*
X59916Y-42260D01*
X59953Y-42269D01*
X59981Y-42269D01*
X60019Y-42260D01*
X60037Y-42250D01*
X60056Y-42232D01*
X60065Y-42203D01*
X60065Y-42185D01*
X60056Y-42157D01*
X60047Y-42147D01*
X59981Y-42147D01*
X59981Y-42185D01*
X60065Y-42063D02*
X59869Y-42063D01*
X59869Y-41988D01*
X59878Y-41969D01*
X59887Y-41960D01*
X59906Y-41950D01*
X59934Y-41950D01*
X59953Y-41960D01*
X59962Y-41969D01*
X59972Y-41988D01*
X59972Y-42063D01*
X60065Y-41866D02*
X59869Y-41866D01*
X59869Y-41735D02*
X59869Y-41697D01*
X59878Y-41678D01*
X59897Y-41660D01*
X59934Y-41650D01*
X60000Y-41650D01*
X60037Y-41660D01*
X60056Y-41678D01*
X60065Y-41697D01*
X60065Y-41735D01*
X60056Y-41753D01*
X60037Y-41772D01*
X60000Y-41782D01*
X59934Y-41782D01*
X59897Y-41772D01*
X59878Y-41753D01*
X59869Y-41735D01*
X60065Y-41463D02*
X60065Y-41575D01*
X60065Y-41519D02*
X59869Y-41519D01*
X59897Y-41538D01*
X59916Y-41557D01*
X59925Y-41575D01*
X60358Y-42167D02*
X60349Y-42185D01*
X60349Y-42213D01*
X60358Y-42242D01*
X60377Y-42260D01*
X60396Y-42270D01*
X60433Y-42279D01*
X60461Y-42279D01*
X60499Y-42270D01*
X60517Y-42260D01*
X60536Y-42242D01*
X60545Y-42213D01*
X60545Y-42195D01*
X60536Y-42167D01*
X60527Y-42157D01*
X60461Y-42157D01*
X60461Y-42195D01*
X60545Y-42073D02*
X60349Y-42073D01*
X60349Y-41998D01*
X60358Y-41979D01*
X60367Y-41970D01*
X60386Y-41960D01*
X60414Y-41960D01*
X60433Y-41970D01*
X60442Y-41979D01*
X60452Y-41998D01*
X60452Y-42073D01*
X60545Y-41876D02*
X60349Y-41876D01*
X60349Y-41745D02*
X60349Y-41707D01*
X60358Y-41688D01*
X60377Y-41670D01*
X60414Y-41660D01*
X60480Y-41660D01*
X60517Y-41670D01*
X60536Y-41688D01*
X60545Y-41707D01*
X60545Y-41745D01*
X60536Y-41763D01*
X60517Y-41782D01*
X60480Y-41792D01*
X60414Y-41792D01*
X60377Y-41782D01*
X60358Y-41763D01*
X60349Y-41745D01*
X60349Y-41538D02*
X60349Y-41520D01*
X60358Y-41501D01*
X60367Y-41492D01*
X60386Y-41482D01*
X60424Y-41473D01*
X60471Y-41473D01*
X60508Y-41482D01*
X60527Y-41492D01*
X60536Y-41501D01*
X60545Y-41520D01*
X60545Y-41538D01*
X60536Y-41557D01*
X60527Y-41567D01*
X60508Y-41576D01*
X60471Y-41585D01*
X60424Y-41585D01*
X60386Y-41576D01*
X60367Y-41567D01*
X60358Y-41557D01*
X60349Y-41538D01*
X49258Y-44676D02*
X49164Y-44742D01*
X49258Y-44788D02*
X49061Y-44788D01*
X49061Y-44713D01*
X49071Y-44695D01*
X49080Y-44685D01*
X49099Y-44676D01*
X49127Y-44676D01*
X49146Y-44685D01*
X49155Y-44695D01*
X49164Y-44713D01*
X49164Y-44788D01*
X49080Y-44601D02*
X49071Y-44592D01*
X49061Y-44573D01*
X49061Y-44526D01*
X49071Y-44507D01*
X49080Y-44498D01*
X49099Y-44489D01*
X49117Y-44489D01*
X49146Y-44498D01*
X49258Y-44610D01*
X49258Y-44489D01*
X49258Y-44301D02*
X49258Y-44414D01*
X49258Y-44357D02*
X49061Y-44357D01*
X49089Y-44376D01*
X49108Y-44395D01*
X49117Y-44414D01*
X49061Y-44179D02*
X49061Y-44160D01*
X49071Y-44142D01*
X49080Y-44132D01*
X49099Y-44123D01*
X49136Y-44114D01*
X49183Y-44114D01*
X49221Y-44123D01*
X49239Y-44132D01*
X49249Y-44142D01*
X49258Y-44160D01*
X49258Y-44179D01*
X49249Y-44198D01*
X49239Y-44207D01*
X49221Y-44217D01*
X49183Y-44226D01*
X49136Y-44226D01*
X49099Y-44217D01*
X49080Y-44207D01*
X49071Y-44198D01*
X49061Y-44179D01*
X52892Y-52474D02*
X52826Y-52380D01*
X52779Y-52474D02*
X52779Y-52277D01*
X52854Y-52277D01*
X52873Y-52287D01*
X52883Y-52296D01*
X52892Y-52315D01*
X52892Y-52343D01*
X52883Y-52362D01*
X52873Y-52371D01*
X52854Y-52380D01*
X52779Y-52380D01*
X53061Y-52343D02*
X53061Y-52474D01*
X53014Y-52268D02*
X52967Y-52409D01*
X53089Y-52409D01*
X53145Y-52277D02*
X53267Y-52277D01*
X53201Y-52352D01*
X53229Y-52352D01*
X53248Y-52362D01*
X53258Y-52371D01*
X53267Y-52390D01*
X53267Y-52437D01*
X53258Y-52455D01*
X53248Y-52465D01*
X53229Y-52474D01*
X53173Y-52474D01*
X53154Y-52465D01*
X53145Y-52455D01*
X52075Y-47106D02*
X51981Y-47172D01*
X52075Y-47219D02*
X51878Y-47219D01*
X51878Y-47144D01*
X51888Y-47125D01*
X51897Y-47115D01*
X51916Y-47106D01*
X51944Y-47106D01*
X51963Y-47115D01*
X51972Y-47125D01*
X51981Y-47144D01*
X51981Y-47219D01*
X51944Y-46937D02*
X52075Y-46937D01*
X51869Y-46984D02*
X52010Y-47031D01*
X52010Y-46909D01*
X51944Y-46750D02*
X52075Y-46750D01*
X51869Y-46797D02*
X52010Y-46844D01*
X52010Y-46722D01*
M02*
