G04 (created by PCBNEW (2013-june-11)-stable) date Tue 10 Oct 2017 05:17:01 PM CEST*
%MOIN*%
G04 Gerber Fmt 3.4, Leading zero omitted, Abs format*
%FSLAX34Y34*%
G01*
G70*
G90*
G04 APERTURE LIST*
%ADD10C,0.00590551*%
%ADD11C,0.00787402*%
%ADD12C,0.023622*%
%ADD13C,0.25*%
%ADD14O,0.06X0.1179*%
%ADD15C,0.019685*%
%ADD16C,0.0137795*%
%ADD17C,0.011811*%
%ADD18C,0.019685*%
%ADD19C,0.0314961*%
%ADD20C,0.015748*%
%ADD21C,0.00984252*%
%ADD22C,0.00393701*%
%ADD23C,0.0011811*%
G04 APERTURE END LIST*
G54D10*
G54D11*
X40574Y-57658D02*
X40583Y-57658D01*
X40574Y-19850D02*
X40574Y-57658D01*
X40575Y-19849D02*
X40575Y-19862D01*
X70460Y-19849D02*
X40575Y-19849D01*
X70460Y-19868D02*
X70460Y-19849D01*
X70460Y-57658D02*
X70460Y-19868D01*
X40575Y-57658D02*
X70460Y-57658D01*
X68894Y-23267D02*
X68906Y-23267D01*
X68890Y-53390D02*
X68902Y-53390D01*
X43087Y-57659D02*
X43087Y-57647D01*
X40561Y-53217D02*
X40573Y-53217D01*
X40565Y-23094D02*
X40577Y-23094D01*
X68472Y-19849D02*
X68472Y-19861D01*
X44228Y-19839D02*
X44228Y-19851D01*
X42134Y-45546D02*
X42132Y-45546D01*
X42134Y-56091D02*
X42134Y-45546D01*
X47037Y-56091D02*
X42134Y-56091D01*
X42132Y-45546D02*
X42132Y-56028D01*
X42140Y-44129D02*
X42137Y-44129D01*
X42140Y-21415D02*
X42140Y-44129D01*
X47009Y-21415D02*
X42140Y-21415D01*
X48421Y-21415D02*
X48421Y-21427D01*
X62986Y-21415D02*
X48421Y-21415D01*
X64402Y-21424D02*
X64402Y-21430D01*
X68891Y-21424D02*
X64402Y-21424D01*
X68891Y-56132D02*
X68891Y-21424D01*
X68891Y-56134D02*
X63758Y-56134D01*
X68891Y-53037D02*
X68891Y-56134D01*
X48452Y-56093D02*
X48452Y-56096D01*
X62337Y-56110D02*
X48453Y-56110D01*
X63753Y-54537D02*
X63753Y-54539D01*
X65949Y-54537D02*
X63753Y-54537D01*
X48423Y-22989D02*
X48423Y-22991D01*
X62988Y-22989D02*
X48423Y-22989D01*
X64404Y-22993D02*
X64404Y-22989D01*
X65944Y-22993D02*
X64404Y-22993D01*
X47009Y-22991D02*
X45088Y-22991D01*
X47037Y-54537D02*
X47037Y-54538D01*
X45099Y-54537D02*
X47037Y-54537D01*
X63759Y-56135D02*
X63759Y-54560D01*
X62336Y-56109D02*
X62336Y-54534D01*
X62337Y-54539D02*
X54171Y-54539D01*
X63754Y-54538D02*
X63754Y-54539D01*
X62986Y-22990D02*
X62986Y-21415D01*
X64402Y-23001D02*
X64402Y-21426D01*
X64403Y-22990D02*
X64403Y-22989D01*
X48453Y-54536D02*
X48453Y-54537D01*
X59734Y-54536D02*
X48453Y-54536D01*
X43713Y-45545D02*
X43715Y-45545D01*
X43713Y-53156D02*
X43713Y-45545D01*
X43714Y-44133D02*
X43715Y-44133D01*
X43714Y-24370D02*
X43714Y-44133D01*
X48424Y-22992D02*
X48424Y-22991D01*
X43722Y-44129D02*
X42147Y-44129D01*
X43704Y-45546D02*
X42129Y-45546D01*
X47035Y-56091D02*
X47035Y-54516D01*
X48452Y-56109D02*
X48452Y-54534D01*
X48421Y-22997D02*
X48421Y-21422D01*
X47007Y-22992D02*
X47007Y-21417D01*
X43713Y-53157D02*
G75*
G03X45091Y-54535I1377J0D01*
G74*
G01*
X65950Y-54536D02*
G75*
G03X67328Y-53158I0J1377D01*
G74*
G01*
X45091Y-22991D02*
G75*
G03X43713Y-24369I0J-1377D01*
G74*
G01*
X67327Y-24370D02*
G75*
G03X65949Y-22992I-1377J0D01*
G74*
G01*
X67328Y-24372D02*
X67328Y-53149D01*
G54D12*
X48497Y-52602D03*
X48750Y-52377D03*
X48507Y-52119D03*
X64888Y-49878D03*
X64887Y-50901D03*
X64887Y-50389D03*
X64903Y-47151D03*
X64903Y-47663D03*
X64904Y-46640D03*
X64901Y-27169D03*
X64901Y-27681D03*
X64902Y-26658D03*
X64907Y-30422D03*
X64907Y-30934D03*
X64908Y-29911D03*
X64907Y-34363D03*
X64907Y-34875D03*
X64908Y-33852D03*
X64901Y-37072D03*
X64900Y-38095D03*
X64900Y-37583D03*
X64907Y-39494D03*
X64907Y-40006D03*
X64908Y-38983D03*
X64909Y-42675D03*
X64909Y-43187D03*
X64910Y-42164D03*
X64283Y-54207D03*
X65838Y-54221D03*
X64775Y-54221D03*
X65326Y-54221D03*
X66938Y-51339D03*
X66938Y-51851D03*
X66938Y-52914D03*
X66938Y-52363D03*
X66852Y-53369D03*
X66615Y-53763D03*
X66271Y-54044D03*
X66944Y-43802D03*
X66943Y-45376D03*
X66943Y-44825D03*
X66943Y-44313D03*
X66943Y-45927D03*
X66957Y-32532D03*
X66957Y-31981D03*
X66957Y-31469D03*
X66957Y-33083D03*
X57739Y-23361D03*
X57227Y-23361D03*
X56715Y-23361D03*
X56164Y-23361D03*
X55141Y-23360D03*
X55653Y-23360D03*
X61439Y-23361D03*
X60927Y-23361D03*
X60415Y-23361D03*
X59864Y-23361D03*
X58290Y-23360D03*
X58841Y-23360D03*
X59353Y-23360D03*
X63058Y-23537D03*
X62541Y-23361D03*
X61990Y-23361D03*
X56624Y-29723D03*
X56621Y-30160D03*
X56619Y-30672D03*
X56619Y-31183D03*
X54414Y-29678D03*
X54412Y-30136D03*
X54410Y-30648D03*
X54410Y-31159D03*
X57604Y-46350D03*
X57605Y-46864D03*
X57603Y-47376D03*
X57603Y-47887D03*
X55401Y-46376D03*
X55402Y-46890D03*
X55400Y-47402D03*
X55400Y-47913D03*
X55913Y-52677D03*
X45267Y-31248D03*
X45051Y-30696D03*
X45102Y-42846D03*
X48905Y-45299D03*
X45102Y-43240D03*
X48905Y-44960D03*
X52137Y-50001D03*
X47590Y-49992D03*
X51822Y-46017D03*
X48433Y-45090D03*
X52172Y-51383D03*
X51739Y-51383D03*
X51952Y-51729D03*
X52370Y-29271D03*
X52114Y-28948D03*
X51858Y-29263D03*
X48440Y-31748D03*
X48850Y-31755D03*
X53342Y-27822D03*
X53748Y-27818D03*
X45216Y-36094D03*
X60552Y-25838D03*
X45897Y-39783D03*
X45897Y-39419D03*
X45897Y-40948D03*
X45897Y-40574D03*
X45885Y-38632D03*
X45889Y-39007D03*
X45889Y-37460D03*
X45889Y-37842D03*
X46720Y-37275D03*
X46287Y-37275D03*
X46728Y-39208D03*
X46354Y-39208D03*
X46307Y-41141D03*
X46755Y-41141D03*
X46721Y-44412D03*
X46715Y-43659D03*
X46755Y-42348D03*
X46316Y-42341D03*
X50066Y-23590D03*
X45704Y-26767D03*
X51913Y-23590D03*
X51842Y-54118D03*
X52240Y-54122D03*
X52248Y-53708D03*
X51850Y-53704D03*
X47157Y-45996D03*
X46775Y-46220D03*
X45893Y-46003D03*
X46775Y-45787D03*
G54D13*
X45694Y-52573D03*
X65381Y-52572D03*
G54D14*
X57734Y-50153D03*
X55734Y-50153D03*
X56734Y-50153D03*
G54D12*
X48149Y-29344D03*
X47223Y-30364D03*
X48189Y-30797D03*
X47667Y-30794D03*
X47223Y-29878D03*
X47662Y-29343D03*
X44750Y-23498D03*
X44406Y-23779D03*
X44169Y-24173D03*
X44083Y-25179D03*
X44083Y-24628D03*
X44083Y-25691D03*
X44083Y-26203D03*
X44083Y-26754D03*
X45695Y-23321D03*
X46246Y-23321D03*
X45183Y-23321D03*
G54D13*
X45676Y-24956D03*
X65363Y-24955D03*
G54D12*
X66997Y-24462D03*
X66997Y-26037D03*
X66997Y-25525D03*
X66997Y-24974D03*
X63569Y-23538D03*
X64120Y-23538D03*
X65690Y-23362D03*
X65139Y-23362D03*
X66145Y-23448D03*
X66539Y-23685D03*
X66820Y-24029D03*
X54042Y-49188D03*
X53553Y-49035D03*
X53190Y-48714D03*
X52953Y-48288D03*
X52822Y-47865D03*
X54095Y-48218D03*
X53801Y-47906D03*
X66948Y-48281D03*
X66948Y-49261D03*
X66946Y-47685D03*
X66948Y-49856D03*
X66950Y-46626D03*
X66948Y-50915D03*
X66436Y-50915D03*
X66438Y-46626D03*
X66436Y-49856D03*
X66434Y-47685D03*
X66436Y-49261D03*
X66436Y-48281D03*
X65412Y-48281D03*
X65412Y-49261D03*
X65411Y-47685D03*
X65412Y-49856D03*
X65415Y-46626D03*
X65412Y-50915D03*
X65924Y-50915D03*
X65927Y-46626D03*
X65924Y-49856D03*
X65923Y-47685D03*
X65924Y-49261D03*
X65924Y-48281D03*
X64898Y-49262D03*
X64898Y-48282D03*
X62332Y-48282D03*
X62332Y-49262D03*
X63358Y-48281D03*
X63358Y-49261D03*
X62846Y-49261D03*
X62846Y-48281D03*
X63870Y-48281D03*
X63870Y-49261D03*
X64382Y-49261D03*
X64382Y-48281D03*
X59256Y-48281D03*
X59256Y-49261D03*
X58744Y-49261D03*
X58744Y-48281D03*
X57720Y-48281D03*
X57720Y-49261D03*
X58232Y-49261D03*
X58232Y-48281D03*
X57206Y-49262D03*
X57206Y-48282D03*
X59772Y-48282D03*
X59772Y-49262D03*
X60798Y-48281D03*
X60798Y-49261D03*
X60286Y-49261D03*
X60286Y-48281D03*
X61310Y-48281D03*
X61310Y-49261D03*
X61822Y-49261D03*
X61822Y-48281D03*
X56695Y-48280D03*
X56695Y-49260D03*
X56183Y-49260D03*
X56183Y-48280D03*
X55159Y-48280D03*
X55159Y-49260D03*
X55671Y-49260D03*
X55671Y-48280D03*
X54645Y-49261D03*
X54645Y-48281D03*
X52776Y-47442D03*
X53756Y-47447D03*
X52775Y-46484D03*
X53755Y-46489D03*
X53755Y-47001D03*
X52775Y-46996D03*
X52775Y-45975D03*
X53755Y-45980D03*
X53756Y-30029D03*
X52776Y-30029D03*
X52776Y-31050D03*
X53756Y-31050D03*
X53756Y-30538D03*
X52776Y-30538D03*
X53757Y-31433D03*
X52777Y-31433D03*
X54656Y-28325D03*
X54656Y-29305D03*
X55682Y-28324D03*
X55682Y-29304D03*
X55170Y-29304D03*
X55170Y-28324D03*
X56194Y-28324D03*
X56194Y-29304D03*
X56706Y-29304D03*
X56706Y-28324D03*
X64388Y-40547D03*
X64381Y-41584D03*
X64897Y-40605D03*
X64897Y-41585D03*
X65923Y-40604D03*
X65923Y-41584D03*
X65922Y-40008D03*
X65923Y-42179D03*
X65926Y-38949D03*
X65923Y-43238D03*
X65411Y-43238D03*
X65414Y-38949D03*
X65411Y-42179D03*
X65410Y-40008D03*
X65411Y-41584D03*
X65411Y-40604D03*
X66435Y-40604D03*
X66435Y-41584D03*
X66433Y-40008D03*
X66435Y-42179D03*
X66437Y-38949D03*
X66435Y-43238D03*
X66947Y-43238D03*
X66949Y-38949D03*
X66947Y-42179D03*
X66945Y-40008D03*
X66947Y-41584D03*
X66947Y-40604D03*
X66957Y-35498D03*
X66957Y-36478D03*
X66955Y-34902D03*
X66957Y-37073D03*
X66959Y-33843D03*
X66957Y-38132D03*
X66445Y-38132D03*
X66447Y-33843D03*
X66445Y-37073D03*
X66443Y-34902D03*
X66445Y-36478D03*
X66445Y-35498D03*
X65421Y-35498D03*
X65421Y-36478D03*
X65420Y-34902D03*
X65421Y-37073D03*
X65424Y-33843D03*
X65421Y-38132D03*
X65933Y-38132D03*
X65936Y-33843D03*
X65933Y-37073D03*
X65932Y-34902D03*
X65933Y-36478D03*
X65933Y-35498D03*
X64907Y-36479D03*
X64907Y-35499D03*
X64437Y-36533D03*
X64416Y-35507D03*
X61833Y-28325D03*
X61833Y-29305D03*
X61321Y-29305D03*
X61321Y-28325D03*
X60297Y-28325D03*
X60297Y-29305D03*
X60809Y-29305D03*
X60809Y-28325D03*
X59783Y-29306D03*
X59783Y-28326D03*
X57217Y-28326D03*
X57217Y-29306D03*
X58243Y-28325D03*
X58243Y-29305D03*
X57731Y-29305D03*
X57731Y-28325D03*
X58755Y-28325D03*
X58755Y-29305D03*
X59267Y-29305D03*
X59267Y-28325D03*
X64393Y-28325D03*
X64393Y-29305D03*
X63881Y-29305D03*
X63881Y-28325D03*
X62857Y-28325D03*
X62857Y-29305D03*
X63369Y-29305D03*
X63369Y-28325D03*
X62343Y-29306D03*
X62343Y-28326D03*
X64909Y-28326D03*
X64909Y-29306D03*
X65935Y-28325D03*
X65935Y-29305D03*
X65934Y-27729D03*
X65935Y-29900D03*
X65938Y-26670D03*
X65935Y-30959D03*
X65423Y-30959D03*
X65426Y-26670D03*
X65423Y-29900D03*
X65422Y-27729D03*
X65423Y-29305D03*
X65423Y-28325D03*
X66447Y-28325D03*
X66447Y-29305D03*
X66445Y-27729D03*
X66447Y-29900D03*
X66449Y-26670D03*
X66447Y-30959D03*
X66959Y-30959D03*
X66961Y-26670D03*
X66959Y-29900D03*
X66957Y-27729D03*
X66959Y-29305D03*
X66959Y-28325D03*
X54127Y-29347D03*
X53815Y-29641D03*
X54168Y-28368D03*
X53745Y-28499D03*
X53319Y-28736D03*
X52998Y-29099D03*
X52845Y-29588D03*
X53262Y-34214D03*
X56018Y-34250D03*
X53689Y-36547D03*
X55587Y-36571D03*
G54D15*
X54049Y-39174D03*
G54D12*
X51648Y-38701D03*
X51945Y-39833D03*
X51661Y-40119D03*
X51065Y-38701D03*
X50232Y-39678D03*
X50261Y-37723D03*
G54D15*
X55034Y-38898D03*
X54640Y-38898D03*
X54443Y-38622D03*
X55270Y-39174D03*
X54640Y-38347D03*
X54049Y-38622D03*
X54246Y-38898D03*
X54837Y-38622D03*
X54049Y-38071D03*
X53852Y-38347D03*
X54246Y-38347D03*
X54994Y-38347D03*
X54443Y-39174D03*
X54837Y-39174D03*
X55270Y-39528D03*
G54D12*
X56017Y-43345D03*
X53261Y-43346D03*
X55590Y-41013D03*
X56885Y-38544D03*
X58857Y-37567D03*
X58850Y-39522D03*
X49539Y-29628D03*
X50073Y-29694D03*
X50562Y-29847D03*
X50925Y-30168D03*
X51162Y-30594D03*
X51293Y-31017D03*
X51320Y-31476D03*
X51387Y-32914D03*
X51430Y-33426D03*
X49531Y-30592D03*
X50020Y-30664D03*
X50314Y-30976D03*
X50365Y-31424D03*
X51388Y-32437D03*
X51373Y-31948D03*
X51428Y-34326D03*
X51435Y-33891D03*
X49788Y-34081D03*
X49803Y-31425D03*
X49796Y-34816D03*
X49285Y-40685D03*
X49785Y-40685D03*
X50353Y-40685D03*
X51339Y-40405D03*
X50850Y-40414D03*
X52248Y-38701D03*
X49554Y-38700D03*
X50054Y-38700D03*
X50554Y-38700D03*
X50881Y-36977D03*
X51370Y-36986D03*
X50384Y-36706D03*
X49816Y-36705D03*
X49316Y-36705D03*
X51692Y-37272D03*
X51976Y-37558D03*
X51928Y-33512D03*
X51927Y-34009D03*
X51925Y-34468D03*
X53173Y-36249D03*
X52791Y-35991D03*
X52385Y-35205D03*
X52072Y-34875D03*
X52393Y-35679D03*
X54639Y-35978D03*
X54639Y-35478D03*
X54639Y-33478D03*
X54639Y-34478D03*
X54639Y-33978D03*
X54639Y-34978D03*
X57346Y-33535D03*
X57347Y-34032D03*
X57349Y-34491D03*
X56101Y-36272D03*
X56483Y-36014D03*
X56889Y-35228D03*
X57202Y-34898D03*
X56881Y-35702D03*
X52396Y-41859D03*
X52075Y-42663D03*
X52388Y-42333D03*
X52794Y-41547D03*
X53176Y-41289D03*
X51928Y-43070D03*
X51930Y-43529D03*
X51931Y-44026D03*
X54638Y-42582D03*
X54638Y-43582D03*
X54638Y-43082D03*
X54638Y-44082D03*
X54638Y-42082D03*
X54638Y-41582D03*
X56884Y-41882D03*
X57205Y-42686D03*
X56892Y-42356D03*
X56486Y-41570D03*
X56104Y-41312D03*
X57352Y-43093D03*
X57350Y-43552D03*
X57349Y-44049D03*
X56894Y-44457D03*
X53690Y-40990D03*
X55125Y-44499D03*
X57156Y-39688D03*
X57440Y-39974D03*
X59817Y-40540D03*
X59317Y-40540D03*
X58748Y-40540D03*
X60817Y-40540D03*
X60317Y-40540D03*
X57762Y-40260D03*
X58251Y-40269D03*
X58579Y-38546D03*
X59079Y-38546D03*
X59579Y-38546D03*
X58233Y-36830D03*
X57744Y-36839D03*
X58730Y-36559D03*
X59299Y-36558D03*
X59799Y-36558D03*
X58067Y-38545D03*
X57422Y-37125D03*
X57138Y-37411D03*
X57485Y-38544D03*
X52054Y-37174D03*
X51764Y-36879D03*
X51442Y-36593D03*
X50494Y-35682D03*
X50890Y-36019D03*
X51180Y-36314D03*
X50233Y-35409D03*
X49996Y-35103D03*
X51455Y-34722D03*
X52054Y-35380D03*
X51753Y-35076D03*
X49337Y-32308D03*
X49337Y-32808D03*
X49337Y-33808D03*
X49337Y-33308D03*
X49337Y-31808D03*
X55978Y-36989D03*
X55662Y-37025D03*
X49788Y-34447D03*
X49829Y-32750D03*
X50209Y-32762D03*
X50583Y-32762D03*
X50983Y-32762D03*
X53265Y-33686D03*
X49130Y-38692D03*
X56008Y-31453D03*
X55029Y-31369D03*
X56938Y-32724D03*
X56893Y-33160D03*
X62674Y-36731D03*
X63099Y-36260D03*
X63503Y-35870D03*
X63966Y-35606D03*
X61663Y-38074D03*
X62219Y-38041D03*
X62652Y-37923D03*
X63183Y-37604D03*
X63603Y-37215D03*
X64023Y-36765D03*
X62215Y-36994D03*
X61743Y-37053D03*
X57006Y-46098D03*
X56018Y-46164D03*
X53263Y-43874D03*
X56017Y-43346D03*
X47833Y-39558D03*
X47865Y-40683D03*
X47963Y-37703D03*
X47501Y-37703D03*
X47414Y-38722D03*
X47845Y-38832D03*
X52750Y-45594D03*
X52699Y-45095D03*
X52697Y-44636D03*
X53831Y-44645D03*
X53833Y-45104D03*
X53777Y-45592D03*
X56019Y-45198D03*
X56014Y-45666D03*
X55134Y-44985D03*
X55128Y-45473D03*
X63905Y-41461D03*
X63508Y-41209D03*
X61690Y-40035D03*
X62182Y-40074D03*
X63988Y-40275D03*
X63588Y-39904D03*
X63168Y-39475D03*
X62678Y-39175D03*
X62208Y-39035D03*
X63084Y-40800D03*
X62620Y-40348D03*
X61668Y-39036D03*
X53802Y-32381D03*
X53775Y-31922D03*
X53840Y-32858D03*
X52699Y-32893D03*
X52713Y-32417D03*
X52781Y-31935D03*
X52310Y-33170D03*
X54200Y-33165D03*
X55029Y-31802D03*
X55031Y-32219D03*
X55024Y-33047D03*
X55029Y-32644D03*
X56003Y-32291D03*
X56001Y-31874D03*
X56937Y-31888D03*
X56939Y-32305D03*
X56501Y-31874D03*
X48382Y-37708D03*
X48850Y-36808D03*
X48387Y-36807D03*
X47931Y-37208D03*
X47934Y-36813D03*
X48403Y-40683D03*
X48830Y-40674D03*
X48285Y-39585D03*
X48297Y-38728D03*
X48721Y-38736D03*
X57004Y-45466D03*
X57010Y-44978D03*
X55541Y-45697D03*
X60182Y-40104D03*
X60682Y-40104D03*
X61150Y-40032D03*
X60668Y-38939D03*
X60168Y-38939D03*
X61145Y-39038D03*
X60238Y-36972D03*
X60738Y-36972D03*
X60029Y-38546D03*
X60236Y-38172D03*
X60738Y-38128D03*
X61233Y-37044D03*
X61179Y-38066D03*
X52221Y-44475D03*
X54279Y-44456D03*
X59342Y-37567D03*
X59350Y-39518D03*
X47353Y-39635D03*
G54D16*
X49988Y-41196D03*
X56687Y-37127D03*
X56687Y-37363D03*
X56687Y-36811D03*
X54246Y-39876D03*
X55388Y-39843D03*
X56604Y-39962D03*
X52658Y-37737D03*
X53845Y-36973D03*
X56398Y-37580D03*
X57025Y-36913D03*
X57230Y-36809D03*
X57109Y-36620D03*
X52526Y-48582D03*
X49232Y-51425D03*
X50800Y-51579D03*
X62590Y-45456D03*
X46370Y-27629D03*
X48964Y-34429D03*
X48118Y-33019D03*
X53000Y-37235D03*
X54009Y-37668D03*
X47467Y-36853D03*
X49102Y-33039D03*
X45802Y-35419D03*
X54657Y-26200D03*
X54502Y-36761D03*
X53991Y-36761D03*
X53990Y-40799D03*
X54501Y-40799D03*
X54777Y-40799D03*
X55288Y-40799D03*
X55289Y-36761D03*
X54778Y-36761D03*
X50379Y-48285D03*
X47255Y-44000D03*
X53744Y-37669D03*
X52531Y-46397D03*
X60196Y-43874D03*
X52484Y-47003D03*
X60503Y-43885D03*
X52480Y-47397D03*
X61118Y-43897D03*
X52539Y-47204D03*
X60811Y-43885D03*
X58503Y-43779D03*
X61732Y-43224D03*
X57893Y-43606D03*
X49972Y-45118D03*
X49775Y-44921D03*
X58212Y-43224D03*
X61425Y-43224D03*
X50169Y-45358D03*
X62039Y-43228D03*
X61783Y-43720D03*
X62346Y-43228D03*
X50366Y-45598D03*
X61437Y-44614D03*
X48464Y-42834D03*
X48661Y-48185D03*
X60196Y-42401D03*
X55369Y-40368D03*
X60503Y-42007D03*
X55599Y-40383D03*
X56137Y-39870D03*
X61118Y-41562D03*
X55742Y-40237D03*
X60811Y-41791D03*
X57051Y-40125D03*
X61732Y-41622D03*
X56102Y-39685D03*
X61425Y-41338D03*
X56728Y-39377D03*
X62039Y-41724D03*
X56249Y-39223D03*
X62346Y-41909D03*
X51240Y-42216D03*
X53434Y-40348D03*
X49185Y-51200D03*
X50562Y-46519D03*
X50539Y-49893D03*
X47484Y-50484D03*
X48988Y-45562D03*
X49984Y-52039D03*
X47263Y-50043D03*
X49775Y-52311D03*
X46692Y-49413D03*
X47126Y-53654D03*
X44957Y-47436D03*
X49523Y-52795D03*
X51633Y-49370D03*
X50030Y-49696D03*
X49511Y-49921D03*
X48511Y-49562D03*
X53854Y-40363D03*
X49303Y-48090D03*
X51153Y-50944D03*
X52415Y-39608D03*
X50527Y-46783D03*
X52984Y-39921D03*
X51051Y-44165D03*
X53043Y-49645D03*
X52555Y-48933D03*
X53529Y-44565D03*
X53358Y-44566D03*
X53167Y-44565D03*
X52995Y-44566D03*
X60968Y-43744D03*
X57972Y-27625D03*
X54746Y-37219D03*
X54533Y-40340D03*
X53533Y-32991D03*
X53362Y-32992D03*
X53171Y-32991D03*
X52999Y-32992D03*
X60042Y-37832D03*
X60041Y-37661D03*
X60042Y-37470D03*
X60041Y-37298D03*
X60045Y-39258D03*
X60046Y-39430D03*
X60045Y-39621D03*
X60046Y-39792D03*
X52947Y-37953D03*
X55191Y-37697D03*
X55388Y-37697D03*
X55585Y-37697D03*
X55939Y-37559D03*
X56175Y-37599D03*
X46190Y-34722D03*
X46189Y-36213D03*
X54758Y-37717D03*
X50366Y-52169D03*
X57314Y-26976D03*
X44930Y-35006D03*
X44968Y-31586D03*
X59358Y-27244D03*
X59362Y-24866D03*
X57208Y-26492D03*
X56077Y-38544D03*
X53892Y-39843D03*
X52986Y-38701D03*
X53656Y-39843D03*
X53774Y-37205D03*
X61088Y-52470D03*
X54522Y-37717D03*
X54530Y-37219D03*
X54758Y-39843D03*
X61481Y-52538D03*
X54522Y-39843D03*
X61282Y-52743D03*
X54749Y-40341D03*
X48448Y-43594D03*
X58307Y-27625D03*
X49090Y-46539D03*
X50877Y-43437D03*
X52824Y-39733D03*
X57641Y-27625D03*
X49787Y-46602D03*
X52644Y-39583D03*
X50692Y-44429D03*
X53498Y-37717D03*
X53459Y-38583D03*
X53459Y-38819D03*
X53228Y-40094D03*
X55624Y-38662D03*
X55951Y-40989D03*
X55908Y-36600D03*
X55624Y-38426D03*
X48043Y-41128D03*
X48253Y-41002D03*
X48043Y-41127D03*
X47793Y-41021D03*
X48253Y-41001D03*
G54D17*
X51171Y-39366D02*
X53734Y-39366D01*
X51171Y-39366D02*
X50088Y-40449D01*
X50088Y-40449D02*
X50088Y-41096D01*
X50088Y-41096D02*
X49988Y-41196D01*
G54D11*
X54247Y-39879D02*
X53734Y-39366D01*
X55389Y-39846D02*
X55237Y-39997D01*
X55237Y-39997D02*
X54365Y-39997D01*
X54365Y-39997D02*
X54247Y-39879D01*
G54D10*
X54365Y-39997D02*
X55231Y-39997D01*
X55231Y-39997D02*
X55389Y-39840D01*
X54247Y-39879D02*
X54365Y-39997D01*
G54D18*
X56604Y-39962D02*
X56604Y-39722D01*
X55763Y-39448D02*
X55578Y-39263D01*
X56330Y-39448D02*
X55763Y-39448D01*
X56604Y-39722D02*
X56330Y-39448D01*
G54D17*
X59000Y-36700D02*
X59000Y-36480D01*
X59000Y-36480D02*
X57736Y-35216D01*
X55129Y-34728D02*
X55330Y-34728D01*
X55511Y-34909D02*
X56897Y-34909D01*
X55330Y-34728D02*
X55511Y-34909D01*
X53275Y-33964D02*
X53007Y-33964D01*
X52370Y-32881D02*
X52370Y-29271D01*
X52704Y-33216D02*
X52370Y-32881D01*
X52704Y-33661D02*
X52704Y-33216D01*
X53007Y-33964D02*
X52704Y-33661D01*
X52761Y-34316D02*
X52248Y-33803D01*
X52015Y-32736D02*
X52114Y-32637D01*
X52015Y-33271D02*
X52015Y-32736D01*
X52248Y-33503D02*
X52015Y-33271D01*
X52248Y-33803D02*
X52248Y-33503D01*
X55618Y-39047D02*
X56893Y-39047D01*
X56893Y-39047D02*
X57181Y-38759D01*
X57181Y-38759D02*
X57181Y-38405D01*
X57181Y-38405D02*
X57287Y-38299D01*
X57287Y-38299D02*
X58496Y-38299D01*
X58496Y-38299D02*
X59090Y-37704D01*
X59090Y-37704D02*
X59090Y-37326D01*
X59090Y-37326D02*
X59000Y-37236D01*
X59000Y-37236D02*
X59000Y-36700D01*
X57736Y-35216D02*
X57204Y-35216D01*
X57204Y-35216D02*
X56897Y-34909D01*
X53389Y-33964D02*
X53275Y-33964D01*
X53275Y-33964D02*
X53047Y-33964D01*
X54153Y-34728D02*
X53389Y-33964D01*
X55129Y-34728D02*
X54153Y-34728D01*
X55594Y-38893D02*
X56283Y-38893D01*
X52114Y-32637D02*
X52114Y-28952D01*
X53669Y-35224D02*
X52761Y-34316D01*
X54905Y-35224D02*
X53669Y-35224D01*
X55141Y-35460D02*
X54905Y-35224D01*
X57267Y-35460D02*
X55141Y-35460D01*
X58610Y-36803D02*
X57267Y-35460D01*
X58610Y-37472D02*
X58610Y-36803D01*
X57976Y-38106D02*
X58610Y-37472D01*
X56704Y-38106D02*
X57976Y-38106D01*
X56484Y-38326D02*
X56704Y-38106D01*
X56484Y-38692D02*
X56484Y-38326D01*
X56283Y-38893D02*
X56484Y-38692D01*
X46988Y-40350D02*
X46988Y-38669D01*
X47604Y-38053D02*
X47027Y-38629D01*
X46988Y-40350D02*
X46988Y-45570D01*
X46988Y-45570D02*
X46775Y-45783D01*
X46988Y-38669D02*
X47027Y-38629D01*
X53845Y-36973D02*
X52916Y-36973D01*
X47606Y-38051D02*
X47604Y-38053D01*
X47604Y-38053D02*
X47082Y-38574D01*
X51838Y-38051D02*
X47606Y-38051D01*
X52916Y-36973D02*
X51838Y-38051D01*
X56735Y-37583D02*
X56878Y-37440D01*
X56878Y-37440D02*
X56878Y-37064D01*
X56878Y-37064D02*
X57026Y-36916D01*
X56399Y-37583D02*
X56735Y-37583D01*
X57026Y-36872D02*
X57026Y-36916D01*
X57026Y-36872D02*
X56174Y-36020D01*
X56174Y-36020D02*
X54980Y-36020D01*
X54980Y-36020D02*
X54024Y-36976D01*
X54024Y-36976D02*
X53846Y-36976D01*
G54D18*
X53342Y-27822D02*
X53744Y-27822D01*
X53744Y-27822D02*
X53748Y-27818D01*
X48440Y-31748D02*
X48842Y-31748D01*
X49425Y-27822D02*
X53334Y-27822D01*
X49200Y-28047D02*
X49425Y-27822D01*
X49200Y-31389D02*
X49200Y-28047D01*
X48842Y-31748D02*
X49200Y-31389D01*
G54D17*
X52526Y-48582D02*
X52149Y-48582D01*
X52149Y-48582D02*
X52137Y-48594D01*
X49232Y-51425D02*
X49232Y-51437D01*
X49232Y-51437D02*
X49129Y-51539D01*
X50800Y-51579D02*
X50800Y-51729D01*
X50807Y-51755D02*
X50807Y-51729D01*
X50807Y-51736D02*
X50807Y-51755D01*
X50800Y-51729D02*
X50807Y-51736D01*
X62590Y-45456D02*
X62590Y-49468D01*
X62590Y-49468D02*
X60287Y-51771D01*
X60287Y-51771D02*
X51993Y-51771D01*
X51993Y-51771D02*
X51952Y-51729D01*
G54D18*
X48433Y-45090D02*
X48433Y-45968D01*
X50807Y-51729D02*
X49320Y-51729D01*
X47590Y-50000D02*
X47590Y-47692D01*
X49320Y-51729D02*
X49129Y-51539D01*
X49129Y-51539D02*
X47590Y-50000D01*
X47590Y-47692D02*
X47590Y-46811D01*
X48433Y-45968D02*
X47590Y-46811D01*
X51952Y-51729D02*
X50807Y-51729D01*
X51822Y-46017D02*
X52137Y-46332D01*
X52137Y-46332D02*
X52137Y-48594D01*
X52137Y-48594D02*
X52137Y-50001D01*
G54D19*
X45598Y-50181D02*
X46251Y-50181D01*
X46251Y-50181D02*
X48169Y-52098D01*
X45059Y-50708D02*
X46145Y-50708D01*
X47677Y-52240D02*
X47677Y-53023D01*
X46145Y-50708D02*
X47677Y-52240D01*
X52240Y-54122D02*
X51846Y-54122D01*
X51846Y-54122D02*
X51842Y-54118D01*
X51850Y-53704D02*
X51850Y-54110D01*
X51850Y-54110D02*
X51842Y-54118D01*
X50066Y-23590D02*
X51913Y-23590D01*
X52248Y-53708D02*
X52248Y-53377D01*
X52248Y-53377D02*
X52070Y-53200D01*
X52070Y-53200D02*
X48618Y-53200D01*
X48618Y-53200D02*
X48169Y-52751D01*
X48169Y-52751D02*
X48169Y-52098D01*
X51913Y-23889D02*
X51913Y-23590D01*
X51759Y-24043D02*
X51913Y-23889D01*
X48913Y-24043D02*
X51759Y-24043D01*
X48263Y-24692D02*
X48913Y-24043D01*
X48263Y-25929D02*
X48263Y-24692D01*
X46948Y-27244D02*
X48263Y-25929D01*
X45330Y-27244D02*
X46948Y-27244D01*
X44637Y-27937D02*
X45330Y-27244D01*
X44637Y-49535D02*
X44637Y-27937D01*
X45283Y-50181D02*
X44637Y-49535D01*
X45598Y-50181D02*
X45283Y-50181D01*
X45704Y-26767D02*
X45023Y-26767D01*
X45023Y-26767D02*
X44122Y-27669D01*
X47740Y-24901D02*
X47740Y-25649D01*
X47740Y-24901D02*
X47740Y-24507D01*
X47740Y-24507D02*
X48657Y-23590D01*
X48657Y-23590D02*
X51913Y-23590D01*
X47740Y-25649D02*
X46622Y-26767D01*
X46622Y-26767D02*
X45704Y-26767D01*
X51850Y-53704D02*
X48358Y-53704D01*
X48358Y-53704D02*
X47677Y-53023D01*
X45059Y-50708D02*
X45031Y-50708D01*
X45031Y-50708D02*
X44122Y-49799D01*
X44122Y-49799D02*
X44122Y-27669D01*
X46862Y-26527D02*
X47740Y-25649D01*
G54D17*
X48118Y-33019D02*
X48685Y-33019D01*
X48964Y-33299D02*
X48964Y-34429D01*
X48685Y-33019D02*
X48964Y-33299D01*
G54D11*
X54010Y-37671D02*
X53879Y-37539D01*
X53577Y-37238D02*
X53001Y-37238D01*
X53879Y-37539D02*
X53577Y-37238D01*
G54D20*
X45216Y-32913D02*
X45216Y-31724D01*
X45555Y-31385D02*
X45555Y-29354D01*
X45216Y-31724D02*
X45555Y-31385D01*
G54D18*
X45216Y-35381D02*
X45216Y-36094D01*
G54D20*
X45216Y-35964D02*
X45216Y-35381D01*
X45216Y-35381D02*
X45216Y-32913D01*
X45555Y-29354D02*
X49070Y-25838D01*
X49070Y-25838D02*
X60552Y-25838D01*
G54D11*
X45216Y-35751D02*
X45216Y-35964D01*
X45216Y-35964D02*
X45216Y-36094D01*
X45216Y-35751D02*
X45216Y-36047D01*
G54D17*
X45802Y-29721D02*
X49322Y-26200D01*
X49322Y-26200D02*
X54657Y-26200D01*
X45802Y-35419D02*
X45802Y-29721D01*
G54D21*
X50314Y-39106D02*
X51143Y-39106D01*
X51354Y-38570D02*
X51636Y-38287D01*
X51354Y-38896D02*
X51354Y-38570D01*
X51143Y-39106D02*
X51354Y-38896D01*
G54D11*
X47748Y-43507D02*
X47255Y-44000D01*
X47748Y-43507D02*
X47748Y-42988D01*
X53744Y-37669D02*
X53744Y-37669D01*
X53744Y-37669D02*
X53519Y-37444D01*
X53519Y-37444D02*
X53200Y-37444D01*
X53200Y-37444D02*
X53094Y-37551D01*
X53094Y-37551D02*
X52574Y-37551D01*
X52574Y-37551D02*
X51838Y-38287D01*
X51838Y-38287D02*
X51636Y-38287D01*
X47748Y-42539D02*
X47748Y-42988D01*
X47748Y-42988D02*
X47748Y-43043D01*
X49492Y-40795D02*
X47748Y-42539D01*
X49492Y-39929D02*
X49492Y-40795D01*
X50314Y-39106D02*
X49492Y-39929D01*
X53626Y-37553D02*
X53745Y-37672D01*
X56457Y-45897D02*
X56784Y-45897D01*
X56926Y-45756D02*
X57228Y-45756D01*
X56784Y-45897D02*
X56926Y-45756D01*
X55953Y-45897D02*
X54466Y-45897D01*
X54466Y-45897D02*
X54104Y-46259D01*
X52669Y-46259D02*
X54104Y-46259D01*
X52531Y-46397D02*
X52669Y-46259D01*
X59110Y-43874D02*
X60196Y-43874D01*
X57228Y-45756D02*
X59110Y-43874D01*
X55953Y-45897D02*
X56457Y-45897D01*
X54032Y-46720D02*
X54152Y-46720D01*
X55869Y-46401D02*
X57031Y-46401D01*
X55557Y-46089D02*
X55869Y-46401D01*
X54784Y-46089D02*
X55557Y-46089D01*
X54152Y-46720D02*
X54784Y-46089D01*
X57031Y-46401D02*
X59330Y-44102D01*
X60503Y-43885D02*
X60287Y-44102D01*
X59330Y-44102D02*
X60287Y-44102D01*
X52484Y-47003D02*
X52484Y-46803D01*
X52566Y-46720D02*
X54032Y-46720D01*
X52484Y-46803D02*
X52566Y-46720D01*
X54702Y-47393D02*
X54891Y-47393D01*
X57894Y-47160D02*
X58230Y-46824D01*
X55125Y-47160D02*
X57894Y-47160D01*
X54891Y-47393D02*
X55125Y-47160D01*
X58230Y-46824D02*
X58230Y-45750D01*
X58230Y-45750D02*
X59397Y-44582D01*
X60433Y-44582D02*
X61118Y-43897D01*
X59397Y-44582D02*
X60433Y-44582D01*
X53515Y-47665D02*
X54039Y-47665D01*
X54311Y-47393D02*
X54702Y-47393D01*
X54039Y-47665D02*
X54311Y-47393D01*
X52480Y-47397D02*
X52480Y-47570D01*
X52574Y-47665D02*
X53515Y-47665D01*
X52480Y-47570D02*
X52574Y-47665D01*
X56990Y-46647D02*
X57703Y-46647D01*
X57928Y-46422D02*
X57928Y-45768D01*
X57703Y-46647D02*
X57928Y-46422D01*
X54018Y-47204D02*
X54298Y-47204D01*
X57928Y-45768D02*
X59362Y-44334D01*
X59362Y-44334D02*
X60362Y-44334D01*
X60362Y-44334D02*
X60811Y-43885D01*
X52539Y-47204D02*
X54018Y-47204D01*
X54298Y-47204D02*
X54856Y-46647D01*
X54856Y-46647D02*
X56990Y-46647D01*
X60409Y-42964D02*
X60909Y-42964D01*
X60909Y-42964D02*
X61358Y-43413D01*
X61732Y-43224D02*
X61724Y-43224D01*
X61535Y-43413D02*
X61358Y-43413D01*
X61724Y-43224D02*
X61535Y-43413D01*
X58433Y-43409D02*
X58090Y-43409D01*
X58877Y-42964D02*
X58433Y-43409D01*
X60409Y-42964D02*
X58877Y-42964D01*
X58090Y-43409D02*
X57893Y-43606D01*
X56059Y-44047D02*
X56460Y-44047D01*
X57685Y-43814D02*
X58090Y-43409D01*
X56692Y-43814D02*
X57685Y-43814D01*
X56460Y-44047D02*
X56692Y-43814D01*
X49972Y-45118D02*
X51905Y-45118D01*
X55141Y-44047D02*
X55909Y-44047D01*
X55909Y-44047D02*
X56059Y-44047D01*
X54822Y-44366D02*
X55141Y-44047D01*
X54551Y-44366D02*
X54822Y-44366D01*
X54362Y-44177D02*
X54551Y-44366D01*
X53712Y-44177D02*
X54362Y-44177D01*
X53511Y-44377D02*
X53712Y-44177D01*
X52645Y-44377D02*
X53511Y-44377D01*
X51905Y-45118D02*
X52645Y-44377D01*
X58212Y-43224D02*
X58019Y-43224D01*
X55216Y-43826D02*
X55972Y-43826D01*
X57917Y-43326D02*
X58019Y-43224D01*
X56472Y-43326D02*
X57917Y-43326D01*
X55972Y-43826D02*
X56472Y-43326D01*
X53000Y-44192D02*
X53366Y-44192D01*
X53732Y-43826D02*
X54460Y-43826D01*
X53366Y-44192D02*
X53732Y-43826D01*
X54460Y-43826D02*
X55216Y-43826D01*
X49775Y-44921D02*
X51358Y-44921D01*
X52086Y-44192D02*
X53000Y-44192D01*
X51358Y-44921D02*
X52086Y-44192D01*
X61425Y-43224D02*
X61425Y-43098D01*
X58669Y-42767D02*
X58212Y-43224D01*
X61094Y-42767D02*
X58669Y-42767D01*
X61425Y-43098D02*
X61094Y-42767D01*
X61421Y-43574D02*
X61248Y-43574D01*
X59027Y-43141D02*
X58594Y-43574D01*
X60814Y-43141D02*
X59027Y-43141D01*
X61248Y-43574D02*
X60814Y-43141D01*
X56889Y-44728D02*
X57169Y-44728D01*
X58322Y-43574D02*
X58594Y-43574D01*
X57169Y-44728D02*
X58322Y-43574D01*
X50169Y-45358D02*
X52031Y-45358D01*
X54885Y-44728D02*
X56889Y-44728D01*
X54740Y-44874D02*
X54885Y-44728D01*
X52515Y-44874D02*
X54740Y-44874D01*
X52031Y-45358D02*
X52515Y-44874D01*
X61692Y-43574D02*
X62039Y-43228D01*
X61421Y-43574D02*
X61692Y-43574D01*
X61429Y-43720D02*
X61169Y-43720D01*
X59370Y-43287D02*
X58937Y-43720D01*
X60736Y-43287D02*
X59370Y-43287D01*
X61169Y-43720D02*
X60736Y-43287D01*
G54D17*
X61854Y-43720D02*
X61783Y-43720D01*
X61854Y-43720D02*
X62346Y-43228D01*
G54D11*
X50366Y-45598D02*
X52220Y-45598D01*
X61854Y-43720D02*
X62346Y-43228D01*
X61429Y-43720D02*
X61854Y-43720D01*
X57437Y-45220D02*
X58937Y-43720D01*
X56708Y-45220D02*
X57437Y-45220D01*
X56472Y-44984D02*
X56708Y-45220D01*
X55763Y-44984D02*
X56472Y-44984D01*
X55547Y-45200D02*
X55763Y-44984D01*
X54767Y-45200D02*
X55547Y-45200D01*
X54633Y-45334D02*
X54767Y-45200D01*
X52484Y-45334D02*
X54633Y-45334D01*
X52220Y-45598D02*
X52484Y-45334D01*
X55267Y-48610D02*
X55311Y-48566D01*
X60543Y-48363D02*
X60543Y-47504D01*
X60340Y-48566D02*
X60543Y-48363D01*
X55311Y-48566D02*
X60340Y-48566D01*
X54366Y-50984D02*
X51645Y-50984D01*
X54917Y-50433D02*
X54366Y-50984D01*
X54917Y-48960D02*
X54917Y-50433D01*
X55267Y-48610D02*
X54917Y-48960D01*
X61437Y-44614D02*
X61437Y-46610D01*
X61437Y-46610D02*
X60543Y-47504D01*
X49161Y-43838D02*
X48464Y-43141D01*
X48464Y-43141D02*
X48464Y-42834D01*
X49161Y-43838D02*
X49161Y-45228D01*
X48661Y-46641D02*
X48661Y-46318D01*
X48661Y-46641D02*
X48661Y-48185D01*
X48661Y-46318D02*
X49161Y-45818D01*
X49161Y-45818D02*
X49161Y-45228D01*
X51645Y-50984D02*
X51377Y-51251D01*
X51377Y-51251D02*
X49511Y-51251D01*
X49511Y-51251D02*
X48661Y-50401D01*
X48661Y-50401D02*
X48661Y-48185D01*
X60196Y-42401D02*
X57755Y-42401D01*
X57755Y-42401D02*
X56119Y-40766D01*
X55370Y-40531D02*
X55605Y-40766D01*
X55605Y-40766D02*
X56119Y-40766D01*
X55370Y-40371D02*
X55370Y-40531D01*
X60503Y-42007D02*
X57587Y-42007D01*
X57587Y-42007D02*
X56121Y-40541D01*
X56121Y-40541D02*
X55757Y-40541D01*
X55757Y-40541D02*
X55599Y-40383D01*
G54D10*
X57587Y-42007D02*
X56121Y-40541D01*
X56121Y-40541D02*
X55757Y-40541D01*
X55757Y-40541D02*
X55599Y-40383D01*
G54D11*
X56137Y-39870D02*
X56137Y-40082D01*
X57618Y-41562D02*
X61118Y-41562D01*
X56137Y-40082D02*
X57618Y-41562D01*
X55742Y-40237D02*
X56087Y-40237D01*
X57641Y-41791D02*
X60811Y-41791D01*
X56087Y-40237D02*
X57641Y-41791D01*
G54D10*
X58279Y-41110D02*
X58035Y-41110D01*
X58035Y-41110D02*
X57051Y-40125D01*
X58035Y-41110D02*
X58279Y-41110D01*
X58279Y-41110D02*
X61507Y-41110D01*
X61507Y-41110D02*
X61732Y-41334D01*
X61732Y-41334D02*
X61732Y-41622D01*
G54D11*
X61425Y-41338D02*
X57661Y-41338D01*
X56248Y-39685D02*
X56102Y-39685D01*
X56362Y-39799D02*
X56248Y-39685D01*
X56362Y-40039D02*
X56362Y-39799D01*
X57661Y-41338D02*
X56362Y-40039D01*
G54D10*
X56728Y-39377D02*
X56728Y-39543D01*
X56728Y-39543D02*
X58169Y-40984D01*
X58169Y-40984D02*
X61606Y-40984D01*
X62039Y-41417D02*
X62039Y-41724D01*
X61606Y-40984D02*
X62039Y-41417D01*
G54D11*
X62346Y-41909D02*
X62346Y-41440D01*
X62346Y-41440D02*
X61748Y-40842D01*
X57986Y-39223D02*
X56249Y-39223D01*
X59023Y-40259D02*
X57986Y-39223D01*
X59023Y-40641D02*
X59023Y-40259D01*
X59224Y-40842D02*
X59023Y-40641D01*
X61748Y-40842D02*
X59224Y-40842D01*
X53434Y-40348D02*
X52828Y-40348D01*
X52828Y-40348D02*
X51240Y-41937D01*
X51240Y-41937D02*
X51240Y-42216D01*
X51240Y-42216D02*
X51240Y-41937D01*
X48988Y-45562D02*
X48783Y-45562D01*
X46917Y-49917D02*
X47484Y-50484D01*
X46917Y-47082D02*
X46917Y-49917D01*
X47838Y-46161D02*
X46917Y-47082D01*
X47838Y-44929D02*
X47838Y-46161D01*
X47960Y-44807D02*
X47838Y-44929D01*
X48515Y-44807D02*
X47960Y-44807D01*
X48641Y-44933D02*
X48515Y-44807D01*
X48641Y-45421D02*
X48641Y-44933D01*
X48783Y-45562D02*
X48641Y-45421D01*
X49259Y-52039D02*
X49984Y-52039D01*
X47263Y-50043D02*
X49259Y-52039D01*
X46692Y-49413D02*
X46692Y-49972D01*
X49031Y-52311D02*
X49775Y-52311D01*
X46692Y-49972D02*
X49031Y-52311D01*
X49511Y-49129D02*
X49511Y-49921D01*
X51496Y-43177D02*
X51496Y-44283D01*
X49511Y-44803D02*
X49511Y-49129D01*
X49669Y-44645D02*
X49511Y-44803D01*
X51133Y-44645D02*
X49669Y-44645D01*
X51496Y-44283D02*
X51133Y-44645D01*
X52803Y-40681D02*
X51496Y-41988D01*
X51496Y-41988D02*
X51496Y-43177D01*
X53540Y-40681D02*
X52803Y-40681D01*
X52916Y-40681D02*
X53540Y-40681D01*
X53540Y-40681D02*
X53855Y-40366D01*
G54D10*
X53540Y-40681D02*
X52916Y-40681D01*
X53855Y-40366D02*
X53540Y-40681D01*
G54D11*
X51153Y-50944D02*
X49846Y-50944D01*
X49846Y-50944D02*
X49303Y-50401D01*
X49303Y-50401D02*
X49303Y-48090D01*
X50771Y-41326D02*
X49303Y-42795D01*
X49303Y-50401D02*
X49846Y-50944D01*
X49303Y-42795D02*
X49303Y-50401D01*
X52415Y-39683D02*
X50771Y-41326D01*
X52415Y-39608D02*
X52415Y-39683D01*
X50624Y-41471D02*
X52416Y-39679D01*
X52416Y-39679D02*
X52416Y-39611D01*
G54D22*
X52416Y-39679D02*
X52416Y-39611D01*
X50624Y-41471D02*
X52416Y-39679D01*
G54D11*
X51051Y-44165D02*
X51051Y-41855D01*
X52985Y-39921D02*
X51111Y-41796D01*
X51051Y-41855D02*
X51111Y-41796D01*
X53043Y-49645D02*
X53043Y-49074D01*
X52901Y-48933D02*
X52555Y-48933D01*
X53043Y-49074D02*
X52901Y-48933D01*
G54D20*
X46190Y-34722D02*
X46190Y-36212D01*
X46190Y-36212D02*
X46189Y-36213D01*
G54D11*
X57314Y-28059D02*
X57472Y-28216D01*
X57472Y-28216D02*
X57472Y-29948D01*
X57472Y-29948D02*
X63125Y-35602D01*
X63125Y-35602D02*
X63125Y-35901D01*
X63125Y-35901D02*
X63476Y-36251D01*
X63476Y-36251D02*
X63476Y-36582D01*
X63476Y-36582D02*
X63858Y-36964D01*
X63858Y-36964D02*
X63858Y-40019D01*
X63858Y-40019D02*
X63618Y-40259D01*
X63618Y-40259D02*
X63618Y-40622D01*
X63618Y-40622D02*
X63106Y-41133D01*
X63106Y-41133D02*
X63106Y-50425D01*
X63106Y-50425D02*
X61362Y-52169D01*
X61362Y-52169D02*
X50366Y-52169D01*
X57314Y-26976D02*
X57314Y-28059D01*
G54D17*
X44930Y-35006D02*
X44930Y-31625D01*
X44930Y-31625D02*
X44968Y-31586D01*
G54D11*
X47657Y-45956D02*
X47657Y-43909D01*
X47972Y-43594D02*
X48448Y-43594D01*
X47657Y-43909D02*
X47972Y-43594D01*
X47110Y-46503D02*
X45885Y-46503D01*
X47657Y-45956D02*
X47110Y-46503D01*
X58307Y-27625D02*
X58307Y-26874D01*
X58307Y-26874D02*
X57590Y-26157D01*
X57590Y-26157D02*
X55535Y-26157D01*
X55535Y-26157D02*
X55043Y-26649D01*
X55043Y-26649D02*
X49417Y-26649D01*
X49417Y-26649D02*
X46129Y-29937D01*
X46129Y-29937D02*
X46129Y-34066D01*
X46129Y-34066D02*
X46468Y-34405D01*
X46468Y-34405D02*
X46468Y-36161D01*
X46468Y-36161D02*
X45448Y-37181D01*
X45448Y-37181D02*
X45448Y-46066D01*
X45448Y-46066D02*
X45885Y-46503D01*
X50877Y-43437D02*
X50877Y-41680D01*
X52824Y-39733D02*
X50877Y-41680D01*
G54D10*
X52825Y-39736D02*
X50910Y-41651D01*
G54D11*
X57897Y-47519D02*
X57814Y-47602D01*
X53720Y-48267D02*
X53720Y-48515D01*
X54385Y-47602D02*
X53720Y-48267D01*
X57814Y-47602D02*
X54385Y-47602D01*
X61303Y-44114D02*
X57897Y-47519D01*
X61913Y-44114D02*
X61303Y-44114D01*
X62791Y-43236D02*
X61913Y-44114D01*
X62791Y-40606D02*
X62791Y-43236D01*
X63236Y-40161D02*
X62791Y-40606D01*
X63236Y-39787D02*
X63236Y-40161D01*
X63519Y-39503D02*
X63236Y-39787D01*
X63519Y-37562D02*
X63519Y-39503D01*
X63224Y-37267D02*
X63519Y-37562D01*
X63224Y-36858D02*
X63224Y-37267D01*
X62748Y-36381D02*
X63224Y-36858D01*
X62748Y-35929D02*
X62748Y-36381D01*
X56980Y-30161D02*
X62748Y-35929D01*
X56980Y-26736D02*
X56980Y-30161D01*
X57047Y-26669D02*
X56980Y-26736D01*
X57500Y-26669D02*
X57047Y-26669D01*
X57641Y-26811D02*
X57500Y-26669D01*
X53236Y-49000D02*
X53236Y-50173D01*
X53720Y-48515D02*
X53236Y-49000D01*
X57641Y-27625D02*
X57641Y-26811D01*
X52751Y-50657D02*
X50303Y-50657D01*
X53236Y-50173D02*
X52751Y-50657D01*
X49787Y-50141D02*
X49787Y-46602D01*
X50303Y-50657D02*
X49787Y-50141D01*
X50692Y-44429D02*
X50692Y-41631D01*
X52644Y-39583D02*
X52644Y-39679D01*
X52644Y-39679D02*
X50692Y-41631D01*
G54D10*
X52645Y-39586D02*
X52645Y-39680D01*
X52645Y-39680D02*
X50782Y-41544D01*
G54D11*
X55621Y-38422D02*
X55621Y-37969D01*
X55621Y-37969D02*
X55759Y-37831D01*
X55567Y-37310D02*
X55407Y-37150D01*
X55407Y-37150D02*
X55407Y-36942D01*
X55407Y-36942D02*
X55556Y-36793D01*
X55556Y-36793D02*
X55719Y-36793D01*
X55719Y-36793D02*
X55909Y-36603D01*
X55759Y-37501D02*
X55759Y-37831D01*
X55567Y-37310D02*
X55759Y-37501D01*
G54D10*
G36*
X57298Y-37709D02*
X57198Y-37809D01*
X56801Y-37809D01*
X56801Y-37340D01*
X56801Y-37104D01*
X56801Y-37104D01*
X56801Y-36789D01*
X56784Y-36747D01*
X56752Y-36715D01*
X56710Y-36697D01*
X56664Y-36697D01*
X56647Y-36705D01*
X56647Y-35981D01*
X56622Y-35921D01*
X56576Y-35875D01*
X56516Y-35850D01*
X56451Y-35850D01*
X56391Y-35875D01*
X56345Y-35921D01*
X56320Y-35981D01*
X56320Y-36046D01*
X56345Y-36106D01*
X56391Y-36152D01*
X56451Y-36177D01*
X56516Y-36177D01*
X56576Y-36152D01*
X56622Y-36106D01*
X56647Y-36046D01*
X56647Y-35981D01*
X56647Y-36705D01*
X56622Y-36715D01*
X56590Y-36747D01*
X56573Y-36789D01*
X56573Y-36834D01*
X56590Y-36876D01*
X56622Y-36908D01*
X56664Y-36926D01*
X56710Y-36926D01*
X56752Y-36908D01*
X56784Y-36876D01*
X56801Y-36834D01*
X56801Y-36789D01*
X56801Y-37104D01*
X56784Y-37062D01*
X56752Y-37030D01*
X56710Y-37013D01*
X56665Y-37013D01*
X56623Y-37030D01*
X56591Y-37062D01*
X56573Y-37104D01*
X56573Y-37149D01*
X56590Y-37191D01*
X56623Y-37223D01*
X56664Y-37241D01*
X56710Y-37241D01*
X56752Y-37224D01*
X56784Y-37191D01*
X56801Y-37150D01*
X56801Y-37104D01*
X56801Y-37340D01*
X56784Y-37298D01*
X56752Y-37266D01*
X56710Y-37249D01*
X56665Y-37249D01*
X56623Y-37266D01*
X56591Y-37298D01*
X56573Y-37340D01*
X56573Y-37385D01*
X56590Y-37427D01*
X56623Y-37459D01*
X56664Y-37477D01*
X56710Y-37477D01*
X56752Y-37460D01*
X56784Y-37427D01*
X56801Y-37386D01*
X56801Y-37340D01*
X56801Y-37809D01*
X56252Y-37809D01*
X56167Y-37724D01*
X56167Y-37713D01*
X56198Y-37713D01*
X56240Y-37696D01*
X56272Y-37664D01*
X56289Y-37622D01*
X56289Y-37576D01*
X56272Y-37534D01*
X56265Y-37527D01*
X56265Y-36239D01*
X56240Y-36179D01*
X56194Y-36133D01*
X56134Y-36108D01*
X56069Y-36108D01*
X56009Y-36133D01*
X55963Y-36179D01*
X55938Y-36239D01*
X55938Y-36304D01*
X55963Y-36364D01*
X56009Y-36410D01*
X56069Y-36435D01*
X56134Y-36435D01*
X56194Y-36410D01*
X56240Y-36364D01*
X56265Y-36304D01*
X56265Y-36239D01*
X56265Y-37527D01*
X56240Y-37502D01*
X56198Y-37485D01*
X56167Y-37485D01*
X56167Y-36706D01*
X56035Y-36574D01*
X56021Y-36574D01*
X56005Y-36535D01*
X55973Y-36503D01*
X55931Y-36486D01*
X55886Y-36486D01*
X55844Y-36503D01*
X55812Y-36535D01*
X55795Y-36574D01*
X55751Y-36574D01*
X55751Y-36538D01*
X55726Y-36478D01*
X55680Y-36432D01*
X55620Y-36407D01*
X55555Y-36407D01*
X55495Y-36432D01*
X55449Y-36478D01*
X55424Y-36538D01*
X55424Y-36574D01*
X54834Y-36574D01*
X54803Y-36605D01*
X54803Y-35946D01*
X54778Y-35886D01*
X54732Y-35840D01*
X54672Y-35815D01*
X54607Y-35815D01*
X54547Y-35839D01*
X54501Y-35885D01*
X54476Y-35945D01*
X54476Y-36010D01*
X54501Y-36070D01*
X54547Y-36116D01*
X54607Y-36141D01*
X54672Y-36141D01*
X54732Y-36117D01*
X54778Y-36071D01*
X54803Y-36011D01*
X54803Y-35946D01*
X54803Y-36605D01*
X54761Y-36647D01*
X54756Y-36647D01*
X54714Y-36664D01*
X54682Y-36696D01*
X54664Y-36738D01*
X54664Y-36744D01*
X54611Y-36797D01*
X54616Y-36784D01*
X54616Y-36738D01*
X54599Y-36696D01*
X54567Y-36664D01*
X54525Y-36647D01*
X54480Y-36647D01*
X54438Y-36664D01*
X54406Y-36696D01*
X54388Y-36738D01*
X54388Y-36783D01*
X54405Y-36825D01*
X54438Y-36857D01*
X54479Y-36875D01*
X54525Y-36875D01*
X54538Y-36869D01*
X54169Y-37239D01*
X54105Y-37239D01*
X54105Y-36738D01*
X54088Y-36696D01*
X54056Y-36664D01*
X54014Y-36647D01*
X53969Y-36647D01*
X53927Y-36664D01*
X53895Y-36696D01*
X53877Y-36738D01*
X53877Y-36783D01*
X53894Y-36825D01*
X53927Y-36857D01*
X53968Y-36875D01*
X54014Y-36875D01*
X54056Y-36858D01*
X54088Y-36825D01*
X54105Y-36784D01*
X54105Y-36738D01*
X54105Y-37239D01*
X53883Y-37239D01*
X53888Y-37228D01*
X53888Y-37183D01*
X53871Y-37141D01*
X53853Y-37123D01*
X53853Y-36514D01*
X53828Y-36454D01*
X53782Y-36408D01*
X53722Y-36383D01*
X53657Y-36383D01*
X53597Y-36408D01*
X53551Y-36454D01*
X53526Y-36514D01*
X53526Y-36579D01*
X53551Y-36639D01*
X53597Y-36685D01*
X53657Y-36710D01*
X53722Y-36710D01*
X53782Y-36685D01*
X53828Y-36639D01*
X53853Y-36579D01*
X53853Y-36514D01*
X53853Y-37123D01*
X53838Y-37108D01*
X53797Y-37091D01*
X53751Y-37091D01*
X53709Y-37108D01*
X53677Y-37140D01*
X53660Y-37182D01*
X53660Y-37200D01*
X53637Y-37178D01*
X53609Y-37159D01*
X53577Y-37153D01*
X53337Y-37153D01*
X53337Y-36216D01*
X53312Y-36156D01*
X53266Y-36110D01*
X53206Y-36085D01*
X53141Y-36085D01*
X53081Y-36110D01*
X53035Y-36156D01*
X53010Y-36216D01*
X53010Y-36281D01*
X53035Y-36341D01*
X53081Y-36387D01*
X53141Y-36412D01*
X53206Y-36412D01*
X53266Y-36387D01*
X53312Y-36341D01*
X53337Y-36281D01*
X53337Y-36216D01*
X53337Y-37153D01*
X53079Y-37153D01*
X53064Y-37138D01*
X53022Y-37120D01*
X52977Y-37120D01*
X52955Y-37129D01*
X52955Y-35958D01*
X52930Y-35898D01*
X52884Y-35852D01*
X52824Y-35827D01*
X52759Y-35827D01*
X52699Y-35852D01*
X52653Y-35898D01*
X52628Y-35958D01*
X52628Y-36023D01*
X52653Y-36083D01*
X52699Y-36129D01*
X52759Y-36154D01*
X52824Y-36154D01*
X52884Y-36129D01*
X52930Y-36083D01*
X52955Y-36023D01*
X52955Y-35958D01*
X52955Y-37129D01*
X52935Y-37138D01*
X52903Y-37170D01*
X52885Y-37212D01*
X52885Y-37239D01*
X52440Y-37239D01*
X52218Y-37461D01*
X52218Y-37141D01*
X52193Y-37081D01*
X52147Y-37035D01*
X52087Y-37010D01*
X52022Y-37010D01*
X51962Y-37035D01*
X51928Y-37069D01*
X51928Y-36846D01*
X51903Y-36786D01*
X51857Y-36740D01*
X51797Y-36715D01*
X51732Y-36715D01*
X51672Y-36740D01*
X51626Y-36786D01*
X51606Y-36835D01*
X51606Y-36560D01*
X51581Y-36500D01*
X51535Y-36454D01*
X51475Y-36429D01*
X51410Y-36429D01*
X51350Y-36454D01*
X51304Y-36500D01*
X51279Y-36560D01*
X51279Y-36625D01*
X51304Y-36685D01*
X51350Y-36731D01*
X51410Y-36756D01*
X51475Y-36756D01*
X51535Y-36731D01*
X51581Y-36685D01*
X51606Y-36625D01*
X51606Y-36560D01*
X51606Y-36835D01*
X51601Y-36846D01*
X51601Y-36911D01*
X51626Y-36971D01*
X51672Y-37017D01*
X51732Y-37042D01*
X51797Y-37042D01*
X51857Y-37017D01*
X51903Y-36971D01*
X51928Y-36911D01*
X51928Y-36846D01*
X51928Y-37069D01*
X51916Y-37081D01*
X51891Y-37141D01*
X51891Y-37206D01*
X51916Y-37266D01*
X51962Y-37312D01*
X52022Y-37337D01*
X52087Y-37337D01*
X52147Y-37312D01*
X52193Y-37266D01*
X52218Y-37206D01*
X52218Y-37141D01*
X52218Y-37461D01*
X52140Y-37539D01*
X52140Y-37525D01*
X52115Y-37465D01*
X52069Y-37419D01*
X52009Y-37394D01*
X51944Y-37394D01*
X51884Y-37419D01*
X51856Y-37447D01*
X51856Y-37239D01*
X51831Y-37179D01*
X51785Y-37133D01*
X51725Y-37108D01*
X51660Y-37108D01*
X51600Y-37133D01*
X51554Y-37179D01*
X51534Y-37228D01*
X51534Y-36953D01*
X51509Y-36893D01*
X51463Y-36847D01*
X51403Y-36822D01*
X51338Y-36822D01*
X51278Y-36847D01*
X51232Y-36893D01*
X51207Y-36953D01*
X51207Y-37018D01*
X51232Y-37078D01*
X51278Y-37124D01*
X51338Y-37149D01*
X51403Y-37149D01*
X51463Y-37124D01*
X51509Y-37078D01*
X51534Y-37018D01*
X51534Y-36953D01*
X51534Y-37228D01*
X51529Y-37239D01*
X51529Y-37304D01*
X51554Y-37364D01*
X51600Y-37410D01*
X51660Y-37435D01*
X51725Y-37435D01*
X51785Y-37410D01*
X51831Y-37364D01*
X51856Y-37304D01*
X51856Y-37239D01*
X51856Y-37447D01*
X51838Y-37465D01*
X51813Y-37525D01*
X51813Y-37590D01*
X51838Y-37650D01*
X51884Y-37696D01*
X51944Y-37721D01*
X51958Y-37721D01*
X51171Y-38508D01*
X50425Y-38508D01*
X50425Y-37690D01*
X50400Y-37630D01*
X50354Y-37584D01*
X50294Y-37559D01*
X50229Y-37559D01*
X50169Y-37584D01*
X50123Y-37630D01*
X50098Y-37690D01*
X50098Y-37755D01*
X50123Y-37815D01*
X50169Y-37861D01*
X50229Y-37886D01*
X50294Y-37886D01*
X50354Y-37861D01*
X50400Y-37815D01*
X50425Y-37755D01*
X50425Y-37690D01*
X50425Y-38508D01*
X48545Y-38508D01*
X48545Y-37676D01*
X48520Y-37616D01*
X48474Y-37570D01*
X48414Y-37545D01*
X48349Y-37545D01*
X48289Y-37570D01*
X48243Y-37616D01*
X48218Y-37676D01*
X48218Y-37741D01*
X48243Y-37801D01*
X48289Y-37847D01*
X48349Y-37872D01*
X48414Y-37872D01*
X48474Y-37847D01*
X48520Y-37801D01*
X48545Y-37741D01*
X48545Y-37676D01*
X48545Y-38508D01*
X48247Y-38508D01*
X48126Y-38629D01*
X48126Y-37671D01*
X48101Y-37611D01*
X48055Y-37565D01*
X47995Y-37540D01*
X47930Y-37540D01*
X47870Y-37565D01*
X47824Y-37611D01*
X47799Y-37671D01*
X47799Y-37736D01*
X47824Y-37796D01*
X47870Y-37842D01*
X47930Y-37867D01*
X47995Y-37867D01*
X48055Y-37842D01*
X48101Y-37796D01*
X48126Y-37736D01*
X48126Y-37671D01*
X48126Y-38629D01*
X47993Y-38762D01*
X47983Y-38739D01*
X47937Y-38693D01*
X47877Y-38668D01*
X47812Y-38668D01*
X47752Y-38693D01*
X47706Y-38739D01*
X47681Y-38799D01*
X47681Y-38864D01*
X47706Y-38924D01*
X47752Y-38970D01*
X47775Y-38980D01*
X47664Y-39091D01*
X47664Y-37671D01*
X47639Y-37611D01*
X47593Y-37565D01*
X47533Y-37540D01*
X47468Y-37540D01*
X47408Y-37564D01*
X47362Y-37610D01*
X47337Y-37670D01*
X47337Y-37735D01*
X47362Y-37795D01*
X47408Y-37841D01*
X47468Y-37866D01*
X47533Y-37866D01*
X47593Y-37842D01*
X47639Y-37796D01*
X47664Y-37736D01*
X47664Y-37671D01*
X47664Y-39091D01*
X47577Y-39177D01*
X47577Y-38690D01*
X47553Y-38630D01*
X47507Y-38584D01*
X47447Y-38559D01*
X47382Y-38559D01*
X47322Y-38583D01*
X47276Y-38629D01*
X47251Y-38689D01*
X47251Y-38754D01*
X47275Y-38814D01*
X47321Y-38860D01*
X47381Y-38885D01*
X47446Y-38885D01*
X47506Y-38861D01*
X47552Y-38815D01*
X47577Y-38755D01*
X47577Y-38690D01*
X47577Y-39177D01*
X47538Y-39217D01*
X47538Y-43598D01*
X47516Y-43619D01*
X47516Y-39602D01*
X47491Y-39542D01*
X47445Y-39496D01*
X47385Y-39471D01*
X47320Y-39471D01*
X47260Y-39496D01*
X47214Y-39542D01*
X47189Y-39602D01*
X47189Y-39667D01*
X47214Y-39727D01*
X47260Y-39773D01*
X47320Y-39798D01*
X47385Y-39798D01*
X47445Y-39773D01*
X47491Y-39727D01*
X47516Y-39667D01*
X47516Y-39602D01*
X47516Y-43619D01*
X47250Y-43885D01*
X47233Y-43885D01*
X47191Y-43903D01*
X47159Y-43935D01*
X47141Y-43977D01*
X47141Y-44022D01*
X47159Y-44064D01*
X47191Y-44096D01*
X47233Y-44114D01*
X47278Y-44114D01*
X47320Y-44096D01*
X47352Y-44064D01*
X47370Y-44022D01*
X47370Y-44005D01*
X47538Y-43837D01*
X47538Y-45739D01*
X46919Y-46358D01*
X46919Y-41109D01*
X46894Y-41049D01*
X46891Y-41046D01*
X46891Y-39176D01*
X46866Y-39116D01*
X46821Y-39070D01*
X46760Y-39045D01*
X46695Y-39045D01*
X46635Y-39070D01*
X46589Y-39115D01*
X46564Y-39176D01*
X46564Y-39241D01*
X46589Y-39301D01*
X46635Y-39347D01*
X46695Y-39372D01*
X46760Y-39372D01*
X46820Y-39347D01*
X46866Y-39301D01*
X46891Y-39241D01*
X46891Y-39176D01*
X46891Y-41046D01*
X46848Y-41003D01*
X46788Y-40978D01*
X46723Y-40978D01*
X46663Y-41003D01*
X46617Y-41049D01*
X46592Y-41109D01*
X46592Y-41174D01*
X46617Y-41234D01*
X46663Y-41280D01*
X46723Y-41305D01*
X46788Y-41305D01*
X46848Y-41280D01*
X46894Y-41234D01*
X46919Y-41174D01*
X46919Y-41109D01*
X46919Y-46358D01*
X46918Y-46359D01*
X46918Y-42315D01*
X46893Y-42255D01*
X46847Y-42209D01*
X46787Y-42184D01*
X46722Y-42184D01*
X46662Y-42209D01*
X46616Y-42255D01*
X46591Y-42315D01*
X46591Y-42380D01*
X46616Y-42440D01*
X46662Y-42486D01*
X46722Y-42511D01*
X46787Y-42511D01*
X46847Y-42486D01*
X46893Y-42440D01*
X46918Y-42380D01*
X46918Y-42315D01*
X46918Y-46359D01*
X46897Y-46380D01*
X46885Y-46380D01*
X46885Y-44379D01*
X46879Y-44365D01*
X46879Y-43626D01*
X46854Y-43566D01*
X46808Y-43520D01*
X46748Y-43495D01*
X46683Y-43495D01*
X46623Y-43520D01*
X46577Y-43566D01*
X46552Y-43626D01*
X46552Y-43691D01*
X46577Y-43751D01*
X46623Y-43797D01*
X46683Y-43822D01*
X46748Y-43822D01*
X46808Y-43797D01*
X46854Y-43751D01*
X46879Y-43691D01*
X46879Y-43626D01*
X46879Y-44365D01*
X46860Y-44319D01*
X46814Y-44273D01*
X46754Y-44248D01*
X46689Y-44248D01*
X46629Y-44273D01*
X46583Y-44319D01*
X46558Y-44379D01*
X46558Y-44444D01*
X46583Y-44504D01*
X46629Y-44550D01*
X46689Y-44575D01*
X46754Y-44575D01*
X46814Y-44550D01*
X46860Y-44504D01*
X46885Y-44444D01*
X46885Y-44379D01*
X46885Y-46380D01*
X45904Y-46380D01*
X45617Y-46093D01*
X45617Y-45443D01*
X46405Y-44655D01*
X46405Y-42481D01*
X46408Y-42479D01*
X46454Y-42433D01*
X46479Y-42373D01*
X46479Y-42308D01*
X46454Y-42248D01*
X46409Y-42202D01*
X46405Y-42201D01*
X46405Y-41273D01*
X46445Y-41234D01*
X46470Y-41174D01*
X46470Y-41109D01*
X46445Y-41049D01*
X46405Y-41009D01*
X46405Y-39364D01*
X46446Y-39347D01*
X46492Y-39301D01*
X46517Y-39241D01*
X46517Y-39176D01*
X46492Y-39116D01*
X46447Y-39070D01*
X46405Y-39053D01*
X46405Y-38491D01*
X47472Y-37424D01*
X50320Y-37424D01*
X50723Y-37021D01*
X50743Y-37069D01*
X50789Y-37115D01*
X50849Y-37140D01*
X50914Y-37140D01*
X50974Y-37115D01*
X51020Y-37069D01*
X51045Y-37009D01*
X51045Y-36944D01*
X51020Y-36884D01*
X50974Y-36838D01*
X50926Y-36818D01*
X51974Y-35770D01*
X52254Y-35770D01*
X52255Y-35771D01*
X52301Y-35817D01*
X52361Y-35842D01*
X52426Y-35842D01*
X52486Y-35817D01*
X52532Y-35771D01*
X52532Y-35770D01*
X54313Y-35770D01*
X54313Y-35770D01*
X54313Y-35770D01*
X56733Y-35770D01*
X56743Y-35794D01*
X56789Y-35840D01*
X56849Y-35865D01*
X56855Y-35865D01*
X57298Y-36308D01*
X57298Y-37018D01*
X57284Y-37032D01*
X57259Y-37092D01*
X57259Y-37157D01*
X57284Y-37217D01*
X57298Y-37231D01*
X57298Y-37368D01*
X57277Y-37318D01*
X57231Y-37272D01*
X57171Y-37247D01*
X57106Y-37247D01*
X57046Y-37272D01*
X57000Y-37318D01*
X56975Y-37378D01*
X56975Y-37443D01*
X57000Y-37503D01*
X57046Y-37549D01*
X57106Y-37574D01*
X57171Y-37574D01*
X57231Y-37549D01*
X57277Y-37503D01*
X57298Y-37453D01*
X57298Y-37709D01*
X57298Y-37709D01*
G37*
G54D23*
X57298Y-37709D02*
X57198Y-37809D01*
X56801Y-37809D01*
X56801Y-37340D01*
X56801Y-37104D01*
X56801Y-37104D01*
X56801Y-36789D01*
X56784Y-36747D01*
X56752Y-36715D01*
X56710Y-36697D01*
X56664Y-36697D01*
X56647Y-36705D01*
X56647Y-35981D01*
X56622Y-35921D01*
X56576Y-35875D01*
X56516Y-35850D01*
X56451Y-35850D01*
X56391Y-35875D01*
X56345Y-35921D01*
X56320Y-35981D01*
X56320Y-36046D01*
X56345Y-36106D01*
X56391Y-36152D01*
X56451Y-36177D01*
X56516Y-36177D01*
X56576Y-36152D01*
X56622Y-36106D01*
X56647Y-36046D01*
X56647Y-35981D01*
X56647Y-36705D01*
X56622Y-36715D01*
X56590Y-36747D01*
X56573Y-36789D01*
X56573Y-36834D01*
X56590Y-36876D01*
X56622Y-36908D01*
X56664Y-36926D01*
X56710Y-36926D01*
X56752Y-36908D01*
X56784Y-36876D01*
X56801Y-36834D01*
X56801Y-36789D01*
X56801Y-37104D01*
X56784Y-37062D01*
X56752Y-37030D01*
X56710Y-37013D01*
X56665Y-37013D01*
X56623Y-37030D01*
X56591Y-37062D01*
X56573Y-37104D01*
X56573Y-37149D01*
X56590Y-37191D01*
X56623Y-37223D01*
X56664Y-37241D01*
X56710Y-37241D01*
X56752Y-37224D01*
X56784Y-37191D01*
X56801Y-37150D01*
X56801Y-37104D01*
X56801Y-37340D01*
X56784Y-37298D01*
X56752Y-37266D01*
X56710Y-37249D01*
X56665Y-37249D01*
X56623Y-37266D01*
X56591Y-37298D01*
X56573Y-37340D01*
X56573Y-37385D01*
X56590Y-37427D01*
X56623Y-37459D01*
X56664Y-37477D01*
X56710Y-37477D01*
X56752Y-37460D01*
X56784Y-37427D01*
X56801Y-37386D01*
X56801Y-37340D01*
X56801Y-37809D01*
X56252Y-37809D01*
X56167Y-37724D01*
X56167Y-37713D01*
X56198Y-37713D01*
X56240Y-37696D01*
X56272Y-37664D01*
X56289Y-37622D01*
X56289Y-37576D01*
X56272Y-37534D01*
X56265Y-37527D01*
X56265Y-36239D01*
X56240Y-36179D01*
X56194Y-36133D01*
X56134Y-36108D01*
X56069Y-36108D01*
X56009Y-36133D01*
X55963Y-36179D01*
X55938Y-36239D01*
X55938Y-36304D01*
X55963Y-36364D01*
X56009Y-36410D01*
X56069Y-36435D01*
X56134Y-36435D01*
X56194Y-36410D01*
X56240Y-36364D01*
X56265Y-36304D01*
X56265Y-36239D01*
X56265Y-37527D01*
X56240Y-37502D01*
X56198Y-37485D01*
X56167Y-37485D01*
X56167Y-36706D01*
X56035Y-36574D01*
X56021Y-36574D01*
X56005Y-36535D01*
X55973Y-36503D01*
X55931Y-36486D01*
X55886Y-36486D01*
X55844Y-36503D01*
X55812Y-36535D01*
X55795Y-36574D01*
X55751Y-36574D01*
X55751Y-36538D01*
X55726Y-36478D01*
X55680Y-36432D01*
X55620Y-36407D01*
X55555Y-36407D01*
X55495Y-36432D01*
X55449Y-36478D01*
X55424Y-36538D01*
X55424Y-36574D01*
X54834Y-36574D01*
X54803Y-36605D01*
X54803Y-35946D01*
X54778Y-35886D01*
X54732Y-35840D01*
X54672Y-35815D01*
X54607Y-35815D01*
X54547Y-35839D01*
X54501Y-35885D01*
X54476Y-35945D01*
X54476Y-36010D01*
X54501Y-36070D01*
X54547Y-36116D01*
X54607Y-36141D01*
X54672Y-36141D01*
X54732Y-36117D01*
X54778Y-36071D01*
X54803Y-36011D01*
X54803Y-35946D01*
X54803Y-36605D01*
X54761Y-36647D01*
X54756Y-36647D01*
X54714Y-36664D01*
X54682Y-36696D01*
X54664Y-36738D01*
X54664Y-36744D01*
X54611Y-36797D01*
X54616Y-36784D01*
X54616Y-36738D01*
X54599Y-36696D01*
X54567Y-36664D01*
X54525Y-36647D01*
X54480Y-36647D01*
X54438Y-36664D01*
X54406Y-36696D01*
X54388Y-36738D01*
X54388Y-36783D01*
X54405Y-36825D01*
X54438Y-36857D01*
X54479Y-36875D01*
X54525Y-36875D01*
X54538Y-36869D01*
X54169Y-37239D01*
X54105Y-37239D01*
X54105Y-36738D01*
X54088Y-36696D01*
X54056Y-36664D01*
X54014Y-36647D01*
X53969Y-36647D01*
X53927Y-36664D01*
X53895Y-36696D01*
X53877Y-36738D01*
X53877Y-36783D01*
X53894Y-36825D01*
X53927Y-36857D01*
X53968Y-36875D01*
X54014Y-36875D01*
X54056Y-36858D01*
X54088Y-36825D01*
X54105Y-36784D01*
X54105Y-36738D01*
X54105Y-37239D01*
X53883Y-37239D01*
X53888Y-37228D01*
X53888Y-37183D01*
X53871Y-37141D01*
X53853Y-37123D01*
X53853Y-36514D01*
X53828Y-36454D01*
X53782Y-36408D01*
X53722Y-36383D01*
X53657Y-36383D01*
X53597Y-36408D01*
X53551Y-36454D01*
X53526Y-36514D01*
X53526Y-36579D01*
X53551Y-36639D01*
X53597Y-36685D01*
X53657Y-36710D01*
X53722Y-36710D01*
X53782Y-36685D01*
X53828Y-36639D01*
X53853Y-36579D01*
X53853Y-36514D01*
X53853Y-37123D01*
X53838Y-37108D01*
X53797Y-37091D01*
X53751Y-37091D01*
X53709Y-37108D01*
X53677Y-37140D01*
X53660Y-37182D01*
X53660Y-37200D01*
X53637Y-37178D01*
X53609Y-37159D01*
X53577Y-37153D01*
X53337Y-37153D01*
X53337Y-36216D01*
X53312Y-36156D01*
X53266Y-36110D01*
X53206Y-36085D01*
X53141Y-36085D01*
X53081Y-36110D01*
X53035Y-36156D01*
X53010Y-36216D01*
X53010Y-36281D01*
X53035Y-36341D01*
X53081Y-36387D01*
X53141Y-36412D01*
X53206Y-36412D01*
X53266Y-36387D01*
X53312Y-36341D01*
X53337Y-36281D01*
X53337Y-36216D01*
X53337Y-37153D01*
X53079Y-37153D01*
X53064Y-37138D01*
X53022Y-37120D01*
X52977Y-37120D01*
X52955Y-37129D01*
X52955Y-35958D01*
X52930Y-35898D01*
X52884Y-35852D01*
X52824Y-35827D01*
X52759Y-35827D01*
X52699Y-35852D01*
X52653Y-35898D01*
X52628Y-35958D01*
X52628Y-36023D01*
X52653Y-36083D01*
X52699Y-36129D01*
X52759Y-36154D01*
X52824Y-36154D01*
X52884Y-36129D01*
X52930Y-36083D01*
X52955Y-36023D01*
X52955Y-35958D01*
X52955Y-37129D01*
X52935Y-37138D01*
X52903Y-37170D01*
X52885Y-37212D01*
X52885Y-37239D01*
X52440Y-37239D01*
X52218Y-37461D01*
X52218Y-37141D01*
X52193Y-37081D01*
X52147Y-37035D01*
X52087Y-37010D01*
X52022Y-37010D01*
X51962Y-37035D01*
X51928Y-37069D01*
X51928Y-36846D01*
X51903Y-36786D01*
X51857Y-36740D01*
X51797Y-36715D01*
X51732Y-36715D01*
X51672Y-36740D01*
X51626Y-36786D01*
X51606Y-36835D01*
X51606Y-36560D01*
X51581Y-36500D01*
X51535Y-36454D01*
X51475Y-36429D01*
X51410Y-36429D01*
X51350Y-36454D01*
X51304Y-36500D01*
X51279Y-36560D01*
X51279Y-36625D01*
X51304Y-36685D01*
X51350Y-36731D01*
X51410Y-36756D01*
X51475Y-36756D01*
X51535Y-36731D01*
X51581Y-36685D01*
X51606Y-36625D01*
X51606Y-36560D01*
X51606Y-36835D01*
X51601Y-36846D01*
X51601Y-36911D01*
X51626Y-36971D01*
X51672Y-37017D01*
X51732Y-37042D01*
X51797Y-37042D01*
X51857Y-37017D01*
X51903Y-36971D01*
X51928Y-36911D01*
X51928Y-36846D01*
X51928Y-37069D01*
X51916Y-37081D01*
X51891Y-37141D01*
X51891Y-37206D01*
X51916Y-37266D01*
X51962Y-37312D01*
X52022Y-37337D01*
X52087Y-37337D01*
X52147Y-37312D01*
X52193Y-37266D01*
X52218Y-37206D01*
X52218Y-37141D01*
X52218Y-37461D01*
X52140Y-37539D01*
X52140Y-37525D01*
X52115Y-37465D01*
X52069Y-37419D01*
X52009Y-37394D01*
X51944Y-37394D01*
X51884Y-37419D01*
X51856Y-37447D01*
X51856Y-37239D01*
X51831Y-37179D01*
X51785Y-37133D01*
X51725Y-37108D01*
X51660Y-37108D01*
X51600Y-37133D01*
X51554Y-37179D01*
X51534Y-37228D01*
X51534Y-36953D01*
X51509Y-36893D01*
X51463Y-36847D01*
X51403Y-36822D01*
X51338Y-36822D01*
X51278Y-36847D01*
X51232Y-36893D01*
X51207Y-36953D01*
X51207Y-37018D01*
X51232Y-37078D01*
X51278Y-37124D01*
X51338Y-37149D01*
X51403Y-37149D01*
X51463Y-37124D01*
X51509Y-37078D01*
X51534Y-37018D01*
X51534Y-36953D01*
X51534Y-37228D01*
X51529Y-37239D01*
X51529Y-37304D01*
X51554Y-37364D01*
X51600Y-37410D01*
X51660Y-37435D01*
X51725Y-37435D01*
X51785Y-37410D01*
X51831Y-37364D01*
X51856Y-37304D01*
X51856Y-37239D01*
X51856Y-37447D01*
X51838Y-37465D01*
X51813Y-37525D01*
X51813Y-37590D01*
X51838Y-37650D01*
X51884Y-37696D01*
X51944Y-37721D01*
X51958Y-37721D01*
X51171Y-38508D01*
X50425Y-38508D01*
X50425Y-37690D01*
X50400Y-37630D01*
X50354Y-37584D01*
X50294Y-37559D01*
X50229Y-37559D01*
X50169Y-37584D01*
X50123Y-37630D01*
X50098Y-37690D01*
X50098Y-37755D01*
X50123Y-37815D01*
X50169Y-37861D01*
X50229Y-37886D01*
X50294Y-37886D01*
X50354Y-37861D01*
X50400Y-37815D01*
X50425Y-37755D01*
X50425Y-37690D01*
X50425Y-38508D01*
X48545Y-38508D01*
X48545Y-37676D01*
X48520Y-37616D01*
X48474Y-37570D01*
X48414Y-37545D01*
X48349Y-37545D01*
X48289Y-37570D01*
X48243Y-37616D01*
X48218Y-37676D01*
X48218Y-37741D01*
X48243Y-37801D01*
X48289Y-37847D01*
X48349Y-37872D01*
X48414Y-37872D01*
X48474Y-37847D01*
X48520Y-37801D01*
X48545Y-37741D01*
X48545Y-37676D01*
X48545Y-38508D01*
X48247Y-38508D01*
X48126Y-38629D01*
X48126Y-37671D01*
X48101Y-37611D01*
X48055Y-37565D01*
X47995Y-37540D01*
X47930Y-37540D01*
X47870Y-37565D01*
X47824Y-37611D01*
X47799Y-37671D01*
X47799Y-37736D01*
X47824Y-37796D01*
X47870Y-37842D01*
X47930Y-37867D01*
X47995Y-37867D01*
X48055Y-37842D01*
X48101Y-37796D01*
X48126Y-37736D01*
X48126Y-37671D01*
X48126Y-38629D01*
X47993Y-38762D01*
X47983Y-38739D01*
X47937Y-38693D01*
X47877Y-38668D01*
X47812Y-38668D01*
X47752Y-38693D01*
X47706Y-38739D01*
X47681Y-38799D01*
X47681Y-38864D01*
X47706Y-38924D01*
X47752Y-38970D01*
X47775Y-38980D01*
X47664Y-39091D01*
X47664Y-37671D01*
X47639Y-37611D01*
X47593Y-37565D01*
X47533Y-37540D01*
X47468Y-37540D01*
X47408Y-37564D01*
X47362Y-37610D01*
X47337Y-37670D01*
X47337Y-37735D01*
X47362Y-37795D01*
X47408Y-37841D01*
X47468Y-37866D01*
X47533Y-37866D01*
X47593Y-37842D01*
X47639Y-37796D01*
X47664Y-37736D01*
X47664Y-37671D01*
X47664Y-39091D01*
X47577Y-39177D01*
X47577Y-38690D01*
X47553Y-38630D01*
X47507Y-38584D01*
X47447Y-38559D01*
X47382Y-38559D01*
X47322Y-38583D01*
X47276Y-38629D01*
X47251Y-38689D01*
X47251Y-38754D01*
X47275Y-38814D01*
X47321Y-38860D01*
X47381Y-38885D01*
X47446Y-38885D01*
X47506Y-38861D01*
X47552Y-38815D01*
X47577Y-38755D01*
X47577Y-38690D01*
X47577Y-39177D01*
X47538Y-39217D01*
X47538Y-43598D01*
X47516Y-43619D01*
X47516Y-39602D01*
X47491Y-39542D01*
X47445Y-39496D01*
X47385Y-39471D01*
X47320Y-39471D01*
X47260Y-39496D01*
X47214Y-39542D01*
X47189Y-39602D01*
X47189Y-39667D01*
X47214Y-39727D01*
X47260Y-39773D01*
X47320Y-39798D01*
X47385Y-39798D01*
X47445Y-39773D01*
X47491Y-39727D01*
X47516Y-39667D01*
X47516Y-39602D01*
X47516Y-43619D01*
X47250Y-43885D01*
X47233Y-43885D01*
X47191Y-43903D01*
X47159Y-43935D01*
X47141Y-43977D01*
X47141Y-44022D01*
X47159Y-44064D01*
X47191Y-44096D01*
X47233Y-44114D01*
X47278Y-44114D01*
X47320Y-44096D01*
X47352Y-44064D01*
X47370Y-44022D01*
X47370Y-44005D01*
X47538Y-43837D01*
X47538Y-45739D01*
X46919Y-46358D01*
X46919Y-41109D01*
X46894Y-41049D01*
X46891Y-41046D01*
X46891Y-39176D01*
X46866Y-39116D01*
X46821Y-39070D01*
X46760Y-39045D01*
X46695Y-39045D01*
X46635Y-39070D01*
X46589Y-39115D01*
X46564Y-39176D01*
X46564Y-39241D01*
X46589Y-39301D01*
X46635Y-39347D01*
X46695Y-39372D01*
X46760Y-39372D01*
X46820Y-39347D01*
X46866Y-39301D01*
X46891Y-39241D01*
X46891Y-39176D01*
X46891Y-41046D01*
X46848Y-41003D01*
X46788Y-40978D01*
X46723Y-40978D01*
X46663Y-41003D01*
X46617Y-41049D01*
X46592Y-41109D01*
X46592Y-41174D01*
X46617Y-41234D01*
X46663Y-41280D01*
X46723Y-41305D01*
X46788Y-41305D01*
X46848Y-41280D01*
X46894Y-41234D01*
X46919Y-41174D01*
X46919Y-41109D01*
X46919Y-46358D01*
X46918Y-46359D01*
X46918Y-42315D01*
X46893Y-42255D01*
X46847Y-42209D01*
X46787Y-42184D01*
X46722Y-42184D01*
X46662Y-42209D01*
X46616Y-42255D01*
X46591Y-42315D01*
X46591Y-42380D01*
X46616Y-42440D01*
X46662Y-42486D01*
X46722Y-42511D01*
X46787Y-42511D01*
X46847Y-42486D01*
X46893Y-42440D01*
X46918Y-42380D01*
X46918Y-42315D01*
X46918Y-46359D01*
X46897Y-46380D01*
X46885Y-46380D01*
X46885Y-44379D01*
X46879Y-44365D01*
X46879Y-43626D01*
X46854Y-43566D01*
X46808Y-43520D01*
X46748Y-43495D01*
X46683Y-43495D01*
X46623Y-43520D01*
X46577Y-43566D01*
X46552Y-43626D01*
X46552Y-43691D01*
X46577Y-43751D01*
X46623Y-43797D01*
X46683Y-43822D01*
X46748Y-43822D01*
X46808Y-43797D01*
X46854Y-43751D01*
X46879Y-43691D01*
X46879Y-43626D01*
X46879Y-44365D01*
X46860Y-44319D01*
X46814Y-44273D01*
X46754Y-44248D01*
X46689Y-44248D01*
X46629Y-44273D01*
X46583Y-44319D01*
X46558Y-44379D01*
X46558Y-44444D01*
X46583Y-44504D01*
X46629Y-44550D01*
X46689Y-44575D01*
X46754Y-44575D01*
X46814Y-44550D01*
X46860Y-44504D01*
X46885Y-44444D01*
X46885Y-44379D01*
X46885Y-46380D01*
X45904Y-46380D01*
X45617Y-46093D01*
X45617Y-45443D01*
X46405Y-44655D01*
X46405Y-42481D01*
X46408Y-42479D01*
X46454Y-42433D01*
X46479Y-42373D01*
X46479Y-42308D01*
X46454Y-42248D01*
X46409Y-42202D01*
X46405Y-42201D01*
X46405Y-41273D01*
X46445Y-41234D01*
X46470Y-41174D01*
X46470Y-41109D01*
X46445Y-41049D01*
X46405Y-41009D01*
X46405Y-39364D01*
X46446Y-39347D01*
X46492Y-39301D01*
X46517Y-39241D01*
X46517Y-39176D01*
X46492Y-39116D01*
X46447Y-39070D01*
X46405Y-39053D01*
X46405Y-38491D01*
X47472Y-37424D01*
X50320Y-37424D01*
X50723Y-37021D01*
X50743Y-37069D01*
X50789Y-37115D01*
X50849Y-37140D01*
X50914Y-37140D01*
X50974Y-37115D01*
X51020Y-37069D01*
X51045Y-37009D01*
X51045Y-36944D01*
X51020Y-36884D01*
X50974Y-36838D01*
X50926Y-36818D01*
X51974Y-35770D01*
X52254Y-35770D01*
X52255Y-35771D01*
X52301Y-35817D01*
X52361Y-35842D01*
X52426Y-35842D01*
X52486Y-35817D01*
X52532Y-35771D01*
X52532Y-35770D01*
X54313Y-35770D01*
X54313Y-35770D01*
X54313Y-35770D01*
X56733Y-35770D01*
X56743Y-35794D01*
X56789Y-35840D01*
X56849Y-35865D01*
X56855Y-35865D01*
X57298Y-36308D01*
X57298Y-37018D01*
X57284Y-37032D01*
X57259Y-37092D01*
X57259Y-37157D01*
X57284Y-37217D01*
X57298Y-37231D01*
X57298Y-37368D01*
X57277Y-37318D01*
X57231Y-37272D01*
X57171Y-37247D01*
X57106Y-37247D01*
X57046Y-37272D01*
X57000Y-37318D01*
X56975Y-37378D01*
X56975Y-37443D01*
X57000Y-37503D01*
X57046Y-37549D01*
X57106Y-37574D01*
X57171Y-37574D01*
X57231Y-37549D01*
X57277Y-37503D01*
X57298Y-37453D01*
X57298Y-37709D01*
G54D10*
G36*
X59396Y-38734D02*
X59242Y-38887D01*
X59242Y-38513D01*
X59218Y-38453D01*
X59172Y-38407D01*
X59112Y-38382D01*
X59047Y-38382D01*
X59020Y-38393D01*
X59020Y-37534D01*
X58995Y-37474D01*
X58949Y-37428D01*
X58894Y-37405D01*
X58894Y-36526D01*
X58869Y-36466D01*
X58823Y-36420D01*
X58763Y-36395D01*
X58698Y-36395D01*
X58638Y-36420D01*
X58592Y-36466D01*
X58567Y-36526D01*
X58567Y-36591D01*
X58592Y-36651D01*
X58638Y-36697D01*
X58698Y-36722D01*
X58763Y-36722D01*
X58823Y-36697D01*
X58869Y-36651D01*
X58894Y-36591D01*
X58894Y-36526D01*
X58894Y-37405D01*
X58889Y-37403D01*
X58824Y-37403D01*
X58764Y-37428D01*
X58718Y-37474D01*
X58693Y-37534D01*
X58693Y-37599D01*
X58718Y-37659D01*
X58764Y-37705D01*
X58824Y-37730D01*
X58889Y-37730D01*
X58949Y-37705D01*
X58995Y-37659D01*
X59020Y-37599D01*
X59020Y-37534D01*
X59020Y-38393D01*
X58987Y-38407D01*
X58941Y-38453D01*
X58916Y-38513D01*
X58916Y-38578D01*
X58940Y-38638D01*
X58986Y-38684D01*
X59046Y-38709D01*
X59111Y-38709D01*
X59171Y-38684D01*
X59217Y-38638D01*
X59242Y-38578D01*
X59242Y-38513D01*
X59242Y-38887D01*
X58972Y-39158D01*
X58742Y-39158D01*
X58742Y-38513D01*
X58718Y-38453D01*
X58672Y-38407D01*
X58612Y-38382D01*
X58547Y-38382D01*
X58487Y-38407D01*
X58441Y-38453D01*
X58416Y-38513D01*
X58416Y-38578D01*
X58440Y-38638D01*
X58486Y-38684D01*
X58546Y-38709D01*
X58611Y-38709D01*
X58671Y-38684D01*
X58717Y-38638D01*
X58742Y-38578D01*
X58742Y-38513D01*
X58742Y-39158D01*
X58397Y-39158D01*
X58397Y-36797D01*
X58372Y-36737D01*
X58326Y-36691D01*
X58266Y-36666D01*
X58201Y-36666D01*
X58141Y-36691D01*
X58095Y-36737D01*
X58070Y-36797D01*
X58070Y-36862D01*
X58095Y-36922D01*
X58141Y-36968D01*
X58201Y-36993D01*
X58266Y-36993D01*
X58326Y-36968D01*
X58372Y-36922D01*
X58397Y-36862D01*
X58397Y-36797D01*
X58397Y-39158D01*
X58231Y-39158D01*
X58231Y-38512D01*
X58206Y-38452D01*
X58160Y-38406D01*
X58100Y-38381D01*
X58035Y-38381D01*
X57975Y-38406D01*
X57929Y-38452D01*
X57904Y-38512D01*
X57904Y-38577D01*
X57929Y-38637D01*
X57975Y-38683D01*
X58035Y-38708D01*
X58100Y-38708D01*
X58160Y-38683D01*
X58206Y-38637D01*
X58231Y-38577D01*
X58231Y-38512D01*
X58231Y-39158D01*
X58038Y-39158D01*
X58019Y-39145D01*
X57986Y-39138D01*
X57648Y-39138D01*
X57648Y-38512D01*
X57623Y-38452D01*
X57578Y-38406D01*
X57518Y-38381D01*
X57453Y-38381D01*
X57392Y-38406D01*
X57346Y-38452D01*
X57322Y-38512D01*
X57321Y-38577D01*
X57346Y-38637D01*
X57392Y-38683D01*
X57452Y-38708D01*
X57517Y-38708D01*
X57577Y-38683D01*
X57623Y-38637D01*
X57648Y-38577D01*
X57648Y-38512D01*
X57648Y-39138D01*
X57048Y-39138D01*
X57048Y-38512D01*
X57023Y-38452D01*
X56977Y-38406D01*
X56917Y-38381D01*
X56852Y-38381D01*
X56792Y-38406D01*
X56746Y-38452D01*
X56721Y-38512D01*
X56721Y-38577D01*
X56746Y-38637D01*
X56792Y-38683D01*
X56852Y-38708D01*
X56917Y-38708D01*
X56977Y-38683D01*
X57023Y-38637D01*
X57048Y-38577D01*
X57048Y-38512D01*
X57048Y-39138D01*
X56326Y-39138D01*
X56314Y-39126D01*
X56272Y-39109D01*
X56227Y-39109D01*
X56191Y-39123D01*
X56191Y-38521D01*
X56174Y-38479D01*
X56142Y-38447D01*
X56100Y-38430D01*
X56055Y-38430D01*
X56013Y-38447D01*
X55981Y-38479D01*
X55963Y-38521D01*
X55963Y-38566D01*
X55980Y-38608D01*
X56013Y-38640D01*
X56054Y-38658D01*
X56100Y-38658D01*
X56142Y-38641D01*
X56174Y-38608D01*
X56191Y-38567D01*
X56191Y-38521D01*
X56191Y-39123D01*
X56185Y-39126D01*
X56153Y-39158D01*
X56135Y-39200D01*
X56135Y-39245D01*
X56152Y-39287D01*
X56185Y-39319D01*
X56226Y-39337D01*
X56272Y-39337D01*
X56314Y-39320D01*
X56326Y-39307D01*
X56636Y-39307D01*
X56631Y-39313D01*
X56614Y-39355D01*
X56614Y-39400D01*
X56631Y-39442D01*
X56653Y-39464D01*
X56653Y-39543D01*
X56659Y-39571D01*
X56675Y-39596D01*
X57038Y-39959D01*
X57038Y-40011D01*
X57028Y-40011D01*
X56986Y-40029D01*
X56954Y-40061D01*
X56937Y-40103D01*
X56936Y-40148D01*
X56954Y-40190D01*
X56986Y-40222D01*
X57028Y-40240D01*
X57038Y-40240D01*
X57038Y-40336D01*
X56778Y-40336D01*
X56446Y-40004D01*
X56446Y-39799D01*
X56446Y-39799D01*
X56440Y-39766D01*
X56422Y-39739D01*
X56422Y-39739D01*
X56307Y-39625D01*
X56280Y-39606D01*
X56248Y-39600D01*
X56179Y-39600D01*
X56167Y-39588D01*
X56125Y-39570D01*
X56079Y-39570D01*
X56037Y-39588D01*
X56005Y-39620D01*
X55988Y-39662D01*
X55988Y-39707D01*
X56005Y-39749D01*
X56037Y-39781D01*
X56056Y-39789D01*
X56041Y-39805D01*
X56023Y-39847D01*
X56023Y-39892D01*
X56029Y-39907D01*
X55738Y-39702D01*
X55738Y-38639D01*
X55721Y-38597D01*
X55689Y-38565D01*
X55647Y-38548D01*
X55601Y-38548D01*
X55560Y-38565D01*
X55527Y-38597D01*
X55510Y-38639D01*
X55510Y-38684D01*
X55527Y-38726D01*
X55559Y-38759D01*
X55601Y-38776D01*
X55647Y-38776D01*
X55689Y-38759D01*
X55721Y-38727D01*
X55738Y-38685D01*
X55738Y-38639D01*
X55738Y-39702D01*
X55413Y-39473D01*
X55413Y-39145D01*
X55392Y-39092D01*
X55351Y-39052D01*
X55298Y-39030D01*
X55241Y-39030D01*
X55188Y-39052D01*
X55177Y-39063D01*
X55177Y-38870D01*
X55155Y-38817D01*
X55138Y-38799D01*
X55138Y-38318D01*
X55116Y-38266D01*
X55076Y-38225D01*
X55023Y-38203D01*
X54966Y-38203D01*
X54913Y-38225D01*
X54872Y-38265D01*
X54850Y-38318D01*
X54850Y-38375D01*
X54872Y-38428D01*
X54913Y-38469D01*
X54965Y-38491D01*
X55023Y-38491D01*
X55075Y-38469D01*
X55116Y-38428D01*
X55138Y-38376D01*
X55138Y-38318D01*
X55138Y-38799D01*
X55115Y-38776D01*
X55062Y-38754D01*
X55005Y-38754D01*
X54980Y-38765D01*
X54980Y-38594D01*
X54959Y-38541D01*
X54918Y-38501D01*
X54865Y-38479D01*
X54808Y-38479D01*
X54784Y-38489D01*
X54784Y-38318D01*
X54762Y-38266D01*
X54721Y-38225D01*
X54669Y-38203D01*
X54611Y-38203D01*
X54559Y-38225D01*
X54518Y-38265D01*
X54496Y-38318D01*
X54496Y-38375D01*
X54518Y-38428D01*
X54558Y-38469D01*
X54611Y-38491D01*
X54668Y-38491D01*
X54721Y-38469D01*
X54762Y-38428D01*
X54784Y-38376D01*
X54784Y-38318D01*
X54784Y-38489D01*
X54755Y-38501D01*
X54715Y-38541D01*
X54693Y-38594D01*
X54693Y-38651D01*
X54715Y-38704D01*
X54755Y-38744D01*
X54808Y-38766D01*
X54865Y-38766D01*
X54918Y-38744D01*
X54958Y-38704D01*
X54980Y-38651D01*
X54980Y-38594D01*
X54980Y-38765D01*
X54952Y-38776D01*
X54912Y-38817D01*
X54890Y-38869D01*
X54890Y-38927D01*
X54912Y-38979D01*
X54952Y-39020D01*
X55005Y-39042D01*
X55062Y-39042D01*
X55115Y-39020D01*
X55155Y-38980D01*
X55177Y-38927D01*
X55177Y-38870D01*
X55177Y-39063D01*
X55148Y-39092D01*
X55126Y-39145D01*
X55126Y-39202D01*
X55148Y-39255D01*
X55188Y-39295D01*
X55241Y-39317D01*
X55298Y-39317D01*
X55351Y-39296D01*
X55392Y-39255D01*
X55413Y-39202D01*
X55413Y-39145D01*
X55413Y-39473D01*
X55398Y-39462D01*
X55392Y-39447D01*
X55351Y-39406D01*
X55298Y-39384D01*
X55288Y-39384D01*
X54980Y-39168D01*
X54980Y-39145D01*
X54959Y-39092D01*
X54918Y-39052D01*
X54865Y-39030D01*
X54808Y-39030D01*
X54793Y-39036D01*
X54741Y-39000D01*
X54762Y-38980D01*
X54784Y-38927D01*
X54784Y-38870D01*
X54762Y-38817D01*
X54721Y-38776D01*
X54669Y-38754D01*
X54611Y-38754D01*
X54559Y-38776D01*
X54518Y-38817D01*
X54510Y-38836D01*
X54404Y-38762D01*
X54414Y-38766D01*
X54471Y-38766D01*
X54524Y-38744D01*
X54565Y-38704D01*
X54587Y-38651D01*
X54587Y-38594D01*
X54565Y-38541D01*
X54524Y-38501D01*
X54472Y-38479D01*
X54415Y-38479D01*
X54390Y-38489D01*
X54390Y-38318D01*
X54368Y-38266D01*
X54328Y-38225D01*
X54275Y-38203D01*
X54218Y-38203D01*
X54193Y-38213D01*
X54193Y-38043D01*
X54171Y-37990D01*
X54131Y-37950D01*
X54078Y-37928D01*
X54021Y-37928D01*
X53968Y-37949D01*
X53928Y-37990D01*
X53906Y-38043D01*
X53906Y-38100D01*
X53927Y-38153D01*
X53968Y-38193D01*
X54021Y-38215D01*
X54078Y-38215D01*
X54131Y-38193D01*
X54171Y-38153D01*
X54193Y-38100D01*
X54193Y-38043D01*
X54193Y-38213D01*
X54165Y-38225D01*
X54124Y-38265D01*
X54102Y-38318D01*
X54102Y-38375D01*
X54124Y-38428D01*
X54165Y-38469D01*
X54217Y-38491D01*
X54275Y-38491D01*
X54327Y-38469D01*
X54368Y-38428D01*
X54390Y-38376D01*
X54390Y-38318D01*
X54390Y-38489D01*
X54362Y-38501D01*
X54321Y-38541D01*
X54299Y-38594D01*
X54299Y-38651D01*
X54321Y-38703D01*
X54193Y-38613D01*
X54193Y-38594D01*
X54171Y-38541D01*
X54131Y-38501D01*
X54078Y-38479D01*
X54021Y-38479D01*
X54009Y-38484D01*
X53956Y-38446D01*
X53974Y-38428D01*
X53996Y-38376D01*
X53996Y-38318D01*
X53974Y-38266D01*
X53934Y-38225D01*
X53881Y-38203D01*
X53824Y-38203D01*
X53771Y-38225D01*
X53731Y-38265D01*
X53709Y-38318D01*
X53709Y-38375D01*
X53709Y-38375D01*
X53612Y-38375D01*
X53612Y-37694D01*
X53595Y-37652D01*
X53563Y-37620D01*
X53521Y-37603D01*
X53475Y-37603D01*
X53434Y-37620D01*
X53401Y-37652D01*
X53384Y-37694D01*
X53384Y-37740D01*
X53401Y-37782D01*
X53433Y-37814D01*
X53475Y-37831D01*
X53521Y-37831D01*
X53563Y-37814D01*
X53595Y-37782D01*
X53612Y-37740D01*
X53612Y-37694D01*
X53612Y-38375D01*
X53061Y-38375D01*
X53061Y-37931D01*
X53044Y-37889D01*
X53012Y-37856D01*
X52970Y-37839D01*
X52924Y-37839D01*
X52882Y-37856D01*
X52850Y-37888D01*
X52833Y-37930D01*
X52833Y-37976D01*
X52850Y-38018D01*
X52882Y-38050D01*
X52924Y-38067D01*
X52970Y-38067D01*
X53012Y-38050D01*
X53044Y-38018D01*
X53061Y-37976D01*
X53061Y-37931D01*
X53061Y-38375D01*
X52675Y-38375D01*
X52352Y-38052D01*
X52352Y-37893D01*
X52609Y-37635D01*
X53094Y-37635D01*
X53126Y-37629D01*
X53154Y-37611D01*
X53235Y-37529D01*
X53484Y-37529D01*
X53564Y-37609D01*
X53566Y-37612D01*
X53630Y-37676D01*
X53630Y-37691D01*
X53647Y-37733D01*
X53680Y-37765D01*
X53721Y-37783D01*
X53767Y-37783D01*
X53809Y-37766D01*
X53841Y-37733D01*
X53858Y-37692D01*
X53896Y-37692D01*
X53912Y-37732D01*
X53945Y-37764D01*
X53986Y-37782D01*
X54032Y-37782D01*
X54074Y-37765D01*
X54106Y-37732D01*
X54123Y-37692D01*
X54244Y-37692D01*
X54607Y-37976D01*
X55536Y-37976D01*
X55536Y-38352D01*
X55527Y-38361D01*
X55510Y-38403D01*
X55510Y-38448D01*
X55527Y-38490D01*
X55559Y-38522D01*
X55601Y-38540D01*
X55647Y-38540D01*
X55689Y-38522D01*
X55721Y-38490D01*
X55738Y-38448D01*
X55738Y-38403D01*
X55721Y-38361D01*
X55706Y-38346D01*
X55706Y-38004D01*
X55733Y-37976D01*
X55863Y-37976D01*
X55872Y-37976D01*
X57464Y-37976D01*
X57650Y-37790D01*
X57650Y-36976D01*
X57652Y-36977D01*
X57712Y-37002D01*
X57777Y-37002D01*
X57837Y-36977D01*
X57883Y-36931D01*
X57908Y-36871D01*
X57908Y-36806D01*
X57883Y-36746D01*
X57837Y-36700D01*
X57777Y-36675D01*
X57712Y-36675D01*
X57652Y-36700D01*
X57650Y-36702D01*
X57650Y-36300D01*
X57513Y-36162D01*
X57513Y-34458D01*
X57488Y-34398D01*
X57442Y-34352D01*
X57382Y-34327D01*
X57317Y-34327D01*
X57257Y-34352D01*
X57211Y-34398D01*
X57186Y-34458D01*
X57186Y-34523D01*
X57211Y-34583D01*
X57257Y-34629D01*
X57317Y-34654D01*
X57382Y-34654D01*
X57442Y-34629D01*
X57488Y-34583D01*
X57513Y-34523D01*
X57513Y-34458D01*
X57513Y-36162D01*
X57366Y-36015D01*
X57366Y-34865D01*
X57341Y-34805D01*
X57295Y-34759D01*
X57235Y-34734D01*
X57170Y-34734D01*
X57110Y-34759D01*
X57064Y-34805D01*
X57039Y-34865D01*
X57039Y-34930D01*
X57064Y-34990D01*
X57110Y-35036D01*
X57170Y-35061D01*
X57235Y-35061D01*
X57295Y-35036D01*
X57341Y-34990D01*
X57366Y-34930D01*
X57366Y-34865D01*
X57366Y-36015D01*
X57053Y-35702D01*
X57053Y-35195D01*
X57028Y-35135D01*
X56982Y-35089D01*
X56922Y-35064D01*
X56857Y-35064D01*
X56797Y-35089D01*
X56751Y-35135D01*
X56726Y-35195D01*
X56726Y-35260D01*
X56751Y-35320D01*
X56797Y-35366D01*
X56857Y-35391D01*
X56922Y-35391D01*
X56982Y-35366D01*
X57028Y-35320D01*
X57053Y-35260D01*
X57053Y-35195D01*
X57053Y-35702D01*
X57045Y-35694D01*
X57045Y-35669D01*
X57020Y-35609D01*
X56974Y-35563D01*
X56914Y-35538D01*
X56849Y-35538D01*
X56789Y-35563D01*
X56743Y-35609D01*
X56733Y-35634D01*
X56181Y-35634D01*
X56181Y-34217D01*
X56156Y-34157D01*
X56110Y-34111D01*
X56050Y-34086D01*
X55985Y-34086D01*
X55925Y-34111D01*
X55879Y-34157D01*
X55854Y-34217D01*
X55854Y-34282D01*
X55879Y-34342D01*
X55925Y-34388D01*
X55985Y-34413D01*
X56050Y-34413D01*
X56110Y-34388D01*
X56156Y-34342D01*
X56181Y-34282D01*
X56181Y-34217D01*
X56181Y-35634D01*
X54690Y-35634D01*
X54732Y-35617D01*
X54778Y-35571D01*
X54803Y-35511D01*
X54803Y-35446D01*
X54803Y-34946D01*
X54803Y-34446D01*
X54778Y-34386D01*
X54732Y-34340D01*
X54672Y-34315D01*
X54607Y-34315D01*
X54547Y-34339D01*
X54501Y-34385D01*
X54476Y-34445D01*
X54476Y-34510D01*
X54501Y-34570D01*
X54547Y-34616D01*
X54607Y-34641D01*
X54672Y-34641D01*
X54732Y-34617D01*
X54778Y-34571D01*
X54803Y-34511D01*
X54803Y-34446D01*
X54803Y-34946D01*
X54778Y-34886D01*
X54732Y-34840D01*
X54672Y-34815D01*
X54607Y-34815D01*
X54547Y-34839D01*
X54501Y-34885D01*
X54476Y-34945D01*
X54476Y-35010D01*
X54501Y-35070D01*
X54547Y-35116D01*
X54607Y-35141D01*
X54672Y-35141D01*
X54732Y-35117D01*
X54778Y-35071D01*
X54803Y-35011D01*
X54803Y-34946D01*
X54803Y-35446D01*
X54778Y-35386D01*
X54732Y-35340D01*
X54672Y-35315D01*
X54607Y-35315D01*
X54547Y-35339D01*
X54501Y-35385D01*
X54476Y-35445D01*
X54476Y-35510D01*
X54501Y-35570D01*
X54547Y-35616D01*
X54588Y-35634D01*
X53426Y-35634D01*
X53426Y-34182D01*
X53401Y-34122D01*
X53355Y-34076D01*
X53295Y-34051D01*
X53230Y-34051D01*
X53170Y-34076D01*
X53124Y-34122D01*
X53099Y-34182D01*
X53099Y-34247D01*
X53124Y-34307D01*
X53170Y-34353D01*
X53230Y-34378D01*
X53295Y-34378D01*
X53355Y-34353D01*
X53401Y-34307D01*
X53426Y-34247D01*
X53426Y-34182D01*
X53426Y-35634D01*
X53315Y-35634D01*
X52876Y-35195D01*
X52876Y-32384D01*
X52851Y-32324D01*
X52805Y-32278D01*
X52745Y-32253D01*
X52680Y-32253D01*
X52620Y-32278D01*
X52574Y-32324D01*
X52549Y-32384D01*
X52549Y-32449D01*
X52574Y-32509D01*
X52620Y-32555D01*
X52680Y-32580D01*
X52745Y-32580D01*
X52805Y-32555D01*
X52851Y-32509D01*
X52876Y-32449D01*
X52876Y-32384D01*
X52876Y-35195D01*
X52862Y-35181D01*
X52862Y-32860D01*
X52837Y-32800D01*
X52791Y-32754D01*
X52731Y-32729D01*
X52666Y-32729D01*
X52606Y-32754D01*
X52560Y-32800D01*
X52535Y-32860D01*
X52535Y-32925D01*
X52560Y-32985D01*
X52606Y-33031D01*
X52666Y-33056D01*
X52731Y-33056D01*
X52791Y-33031D01*
X52837Y-32985D01*
X52862Y-32925D01*
X52862Y-32860D01*
X52862Y-35181D01*
X52474Y-34792D01*
X52474Y-33137D01*
X52449Y-33077D01*
X52403Y-33031D01*
X52343Y-33006D01*
X52278Y-33006D01*
X52218Y-33031D01*
X52172Y-33077D01*
X52147Y-33137D01*
X52147Y-33202D01*
X52172Y-33262D01*
X52217Y-33308D01*
X52277Y-33333D01*
X52342Y-33333D01*
X52403Y-33308D01*
X52449Y-33262D01*
X52473Y-33202D01*
X52474Y-33137D01*
X52474Y-34792D01*
X52092Y-34410D01*
X52092Y-33479D01*
X52067Y-33419D01*
X52021Y-33373D01*
X51961Y-33348D01*
X51896Y-33348D01*
X51836Y-33373D01*
X51790Y-33419D01*
X51765Y-33479D01*
X51765Y-33544D01*
X51790Y-33604D01*
X51835Y-33650D01*
X51895Y-33675D01*
X51960Y-33675D01*
X52021Y-33650D01*
X52067Y-33604D01*
X52091Y-33544D01*
X52092Y-33479D01*
X52092Y-34410D01*
X52091Y-34409D01*
X52091Y-33976D01*
X52066Y-33916D01*
X52020Y-33870D01*
X51960Y-33845D01*
X51895Y-33845D01*
X51835Y-33870D01*
X51789Y-33916D01*
X51764Y-33976D01*
X51764Y-34041D01*
X51789Y-34101D01*
X51834Y-34147D01*
X51894Y-34172D01*
X51959Y-34172D01*
X52020Y-34147D01*
X52066Y-34101D01*
X52090Y-34041D01*
X52091Y-33976D01*
X52091Y-34409D01*
X52069Y-34388D01*
X52064Y-34375D01*
X52018Y-34329D01*
X52005Y-34324D01*
X51598Y-33917D01*
X51598Y-33858D01*
X51574Y-33798D01*
X51528Y-33752D01*
X51468Y-33727D01*
X51448Y-33727D01*
X51448Y-33590D01*
X51462Y-33590D01*
X51522Y-33565D01*
X51568Y-33519D01*
X51593Y-33459D01*
X51593Y-33394D01*
X51568Y-33334D01*
X51523Y-33288D01*
X51462Y-33263D01*
X51448Y-33263D01*
X51448Y-33065D01*
X51480Y-33052D01*
X51526Y-33006D01*
X51551Y-32946D01*
X51551Y-32881D01*
X51526Y-32821D01*
X51480Y-32775D01*
X51448Y-32762D01*
X51448Y-32589D01*
X51481Y-32575D01*
X51527Y-32529D01*
X51552Y-32469D01*
X51552Y-32404D01*
X51527Y-32344D01*
X51481Y-32298D01*
X51448Y-32285D01*
X51448Y-32093D01*
X51466Y-32086D01*
X51512Y-32040D01*
X51537Y-31980D01*
X51537Y-31915D01*
X51512Y-31855D01*
X51466Y-31809D01*
X51448Y-31802D01*
X51448Y-31579D01*
X51459Y-31568D01*
X51484Y-31508D01*
X51484Y-31443D01*
X51459Y-31383D01*
X51448Y-31373D01*
X51448Y-31069D01*
X51457Y-31049D01*
X51457Y-30984D01*
X51448Y-30964D01*
X51448Y-28877D01*
X51711Y-28614D01*
X52728Y-28614D01*
X52921Y-28807D01*
X52921Y-28954D01*
X52905Y-28960D01*
X52859Y-29006D01*
X52834Y-29066D01*
X52834Y-29131D01*
X52859Y-29191D01*
X52905Y-29237D01*
X52921Y-29244D01*
X52921Y-29442D01*
X52877Y-29424D01*
X52812Y-29424D01*
X52752Y-29449D01*
X52706Y-29495D01*
X52681Y-29555D01*
X52681Y-29620D01*
X52706Y-29680D01*
X52752Y-29726D01*
X52812Y-29751D01*
X52877Y-29751D01*
X52921Y-29733D01*
X52921Y-29951D01*
X52915Y-29937D01*
X52869Y-29891D01*
X52809Y-29866D01*
X52744Y-29866D01*
X52684Y-29891D01*
X52638Y-29937D01*
X52613Y-29997D01*
X52613Y-30062D01*
X52637Y-30122D01*
X52683Y-30168D01*
X52743Y-30193D01*
X52808Y-30193D01*
X52868Y-30168D01*
X52914Y-30122D01*
X52921Y-30107D01*
X52921Y-30460D01*
X52915Y-30446D01*
X52869Y-30400D01*
X52809Y-30375D01*
X52744Y-30375D01*
X52684Y-30400D01*
X52638Y-30445D01*
X52613Y-30505D01*
X52613Y-30570D01*
X52637Y-30631D01*
X52683Y-30677D01*
X52743Y-30701D01*
X52808Y-30702D01*
X52868Y-30677D01*
X52914Y-30631D01*
X52921Y-30616D01*
X52921Y-30972D01*
X52915Y-30958D01*
X52869Y-30912D01*
X52809Y-30887D01*
X52744Y-30887D01*
X52684Y-30911D01*
X52638Y-30957D01*
X52613Y-31017D01*
X52613Y-31082D01*
X52637Y-31142D01*
X52683Y-31188D01*
X52743Y-31213D01*
X52808Y-31213D01*
X52868Y-31189D01*
X52914Y-31143D01*
X52921Y-31128D01*
X52921Y-31353D01*
X52916Y-31341D01*
X52870Y-31295D01*
X52810Y-31270D01*
X52745Y-31270D01*
X52685Y-31294D01*
X52639Y-31340D01*
X52614Y-31400D01*
X52614Y-31465D01*
X52638Y-31525D01*
X52684Y-31571D01*
X52744Y-31596D01*
X52809Y-31596D01*
X52869Y-31572D01*
X52915Y-31526D01*
X52921Y-31513D01*
X52921Y-31846D01*
X52919Y-31842D01*
X52873Y-31796D01*
X52813Y-31771D01*
X52748Y-31771D01*
X52688Y-31796D01*
X52642Y-31842D01*
X52617Y-31902D01*
X52617Y-31967D01*
X52642Y-32027D01*
X52688Y-32073D01*
X52748Y-32098D01*
X52813Y-32098D01*
X52873Y-32073D01*
X52919Y-32027D01*
X52921Y-32023D01*
X52921Y-32908D01*
X52902Y-32927D01*
X52885Y-32969D01*
X52885Y-33014D01*
X52902Y-33056D01*
X52921Y-33075D01*
X52921Y-33161D01*
X53282Y-33522D01*
X53232Y-33522D01*
X53172Y-33547D01*
X53126Y-33593D01*
X53101Y-33653D01*
X53101Y-33718D01*
X53126Y-33778D01*
X53172Y-33824D01*
X53232Y-33849D01*
X53297Y-33849D01*
X53357Y-33824D01*
X53403Y-33778D01*
X53428Y-33718D01*
X53428Y-33668D01*
X53680Y-33920D01*
X54486Y-33920D01*
X54476Y-33945D01*
X54476Y-34010D01*
X54501Y-34070D01*
X54547Y-34116D01*
X54607Y-34141D01*
X54672Y-34141D01*
X54732Y-34117D01*
X54778Y-34071D01*
X54803Y-34011D01*
X54803Y-33946D01*
X54792Y-33920D01*
X57228Y-33920D01*
X57209Y-33939D01*
X57184Y-33999D01*
X57184Y-34064D01*
X57209Y-34124D01*
X57255Y-34170D01*
X57315Y-34195D01*
X57380Y-34195D01*
X57440Y-34170D01*
X57486Y-34124D01*
X57511Y-34064D01*
X57511Y-33999D01*
X57486Y-33939D01*
X57467Y-33920D01*
X58799Y-33920D01*
X59396Y-34517D01*
X59396Y-36424D01*
X59392Y-36420D01*
X59332Y-36395D01*
X59267Y-36395D01*
X59207Y-36420D01*
X59161Y-36466D01*
X59136Y-36526D01*
X59136Y-36591D01*
X59160Y-36651D01*
X59206Y-36697D01*
X59266Y-36722D01*
X59331Y-36722D01*
X59391Y-36697D01*
X59396Y-36693D01*
X59396Y-37412D01*
X59374Y-37403D01*
X59309Y-37403D01*
X59249Y-37428D01*
X59203Y-37474D01*
X59178Y-37534D01*
X59178Y-37599D01*
X59203Y-37659D01*
X59249Y-37705D01*
X59309Y-37730D01*
X59374Y-37730D01*
X59396Y-37721D01*
X59396Y-38734D01*
X59396Y-38734D01*
G37*
G54D23*
X59396Y-38734D02*
X59242Y-38887D01*
X59242Y-38513D01*
X59218Y-38453D01*
X59172Y-38407D01*
X59112Y-38382D01*
X59047Y-38382D01*
X59020Y-38393D01*
X59020Y-37534D01*
X58995Y-37474D01*
X58949Y-37428D01*
X58894Y-37405D01*
X58894Y-36526D01*
X58869Y-36466D01*
X58823Y-36420D01*
X58763Y-36395D01*
X58698Y-36395D01*
X58638Y-36420D01*
X58592Y-36466D01*
X58567Y-36526D01*
X58567Y-36591D01*
X58592Y-36651D01*
X58638Y-36697D01*
X58698Y-36722D01*
X58763Y-36722D01*
X58823Y-36697D01*
X58869Y-36651D01*
X58894Y-36591D01*
X58894Y-36526D01*
X58894Y-37405D01*
X58889Y-37403D01*
X58824Y-37403D01*
X58764Y-37428D01*
X58718Y-37474D01*
X58693Y-37534D01*
X58693Y-37599D01*
X58718Y-37659D01*
X58764Y-37705D01*
X58824Y-37730D01*
X58889Y-37730D01*
X58949Y-37705D01*
X58995Y-37659D01*
X59020Y-37599D01*
X59020Y-37534D01*
X59020Y-38393D01*
X58987Y-38407D01*
X58941Y-38453D01*
X58916Y-38513D01*
X58916Y-38578D01*
X58940Y-38638D01*
X58986Y-38684D01*
X59046Y-38709D01*
X59111Y-38709D01*
X59171Y-38684D01*
X59217Y-38638D01*
X59242Y-38578D01*
X59242Y-38513D01*
X59242Y-38887D01*
X58972Y-39158D01*
X58742Y-39158D01*
X58742Y-38513D01*
X58718Y-38453D01*
X58672Y-38407D01*
X58612Y-38382D01*
X58547Y-38382D01*
X58487Y-38407D01*
X58441Y-38453D01*
X58416Y-38513D01*
X58416Y-38578D01*
X58440Y-38638D01*
X58486Y-38684D01*
X58546Y-38709D01*
X58611Y-38709D01*
X58671Y-38684D01*
X58717Y-38638D01*
X58742Y-38578D01*
X58742Y-38513D01*
X58742Y-39158D01*
X58397Y-39158D01*
X58397Y-36797D01*
X58372Y-36737D01*
X58326Y-36691D01*
X58266Y-36666D01*
X58201Y-36666D01*
X58141Y-36691D01*
X58095Y-36737D01*
X58070Y-36797D01*
X58070Y-36862D01*
X58095Y-36922D01*
X58141Y-36968D01*
X58201Y-36993D01*
X58266Y-36993D01*
X58326Y-36968D01*
X58372Y-36922D01*
X58397Y-36862D01*
X58397Y-36797D01*
X58397Y-39158D01*
X58231Y-39158D01*
X58231Y-38512D01*
X58206Y-38452D01*
X58160Y-38406D01*
X58100Y-38381D01*
X58035Y-38381D01*
X57975Y-38406D01*
X57929Y-38452D01*
X57904Y-38512D01*
X57904Y-38577D01*
X57929Y-38637D01*
X57975Y-38683D01*
X58035Y-38708D01*
X58100Y-38708D01*
X58160Y-38683D01*
X58206Y-38637D01*
X58231Y-38577D01*
X58231Y-38512D01*
X58231Y-39158D01*
X58038Y-39158D01*
X58019Y-39145D01*
X57986Y-39138D01*
X57648Y-39138D01*
X57648Y-38512D01*
X57623Y-38452D01*
X57578Y-38406D01*
X57518Y-38381D01*
X57453Y-38381D01*
X57392Y-38406D01*
X57346Y-38452D01*
X57322Y-38512D01*
X57321Y-38577D01*
X57346Y-38637D01*
X57392Y-38683D01*
X57452Y-38708D01*
X57517Y-38708D01*
X57577Y-38683D01*
X57623Y-38637D01*
X57648Y-38577D01*
X57648Y-38512D01*
X57648Y-39138D01*
X57048Y-39138D01*
X57048Y-38512D01*
X57023Y-38452D01*
X56977Y-38406D01*
X56917Y-38381D01*
X56852Y-38381D01*
X56792Y-38406D01*
X56746Y-38452D01*
X56721Y-38512D01*
X56721Y-38577D01*
X56746Y-38637D01*
X56792Y-38683D01*
X56852Y-38708D01*
X56917Y-38708D01*
X56977Y-38683D01*
X57023Y-38637D01*
X57048Y-38577D01*
X57048Y-38512D01*
X57048Y-39138D01*
X56326Y-39138D01*
X56314Y-39126D01*
X56272Y-39109D01*
X56227Y-39109D01*
X56191Y-39123D01*
X56191Y-38521D01*
X56174Y-38479D01*
X56142Y-38447D01*
X56100Y-38430D01*
X56055Y-38430D01*
X56013Y-38447D01*
X55981Y-38479D01*
X55963Y-38521D01*
X55963Y-38566D01*
X55980Y-38608D01*
X56013Y-38640D01*
X56054Y-38658D01*
X56100Y-38658D01*
X56142Y-38641D01*
X56174Y-38608D01*
X56191Y-38567D01*
X56191Y-38521D01*
X56191Y-39123D01*
X56185Y-39126D01*
X56153Y-39158D01*
X56135Y-39200D01*
X56135Y-39245D01*
X56152Y-39287D01*
X56185Y-39319D01*
X56226Y-39337D01*
X56272Y-39337D01*
X56314Y-39320D01*
X56326Y-39307D01*
X56636Y-39307D01*
X56631Y-39313D01*
X56614Y-39355D01*
X56614Y-39400D01*
X56631Y-39442D01*
X56653Y-39464D01*
X56653Y-39543D01*
X56659Y-39571D01*
X56675Y-39596D01*
X57038Y-39959D01*
X57038Y-40011D01*
X57028Y-40011D01*
X56986Y-40029D01*
X56954Y-40061D01*
X56937Y-40103D01*
X56936Y-40148D01*
X56954Y-40190D01*
X56986Y-40222D01*
X57028Y-40240D01*
X57038Y-40240D01*
X57038Y-40336D01*
X56778Y-40336D01*
X56446Y-40004D01*
X56446Y-39799D01*
X56446Y-39799D01*
X56440Y-39766D01*
X56422Y-39739D01*
X56422Y-39739D01*
X56307Y-39625D01*
X56280Y-39606D01*
X56248Y-39600D01*
X56179Y-39600D01*
X56167Y-39588D01*
X56125Y-39570D01*
X56079Y-39570D01*
X56037Y-39588D01*
X56005Y-39620D01*
X55988Y-39662D01*
X55988Y-39707D01*
X56005Y-39749D01*
X56037Y-39781D01*
X56056Y-39789D01*
X56041Y-39805D01*
X56023Y-39847D01*
X56023Y-39892D01*
X56029Y-39907D01*
X55738Y-39702D01*
X55738Y-38639D01*
X55721Y-38597D01*
X55689Y-38565D01*
X55647Y-38548D01*
X55601Y-38548D01*
X55560Y-38565D01*
X55527Y-38597D01*
X55510Y-38639D01*
X55510Y-38684D01*
X55527Y-38726D01*
X55559Y-38759D01*
X55601Y-38776D01*
X55647Y-38776D01*
X55689Y-38759D01*
X55721Y-38727D01*
X55738Y-38685D01*
X55738Y-38639D01*
X55738Y-39702D01*
X55413Y-39473D01*
X55413Y-39145D01*
X55392Y-39092D01*
X55351Y-39052D01*
X55298Y-39030D01*
X55241Y-39030D01*
X55188Y-39052D01*
X55177Y-39063D01*
X55177Y-38870D01*
X55155Y-38817D01*
X55138Y-38799D01*
X55138Y-38318D01*
X55116Y-38266D01*
X55076Y-38225D01*
X55023Y-38203D01*
X54966Y-38203D01*
X54913Y-38225D01*
X54872Y-38265D01*
X54850Y-38318D01*
X54850Y-38375D01*
X54872Y-38428D01*
X54913Y-38469D01*
X54965Y-38491D01*
X55023Y-38491D01*
X55075Y-38469D01*
X55116Y-38428D01*
X55138Y-38376D01*
X55138Y-38318D01*
X55138Y-38799D01*
X55115Y-38776D01*
X55062Y-38754D01*
X55005Y-38754D01*
X54980Y-38765D01*
X54980Y-38594D01*
X54959Y-38541D01*
X54918Y-38501D01*
X54865Y-38479D01*
X54808Y-38479D01*
X54784Y-38489D01*
X54784Y-38318D01*
X54762Y-38266D01*
X54721Y-38225D01*
X54669Y-38203D01*
X54611Y-38203D01*
X54559Y-38225D01*
X54518Y-38265D01*
X54496Y-38318D01*
X54496Y-38375D01*
X54518Y-38428D01*
X54558Y-38469D01*
X54611Y-38491D01*
X54668Y-38491D01*
X54721Y-38469D01*
X54762Y-38428D01*
X54784Y-38376D01*
X54784Y-38318D01*
X54784Y-38489D01*
X54755Y-38501D01*
X54715Y-38541D01*
X54693Y-38594D01*
X54693Y-38651D01*
X54715Y-38704D01*
X54755Y-38744D01*
X54808Y-38766D01*
X54865Y-38766D01*
X54918Y-38744D01*
X54958Y-38704D01*
X54980Y-38651D01*
X54980Y-38594D01*
X54980Y-38765D01*
X54952Y-38776D01*
X54912Y-38817D01*
X54890Y-38869D01*
X54890Y-38927D01*
X54912Y-38979D01*
X54952Y-39020D01*
X55005Y-39042D01*
X55062Y-39042D01*
X55115Y-39020D01*
X55155Y-38980D01*
X55177Y-38927D01*
X55177Y-38870D01*
X55177Y-39063D01*
X55148Y-39092D01*
X55126Y-39145D01*
X55126Y-39202D01*
X55148Y-39255D01*
X55188Y-39295D01*
X55241Y-39317D01*
X55298Y-39317D01*
X55351Y-39296D01*
X55392Y-39255D01*
X55413Y-39202D01*
X55413Y-39145D01*
X55413Y-39473D01*
X55398Y-39462D01*
X55392Y-39447D01*
X55351Y-39406D01*
X55298Y-39384D01*
X55288Y-39384D01*
X54980Y-39168D01*
X54980Y-39145D01*
X54959Y-39092D01*
X54918Y-39052D01*
X54865Y-39030D01*
X54808Y-39030D01*
X54793Y-39036D01*
X54741Y-39000D01*
X54762Y-38980D01*
X54784Y-38927D01*
X54784Y-38870D01*
X54762Y-38817D01*
X54721Y-38776D01*
X54669Y-38754D01*
X54611Y-38754D01*
X54559Y-38776D01*
X54518Y-38817D01*
X54510Y-38836D01*
X54404Y-38762D01*
X54414Y-38766D01*
X54471Y-38766D01*
X54524Y-38744D01*
X54565Y-38704D01*
X54587Y-38651D01*
X54587Y-38594D01*
X54565Y-38541D01*
X54524Y-38501D01*
X54472Y-38479D01*
X54415Y-38479D01*
X54390Y-38489D01*
X54390Y-38318D01*
X54368Y-38266D01*
X54328Y-38225D01*
X54275Y-38203D01*
X54218Y-38203D01*
X54193Y-38213D01*
X54193Y-38043D01*
X54171Y-37990D01*
X54131Y-37950D01*
X54078Y-37928D01*
X54021Y-37928D01*
X53968Y-37949D01*
X53928Y-37990D01*
X53906Y-38043D01*
X53906Y-38100D01*
X53927Y-38153D01*
X53968Y-38193D01*
X54021Y-38215D01*
X54078Y-38215D01*
X54131Y-38193D01*
X54171Y-38153D01*
X54193Y-38100D01*
X54193Y-38043D01*
X54193Y-38213D01*
X54165Y-38225D01*
X54124Y-38265D01*
X54102Y-38318D01*
X54102Y-38375D01*
X54124Y-38428D01*
X54165Y-38469D01*
X54217Y-38491D01*
X54275Y-38491D01*
X54327Y-38469D01*
X54368Y-38428D01*
X54390Y-38376D01*
X54390Y-38318D01*
X54390Y-38489D01*
X54362Y-38501D01*
X54321Y-38541D01*
X54299Y-38594D01*
X54299Y-38651D01*
X54321Y-38703D01*
X54193Y-38613D01*
X54193Y-38594D01*
X54171Y-38541D01*
X54131Y-38501D01*
X54078Y-38479D01*
X54021Y-38479D01*
X54009Y-38484D01*
X53956Y-38446D01*
X53974Y-38428D01*
X53996Y-38376D01*
X53996Y-38318D01*
X53974Y-38266D01*
X53934Y-38225D01*
X53881Y-38203D01*
X53824Y-38203D01*
X53771Y-38225D01*
X53731Y-38265D01*
X53709Y-38318D01*
X53709Y-38375D01*
X53709Y-38375D01*
X53612Y-38375D01*
X53612Y-37694D01*
X53595Y-37652D01*
X53563Y-37620D01*
X53521Y-37603D01*
X53475Y-37603D01*
X53434Y-37620D01*
X53401Y-37652D01*
X53384Y-37694D01*
X53384Y-37740D01*
X53401Y-37782D01*
X53433Y-37814D01*
X53475Y-37831D01*
X53521Y-37831D01*
X53563Y-37814D01*
X53595Y-37782D01*
X53612Y-37740D01*
X53612Y-37694D01*
X53612Y-38375D01*
X53061Y-38375D01*
X53061Y-37931D01*
X53044Y-37889D01*
X53012Y-37856D01*
X52970Y-37839D01*
X52924Y-37839D01*
X52882Y-37856D01*
X52850Y-37888D01*
X52833Y-37930D01*
X52833Y-37976D01*
X52850Y-38018D01*
X52882Y-38050D01*
X52924Y-38067D01*
X52970Y-38067D01*
X53012Y-38050D01*
X53044Y-38018D01*
X53061Y-37976D01*
X53061Y-37931D01*
X53061Y-38375D01*
X52675Y-38375D01*
X52352Y-38052D01*
X52352Y-37893D01*
X52609Y-37635D01*
X53094Y-37635D01*
X53126Y-37629D01*
X53154Y-37611D01*
X53235Y-37529D01*
X53484Y-37529D01*
X53564Y-37609D01*
X53566Y-37612D01*
X53630Y-37676D01*
X53630Y-37691D01*
X53647Y-37733D01*
X53680Y-37765D01*
X53721Y-37783D01*
X53767Y-37783D01*
X53809Y-37766D01*
X53841Y-37733D01*
X53858Y-37692D01*
X53896Y-37692D01*
X53912Y-37732D01*
X53945Y-37764D01*
X53986Y-37782D01*
X54032Y-37782D01*
X54074Y-37765D01*
X54106Y-37732D01*
X54123Y-37692D01*
X54244Y-37692D01*
X54607Y-37976D01*
X55536Y-37976D01*
X55536Y-38352D01*
X55527Y-38361D01*
X55510Y-38403D01*
X55510Y-38448D01*
X55527Y-38490D01*
X55559Y-38522D01*
X55601Y-38540D01*
X55647Y-38540D01*
X55689Y-38522D01*
X55721Y-38490D01*
X55738Y-38448D01*
X55738Y-38403D01*
X55721Y-38361D01*
X55706Y-38346D01*
X55706Y-38004D01*
X55733Y-37976D01*
X55863Y-37976D01*
X55872Y-37976D01*
X57464Y-37976D01*
X57650Y-37790D01*
X57650Y-36976D01*
X57652Y-36977D01*
X57712Y-37002D01*
X57777Y-37002D01*
X57837Y-36977D01*
X57883Y-36931D01*
X57908Y-36871D01*
X57908Y-36806D01*
X57883Y-36746D01*
X57837Y-36700D01*
X57777Y-36675D01*
X57712Y-36675D01*
X57652Y-36700D01*
X57650Y-36702D01*
X57650Y-36300D01*
X57513Y-36162D01*
X57513Y-34458D01*
X57488Y-34398D01*
X57442Y-34352D01*
X57382Y-34327D01*
X57317Y-34327D01*
X57257Y-34352D01*
X57211Y-34398D01*
X57186Y-34458D01*
X57186Y-34523D01*
X57211Y-34583D01*
X57257Y-34629D01*
X57317Y-34654D01*
X57382Y-34654D01*
X57442Y-34629D01*
X57488Y-34583D01*
X57513Y-34523D01*
X57513Y-34458D01*
X57513Y-36162D01*
X57366Y-36015D01*
X57366Y-34865D01*
X57341Y-34805D01*
X57295Y-34759D01*
X57235Y-34734D01*
X57170Y-34734D01*
X57110Y-34759D01*
X57064Y-34805D01*
X57039Y-34865D01*
X57039Y-34930D01*
X57064Y-34990D01*
X57110Y-35036D01*
X57170Y-35061D01*
X57235Y-35061D01*
X57295Y-35036D01*
X57341Y-34990D01*
X57366Y-34930D01*
X57366Y-34865D01*
X57366Y-36015D01*
X57053Y-35702D01*
X57053Y-35195D01*
X57028Y-35135D01*
X56982Y-35089D01*
X56922Y-35064D01*
X56857Y-35064D01*
X56797Y-35089D01*
X56751Y-35135D01*
X56726Y-35195D01*
X56726Y-35260D01*
X56751Y-35320D01*
X56797Y-35366D01*
X56857Y-35391D01*
X56922Y-35391D01*
X56982Y-35366D01*
X57028Y-35320D01*
X57053Y-35260D01*
X57053Y-35195D01*
X57053Y-35702D01*
X57045Y-35694D01*
X57045Y-35669D01*
X57020Y-35609D01*
X56974Y-35563D01*
X56914Y-35538D01*
X56849Y-35538D01*
X56789Y-35563D01*
X56743Y-35609D01*
X56733Y-35634D01*
X56181Y-35634D01*
X56181Y-34217D01*
X56156Y-34157D01*
X56110Y-34111D01*
X56050Y-34086D01*
X55985Y-34086D01*
X55925Y-34111D01*
X55879Y-34157D01*
X55854Y-34217D01*
X55854Y-34282D01*
X55879Y-34342D01*
X55925Y-34388D01*
X55985Y-34413D01*
X56050Y-34413D01*
X56110Y-34388D01*
X56156Y-34342D01*
X56181Y-34282D01*
X56181Y-34217D01*
X56181Y-35634D01*
X54690Y-35634D01*
X54732Y-35617D01*
X54778Y-35571D01*
X54803Y-35511D01*
X54803Y-35446D01*
X54803Y-34946D01*
X54803Y-34446D01*
X54778Y-34386D01*
X54732Y-34340D01*
X54672Y-34315D01*
X54607Y-34315D01*
X54547Y-34339D01*
X54501Y-34385D01*
X54476Y-34445D01*
X54476Y-34510D01*
X54501Y-34570D01*
X54547Y-34616D01*
X54607Y-34641D01*
X54672Y-34641D01*
X54732Y-34617D01*
X54778Y-34571D01*
X54803Y-34511D01*
X54803Y-34446D01*
X54803Y-34946D01*
X54778Y-34886D01*
X54732Y-34840D01*
X54672Y-34815D01*
X54607Y-34815D01*
X54547Y-34839D01*
X54501Y-34885D01*
X54476Y-34945D01*
X54476Y-35010D01*
X54501Y-35070D01*
X54547Y-35116D01*
X54607Y-35141D01*
X54672Y-35141D01*
X54732Y-35117D01*
X54778Y-35071D01*
X54803Y-35011D01*
X54803Y-34946D01*
X54803Y-35446D01*
X54778Y-35386D01*
X54732Y-35340D01*
X54672Y-35315D01*
X54607Y-35315D01*
X54547Y-35339D01*
X54501Y-35385D01*
X54476Y-35445D01*
X54476Y-35510D01*
X54501Y-35570D01*
X54547Y-35616D01*
X54588Y-35634D01*
X53426Y-35634D01*
X53426Y-34182D01*
X53401Y-34122D01*
X53355Y-34076D01*
X53295Y-34051D01*
X53230Y-34051D01*
X53170Y-34076D01*
X53124Y-34122D01*
X53099Y-34182D01*
X53099Y-34247D01*
X53124Y-34307D01*
X53170Y-34353D01*
X53230Y-34378D01*
X53295Y-34378D01*
X53355Y-34353D01*
X53401Y-34307D01*
X53426Y-34247D01*
X53426Y-34182D01*
X53426Y-35634D01*
X53315Y-35634D01*
X52876Y-35195D01*
X52876Y-32384D01*
X52851Y-32324D01*
X52805Y-32278D01*
X52745Y-32253D01*
X52680Y-32253D01*
X52620Y-32278D01*
X52574Y-32324D01*
X52549Y-32384D01*
X52549Y-32449D01*
X52574Y-32509D01*
X52620Y-32555D01*
X52680Y-32580D01*
X52745Y-32580D01*
X52805Y-32555D01*
X52851Y-32509D01*
X52876Y-32449D01*
X52876Y-32384D01*
X52876Y-35195D01*
X52862Y-35181D01*
X52862Y-32860D01*
X52837Y-32800D01*
X52791Y-32754D01*
X52731Y-32729D01*
X52666Y-32729D01*
X52606Y-32754D01*
X52560Y-32800D01*
X52535Y-32860D01*
X52535Y-32925D01*
X52560Y-32985D01*
X52606Y-33031D01*
X52666Y-33056D01*
X52731Y-33056D01*
X52791Y-33031D01*
X52837Y-32985D01*
X52862Y-32925D01*
X52862Y-32860D01*
X52862Y-35181D01*
X52474Y-34792D01*
X52474Y-33137D01*
X52449Y-33077D01*
X52403Y-33031D01*
X52343Y-33006D01*
X52278Y-33006D01*
X52218Y-33031D01*
X52172Y-33077D01*
X52147Y-33137D01*
X52147Y-33202D01*
X52172Y-33262D01*
X52217Y-33308D01*
X52277Y-33333D01*
X52342Y-33333D01*
X52403Y-33308D01*
X52449Y-33262D01*
X52473Y-33202D01*
X52474Y-33137D01*
X52474Y-34792D01*
X52092Y-34410D01*
X52092Y-33479D01*
X52067Y-33419D01*
X52021Y-33373D01*
X51961Y-33348D01*
X51896Y-33348D01*
X51836Y-33373D01*
X51790Y-33419D01*
X51765Y-33479D01*
X51765Y-33544D01*
X51790Y-33604D01*
X51835Y-33650D01*
X51895Y-33675D01*
X51960Y-33675D01*
X52021Y-33650D01*
X52067Y-33604D01*
X52091Y-33544D01*
X52092Y-33479D01*
X52092Y-34410D01*
X52091Y-34409D01*
X52091Y-33976D01*
X52066Y-33916D01*
X52020Y-33870D01*
X51960Y-33845D01*
X51895Y-33845D01*
X51835Y-33870D01*
X51789Y-33916D01*
X51764Y-33976D01*
X51764Y-34041D01*
X51789Y-34101D01*
X51834Y-34147D01*
X51894Y-34172D01*
X51959Y-34172D01*
X52020Y-34147D01*
X52066Y-34101D01*
X52090Y-34041D01*
X52091Y-33976D01*
X52091Y-34409D01*
X52069Y-34388D01*
X52064Y-34375D01*
X52018Y-34329D01*
X52005Y-34324D01*
X51598Y-33917D01*
X51598Y-33858D01*
X51574Y-33798D01*
X51528Y-33752D01*
X51468Y-33727D01*
X51448Y-33727D01*
X51448Y-33590D01*
X51462Y-33590D01*
X51522Y-33565D01*
X51568Y-33519D01*
X51593Y-33459D01*
X51593Y-33394D01*
X51568Y-33334D01*
X51523Y-33288D01*
X51462Y-33263D01*
X51448Y-33263D01*
X51448Y-33065D01*
X51480Y-33052D01*
X51526Y-33006D01*
X51551Y-32946D01*
X51551Y-32881D01*
X51526Y-32821D01*
X51480Y-32775D01*
X51448Y-32762D01*
X51448Y-32589D01*
X51481Y-32575D01*
X51527Y-32529D01*
X51552Y-32469D01*
X51552Y-32404D01*
X51527Y-32344D01*
X51481Y-32298D01*
X51448Y-32285D01*
X51448Y-32093D01*
X51466Y-32086D01*
X51512Y-32040D01*
X51537Y-31980D01*
X51537Y-31915D01*
X51512Y-31855D01*
X51466Y-31809D01*
X51448Y-31802D01*
X51448Y-31579D01*
X51459Y-31568D01*
X51484Y-31508D01*
X51484Y-31443D01*
X51459Y-31383D01*
X51448Y-31373D01*
X51448Y-31069D01*
X51457Y-31049D01*
X51457Y-30984D01*
X51448Y-30964D01*
X51448Y-28877D01*
X51711Y-28614D01*
X52728Y-28614D01*
X52921Y-28807D01*
X52921Y-28954D01*
X52905Y-28960D01*
X52859Y-29006D01*
X52834Y-29066D01*
X52834Y-29131D01*
X52859Y-29191D01*
X52905Y-29237D01*
X52921Y-29244D01*
X52921Y-29442D01*
X52877Y-29424D01*
X52812Y-29424D01*
X52752Y-29449D01*
X52706Y-29495D01*
X52681Y-29555D01*
X52681Y-29620D01*
X52706Y-29680D01*
X52752Y-29726D01*
X52812Y-29751D01*
X52877Y-29751D01*
X52921Y-29733D01*
X52921Y-29951D01*
X52915Y-29937D01*
X52869Y-29891D01*
X52809Y-29866D01*
X52744Y-29866D01*
X52684Y-29891D01*
X52638Y-29937D01*
X52613Y-29997D01*
X52613Y-30062D01*
X52637Y-30122D01*
X52683Y-30168D01*
X52743Y-30193D01*
X52808Y-30193D01*
X52868Y-30168D01*
X52914Y-30122D01*
X52921Y-30107D01*
X52921Y-30460D01*
X52915Y-30446D01*
X52869Y-30400D01*
X52809Y-30375D01*
X52744Y-30375D01*
X52684Y-30400D01*
X52638Y-30445D01*
X52613Y-30505D01*
X52613Y-30570D01*
X52637Y-30631D01*
X52683Y-30677D01*
X52743Y-30701D01*
X52808Y-30702D01*
X52868Y-30677D01*
X52914Y-30631D01*
X52921Y-30616D01*
X52921Y-30972D01*
X52915Y-30958D01*
X52869Y-30912D01*
X52809Y-30887D01*
X52744Y-30887D01*
X52684Y-30911D01*
X52638Y-30957D01*
X52613Y-31017D01*
X52613Y-31082D01*
X52637Y-31142D01*
X52683Y-31188D01*
X52743Y-31213D01*
X52808Y-31213D01*
X52868Y-31189D01*
X52914Y-31143D01*
X52921Y-31128D01*
X52921Y-31353D01*
X52916Y-31341D01*
X52870Y-31295D01*
X52810Y-31270D01*
X52745Y-31270D01*
X52685Y-31294D01*
X52639Y-31340D01*
X52614Y-31400D01*
X52614Y-31465D01*
X52638Y-31525D01*
X52684Y-31571D01*
X52744Y-31596D01*
X52809Y-31596D01*
X52869Y-31572D01*
X52915Y-31526D01*
X52921Y-31513D01*
X52921Y-31846D01*
X52919Y-31842D01*
X52873Y-31796D01*
X52813Y-31771D01*
X52748Y-31771D01*
X52688Y-31796D01*
X52642Y-31842D01*
X52617Y-31902D01*
X52617Y-31967D01*
X52642Y-32027D01*
X52688Y-32073D01*
X52748Y-32098D01*
X52813Y-32098D01*
X52873Y-32073D01*
X52919Y-32027D01*
X52921Y-32023D01*
X52921Y-32908D01*
X52902Y-32927D01*
X52885Y-32969D01*
X52885Y-33014D01*
X52902Y-33056D01*
X52921Y-33075D01*
X52921Y-33161D01*
X53282Y-33522D01*
X53232Y-33522D01*
X53172Y-33547D01*
X53126Y-33593D01*
X53101Y-33653D01*
X53101Y-33718D01*
X53126Y-33778D01*
X53172Y-33824D01*
X53232Y-33849D01*
X53297Y-33849D01*
X53357Y-33824D01*
X53403Y-33778D01*
X53428Y-33718D01*
X53428Y-33668D01*
X53680Y-33920D01*
X54486Y-33920D01*
X54476Y-33945D01*
X54476Y-34010D01*
X54501Y-34070D01*
X54547Y-34116D01*
X54607Y-34141D01*
X54672Y-34141D01*
X54732Y-34117D01*
X54778Y-34071D01*
X54803Y-34011D01*
X54803Y-33946D01*
X54792Y-33920D01*
X57228Y-33920D01*
X57209Y-33939D01*
X57184Y-33999D01*
X57184Y-34064D01*
X57209Y-34124D01*
X57255Y-34170D01*
X57315Y-34195D01*
X57380Y-34195D01*
X57440Y-34170D01*
X57486Y-34124D01*
X57511Y-34064D01*
X57511Y-33999D01*
X57486Y-33939D01*
X57467Y-33920D01*
X58799Y-33920D01*
X59396Y-34517D01*
X59396Y-36424D01*
X59392Y-36420D01*
X59332Y-36395D01*
X59267Y-36395D01*
X59207Y-36420D01*
X59161Y-36466D01*
X59136Y-36526D01*
X59136Y-36591D01*
X59160Y-36651D01*
X59206Y-36697D01*
X59266Y-36722D01*
X59331Y-36722D01*
X59391Y-36697D01*
X59396Y-36693D01*
X59396Y-37412D01*
X59374Y-37403D01*
X59309Y-37403D01*
X59249Y-37428D01*
X59203Y-37474D01*
X59178Y-37534D01*
X59178Y-37599D01*
X59203Y-37659D01*
X59249Y-37705D01*
X59309Y-37730D01*
X59374Y-37730D01*
X59396Y-37721D01*
X59396Y-38734D01*
G54D10*
G36*
X52954Y-53867D02*
X52370Y-54451D01*
X49637Y-54451D01*
X49637Y-52772D01*
X49620Y-52730D01*
X49588Y-52698D01*
X49546Y-52681D01*
X49501Y-52681D01*
X49459Y-52698D01*
X49426Y-52730D01*
X49409Y-52772D01*
X49409Y-52817D01*
X49426Y-52859D01*
X49458Y-52892D01*
X49500Y-52909D01*
X49546Y-52909D01*
X49588Y-52892D01*
X49620Y-52860D01*
X49637Y-52818D01*
X49637Y-52772D01*
X49637Y-54451D01*
X48679Y-54451D01*
X48661Y-54406D01*
X48661Y-52569D01*
X48636Y-52509D01*
X48590Y-52463D01*
X48530Y-52438D01*
X48465Y-52438D01*
X48405Y-52463D01*
X48359Y-52509D01*
X48334Y-52569D01*
X48334Y-52634D01*
X48359Y-52694D01*
X48405Y-52740D01*
X48465Y-52765D01*
X48530Y-52765D01*
X48590Y-52740D01*
X48636Y-52694D01*
X48661Y-52634D01*
X48661Y-52569D01*
X48661Y-54406D01*
X48658Y-54400D01*
X48590Y-54331D01*
X48501Y-54294D01*
X48405Y-54294D01*
X48316Y-54331D01*
X48247Y-54399D01*
X48216Y-54474D01*
X48186Y-54400D01*
X48118Y-54331D01*
X48029Y-54294D01*
X47933Y-54294D01*
X47844Y-54331D01*
X47775Y-54399D01*
X47744Y-54474D01*
X47714Y-54400D01*
X47646Y-54331D01*
X47557Y-54294D01*
X47461Y-54294D01*
X47372Y-54331D01*
X47303Y-54399D01*
X47272Y-54474D01*
X47242Y-54400D01*
X47240Y-54397D01*
X47240Y-53631D01*
X47222Y-53589D01*
X47190Y-53557D01*
X47148Y-53539D01*
X47103Y-53539D01*
X47061Y-53557D01*
X47029Y-53589D01*
X47011Y-53631D01*
X47011Y-53676D01*
X47029Y-53718D01*
X47061Y-53750D01*
X47103Y-53768D01*
X47148Y-53768D01*
X47190Y-53750D01*
X47222Y-53718D01*
X47240Y-53676D01*
X47240Y-53631D01*
X47240Y-54397D01*
X47174Y-54331D01*
X47085Y-54294D01*
X46989Y-54294D01*
X46989Y-52316D01*
X46792Y-51840D01*
X46428Y-51475D01*
X45952Y-51277D01*
X45437Y-51277D01*
X45265Y-51348D01*
X45265Y-43207D01*
X45265Y-42814D01*
X45240Y-42754D01*
X45195Y-42708D01*
X45135Y-42683D01*
X45070Y-42683D01*
X45009Y-42707D01*
X44963Y-42753D01*
X44939Y-42813D01*
X44938Y-42878D01*
X44963Y-42938D01*
X45009Y-42984D01*
X45069Y-43009D01*
X45134Y-43009D01*
X45194Y-42985D01*
X45240Y-42939D01*
X45265Y-42879D01*
X45265Y-42814D01*
X45265Y-43207D01*
X45240Y-43147D01*
X45195Y-43101D01*
X45135Y-43076D01*
X45070Y-43076D01*
X45009Y-43101D01*
X44963Y-43147D01*
X44939Y-43207D01*
X44938Y-43272D01*
X44963Y-43332D01*
X45009Y-43378D01*
X45069Y-43403D01*
X45134Y-43403D01*
X45194Y-43378D01*
X45240Y-43332D01*
X45265Y-43272D01*
X45265Y-43207D01*
X45265Y-51348D01*
X45071Y-51428D01*
X45071Y-47413D01*
X45053Y-47371D01*
X45021Y-47339D01*
X44979Y-47321D01*
X44934Y-47321D01*
X44892Y-47339D01*
X44860Y-47371D01*
X44842Y-47413D01*
X44842Y-47458D01*
X44860Y-47500D01*
X44892Y-47532D01*
X44934Y-47550D01*
X44979Y-47550D01*
X45021Y-47532D01*
X45053Y-47500D01*
X45071Y-47458D01*
X45071Y-47413D01*
X45071Y-51428D01*
X44961Y-51474D01*
X44596Y-51838D01*
X44398Y-52314D01*
X44398Y-52829D01*
X44595Y-53305D01*
X44959Y-53670D01*
X45435Y-53868D01*
X45950Y-53868D01*
X46426Y-53671D01*
X46791Y-53307D01*
X46989Y-52831D01*
X46989Y-52316D01*
X46989Y-54294D01*
X46989Y-54294D01*
X46900Y-54331D01*
X46831Y-54399D01*
X46809Y-54452D01*
X45107Y-54452D01*
X44598Y-54351D01*
X44333Y-54174D01*
X44333Y-24140D01*
X44308Y-24080D01*
X44262Y-24034D01*
X44202Y-24009D01*
X44137Y-24009D01*
X44077Y-24034D01*
X44031Y-24080D01*
X44006Y-24140D01*
X44006Y-24205D01*
X44031Y-24265D01*
X44077Y-24311D01*
X44137Y-24336D01*
X44202Y-24336D01*
X44262Y-24311D01*
X44308Y-24266D01*
X44333Y-24205D01*
X44333Y-24140D01*
X44333Y-54174D01*
X44246Y-54117D01*
X44246Y-26721D01*
X44246Y-26170D01*
X44246Y-25658D01*
X44246Y-25147D01*
X44246Y-24595D01*
X44221Y-24535D01*
X44176Y-24489D01*
X44116Y-24464D01*
X44051Y-24464D01*
X43990Y-24489D01*
X43944Y-24535D01*
X43920Y-24595D01*
X43919Y-24660D01*
X43944Y-24720D01*
X43990Y-24766D01*
X44050Y-24791D01*
X44115Y-24791D01*
X44175Y-24766D01*
X44221Y-24720D01*
X44246Y-24660D01*
X44246Y-24595D01*
X44246Y-25147D01*
X44221Y-25086D01*
X44176Y-25040D01*
X44116Y-25016D01*
X44051Y-25015D01*
X43990Y-25040D01*
X43944Y-25086D01*
X43920Y-25146D01*
X43919Y-25211D01*
X43944Y-25271D01*
X43990Y-25317D01*
X44050Y-25342D01*
X44115Y-25342D01*
X44175Y-25317D01*
X44221Y-25272D01*
X44246Y-25212D01*
X44246Y-25147D01*
X44246Y-25658D01*
X44221Y-25598D01*
X44176Y-25552D01*
X44116Y-25527D01*
X44051Y-25527D01*
X43990Y-25552D01*
X43944Y-25598D01*
X43920Y-25658D01*
X43919Y-25723D01*
X43944Y-25783D01*
X43990Y-25829D01*
X44050Y-25854D01*
X44115Y-25854D01*
X44175Y-25829D01*
X44221Y-25783D01*
X44246Y-25723D01*
X44246Y-25658D01*
X44246Y-26170D01*
X44221Y-26110D01*
X44176Y-26064D01*
X44116Y-26039D01*
X44051Y-26039D01*
X43990Y-26064D01*
X43944Y-26110D01*
X43920Y-26170D01*
X43919Y-26235D01*
X43944Y-26295D01*
X43990Y-26341D01*
X44050Y-26366D01*
X44115Y-26366D01*
X44175Y-26341D01*
X44221Y-26295D01*
X44246Y-26235D01*
X44246Y-26170D01*
X44246Y-26721D01*
X44221Y-26661D01*
X44176Y-26615D01*
X44116Y-26590D01*
X44051Y-26590D01*
X43990Y-26615D01*
X43944Y-26661D01*
X43920Y-26721D01*
X43919Y-26786D01*
X43944Y-26846D01*
X43990Y-26892D01*
X44050Y-26917D01*
X44115Y-26917D01*
X44175Y-26892D01*
X44221Y-26846D01*
X44246Y-26786D01*
X44246Y-26721D01*
X44246Y-54117D01*
X44210Y-54092D01*
X44157Y-54040D01*
X43898Y-53653D01*
X43797Y-53148D01*
X43797Y-45773D01*
X43852Y-45750D01*
X43921Y-45682D01*
X43958Y-45593D01*
X43958Y-45497D01*
X43921Y-45408D01*
X43853Y-45339D01*
X43778Y-45308D01*
X43852Y-45278D01*
X43921Y-45210D01*
X43958Y-45121D01*
X43958Y-45025D01*
X43921Y-44936D01*
X43853Y-44867D01*
X43778Y-44836D01*
X43852Y-44806D01*
X43921Y-44738D01*
X43958Y-44649D01*
X43958Y-44553D01*
X43921Y-44464D01*
X43853Y-44395D01*
X43778Y-44364D01*
X43852Y-44334D01*
X43921Y-44266D01*
X43958Y-44177D01*
X43958Y-44081D01*
X43921Y-43992D01*
X43853Y-43923D01*
X43798Y-43901D01*
X43798Y-24377D01*
X43897Y-23876D01*
X44040Y-23663D01*
X44385Y-23318D01*
X44596Y-23176D01*
X45102Y-23075D01*
X46780Y-23075D01*
X46802Y-23127D01*
X46870Y-23196D01*
X46959Y-23233D01*
X47055Y-23233D01*
X47144Y-23196D01*
X47213Y-23128D01*
X47244Y-23053D01*
X47274Y-23127D01*
X47342Y-23196D01*
X47431Y-23233D01*
X47527Y-23233D01*
X47616Y-23196D01*
X47685Y-23128D01*
X47716Y-23053D01*
X47746Y-23127D01*
X47814Y-23196D01*
X47903Y-23233D01*
X47999Y-23233D01*
X48088Y-23196D01*
X48157Y-23128D01*
X48188Y-23053D01*
X48218Y-23127D01*
X48286Y-23196D01*
X48375Y-23233D01*
X48471Y-23233D01*
X48560Y-23196D01*
X48629Y-23128D01*
X48651Y-23073D01*
X52556Y-23073D01*
X52929Y-23446D01*
X52929Y-24175D01*
X52525Y-24579D01*
X50352Y-24579D01*
X49216Y-25714D01*
X49070Y-25714D01*
X49023Y-25724D01*
X48982Y-25751D01*
X48982Y-25751D01*
X46971Y-27762D01*
X46971Y-24699D01*
X46774Y-24223D01*
X46410Y-23858D01*
X46409Y-23858D01*
X46409Y-23289D01*
X46384Y-23229D01*
X46339Y-23183D01*
X46279Y-23158D01*
X46214Y-23158D01*
X46153Y-23182D01*
X46107Y-23228D01*
X46083Y-23288D01*
X46082Y-23353D01*
X46107Y-23414D01*
X46153Y-23460D01*
X46213Y-23484D01*
X46278Y-23485D01*
X46338Y-23460D01*
X46384Y-23414D01*
X46409Y-23354D01*
X46409Y-23289D01*
X46409Y-23858D01*
X45934Y-23660D01*
X45858Y-23660D01*
X45858Y-23289D01*
X45833Y-23229D01*
X45787Y-23183D01*
X45727Y-23158D01*
X45662Y-23158D01*
X45602Y-23182D01*
X45556Y-23228D01*
X45531Y-23288D01*
X45531Y-23353D01*
X45556Y-23414D01*
X45602Y-23460D01*
X45662Y-23484D01*
X45727Y-23485D01*
X45787Y-23460D01*
X45833Y-23414D01*
X45858Y-23354D01*
X45858Y-23289D01*
X45858Y-23660D01*
X45419Y-23660D01*
X45346Y-23690D01*
X45346Y-23289D01*
X45321Y-23229D01*
X45276Y-23183D01*
X45216Y-23158D01*
X45151Y-23158D01*
X45090Y-23182D01*
X45044Y-23228D01*
X45020Y-23288D01*
X45019Y-23353D01*
X45044Y-23414D01*
X45090Y-23460D01*
X45150Y-23484D01*
X45215Y-23485D01*
X45275Y-23460D01*
X45321Y-23414D01*
X45346Y-23354D01*
X45346Y-23289D01*
X45346Y-23690D01*
X44943Y-23857D01*
X44913Y-23886D01*
X44913Y-23466D01*
X44888Y-23406D01*
X44842Y-23360D01*
X44782Y-23335D01*
X44717Y-23335D01*
X44657Y-23360D01*
X44611Y-23406D01*
X44586Y-23466D01*
X44586Y-23531D01*
X44611Y-23591D01*
X44657Y-23637D01*
X44717Y-23662D01*
X44782Y-23662D01*
X44842Y-23637D01*
X44888Y-23591D01*
X44913Y-23531D01*
X44913Y-23466D01*
X44913Y-23886D01*
X44578Y-24221D01*
X44569Y-24242D01*
X44569Y-23747D01*
X44544Y-23687D01*
X44498Y-23641D01*
X44438Y-23616D01*
X44373Y-23616D01*
X44313Y-23641D01*
X44267Y-23686D01*
X44242Y-23746D01*
X44242Y-23811D01*
X44267Y-23872D01*
X44313Y-23918D01*
X44373Y-23942D01*
X44438Y-23943D01*
X44498Y-23918D01*
X44544Y-23872D01*
X44569Y-23812D01*
X44569Y-23747D01*
X44569Y-24242D01*
X44380Y-24697D01*
X44380Y-25212D01*
X44577Y-25688D01*
X44941Y-26053D01*
X45417Y-26251D01*
X45932Y-26251D01*
X46408Y-26054D01*
X46773Y-25690D01*
X46971Y-25214D01*
X46971Y-24699D01*
X46971Y-27762D01*
X45467Y-29266D01*
X45440Y-29306D01*
X45431Y-29354D01*
X45431Y-29354D01*
X45431Y-29500D01*
X45354Y-29577D01*
X45354Y-31106D01*
X45300Y-31084D01*
X45235Y-31084D01*
X45214Y-31093D01*
X45214Y-30664D01*
X45189Y-30604D01*
X45143Y-30558D01*
X45083Y-30533D01*
X45018Y-30533D01*
X44958Y-30558D01*
X44912Y-30604D01*
X44887Y-30664D01*
X44887Y-30729D01*
X44912Y-30789D01*
X44958Y-30835D01*
X45018Y-30860D01*
X45083Y-30860D01*
X45143Y-30835D01*
X45189Y-30789D01*
X45214Y-30729D01*
X45214Y-30664D01*
X45214Y-31093D01*
X45175Y-31109D01*
X45129Y-31155D01*
X45104Y-31215D01*
X45104Y-31280D01*
X45129Y-31340D01*
X45175Y-31386D01*
X45235Y-31411D01*
X45300Y-31411D01*
X45354Y-31389D01*
X45354Y-31411D01*
X45128Y-31636D01*
X45101Y-31676D01*
X45092Y-31724D01*
X45092Y-31724D01*
X45092Y-32913D01*
X45092Y-35313D01*
X45083Y-35326D01*
X45082Y-35332D01*
X45082Y-31564D01*
X45065Y-31522D01*
X45033Y-31489D01*
X44991Y-31472D01*
X44945Y-31472D01*
X44903Y-31489D01*
X44871Y-31521D01*
X44861Y-31545D01*
X44856Y-31551D01*
X44833Y-31585D01*
X44825Y-31625D01*
X44825Y-34959D01*
X44815Y-34983D01*
X44815Y-35028D01*
X44833Y-35070D01*
X44865Y-35102D01*
X44907Y-35120D01*
X44952Y-35120D01*
X44994Y-35102D01*
X45026Y-35070D01*
X45044Y-35028D01*
X45044Y-34983D01*
X45034Y-34959D01*
X45034Y-31682D01*
X45065Y-31651D01*
X45082Y-31609D01*
X45082Y-31564D01*
X45082Y-35332D01*
X45072Y-35381D01*
X45072Y-36014D01*
X45053Y-36061D01*
X45053Y-36126D01*
X45077Y-36186D01*
X45123Y-36232D01*
X45183Y-36257D01*
X45248Y-36257D01*
X45308Y-36233D01*
X45354Y-36188D01*
X45354Y-48362D01*
X46608Y-49616D01*
X46608Y-49972D01*
X46614Y-50004D01*
X46633Y-50032D01*
X48568Y-51967D01*
X48539Y-51955D01*
X48474Y-51955D01*
X48414Y-51980D01*
X48368Y-52026D01*
X48343Y-52086D01*
X48343Y-52151D01*
X48368Y-52211D01*
X48414Y-52257D01*
X48474Y-52282D01*
X48539Y-52282D01*
X48599Y-52257D01*
X48645Y-52211D01*
X48670Y-52151D01*
X48670Y-52086D01*
X48658Y-52057D01*
X48836Y-52236D01*
X48782Y-52213D01*
X48717Y-52213D01*
X48657Y-52238D01*
X48611Y-52284D01*
X48586Y-52344D01*
X48586Y-52409D01*
X48611Y-52469D01*
X48657Y-52515D01*
X48717Y-52540D01*
X48782Y-52540D01*
X48842Y-52515D01*
X48888Y-52469D01*
X48913Y-52409D01*
X48913Y-52344D01*
X48890Y-52290D01*
X48971Y-52370D01*
X48999Y-52389D01*
X49031Y-52395D01*
X49698Y-52395D01*
X49710Y-52407D01*
X49752Y-52425D01*
X49798Y-52425D01*
X49840Y-52407D01*
X49872Y-52375D01*
X49889Y-52333D01*
X49889Y-52315D01*
X52427Y-52315D01*
X52954Y-52842D01*
X52954Y-53867D01*
X52954Y-53867D01*
G37*
G54D23*
X52954Y-53867D02*
X52370Y-54451D01*
X49637Y-54451D01*
X49637Y-52772D01*
X49620Y-52730D01*
X49588Y-52698D01*
X49546Y-52681D01*
X49501Y-52681D01*
X49459Y-52698D01*
X49426Y-52730D01*
X49409Y-52772D01*
X49409Y-52817D01*
X49426Y-52859D01*
X49458Y-52892D01*
X49500Y-52909D01*
X49546Y-52909D01*
X49588Y-52892D01*
X49620Y-52860D01*
X49637Y-52818D01*
X49637Y-52772D01*
X49637Y-54451D01*
X48679Y-54451D01*
X48661Y-54406D01*
X48661Y-52569D01*
X48636Y-52509D01*
X48590Y-52463D01*
X48530Y-52438D01*
X48465Y-52438D01*
X48405Y-52463D01*
X48359Y-52509D01*
X48334Y-52569D01*
X48334Y-52634D01*
X48359Y-52694D01*
X48405Y-52740D01*
X48465Y-52765D01*
X48530Y-52765D01*
X48590Y-52740D01*
X48636Y-52694D01*
X48661Y-52634D01*
X48661Y-52569D01*
X48661Y-54406D01*
X48658Y-54400D01*
X48590Y-54331D01*
X48501Y-54294D01*
X48405Y-54294D01*
X48316Y-54331D01*
X48247Y-54399D01*
X48216Y-54474D01*
X48186Y-54400D01*
X48118Y-54331D01*
X48029Y-54294D01*
X47933Y-54294D01*
X47844Y-54331D01*
X47775Y-54399D01*
X47744Y-54474D01*
X47714Y-54400D01*
X47646Y-54331D01*
X47557Y-54294D01*
X47461Y-54294D01*
X47372Y-54331D01*
X47303Y-54399D01*
X47272Y-54474D01*
X47242Y-54400D01*
X47240Y-54397D01*
X47240Y-53631D01*
X47222Y-53589D01*
X47190Y-53557D01*
X47148Y-53539D01*
X47103Y-53539D01*
X47061Y-53557D01*
X47029Y-53589D01*
X47011Y-53631D01*
X47011Y-53676D01*
X47029Y-53718D01*
X47061Y-53750D01*
X47103Y-53768D01*
X47148Y-53768D01*
X47190Y-53750D01*
X47222Y-53718D01*
X47240Y-53676D01*
X47240Y-53631D01*
X47240Y-54397D01*
X47174Y-54331D01*
X47085Y-54294D01*
X46989Y-54294D01*
X46989Y-52316D01*
X46792Y-51840D01*
X46428Y-51475D01*
X45952Y-51277D01*
X45437Y-51277D01*
X45265Y-51348D01*
X45265Y-43207D01*
X45265Y-42814D01*
X45240Y-42754D01*
X45195Y-42708D01*
X45135Y-42683D01*
X45070Y-42683D01*
X45009Y-42707D01*
X44963Y-42753D01*
X44939Y-42813D01*
X44938Y-42878D01*
X44963Y-42938D01*
X45009Y-42984D01*
X45069Y-43009D01*
X45134Y-43009D01*
X45194Y-42985D01*
X45240Y-42939D01*
X45265Y-42879D01*
X45265Y-42814D01*
X45265Y-43207D01*
X45240Y-43147D01*
X45195Y-43101D01*
X45135Y-43076D01*
X45070Y-43076D01*
X45009Y-43101D01*
X44963Y-43147D01*
X44939Y-43207D01*
X44938Y-43272D01*
X44963Y-43332D01*
X45009Y-43378D01*
X45069Y-43403D01*
X45134Y-43403D01*
X45194Y-43378D01*
X45240Y-43332D01*
X45265Y-43272D01*
X45265Y-43207D01*
X45265Y-51348D01*
X45071Y-51428D01*
X45071Y-47413D01*
X45053Y-47371D01*
X45021Y-47339D01*
X44979Y-47321D01*
X44934Y-47321D01*
X44892Y-47339D01*
X44860Y-47371D01*
X44842Y-47413D01*
X44842Y-47458D01*
X44860Y-47500D01*
X44892Y-47532D01*
X44934Y-47550D01*
X44979Y-47550D01*
X45021Y-47532D01*
X45053Y-47500D01*
X45071Y-47458D01*
X45071Y-47413D01*
X45071Y-51428D01*
X44961Y-51474D01*
X44596Y-51838D01*
X44398Y-52314D01*
X44398Y-52829D01*
X44595Y-53305D01*
X44959Y-53670D01*
X45435Y-53868D01*
X45950Y-53868D01*
X46426Y-53671D01*
X46791Y-53307D01*
X46989Y-52831D01*
X46989Y-52316D01*
X46989Y-54294D01*
X46989Y-54294D01*
X46900Y-54331D01*
X46831Y-54399D01*
X46809Y-54452D01*
X45107Y-54452D01*
X44598Y-54351D01*
X44333Y-54174D01*
X44333Y-24140D01*
X44308Y-24080D01*
X44262Y-24034D01*
X44202Y-24009D01*
X44137Y-24009D01*
X44077Y-24034D01*
X44031Y-24080D01*
X44006Y-24140D01*
X44006Y-24205D01*
X44031Y-24265D01*
X44077Y-24311D01*
X44137Y-24336D01*
X44202Y-24336D01*
X44262Y-24311D01*
X44308Y-24266D01*
X44333Y-24205D01*
X44333Y-24140D01*
X44333Y-54174D01*
X44246Y-54117D01*
X44246Y-26721D01*
X44246Y-26170D01*
X44246Y-25658D01*
X44246Y-25147D01*
X44246Y-24595D01*
X44221Y-24535D01*
X44176Y-24489D01*
X44116Y-24464D01*
X44051Y-24464D01*
X43990Y-24489D01*
X43944Y-24535D01*
X43920Y-24595D01*
X43919Y-24660D01*
X43944Y-24720D01*
X43990Y-24766D01*
X44050Y-24791D01*
X44115Y-24791D01*
X44175Y-24766D01*
X44221Y-24720D01*
X44246Y-24660D01*
X44246Y-24595D01*
X44246Y-25147D01*
X44221Y-25086D01*
X44176Y-25040D01*
X44116Y-25016D01*
X44051Y-25015D01*
X43990Y-25040D01*
X43944Y-25086D01*
X43920Y-25146D01*
X43919Y-25211D01*
X43944Y-25271D01*
X43990Y-25317D01*
X44050Y-25342D01*
X44115Y-25342D01*
X44175Y-25317D01*
X44221Y-25272D01*
X44246Y-25212D01*
X44246Y-25147D01*
X44246Y-25658D01*
X44221Y-25598D01*
X44176Y-25552D01*
X44116Y-25527D01*
X44051Y-25527D01*
X43990Y-25552D01*
X43944Y-25598D01*
X43920Y-25658D01*
X43919Y-25723D01*
X43944Y-25783D01*
X43990Y-25829D01*
X44050Y-25854D01*
X44115Y-25854D01*
X44175Y-25829D01*
X44221Y-25783D01*
X44246Y-25723D01*
X44246Y-25658D01*
X44246Y-26170D01*
X44221Y-26110D01*
X44176Y-26064D01*
X44116Y-26039D01*
X44051Y-26039D01*
X43990Y-26064D01*
X43944Y-26110D01*
X43920Y-26170D01*
X43919Y-26235D01*
X43944Y-26295D01*
X43990Y-26341D01*
X44050Y-26366D01*
X44115Y-26366D01*
X44175Y-26341D01*
X44221Y-26295D01*
X44246Y-26235D01*
X44246Y-26170D01*
X44246Y-26721D01*
X44221Y-26661D01*
X44176Y-26615D01*
X44116Y-26590D01*
X44051Y-26590D01*
X43990Y-26615D01*
X43944Y-26661D01*
X43920Y-26721D01*
X43919Y-26786D01*
X43944Y-26846D01*
X43990Y-26892D01*
X44050Y-26917D01*
X44115Y-26917D01*
X44175Y-26892D01*
X44221Y-26846D01*
X44246Y-26786D01*
X44246Y-26721D01*
X44246Y-54117D01*
X44210Y-54092D01*
X44157Y-54040D01*
X43898Y-53653D01*
X43797Y-53148D01*
X43797Y-45773D01*
X43852Y-45750D01*
X43921Y-45682D01*
X43958Y-45593D01*
X43958Y-45497D01*
X43921Y-45408D01*
X43853Y-45339D01*
X43778Y-45308D01*
X43852Y-45278D01*
X43921Y-45210D01*
X43958Y-45121D01*
X43958Y-45025D01*
X43921Y-44936D01*
X43853Y-44867D01*
X43778Y-44836D01*
X43852Y-44806D01*
X43921Y-44738D01*
X43958Y-44649D01*
X43958Y-44553D01*
X43921Y-44464D01*
X43853Y-44395D01*
X43778Y-44364D01*
X43852Y-44334D01*
X43921Y-44266D01*
X43958Y-44177D01*
X43958Y-44081D01*
X43921Y-43992D01*
X43853Y-43923D01*
X43798Y-43901D01*
X43798Y-24377D01*
X43897Y-23876D01*
X44040Y-23663D01*
X44385Y-23318D01*
X44596Y-23176D01*
X45102Y-23075D01*
X46780Y-23075D01*
X46802Y-23127D01*
X46870Y-23196D01*
X46959Y-23233D01*
X47055Y-23233D01*
X47144Y-23196D01*
X47213Y-23128D01*
X47244Y-23053D01*
X47274Y-23127D01*
X47342Y-23196D01*
X47431Y-23233D01*
X47527Y-23233D01*
X47616Y-23196D01*
X47685Y-23128D01*
X47716Y-23053D01*
X47746Y-23127D01*
X47814Y-23196D01*
X47903Y-23233D01*
X47999Y-23233D01*
X48088Y-23196D01*
X48157Y-23128D01*
X48188Y-23053D01*
X48218Y-23127D01*
X48286Y-23196D01*
X48375Y-23233D01*
X48471Y-23233D01*
X48560Y-23196D01*
X48629Y-23128D01*
X48651Y-23073D01*
X52556Y-23073D01*
X52929Y-23446D01*
X52929Y-24175D01*
X52525Y-24579D01*
X50352Y-24579D01*
X49216Y-25714D01*
X49070Y-25714D01*
X49023Y-25724D01*
X48982Y-25751D01*
X48982Y-25751D01*
X46971Y-27762D01*
X46971Y-24699D01*
X46774Y-24223D01*
X46410Y-23858D01*
X46409Y-23858D01*
X46409Y-23289D01*
X46384Y-23229D01*
X46339Y-23183D01*
X46279Y-23158D01*
X46214Y-23158D01*
X46153Y-23182D01*
X46107Y-23228D01*
X46083Y-23288D01*
X46082Y-23353D01*
X46107Y-23414D01*
X46153Y-23460D01*
X46213Y-23484D01*
X46278Y-23485D01*
X46338Y-23460D01*
X46384Y-23414D01*
X46409Y-23354D01*
X46409Y-23289D01*
X46409Y-23858D01*
X45934Y-23660D01*
X45858Y-23660D01*
X45858Y-23289D01*
X45833Y-23229D01*
X45787Y-23183D01*
X45727Y-23158D01*
X45662Y-23158D01*
X45602Y-23182D01*
X45556Y-23228D01*
X45531Y-23288D01*
X45531Y-23353D01*
X45556Y-23414D01*
X45602Y-23460D01*
X45662Y-23484D01*
X45727Y-23485D01*
X45787Y-23460D01*
X45833Y-23414D01*
X45858Y-23354D01*
X45858Y-23289D01*
X45858Y-23660D01*
X45419Y-23660D01*
X45346Y-23690D01*
X45346Y-23289D01*
X45321Y-23229D01*
X45276Y-23183D01*
X45216Y-23158D01*
X45151Y-23158D01*
X45090Y-23182D01*
X45044Y-23228D01*
X45020Y-23288D01*
X45019Y-23353D01*
X45044Y-23414D01*
X45090Y-23460D01*
X45150Y-23484D01*
X45215Y-23485D01*
X45275Y-23460D01*
X45321Y-23414D01*
X45346Y-23354D01*
X45346Y-23289D01*
X45346Y-23690D01*
X44943Y-23857D01*
X44913Y-23886D01*
X44913Y-23466D01*
X44888Y-23406D01*
X44842Y-23360D01*
X44782Y-23335D01*
X44717Y-23335D01*
X44657Y-23360D01*
X44611Y-23406D01*
X44586Y-23466D01*
X44586Y-23531D01*
X44611Y-23591D01*
X44657Y-23637D01*
X44717Y-23662D01*
X44782Y-23662D01*
X44842Y-23637D01*
X44888Y-23591D01*
X44913Y-23531D01*
X44913Y-23466D01*
X44913Y-23886D01*
X44578Y-24221D01*
X44569Y-24242D01*
X44569Y-23747D01*
X44544Y-23687D01*
X44498Y-23641D01*
X44438Y-23616D01*
X44373Y-23616D01*
X44313Y-23641D01*
X44267Y-23686D01*
X44242Y-23746D01*
X44242Y-23811D01*
X44267Y-23872D01*
X44313Y-23918D01*
X44373Y-23942D01*
X44438Y-23943D01*
X44498Y-23918D01*
X44544Y-23872D01*
X44569Y-23812D01*
X44569Y-23747D01*
X44569Y-24242D01*
X44380Y-24697D01*
X44380Y-25212D01*
X44577Y-25688D01*
X44941Y-26053D01*
X45417Y-26251D01*
X45932Y-26251D01*
X46408Y-26054D01*
X46773Y-25690D01*
X46971Y-25214D01*
X46971Y-24699D01*
X46971Y-27762D01*
X45467Y-29266D01*
X45440Y-29306D01*
X45431Y-29354D01*
X45431Y-29354D01*
X45431Y-29500D01*
X45354Y-29577D01*
X45354Y-31106D01*
X45300Y-31084D01*
X45235Y-31084D01*
X45214Y-31093D01*
X45214Y-30664D01*
X45189Y-30604D01*
X45143Y-30558D01*
X45083Y-30533D01*
X45018Y-30533D01*
X44958Y-30558D01*
X44912Y-30604D01*
X44887Y-30664D01*
X44887Y-30729D01*
X44912Y-30789D01*
X44958Y-30835D01*
X45018Y-30860D01*
X45083Y-30860D01*
X45143Y-30835D01*
X45189Y-30789D01*
X45214Y-30729D01*
X45214Y-30664D01*
X45214Y-31093D01*
X45175Y-31109D01*
X45129Y-31155D01*
X45104Y-31215D01*
X45104Y-31280D01*
X45129Y-31340D01*
X45175Y-31386D01*
X45235Y-31411D01*
X45300Y-31411D01*
X45354Y-31389D01*
X45354Y-31411D01*
X45128Y-31636D01*
X45101Y-31676D01*
X45092Y-31724D01*
X45092Y-31724D01*
X45092Y-32913D01*
X45092Y-35313D01*
X45083Y-35326D01*
X45082Y-35332D01*
X45082Y-31564D01*
X45065Y-31522D01*
X45033Y-31489D01*
X44991Y-31472D01*
X44945Y-31472D01*
X44903Y-31489D01*
X44871Y-31521D01*
X44861Y-31545D01*
X44856Y-31551D01*
X44833Y-31585D01*
X44825Y-31625D01*
X44825Y-34959D01*
X44815Y-34983D01*
X44815Y-35028D01*
X44833Y-35070D01*
X44865Y-35102D01*
X44907Y-35120D01*
X44952Y-35120D01*
X44994Y-35102D01*
X45026Y-35070D01*
X45044Y-35028D01*
X45044Y-34983D01*
X45034Y-34959D01*
X45034Y-31682D01*
X45065Y-31651D01*
X45082Y-31609D01*
X45082Y-31564D01*
X45082Y-35332D01*
X45072Y-35381D01*
X45072Y-36014D01*
X45053Y-36061D01*
X45053Y-36126D01*
X45077Y-36186D01*
X45123Y-36232D01*
X45183Y-36257D01*
X45248Y-36257D01*
X45308Y-36233D01*
X45354Y-36188D01*
X45354Y-48362D01*
X46608Y-49616D01*
X46608Y-49972D01*
X46614Y-50004D01*
X46633Y-50032D01*
X48568Y-51967D01*
X48539Y-51955D01*
X48474Y-51955D01*
X48414Y-51980D01*
X48368Y-52026D01*
X48343Y-52086D01*
X48343Y-52151D01*
X48368Y-52211D01*
X48414Y-52257D01*
X48474Y-52282D01*
X48539Y-52282D01*
X48599Y-52257D01*
X48645Y-52211D01*
X48670Y-52151D01*
X48670Y-52086D01*
X48658Y-52057D01*
X48836Y-52236D01*
X48782Y-52213D01*
X48717Y-52213D01*
X48657Y-52238D01*
X48611Y-52284D01*
X48586Y-52344D01*
X48586Y-52409D01*
X48611Y-52469D01*
X48657Y-52515D01*
X48717Y-52540D01*
X48782Y-52540D01*
X48842Y-52515D01*
X48888Y-52469D01*
X48913Y-52409D01*
X48913Y-52344D01*
X48890Y-52290D01*
X48971Y-52370D01*
X48999Y-52389D01*
X49031Y-52395D01*
X49698Y-52395D01*
X49710Y-52407D01*
X49752Y-52425D01*
X49798Y-52425D01*
X49840Y-52407D01*
X49872Y-52375D01*
X49889Y-52333D01*
X49889Y-52315D01*
X52427Y-52315D01*
X52954Y-52842D01*
X52954Y-53867D01*
M02*
