G04 (created by PCBNEW (2013-june-11)-stable) date Tue 10 Oct 2017 05:17:01 PM CEST*
%MOIN*%
G04 Gerber Fmt 3.4, Leading zero omitted, Abs format*
%FSLAX34Y34*%
G01*
G70*
G90*
G04 APERTURE LIST*
%ADD10C,0.00590551*%
%ADD11C,0.00787402*%
%ADD12C,0.0393701*%
%ADD13R,0.0511811X0.015748*%
%ADD14R,0.023622X0.00984252*%
%ADD15R,0.0295276X0.0472441*%
%ADD16R,0.023437X0.023437*%
%ADD17R,0.0354X0.0551*%
%ADD18R,0.0551X0.0354*%
%ADD19R,0.0925197X0.0629921*%
%ADD20R,0.011811X0.0255906*%
%ADD21C,0.25*%
%ADD22R,0.035337X0.031437*%
%ADD23R,0.0118X0.0374*%
%ADD24R,0.0374X0.0118*%
%ADD25R,0.0886X0.0886*%
%ADD26R,0.031437X0.035337*%
%ADD27R,0.011811X0.0389764*%
%ADD28O,0.06X0.1179*%
%ADD29R,0.0708661X0.0472441*%
%ADD30R,0.0106299X0.046063*%
%ADD31R,0.046063X0.0106299*%
%ADD32R,0.0275591X0.0393701*%
%ADD33R,0.19685X0.0589*%
%ADD34R,0.0195X0.0195*%
%ADD35R,0.011811X0.0137795*%
%ADD36R,0.0137795X0.011811*%
%ADD37R,0.0259X0.014*%
%ADD38R,0.0273X0.0273*%
%ADD39O,0.0629921X0.0629921*%
%ADD40C,0.11811*%
G04 APERTURE END LIST*
G54D10*
G54D11*
X40574Y-57658D02*
X40583Y-57658D01*
X40574Y-19850D02*
X40574Y-57658D01*
X40575Y-19849D02*
X40575Y-19862D01*
X70460Y-19849D02*
X40575Y-19849D01*
X70460Y-19868D02*
X70460Y-19849D01*
X70460Y-57658D02*
X70460Y-19868D01*
X40575Y-57658D02*
X70460Y-57658D01*
X68894Y-23267D02*
X68906Y-23267D01*
X68890Y-53390D02*
X68902Y-53390D01*
X43087Y-57659D02*
X43087Y-57647D01*
X40561Y-53217D02*
X40573Y-53217D01*
X40565Y-23094D02*
X40577Y-23094D01*
X68472Y-19849D02*
X68472Y-19861D01*
X44228Y-19839D02*
X44228Y-19851D01*
X42134Y-45546D02*
X42132Y-45546D01*
X42134Y-56091D02*
X42134Y-45546D01*
X47037Y-56091D02*
X42134Y-56091D01*
X42132Y-45546D02*
X42132Y-56028D01*
X42140Y-44129D02*
X42137Y-44129D01*
X42140Y-21415D02*
X42140Y-44129D01*
X47009Y-21415D02*
X42140Y-21415D01*
X48421Y-21415D02*
X48421Y-21427D01*
X62986Y-21415D02*
X48421Y-21415D01*
X64402Y-21424D02*
X64402Y-21430D01*
X68891Y-21424D02*
X64402Y-21424D01*
X68891Y-56132D02*
X68891Y-21424D01*
X68891Y-56134D02*
X63758Y-56134D01*
X68891Y-53037D02*
X68891Y-56134D01*
X48452Y-56093D02*
X48452Y-56096D01*
X62337Y-56110D02*
X48453Y-56110D01*
X63753Y-54537D02*
X63753Y-54539D01*
X65949Y-54537D02*
X63753Y-54537D01*
X48423Y-22989D02*
X48423Y-22991D01*
X62988Y-22989D02*
X48423Y-22989D01*
X64404Y-22993D02*
X64404Y-22989D01*
X65944Y-22993D02*
X64404Y-22993D01*
X47009Y-22991D02*
X45088Y-22991D01*
X47037Y-54537D02*
X47037Y-54538D01*
X45099Y-54537D02*
X47037Y-54537D01*
X63759Y-56135D02*
X63759Y-54560D01*
X62336Y-56109D02*
X62336Y-54534D01*
X62337Y-54539D02*
X54171Y-54539D01*
X63754Y-54538D02*
X63754Y-54539D01*
X62986Y-22990D02*
X62986Y-21415D01*
X64402Y-23001D02*
X64402Y-21426D01*
X64403Y-22990D02*
X64403Y-22989D01*
X48453Y-54536D02*
X48453Y-54537D01*
X59734Y-54536D02*
X48453Y-54536D01*
X43713Y-45545D02*
X43715Y-45545D01*
X43713Y-53156D02*
X43713Y-45545D01*
X43714Y-44133D02*
X43715Y-44133D01*
X43714Y-24370D02*
X43714Y-44133D01*
X48424Y-22992D02*
X48424Y-22991D01*
X43722Y-44129D02*
X42147Y-44129D01*
X43704Y-45546D02*
X42129Y-45546D01*
X47035Y-56091D02*
X47035Y-54516D01*
X48452Y-56109D02*
X48452Y-54534D01*
X48421Y-22997D02*
X48421Y-21422D01*
X47007Y-22992D02*
X47007Y-21417D01*
X43713Y-53157D02*
G75*
G03X45091Y-54535I1377J0D01*
G74*
G01*
X65950Y-54536D02*
G75*
G03X67328Y-53158I0J1377D01*
G74*
G01*
X45091Y-22991D02*
G75*
G03X43713Y-24369I0J-1377D01*
G74*
G01*
X67327Y-24370D02*
G75*
G03X65949Y-22992I-1377J0D01*
G74*
G01*
X67328Y-24372D02*
X67328Y-53149D01*
G54D12*
X62810Y-54539D03*
X62338Y-54539D03*
X63282Y-54539D03*
X63754Y-54539D03*
X64403Y-22989D03*
X63931Y-22989D03*
X62987Y-22989D03*
X63459Y-22989D03*
X48453Y-54537D03*
X47981Y-54537D03*
X47037Y-54537D03*
X47509Y-54537D03*
X47480Y-22991D03*
X47008Y-22991D03*
X47952Y-22991D03*
X48424Y-22991D03*
X43716Y-44601D03*
X43716Y-44129D03*
X43716Y-45073D03*
X43716Y-45545D03*
G54D13*
X44643Y-33821D03*
X44643Y-33565D03*
X44643Y-34077D03*
X44643Y-34333D03*
X44643Y-34589D03*
X44643Y-33309D03*
X44643Y-33053D03*
X44643Y-32797D03*
X46927Y-34589D03*
X46927Y-32797D03*
X46927Y-33053D03*
X46927Y-33309D03*
X46927Y-34333D03*
X46927Y-34077D03*
X46927Y-33565D03*
X46927Y-33821D03*
G54D14*
X52942Y-51445D03*
X52942Y-51701D03*
X52942Y-51956D03*
X53847Y-51956D03*
X53847Y-51701D03*
X53847Y-51445D03*
G54D15*
X53394Y-51701D03*
G54D16*
X52263Y-27412D03*
X52263Y-27766D03*
X51909Y-27412D03*
X51555Y-27412D03*
X50066Y-27440D03*
X49712Y-27440D03*
X49558Y-27087D03*
X49204Y-27087D03*
X50067Y-25216D03*
X50421Y-25216D03*
X49491Y-24034D03*
X49491Y-24388D03*
X50421Y-27442D03*
X50421Y-27796D03*
X51909Y-25236D03*
X52263Y-25236D03*
X51344Y-24042D03*
X51344Y-24396D03*
X51401Y-27087D03*
X51047Y-27087D03*
X50066Y-27093D03*
X50420Y-27093D03*
X51913Y-27085D03*
X52267Y-27085D03*
G54D17*
X51360Y-28372D03*
X50610Y-28372D03*
X51350Y-28372D03*
X52100Y-28372D03*
G54D18*
X50064Y-24033D03*
X50064Y-24783D03*
X51913Y-24041D03*
X51913Y-24791D03*
G54D19*
X49682Y-26166D03*
G54D20*
X49554Y-25625D03*
X49810Y-25625D03*
X50066Y-25625D03*
X49298Y-25625D03*
X49298Y-26707D03*
X50066Y-26707D03*
X49810Y-26707D03*
X49554Y-26707D03*
G54D19*
X51529Y-26174D03*
G54D20*
X51401Y-25633D03*
X51657Y-25633D03*
X51913Y-25633D03*
X51145Y-25633D03*
X51145Y-26715D03*
X51913Y-26715D03*
X51657Y-26715D03*
X51401Y-26715D03*
G54D21*
X45694Y-52573D03*
X65381Y-52572D03*
G54D16*
X47470Y-32443D03*
X47470Y-32797D03*
X47795Y-33815D03*
X47795Y-33461D03*
X47468Y-33815D03*
X47468Y-33461D03*
X48118Y-33461D03*
X48118Y-33815D03*
X46923Y-35018D03*
X46569Y-35018D03*
X45568Y-35018D03*
X45214Y-35018D03*
X49203Y-32051D03*
X48849Y-32051D03*
X46251Y-35018D03*
X45897Y-35018D03*
X46569Y-35364D03*
X46569Y-35718D03*
X47451Y-34908D03*
X47805Y-34908D03*
X47824Y-33124D03*
X47470Y-33124D03*
X44068Y-32956D03*
X44068Y-33310D03*
X48104Y-32797D03*
X48104Y-32443D03*
X47783Y-32797D03*
X47783Y-32443D03*
X45216Y-35445D03*
X45216Y-35799D03*
X48439Y-33819D03*
X48439Y-33465D03*
X48443Y-32799D03*
X48443Y-33153D03*
G54D22*
X48846Y-32607D03*
X48846Y-33037D03*
X48850Y-33460D03*
X48850Y-33890D03*
G54D23*
X58160Y-24974D03*
X57964Y-24974D03*
X57767Y-24974D03*
X57570Y-24974D03*
X57373Y-24974D03*
G54D24*
X57011Y-25336D03*
X57011Y-25533D03*
X57011Y-25730D03*
X57011Y-25927D03*
X57011Y-26123D03*
G54D23*
X57373Y-26490D03*
X57570Y-26490D03*
X57767Y-26490D03*
X57964Y-26490D03*
X58160Y-26490D03*
G54D24*
X58527Y-26127D03*
X58527Y-25931D03*
X58527Y-25734D03*
X58527Y-25537D03*
X58527Y-25340D03*
G54D25*
X57770Y-25734D03*
G54D16*
X59112Y-26154D03*
X59466Y-26154D03*
X59508Y-24410D03*
X59154Y-24410D03*
X58844Y-24100D03*
X58490Y-24100D03*
X58844Y-24404D03*
X58490Y-24404D03*
X59112Y-25536D03*
X59466Y-25536D03*
X56830Y-26830D03*
X56830Y-26476D03*
X56057Y-25730D03*
X56411Y-25730D03*
X57972Y-27030D03*
X57972Y-27384D03*
X58307Y-27028D03*
X58307Y-27382D03*
X57640Y-27028D03*
X57640Y-27382D03*
X56411Y-25406D03*
X56057Y-25406D03*
X57964Y-24389D03*
X57964Y-24035D03*
X59110Y-25220D03*
X59110Y-24866D03*
X58740Y-27242D03*
X58740Y-26888D03*
X56057Y-26063D03*
X56411Y-26063D03*
X59466Y-25841D03*
X59112Y-25841D03*
X60142Y-25841D03*
X59788Y-25841D03*
X55122Y-25071D03*
X55122Y-24717D03*
X55791Y-25073D03*
X55437Y-25073D03*
X55797Y-24723D03*
X55443Y-24723D03*
X56100Y-25075D03*
X56100Y-24721D03*
X56409Y-25075D03*
X56409Y-24721D03*
X56063Y-27822D03*
X56417Y-27822D03*
X52137Y-50267D03*
X52491Y-50267D03*
X50255Y-43436D03*
X50255Y-43082D03*
X50244Y-43811D03*
X50244Y-44165D03*
X51346Y-45480D03*
X50992Y-45480D03*
X48436Y-45492D03*
X48082Y-45492D03*
X48071Y-50700D03*
X48071Y-51054D03*
X50800Y-51190D03*
X51154Y-51190D03*
X54866Y-51697D03*
X54866Y-52051D03*
X54517Y-51694D03*
X54517Y-52048D03*
X44920Y-48741D03*
X44566Y-48741D03*
X46917Y-50040D03*
X46917Y-50394D03*
X52349Y-51957D03*
X52349Y-52311D03*
X60606Y-51413D03*
X60606Y-51059D03*
X61951Y-51410D03*
X61951Y-51056D03*
X46790Y-47762D03*
X46790Y-48116D03*
X45881Y-48758D03*
X46235Y-48758D03*
X50401Y-51389D03*
X50401Y-51035D03*
G54D22*
X55282Y-51696D03*
X55282Y-52126D03*
G54D26*
X46415Y-47767D03*
X45985Y-47767D03*
G54D17*
X45968Y-47220D03*
X46718Y-47220D03*
G54D27*
X61087Y-51411D03*
X61284Y-51411D03*
X61480Y-51411D03*
X61480Y-52040D03*
X61284Y-52040D03*
X61087Y-52040D03*
G54D28*
X57734Y-50153D03*
X55734Y-50153D03*
X56734Y-50153D03*
G54D29*
X44568Y-49447D03*
X46143Y-49447D03*
X46143Y-50392D03*
X44568Y-50392D03*
G54D30*
X51350Y-50549D03*
X51153Y-50549D03*
X50956Y-50549D03*
X50760Y-50549D03*
X50563Y-50549D03*
X50366Y-50549D03*
X50169Y-50549D03*
X49972Y-50549D03*
X48397Y-50549D03*
X48594Y-50549D03*
X48791Y-50549D03*
X48988Y-50549D03*
X49185Y-50549D03*
X49382Y-50549D03*
X49578Y-50549D03*
X49775Y-50549D03*
G54D31*
X52138Y-48384D03*
X52138Y-48581D03*
X52138Y-48777D03*
X52138Y-48974D03*
X52138Y-49171D03*
X52138Y-49368D03*
X52138Y-49565D03*
X52138Y-49762D03*
X52138Y-48187D03*
X52138Y-47990D03*
X52138Y-47793D03*
X52138Y-47596D03*
X52138Y-47399D03*
X52138Y-47203D03*
X52138Y-47006D03*
X52138Y-46809D03*
G54D30*
X49775Y-46021D03*
X49578Y-46021D03*
X49382Y-46021D03*
X49185Y-46021D03*
X48988Y-46021D03*
X48791Y-46021D03*
X48594Y-46021D03*
X48397Y-46021D03*
X49972Y-46021D03*
X50169Y-46021D03*
X50366Y-46021D03*
X50563Y-46021D03*
X50760Y-46021D03*
X50956Y-46021D03*
X51153Y-46021D03*
X51350Y-46021D03*
G54D31*
X47610Y-46809D03*
X47610Y-47006D03*
X47610Y-47203D03*
X47610Y-47399D03*
X47610Y-47596D03*
X47610Y-47793D03*
X47610Y-47990D03*
X47610Y-48187D03*
X47610Y-49762D03*
X47610Y-49565D03*
X47610Y-49368D03*
X47610Y-49171D03*
X47610Y-48974D03*
X47610Y-48777D03*
X47610Y-48581D03*
X47610Y-48384D03*
G54D16*
X61118Y-43019D03*
X61118Y-42665D03*
X60811Y-43019D03*
X60811Y-42665D03*
X60503Y-43019D03*
X60503Y-42665D03*
X60196Y-43019D03*
X60196Y-42665D03*
X62346Y-43019D03*
X62346Y-42665D03*
X62039Y-43019D03*
X62039Y-42665D03*
X61732Y-43019D03*
X61732Y-42665D03*
X61425Y-43019D03*
X61425Y-42665D03*
X51240Y-42799D03*
X51240Y-42445D03*
X45193Y-27944D03*
X45193Y-27590D03*
X46106Y-30614D03*
X46106Y-30968D03*
X46315Y-27196D03*
X46669Y-27196D03*
G54D26*
X45189Y-30079D03*
X45619Y-30079D03*
G54D18*
X45703Y-27197D03*
X45703Y-27947D03*
G54D32*
X45194Y-29498D03*
X45942Y-29498D03*
X45942Y-28553D03*
X45194Y-28553D03*
X45568Y-28553D03*
G54D16*
X49366Y-52535D03*
X49720Y-52535D03*
X53047Y-52417D03*
X52693Y-52417D03*
X52740Y-49724D03*
X52740Y-49370D03*
X50704Y-52507D03*
X50350Y-52507D03*
X51428Y-52039D03*
X51074Y-52039D03*
G54D21*
X45676Y-24956D03*
X65363Y-24955D03*
G54D33*
X66221Y-30430D03*
X66221Y-27201D03*
G54D34*
X52273Y-36285D03*
X52627Y-36285D03*
X51247Y-35520D03*
X51601Y-35520D03*
X52273Y-36590D03*
X52627Y-36590D03*
G54D35*
X54530Y-37031D03*
X54747Y-37031D03*
X53521Y-41553D03*
X53738Y-41553D03*
G54D36*
X56451Y-38873D03*
X56451Y-39090D03*
G54D37*
X54057Y-36243D03*
X54057Y-36583D03*
X54435Y-36243D03*
X54435Y-36583D03*
X54841Y-36243D03*
X54841Y-36583D03*
X55218Y-36243D03*
X55218Y-36583D03*
G54D36*
X55226Y-37877D03*
X55226Y-38094D03*
X55463Y-37503D03*
X55463Y-37287D03*
X55463Y-37877D03*
X55463Y-38094D03*
X55699Y-37503D03*
X55699Y-37287D03*
X55699Y-37877D03*
X55699Y-38094D03*
G54D35*
X54488Y-37474D03*
X54705Y-37474D03*
G54D36*
X54951Y-37661D03*
X54951Y-37444D03*
G54D35*
X54311Y-37159D03*
X54095Y-37159D03*
G54D36*
X54282Y-37877D03*
X54282Y-38094D03*
X54518Y-37877D03*
X54518Y-38094D03*
X54990Y-37877D03*
X54990Y-38094D03*
X54754Y-37877D03*
X54754Y-38094D03*
G54D35*
X55453Y-38419D03*
X55236Y-38419D03*
X55453Y-38655D03*
X55236Y-38655D03*
G54D36*
X56171Y-37425D03*
X56171Y-37208D03*
X55935Y-37425D03*
X55935Y-37208D03*
G54D35*
X56398Y-37789D03*
X56181Y-37789D03*
X56398Y-38025D03*
X56181Y-38025D03*
G54D36*
X55226Y-37503D03*
X55226Y-37287D03*
G54D35*
X55543Y-36243D03*
X55759Y-36243D03*
X53738Y-36244D03*
X53521Y-36244D03*
X55759Y-36007D03*
X55543Y-36007D03*
X53521Y-36007D03*
X53738Y-36007D03*
G54D36*
X55219Y-36011D03*
X55219Y-35794D03*
X54983Y-36011D03*
X54983Y-35794D03*
G54D38*
X53455Y-36824D03*
X53455Y-37178D03*
G54D35*
X53153Y-37953D03*
X53369Y-37953D03*
X52601Y-37953D03*
X52818Y-37953D03*
X52818Y-38701D03*
X52601Y-38701D03*
G54D36*
X52828Y-38455D03*
X52828Y-38239D03*
X53892Y-39670D03*
X53892Y-39453D03*
X53656Y-39670D03*
X53656Y-39453D03*
G54D35*
X54236Y-40152D03*
X54020Y-40152D03*
G54D36*
X54994Y-39670D03*
X54994Y-39453D03*
X54758Y-39670D03*
X54758Y-39453D03*
X54522Y-39670D03*
X54522Y-39453D03*
X54286Y-39670D03*
X54286Y-39453D03*
G54D35*
X54968Y-40400D03*
X55185Y-40400D03*
X54965Y-39916D03*
X55181Y-39916D03*
X54965Y-40152D03*
X55181Y-40152D03*
G54D37*
X55223Y-41317D03*
X55223Y-40977D03*
X54845Y-41317D03*
X54845Y-40977D03*
X54062Y-41318D03*
X54062Y-40978D03*
X54438Y-41318D03*
X54438Y-40978D03*
G54D36*
X54988Y-41548D03*
X54988Y-41765D03*
X54060Y-41548D03*
X54060Y-41765D03*
G54D35*
X55542Y-41316D03*
X55759Y-41316D03*
X53738Y-41317D03*
X53521Y-41317D03*
X55759Y-41554D03*
X55542Y-41554D03*
G54D36*
X55224Y-41549D03*
X55224Y-41766D03*
G54D35*
X53626Y-38583D03*
X53843Y-38583D03*
X53626Y-38819D03*
X53843Y-38819D03*
X53204Y-39145D03*
X52987Y-39145D03*
X56252Y-38544D03*
X56469Y-38544D03*
X54749Y-40528D03*
X54532Y-40528D03*
G54D36*
X54297Y-41548D03*
X54297Y-41765D03*
X54056Y-36011D03*
X54056Y-35794D03*
X54292Y-36011D03*
X54292Y-35794D03*
G54D16*
X51519Y-36183D03*
X51519Y-35829D03*
X51906Y-36287D03*
X51906Y-35933D03*
G54D33*
X66221Y-37598D03*
X66221Y-34369D03*
X66217Y-42708D03*
X66217Y-39479D03*
X66220Y-50386D03*
X66220Y-47157D03*
G54D16*
X45267Y-30968D03*
X45621Y-30968D03*
G54D39*
X48147Y-53035D03*
X49120Y-53035D03*
X50061Y-53027D03*
X51056Y-53026D03*
X52063Y-53030D03*
X53075Y-53027D03*
G54D40*
X47254Y-51364D03*
X47254Y-51364D03*
X48328Y-26249D03*
X48328Y-26249D03*
X64073Y-26458D03*
X64073Y-26458D03*
X41468Y-20713D03*
X41468Y-20713D03*
X69585Y-20640D03*
X69585Y-20640D03*
X69587Y-56693D03*
X69587Y-56693D03*
X41419Y-56784D03*
X41419Y-56784D03*
G54D35*
X54355Y-40797D03*
X54138Y-40797D03*
X54137Y-36762D03*
X54354Y-36762D03*
X55143Y-40798D03*
X54926Y-40798D03*
X54925Y-36761D03*
X55142Y-36761D03*
M02*
