M48
;DRILL file {KiCad 4.0.7-e2-6376~61~ubuntu18.04.1} date Mon Jul 28 12:51:01 2025
;FORMAT={-:-/ absolute / inch / decimal}
FMAT,2
INCH,TZ
T1C0.028
T2C0.039
%
G90
G05
M72
T1
X5.9882Y-5.2559
X6.2717Y-5.2559
T2
X4.3716Y-4.4129
X4.3716Y-4.4601
X4.3716Y-4.5073
X4.3716Y-4.5545
X4.7008Y-2.2991
X4.7037Y-5.4537
X4.748Y-2.2991
X4.7509Y-5.4537
X4.7952Y-2.2991
X4.7981Y-5.4537
X4.8424Y-2.2991
X4.8453Y-5.4537
X6.2338Y-5.4539
X6.281Y-5.4539
X6.2987Y-2.2989
X6.3282Y-5.4539
X6.3459Y-2.2989
X6.3754Y-5.4539
X6.3931Y-2.2989
X6.4403Y-2.2989
T0
M30
