G04 #@! TF.FileFunction,Soldermask,Top*
%FSLAX46Y46*%
G04 Gerber Fmt 4.6, Leading zero omitted, Abs format (unit mm)*
G04 Created by KiCad (PCBNEW 4.0.7-e2-6376~61~ubuntu18.04.1) date Mon Jul 28 12:50:59 2025*
%MOMM*%
%LPD*%
G01*
G04 APERTURE LIST*
%ADD10C,0.150000*%
%ADD11C,0.200000*%
%ADD12C,0.300000*%
%ADD13C,0.002540*%
%ADD14C,0.700000*%
%ADD15O,1.554000X2.754000*%
%ADD16O,1.554000X2.854000*%
%ADD17R,0.474000X1.104000*%
%ADD18R,0.474000X1.004000*%
%ADD19C,1.000000*%
%ADD20R,0.740000X2.400000*%
%ADD21R,1.910000X1.910000*%
%ADD22R,1.520000X1.520000*%
%ADD23R,2.200000X1.000000*%
%ADD24R,1.000000X1.000000*%
%ADD25R,1.000000X1.350000*%
%ADD26R,0.700000X1.350000*%
%ADD27R,1.350000X0.700000*%
%ADD28C,6.350000*%
%ADD29R,0.595300X0.595300*%
%ADD30R,0.797560X0.797560*%
%ADD31R,0.899160X1.399540*%
%ADD32O,1.524000X2.994660*%
%ADD33R,3.200400X1.270000*%
%ADD34R,0.700000X1.000000*%
%ADD35R,0.897560X0.798500*%
%ADD36R,0.798500X0.897560*%
%ADD37C,0.250000*%
%ADD38R,0.250000X0.400000*%
%ADD39R,2.540000X1.700000*%
%ADD40R,0.330000X0.260000*%
%ADD41R,1.050000X1.200000*%
%ADD42R,2.032000X1.524000*%
%ADD43R,1.600000X2.350000*%
%ADD44R,0.650000X0.300000*%
%ADD45R,2.350000X1.600000*%
%ADD46R,0.300000X0.650000*%
%ADD47R,1.398880X1.701140*%
%ADD48R,1.100000X1.400000*%
%ADD49R,1.700000X0.800000*%
%ADD50R,1.501140X0.759460*%
%ADD51R,1.000000X2.200000*%
%ADD52R,5.000000X1.496060*%
%ADD53R,2.500000X0.698500*%
%ADD54R,0.300000X0.350000*%
%ADD55R,0.350000X0.300000*%
%ADD56O,0.400000X0.200000*%
%ADD57R,0.200000X0.200000*%
%ADD58O,0.200000X0.400000*%
%ADD59R,4.600000X4.300000*%
%ADD60R,4.300000X0.300000*%
%ADD61R,0.760000X1.650000*%
%ADD62R,1.780000X0.410000*%
%ADD63R,0.360000X0.710000*%
%ADD64R,0.360000X1.270000*%
%ADD65R,1.000000X0.350000*%
%ADD66R,0.759460X1.648460*%
%ADD67R,0.410000X1.780000*%
%ADD68R,0.710000X0.360000*%
%ADD69R,1.270000X0.360000*%
%ADD70R,0.350000X1.000000*%
%ADD71R,1.648460X0.759460*%
%ADD72C,3.000000*%
%ADD73C,0.001000*%
%ADD74C,0.254000*%
G04 APERTURE END LIST*
D10*
D11*
X103057960Y-146451320D02*
X103080820Y-146451320D01*
X103057960Y-50419000D02*
X103057960Y-146451320D01*
X103060500Y-50416460D02*
X103060500Y-50449480D01*
X178968400Y-50416460D02*
X103060500Y-50416460D01*
X178968400Y-50464720D02*
X178968400Y-50416460D01*
X178968400Y-146451320D02*
X178968400Y-50464720D01*
X103060500Y-146451320D02*
X178968400Y-146451320D01*
X174990760Y-59098180D02*
X175021240Y-59098180D01*
X174980600Y-135610600D02*
X175011080Y-135610600D01*
X109440980Y-146453860D02*
X109440980Y-146423380D01*
X103024940Y-135171180D02*
X103055420Y-135171180D01*
X103035100Y-58658760D02*
X103065580Y-58658760D01*
X173918880Y-50416460D02*
X173918880Y-50446940D01*
X112339120Y-50391060D02*
X112339120Y-50421540D01*
X107020360Y-115686840D02*
X107015280Y-115686840D01*
X107020360Y-142471140D02*
X107020360Y-115686840D01*
X119473980Y-142471140D02*
X107020360Y-142471140D01*
X107015280Y-115686840D02*
X107015280Y-142311120D01*
X107035600Y-112087660D02*
X107027980Y-112087660D01*
X107035600Y-54394100D02*
X107035600Y-112087660D01*
X119402860Y-54394100D02*
X107035600Y-54394100D01*
X122989340Y-54394100D02*
X122989340Y-54424580D01*
X159984440Y-54394100D02*
X122989340Y-54394100D01*
X163581080Y-54416960D02*
X163581080Y-54432200D01*
X174983140Y-54416960D02*
X163581080Y-54416960D01*
X174983140Y-142575280D02*
X174983140Y-54416960D01*
X174983140Y-142580360D02*
X161945320Y-142580360D01*
X174983140Y-134713980D02*
X174983140Y-142580360D01*
X123068080Y-142476220D02*
X123068080Y-142483840D01*
X158335980Y-142519400D02*
X123070620Y-142519400D01*
X161932620Y-138523980D02*
X161932620Y-138529060D01*
X167510460Y-138523980D02*
X161932620Y-138523980D01*
X122994420Y-58392060D02*
X122994420Y-58397140D01*
X159989520Y-58392060D02*
X122994420Y-58392060D01*
X163586160Y-58402220D02*
X163586160Y-58392060D01*
X167497760Y-58402220D02*
X163586160Y-58402220D01*
X119402860Y-58397140D02*
X114523520Y-58397140D01*
X119473980Y-138523980D02*
X119473980Y-138526520D01*
X114551460Y-138523980D02*
X119473980Y-138523980D01*
X161948640Y-142583520D02*
X161948640Y-138583520D01*
X158334220Y-142517480D02*
X158334220Y-138517480D01*
X158335980Y-138529060D02*
X137594340Y-138529060D01*
X161935160Y-138526520D02*
X161935160Y-138529060D01*
X159985220Y-58395220D02*
X159985220Y-54395220D01*
X163581860Y-58423160D02*
X163581860Y-54423160D01*
X163583620Y-58394600D02*
X163583620Y-58392060D01*
X123070620Y-138521440D02*
X123070620Y-138523980D01*
X151724360Y-138521440D02*
X123070620Y-138521440D01*
X111031020Y-115684300D02*
X111036100Y-115684300D01*
X111031020Y-135016240D02*
X111031020Y-115684300D01*
X111033560Y-112097820D02*
X111036100Y-112097820D01*
X111033560Y-61899800D02*
X111033560Y-112097820D01*
X122996960Y-58399680D02*
X122996960Y-58397140D01*
X111055770Y-112088150D02*
X107055770Y-112088150D01*
X111010050Y-115687330D02*
X107010050Y-115687330D01*
X119469680Y-142471760D02*
X119469680Y-138471760D01*
X123068860Y-142517480D02*
X123068860Y-138517480D01*
X122990120Y-58413000D02*
X122990120Y-54413000D01*
X119398560Y-58400300D02*
X119398560Y-54400300D01*
D12*
X121389572Y-62128571D02*
X120675286Y-62128571D01*
X120675286Y-60628571D01*
X121889572Y-62128571D02*
X121889572Y-60628571D01*
X122389572Y-61700000D01*
X122889572Y-60628571D01*
X122889572Y-62128571D01*
X123532429Y-62057143D02*
X123746715Y-62128571D01*
X124103858Y-62128571D01*
X124246715Y-62057143D01*
X124318144Y-61985714D01*
X124389572Y-61842857D01*
X124389572Y-61700000D01*
X124318144Y-61557143D01*
X124246715Y-61485714D01*
X124103858Y-61414286D01*
X123818144Y-61342857D01*
X123675286Y-61271429D01*
X123603858Y-61200000D01*
X123532429Y-61057143D01*
X123532429Y-60914286D01*
X123603858Y-60771429D01*
X123675286Y-60700000D01*
X123818144Y-60628571D01*
X124175286Y-60628571D01*
X124389572Y-60700000D01*
X125246715Y-61271429D02*
X125103857Y-61200000D01*
X125032429Y-61128571D01*
X124961000Y-60985714D01*
X124961000Y-60914286D01*
X125032429Y-60771429D01*
X125103857Y-60700000D01*
X125246715Y-60628571D01*
X125532429Y-60628571D01*
X125675286Y-60700000D01*
X125746715Y-60771429D01*
X125818143Y-60914286D01*
X125818143Y-60985714D01*
X125746715Y-61128571D01*
X125675286Y-61200000D01*
X125532429Y-61271429D01*
X125246715Y-61271429D01*
X125103857Y-61342857D01*
X125032429Y-61414286D01*
X124961000Y-61557143D01*
X124961000Y-61842857D01*
X125032429Y-61985714D01*
X125103857Y-62057143D01*
X125246715Y-62128571D01*
X125532429Y-62128571D01*
X125675286Y-62057143D01*
X125746715Y-61985714D01*
X125818143Y-61842857D01*
X125818143Y-61557143D01*
X125746715Y-61414286D01*
X125675286Y-61342857D01*
X125532429Y-61271429D01*
X126746714Y-60628571D02*
X126889571Y-60628571D01*
X127032428Y-60700000D01*
X127103857Y-60771429D01*
X127175286Y-60914286D01*
X127246714Y-61200000D01*
X127246714Y-61557143D01*
X127175286Y-61842857D01*
X127103857Y-61985714D01*
X127032428Y-62057143D01*
X126889571Y-62128571D01*
X126746714Y-62128571D01*
X126603857Y-62057143D01*
X126532428Y-61985714D01*
X126461000Y-61842857D01*
X126389571Y-61557143D01*
X126389571Y-61200000D01*
X126461000Y-60914286D01*
X126532428Y-60771429D01*
X126603857Y-60700000D01*
X126746714Y-60628571D01*
X128175285Y-60628571D02*
X128318142Y-60628571D01*
X128460999Y-60700000D01*
X128532428Y-60771429D01*
X128603857Y-60914286D01*
X128675285Y-61200000D01*
X128675285Y-61557143D01*
X128603857Y-61842857D01*
X128532428Y-61985714D01*
X128460999Y-62057143D01*
X128318142Y-62128571D01*
X128175285Y-62128571D01*
X128032428Y-62057143D01*
X127960999Y-61985714D01*
X127889571Y-61842857D01*
X127818142Y-61557143D01*
X127818142Y-61200000D01*
X127889571Y-60914286D01*
X127960999Y-60771429D01*
X128032428Y-60700000D01*
X128175285Y-60628571D01*
X130103856Y-62128571D02*
X129246713Y-62128571D01*
X129675285Y-62128571D02*
X129675285Y-60628571D01*
X129532428Y-60842857D01*
X129389570Y-60985714D01*
X129246713Y-61057143D01*
X130746713Y-61557143D02*
X131889570Y-61557143D01*
X133460999Y-61985714D02*
X133389570Y-62057143D01*
X133175284Y-62128571D01*
X133032427Y-62128571D01*
X132818142Y-62057143D01*
X132675284Y-61914286D01*
X132603856Y-61771429D01*
X132532427Y-61485714D01*
X132532427Y-61271429D01*
X132603856Y-60985714D01*
X132675284Y-60842857D01*
X132818142Y-60700000D01*
X133032427Y-60628571D01*
X133175284Y-60628571D01*
X133389570Y-60700000D01*
X133460999Y-60771429D01*
X134318142Y-62128571D02*
X134175284Y-62057143D01*
X134103856Y-61985714D01*
X134032427Y-61842857D01*
X134032427Y-61414286D01*
X134103856Y-61271429D01*
X134175284Y-61200000D01*
X134318142Y-61128571D01*
X134532427Y-61128571D01*
X134675284Y-61200000D01*
X134746713Y-61271429D01*
X134818142Y-61414286D01*
X134818142Y-61842857D01*
X134746713Y-61985714D01*
X134675284Y-62057143D01*
X134532427Y-62128571D01*
X134318142Y-62128571D01*
X135460999Y-62128571D02*
X135460999Y-61128571D01*
X135460999Y-61271429D02*
X135532427Y-61200000D01*
X135675285Y-61128571D01*
X135889570Y-61128571D01*
X136032427Y-61200000D01*
X136103856Y-61342857D01*
X136103856Y-62128571D01*
X136103856Y-61342857D02*
X136175285Y-61200000D01*
X136318142Y-61128571D01*
X136532427Y-61128571D01*
X136675285Y-61200000D01*
X136746713Y-61342857D01*
X136746713Y-62128571D01*
X137460999Y-61128571D02*
X137460999Y-62628571D01*
X137460999Y-61200000D02*
X137603856Y-61128571D01*
X137889570Y-61128571D01*
X138032427Y-61200000D01*
X138103856Y-61271429D01*
X138175285Y-61414286D01*
X138175285Y-61842857D01*
X138103856Y-61985714D01*
X138032427Y-62057143D01*
X137889570Y-62128571D01*
X137603856Y-62128571D01*
X137460999Y-62057143D01*
X139460999Y-62128571D02*
X139460999Y-61342857D01*
X139389570Y-61200000D01*
X139246713Y-61128571D01*
X138960999Y-61128571D01*
X138818142Y-61200000D01*
X139460999Y-62057143D02*
X139318142Y-62128571D01*
X138960999Y-62128571D01*
X138818142Y-62057143D01*
X138746713Y-61914286D01*
X138746713Y-61771429D01*
X138818142Y-61628571D01*
X138960999Y-61557143D01*
X139318142Y-61557143D01*
X139460999Y-61485714D01*
X140175285Y-61128571D02*
X140175285Y-62128571D01*
X140175285Y-61271429D02*
X140246713Y-61200000D01*
X140389571Y-61128571D01*
X140603856Y-61128571D01*
X140746713Y-61200000D01*
X140818142Y-61342857D01*
X140818142Y-62128571D01*
X141532428Y-62128571D02*
X141532428Y-61128571D01*
X141532428Y-60628571D02*
X141460999Y-60700000D01*
X141532428Y-60771429D01*
X141603856Y-60700000D01*
X141532428Y-60628571D01*
X141532428Y-60771429D01*
X142461000Y-62128571D02*
X142318142Y-62057143D01*
X142246714Y-61985714D01*
X142175285Y-61842857D01*
X142175285Y-61414286D01*
X142246714Y-61271429D01*
X142318142Y-61200000D01*
X142461000Y-61128571D01*
X142675285Y-61128571D01*
X142818142Y-61200000D01*
X142889571Y-61271429D01*
X142961000Y-61414286D01*
X142961000Y-61842857D01*
X142889571Y-61985714D01*
X142818142Y-62057143D01*
X142675285Y-62128571D01*
X142461000Y-62128571D01*
X143603857Y-61128571D02*
X143603857Y-62128571D01*
X143603857Y-61271429D02*
X143675285Y-61200000D01*
X143818143Y-61128571D01*
X144032428Y-61128571D01*
X144175285Y-61200000D01*
X144246714Y-61342857D01*
X144246714Y-62128571D01*
X122889572Y-64678571D02*
X122175286Y-64678571D01*
X122175286Y-63178571D01*
X123389572Y-64678571D02*
X123389572Y-63678571D01*
X123389572Y-63178571D02*
X123318143Y-63250000D01*
X123389572Y-63321429D01*
X123461000Y-63250000D01*
X123389572Y-63178571D01*
X123389572Y-63321429D01*
X124103858Y-64678571D02*
X124103858Y-63678571D01*
X124103858Y-63821429D02*
X124175286Y-63750000D01*
X124318144Y-63678571D01*
X124532429Y-63678571D01*
X124675286Y-63750000D01*
X124746715Y-63892857D01*
X124746715Y-64678571D01*
X124746715Y-63892857D02*
X124818144Y-63750000D01*
X124961001Y-63678571D01*
X125175286Y-63678571D01*
X125318144Y-63750000D01*
X125389572Y-63892857D01*
X125389572Y-64678571D01*
X126675286Y-64607143D02*
X126532429Y-64678571D01*
X126246715Y-64678571D01*
X126103858Y-64607143D01*
X126032429Y-64464286D01*
X126032429Y-63892857D01*
X126103858Y-63750000D01*
X126246715Y-63678571D01*
X126532429Y-63678571D01*
X126675286Y-63750000D01*
X126746715Y-63892857D01*
X126746715Y-64035714D01*
X126032429Y-64178571D01*
X128532429Y-64678571D02*
X128532429Y-63178571D01*
X129032429Y-64250000D01*
X129532429Y-63178571D01*
X129532429Y-64678571D01*
X130246715Y-64678571D02*
X130246715Y-63678571D01*
X130246715Y-63178571D02*
X130175286Y-63250000D01*
X130246715Y-63321429D01*
X130318143Y-63250000D01*
X130246715Y-63178571D01*
X130246715Y-63321429D01*
X131603858Y-64607143D02*
X131461001Y-64678571D01*
X131175287Y-64678571D01*
X131032429Y-64607143D01*
X130961001Y-64535714D01*
X130889572Y-64392857D01*
X130889572Y-63964286D01*
X130961001Y-63821429D01*
X131032429Y-63750000D01*
X131175287Y-63678571D01*
X131461001Y-63678571D01*
X131603858Y-63750000D01*
X132246715Y-64678571D02*
X132246715Y-63678571D01*
X132246715Y-63964286D02*
X132318143Y-63821429D01*
X132389572Y-63750000D01*
X132532429Y-63678571D01*
X132675286Y-63678571D01*
X133389572Y-64678571D02*
X133246714Y-64607143D01*
X133175286Y-64535714D01*
X133103857Y-64392857D01*
X133103857Y-63964286D01*
X133175286Y-63821429D01*
X133246714Y-63750000D01*
X133389572Y-63678571D01*
X133603857Y-63678571D01*
X133746714Y-63750000D01*
X133818143Y-63821429D01*
X133889572Y-63964286D01*
X133889572Y-64392857D01*
X133818143Y-64535714D01*
X133746714Y-64607143D01*
X133603857Y-64678571D01*
X133389572Y-64678571D01*
X134461000Y-64607143D02*
X134603857Y-64678571D01*
X134889572Y-64678571D01*
X135032429Y-64607143D01*
X135103857Y-64464286D01*
X135103857Y-64392857D01*
X135032429Y-64250000D01*
X134889572Y-64178571D01*
X134675286Y-64178571D01*
X134532429Y-64107143D01*
X134461000Y-63964286D01*
X134461000Y-63892857D01*
X134532429Y-63750000D01*
X134675286Y-63678571D01*
X134889572Y-63678571D01*
X135032429Y-63750000D01*
X135603858Y-63678571D02*
X135961001Y-64678571D01*
X136318143Y-63678571D02*
X135961001Y-64678571D01*
X135818143Y-65035714D01*
X135746715Y-65107143D01*
X135603858Y-65178571D01*
X136818143Y-64607143D02*
X136961000Y-64678571D01*
X137246715Y-64678571D01*
X137389572Y-64607143D01*
X137461000Y-64464286D01*
X137461000Y-64392857D01*
X137389572Y-64250000D01*
X137246715Y-64178571D01*
X137032429Y-64178571D01*
X136889572Y-64107143D01*
X136818143Y-63964286D01*
X136818143Y-63892857D01*
X136889572Y-63750000D01*
X137032429Y-63678571D01*
X137246715Y-63678571D01*
X137389572Y-63750000D01*
X137889572Y-63678571D02*
X138461001Y-63678571D01*
X138103858Y-63178571D02*
X138103858Y-64464286D01*
X138175286Y-64607143D01*
X138318144Y-64678571D01*
X138461001Y-64678571D01*
X139532429Y-64607143D02*
X139389572Y-64678571D01*
X139103858Y-64678571D01*
X138961001Y-64607143D01*
X138889572Y-64464286D01*
X138889572Y-63892857D01*
X138961001Y-63750000D01*
X139103858Y-63678571D01*
X139389572Y-63678571D01*
X139532429Y-63750000D01*
X139603858Y-63892857D01*
X139603858Y-64035714D01*
X138889572Y-64178571D01*
X140246715Y-64678571D02*
X140246715Y-63678571D01*
X140246715Y-63821429D02*
X140318143Y-63750000D01*
X140461001Y-63678571D01*
X140675286Y-63678571D01*
X140818143Y-63750000D01*
X140889572Y-63892857D01*
X140889572Y-64678571D01*
X140889572Y-63892857D02*
X140961001Y-63750000D01*
X141103858Y-63678571D01*
X141318143Y-63678571D01*
X141461001Y-63750000D01*
X141532429Y-63892857D01*
X141532429Y-64678571D01*
X142175286Y-64607143D02*
X142318143Y-64678571D01*
X142603858Y-64678571D01*
X142746715Y-64607143D01*
X142818143Y-64464286D01*
X142818143Y-64392857D01*
X142746715Y-64250000D01*
X142603858Y-64178571D01*
X142389572Y-64178571D01*
X142246715Y-64107143D01*
X142175286Y-63964286D01*
X142175286Y-63892857D01*
X142246715Y-63750000D01*
X142389572Y-63678571D01*
X142603858Y-63678571D01*
X142746715Y-63750000D01*
X130318144Y-66228571D02*
X130675287Y-67228571D01*
X131032429Y-66228571D01*
X131461001Y-65728571D02*
X132389572Y-65728571D01*
X131889572Y-66300000D01*
X132103858Y-66300000D01*
X132246715Y-66371429D01*
X132318144Y-66442857D01*
X132389572Y-66585714D01*
X132389572Y-66942857D01*
X132318144Y-67085714D01*
X132246715Y-67157143D01*
X132103858Y-67228571D01*
X131675286Y-67228571D01*
X131532429Y-67157143D01*
X131461001Y-67085714D01*
X133032429Y-67085714D02*
X133103857Y-67157143D01*
X133032429Y-67228571D01*
X132961000Y-67157143D01*
X133032429Y-67085714D01*
X133032429Y-67228571D01*
X134532429Y-67228571D02*
X133675286Y-67228571D01*
X134103858Y-67228571D02*
X134103858Y-65728571D01*
X133961001Y-65942857D01*
X133818143Y-66085714D01*
X133675286Y-66157143D01*
D11*
X111031830Y-135023010D02*
G75*
G03X114534130Y-138520710I3500000J2300D01*
G01*
X167515960Y-138521900D02*
G75*
G03X171013660Y-135019600I-2300J3500000D01*
G01*
X114530720Y-58399220D02*
G75*
G03X111033020Y-61901520I2300J-3500000D01*
G01*
X171011040Y-61899380D02*
G75*
G03X167508740Y-58401680I-3500000J-2300D01*
G01*
X171013120Y-61905020D02*
X171013120Y-135000000D01*
D13*
G36*
X138544300Y-126479300D02*
X138404600Y-126479300D01*
X138341100Y-126476760D01*
X138272520Y-126474220D01*
X138203940Y-126474220D01*
X138142980Y-126471680D01*
X138130280Y-126469140D01*
X137800080Y-126448820D01*
X137485120Y-126415800D01*
X137180320Y-126372620D01*
X136885680Y-126316740D01*
X136601200Y-126250700D01*
X136326880Y-126174500D01*
X136062720Y-126085600D01*
X135803640Y-125984000D01*
X135554720Y-125872240D01*
X135399780Y-125793500D01*
X135145780Y-125653800D01*
X134901940Y-125498860D01*
X134670800Y-125331220D01*
X134449820Y-125153420D01*
X134241540Y-124962920D01*
X134043420Y-124762260D01*
X133860540Y-124548900D01*
X133687820Y-124322840D01*
X133527800Y-124086620D01*
X133380480Y-123842780D01*
X133248400Y-123583700D01*
X133126480Y-123317000D01*
X133017260Y-123042680D01*
X132923280Y-122755660D01*
X132842000Y-122458480D01*
X132808980Y-122318780D01*
X132750560Y-122019060D01*
X132702300Y-121709180D01*
X132666740Y-121391680D01*
X132643880Y-121066560D01*
X132633720Y-120733820D01*
X132633720Y-120723660D01*
X132631180Y-120596660D01*
X132669280Y-120591580D01*
X132679440Y-120591580D01*
X132707380Y-120591580D01*
X132750560Y-120589040D01*
X132808980Y-120589040D01*
X132880100Y-120589040D01*
X132966460Y-120589040D01*
X133065520Y-120589040D01*
X133177280Y-120589040D01*
X133301740Y-120589040D01*
X133433820Y-120586500D01*
X133578600Y-120586500D01*
X133733540Y-120586500D01*
X133896100Y-120586500D01*
X134066280Y-120586500D01*
X134244080Y-120586500D01*
X134432040Y-120586500D01*
X134622540Y-120586500D01*
X134820660Y-120586500D01*
X135023860Y-120586500D01*
X135229600Y-120586500D01*
X135267700Y-120586500D01*
X137833100Y-120586500D01*
X137838180Y-120627140D01*
X137861040Y-120733820D01*
X137899140Y-120837960D01*
X137952480Y-120934480D01*
X138015980Y-121023380D01*
X138092180Y-121102120D01*
X138178540Y-121170700D01*
X138259820Y-121216420D01*
X138308080Y-121239280D01*
X138358880Y-121257060D01*
X138409680Y-121272300D01*
X138455400Y-121285000D01*
X138490960Y-121290080D01*
X138496040Y-121290080D01*
X138516360Y-121290080D01*
X138531600Y-121295160D01*
X138534140Y-121295160D01*
X138534140Y-121300240D01*
X138534140Y-121305320D01*
X138536680Y-121318020D01*
X138536680Y-121330720D01*
X138539220Y-121351040D01*
X138539220Y-121373900D01*
X138539220Y-121404380D01*
X138541760Y-121439940D01*
X138541760Y-121483120D01*
X138541760Y-121533920D01*
X138541760Y-121592340D01*
X138541760Y-121658380D01*
X138544300Y-121734580D01*
X138544300Y-121820940D01*
X138544300Y-121914920D01*
X138544300Y-122021600D01*
X138544300Y-122138440D01*
X138544300Y-122267980D01*
X138544300Y-122410220D01*
X138544300Y-122562620D01*
X138544300Y-122730260D01*
X138544300Y-122913140D01*
X138544300Y-123108720D01*
X138544300Y-123319540D01*
X138544300Y-123545600D01*
X138544300Y-123789440D01*
X138544300Y-123888500D01*
X138544300Y-126479300D01*
X138544300Y-126479300D01*
X138544300Y-126479300D01*
G37*
X138544300Y-126479300D02*
X138404600Y-126479300D01*
X138341100Y-126476760D01*
X138272520Y-126474220D01*
X138203940Y-126474220D01*
X138142980Y-126471680D01*
X138130280Y-126469140D01*
X137800080Y-126448820D01*
X137485120Y-126415800D01*
X137180320Y-126372620D01*
X136885680Y-126316740D01*
X136601200Y-126250700D01*
X136326880Y-126174500D01*
X136062720Y-126085600D01*
X135803640Y-125984000D01*
X135554720Y-125872240D01*
X135399780Y-125793500D01*
X135145780Y-125653800D01*
X134901940Y-125498860D01*
X134670800Y-125331220D01*
X134449820Y-125153420D01*
X134241540Y-124962920D01*
X134043420Y-124762260D01*
X133860540Y-124548900D01*
X133687820Y-124322840D01*
X133527800Y-124086620D01*
X133380480Y-123842780D01*
X133248400Y-123583700D01*
X133126480Y-123317000D01*
X133017260Y-123042680D01*
X132923280Y-122755660D01*
X132842000Y-122458480D01*
X132808980Y-122318780D01*
X132750560Y-122019060D01*
X132702300Y-121709180D01*
X132666740Y-121391680D01*
X132643880Y-121066560D01*
X132633720Y-120733820D01*
X132633720Y-120723660D01*
X132631180Y-120596660D01*
X132669280Y-120591580D01*
X132679440Y-120591580D01*
X132707380Y-120591580D01*
X132750560Y-120589040D01*
X132808980Y-120589040D01*
X132880100Y-120589040D01*
X132966460Y-120589040D01*
X133065520Y-120589040D01*
X133177280Y-120589040D01*
X133301740Y-120589040D01*
X133433820Y-120586500D01*
X133578600Y-120586500D01*
X133733540Y-120586500D01*
X133896100Y-120586500D01*
X134066280Y-120586500D01*
X134244080Y-120586500D01*
X134432040Y-120586500D01*
X134622540Y-120586500D01*
X134820660Y-120586500D01*
X135023860Y-120586500D01*
X135229600Y-120586500D01*
X135267700Y-120586500D01*
X137833100Y-120586500D01*
X137838180Y-120627140D01*
X137861040Y-120733820D01*
X137899140Y-120837960D01*
X137952480Y-120934480D01*
X138015980Y-121023380D01*
X138092180Y-121102120D01*
X138178540Y-121170700D01*
X138259820Y-121216420D01*
X138308080Y-121239280D01*
X138358880Y-121257060D01*
X138409680Y-121272300D01*
X138455400Y-121285000D01*
X138490960Y-121290080D01*
X138496040Y-121290080D01*
X138516360Y-121290080D01*
X138531600Y-121295160D01*
X138534140Y-121295160D01*
X138534140Y-121300240D01*
X138534140Y-121305320D01*
X138536680Y-121318020D01*
X138536680Y-121330720D01*
X138539220Y-121351040D01*
X138539220Y-121373900D01*
X138539220Y-121404380D01*
X138541760Y-121439940D01*
X138541760Y-121483120D01*
X138541760Y-121533920D01*
X138541760Y-121592340D01*
X138541760Y-121658380D01*
X138544300Y-121734580D01*
X138544300Y-121820940D01*
X138544300Y-121914920D01*
X138544300Y-122021600D01*
X138544300Y-122138440D01*
X138544300Y-122267980D01*
X138544300Y-122410220D01*
X138544300Y-122562620D01*
X138544300Y-122730260D01*
X138544300Y-122913140D01*
X138544300Y-123108720D01*
X138544300Y-123319540D01*
X138544300Y-123545600D01*
X138544300Y-123789440D01*
X138544300Y-123888500D01*
X138544300Y-126479300D01*
X138544300Y-126479300D01*
G36*
X157424120Y-97701100D02*
X157408880Y-97701100D01*
X157408880Y-97701100D01*
X157408880Y-97711260D01*
X157408880Y-97734120D01*
X157406340Y-97774760D01*
X157406340Y-97830640D01*
X157406340Y-97899220D01*
X157406340Y-97980500D01*
X157406340Y-98074480D01*
X157406340Y-98178620D01*
X157406340Y-98295460D01*
X157403800Y-98419920D01*
X157403800Y-98557080D01*
X157403800Y-98699320D01*
X157403800Y-98849180D01*
X157403800Y-99006660D01*
X157403800Y-99171760D01*
X157403800Y-99339400D01*
X157403800Y-99512120D01*
X157403800Y-99689920D01*
X157403800Y-99870260D01*
X157403800Y-100050600D01*
X157403800Y-100233480D01*
X157403800Y-100416360D01*
X157403800Y-100599240D01*
X157403800Y-100782120D01*
X157403800Y-100962460D01*
X157403800Y-101140260D01*
X157403800Y-101315520D01*
X157403800Y-101485700D01*
X157403800Y-101648260D01*
X157403800Y-101808280D01*
X157403800Y-101960680D01*
X157403800Y-102108000D01*
X157403800Y-102245160D01*
X157403800Y-102372160D01*
X157403800Y-102491540D01*
X157406340Y-102600760D01*
X157406340Y-102697280D01*
X157406340Y-102781100D01*
X157406340Y-102854760D01*
X157406340Y-102913180D01*
X157406340Y-102956360D01*
X157408880Y-102984300D01*
X157408880Y-102999540D01*
X157408880Y-102999540D01*
X157419040Y-103002080D01*
X157441900Y-103004620D01*
X157454600Y-103004620D01*
X157490160Y-103007160D01*
X157538420Y-103012240D01*
X157591760Y-103022400D01*
X157645100Y-103032560D01*
X157690820Y-103045260D01*
X157698440Y-103047800D01*
X157772100Y-103073200D01*
X157848300Y-103108760D01*
X157929580Y-103157020D01*
X158015940Y-103217980D01*
X158089600Y-103273860D01*
X158132780Y-103311960D01*
X158186120Y-103360220D01*
X158249620Y-103421180D01*
X158320740Y-103489760D01*
X158399480Y-103571040D01*
X158485840Y-103657400D01*
X158574740Y-103753920D01*
X158668720Y-103855520D01*
X158767780Y-103962200D01*
X158869380Y-104073960D01*
X158902400Y-104109520D01*
X159031940Y-104254300D01*
X159151320Y-104386380D01*
X159263080Y-104508300D01*
X159364680Y-104620060D01*
X159461200Y-104721660D01*
X159552640Y-104818180D01*
X159639000Y-104904540D01*
X159720280Y-104988360D01*
X159799020Y-105067100D01*
X159877760Y-105140760D01*
X159953960Y-105211880D01*
X160032700Y-105283000D01*
X160070800Y-105316020D01*
X160332420Y-105542080D01*
X160601660Y-105750360D01*
X160873440Y-105940860D01*
X161147760Y-106116120D01*
X161429700Y-106276140D01*
X161714180Y-106418380D01*
X162001200Y-106545380D01*
X162153600Y-106606340D01*
X162450780Y-106710480D01*
X162758120Y-106796840D01*
X163070540Y-106870500D01*
X163385500Y-106928920D01*
X163705540Y-106972100D01*
X164030660Y-107000040D01*
X164205920Y-107007660D01*
X164388800Y-107012740D01*
X164388800Y-104360980D01*
X164388800Y-101709220D01*
X164355780Y-101709220D01*
X164282120Y-101704140D01*
X164200840Y-101691440D01*
X164117020Y-101673660D01*
X164038280Y-101648260D01*
X163974780Y-101622860D01*
X163923980Y-101597460D01*
X163873180Y-101569520D01*
X163822380Y-101536500D01*
X163769040Y-101500940D01*
X163713160Y-101457760D01*
X163654740Y-101409500D01*
X163591240Y-101353620D01*
X163522660Y-101290120D01*
X163449000Y-101219000D01*
X163370260Y-101137720D01*
X163281360Y-101046280D01*
X163187380Y-100944680D01*
X163085780Y-100832920D01*
X162971480Y-100711000D01*
X162872420Y-100599240D01*
X162745420Y-100459540D01*
X162628580Y-100330000D01*
X162521900Y-100210620D01*
X162420300Y-100103940D01*
X162326320Y-100002340D01*
X162239960Y-99910900D01*
X162156140Y-99824540D01*
X162077400Y-99745800D01*
X162001200Y-99669600D01*
X161925000Y-99598480D01*
X161851340Y-99527360D01*
X161777680Y-99458780D01*
X161701480Y-99390200D01*
X161696400Y-99385120D01*
X161462720Y-99187000D01*
X161221420Y-98996500D01*
X160977580Y-98821240D01*
X160728660Y-98656140D01*
X160479740Y-98506280D01*
X160228280Y-98374200D01*
X160144460Y-98331020D01*
X159857440Y-98201480D01*
X159567880Y-98084640D01*
X159278320Y-97985580D01*
X158981140Y-97901760D01*
X158681420Y-97833180D01*
X158371540Y-97777300D01*
X158054040Y-97736660D01*
X157937200Y-97726500D01*
X157891480Y-97721420D01*
X157838140Y-97718880D01*
X157779720Y-97713800D01*
X157718760Y-97711260D01*
X157657800Y-97708720D01*
X157596840Y-97706180D01*
X157540960Y-97703640D01*
X157492700Y-97701100D01*
X157452060Y-97701100D01*
X157424120Y-97701100D01*
X157424120Y-97701100D01*
X157424120Y-97701100D01*
G37*
X157424120Y-97701100D02*
X157408880Y-97701100D01*
X157408880Y-97701100D01*
X157408880Y-97711260D01*
X157408880Y-97734120D01*
X157406340Y-97774760D01*
X157406340Y-97830640D01*
X157406340Y-97899220D01*
X157406340Y-97980500D01*
X157406340Y-98074480D01*
X157406340Y-98178620D01*
X157406340Y-98295460D01*
X157403800Y-98419920D01*
X157403800Y-98557080D01*
X157403800Y-98699320D01*
X157403800Y-98849180D01*
X157403800Y-99006660D01*
X157403800Y-99171760D01*
X157403800Y-99339400D01*
X157403800Y-99512120D01*
X157403800Y-99689920D01*
X157403800Y-99870260D01*
X157403800Y-100050600D01*
X157403800Y-100233480D01*
X157403800Y-100416360D01*
X157403800Y-100599240D01*
X157403800Y-100782120D01*
X157403800Y-100962460D01*
X157403800Y-101140260D01*
X157403800Y-101315520D01*
X157403800Y-101485700D01*
X157403800Y-101648260D01*
X157403800Y-101808280D01*
X157403800Y-101960680D01*
X157403800Y-102108000D01*
X157403800Y-102245160D01*
X157403800Y-102372160D01*
X157403800Y-102491540D01*
X157406340Y-102600760D01*
X157406340Y-102697280D01*
X157406340Y-102781100D01*
X157406340Y-102854760D01*
X157406340Y-102913180D01*
X157406340Y-102956360D01*
X157408880Y-102984300D01*
X157408880Y-102999540D01*
X157408880Y-102999540D01*
X157419040Y-103002080D01*
X157441900Y-103004620D01*
X157454600Y-103004620D01*
X157490160Y-103007160D01*
X157538420Y-103012240D01*
X157591760Y-103022400D01*
X157645100Y-103032560D01*
X157690820Y-103045260D01*
X157698440Y-103047800D01*
X157772100Y-103073200D01*
X157848300Y-103108760D01*
X157929580Y-103157020D01*
X158015940Y-103217980D01*
X158089600Y-103273860D01*
X158132780Y-103311960D01*
X158186120Y-103360220D01*
X158249620Y-103421180D01*
X158320740Y-103489760D01*
X158399480Y-103571040D01*
X158485840Y-103657400D01*
X158574740Y-103753920D01*
X158668720Y-103855520D01*
X158767780Y-103962200D01*
X158869380Y-104073960D01*
X158902400Y-104109520D01*
X159031940Y-104254300D01*
X159151320Y-104386380D01*
X159263080Y-104508300D01*
X159364680Y-104620060D01*
X159461200Y-104721660D01*
X159552640Y-104818180D01*
X159639000Y-104904540D01*
X159720280Y-104988360D01*
X159799020Y-105067100D01*
X159877760Y-105140760D01*
X159953960Y-105211880D01*
X160032700Y-105283000D01*
X160070800Y-105316020D01*
X160332420Y-105542080D01*
X160601660Y-105750360D01*
X160873440Y-105940860D01*
X161147760Y-106116120D01*
X161429700Y-106276140D01*
X161714180Y-106418380D01*
X162001200Y-106545380D01*
X162153600Y-106606340D01*
X162450780Y-106710480D01*
X162758120Y-106796840D01*
X163070540Y-106870500D01*
X163385500Y-106928920D01*
X163705540Y-106972100D01*
X164030660Y-107000040D01*
X164205920Y-107007660D01*
X164388800Y-107012740D01*
X164388800Y-104360980D01*
X164388800Y-101709220D01*
X164355780Y-101709220D01*
X164282120Y-101704140D01*
X164200840Y-101691440D01*
X164117020Y-101673660D01*
X164038280Y-101648260D01*
X163974780Y-101622860D01*
X163923980Y-101597460D01*
X163873180Y-101569520D01*
X163822380Y-101536500D01*
X163769040Y-101500940D01*
X163713160Y-101457760D01*
X163654740Y-101409500D01*
X163591240Y-101353620D01*
X163522660Y-101290120D01*
X163449000Y-101219000D01*
X163370260Y-101137720D01*
X163281360Y-101046280D01*
X163187380Y-100944680D01*
X163085780Y-100832920D01*
X162971480Y-100711000D01*
X162872420Y-100599240D01*
X162745420Y-100459540D01*
X162628580Y-100330000D01*
X162521900Y-100210620D01*
X162420300Y-100103940D01*
X162326320Y-100002340D01*
X162239960Y-99910900D01*
X162156140Y-99824540D01*
X162077400Y-99745800D01*
X162001200Y-99669600D01*
X161925000Y-99598480D01*
X161851340Y-99527360D01*
X161777680Y-99458780D01*
X161701480Y-99390200D01*
X161696400Y-99385120D01*
X161462720Y-99187000D01*
X161221420Y-98996500D01*
X160977580Y-98821240D01*
X160728660Y-98656140D01*
X160479740Y-98506280D01*
X160228280Y-98374200D01*
X160144460Y-98331020D01*
X159857440Y-98201480D01*
X159567880Y-98084640D01*
X159278320Y-97985580D01*
X158981140Y-97901760D01*
X158681420Y-97833180D01*
X158371540Y-97777300D01*
X158054040Y-97736660D01*
X157937200Y-97726500D01*
X157891480Y-97721420D01*
X157838140Y-97718880D01*
X157779720Y-97713800D01*
X157718760Y-97711260D01*
X157657800Y-97708720D01*
X157596840Y-97706180D01*
X157540960Y-97703640D01*
X157492700Y-97701100D01*
X157452060Y-97701100D01*
X157424120Y-97701100D01*
X157424120Y-97701100D01*
G36*
X157463920Y-98075440D02*
X157448680Y-98075440D01*
X157448680Y-98075440D01*
X157448680Y-98065280D01*
X157448680Y-98042420D01*
X157446140Y-98001780D01*
X157446140Y-97945900D01*
X157446140Y-97877320D01*
X157446140Y-97796040D01*
X157446140Y-97702060D01*
X157446140Y-97597920D01*
X157446140Y-97481080D01*
X157443600Y-97356620D01*
X157443600Y-97219460D01*
X157443600Y-97077220D01*
X157443600Y-96927360D01*
X157443600Y-96769880D01*
X157443600Y-96604780D01*
X157443600Y-96437140D01*
X157443600Y-96264420D01*
X157443600Y-96086620D01*
X157443600Y-95906280D01*
X157443600Y-95725940D01*
X157443600Y-95543060D01*
X157443600Y-95360180D01*
X157443600Y-95177300D01*
X157443600Y-94994420D01*
X157443600Y-94814080D01*
X157443600Y-94636280D01*
X157443600Y-94461020D01*
X157443600Y-94290840D01*
X157443600Y-94128280D01*
X157443600Y-93968260D01*
X157443600Y-93815860D01*
X157443600Y-93668540D01*
X157443600Y-93531380D01*
X157443600Y-93404380D01*
X157443600Y-93285000D01*
X157446140Y-93175780D01*
X157446140Y-93079260D01*
X157446140Y-92995440D01*
X157446140Y-92921780D01*
X157446140Y-92863360D01*
X157446140Y-92820180D01*
X157448680Y-92792240D01*
X157448680Y-92777000D01*
X157448680Y-92777000D01*
X157458840Y-92774460D01*
X157481700Y-92771920D01*
X157494400Y-92771920D01*
X157529960Y-92769380D01*
X157578220Y-92764300D01*
X157631560Y-92754140D01*
X157684900Y-92743980D01*
X157730620Y-92731280D01*
X157738240Y-92728740D01*
X157811900Y-92703340D01*
X157888100Y-92667780D01*
X157969380Y-92619520D01*
X158055740Y-92558560D01*
X158129400Y-92502680D01*
X158172580Y-92464580D01*
X158225920Y-92416320D01*
X158289420Y-92355360D01*
X158360540Y-92286780D01*
X158439280Y-92205500D01*
X158525640Y-92119140D01*
X158614540Y-92022620D01*
X158708520Y-91921020D01*
X158807580Y-91814340D01*
X158909180Y-91702580D01*
X158942200Y-91667020D01*
X159071740Y-91522240D01*
X159191120Y-91390160D01*
X159302880Y-91268240D01*
X159404480Y-91156480D01*
X159501000Y-91054880D01*
X159592440Y-90958360D01*
X159678800Y-90872000D01*
X159760080Y-90788180D01*
X159838820Y-90709440D01*
X159917560Y-90635780D01*
X159993760Y-90564660D01*
X160072500Y-90493540D01*
X160110600Y-90460520D01*
X160372220Y-90234460D01*
X160641460Y-90026180D01*
X160913240Y-89835680D01*
X161187560Y-89660420D01*
X161469500Y-89500400D01*
X161753980Y-89358160D01*
X162041000Y-89231160D01*
X162193400Y-89170200D01*
X162490580Y-89066060D01*
X162797920Y-88979700D01*
X163110340Y-88906040D01*
X163425300Y-88847620D01*
X163745340Y-88804440D01*
X164070460Y-88776500D01*
X164245720Y-88768880D01*
X164428600Y-88763800D01*
X164428600Y-91415560D01*
X164428600Y-94067320D01*
X164395580Y-94067320D01*
X164321920Y-94072400D01*
X164240640Y-94085100D01*
X164156820Y-94102880D01*
X164078080Y-94128280D01*
X164014580Y-94153680D01*
X163963780Y-94179080D01*
X163912980Y-94207020D01*
X163862180Y-94240040D01*
X163808840Y-94275600D01*
X163752960Y-94318780D01*
X163694540Y-94367040D01*
X163631040Y-94422920D01*
X163562460Y-94486420D01*
X163488800Y-94557540D01*
X163410060Y-94638820D01*
X163321160Y-94730260D01*
X163227180Y-94831860D01*
X163125580Y-94943620D01*
X163011280Y-95065540D01*
X162912220Y-95177300D01*
X162785220Y-95317000D01*
X162668380Y-95446540D01*
X162561700Y-95565920D01*
X162460100Y-95672600D01*
X162366120Y-95774200D01*
X162279760Y-95865640D01*
X162195940Y-95952000D01*
X162117200Y-96030740D01*
X162041000Y-96106940D01*
X161964800Y-96178060D01*
X161891140Y-96249180D01*
X161817480Y-96317760D01*
X161741280Y-96386340D01*
X161736200Y-96391420D01*
X161502520Y-96589540D01*
X161261220Y-96780040D01*
X161017380Y-96955300D01*
X160768460Y-97120400D01*
X160519540Y-97270260D01*
X160268080Y-97402340D01*
X160184260Y-97445520D01*
X159897240Y-97575060D01*
X159607680Y-97691900D01*
X159318120Y-97790960D01*
X159020940Y-97874780D01*
X158721220Y-97943360D01*
X158411340Y-97999240D01*
X158093840Y-98039880D01*
X157977000Y-98050040D01*
X157931280Y-98055120D01*
X157877940Y-98057660D01*
X157819520Y-98062740D01*
X157758560Y-98065280D01*
X157697600Y-98067820D01*
X157636640Y-98070360D01*
X157580760Y-98072900D01*
X157532500Y-98075440D01*
X157491860Y-98075440D01*
X157463920Y-98075440D01*
X157463920Y-98075440D01*
X157463920Y-98075440D01*
G37*
X157463920Y-98075440D02*
X157448680Y-98075440D01*
X157448680Y-98075440D01*
X157448680Y-98065280D01*
X157448680Y-98042420D01*
X157446140Y-98001780D01*
X157446140Y-97945900D01*
X157446140Y-97877320D01*
X157446140Y-97796040D01*
X157446140Y-97702060D01*
X157446140Y-97597920D01*
X157446140Y-97481080D01*
X157443600Y-97356620D01*
X157443600Y-97219460D01*
X157443600Y-97077220D01*
X157443600Y-96927360D01*
X157443600Y-96769880D01*
X157443600Y-96604780D01*
X157443600Y-96437140D01*
X157443600Y-96264420D01*
X157443600Y-96086620D01*
X157443600Y-95906280D01*
X157443600Y-95725940D01*
X157443600Y-95543060D01*
X157443600Y-95360180D01*
X157443600Y-95177300D01*
X157443600Y-94994420D01*
X157443600Y-94814080D01*
X157443600Y-94636280D01*
X157443600Y-94461020D01*
X157443600Y-94290840D01*
X157443600Y-94128280D01*
X157443600Y-93968260D01*
X157443600Y-93815860D01*
X157443600Y-93668540D01*
X157443600Y-93531380D01*
X157443600Y-93404380D01*
X157443600Y-93285000D01*
X157446140Y-93175780D01*
X157446140Y-93079260D01*
X157446140Y-92995440D01*
X157446140Y-92921780D01*
X157446140Y-92863360D01*
X157446140Y-92820180D01*
X157448680Y-92792240D01*
X157448680Y-92777000D01*
X157448680Y-92777000D01*
X157458840Y-92774460D01*
X157481700Y-92771920D01*
X157494400Y-92771920D01*
X157529960Y-92769380D01*
X157578220Y-92764300D01*
X157631560Y-92754140D01*
X157684900Y-92743980D01*
X157730620Y-92731280D01*
X157738240Y-92728740D01*
X157811900Y-92703340D01*
X157888100Y-92667780D01*
X157969380Y-92619520D01*
X158055740Y-92558560D01*
X158129400Y-92502680D01*
X158172580Y-92464580D01*
X158225920Y-92416320D01*
X158289420Y-92355360D01*
X158360540Y-92286780D01*
X158439280Y-92205500D01*
X158525640Y-92119140D01*
X158614540Y-92022620D01*
X158708520Y-91921020D01*
X158807580Y-91814340D01*
X158909180Y-91702580D01*
X158942200Y-91667020D01*
X159071740Y-91522240D01*
X159191120Y-91390160D01*
X159302880Y-91268240D01*
X159404480Y-91156480D01*
X159501000Y-91054880D01*
X159592440Y-90958360D01*
X159678800Y-90872000D01*
X159760080Y-90788180D01*
X159838820Y-90709440D01*
X159917560Y-90635780D01*
X159993760Y-90564660D01*
X160072500Y-90493540D01*
X160110600Y-90460520D01*
X160372220Y-90234460D01*
X160641460Y-90026180D01*
X160913240Y-89835680D01*
X161187560Y-89660420D01*
X161469500Y-89500400D01*
X161753980Y-89358160D01*
X162041000Y-89231160D01*
X162193400Y-89170200D01*
X162490580Y-89066060D01*
X162797920Y-88979700D01*
X163110340Y-88906040D01*
X163425300Y-88847620D01*
X163745340Y-88804440D01*
X164070460Y-88776500D01*
X164245720Y-88768880D01*
X164428600Y-88763800D01*
X164428600Y-91415560D01*
X164428600Y-94067320D01*
X164395580Y-94067320D01*
X164321920Y-94072400D01*
X164240640Y-94085100D01*
X164156820Y-94102880D01*
X164078080Y-94128280D01*
X164014580Y-94153680D01*
X163963780Y-94179080D01*
X163912980Y-94207020D01*
X163862180Y-94240040D01*
X163808840Y-94275600D01*
X163752960Y-94318780D01*
X163694540Y-94367040D01*
X163631040Y-94422920D01*
X163562460Y-94486420D01*
X163488800Y-94557540D01*
X163410060Y-94638820D01*
X163321160Y-94730260D01*
X163227180Y-94831860D01*
X163125580Y-94943620D01*
X163011280Y-95065540D01*
X162912220Y-95177300D01*
X162785220Y-95317000D01*
X162668380Y-95446540D01*
X162561700Y-95565920D01*
X162460100Y-95672600D01*
X162366120Y-95774200D01*
X162279760Y-95865640D01*
X162195940Y-95952000D01*
X162117200Y-96030740D01*
X162041000Y-96106940D01*
X161964800Y-96178060D01*
X161891140Y-96249180D01*
X161817480Y-96317760D01*
X161741280Y-96386340D01*
X161736200Y-96391420D01*
X161502520Y-96589540D01*
X161261220Y-96780040D01*
X161017380Y-96955300D01*
X160768460Y-97120400D01*
X160519540Y-97270260D01*
X160268080Y-97402340D01*
X160184260Y-97445520D01*
X159897240Y-97575060D01*
X159607680Y-97691900D01*
X159318120Y-97790960D01*
X159020940Y-97874780D01*
X158721220Y-97943360D01*
X158411340Y-97999240D01*
X158093840Y-98039880D01*
X157977000Y-98050040D01*
X157931280Y-98055120D01*
X157877940Y-98057660D01*
X157819520Y-98062740D01*
X157758560Y-98065280D01*
X157697600Y-98067820D01*
X157636640Y-98070360D01*
X157580760Y-98072900D01*
X157532500Y-98075440D01*
X157491860Y-98075440D01*
X157463920Y-98075440D01*
X157463920Y-98075440D01*
G36*
X132725160Y-76502260D02*
X132725160Y-76362560D01*
X132727700Y-76299060D01*
X132730240Y-76230480D01*
X132730240Y-76161900D01*
X132732780Y-76100940D01*
X132735320Y-76088240D01*
X132755640Y-75758040D01*
X132788660Y-75443080D01*
X132831840Y-75138280D01*
X132887720Y-74843640D01*
X132953760Y-74559160D01*
X133029960Y-74284840D01*
X133118860Y-74020680D01*
X133220460Y-73761600D01*
X133332220Y-73512680D01*
X133410960Y-73357740D01*
X133550660Y-73103740D01*
X133705600Y-72859900D01*
X133873240Y-72628760D01*
X134051040Y-72407780D01*
X134241540Y-72199500D01*
X134442200Y-72001380D01*
X134655560Y-71818500D01*
X134881620Y-71645780D01*
X135117840Y-71485760D01*
X135361680Y-71338440D01*
X135620760Y-71206360D01*
X135887460Y-71084440D01*
X136161780Y-70975220D01*
X136448800Y-70881240D01*
X136745980Y-70799960D01*
X136885680Y-70766940D01*
X137185400Y-70708520D01*
X137495280Y-70660260D01*
X137812780Y-70624700D01*
X138137900Y-70601840D01*
X138470640Y-70591680D01*
X138480800Y-70591680D01*
X138607800Y-70589140D01*
X138612880Y-70627240D01*
X138612880Y-70637400D01*
X138612880Y-70665340D01*
X138615420Y-70708520D01*
X138615420Y-70766940D01*
X138615420Y-70838060D01*
X138615420Y-70924420D01*
X138615420Y-71023480D01*
X138615420Y-71135240D01*
X138615420Y-71259700D01*
X138617960Y-71391780D01*
X138617960Y-71536560D01*
X138617960Y-71691500D01*
X138617960Y-71854060D01*
X138617960Y-72024240D01*
X138617960Y-72202040D01*
X138617960Y-72390000D01*
X138617960Y-72580500D01*
X138617960Y-72778620D01*
X138617960Y-72981820D01*
X138617960Y-73187560D01*
X138617960Y-73225660D01*
X138617960Y-75791060D01*
X138577320Y-75796140D01*
X138470640Y-75819000D01*
X138366500Y-75857100D01*
X138269980Y-75910440D01*
X138181080Y-75973940D01*
X138102340Y-76050140D01*
X138033760Y-76136500D01*
X137988040Y-76217780D01*
X137965180Y-76266040D01*
X137947400Y-76316840D01*
X137932160Y-76367640D01*
X137919460Y-76413360D01*
X137914380Y-76448920D01*
X137914380Y-76454000D01*
X137914380Y-76474320D01*
X137909300Y-76489560D01*
X137909300Y-76492100D01*
X137904220Y-76492100D01*
X137899140Y-76492100D01*
X137886440Y-76494640D01*
X137873740Y-76494640D01*
X137853420Y-76497180D01*
X137830560Y-76497180D01*
X137800080Y-76497180D01*
X137764520Y-76499720D01*
X137721340Y-76499720D01*
X137670540Y-76499720D01*
X137612120Y-76499720D01*
X137546080Y-76499720D01*
X137469880Y-76502260D01*
X137383520Y-76502260D01*
X137289540Y-76502260D01*
X137182860Y-76502260D01*
X137066020Y-76502260D01*
X136936480Y-76502260D01*
X136794240Y-76502260D01*
X136641840Y-76502260D01*
X136474200Y-76502260D01*
X136291320Y-76502260D01*
X136095740Y-76502260D01*
X135884920Y-76502260D01*
X135658860Y-76502260D01*
X135415020Y-76502260D01*
X135315960Y-76502260D01*
X132725160Y-76502260D01*
X132725160Y-76502260D01*
X132725160Y-76502260D01*
G37*
X132725160Y-76502260D02*
X132725160Y-76362560D01*
X132727700Y-76299060D01*
X132730240Y-76230480D01*
X132730240Y-76161900D01*
X132732780Y-76100940D01*
X132735320Y-76088240D01*
X132755640Y-75758040D01*
X132788660Y-75443080D01*
X132831840Y-75138280D01*
X132887720Y-74843640D01*
X132953760Y-74559160D01*
X133029960Y-74284840D01*
X133118860Y-74020680D01*
X133220460Y-73761600D01*
X133332220Y-73512680D01*
X133410960Y-73357740D01*
X133550660Y-73103740D01*
X133705600Y-72859900D01*
X133873240Y-72628760D01*
X134051040Y-72407780D01*
X134241540Y-72199500D01*
X134442200Y-72001380D01*
X134655560Y-71818500D01*
X134881620Y-71645780D01*
X135117840Y-71485760D01*
X135361680Y-71338440D01*
X135620760Y-71206360D01*
X135887460Y-71084440D01*
X136161780Y-70975220D01*
X136448800Y-70881240D01*
X136745980Y-70799960D01*
X136885680Y-70766940D01*
X137185400Y-70708520D01*
X137495280Y-70660260D01*
X137812780Y-70624700D01*
X138137900Y-70601840D01*
X138470640Y-70591680D01*
X138480800Y-70591680D01*
X138607800Y-70589140D01*
X138612880Y-70627240D01*
X138612880Y-70637400D01*
X138612880Y-70665340D01*
X138615420Y-70708520D01*
X138615420Y-70766940D01*
X138615420Y-70838060D01*
X138615420Y-70924420D01*
X138615420Y-71023480D01*
X138615420Y-71135240D01*
X138615420Y-71259700D01*
X138617960Y-71391780D01*
X138617960Y-71536560D01*
X138617960Y-71691500D01*
X138617960Y-71854060D01*
X138617960Y-72024240D01*
X138617960Y-72202040D01*
X138617960Y-72390000D01*
X138617960Y-72580500D01*
X138617960Y-72778620D01*
X138617960Y-72981820D01*
X138617960Y-73187560D01*
X138617960Y-73225660D01*
X138617960Y-75791060D01*
X138577320Y-75796140D01*
X138470640Y-75819000D01*
X138366500Y-75857100D01*
X138269980Y-75910440D01*
X138181080Y-75973940D01*
X138102340Y-76050140D01*
X138033760Y-76136500D01*
X137988040Y-76217780D01*
X137965180Y-76266040D01*
X137947400Y-76316840D01*
X137932160Y-76367640D01*
X137919460Y-76413360D01*
X137914380Y-76448920D01*
X137914380Y-76454000D01*
X137914380Y-76474320D01*
X137909300Y-76489560D01*
X137909300Y-76492100D01*
X137904220Y-76492100D01*
X137899140Y-76492100D01*
X137886440Y-76494640D01*
X137873740Y-76494640D01*
X137853420Y-76497180D01*
X137830560Y-76497180D01*
X137800080Y-76497180D01*
X137764520Y-76499720D01*
X137721340Y-76499720D01*
X137670540Y-76499720D01*
X137612120Y-76499720D01*
X137546080Y-76499720D01*
X137469880Y-76502260D01*
X137383520Y-76502260D01*
X137289540Y-76502260D01*
X137182860Y-76502260D01*
X137066020Y-76502260D01*
X136936480Y-76502260D01*
X136794240Y-76502260D01*
X136641840Y-76502260D01*
X136474200Y-76502260D01*
X136291320Y-76502260D01*
X136095740Y-76502260D01*
X135884920Y-76502260D01*
X135658860Y-76502260D01*
X135415020Y-76502260D01*
X135315960Y-76502260D01*
X132725160Y-76502260D01*
X132725160Y-76502260D01*
D14*
X152100000Y-133500000D03*
X159300000Y-133500000D03*
D15*
X151380000Y-131500000D03*
X160020000Y-131500000D03*
D16*
X151380000Y-136550000D03*
X160020000Y-136550000D03*
D17*
X153075000Y-130800000D03*
D18*
X158325000Y-132400000D03*
D17*
X153575000Y-130800000D03*
X154075000Y-130800000D03*
X154575000Y-130800000D03*
X155075000Y-130800000D03*
X155575000Y-130800000D03*
X156075000Y-130800000D03*
X156575000Y-130800000D03*
X157075000Y-130800000D03*
X157575000Y-130800000D03*
X158075000Y-130800000D03*
X158575000Y-130800000D03*
D18*
X157825000Y-132400000D03*
X157325000Y-132400000D03*
X156825000Y-132400000D03*
X156325000Y-132400000D03*
X155825000Y-132400000D03*
X155325000Y-132400000D03*
X154825000Y-132400000D03*
X154325000Y-132400000D03*
X153825000Y-132400000D03*
X153325000Y-132400000D03*
X152825000Y-132400000D03*
D19*
X159537400Y-138529060D03*
X158338520Y-138529060D03*
X160736280Y-138529060D03*
X161935160Y-138529060D03*
X163583620Y-58392060D03*
X162384740Y-58392060D03*
X159986980Y-58392060D03*
X161185860Y-58392060D03*
X123070620Y-138523980D03*
X121871740Y-138523980D03*
X119473980Y-138523980D03*
X120672860Y-138523980D03*
X120599200Y-58397140D03*
X119400320Y-58397140D03*
X121798080Y-58397140D03*
X122996960Y-58397140D03*
X111038640Y-113286540D03*
X111038640Y-112087660D03*
X111038640Y-114485420D03*
X111038640Y-115684300D03*
D20*
X130324860Y-120500860D03*
X130324860Y-124400860D03*
X129054860Y-120500860D03*
X129054860Y-124400860D03*
X127784860Y-120500860D03*
X127784860Y-124400860D03*
X126514860Y-120500860D03*
X126514860Y-124400860D03*
X125244860Y-120500860D03*
X125244860Y-124400860D03*
D21*
X124106200Y-78843200D03*
X124106200Y-74103200D03*
D22*
X121736200Y-76473200D03*
D21*
X119366200Y-74103200D03*
X119366200Y-78843200D03*
D23*
X156590000Y-67080000D03*
X156590000Y-64180000D03*
D24*
X158090000Y-65630000D03*
X155090000Y-65630000D03*
D25*
X120760820Y-90869620D03*
X120760820Y-87019620D03*
X123060820Y-90869620D03*
X123060820Y-87019620D03*
D26*
X121910820Y-90869620D03*
D27*
X120935820Y-89544620D03*
X120935820Y-88344620D03*
X122885820Y-88335020D03*
X122885820Y-89544620D03*
D26*
X121915900Y-87019620D03*
D28*
X116062760Y-133535420D03*
X166067740Y-133532880D03*
D29*
X160260820Y-114895060D03*
X161159980Y-114895060D03*
D30*
X164035580Y-114903340D03*
X162435380Y-114903340D03*
D31*
X149262500Y-133780000D03*
X147357500Y-133780000D03*
D29*
X149249580Y-135130000D03*
X148350420Y-135130000D03*
X161550420Y-131400000D03*
X162449580Y-131400000D03*
X161550420Y-130400000D03*
X162449580Y-130400000D03*
X119765980Y-124678800D03*
X118866820Y-124678800D03*
X119765980Y-128228800D03*
X118866820Y-128228800D03*
X119765980Y-126478800D03*
X118866820Y-126478800D03*
D32*
X146645000Y-127390000D03*
X141565000Y-127390000D03*
X144105000Y-127390000D03*
D33*
X144129200Y-136331400D03*
X144129200Y-133791400D03*
X144129200Y-131251400D03*
X139127940Y-136331400D03*
X139127940Y-133791400D03*
X139127940Y-131251400D03*
D30*
X115966300Y-124678800D03*
X117566500Y-124678800D03*
X115966300Y-126478800D03*
X117566500Y-126478800D03*
X115966300Y-128228800D03*
X117566500Y-128228800D03*
D34*
X117710000Y-118890000D03*
X119610000Y-118890000D03*
X119610000Y-121290000D03*
X117710000Y-121290000D03*
X118660000Y-121290000D03*
D29*
X122100000Y-106000420D03*
X122100000Y-106899580D03*
X122026680Y-133896100D03*
X122026680Y-132996940D03*
X131463650Y-133390170D03*
X130564490Y-133390170D03*
X124609070Y-135625590D03*
X124609070Y-136524750D03*
X122026680Y-134719060D03*
X122026680Y-135618220D03*
X125927250Y-106273430D03*
X125028090Y-106273430D03*
X117711570Y-116843090D03*
X117711570Y-117742250D03*
X117711570Y-116842250D03*
X117711570Y-115943090D03*
X120791570Y-113278090D03*
X120791570Y-114177250D03*
X120791570Y-113277250D03*
X120791570Y-112378090D03*
X118450000Y-108770420D03*
X118450000Y-109669580D03*
X116620420Y-109670000D03*
X117519580Y-109670000D03*
X126972670Y-106283010D03*
X126972670Y-105383850D03*
X124792250Y-107258430D03*
X123893090Y-107258430D03*
X129554490Y-136075170D03*
X130453650Y-136075170D03*
X124619070Y-134734750D03*
X124619070Y-133835590D03*
X126073090Y-107248430D03*
X126972250Y-107248430D03*
D35*
X116620000Y-107593900D03*
X116620000Y-108686100D03*
D36*
X118176100Y-114810000D03*
X117083900Y-114810000D03*
D35*
X119710000Y-113263900D03*
X119710000Y-114356100D03*
X115430000Y-116853900D03*
X115430000Y-117946100D03*
D36*
X115376100Y-114830000D03*
X114283900Y-114830000D03*
D31*
X131476570Y-134740170D03*
X129571570Y-134740170D03*
D37*
X116256570Y-110882670D03*
D38*
X116256570Y-110682670D03*
X115756570Y-110682670D03*
D37*
X115756570Y-110882670D03*
X116756570Y-110882670D03*
D38*
X116756570Y-110682670D03*
X117256570Y-110682670D03*
D37*
X117256570Y-110882670D03*
X117256570Y-113332670D03*
D38*
X117256570Y-113532670D03*
X116756570Y-113532670D03*
D37*
X116756570Y-113332670D03*
X115756570Y-113332670D03*
D38*
X115756570Y-113532670D03*
X116256570Y-113532670D03*
D37*
X116256570Y-113332670D03*
D39*
X116506570Y-112107670D03*
D40*
X135390000Y-135065000D03*
X135390000Y-134565000D03*
X135390000Y-134065000D03*
X133520000Y-134065000D03*
X133520000Y-134565000D03*
X133520000Y-135065000D03*
D41*
X134455000Y-134565000D03*
D42*
X134460000Y-131241000D03*
X134460000Y-127939000D03*
D43*
X127024070Y-135715170D03*
D44*
X128399070Y-136040170D03*
X128399070Y-135390170D03*
X128399070Y-134740170D03*
X128399070Y-136690650D03*
X125649070Y-136690650D03*
X125649070Y-134739930D03*
X125649070Y-135390170D03*
X125649070Y-136040170D03*
D45*
X125107670Y-109708430D03*
D46*
X124782670Y-111083430D03*
X125432670Y-111083430D03*
X126082670Y-111083430D03*
X124132190Y-111083430D03*
X124132190Y-108333430D03*
X126082910Y-108333430D03*
X125432670Y-108333430D03*
X124782670Y-108333430D03*
D47*
X113906180Y-86799620D03*
X113906180Y-81719620D03*
X118305460Y-81719620D03*
X118305460Y-86799620D03*
D48*
X116105820Y-81209620D03*
X116105820Y-87309620D03*
D35*
X123690000Y-82796100D03*
X123690000Y-81703900D03*
X122540000Y-82816100D03*
X122540000Y-81723900D03*
D29*
X117482620Y-79799180D03*
X116583460Y-79799180D03*
X119895820Y-81484200D03*
X119895820Y-80585040D03*
X121550820Y-80585040D03*
X121550820Y-81484200D03*
X120715820Y-80585040D03*
X120715820Y-81484200D03*
X120135820Y-83539200D03*
X120135820Y-82640040D03*
X123630820Y-85329200D03*
X123630820Y-84430040D03*
X122830820Y-84430040D03*
X122830820Y-85329200D03*
X122030820Y-84430040D03*
X122030820Y-85329200D03*
X119273740Y-92627120D03*
X120172900Y-92627120D03*
X117725400Y-88959620D03*
X116826240Y-88959620D03*
X121072900Y-92622120D03*
X120173740Y-92622120D03*
X124495820Y-89544200D03*
X124495820Y-88645040D03*
X117726240Y-88959620D03*
X118625400Y-88959620D03*
X120135820Y-84439200D03*
X120135820Y-83540040D03*
X118615400Y-89964620D03*
X117716240Y-89964620D03*
X144249640Y-67314860D03*
X143350480Y-67314860D03*
D30*
X140299900Y-67320000D03*
X141900100Y-67320000D03*
D29*
X124600000Y-131800420D03*
X124600000Y-132699580D03*
X125540000Y-131800420D03*
X125540000Y-132699580D03*
D49*
X113817400Y-122832600D03*
X113817400Y-119432600D03*
D50*
X131590000Y-129580000D03*
X131590000Y-128310000D03*
X123990320Y-128310000D03*
X123990320Y-129580000D03*
D28*
X116017040Y-63388240D03*
X166022020Y-63385700D03*
D23*
X118181120Y-100602120D03*
X118181120Y-103502120D03*
D24*
X116681120Y-102052120D03*
X119681120Y-102052120D03*
D51*
X142473340Y-77320140D03*
X139573340Y-77320140D03*
D24*
X141023340Y-75820140D03*
X141023340Y-78820140D03*
D51*
X142113340Y-119616220D03*
X145013340Y-119616220D03*
D24*
X143563340Y-121116220D03*
X143563340Y-118116220D03*
D52*
X168201340Y-69092640D03*
X168201340Y-77292640D03*
D53*
X169451340Y-73192640D03*
D23*
X118160800Y-95677060D03*
X118160800Y-98577060D03*
D24*
X116660800Y-97127060D03*
X119660800Y-97127060D03*
D54*
X140065900Y-93967840D03*
X139515900Y-93967840D03*
D55*
X140075380Y-93148100D03*
X140075380Y-92598100D03*
X139486100Y-93143020D03*
X139486100Y-92593020D03*
D54*
X138064380Y-93962760D03*
X137514380Y-93962760D03*
D55*
X138089100Y-93145560D03*
X138089100Y-92595560D03*
X137492200Y-93148100D03*
X137492200Y-92598100D03*
D10*
G36*
X132321784Y-92837624D02*
X132074296Y-92590136D01*
X132286428Y-92378004D01*
X132533916Y-92625492D01*
X132321784Y-92837624D01*
X132321784Y-92837624D01*
G37*
G36*
X132710692Y-92448716D02*
X132463204Y-92201228D01*
X132675336Y-91989096D01*
X132922824Y-92236584D01*
X132710692Y-92448716D01*
X132710692Y-92448716D01*
G37*
G36*
X133306364Y-93507076D02*
X133058876Y-93754564D01*
X132846744Y-93542432D01*
X133094232Y-93294944D01*
X133306364Y-93507076D01*
X133306364Y-93507076D01*
G37*
G36*
X132917456Y-93118168D02*
X132669968Y-93365656D01*
X132457836Y-93153524D01*
X132705324Y-92906036D01*
X132917456Y-93118168D01*
X132917456Y-93118168D01*
G37*
G36*
X133837224Y-92971136D02*
X133589736Y-93218624D01*
X133377604Y-93006492D01*
X133625092Y-92759004D01*
X133837224Y-92971136D01*
X133837224Y-92971136D01*
G37*
G36*
X133448316Y-92582228D02*
X133200828Y-92829716D01*
X132988696Y-92617584D01*
X133236184Y-92370096D01*
X133448316Y-92582228D01*
X133448316Y-92582228D01*
G37*
G36*
X133642584Y-94155884D02*
X133395096Y-93908396D01*
X133607228Y-93696264D01*
X133854716Y-93943752D01*
X133642584Y-94155884D01*
X133642584Y-94155884D01*
G37*
G36*
X134031492Y-93766976D02*
X133784004Y-93519488D01*
X133996136Y-93307356D01*
X134243624Y-93554844D01*
X134031492Y-93766976D01*
X134031492Y-93766976D01*
G37*
D55*
X134040340Y-94688520D03*
X134040340Y-95238520D03*
D54*
X134730540Y-93962760D03*
X135280540Y-93962760D03*
X141991220Y-89205340D03*
X141441220Y-89205340D03*
X136136520Y-89205340D03*
X135586520Y-89205340D03*
D56*
X135286460Y-95902360D03*
X135286460Y-96302360D03*
X135286460Y-96702360D03*
X135286460Y-97102360D03*
X135286460Y-97502360D03*
X135286460Y-97902360D03*
X135286460Y-98302360D03*
X135286460Y-98702360D03*
X135286460Y-99102360D03*
X135286460Y-99502360D03*
X135286460Y-99902360D03*
X135286460Y-100302360D03*
X135286460Y-100702360D03*
X135286460Y-101102360D03*
D57*
X135186460Y-95902360D03*
X135186460Y-96302360D03*
X135186460Y-96702360D03*
X135186460Y-97102360D03*
X135186460Y-97502360D03*
X135186460Y-97902360D03*
X135186460Y-98302360D03*
X135186460Y-98702360D03*
X135186460Y-99102360D03*
X135186460Y-99502360D03*
X135186460Y-99902360D03*
X135186460Y-100302360D03*
X135186460Y-100702360D03*
X135186460Y-101102360D03*
X135986460Y-101902360D03*
X136386460Y-101902360D03*
X136786460Y-101902360D03*
X137186460Y-101902360D03*
X137586460Y-101902360D03*
X137986460Y-101902360D03*
X138386460Y-101902360D03*
X138786460Y-101902360D03*
X139186460Y-101902360D03*
X139586460Y-101902360D03*
X139986460Y-101902360D03*
X140386460Y-101902360D03*
X140786460Y-101902360D03*
X141186460Y-101902360D03*
X141986460Y-101102360D03*
X141986460Y-100702360D03*
X141986460Y-100302360D03*
X141986460Y-99902360D03*
X141986460Y-99502360D03*
X141986460Y-99102360D03*
X141986460Y-98702360D03*
X141986460Y-98302360D03*
X141986460Y-97902360D03*
X141986460Y-97502360D03*
X141986460Y-97102360D03*
X141986460Y-96702360D03*
X141986460Y-96302360D03*
X141986460Y-95902360D03*
X141186460Y-95102360D03*
X140786460Y-95102360D03*
X140386460Y-95102360D03*
X139986460Y-95102360D03*
X139586460Y-95102360D03*
X139186460Y-95102360D03*
X138786460Y-95102360D03*
X138386460Y-95102360D03*
X137986460Y-95102360D03*
X137586460Y-95102360D03*
X137186460Y-95102360D03*
X136786460Y-95102360D03*
X136386460Y-95102360D03*
X135986460Y-95102360D03*
D58*
X135986460Y-101802360D03*
X136386460Y-101802360D03*
X136786460Y-101802360D03*
X137186460Y-101802360D03*
X137586460Y-101802360D03*
X137986460Y-101802360D03*
X138386460Y-101802360D03*
X138786460Y-101802360D03*
X139186460Y-101802360D03*
X139586460Y-101802360D03*
X139986460Y-101802360D03*
X140386460Y-101802360D03*
X140786460Y-101802360D03*
X141186460Y-101802360D03*
D56*
X141886460Y-101102360D03*
X141886460Y-100702360D03*
X141886460Y-100302360D03*
X141886460Y-99902360D03*
X141886460Y-99502360D03*
X141886460Y-99102360D03*
X141886460Y-98702360D03*
X141886460Y-98302360D03*
X141886460Y-97902360D03*
X141886460Y-97502360D03*
X141886460Y-97102360D03*
X141886460Y-96702360D03*
X141886460Y-96302360D03*
X141886460Y-95902360D03*
D58*
X141186460Y-95202360D03*
X140786460Y-95202360D03*
X140386460Y-95202360D03*
X139986460Y-95202360D03*
X139586460Y-95202360D03*
X139186460Y-95202360D03*
X138786460Y-95202360D03*
X138386460Y-95202360D03*
X137986460Y-95202360D03*
X137586460Y-95202360D03*
X137186460Y-95202360D03*
X136786460Y-95202360D03*
X136386460Y-95202360D03*
X135986460Y-95202360D03*
D59*
X138586460Y-98652360D03*
D60*
X138736460Y-96352360D03*
D10*
G36*
X136286460Y-96502360D02*
X136586460Y-96202360D01*
X136786460Y-96202360D01*
X137086460Y-96502360D01*
X136286460Y-96502360D01*
X136286460Y-96502360D01*
G37*
D55*
X131886460Y-99127360D03*
X131886460Y-99677360D03*
X131886460Y-96927360D03*
X131886460Y-97477360D03*
D54*
X143561460Y-94302360D03*
X143011460Y-94302360D03*
X143561460Y-94902360D03*
X143011460Y-94902360D03*
X143561460Y-93702360D03*
X143011460Y-93702360D03*
D55*
X131286460Y-99677360D03*
X131286460Y-99127360D03*
X131886460Y-99727360D03*
X131886460Y-100277360D03*
X131886460Y-98527360D03*
X131886460Y-99077360D03*
D54*
X132511460Y-99602360D03*
X133061460Y-99602360D03*
X132511460Y-99002360D03*
X133061460Y-99002360D03*
D55*
X133686460Y-99027360D03*
X133686460Y-99577360D03*
X131286460Y-97477360D03*
X131286460Y-96927360D03*
X131886460Y-97527360D03*
X131886460Y-98077360D03*
X131886460Y-96327360D03*
X131886460Y-96877360D03*
D54*
X132511460Y-97602360D03*
X133061460Y-97602360D03*
X132511460Y-97002360D03*
X133061460Y-97002360D03*
D55*
X133686460Y-97027360D03*
X133686460Y-97577360D03*
D61*
X129150840Y-84902540D03*
X126610840Y-84902540D03*
X129150840Y-81722540D03*
X126610840Y-81722540D03*
X127880840Y-81722540D03*
X127880840Y-84902540D03*
D55*
X129153380Y-79456140D03*
X129153380Y-80006140D03*
D54*
X139508280Y-103040720D03*
X140058280Y-103040720D03*
X141436140Y-107798140D03*
X141986140Y-107798140D03*
X137506760Y-103035640D03*
X138056760Y-103035640D03*
D55*
X138086560Y-103860460D03*
X138086560Y-104410460D03*
X137497280Y-103855380D03*
X137497280Y-104405380D03*
X139483560Y-103857920D03*
X139483560Y-104407920D03*
X140080460Y-103855380D03*
X140080460Y-104405380D03*
X145185860Y-96472960D03*
X145185860Y-95922960D03*
X145188400Y-97676920D03*
X145188400Y-97126920D03*
D54*
X144561700Y-96604360D03*
X144011700Y-96604360D03*
D55*
X145188400Y-97077480D03*
X145188400Y-96527480D03*
X145188400Y-99279660D03*
X145188400Y-98729660D03*
X145787840Y-96527480D03*
X145787840Y-97077480D03*
D54*
X144561700Y-97203800D03*
X144011700Y-97203800D03*
D55*
X143387540Y-97179080D03*
X143387540Y-96629080D03*
D54*
X144014240Y-99202780D03*
X144564240Y-99202780D03*
D55*
X143387540Y-99178060D03*
X143387540Y-98628060D03*
D54*
X144014240Y-98603340D03*
X144564240Y-98603340D03*
D55*
X145188400Y-99879100D03*
X145188400Y-99329100D03*
X145188400Y-98677680D03*
X145188400Y-98127680D03*
X145790380Y-98727120D03*
X145790380Y-99277120D03*
D62*
X135288820Y-113198680D03*
D63*
X135998820Y-112283680D03*
D64*
X135288820Y-112563680D03*
D63*
X134578820Y-112283680D03*
D64*
X134578820Y-113833680D03*
D63*
X135288820Y-114113680D03*
D64*
X135998820Y-113833680D03*
D55*
X141032560Y-80903220D03*
X141032560Y-80353220D03*
D65*
X141388260Y-83134440D03*
X141388260Y-83784440D03*
X141388260Y-84434440D03*
X143188260Y-84434440D03*
X143188260Y-83784440D03*
X143188260Y-83134440D03*
D55*
X135285240Y-80920160D03*
X135285240Y-80370160D03*
D66*
X143557380Y-85765300D03*
X142287380Y-85765300D03*
X141017380Y-85765300D03*
X141017380Y-82587760D03*
X143557380Y-82587760D03*
D62*
X135292630Y-83797010D03*
D63*
X134582630Y-84712010D03*
D64*
X135292630Y-84432010D03*
D63*
X136002630Y-84712010D03*
D64*
X136002630Y-83162010D03*
D63*
X135292630Y-82882010D03*
D64*
X134582630Y-83162010D03*
D52*
X168201340Y-87299360D03*
X168201340Y-95499360D03*
D53*
X169451340Y-91399360D03*
D54*
X155987160Y-95422720D03*
X155437160Y-95422720D03*
D67*
X152499870Y-95419370D03*
D68*
X151584870Y-94709370D03*
D69*
X151864870Y-95419370D03*
D68*
X151584870Y-96129370D03*
D69*
X153134870Y-96129370D03*
D68*
X153414870Y-95419370D03*
D69*
X153134870Y-94709370D03*
D67*
X152511760Y-100390960D03*
D68*
X151596760Y-99680960D03*
D69*
X151876760Y-100390960D03*
D68*
X151596760Y-101100960D03*
D69*
X153146760Y-101100960D03*
D68*
X153426760Y-100390960D03*
D69*
X153146760Y-99680960D03*
D54*
X155974460Y-100390960D03*
X155424460Y-100390960D03*
D52*
X168191180Y-100278760D03*
X168191180Y-108478760D03*
D53*
X169441180Y-104378760D03*
D55*
X143569940Y-116065160D03*
X143569940Y-116615160D03*
X135293100Y-116077320D03*
X135293100Y-116627320D03*
D54*
X141436140Y-107800680D03*
X141986140Y-107800680D03*
D52*
X168198800Y-119780880D03*
X168198800Y-127980880D03*
D53*
X169448800Y-123880880D03*
D65*
X143190800Y-113832400D03*
X143190800Y-113182400D03*
X143190800Y-112532400D03*
X141390800Y-112532400D03*
X141390800Y-113182400D03*
X141390800Y-113832400D03*
D66*
X141026750Y-111297810D03*
X142296750Y-111297810D03*
X143566750Y-111297810D03*
X143566750Y-114475350D03*
X141026750Y-114475350D03*
D54*
X121088740Y-102054660D03*
X121638740Y-102054660D03*
D70*
X123899440Y-101686660D03*
X124549440Y-101686660D03*
X125199440Y-101686660D03*
X125199440Y-99886660D03*
X124549440Y-99886660D03*
X123899440Y-99886660D03*
D71*
X126436860Y-99515540D03*
X126436860Y-100785540D03*
X126436860Y-102055540D03*
X123259320Y-102055540D03*
X123259320Y-99515540D03*
D54*
X121102800Y-97098460D03*
X121652800Y-97098460D03*
D70*
X123894360Y-96726040D03*
X124544360Y-96726040D03*
X125194360Y-96726040D03*
X125194360Y-94926040D03*
X124544360Y-94926040D03*
X123894360Y-94926040D03*
D71*
X126429240Y-94554920D03*
X126429240Y-95824920D03*
X126429240Y-97094920D03*
X123251700Y-97094920D03*
X123251700Y-94554920D03*
D29*
X120080000Y-70525340D03*
X120979160Y-70525340D03*
D30*
X124042400Y-70525340D03*
X122442200Y-70525340D03*
D20*
X154890000Y-109420000D03*
X154890000Y-113320000D03*
X153620000Y-109420000D03*
X153620000Y-113320000D03*
X152350000Y-109420000D03*
X152350000Y-113320000D03*
X151080000Y-109420000D03*
X151080000Y-113320000D03*
X149810000Y-109420000D03*
X149810000Y-113320000D03*
D29*
X124220000Y-113349580D03*
X124220000Y-112450420D03*
X133517640Y-133121400D03*
X132618480Y-133121400D03*
X132016500Y-120446800D03*
X132016500Y-121345960D03*
D72*
X120025160Y-130464560D03*
X120025160Y-130464560D03*
X122753120Y-66672460D03*
X122753120Y-66672460D03*
X162745420Y-67203320D03*
X162745420Y-67203320D03*
X105328720Y-52611020D03*
X105328720Y-52611020D03*
X176745900Y-52425600D03*
X176745900Y-52425600D03*
X176750980Y-144000220D03*
X176750980Y-144000220D03*
X105204260Y-144231360D03*
X105204260Y-144231360D03*
D54*
X135585000Y-107800000D03*
X136135000Y-107800000D03*
D73*
G36*
X130841460Y-87814800D02*
X130841499Y-87814995D01*
X130841606Y-87815154D01*
X134882392Y-91855940D01*
X134418072Y-92320260D01*
X134415740Y-92320260D01*
X134415545Y-92320299D01*
X134415386Y-92320406D01*
X133981399Y-92754393D01*
X132594913Y-91370446D01*
X132594748Y-91370337D01*
X132594553Y-91370300D01*
X132594359Y-91370342D01*
X132594207Y-91370446D01*
X131456287Y-92505826D01*
X131456177Y-92505991D01*
X131456140Y-92506186D01*
X131456182Y-92506380D01*
X131456286Y-92506534D01*
X132842772Y-93893020D01*
X131941780Y-94794012D01*
X125856440Y-88708672D01*
X125856440Y-86164300D01*
X130841460Y-86164300D01*
X130841460Y-87814800D01*
X130841460Y-87814800D01*
G37*
X130841460Y-87814800D02*
X130841499Y-87814995D01*
X130841606Y-87815154D01*
X134882392Y-91855940D01*
X134418072Y-92320260D01*
X134415740Y-92320260D01*
X134415545Y-92320299D01*
X134415386Y-92320406D01*
X133981399Y-92754393D01*
X132594913Y-91370446D01*
X132594748Y-91370337D01*
X132594553Y-91370300D01*
X132594359Y-91370342D01*
X132594207Y-91370446D01*
X131456287Y-92505826D01*
X131456177Y-92505991D01*
X131456140Y-92506186D01*
X131456182Y-92506380D01*
X131456286Y-92506534D01*
X132842772Y-93893020D01*
X131941780Y-94794012D01*
X125856440Y-88708672D01*
X125856440Y-86164300D01*
X130841460Y-86164300D01*
X130841460Y-87814800D01*
G36*
X170714240Y-90764760D02*
X167915660Y-90764760D01*
X167915465Y-90764799D01*
X167915302Y-90764911D01*
X167915194Y-90765078D01*
X167915160Y-90765260D01*
X167915160Y-92055580D01*
X167915199Y-92055775D01*
X167915311Y-92055938D01*
X167915478Y-92056046D01*
X167915660Y-92056080D01*
X170714240Y-92058620D01*
X170714240Y-94069300D01*
X158978600Y-94069481D01*
X158978405Y-94069520D01*
X158978242Y-94069632D01*
X158978134Y-94069799D01*
X158978100Y-94069981D01*
X158978100Y-101739733D01*
X158978139Y-101739928D01*
X158978251Y-101740091D01*
X158978418Y-101740199D01*
X158978600Y-101740233D01*
X165131820Y-101738660D01*
X170706620Y-101738660D01*
X170706620Y-103744260D01*
X167910580Y-103744260D01*
X167910385Y-103744299D01*
X167910222Y-103744411D01*
X167910114Y-103744578D01*
X167910080Y-103744760D01*
X167910080Y-105035080D01*
X167910119Y-105035275D01*
X167910231Y-105035438D01*
X167910398Y-105035546D01*
X167910580Y-105035580D01*
X170706620Y-105035580D01*
X170706620Y-107009500D01*
X164210208Y-107009500D01*
X160180354Y-102979646D01*
X160180188Y-102979537D01*
X160180000Y-102979500D01*
X158010312Y-102979500D01*
X158010117Y-102979539D01*
X158009954Y-102979651D01*
X158009846Y-102979818D01*
X158009812Y-102979984D01*
X158009506Y-102989786D01*
X157999792Y-102999500D01*
X156270500Y-102999500D01*
X156270500Y-92770500D01*
X160290000Y-92770500D01*
X160290195Y-92770461D01*
X160290354Y-92770354D01*
X164293652Y-88767055D01*
X165144520Y-88766780D01*
X170714240Y-88764240D01*
X170714240Y-90764760D01*
X170714240Y-90764760D01*
G37*
X170714240Y-90764760D02*
X167915660Y-90764760D01*
X167915465Y-90764799D01*
X167915302Y-90764911D01*
X167915194Y-90765078D01*
X167915160Y-90765260D01*
X167915160Y-92055580D01*
X167915199Y-92055775D01*
X167915311Y-92055938D01*
X167915478Y-92056046D01*
X167915660Y-92056080D01*
X170714240Y-92058620D01*
X170714240Y-94069300D01*
X158978600Y-94069481D01*
X158978405Y-94069520D01*
X158978242Y-94069632D01*
X158978134Y-94069799D01*
X158978100Y-94069981D01*
X158978100Y-101739733D01*
X158978139Y-101739928D01*
X158978251Y-101740091D01*
X158978418Y-101740199D01*
X158978600Y-101740233D01*
X165131820Y-101738660D01*
X170706620Y-101738660D01*
X170706620Y-103744260D01*
X167910580Y-103744260D01*
X167910385Y-103744299D01*
X167910222Y-103744411D01*
X167910114Y-103744578D01*
X167910080Y-103744760D01*
X167910080Y-105035080D01*
X167910119Y-105035275D01*
X167910231Y-105035438D01*
X167910398Y-105035546D01*
X167910580Y-105035580D01*
X170706620Y-105035580D01*
X170706620Y-107009500D01*
X164210208Y-107009500D01*
X160180354Y-102979646D01*
X160180188Y-102979537D01*
X160180000Y-102979500D01*
X158010312Y-102979500D01*
X158010117Y-102979539D01*
X158009954Y-102979651D01*
X158009846Y-102979818D01*
X158009812Y-102979984D01*
X158009506Y-102989786D01*
X157999792Y-102999500D01*
X156270500Y-102999500D01*
X156270500Y-92770500D01*
X160290000Y-92770500D01*
X160290195Y-92770461D01*
X160290354Y-92770354D01*
X164293652Y-88767055D01*
X165144520Y-88766780D01*
X170714240Y-88764240D01*
X170714240Y-90764760D01*
G36*
X170725600Y-72544440D02*
X167916320Y-72544440D01*
X167916125Y-72544479D01*
X167915962Y-72544591D01*
X167915854Y-72544758D01*
X167915820Y-72544940D01*
X167915820Y-73832720D01*
X167915859Y-73832915D01*
X167915971Y-73833078D01*
X167916138Y-73833186D01*
X167916320Y-73833220D01*
X170728140Y-73833220D01*
X170728140Y-75815960D01*
X141902680Y-75815960D01*
X141902680Y-74988420D01*
X141902641Y-74988225D01*
X141902529Y-74988062D01*
X141902362Y-74987954D01*
X141902180Y-74987920D01*
X140172440Y-74987920D01*
X140172245Y-74987959D01*
X140172082Y-74988071D01*
X140171974Y-74988238D01*
X140171940Y-74988420D01*
X140171940Y-75815960D01*
X138476220Y-75815960D01*
X138476220Y-70612500D01*
X170725600Y-70612500D01*
X170725600Y-72544440D01*
X170725600Y-72544440D01*
G37*
X170725600Y-72544440D02*
X167916320Y-72544440D01*
X167916125Y-72544479D01*
X167915962Y-72544591D01*
X167915854Y-72544758D01*
X167915820Y-72544940D01*
X167915820Y-73832720D01*
X167915859Y-73832915D01*
X167915971Y-73833078D01*
X167916138Y-73833186D01*
X167916320Y-73833220D01*
X170728140Y-73833220D01*
X170728140Y-75815960D01*
X141902680Y-75815960D01*
X141902680Y-74988420D01*
X141902641Y-74988225D01*
X141902529Y-74988062D01*
X141902362Y-74987954D01*
X141902180Y-74987920D01*
X140172440Y-74987920D01*
X140172245Y-74987959D01*
X140172082Y-74988071D01*
X140171974Y-74988238D01*
X140171940Y-74988420D01*
X140171940Y-75815960D01*
X138476220Y-75815960D01*
X138476220Y-70612500D01*
X170725600Y-70612500D01*
X170725600Y-72544440D01*
D74*
G36*
X137782300Y-81978500D02*
X135816340Y-81978500D01*
X135816340Y-79949040D01*
X135806334Y-79899630D01*
X135777893Y-79858005D01*
X135735499Y-79830725D01*
X135689340Y-79822040D01*
X134843520Y-79822040D01*
X134794110Y-79832046D01*
X134752485Y-79860487D01*
X134725205Y-79902881D01*
X134716520Y-79949040D01*
X134716520Y-81978500D01*
X132852160Y-81978500D01*
X132852160Y-76558140D01*
X137782300Y-76558140D01*
X137782300Y-81978500D01*
X137782300Y-81978500D01*
G37*
X137782300Y-81978500D02*
X135816340Y-81978500D01*
X135816340Y-79949040D01*
X135806334Y-79899630D01*
X135777893Y-79858005D01*
X135735499Y-79830725D01*
X135689340Y-79822040D01*
X134843520Y-79822040D01*
X134794110Y-79832046D01*
X134752485Y-79860487D01*
X134725205Y-79902881D01*
X134716520Y-79949040D01*
X134716520Y-81978500D01*
X132852160Y-81978500D01*
X132852160Y-76558140D01*
X137782300Y-76558140D01*
X137782300Y-81978500D01*
D73*
G36*
X142691620Y-122031760D02*
X142691659Y-122031955D01*
X142691771Y-122032118D01*
X142691938Y-122032226D01*
X142692120Y-122032260D01*
X144505680Y-122032260D01*
X144505875Y-122032221D01*
X144506038Y-122032109D01*
X144506146Y-122031942D01*
X144506180Y-122031760D01*
X144506180Y-121300740D01*
X170695120Y-121300740D01*
X170695120Y-123232680D01*
X167885840Y-123232680D01*
X167885645Y-123232719D01*
X167885482Y-123232831D01*
X167885374Y-123232998D01*
X167885340Y-123233180D01*
X167885340Y-124520960D01*
X167885379Y-124521155D01*
X167885491Y-124521318D01*
X167885658Y-124521426D01*
X167885840Y-124521460D01*
X170697660Y-124521460D01*
X170697660Y-126504200D01*
X138445740Y-126504200D01*
X138445740Y-121300740D01*
X142691620Y-121300740D01*
X142691620Y-122031760D01*
X142691620Y-122031760D01*
G37*
X142691620Y-122031760D02*
X142691659Y-122031955D01*
X142691771Y-122032118D01*
X142691938Y-122032226D01*
X142692120Y-122032260D01*
X144505680Y-122032260D01*
X144505875Y-122032221D01*
X144506038Y-122032109D01*
X144506146Y-122031942D01*
X144506180Y-122031760D01*
X144506180Y-121300740D01*
X170695120Y-121300740D01*
X170695120Y-123232680D01*
X167885840Y-123232680D01*
X167885645Y-123232719D01*
X167885482Y-123232831D01*
X167885374Y-123232998D01*
X167885340Y-123233180D01*
X167885340Y-124520960D01*
X167885379Y-124521155D01*
X167885491Y-124521318D01*
X167885658Y-124521426D01*
X167885840Y-124521460D01*
X170697660Y-124521460D01*
X170697660Y-126504200D01*
X138445740Y-126504200D01*
X138445740Y-121300740D01*
X142691620Y-121300740D01*
X142691620Y-122031760D01*
D74*
G36*
X134749540Y-117146070D02*
X134759546Y-117195480D01*
X134787987Y-117237105D01*
X134830381Y-117264385D01*
X134876540Y-117273070D01*
X135719820Y-117273070D01*
X135769230Y-117263064D01*
X135810855Y-117234623D01*
X135838135Y-117192229D01*
X135846820Y-117146070D01*
X135846820Y-115115340D01*
X137713720Y-115115340D01*
X137713720Y-120540780D01*
X132781040Y-120540780D01*
X132781040Y-115115340D01*
X134749540Y-115115340D01*
X134749540Y-117146070D01*
X134749540Y-117146070D01*
G37*
X134749540Y-117146070D02*
X134759546Y-117195480D01*
X134787987Y-117237105D01*
X134830381Y-117264385D01*
X134876540Y-117273070D01*
X135719820Y-117273070D01*
X135769230Y-117263064D01*
X135810855Y-117234623D01*
X135838135Y-117192229D01*
X135846820Y-117146070D01*
X135846820Y-115115340D01*
X137713720Y-115115340D01*
X137713720Y-120540780D01*
X132781040Y-120540780D01*
X132781040Y-115115340D01*
X134749540Y-115115340D01*
X134749540Y-117146070D01*
M02*
