G04 #@! TF.FileFunction,Copper,L3,Inr,Signal*
%FSLAX46Y46*%
G04 Gerber Fmt 4.6, Leading zero omitted, Abs format (unit mm)*
G04 Created by KiCad (PCBNEW 4.0.7-e2-6376~61~ubuntu18.04.1) date Mon Jul 28 12:50:59 2025*
%MOMM*%
%LPD*%
G01*
G04 APERTURE LIST*
%ADD10C,0.150000*%
%ADD11C,0.200000*%
%ADD12C,0.600000*%
%ADD13O,1.350000X2.550000*%
%ADD14O,1.350000X2.650000*%
%ADD15C,6.350000*%
%ADD16O,1.524000X2.994660*%
%ADD17C,0.500000*%
%ADD18C,0.350000*%
%ADD19C,0.500000*%
%ADD20C,0.300000*%
%ADD21C,0.800000*%
%ADD22C,0.400000*%
%ADD23C,0.250000*%
%ADD24C,0.100000*%
%ADD25C,0.030000*%
G04 APERTURE END LIST*
D10*
D11*
X103057960Y-146451320D02*
X103080820Y-146451320D01*
X103057960Y-50419000D02*
X103057960Y-146451320D01*
X103060500Y-50416460D02*
X103060500Y-50449480D01*
X178968400Y-50416460D02*
X103060500Y-50416460D01*
X178968400Y-50464720D02*
X178968400Y-50416460D01*
X178968400Y-146451320D02*
X178968400Y-50464720D01*
X103060500Y-146451320D02*
X178968400Y-146451320D01*
X174990760Y-59098180D02*
X175021240Y-59098180D01*
X174980600Y-135610600D02*
X175011080Y-135610600D01*
X109440980Y-146453860D02*
X109440980Y-146423380D01*
X103024940Y-135171180D02*
X103055420Y-135171180D01*
X103035100Y-58658760D02*
X103065580Y-58658760D01*
X173918880Y-50416460D02*
X173918880Y-50446940D01*
X112339120Y-50391060D02*
X112339120Y-50421540D01*
X107020360Y-115686840D02*
X107015280Y-115686840D01*
X107020360Y-142471140D02*
X107020360Y-115686840D01*
X119473980Y-142471140D02*
X107020360Y-142471140D01*
X107015280Y-115686840D02*
X107015280Y-142311120D01*
X107035600Y-112087660D02*
X107027980Y-112087660D01*
X107035600Y-54394100D02*
X107035600Y-112087660D01*
X119402860Y-54394100D02*
X107035600Y-54394100D01*
X122989340Y-54394100D02*
X122989340Y-54424580D01*
X159984440Y-54394100D02*
X122989340Y-54394100D01*
X163581080Y-54416960D02*
X163581080Y-54432200D01*
X174983140Y-54416960D02*
X163581080Y-54416960D01*
X174983140Y-142575280D02*
X174983140Y-54416960D01*
X174983140Y-142580360D02*
X161945320Y-142580360D01*
X174983140Y-134713980D02*
X174983140Y-142580360D01*
X123068080Y-142476220D02*
X123068080Y-142483840D01*
X158335980Y-142519400D02*
X123070620Y-142519400D01*
X161932620Y-138523980D02*
X161932620Y-138529060D01*
X167510460Y-138523980D02*
X161932620Y-138523980D01*
X122994420Y-58392060D02*
X122994420Y-58397140D01*
X159989520Y-58392060D02*
X122994420Y-58392060D01*
X163586160Y-58402220D02*
X163586160Y-58392060D01*
X167497760Y-58402220D02*
X163586160Y-58402220D01*
X119402860Y-58397140D02*
X114523520Y-58397140D01*
X119473980Y-138523980D02*
X119473980Y-138526520D01*
X114551460Y-138523980D02*
X119473980Y-138523980D01*
X161948640Y-142583520D02*
X161948640Y-138583520D01*
X158334220Y-142517480D02*
X158334220Y-138517480D01*
X158335980Y-138529060D02*
X137594340Y-138529060D01*
X161935160Y-138526520D02*
X161935160Y-138529060D01*
X159985220Y-58395220D02*
X159985220Y-54395220D01*
X163581860Y-58423160D02*
X163581860Y-54423160D01*
X163583620Y-58394600D02*
X163583620Y-58392060D01*
X123070620Y-138521440D02*
X123070620Y-138523980D01*
X151724360Y-138521440D02*
X123070620Y-138521440D01*
X111031020Y-115684300D02*
X111036100Y-115684300D01*
X111031020Y-135016240D02*
X111031020Y-115684300D01*
X111033560Y-112097820D02*
X111036100Y-112097820D01*
X111033560Y-61899800D02*
X111033560Y-112097820D01*
X122996960Y-58399680D02*
X122996960Y-58397140D01*
X111055770Y-112088150D02*
X107055770Y-112088150D01*
X111010050Y-115687330D02*
X107010050Y-115687330D01*
X119469680Y-142471760D02*
X119469680Y-138471760D01*
X123068860Y-142517480D02*
X123068860Y-138517480D01*
X122990120Y-58413000D02*
X122990120Y-54413000D01*
X119398560Y-58400300D02*
X119398560Y-54400300D01*
X111031830Y-135023010D02*
G75*
G03X114534130Y-138520710I3500000J2300D01*
G01*
X167515960Y-138521900D02*
G75*
G03X171013660Y-135019600I-2300J3500000D01*
G01*
X114530720Y-58399220D02*
G75*
G03X111033020Y-61901520I2300J-3500000D01*
G01*
X171011040Y-61899380D02*
G75*
G03X167508740Y-58401680I-3500000J-2300D01*
G01*
X171013120Y-61905020D02*
X171013120Y-135000000D01*
D12*
X163610880Y-137806820D03*
X132205300Y-132322520D03*
X144100000Y-69500000D03*
D13*
X151380000Y-131500000D03*
X160020000Y-131500000D03*
D14*
X151380000Y-136550000D03*
X160020000Y-136550000D03*
D12*
X123184500Y-133609100D03*
X123825000Y-133037580D03*
X123207780Y-132382260D03*
X164816500Y-126690620D03*
X164813960Y-129288580D03*
X164813960Y-127988580D03*
X164854600Y-119764060D03*
X164854600Y-121064060D03*
X164857140Y-118466100D03*
X164849520Y-69009780D03*
X164849520Y-70309780D03*
X164852060Y-67711820D03*
X164864760Y-77272400D03*
X164864760Y-78572400D03*
X164867300Y-75974440D03*
X164864760Y-87282540D03*
X164864760Y-88582540D03*
X164867300Y-85984580D03*
X164849520Y-94163380D03*
X164846980Y-96761340D03*
X164846980Y-95461340D03*
X164864760Y-100315280D03*
X164864760Y-101615280D03*
X164867300Y-99017320D03*
X164869840Y-108395020D03*
X164869840Y-109695020D03*
X164872380Y-107097060D03*
X163280880Y-137686820D03*
X167230100Y-137722380D03*
X164530100Y-137722380D03*
X165930100Y-137722380D03*
X170024080Y-130403560D03*
X170024080Y-131703560D03*
X170024080Y-134403560D03*
X170024080Y-133003560D03*
X169804260Y-135558940D03*
X169204260Y-136558940D03*
X168330100Y-137272380D03*
X170038740Y-111257580D03*
X170036200Y-115255540D03*
X170036200Y-113855540D03*
X170036200Y-112555540D03*
X170036200Y-116655580D03*
X170071760Y-82631780D03*
X170071760Y-81231780D03*
X170071760Y-79931780D03*
X170071760Y-84031820D03*
X146658600Y-59337920D03*
X145358600Y-59337920D03*
X144058600Y-59337920D03*
X142658600Y-59337920D03*
X140060640Y-59335380D03*
X141360640Y-59335380D03*
X156056600Y-59337920D03*
X154756600Y-59337920D03*
X153456600Y-59337920D03*
X152056600Y-59337920D03*
X148058640Y-59335380D03*
X149458640Y-59335380D03*
X150758640Y-59335380D03*
X160169340Y-59784960D03*
X158856640Y-59337920D03*
X157456640Y-59337920D03*
X143824960Y-75496420D03*
X143818660Y-76607500D03*
X143813580Y-77906880D03*
X143813580Y-79206880D03*
X138211560Y-75382120D03*
X138207800Y-76546540D03*
X138202720Y-77845920D03*
X138202720Y-79145920D03*
X146315480Y-117730100D03*
X146318020Y-119035660D03*
X146312940Y-120335040D03*
X146312940Y-121635040D03*
X140719860Y-117796140D03*
X140722400Y-119101700D03*
X140717320Y-120401080D03*
X140717320Y-121701080D03*
X142020000Y-133800000D03*
X114980000Y-79370000D03*
X114430000Y-77970000D03*
X114560000Y-108830000D03*
X124220000Y-115060000D03*
X114560000Y-109830000D03*
X124220000Y-114200000D03*
X132428220Y-127003880D03*
X120880000Y-126980000D03*
X131628220Y-116883880D03*
X123020000Y-114530000D03*
X132518220Y-130513880D03*
X131418220Y-130513880D03*
X131958220Y-131393880D03*
X133020000Y-74350000D03*
X132370000Y-73530000D03*
X131720000Y-74330000D03*
X123040000Y-80640000D03*
X124080000Y-80660000D03*
X135490000Y-70670000D03*
X136520000Y-70660000D03*
X114850000Y-91680000D03*
X153804600Y-65630460D03*
X116580000Y-101050000D03*
X116578880Y-100126780D03*
X116580000Y-104010000D03*
X116580000Y-103060000D03*
X116548880Y-98126780D03*
X116560000Y-99080000D03*
X116560000Y-95150000D03*
X116560000Y-96120000D03*
X118670000Y-94680000D03*
X117570000Y-94680000D03*
X118690000Y-99590000D03*
X117740000Y-99590000D03*
X117620000Y-104500000D03*
X118760000Y-104500000D03*
X118673640Y-112806740D03*
X118658220Y-110893880D03*
X118757700Y-107563920D03*
X117643640Y-107546740D03*
X127170000Y-59920000D03*
X116090000Y-67990000D03*
X131860000Y-59920000D03*
X131680000Y-137460000D03*
X132690000Y-137470000D03*
X132710000Y-136420000D03*
X131700000Y-136410000D03*
X119780000Y-116830000D03*
X118810000Y-117400000D03*
X116570000Y-116850000D03*
X118810000Y-116300000D03*
D15*
X116062760Y-133535420D03*
X166067740Y-133532880D03*
D16*
X146645000Y-127390000D03*
X141565000Y-127390000D03*
X144105000Y-127390000D03*
D12*
X122300460Y-74534300D03*
X119948420Y-77125100D03*
X122402060Y-78224920D03*
X121076180Y-78217300D03*
X119948420Y-75890660D03*
X121063480Y-74531760D03*
X113665780Y-59686840D03*
X112791620Y-60400280D03*
X112191620Y-61400280D03*
X111971800Y-63955660D03*
X111971800Y-62555660D03*
X111971800Y-65255660D03*
X111971800Y-66555660D03*
X111971800Y-67955660D03*
X116065780Y-59236840D03*
X117465780Y-59236840D03*
X114765780Y-59236840D03*
D15*
X116017040Y-63388240D03*
X166022020Y-63385700D03*
D12*
X170173420Y-62134440D03*
X170173420Y-66134440D03*
X170173420Y-64834440D03*
X170173420Y-63434440D03*
X161467300Y-59787500D03*
X162867300Y-59787500D03*
X166854600Y-59340460D03*
X165454600Y-59340460D03*
X168009980Y-59560280D03*
X169009980Y-60160280D03*
X169723420Y-61034440D03*
X137267220Y-124939520D03*
X136025160Y-124550900D03*
X135103140Y-123735560D03*
X134501160Y-122653520D03*
X134168420Y-121579100D03*
X137401840Y-122475720D03*
X136655080Y-121683240D03*
X170047920Y-122635060D03*
X170047920Y-125125060D03*
X170044880Y-121121360D03*
X170047920Y-126635060D03*
X170054880Y-118431360D03*
X170047920Y-129325060D03*
X168747920Y-129325060D03*
X168754880Y-118431360D03*
X168747920Y-126635060D03*
X168744880Y-121121360D03*
X168747920Y-125125060D03*
X168747920Y-122635060D03*
X166147920Y-122635060D03*
X166147920Y-125125060D03*
X166144880Y-121121360D03*
X166147920Y-126635060D03*
X166154880Y-118431360D03*
X166147920Y-129325060D03*
X167447920Y-129325060D03*
X167454880Y-118431360D03*
X167447920Y-126635060D03*
X167444880Y-121121360D03*
X167447920Y-125125060D03*
X167447920Y-122635060D03*
X164842360Y-125127600D03*
X164842360Y-122637600D03*
X158324720Y-122637600D03*
X158324720Y-125127600D03*
X160930280Y-122635060D03*
X160930280Y-125125060D03*
X159630280Y-125125060D03*
X159630280Y-122635060D03*
X162230280Y-122635060D03*
X162230280Y-125125060D03*
X163530280Y-125125060D03*
X163530280Y-122635060D03*
X150510240Y-122635060D03*
X150510240Y-125125060D03*
X149210240Y-125125060D03*
X149210240Y-122635060D03*
X146610240Y-122635060D03*
X146610240Y-125125060D03*
X147910240Y-125125060D03*
X147910240Y-122635060D03*
X145304680Y-125127600D03*
X145304680Y-122637600D03*
X151822320Y-122637600D03*
X151822320Y-125127600D03*
X154427880Y-122635060D03*
X154427880Y-125125060D03*
X153127880Y-125125060D03*
X153127880Y-122635060D03*
X155727880Y-122635060D03*
X155727880Y-125125060D03*
X157027880Y-125125060D03*
X157027880Y-122635060D03*
X144005300Y-122632520D03*
X144005300Y-125122520D03*
X142705300Y-125122520D03*
X142705300Y-122632520D03*
X140105300Y-122632520D03*
X140105300Y-125122520D03*
X141405300Y-125122520D03*
X141405300Y-122632520D03*
X138799740Y-125125060D03*
X138799740Y-122635060D03*
X134052360Y-120503780D03*
X136542360Y-120516480D03*
X134049820Y-118070940D03*
X136539820Y-118083640D03*
X136539820Y-119383640D03*
X134049820Y-119370940D03*
X134049820Y-116778560D03*
X136539820Y-116791260D03*
X136542360Y-76275720D03*
X134052360Y-76275720D03*
X134052360Y-78868100D03*
X136542360Y-78868100D03*
X136542360Y-77568100D03*
X134052360Y-77568100D03*
X136544900Y-79840920D03*
X134054900Y-79840920D03*
X138827680Y-71946820D03*
X138827680Y-74436820D03*
X141433240Y-71944280D03*
X141433240Y-74434280D03*
X140133240Y-74434280D03*
X140133240Y-71944280D03*
X142733240Y-71944280D03*
X142733240Y-74434280D03*
X144033240Y-74434280D03*
X144033240Y-71944280D03*
X163545520Y-102989380D03*
X163527740Y-105625480D03*
X164839820Y-103138020D03*
X164839820Y-105628020D03*
X167445380Y-103135480D03*
X167445380Y-105625480D03*
X167442340Y-101621780D03*
X167445380Y-107135480D03*
X167452340Y-98931780D03*
X167445380Y-109825480D03*
X166145380Y-109825480D03*
X166152340Y-98931780D03*
X166145380Y-107135480D03*
X166142340Y-101621780D03*
X166145380Y-105625480D03*
X166145380Y-103135480D03*
X168745380Y-103135480D03*
X168745380Y-105625480D03*
X168742340Y-101621780D03*
X168745380Y-107135480D03*
X168752340Y-98931780D03*
X168745380Y-109825480D03*
X170045380Y-109825480D03*
X170052340Y-98931780D03*
X170045380Y-107135480D03*
X170042340Y-101621780D03*
X170045380Y-105625480D03*
X170045380Y-103135480D03*
X170070780Y-90166240D03*
X170070780Y-92656240D03*
X170067740Y-88652540D03*
X170070780Y-94166240D03*
X170077740Y-85962540D03*
X170070780Y-96856240D03*
X168770780Y-96856240D03*
X168777740Y-85962540D03*
X168770780Y-94166240D03*
X168767740Y-88652540D03*
X168770780Y-92656240D03*
X168770780Y-90166240D03*
X166170780Y-90166240D03*
X166170780Y-92656240D03*
X166167740Y-88652540D03*
X166170780Y-94166240D03*
X166177740Y-85962540D03*
X166170780Y-96856240D03*
X167470780Y-96856240D03*
X167477740Y-85962540D03*
X167470780Y-94166240D03*
X167467740Y-88652540D03*
X167470780Y-92656240D03*
X167470780Y-90166240D03*
X164865220Y-92658780D03*
X164865220Y-90168780D03*
X163669980Y-92793820D03*
X163616640Y-90187780D03*
X157055820Y-71946820D03*
X157055820Y-74436820D03*
X155755820Y-74436820D03*
X155755820Y-71946820D03*
X153155820Y-71946820D03*
X153155820Y-74436820D03*
X154455820Y-74436820D03*
X154455820Y-71946820D03*
X151850260Y-74439360D03*
X151850260Y-71949360D03*
X145332620Y-71949360D03*
X145332620Y-74439360D03*
X147938180Y-71946820D03*
X147938180Y-74436820D03*
X146638180Y-74436820D03*
X146638180Y-71946820D03*
X149238180Y-71946820D03*
X149238180Y-74436820D03*
X150538180Y-74436820D03*
X150538180Y-71946820D03*
X163558220Y-71946820D03*
X163558220Y-74436820D03*
X162258220Y-74436820D03*
X162258220Y-71946820D03*
X159658220Y-71946820D03*
X159658220Y-74436820D03*
X160958220Y-74436820D03*
X160958220Y-71946820D03*
X158352660Y-74439360D03*
X158352660Y-71949360D03*
X164870300Y-71949360D03*
X164870300Y-74439360D03*
X167475860Y-71946820D03*
X167475860Y-74436820D03*
X167472820Y-70433120D03*
X167475860Y-75946820D03*
X167482820Y-67743120D03*
X167475860Y-78636820D03*
X166175860Y-78636820D03*
X166182820Y-67743120D03*
X166175860Y-75946820D03*
X166172820Y-70433120D03*
X166175860Y-74436820D03*
X166175860Y-71946820D03*
X168775860Y-71946820D03*
X168775860Y-74436820D03*
X168772820Y-70433120D03*
X168775860Y-75946820D03*
X168782820Y-67743120D03*
X168775860Y-78636820D03*
X170075860Y-78636820D03*
X170082820Y-67743120D03*
X170075860Y-75946820D03*
X170072820Y-70433120D03*
X170075860Y-74436820D03*
X170075860Y-71946820D03*
X137483120Y-74541920D03*
X136690640Y-75288680D03*
X137587260Y-72055260D03*
X136512840Y-72388000D03*
X135430800Y-72989980D03*
X134615460Y-73912000D03*
X134226840Y-75154060D03*
X135287300Y-86905460D03*
X142285720Y-86995000D03*
X136372060Y-92829920D03*
X141192980Y-92890880D03*
D17*
X137286460Y-99502360D03*
D12*
X131186460Y-98302360D03*
X131942300Y-101176360D03*
X131220940Y-101902800D03*
X129707100Y-98301080D03*
X127589280Y-100782120D03*
X127664940Y-95816960D03*
D17*
X139786460Y-98802360D03*
X138786460Y-98802360D03*
X138286460Y-98102360D03*
X140386460Y-99502360D03*
X138786460Y-97402360D03*
X137286460Y-98102360D03*
X137786460Y-98802360D03*
X139286460Y-98102360D03*
X137286460Y-96702360D03*
X136786460Y-97402360D03*
X137786460Y-97402360D03*
X139686460Y-97402360D03*
X138286460Y-99502360D03*
X139286460Y-99502360D03*
X140386460Y-100402360D03*
D12*
X142285360Y-110098020D03*
X135284760Y-110100560D03*
X141200600Y-104173560D03*
X144488360Y-97903560D03*
X149496780Y-95420180D03*
X149479000Y-100385880D03*
X125831060Y-75255660D03*
X127187420Y-75423300D03*
X128429480Y-75811920D03*
X129351500Y-76627260D03*
X129953480Y-77709300D03*
X130286220Y-78783720D03*
X130354800Y-79949580D03*
X130524980Y-83602100D03*
X130633080Y-84904160D03*
X125810740Y-77704220D03*
X127052800Y-77887100D03*
X127799560Y-78679580D03*
X127929100Y-79817500D03*
X130527520Y-82390520D03*
X130489420Y-81148460D03*
X130629620Y-87189560D03*
X130646200Y-86083200D03*
X126463360Y-86567560D03*
X126501620Y-79820040D03*
X126481840Y-88432640D03*
X125183920Y-103341600D03*
X126453920Y-103341600D03*
X127898620Y-103340440D03*
X130403060Y-102629240D03*
X129161000Y-102652100D03*
X132710460Y-98302360D03*
X125867180Y-98298480D03*
X127137180Y-98298480D03*
X128407180Y-98298480D03*
X129239740Y-93922120D03*
X130481800Y-93944980D03*
X127977360Y-93233780D03*
X126532660Y-93232620D03*
X125262660Y-93232620D03*
X131299680Y-94671420D03*
X132021040Y-95397860D03*
X131898740Y-85121240D03*
X131896200Y-86383620D03*
X131891500Y-87549260D03*
X135061420Y-92073000D03*
X134091140Y-91417680D03*
X133059900Y-89421240D03*
X132264880Y-88583040D03*
X133080220Y-90625200D03*
X138785120Y-91385220D03*
X138785120Y-90115220D03*
X138785120Y-85035220D03*
X138785120Y-87575220D03*
X138785120Y-86305220D03*
X138785120Y-88845220D03*
X145661220Y-85179660D03*
X145663760Y-86442040D03*
X145668460Y-87607680D03*
X142498540Y-92131420D03*
X143468820Y-91476100D03*
X144500060Y-89479660D03*
X145295080Y-88641460D03*
X144479740Y-90683620D03*
X133087840Y-106322400D03*
X132272500Y-108364560D03*
X133067520Y-107526360D03*
X134098760Y-105529920D03*
X135069040Y-104874600D03*
X131899120Y-109398340D03*
X131903820Y-110563980D03*
X131906360Y-111826360D03*
X138782460Y-108160800D03*
X138782460Y-110700800D03*
X138782460Y-109430800D03*
X138782460Y-111970800D03*
X138782460Y-106890800D03*
X138782460Y-105620800D03*
X144487360Y-106380820D03*
X145302700Y-108422980D03*
X144507680Y-107584780D03*
X143476440Y-105588340D03*
X142506160Y-104933020D03*
X145676080Y-109456760D03*
X145671380Y-110622400D03*
X145668840Y-111884780D03*
X144512760Y-112921320D03*
X136374600Y-104115140D03*
X140019880Y-113027780D03*
X145178240Y-100808060D03*
X145899600Y-101534500D03*
X151936620Y-102973300D03*
X150666620Y-102973300D03*
X149221920Y-102972140D03*
X154476620Y-102973300D03*
X153206620Y-102973300D03*
X146717480Y-102260940D03*
X147959540Y-102283800D03*
X148792100Y-97907440D03*
X150062100Y-97907440D03*
X151332100Y-97907440D03*
X147913820Y-93548740D03*
X146671760Y-93571600D03*
X149176200Y-92860400D03*
X150620900Y-92859240D03*
X151890900Y-92859240D03*
X147492180Y-97904840D03*
X145853880Y-94298040D03*
X145132520Y-95024480D03*
X146012820Y-97903560D03*
X132219160Y-94422500D03*
X131482560Y-93673200D03*
X130664680Y-92946760D03*
X128254760Y-90632280D03*
X129262600Y-91488800D03*
X129999200Y-92238100D03*
X127591820Y-89938860D03*
X126990520Y-89161640D03*
X130697700Y-88194420D03*
X132219160Y-89865740D03*
X131454620Y-89093580D03*
X125318040Y-82063420D03*
X125318040Y-83333420D03*
X125318040Y-85873420D03*
X125318040Y-84603420D03*
X125318040Y-80793420D03*
X142186120Y-93952600D03*
X141383480Y-94044040D03*
X126463360Y-87497560D03*
X126567660Y-83185540D03*
X127532860Y-83216020D03*
X128482820Y-83216020D03*
X129498820Y-83216020D03*
X135293100Y-85562440D03*
X124790220Y-98278160D03*
X142260320Y-79890620D03*
X139775320Y-79678820D03*
X144623060Y-83120960D03*
X144508760Y-84228400D03*
X159193940Y-93298920D03*
X160272500Y-92100700D03*
X161299320Y-91111700D03*
X162473640Y-90439240D03*
X156625720Y-96708920D03*
X158038580Y-96625260D03*
X159138580Y-96325260D03*
X160486520Y-95515120D03*
X161553320Y-94526120D03*
X162618520Y-93383120D03*
X158028580Y-93965260D03*
X156828580Y-94115260D03*
X144795720Y-117090340D03*
X142287240Y-117257100D03*
X135288020Y-111439960D03*
X142285360Y-110100560D03*
X121495840Y-100477800D03*
X121577100Y-103334820D03*
X121826040Y-95767540D03*
X120653120Y-95766980D03*
X120432700Y-98355180D03*
X121526320Y-98633760D03*
X133986620Y-115809080D03*
X133857080Y-114541620D03*
X133852380Y-113375980D03*
X136732740Y-113398840D03*
X136737440Y-114564480D03*
X136593580Y-115803680D03*
X142288260Y-114802920D03*
X142277560Y-115992180D03*
X140040360Y-114261900D03*
X140025120Y-115501420D03*
X162318700Y-105310940D03*
X161312020Y-104671460D03*
X156693820Y-101688920D03*
X157943820Y-101788920D03*
X162531220Y-102300040D03*
X161516020Y-101357040D03*
X160449220Y-100268040D03*
X159204620Y-99506040D03*
X158010820Y-99150440D03*
X160235200Y-103632460D03*
X159056640Y-102484240D03*
X156638660Y-99153040D03*
X136657080Y-82247740D03*
X136588500Y-81081880D03*
X136753600Y-83459320D03*
X133855460Y-83548220D03*
X133891020Y-82339180D03*
X134063740Y-81114900D03*
X132869020Y-84252560D03*
X137669620Y-84239860D03*
X139773660Y-80777080D03*
X139778740Y-81836260D03*
X139760960Y-83939380D03*
X139773660Y-82915760D03*
X142247620Y-82019140D03*
X142242540Y-80959960D03*
X144619980Y-80995520D03*
X144625060Y-82054700D03*
X143512540Y-80959960D03*
X122890300Y-95780240D03*
X124079020Y-93494240D03*
X122902980Y-93489780D03*
X121744760Y-94510240D03*
X121752360Y-93505020D03*
X122943640Y-103336740D03*
X124028220Y-103313880D03*
X122643900Y-100545900D03*
X122674400Y-98369600D03*
X123751360Y-98389920D03*
X144790160Y-115483640D03*
X144805400Y-114244120D03*
X141074140Y-116070380D03*
X152863720Y-101865860D03*
X154133720Y-101865860D03*
X155322440Y-101682980D03*
X154098160Y-98906760D03*
X152828160Y-98906760D03*
X155309740Y-99158220D03*
X153005960Y-93910580D03*
X154275960Y-93910580D03*
X152475100Y-97907440D03*
X153000880Y-96957480D03*
X154275960Y-96846820D03*
X155533260Y-94093460D03*
X155396100Y-96689340D03*
X132643340Y-112967040D03*
X137870660Y-112918780D03*
X150728680Y-95420180D03*
X150750440Y-100376320D03*
X120277400Y-100673580D03*
D18*
X143776160Y-101504020D03*
X133751320Y-95851980D03*
X136768300Y-93911960D03*
X143252920Y-95453740D03*
X144845500Y-93759560D03*
X145366200Y-93495400D03*
X145058860Y-93015340D03*
X158980000Y-115460000D03*
X133416040Y-123398280D03*
X125050000Y-130620000D03*
X129032980Y-131012980D03*
X117780000Y-70180000D03*
X124370000Y-87450000D03*
X122220000Y-83870000D03*
X134620000Y-94576900D03*
X137184860Y-95677260D03*
X120566180Y-93606620D03*
X124720000Y-83920000D03*
X116337080Y-89964260D03*
X138830000Y-66550000D03*
X138437080Y-93373480D03*
X137139140Y-93373480D03*
X137136600Y-103630000D03*
X138434540Y-103630000D03*
X139135580Y-103630000D03*
X140433520Y-103630000D03*
X140436060Y-93373480D03*
X139138120Y-93373480D03*
X127962660Y-122643900D03*
X120030000Y-111760000D03*
X136511760Y-95679800D03*
X133430000Y-117850000D03*
X152900000Y-111440000D03*
X133310000Y-119390000D03*
X153680000Y-111470000D03*
X133300000Y-120390000D03*
X155240000Y-111500000D03*
X133450000Y-119900000D03*
X154460000Y-111470000D03*
X148600000Y-111200000D03*
X156800000Y-109790000D03*
X147050000Y-110760000D03*
X126930000Y-114600000D03*
X126430000Y-114100000D03*
X147860000Y-109790000D03*
X156020000Y-109790000D03*
X127430000Y-115210000D03*
X157580000Y-109800000D03*
X156930000Y-111050000D03*
X158360000Y-109800000D03*
X127930000Y-115820000D03*
X156050000Y-113320000D03*
X123100000Y-108800000D03*
X123600000Y-122390000D03*
X152900000Y-107700000D03*
X140639260Y-102535260D03*
X153680000Y-106700000D03*
X141223460Y-102573360D03*
X142590000Y-101270000D03*
X155240000Y-105570000D03*
X141586460Y-102202360D03*
X154460000Y-106150000D03*
X144910000Y-101920000D03*
X156800000Y-105720000D03*
X142500000Y-100800000D03*
X156020000Y-105000000D03*
X144090000Y-100020000D03*
X157580000Y-105980000D03*
X142874460Y-99626960D03*
X158360000Y-106450000D03*
X130150000Y-107230000D03*
X135724360Y-102484460D03*
X124930000Y-130050000D03*
X128430000Y-118160000D03*
X128370000Y-126730000D03*
X120610000Y-128230000D03*
X124430000Y-115730000D03*
X126960000Y-132180000D03*
X120050000Y-127110000D03*
X126430000Y-132870000D03*
X118600000Y-125510000D03*
X119700040Y-136281160D03*
X114190780Y-120487440D03*
X125790000Y-134100000D03*
X131150000Y-125400000D03*
X127076200Y-126227840D03*
X125760000Y-126800000D03*
X123220000Y-125890000D03*
X136791160Y-102522560D03*
X125230000Y-122150000D03*
X129930000Y-129400000D03*
X133134100Y-100604320D03*
X128340000Y-118830000D03*
X134580000Y-101400000D03*
X129670000Y-112180000D03*
X134730000Y-126100000D03*
X133490000Y-124290000D03*
X135963730Y-113196370D03*
X135529390Y-113198910D03*
X135044250Y-113196370D03*
X134607370Y-113198910D03*
X154860000Y-111110000D03*
X147250000Y-70170000D03*
X139056840Y-94536800D03*
X138514550Y-102465410D03*
X135975160Y-83797140D03*
X135540820Y-83799680D03*
X135055680Y-83797140D03*
X134618800Y-83799680D03*
X152507950Y-96093350D03*
X152505410Y-95659010D03*
X152507950Y-95173870D03*
X152505410Y-94736990D03*
X152514300Y-99716660D03*
X152516840Y-100153540D03*
X152514300Y-100638680D03*
X152516840Y-101073020D03*
X123060000Y-110730000D03*
X148100000Y-70170000D03*
X124690000Y-118210000D03*
X129230000Y-110330000D03*
X134174960Y-100922360D03*
X146410000Y-70170000D03*
X126460000Y-118370000D03*
X133717760Y-100541360D03*
X128760000Y-112850000D03*
X135886460Y-95802360D03*
X135786460Y-98002360D03*
X135786460Y-98602360D03*
X135201120Y-101839300D03*
X141286460Y-98202360D03*
X142117540Y-104112600D03*
X142008320Y-92964540D03*
X141286460Y-97602360D03*
X122029220Y-104465120D03*
X122562620Y-104145080D03*
X122029220Y-104462580D03*
X121394220Y-104193340D03*
X122562620Y-104142540D03*
X142686460Y-95502360D03*
X142086460Y-95402360D03*
X140186460Y-95752360D03*
X140686460Y-95752360D03*
X134486460Y-96402360D03*
X136286460Y-101202360D03*
X136886460Y-101202360D03*
X141186460Y-95752360D03*
X134586460Y-98302360D03*
X139086460Y-95802360D03*
X139086460Y-101202360D03*
X138486460Y-95802360D03*
X142437580Y-97902300D03*
X138486460Y-101202360D03*
X138508200Y-94536800D03*
X139064460Y-102466680D03*
X155120000Y-133600000D03*
X155700000Y-133600000D03*
X150770000Y-69200000D03*
X150780000Y-63160000D03*
X155600000Y-130140000D03*
X156100000Y-133100000D03*
X155200000Y-133100000D03*
X136586460Y-94502360D03*
X145310000Y-67290000D03*
X127930000Y-132510000D03*
X145580000Y-68520000D03*
X114122200Y-88915240D03*
X114220000Y-80230000D03*
X117322600Y-88193880D03*
X117320060Y-91981020D03*
X126970000Y-104640000D03*
X143986980Y-94303120D03*
X143986980Y-94902560D03*
X143986460Y-93502360D03*
X137786460Y-101287120D03*
X140686460Y-101202360D03*
D19*
X143776160Y-101504020D02*
X143776160Y-100896160D01*
X141640000Y-100200000D02*
X141170000Y-99730000D01*
X143080000Y-100200000D02*
X141640000Y-100200000D01*
X143776160Y-100896160D02*
X143080000Y-100200000D01*
D20*
X149860000Y-93220000D02*
X149860000Y-92660000D01*
X149860000Y-92660000D02*
X146650000Y-89450000D01*
X140030000Y-88210000D02*
X140540000Y-88210000D01*
X141000000Y-88670000D02*
X144520000Y-88670000D01*
X140540000Y-88210000D02*
X141000000Y-88670000D01*
X135320000Y-86270000D02*
X134640000Y-86270000D01*
X133020000Y-83520000D02*
X133020000Y-74350000D01*
X133870000Y-84370000D02*
X133020000Y-83520000D01*
X133870000Y-85500000D02*
X133870000Y-84370000D01*
X134640000Y-86270000D02*
X133870000Y-85500000D01*
X134015000Y-87165000D02*
X132710000Y-85860000D01*
X132120000Y-83150000D02*
X132370000Y-82900000D01*
X132120000Y-84510000D02*
X132120000Y-83150000D01*
X132710000Y-85100000D02*
X132120000Y-84510000D01*
X132710000Y-85860000D02*
X132710000Y-85100000D01*
X141270000Y-99180000D02*
X144510000Y-99180000D01*
X144510000Y-99180000D02*
X145240000Y-98450000D01*
X145240000Y-98450000D02*
X145240000Y-97550000D01*
X145240000Y-97550000D02*
X145510000Y-97280000D01*
X145510000Y-97280000D02*
X148580000Y-97280000D01*
X148580000Y-97280000D02*
X150090000Y-95770000D01*
X150090000Y-95770000D02*
X150090000Y-94810000D01*
X150090000Y-94810000D02*
X149860000Y-94580000D01*
X149860000Y-94580000D02*
X149860000Y-93220000D01*
X146650000Y-89450000D02*
X145300000Y-89450000D01*
X145300000Y-89450000D02*
X144520000Y-88670000D01*
X135610000Y-86270000D02*
X135320000Y-86270000D01*
X135320000Y-86270000D02*
X134740000Y-86270000D01*
X137550000Y-88210000D02*
X135610000Y-86270000D01*
X140030000Y-88210000D02*
X137550000Y-88210000D01*
X141210000Y-98790000D02*
X142960000Y-98790000D01*
X132370000Y-82900000D02*
X132370000Y-73540000D01*
X136320000Y-89470000D02*
X134015000Y-87165000D01*
X139460000Y-89470000D02*
X136320000Y-89470000D01*
X140060000Y-90070000D02*
X139460000Y-89470000D01*
X145460000Y-90070000D02*
X140060000Y-90070000D01*
X148870000Y-93480000D02*
X145460000Y-90070000D01*
X148870000Y-95180000D02*
X148870000Y-93480000D01*
X147260000Y-96790000D02*
X148870000Y-95180000D01*
X144030000Y-96790000D02*
X147260000Y-96790000D01*
X143470000Y-97350000D02*
X144030000Y-96790000D01*
X143470000Y-98280000D02*
X143470000Y-97350000D01*
X142960000Y-98790000D02*
X143470000Y-98280000D01*
X119350000Y-102490000D02*
X119350000Y-98220000D01*
X120915000Y-96655000D02*
X119450000Y-98120000D01*
X119350000Y-102490000D02*
X119350000Y-115750000D01*
X119350000Y-115750000D02*
X118810000Y-116290000D01*
X119350000Y-98220000D02*
X119450000Y-98120000D01*
X136768300Y-93911960D02*
X134408040Y-93911960D01*
X120920000Y-96650000D02*
X120915000Y-96655000D01*
X120915000Y-96655000D02*
X119590000Y-97980000D01*
X131670000Y-96650000D02*
X120920000Y-96650000D01*
X134408040Y-93911960D02*
X131670000Y-96650000D01*
X144108900Y-95461360D02*
X144472120Y-95098140D01*
X144472120Y-95098140D02*
X144472120Y-94143100D01*
X144472120Y-94143100D02*
X144848040Y-93767180D01*
X143255460Y-95461360D02*
X144108900Y-95461360D01*
X144848040Y-93655420D02*
X144848040Y-93767180D01*
X144848040Y-93655420D02*
X142683960Y-91491340D01*
X142683960Y-91491340D02*
X139651200Y-91491340D01*
X139651200Y-91491340D02*
X137222960Y-93919580D01*
X137222960Y-93919580D02*
X136770840Y-93919580D01*
D19*
X135490000Y-70670000D02*
X136510000Y-70670000D01*
X136510000Y-70670000D02*
X136520000Y-70660000D01*
X123040000Y-80640000D02*
X124060000Y-80640000D01*
X125540000Y-70670000D02*
X135470000Y-70670000D01*
X124970000Y-71240000D02*
X125540000Y-70670000D01*
X124970000Y-79730000D02*
X124970000Y-71240000D01*
X124060000Y-80640000D02*
X124970000Y-79730000D01*
X131418220Y-130513880D02*
X132518220Y-130513880D01*
X132518220Y-130513880D02*
X132613880Y-130513880D01*
X132613880Y-130513880D02*
X133000000Y-130900000D01*
X131958220Y-131393880D02*
X132506120Y-131393880D01*
X147100000Y-130900000D02*
X147300000Y-130700000D01*
X133000000Y-130900000D02*
X147100000Y-130900000D01*
X132506120Y-131393880D02*
X133000000Y-130900000D01*
D20*
X157565000Y-127065000D02*
X150935000Y-127065000D01*
X158980000Y-125650000D02*
X157565000Y-127065000D01*
X158980000Y-115460000D02*
X158980000Y-125650000D01*
X150935000Y-127065000D02*
X147300000Y-130700000D01*
X133416040Y-123398280D02*
X132458940Y-123398280D01*
X132458940Y-123398280D02*
X132428220Y-123429000D01*
X125050000Y-130620000D02*
X125050000Y-130650000D01*
X125050000Y-130650000D02*
X124790000Y-130910000D01*
X129032980Y-131012980D02*
X129032980Y-131393880D01*
X129050000Y-131460000D02*
X129050000Y-131393880D01*
X129050000Y-131410900D02*
X129050000Y-131460000D01*
X129032980Y-131393880D02*
X129050000Y-131410900D01*
X132064340Y-131500000D02*
X131958220Y-131393880D01*
D19*
X123020000Y-114530000D02*
X123020000Y-116760000D01*
X129050000Y-131393880D02*
X125273880Y-131393880D01*
X120880000Y-127000000D02*
X120880000Y-121140000D01*
X125273880Y-131393880D02*
X124790000Y-130910000D01*
X124790000Y-130910000D02*
X120880000Y-127000000D01*
X120880000Y-121140000D02*
X120880000Y-118900000D01*
X123020000Y-116760000D02*
X120880000Y-118900000D01*
X131958220Y-131393880D02*
X129050000Y-131393880D01*
X131628220Y-116883880D02*
X132428220Y-117683880D01*
X132428220Y-117683880D02*
X132428220Y-123429000D01*
X132428220Y-123429000D02*
X132428220Y-127003880D01*
D21*
X115820000Y-127460000D02*
X117480000Y-127460000D01*
X117480000Y-127460000D02*
X122350000Y-132330000D01*
X114450000Y-128800000D02*
X117210000Y-128800000D01*
X121100000Y-132690000D02*
X121100000Y-134680000D01*
X117210000Y-128800000D02*
X121100000Y-132690000D01*
X132690000Y-137470000D02*
X131690000Y-137470000D01*
X131690000Y-137470000D02*
X131680000Y-137460000D01*
X131700000Y-136410000D02*
X131700000Y-137440000D01*
X131700000Y-137440000D02*
X131680000Y-137460000D01*
X127170000Y-59920000D02*
X131860000Y-59920000D01*
X132710000Y-136420000D02*
X132710000Y-135580000D01*
X132710000Y-135580000D02*
X132260000Y-135130000D01*
X132260000Y-135130000D02*
X123490000Y-135130000D01*
X123490000Y-135130000D02*
X122350000Y-133990000D01*
X122350000Y-133990000D02*
X122350000Y-132330000D01*
X131860000Y-60680000D02*
X131860000Y-59920000D01*
X131470000Y-61070000D02*
X131860000Y-60680000D01*
X124240000Y-61070000D02*
X131470000Y-61070000D01*
X122590000Y-62720000D02*
X124240000Y-61070000D01*
X122590000Y-65860000D02*
X122590000Y-62720000D01*
X119250000Y-69200000D02*
X122590000Y-65860000D01*
X115140000Y-69200000D02*
X119250000Y-69200000D01*
X113380000Y-70960000D02*
X115140000Y-69200000D01*
X113380000Y-125820000D02*
X113380000Y-70960000D01*
X115020000Y-127460000D02*
X113380000Y-125820000D01*
X115820000Y-127460000D02*
X115020000Y-127460000D01*
X116090000Y-67990000D02*
X114360000Y-67990000D01*
X114360000Y-67990000D02*
X112070000Y-70280000D01*
X121260000Y-63250000D02*
X121260000Y-65150000D01*
X121260000Y-63250000D02*
X121260000Y-62250000D01*
X121260000Y-62250000D02*
X123590000Y-59920000D01*
X123590000Y-59920000D02*
X131860000Y-59920000D01*
X121260000Y-65150000D02*
X118420000Y-67990000D01*
X118420000Y-67990000D02*
X116090000Y-67990000D01*
X131700000Y-136410000D02*
X122830000Y-136410000D01*
X122830000Y-136410000D02*
X121100000Y-134680000D01*
X114450000Y-128800000D02*
X114380000Y-128800000D01*
X114380000Y-128800000D02*
X112070000Y-126490000D01*
X112070000Y-126490000D02*
X112070000Y-70280000D01*
X119030000Y-67380000D02*
X121260000Y-65150000D01*
D20*
X122220000Y-83870000D02*
X123660000Y-83870000D01*
X124370000Y-84580000D02*
X124370000Y-87450000D01*
X123660000Y-83870000D02*
X124370000Y-84580000D01*
D11*
X137187400Y-95684880D02*
X136853390Y-95350870D01*
X136087040Y-94584520D02*
X134622540Y-94584520D01*
X136853390Y-95350870D02*
X136087040Y-94584520D01*
D22*
X114850000Y-83600000D02*
X114850000Y-80580000D01*
X115710000Y-79720000D02*
X115710000Y-74560000D01*
X114850000Y-80580000D02*
X115710000Y-79720000D01*
D19*
X114850000Y-89870000D02*
X114850000Y-91680000D01*
D22*
X114850000Y-91350000D02*
X114850000Y-89870000D01*
X114850000Y-89870000D02*
X114850000Y-83600000D01*
X115710000Y-74560000D02*
X124639540Y-65630460D01*
X124639540Y-65630460D02*
X153804600Y-65630460D01*
D11*
X114850000Y-90810000D02*
X114850000Y-91350000D01*
X114850000Y-91350000D02*
X114850000Y-91680000D01*
X114850000Y-90810000D02*
X114850000Y-91560000D01*
D20*
X116337080Y-75492920D02*
X125280000Y-66550000D01*
X125280000Y-66550000D02*
X138830000Y-66550000D01*
X116337080Y-89964260D02*
X116337080Y-75492920D01*
D23*
X127800000Y-99330000D02*
X129905000Y-99330000D01*
X130439160Y-97967800D02*
X131156960Y-97250000D01*
X130439160Y-98795840D02*
X130439160Y-97967800D01*
X129905000Y-99330000D02*
X130439160Y-98795840D01*
D11*
X121280000Y-110510000D02*
X120030000Y-111760000D01*
X121280000Y-110510000D02*
X121280000Y-109190000D01*
X136511760Y-95679800D02*
X136509800Y-95679800D01*
X136509800Y-95679800D02*
X135940000Y-95110000D01*
X135940000Y-95110000D02*
X135130000Y-95110000D01*
X135130000Y-95110000D02*
X134860000Y-95380000D01*
X134860000Y-95380000D02*
X133540000Y-95380000D01*
X133540000Y-95380000D02*
X131670000Y-97250000D01*
X131670000Y-97250000D02*
X131156960Y-97250000D01*
X121280000Y-108050000D02*
X121280000Y-109190000D01*
X121280000Y-109190000D02*
X121280000Y-109330000D01*
X125710000Y-103620000D02*
X121280000Y-108050000D01*
X125710000Y-101420000D02*
X125710000Y-103620000D01*
X127800000Y-99330000D02*
X125710000Y-101420000D01*
X136211500Y-95384620D02*
X136514300Y-95687420D01*
X143400780Y-116580000D02*
X144232280Y-116580000D01*
X144592040Y-116220240D02*
X145359760Y-116220240D01*
X144232280Y-116580000D02*
X144592040Y-116220240D01*
X142120620Y-116580000D02*
X138344560Y-116580000D01*
X138344560Y-116580000D02*
X137424560Y-117500000D01*
X133780000Y-117500000D02*
X137424560Y-117500000D01*
X133430000Y-117850000D02*
X133780000Y-117500000D01*
X150140000Y-111440000D02*
X152900000Y-111440000D01*
X145359760Y-116220240D02*
X150140000Y-111440000D01*
X142120620Y-116580000D02*
X143400780Y-116580000D01*
X137241280Y-118670000D02*
X137547420Y-118670000D01*
X141908720Y-117860000D02*
X144860000Y-117860000D01*
X141114780Y-117066060D02*
X141908720Y-117860000D01*
X139151360Y-117066060D02*
X141114780Y-117066060D01*
X137547420Y-118670000D02*
X139151360Y-117066060D01*
X144860000Y-117860000D02*
X150700000Y-112020000D01*
X153680000Y-111470000D02*
X153130000Y-112020000D01*
X150700000Y-112020000D02*
X153130000Y-112020000D01*
X133310000Y-119390000D02*
X133310000Y-118880000D01*
X133520000Y-118670000D02*
X137241280Y-118670000D01*
X133310000Y-118880000D02*
X133520000Y-118670000D01*
X138943080Y-120380000D02*
X139423900Y-120380000D01*
X147050760Y-119786400D02*
X147904200Y-118932960D01*
X140017500Y-119786400D02*
X147050760Y-119786400D01*
X139423900Y-120380000D02*
X140017500Y-119786400D01*
X147904200Y-118932960D02*
X147904200Y-116205800D01*
X147904200Y-116205800D02*
X150870000Y-113240000D01*
X153500000Y-113240000D02*
X155240000Y-111500000D01*
X150870000Y-113240000D02*
X153500000Y-113240000D01*
X135930000Y-121070000D02*
X137260000Y-121070000D01*
X137950000Y-120380000D02*
X138943080Y-120380000D01*
X137260000Y-121070000D02*
X137950000Y-120380000D01*
X133300000Y-120390000D02*
X133300000Y-120830000D01*
X133540000Y-121070000D02*
X135930000Y-121070000D01*
X133300000Y-120830000D02*
X133540000Y-121070000D01*
X144754600Y-118483380D02*
X146565620Y-118483380D01*
X147137120Y-117911880D02*
X147137120Y-116252880D01*
X146565620Y-118483380D02*
X147137120Y-117911880D01*
X137205720Y-119900000D02*
X137917620Y-119900000D01*
X147137120Y-116252880D02*
X150780000Y-112610000D01*
X150780000Y-112610000D02*
X153320000Y-112610000D01*
X153320000Y-112610000D02*
X154460000Y-111470000D01*
X133450000Y-119900000D02*
X137205720Y-119900000D01*
X137917620Y-119900000D02*
X139334240Y-118483380D01*
X139334240Y-118483380D02*
X144754600Y-118483380D01*
X153440000Y-109130000D02*
X154710000Y-109130000D01*
X154710000Y-109130000D02*
X155850000Y-110270000D01*
X156800000Y-109790000D02*
X156780000Y-109790000D01*
X156300000Y-110270000D02*
X155850000Y-110270000D01*
X156780000Y-109790000D02*
X156300000Y-110270000D01*
X148420000Y-110260000D02*
X147550000Y-110260000D01*
X149550000Y-109130000D02*
X148420000Y-110260000D01*
X153440000Y-109130000D02*
X149550000Y-109130000D01*
X147550000Y-110260000D02*
X147050000Y-110760000D01*
X142390000Y-111880000D02*
X143410000Y-111880000D01*
X146520000Y-111290000D02*
X147550000Y-110260000D01*
X144000000Y-111290000D02*
X146520000Y-111290000D01*
X143410000Y-111880000D02*
X144000000Y-111290000D01*
X126930000Y-114600000D02*
X131840000Y-114600000D01*
X140060000Y-111880000D02*
X142010000Y-111880000D01*
X142010000Y-111880000D02*
X142390000Y-111880000D01*
X139250000Y-112690000D02*
X140060000Y-111880000D01*
X138560000Y-112690000D02*
X139250000Y-112690000D01*
X138080000Y-112210000D02*
X138560000Y-112690000D01*
X136430000Y-112210000D02*
X138080000Y-112210000D01*
X135920000Y-112720000D02*
X136430000Y-112210000D01*
X133720000Y-112720000D02*
X135920000Y-112720000D01*
X131840000Y-114600000D02*
X133720000Y-112720000D01*
X147860000Y-109790000D02*
X147370000Y-109790000D01*
X140250000Y-111320000D02*
X142170000Y-111320000D01*
X147110000Y-110050000D02*
X147370000Y-109790000D01*
X143440000Y-110050000D02*
X147110000Y-110050000D01*
X142170000Y-111320000D02*
X143440000Y-110050000D01*
X134620000Y-112250000D02*
X135550000Y-112250000D01*
X136480000Y-111320000D02*
X138330000Y-111320000D01*
X135550000Y-112250000D02*
X136480000Y-111320000D01*
X138330000Y-111320000D02*
X140250000Y-111320000D01*
X126430000Y-114100000D02*
X130450000Y-114100000D01*
X132300000Y-112250000D02*
X134620000Y-112250000D01*
X130450000Y-114100000D02*
X132300000Y-112250000D01*
X156020000Y-109790000D02*
X156020000Y-109470000D01*
X149020000Y-108630000D02*
X147860000Y-109790000D01*
X155180000Y-108630000D02*
X149020000Y-108630000D01*
X156020000Y-109470000D02*
X155180000Y-108630000D01*
X156010000Y-110680000D02*
X155570000Y-110680000D01*
X149930000Y-109580000D02*
X148830000Y-110680000D01*
X154470000Y-109580000D02*
X149930000Y-109580000D01*
X155570000Y-110680000D02*
X154470000Y-109580000D01*
X144500000Y-113610000D02*
X145210000Y-113610000D01*
X148140000Y-110680000D02*
X148830000Y-110680000D01*
X145210000Y-113610000D02*
X148140000Y-110680000D01*
X127430000Y-115210000D02*
X132160000Y-115210000D01*
X139410000Y-113610000D02*
X144500000Y-113610000D01*
X139040000Y-113980000D02*
X139410000Y-113610000D01*
X133390000Y-113980000D02*
X139040000Y-113980000D01*
X132160000Y-115210000D02*
X133390000Y-113980000D01*
X156700000Y-110680000D02*
X157580000Y-109800000D01*
X156010000Y-110680000D02*
X156700000Y-110680000D01*
X156030000Y-111050000D02*
X155370000Y-111050000D01*
X150800000Y-109950000D02*
X149700000Y-111050000D01*
X154270000Y-109950000D02*
X150800000Y-109950000D01*
X155370000Y-111050000D02*
X154270000Y-109950000D01*
D20*
X157110000Y-111050000D02*
X156930000Y-111050000D01*
X157110000Y-111050000D02*
X158360000Y-109800000D01*
D11*
X127930000Y-115820000D02*
X132640000Y-115820000D01*
X157110000Y-111050000D02*
X158360000Y-109800000D01*
X156030000Y-111050000D02*
X157110000Y-111050000D01*
X145890000Y-114860000D02*
X149700000Y-111050000D01*
X144040000Y-114860000D02*
X145890000Y-114860000D01*
X143440000Y-114260000D02*
X144040000Y-114860000D01*
X141640000Y-114260000D02*
X143440000Y-114260000D01*
X141090000Y-114810000D02*
X141640000Y-114260000D01*
X139110000Y-114810000D02*
X141090000Y-114810000D01*
X138770000Y-115150000D02*
X139110000Y-114810000D01*
X133310000Y-115150000D02*
X138770000Y-115150000D01*
X132640000Y-115820000D02*
X133310000Y-115150000D01*
X140379390Y-123470610D02*
X140492360Y-123357640D01*
X153779220Y-122842020D02*
X153779220Y-120660780D01*
X153263600Y-123357640D02*
X153779220Y-122842020D01*
X140492360Y-123357640D02*
X153263600Y-123357640D01*
X138090000Y-129500000D02*
X131180000Y-129500000D01*
X139490000Y-128100000D02*
X138090000Y-129500000D01*
X139490000Y-124360000D02*
X139490000Y-128100000D01*
X140379390Y-123470610D02*
X139490000Y-124360000D01*
X156050000Y-113320000D02*
X156050000Y-118390000D01*
X156050000Y-118390000D02*
X153779220Y-120660780D01*
X124870000Y-111350000D02*
X123100000Y-109580000D01*
X123100000Y-109580000D02*
X123100000Y-108800000D01*
X124870000Y-111350000D02*
X124870000Y-114880000D01*
X123600000Y-118470000D02*
X123600000Y-117650000D01*
X123600000Y-118470000D02*
X123600000Y-122390000D01*
X123600000Y-117650000D02*
X124870000Y-116380000D01*
X124870000Y-116380000D02*
X124870000Y-114880000D01*
X131180000Y-129500000D02*
X130500000Y-130180000D01*
X130500000Y-130180000D02*
X125760000Y-130180000D01*
X125760000Y-130180000D02*
X123600000Y-128020000D01*
X123600000Y-128020000D02*
X123600000Y-122390000D01*
X152900000Y-107700000D02*
X146698080Y-107700000D01*
X146698080Y-107700000D02*
X142543720Y-103545640D01*
X140641800Y-102950740D02*
X141236700Y-103545640D01*
X141236700Y-103545640D02*
X142543720Y-103545640D01*
X140641800Y-102542880D02*
X140641800Y-102950740D01*
X153680000Y-106700000D02*
X146273200Y-106700000D01*
X146273200Y-106700000D02*
X142547340Y-102974140D01*
X142547340Y-102974140D02*
X141624240Y-102974140D01*
X141624240Y-102974140D02*
X141223460Y-102573360D01*
D10*
X146273200Y-106700000D02*
X142547340Y-102974140D01*
X142547340Y-102974140D02*
X141624240Y-102974140D01*
X141624240Y-102974140D02*
X141223460Y-102573360D01*
D11*
X142590000Y-101270000D02*
X142590000Y-101810000D01*
X146350000Y-105570000D02*
X155240000Y-105570000D01*
X142590000Y-101810000D02*
X146350000Y-105570000D01*
X141586460Y-102202360D02*
X142462360Y-102202360D01*
X146410000Y-106150000D02*
X154460000Y-106150000D01*
X142462360Y-102202360D02*
X146410000Y-106150000D01*
D10*
X148030000Y-104420000D02*
X147410000Y-104420000D01*
X147410000Y-104420000D02*
X144910000Y-101920000D01*
X147410000Y-104420000D02*
X148030000Y-104420000D01*
X148030000Y-104420000D02*
X156230000Y-104420000D01*
X156230000Y-104420000D02*
X156800000Y-104990000D01*
X156800000Y-104990000D02*
X156800000Y-105720000D01*
D11*
X156020000Y-105000000D02*
X146460000Y-105000000D01*
X142870000Y-100800000D02*
X142500000Y-100800000D01*
X143160000Y-101090000D02*
X142870000Y-100800000D01*
X143160000Y-101700000D02*
X143160000Y-101090000D01*
X146460000Y-105000000D02*
X143160000Y-101700000D01*
D10*
X144090000Y-100020000D02*
X144090000Y-100440000D01*
X144090000Y-100440000D02*
X147750000Y-104100000D01*
X147750000Y-104100000D02*
X156480000Y-104100000D01*
X157580000Y-105200000D02*
X157580000Y-105980000D01*
X156480000Y-104100000D02*
X157580000Y-105200000D01*
D11*
X158360000Y-106450000D02*
X158360000Y-105260000D01*
X158360000Y-105260000D02*
X156840000Y-103740000D01*
X147286960Y-99626960D02*
X142874460Y-99626960D01*
X149920000Y-102260000D02*
X147286960Y-99626960D01*
X149920000Y-103230000D02*
X149920000Y-102260000D01*
X150430000Y-103740000D02*
X149920000Y-103230000D01*
X156840000Y-103740000D02*
X150430000Y-103740000D01*
X135724360Y-102484460D02*
X134185540Y-102484460D01*
X134185540Y-102484460D02*
X130150000Y-106520000D01*
X130150000Y-106520000D02*
X130150000Y-107230000D01*
X130150000Y-107230000D02*
X130150000Y-106520000D01*
X124430000Y-115730000D02*
X123910000Y-115730000D01*
X119170000Y-126790000D02*
X120610000Y-128230000D01*
X119170000Y-119590000D02*
X119170000Y-126790000D01*
X121510000Y-117250000D02*
X119170000Y-119590000D01*
X121510000Y-114120000D02*
X121510000Y-117250000D01*
X121820000Y-113810000D02*
X121510000Y-114120000D01*
X123230000Y-113810000D02*
X121820000Y-113810000D01*
X123550000Y-114130000D02*
X123230000Y-113810000D01*
X123550000Y-115370000D02*
X123550000Y-114130000D01*
X123910000Y-115730000D02*
X123550000Y-115370000D01*
X125120000Y-132180000D02*
X126960000Y-132180000D01*
X120050000Y-127110000D02*
X125120000Y-132180000D01*
X118600000Y-125510000D02*
X118600000Y-126930000D01*
X124540000Y-132870000D02*
X126430000Y-132870000D01*
X118600000Y-126930000D02*
X124540000Y-132870000D01*
X125760000Y-124790000D02*
X125760000Y-126800000D01*
X130800000Y-109670000D02*
X130800000Y-112480000D01*
X125760000Y-113800000D02*
X125760000Y-124790000D01*
X126160000Y-113400000D02*
X125760000Y-113800000D01*
X129880000Y-113400000D02*
X126160000Y-113400000D01*
X130800000Y-112480000D02*
X129880000Y-113400000D01*
X134119720Y-103330280D02*
X130800000Y-106650000D01*
X130800000Y-106650000D02*
X130800000Y-109670000D01*
X135993600Y-103330280D02*
X134119720Y-103330280D01*
X134408640Y-103330280D02*
X135993600Y-103330280D01*
X135993600Y-103330280D02*
X136793700Y-102530180D01*
D10*
X135993600Y-103330280D02*
X134408640Y-103330280D01*
X136793700Y-102530180D02*
X135993600Y-103330280D01*
D11*
X129930000Y-129400000D02*
X126610000Y-129400000D01*
X126610000Y-129400000D02*
X125230000Y-128020000D01*
X125230000Y-128020000D02*
X125230000Y-122150000D01*
X128960000Y-104970000D02*
X125230000Y-108700000D01*
X125230000Y-128020000D02*
X126610000Y-129400000D01*
X125230000Y-108700000D02*
X125230000Y-128020000D01*
X133134100Y-100795900D02*
X128960000Y-104970000D01*
X133134100Y-100604320D02*
X133134100Y-100795900D01*
X128584960Y-105336340D02*
X133136640Y-100784660D01*
X133136640Y-100784660D02*
X133136640Y-100611940D01*
D24*
X133136640Y-100784660D02*
X133136640Y-100611940D01*
X128584960Y-105336340D02*
X133136640Y-100784660D01*
D11*
X129670000Y-112180000D02*
X129670000Y-106313780D01*
X134583900Y-101399880D02*
X129821940Y-106161840D01*
X129670000Y-106313780D02*
X129821940Y-106161840D01*
X134730000Y-126100000D02*
X134730000Y-124650000D01*
X134370000Y-124290000D02*
X133490000Y-124290000D01*
X134730000Y-124650000D02*
X134370000Y-124290000D01*
X121050000Y-116730000D02*
X121050000Y-111530000D01*
X121850000Y-110730000D02*
X123060000Y-110730000D01*
X121050000Y-111530000D02*
X121850000Y-110730000D01*
X119660000Y-118120000D02*
X116550000Y-118120000D01*
X121050000Y-116730000D02*
X119660000Y-118120000D01*
X148100000Y-70170000D02*
X148100000Y-68260000D01*
X148100000Y-68260000D02*
X146280000Y-66440000D01*
X146280000Y-66440000D02*
X141060000Y-66440000D01*
X141060000Y-66440000D02*
X139810000Y-67690000D01*
X139810000Y-67690000D02*
X125520000Y-67690000D01*
X125520000Y-67690000D02*
X117170000Y-76040000D01*
X117170000Y-76040000D02*
X117170000Y-86530000D01*
X117170000Y-86530000D02*
X118030000Y-87390000D01*
X118030000Y-87390000D02*
X118030000Y-91850000D01*
X118030000Y-91850000D02*
X115440000Y-94440000D01*
X115440000Y-94440000D02*
X115440000Y-117010000D01*
X115440000Y-117010000D02*
X116550000Y-118120000D01*
X129230000Y-110330000D02*
X129230000Y-105867320D01*
X134174960Y-100922360D02*
X129230000Y-105867320D01*
D10*
X134177500Y-100929980D02*
X129313400Y-105794080D01*
D11*
X147060000Y-120700000D02*
X146850000Y-120910000D01*
X136450000Y-122600000D02*
X136450000Y-123230000D01*
X138140000Y-120910000D02*
X136450000Y-122600000D01*
X146850000Y-120910000D02*
X138140000Y-120910000D01*
X155710000Y-112050000D02*
X147060000Y-120700000D01*
X157260000Y-112050000D02*
X155710000Y-112050000D01*
X159490000Y-109820000D02*
X157260000Y-112050000D01*
X159490000Y-103140000D02*
X159490000Y-109820000D01*
X160620000Y-102010000D02*
X159490000Y-103140000D01*
X160620000Y-101060000D02*
X160620000Y-102010000D01*
X161340000Y-100340000D02*
X160620000Y-101060000D01*
X161340000Y-95410000D02*
X161340000Y-100340000D01*
X160590000Y-94660000D02*
X161340000Y-95410000D01*
X160590000Y-93620000D02*
X160590000Y-94660000D01*
X159380000Y-92410000D02*
X160590000Y-93620000D01*
X159380000Y-91260000D02*
X159380000Y-92410000D01*
X144730000Y-76610000D02*
X159380000Y-91260000D01*
X144730000Y-67910000D02*
X144730000Y-76610000D01*
X144900000Y-67740000D02*
X144730000Y-67910000D01*
X146050000Y-67740000D02*
X144900000Y-67740000D01*
X146410000Y-68100000D02*
X146050000Y-67740000D01*
X135220000Y-124460000D02*
X135220000Y-127440000D01*
X136450000Y-123230000D02*
X135220000Y-124460000D01*
X146410000Y-70170000D02*
X146410000Y-68100000D01*
X133990000Y-128670000D02*
X127770000Y-128670000D01*
X135220000Y-127440000D02*
X133990000Y-128670000D01*
X126460000Y-127360000D02*
X126460000Y-118370000D01*
X127770000Y-128670000D02*
X126460000Y-127360000D01*
X128760000Y-112850000D02*
X128760000Y-105742960D01*
X133717760Y-100541360D02*
X133717760Y-100785200D01*
X133717760Y-100785200D02*
X128760000Y-105742960D01*
D10*
X133720300Y-100548980D02*
X133720300Y-100787740D01*
X133720300Y-100787740D02*
X128986280Y-105521760D01*
D11*
X141278840Y-97592200D02*
X141278840Y-96442200D01*
X141278840Y-96442200D02*
X141628840Y-96092200D01*
X141142180Y-94767940D02*
X140735780Y-94361540D01*
X140735780Y-94361540D02*
X140735780Y-93833220D01*
X140735780Y-93833220D02*
X141114240Y-93454760D01*
X141114240Y-93454760D02*
X141528260Y-93454760D01*
X141528260Y-93454760D02*
X142010860Y-92972160D01*
X141628840Y-95254600D02*
X141628840Y-96092200D01*
X141142180Y-94767940D02*
X141628840Y-95254600D01*
X155600000Y-130140000D02*
X155600000Y-132600000D01*
X155600000Y-132600000D02*
X156100000Y-133100000D01*
X131100000Y-132510000D02*
X131110000Y-132510000D01*
X132800000Y-133100000D02*
X133390000Y-132510000D01*
X131700000Y-133100000D02*
X132800000Y-133100000D01*
X131110000Y-132510000D02*
X131700000Y-133100000D01*
X151100000Y-128300000D02*
X146890000Y-132510000D01*
X159300000Y-128300000D02*
X151100000Y-128300000D01*
X160290000Y-127310000D02*
X159300000Y-128300000D01*
X145580000Y-71270000D02*
X145980000Y-71670000D01*
X145980000Y-71670000D02*
X145980000Y-76070000D01*
X145980000Y-76070000D02*
X160340000Y-90430000D01*
X160340000Y-90430000D02*
X160340000Y-91190000D01*
X160340000Y-91190000D02*
X161230000Y-92080000D01*
X161230000Y-92080000D02*
X161230000Y-92920000D01*
X161230000Y-92920000D02*
X162200000Y-93890000D01*
X162200000Y-93890000D02*
X162200000Y-101650000D01*
X162200000Y-101650000D02*
X161590000Y-102260000D01*
X161590000Y-102260000D02*
X161590000Y-103180000D01*
X161590000Y-103180000D02*
X160290000Y-104480000D01*
X160290000Y-104480000D02*
X160290000Y-126900000D01*
X146890000Y-132510000D02*
X133390000Y-132510000D01*
X145580000Y-68520000D02*
X145580000Y-71270000D01*
X160290000Y-126900000D02*
X160290000Y-127310000D01*
X131100000Y-132510000D02*
X127930000Y-132510000D01*
D20*
X114122200Y-88915240D02*
X114122200Y-80327800D01*
X114122200Y-80327800D02*
X114220000Y-80230000D01*
D22*
X117322600Y-88193880D02*
X117322600Y-91978480D01*
X117322600Y-91978480D02*
X117320060Y-91981020D01*
D20*
X129974760Y-99991420D02*
X136485680Y-99991420D01*
X129974760Y-99991420D02*
X127224760Y-102741420D01*
X127224760Y-102741420D02*
X127224760Y-104385240D01*
X127224760Y-104385240D02*
X126970000Y-104640000D01*
D11*
X137789000Y-101294740D02*
X136485680Y-99991420D01*
X140689000Y-101209980D02*
X140304240Y-101594740D01*
X140304240Y-101594740D02*
X138089000Y-101594740D01*
X138089000Y-101594740D02*
X137789000Y-101294740D01*
D10*
X138089000Y-101594740D02*
X140289000Y-101594740D01*
X140289000Y-101594740D02*
X140689000Y-101194740D01*
X137789000Y-101294740D02*
X138089000Y-101594740D01*
D25*
G36*
X137956996Y-90856998D02*
X137962640Y-90858100D01*
X144102803Y-90858100D01*
X144127715Y-90918391D01*
X144244355Y-91035234D01*
X144396829Y-91098547D01*
X144412267Y-91098561D01*
X145537160Y-92223454D01*
X145537160Y-94027822D01*
X145502266Y-94062655D01*
X145438953Y-94215129D01*
X145438808Y-94380226D01*
X145501855Y-94532811D01*
X145537160Y-94568177D01*
X145537160Y-94917047D01*
X145484545Y-94789709D01*
X145367905Y-94672866D01*
X145215431Y-94609553D01*
X145050334Y-94609408D01*
X144897749Y-94672455D01*
X144780906Y-94789095D01*
X144717593Y-94941569D01*
X144717448Y-95106666D01*
X144780495Y-95259251D01*
X144897135Y-95376094D01*
X145049609Y-95439407D01*
X145214706Y-95439552D01*
X145367291Y-95376505D01*
X145484134Y-95259865D01*
X145537160Y-95132165D01*
X145537160Y-95782266D01*
X145284326Y-96035100D01*
X142881214Y-96035100D01*
X142666480Y-95820366D01*
X142666480Y-95792342D01*
X142743891Y-95792410D01*
X142850517Y-95748353D01*
X142932166Y-95666846D01*
X142976409Y-95560298D01*
X142976510Y-95444929D01*
X142932453Y-95338303D01*
X142850946Y-95256654D01*
X142744398Y-95212411D01*
X142666480Y-95212343D01*
X142666480Y-94959991D01*
X143696930Y-94959991D01*
X143740987Y-95066617D01*
X143822494Y-95148266D01*
X143929042Y-95192509D01*
X144044411Y-95192610D01*
X144151037Y-95148553D01*
X144232686Y-95067046D01*
X144276929Y-94960498D01*
X144277030Y-94845129D01*
X144232973Y-94738503D01*
X144151466Y-94656854D01*
X144044918Y-94612611D01*
X143929549Y-94612510D01*
X143822923Y-94656567D01*
X143741274Y-94738074D01*
X143697031Y-94844622D01*
X143696930Y-94959991D01*
X142666480Y-94959991D01*
X142666480Y-94360551D01*
X143696930Y-94360551D01*
X143740987Y-94467177D01*
X143822494Y-94548826D01*
X143929042Y-94593069D01*
X144044411Y-94593170D01*
X144151037Y-94549113D01*
X144232686Y-94467606D01*
X144276929Y-94361058D01*
X144277030Y-94245689D01*
X144232973Y-94139063D01*
X144151466Y-94057414D01*
X144044918Y-94013171D01*
X143929549Y-94013070D01*
X143822923Y-94057127D01*
X143741274Y-94138634D01*
X143697031Y-94245182D01*
X143696930Y-94360551D01*
X142666480Y-94360551D01*
X142666480Y-93559791D01*
X143696410Y-93559791D01*
X143740467Y-93666417D01*
X143821974Y-93748066D01*
X143928522Y-93792309D01*
X144043891Y-93792410D01*
X144150517Y-93748353D01*
X144232166Y-93666846D01*
X144276409Y-93560298D01*
X144276510Y-93444929D01*
X144232453Y-93338303D01*
X144150946Y-93256654D01*
X144044398Y-93212411D01*
X143929029Y-93212310D01*
X143822403Y-93256367D01*
X143740754Y-93337874D01*
X143696511Y-93444422D01*
X143696410Y-93559791D01*
X142666480Y-93559791D01*
X142666480Y-93241940D01*
X142665298Y-93236104D01*
X142662087Y-93231333D01*
X142333887Y-92903133D01*
X142328924Y-92899842D01*
X142323280Y-92898740D01*
X142294912Y-92898740D01*
X142254313Y-92800483D01*
X142172806Y-92718834D01*
X142066258Y-92674591D01*
X141950889Y-92674490D01*
X141844263Y-92718547D01*
X141762614Y-92800054D01*
X141721636Y-92898740D01*
X141607973Y-92898740D01*
X141608052Y-92808694D01*
X141545005Y-92656109D01*
X141428365Y-92539266D01*
X141275891Y-92475953D01*
X141110794Y-92475808D01*
X140958209Y-92538855D01*
X140841366Y-92655495D01*
X140778053Y-92807969D01*
X140777973Y-92898740D01*
X139285440Y-92898740D01*
X139279604Y-92899922D01*
X139274833Y-92903133D01*
X139094524Y-93083442D01*
X139080689Y-93083430D01*
X138974063Y-93127487D01*
X138892414Y-93208994D01*
X138848171Y-93315542D01*
X138848159Y-93329807D01*
X138713168Y-93464798D01*
X138727029Y-93431418D01*
X138727130Y-93316049D01*
X138683073Y-93209423D01*
X138601566Y-93127774D01*
X138495018Y-93083531D01*
X138379649Y-93083430D01*
X138273023Y-93127487D01*
X138191374Y-93208994D01*
X138147131Y-93315542D01*
X138147030Y-93430911D01*
X138191087Y-93537537D01*
X138272594Y-93619186D01*
X138379142Y-93663429D01*
X138494511Y-93663530D01*
X138528466Y-93649500D01*
X137590666Y-94587300D01*
X136865197Y-94587300D01*
X136876409Y-94560298D01*
X136876510Y-94444929D01*
X136832453Y-94338303D01*
X136750946Y-94256654D01*
X136644398Y-94212411D01*
X136529029Y-94212310D01*
X136422403Y-94256367D01*
X136340754Y-94337874D01*
X136296511Y-94444422D01*
X136296471Y-94489895D01*
X136239068Y-94432492D01*
X136169317Y-94385886D01*
X136087040Y-94369520D01*
X134822745Y-94369520D01*
X134784486Y-94331194D01*
X134677938Y-94286951D01*
X134562569Y-94286850D01*
X134455943Y-94330907D01*
X134374294Y-94412414D01*
X134330051Y-94518962D01*
X134329991Y-94587300D01*
X133205220Y-94587300D01*
X133199384Y-94588482D01*
X133194613Y-94591693D01*
X132436082Y-95350224D01*
X132436112Y-95315674D01*
X132373065Y-95163089D01*
X132256425Y-95046246D01*
X132103951Y-94982933D01*
X131938854Y-94982788D01*
X131786269Y-95045835D01*
X131669426Y-95162475D01*
X131606113Y-95314949D01*
X131605968Y-95480046D01*
X131669015Y-95632631D01*
X131785655Y-95749474D01*
X131938129Y-95812787D01*
X131973488Y-95812818D01*
X129975746Y-97810560D01*
X122555000Y-97810560D01*
X122549164Y-97811742D01*
X122544393Y-97814953D01*
X121902324Y-98457022D01*
X121878345Y-98398989D01*
X121761705Y-98282146D01*
X121609231Y-98218833D01*
X121444134Y-98218688D01*
X121291549Y-98281735D01*
X121174706Y-98398375D01*
X121111393Y-98550849D01*
X121111248Y-98715946D01*
X121174295Y-98868531D01*
X121290935Y-98985374D01*
X121349609Y-99009737D01*
X120751153Y-99608193D01*
X120747862Y-99613156D01*
X120746760Y-99618800D01*
X120746760Y-110739184D01*
X120015956Y-111469988D01*
X119972569Y-111469950D01*
X119865943Y-111514007D01*
X119784294Y-111595514D01*
X119740051Y-111702062D01*
X119739950Y-111817431D01*
X119784007Y-111924057D01*
X119865514Y-112005706D01*
X119972062Y-112049949D01*
X120087431Y-112050050D01*
X120194057Y-112005993D01*
X120275706Y-111924486D01*
X120319949Y-111817938D01*
X120319987Y-111774069D01*
X120746760Y-111347296D01*
X120746760Y-116178466D01*
X119119786Y-117805440D01*
X116597294Y-117805440D01*
X115869480Y-117077626D01*
X115869480Y-115426354D01*
X117866607Y-113429227D01*
X117869898Y-113424264D01*
X117871000Y-113418620D01*
X117871000Y-112888926D01*
X118258568Y-112888926D01*
X118321615Y-113041511D01*
X118438255Y-113158354D01*
X118590729Y-113221667D01*
X118755826Y-113221812D01*
X118908411Y-113158765D01*
X119025254Y-113042125D01*
X119088567Y-112889651D01*
X119088712Y-112724554D01*
X119025665Y-112571969D01*
X118909025Y-112455126D01*
X118756551Y-112391813D01*
X118591454Y-112391668D01*
X118438869Y-112454715D01*
X118322026Y-112571355D01*
X118258713Y-112723829D01*
X118258568Y-112888926D01*
X117871000Y-112888926D01*
X117871000Y-110976066D01*
X118243148Y-110976066D01*
X118306195Y-111128651D01*
X118422835Y-111245494D01*
X118575309Y-111308807D01*
X118740406Y-111308952D01*
X118892991Y-111245905D01*
X119009834Y-111129265D01*
X119073147Y-110976791D01*
X119073292Y-110811694D01*
X119010245Y-110659109D01*
X118893605Y-110542266D01*
X118741131Y-110478953D01*
X118576034Y-110478808D01*
X118423449Y-110541855D01*
X118306606Y-110658495D01*
X118243293Y-110810969D01*
X118243148Y-110976066D01*
X117871000Y-110976066D01*
X117871000Y-107901827D01*
X117878411Y-107898765D01*
X117995254Y-107782125D01*
X118051734Y-107646106D01*
X118342628Y-107646106D01*
X118405675Y-107798691D01*
X118522315Y-107915534D01*
X118674789Y-107978847D01*
X118839886Y-107978992D01*
X118992471Y-107915945D01*
X119109314Y-107799305D01*
X119172627Y-107646831D01*
X119172772Y-107481734D01*
X119109725Y-107329149D01*
X118993085Y-107212306D01*
X118840611Y-107148993D01*
X118675514Y-107148848D01*
X118522929Y-107211895D01*
X118406086Y-107328535D01*
X118342773Y-107481009D01*
X118342628Y-107646106D01*
X118051734Y-107646106D01*
X118058567Y-107629651D01*
X118058712Y-107464554D01*
X117995665Y-107311969D01*
X117879025Y-107195126D01*
X117871000Y-107191794D01*
X117871000Y-104835824D01*
X117971614Y-104735385D01*
X118034927Y-104582911D01*
X118034927Y-104582186D01*
X118344928Y-104582186D01*
X118407975Y-104734771D01*
X118524615Y-104851614D01*
X118677089Y-104914927D01*
X118842186Y-104915072D01*
X118994771Y-104852025D01*
X119111614Y-104735385D01*
X119174927Y-104582911D01*
X119175072Y-104417814D01*
X119112025Y-104265229D01*
X118995385Y-104148386D01*
X118842911Y-104085073D01*
X118677814Y-104084928D01*
X118525229Y-104147975D01*
X118408386Y-104264615D01*
X118345073Y-104417089D01*
X118344928Y-104582186D01*
X118034927Y-104582186D01*
X118035072Y-104417814D01*
X117972025Y-104265229D01*
X117871000Y-104164028D01*
X117871000Y-100755766D01*
X119862328Y-100755766D01*
X119925375Y-100908351D01*
X120042015Y-101025194D01*
X120194489Y-101088507D01*
X120359586Y-101088652D01*
X120512171Y-101025605D01*
X120629014Y-100908965D01*
X120692327Y-100756491D01*
X120692472Y-100591394D01*
X120629425Y-100438809D01*
X120512785Y-100321966D01*
X120360311Y-100258653D01*
X120195214Y-100258508D01*
X120042629Y-100321555D01*
X119925786Y-100438195D01*
X119862473Y-100590669D01*
X119862328Y-100755766D01*
X117871000Y-100755766D01*
X117871000Y-99984902D01*
X117974771Y-99942025D01*
X118091614Y-99825385D01*
X118154927Y-99672911D01*
X118154927Y-99672186D01*
X118274928Y-99672186D01*
X118337975Y-99824771D01*
X118454615Y-99941614D01*
X118607089Y-100004927D01*
X118772186Y-100005072D01*
X118924771Y-99942025D01*
X119041614Y-99825385D01*
X119104927Y-99672911D01*
X119105072Y-99507814D01*
X119042025Y-99355229D01*
X118925385Y-99238386D01*
X118772911Y-99175073D01*
X118607814Y-99174928D01*
X118455229Y-99237975D01*
X118338386Y-99354615D01*
X118275073Y-99507089D01*
X118274928Y-99672186D01*
X118154927Y-99672186D01*
X118155072Y-99507814D01*
X118092025Y-99355229D01*
X117975385Y-99238386D01*
X117871000Y-99195041D01*
X117871000Y-98437366D01*
X120017628Y-98437366D01*
X120080675Y-98589951D01*
X120197315Y-98706794D01*
X120349789Y-98770107D01*
X120514886Y-98770252D01*
X120667471Y-98707205D01*
X120784314Y-98590565D01*
X120847627Y-98438091D01*
X120847772Y-98272994D01*
X120784725Y-98120409D01*
X120668085Y-98003566D01*
X120515611Y-97940253D01*
X120350514Y-97940108D01*
X120197929Y-98003155D01*
X120081086Y-98119795D01*
X120017773Y-98272269D01*
X120017628Y-98437366D01*
X117871000Y-98437366D01*
X117871000Y-97768274D01*
X119790108Y-95849166D01*
X120238048Y-95849166D01*
X120301095Y-96001751D01*
X120417735Y-96118594D01*
X120570209Y-96181907D01*
X120735306Y-96182052D01*
X120887891Y-96119005D01*
X121004734Y-96002365D01*
X121068047Y-95849891D01*
X121068047Y-95849726D01*
X121410968Y-95849726D01*
X121474015Y-96002311D01*
X121590655Y-96119154D01*
X121743129Y-96182467D01*
X121908226Y-96182612D01*
X122060811Y-96119565D01*
X122177654Y-96002925D01*
X122235994Y-95862426D01*
X122475228Y-95862426D01*
X122538275Y-96015011D01*
X122654915Y-96131854D01*
X122807389Y-96195167D01*
X122972486Y-96195312D01*
X123125071Y-96132265D01*
X123241914Y-96015625D01*
X123290280Y-95899146D01*
X127249868Y-95899146D01*
X127312915Y-96051731D01*
X127429555Y-96168574D01*
X127582029Y-96231887D01*
X127747126Y-96232032D01*
X127899711Y-96168985D01*
X128016554Y-96052345D01*
X128079867Y-95899871D01*
X128080012Y-95734774D01*
X128016965Y-95582189D01*
X127900325Y-95465346D01*
X127747851Y-95402033D01*
X127582754Y-95401888D01*
X127430169Y-95464935D01*
X127313326Y-95581575D01*
X127250013Y-95734049D01*
X127249868Y-95899146D01*
X123290280Y-95899146D01*
X123305227Y-95863151D01*
X123305372Y-95698054D01*
X123242325Y-95545469D01*
X123125685Y-95428626D01*
X122973211Y-95365313D01*
X122808114Y-95365168D01*
X122655529Y-95428215D01*
X122538686Y-95544855D01*
X122475373Y-95697329D01*
X122475228Y-95862426D01*
X122235994Y-95862426D01*
X122240967Y-95850451D01*
X122241112Y-95685354D01*
X122178065Y-95532769D01*
X122061425Y-95415926D01*
X121908951Y-95352613D01*
X121743854Y-95352468D01*
X121591269Y-95415515D01*
X121474426Y-95532155D01*
X121411113Y-95684629D01*
X121410968Y-95849726D01*
X121068047Y-95849726D01*
X121068192Y-95684794D01*
X121005145Y-95532209D01*
X120888505Y-95415366D01*
X120736031Y-95352053D01*
X120570934Y-95351908D01*
X120418349Y-95414955D01*
X120301506Y-95531595D01*
X120238193Y-95684069D01*
X120238048Y-95849166D01*
X119790108Y-95849166D01*
X120580014Y-95059260D01*
X127807719Y-95059260D01*
X127813555Y-95058078D01*
X127818326Y-95054867D01*
X128119587Y-94753606D01*
X130884608Y-94753606D01*
X130947655Y-94906191D01*
X131064295Y-95023034D01*
X131216769Y-95086347D01*
X131381866Y-95086492D01*
X131534451Y-95023445D01*
X131651294Y-94906805D01*
X131714607Y-94754331D01*
X131714752Y-94589234D01*
X131679818Y-94504686D01*
X131804088Y-94504686D01*
X131867135Y-94657271D01*
X131983775Y-94774114D01*
X132136249Y-94837427D01*
X132301346Y-94837572D01*
X132453931Y-94774525D01*
X132570774Y-94657885D01*
X132634087Y-94505411D01*
X132634232Y-94340314D01*
X132571185Y-94187729D01*
X132454545Y-94070886D01*
X132302071Y-94007573D01*
X132136974Y-94007428D01*
X131984389Y-94070475D01*
X131867546Y-94187115D01*
X131804233Y-94339589D01*
X131804088Y-94504686D01*
X131679818Y-94504686D01*
X131651705Y-94436649D01*
X131535065Y-94319806D01*
X131382591Y-94256493D01*
X131217494Y-94256348D01*
X131064909Y-94319395D01*
X130948066Y-94436035D01*
X130884753Y-94588509D01*
X130884608Y-94753606D01*
X128119587Y-94753606D01*
X128837597Y-94035596D01*
X128887715Y-94156891D01*
X129004355Y-94273734D01*
X129156829Y-94337047D01*
X129321926Y-94337192D01*
X129474511Y-94274145D01*
X129591354Y-94157505D01*
X129645475Y-94027166D01*
X130066728Y-94027166D01*
X130129775Y-94179751D01*
X130246415Y-94296594D01*
X130398889Y-94359907D01*
X130563986Y-94360052D01*
X130716571Y-94297005D01*
X130833414Y-94180365D01*
X130896727Y-94027891D01*
X130896872Y-93862794D01*
X130852492Y-93755386D01*
X131067488Y-93755386D01*
X131130535Y-93907971D01*
X131247175Y-94024814D01*
X131399649Y-94088127D01*
X131564746Y-94088272D01*
X131717331Y-94025225D01*
X131834174Y-93908585D01*
X131897487Y-93756111D01*
X131897632Y-93591014D01*
X131834585Y-93438429D01*
X131827081Y-93430911D01*
X136849090Y-93430911D01*
X136893147Y-93537537D01*
X136974654Y-93619186D01*
X137081202Y-93663429D01*
X137196571Y-93663530D01*
X137303197Y-93619473D01*
X137384846Y-93537966D01*
X137429089Y-93431418D01*
X137429190Y-93316049D01*
X137385133Y-93209423D01*
X137303626Y-93127774D01*
X137197078Y-93083531D01*
X137081709Y-93083430D01*
X136975083Y-93127487D01*
X136893434Y-93208994D01*
X136849191Y-93315542D01*
X136849090Y-93430911D01*
X131827081Y-93430911D01*
X131717945Y-93321586D01*
X131565471Y-93258273D01*
X131400374Y-93258128D01*
X131247789Y-93321175D01*
X131130946Y-93437815D01*
X131067633Y-93590289D01*
X131067488Y-93755386D01*
X130852492Y-93755386D01*
X130833825Y-93710209D01*
X130717185Y-93593366D01*
X130564711Y-93530053D01*
X130399614Y-93529908D01*
X130247029Y-93592955D01*
X130130186Y-93709595D01*
X130066873Y-93862069D01*
X130066728Y-94027166D01*
X129645475Y-94027166D01*
X129654667Y-94005031D01*
X129654812Y-93839934D01*
X129591765Y-93687349D01*
X129475125Y-93570506D01*
X129353281Y-93519912D01*
X129844247Y-93028946D01*
X130249608Y-93028946D01*
X130312655Y-93181531D01*
X130429295Y-93298374D01*
X130581769Y-93361687D01*
X130746866Y-93361832D01*
X130899451Y-93298785D01*
X131016294Y-93182145D01*
X131079607Y-93029671D01*
X131079710Y-92912106D01*
X135956988Y-92912106D01*
X136020035Y-93064691D01*
X136136675Y-93181534D01*
X136289149Y-93244847D01*
X136454246Y-93244992D01*
X136606831Y-93181945D01*
X136723674Y-93065305D01*
X136786987Y-92912831D01*
X136787132Y-92747734D01*
X136724085Y-92595149D01*
X136607445Y-92478306D01*
X136454971Y-92414993D01*
X136289874Y-92414848D01*
X136137289Y-92477895D01*
X136020446Y-92594535D01*
X135957133Y-92747009D01*
X135956988Y-92912106D01*
X131079710Y-92912106D01*
X131079752Y-92864574D01*
X131016705Y-92711989D01*
X130900065Y-92595146D01*
X130747591Y-92531833D01*
X130582494Y-92531688D01*
X130429909Y-92594735D01*
X130313066Y-92711375D01*
X130249753Y-92863849D01*
X130249608Y-93028946D01*
X129844247Y-93028946D01*
X130718007Y-92155186D01*
X134646348Y-92155186D01*
X134709395Y-92307771D01*
X134826035Y-92424614D01*
X134978509Y-92487927D01*
X135143606Y-92488072D01*
X135296191Y-92425025D01*
X135413034Y-92308385D01*
X135452389Y-92213606D01*
X142083468Y-92213606D01*
X142146515Y-92366191D01*
X142263155Y-92483034D01*
X142415629Y-92546347D01*
X142580726Y-92546492D01*
X142733311Y-92483445D01*
X142850154Y-92366805D01*
X142913467Y-92214331D01*
X142913612Y-92049234D01*
X142850565Y-91896649D01*
X142733925Y-91779806D01*
X142581451Y-91716493D01*
X142416354Y-91716348D01*
X142263769Y-91779395D01*
X142146926Y-91896035D01*
X142083613Y-92048509D01*
X142083468Y-92213606D01*
X135452389Y-92213606D01*
X135476347Y-92155911D01*
X135476492Y-91990814D01*
X135413445Y-91838229D01*
X135296805Y-91721386D01*
X135144331Y-91658073D01*
X134979234Y-91657928D01*
X134826649Y-91720975D01*
X134709806Y-91837615D01*
X134646493Y-91990089D01*
X134646348Y-92155186D01*
X130718007Y-92155186D01*
X131373327Y-91499866D01*
X133676068Y-91499866D01*
X133739115Y-91652451D01*
X133855755Y-91769294D01*
X134008229Y-91832607D01*
X134173326Y-91832752D01*
X134325911Y-91769705D01*
X134442754Y-91653065D01*
X134506067Y-91500591D01*
X134506096Y-91467406D01*
X138370048Y-91467406D01*
X138433095Y-91619991D01*
X138549735Y-91736834D01*
X138702209Y-91800147D01*
X138867306Y-91800292D01*
X139019891Y-91737245D01*
X139136734Y-91620605D01*
X139162611Y-91558286D01*
X143053748Y-91558286D01*
X143116795Y-91710871D01*
X143233435Y-91827714D01*
X143385909Y-91891027D01*
X143551006Y-91891172D01*
X143703591Y-91828125D01*
X143820434Y-91711485D01*
X143883747Y-91559011D01*
X143883892Y-91393914D01*
X143820845Y-91241329D01*
X143704205Y-91124486D01*
X143551731Y-91061173D01*
X143386634Y-91061028D01*
X143234049Y-91124075D01*
X143117206Y-91240715D01*
X143053893Y-91393189D01*
X143053748Y-91558286D01*
X139162611Y-91558286D01*
X139200047Y-91468131D01*
X139200192Y-91303034D01*
X139137145Y-91150449D01*
X139020505Y-91033606D01*
X138868031Y-90970293D01*
X138702934Y-90970148D01*
X138550349Y-91033195D01*
X138433506Y-91149835D01*
X138370193Y-91302309D01*
X138370048Y-91467406D01*
X134506096Y-91467406D01*
X134506212Y-91335494D01*
X134443165Y-91182909D01*
X134326525Y-91066066D01*
X134174051Y-91002753D01*
X134008954Y-91002608D01*
X133856369Y-91065655D01*
X133739526Y-91182295D01*
X133676213Y-91334769D01*
X133676068Y-91499866D01*
X131373327Y-91499866D01*
X132015094Y-90858100D01*
X132727422Y-90858100D01*
X132728195Y-90859971D01*
X132844835Y-90976814D01*
X132997309Y-91040127D01*
X133162406Y-91040272D01*
X133314991Y-90977225D01*
X133431834Y-90860585D01*
X133432866Y-90858100D01*
X137949939Y-90858100D01*
X137955775Y-90856918D01*
X137956321Y-90856550D01*
X137956996Y-90856998D01*
X137956996Y-90856998D01*
G37*
X137956996Y-90856998D02*
X137962640Y-90858100D01*
X144102803Y-90858100D01*
X144127715Y-90918391D01*
X144244355Y-91035234D01*
X144396829Y-91098547D01*
X144412267Y-91098561D01*
X145537160Y-92223454D01*
X145537160Y-94027822D01*
X145502266Y-94062655D01*
X145438953Y-94215129D01*
X145438808Y-94380226D01*
X145501855Y-94532811D01*
X145537160Y-94568177D01*
X145537160Y-94917047D01*
X145484545Y-94789709D01*
X145367905Y-94672866D01*
X145215431Y-94609553D01*
X145050334Y-94609408D01*
X144897749Y-94672455D01*
X144780906Y-94789095D01*
X144717593Y-94941569D01*
X144717448Y-95106666D01*
X144780495Y-95259251D01*
X144897135Y-95376094D01*
X145049609Y-95439407D01*
X145214706Y-95439552D01*
X145367291Y-95376505D01*
X145484134Y-95259865D01*
X145537160Y-95132165D01*
X145537160Y-95782266D01*
X145284326Y-96035100D01*
X142881214Y-96035100D01*
X142666480Y-95820366D01*
X142666480Y-95792342D01*
X142743891Y-95792410D01*
X142850517Y-95748353D01*
X142932166Y-95666846D01*
X142976409Y-95560298D01*
X142976510Y-95444929D01*
X142932453Y-95338303D01*
X142850946Y-95256654D01*
X142744398Y-95212411D01*
X142666480Y-95212343D01*
X142666480Y-94959991D01*
X143696930Y-94959991D01*
X143740987Y-95066617D01*
X143822494Y-95148266D01*
X143929042Y-95192509D01*
X144044411Y-95192610D01*
X144151037Y-95148553D01*
X144232686Y-95067046D01*
X144276929Y-94960498D01*
X144277030Y-94845129D01*
X144232973Y-94738503D01*
X144151466Y-94656854D01*
X144044918Y-94612611D01*
X143929549Y-94612510D01*
X143822923Y-94656567D01*
X143741274Y-94738074D01*
X143697031Y-94844622D01*
X143696930Y-94959991D01*
X142666480Y-94959991D01*
X142666480Y-94360551D01*
X143696930Y-94360551D01*
X143740987Y-94467177D01*
X143822494Y-94548826D01*
X143929042Y-94593069D01*
X144044411Y-94593170D01*
X144151037Y-94549113D01*
X144232686Y-94467606D01*
X144276929Y-94361058D01*
X144277030Y-94245689D01*
X144232973Y-94139063D01*
X144151466Y-94057414D01*
X144044918Y-94013171D01*
X143929549Y-94013070D01*
X143822923Y-94057127D01*
X143741274Y-94138634D01*
X143697031Y-94245182D01*
X143696930Y-94360551D01*
X142666480Y-94360551D01*
X142666480Y-93559791D01*
X143696410Y-93559791D01*
X143740467Y-93666417D01*
X143821974Y-93748066D01*
X143928522Y-93792309D01*
X144043891Y-93792410D01*
X144150517Y-93748353D01*
X144232166Y-93666846D01*
X144276409Y-93560298D01*
X144276510Y-93444929D01*
X144232453Y-93338303D01*
X144150946Y-93256654D01*
X144044398Y-93212411D01*
X143929029Y-93212310D01*
X143822403Y-93256367D01*
X143740754Y-93337874D01*
X143696511Y-93444422D01*
X143696410Y-93559791D01*
X142666480Y-93559791D01*
X142666480Y-93241940D01*
X142665298Y-93236104D01*
X142662087Y-93231333D01*
X142333887Y-92903133D01*
X142328924Y-92899842D01*
X142323280Y-92898740D01*
X142294912Y-92898740D01*
X142254313Y-92800483D01*
X142172806Y-92718834D01*
X142066258Y-92674591D01*
X141950889Y-92674490D01*
X141844263Y-92718547D01*
X141762614Y-92800054D01*
X141721636Y-92898740D01*
X141607973Y-92898740D01*
X141608052Y-92808694D01*
X141545005Y-92656109D01*
X141428365Y-92539266D01*
X141275891Y-92475953D01*
X141110794Y-92475808D01*
X140958209Y-92538855D01*
X140841366Y-92655495D01*
X140778053Y-92807969D01*
X140777973Y-92898740D01*
X139285440Y-92898740D01*
X139279604Y-92899922D01*
X139274833Y-92903133D01*
X139094524Y-93083442D01*
X139080689Y-93083430D01*
X138974063Y-93127487D01*
X138892414Y-93208994D01*
X138848171Y-93315542D01*
X138848159Y-93329807D01*
X138713168Y-93464798D01*
X138727029Y-93431418D01*
X138727130Y-93316049D01*
X138683073Y-93209423D01*
X138601566Y-93127774D01*
X138495018Y-93083531D01*
X138379649Y-93083430D01*
X138273023Y-93127487D01*
X138191374Y-93208994D01*
X138147131Y-93315542D01*
X138147030Y-93430911D01*
X138191087Y-93537537D01*
X138272594Y-93619186D01*
X138379142Y-93663429D01*
X138494511Y-93663530D01*
X138528466Y-93649500D01*
X137590666Y-94587300D01*
X136865197Y-94587300D01*
X136876409Y-94560298D01*
X136876510Y-94444929D01*
X136832453Y-94338303D01*
X136750946Y-94256654D01*
X136644398Y-94212411D01*
X136529029Y-94212310D01*
X136422403Y-94256367D01*
X136340754Y-94337874D01*
X136296511Y-94444422D01*
X136296471Y-94489895D01*
X136239068Y-94432492D01*
X136169317Y-94385886D01*
X136087040Y-94369520D01*
X134822745Y-94369520D01*
X134784486Y-94331194D01*
X134677938Y-94286951D01*
X134562569Y-94286850D01*
X134455943Y-94330907D01*
X134374294Y-94412414D01*
X134330051Y-94518962D01*
X134329991Y-94587300D01*
X133205220Y-94587300D01*
X133199384Y-94588482D01*
X133194613Y-94591693D01*
X132436082Y-95350224D01*
X132436112Y-95315674D01*
X132373065Y-95163089D01*
X132256425Y-95046246D01*
X132103951Y-94982933D01*
X131938854Y-94982788D01*
X131786269Y-95045835D01*
X131669426Y-95162475D01*
X131606113Y-95314949D01*
X131605968Y-95480046D01*
X131669015Y-95632631D01*
X131785655Y-95749474D01*
X131938129Y-95812787D01*
X131973488Y-95812818D01*
X129975746Y-97810560D01*
X122555000Y-97810560D01*
X122549164Y-97811742D01*
X122544393Y-97814953D01*
X121902324Y-98457022D01*
X121878345Y-98398989D01*
X121761705Y-98282146D01*
X121609231Y-98218833D01*
X121444134Y-98218688D01*
X121291549Y-98281735D01*
X121174706Y-98398375D01*
X121111393Y-98550849D01*
X121111248Y-98715946D01*
X121174295Y-98868531D01*
X121290935Y-98985374D01*
X121349609Y-99009737D01*
X120751153Y-99608193D01*
X120747862Y-99613156D01*
X120746760Y-99618800D01*
X120746760Y-110739184D01*
X120015956Y-111469988D01*
X119972569Y-111469950D01*
X119865943Y-111514007D01*
X119784294Y-111595514D01*
X119740051Y-111702062D01*
X119739950Y-111817431D01*
X119784007Y-111924057D01*
X119865514Y-112005706D01*
X119972062Y-112049949D01*
X120087431Y-112050050D01*
X120194057Y-112005993D01*
X120275706Y-111924486D01*
X120319949Y-111817938D01*
X120319987Y-111774069D01*
X120746760Y-111347296D01*
X120746760Y-116178466D01*
X119119786Y-117805440D01*
X116597294Y-117805440D01*
X115869480Y-117077626D01*
X115869480Y-115426354D01*
X117866607Y-113429227D01*
X117869898Y-113424264D01*
X117871000Y-113418620D01*
X117871000Y-112888926D01*
X118258568Y-112888926D01*
X118321615Y-113041511D01*
X118438255Y-113158354D01*
X118590729Y-113221667D01*
X118755826Y-113221812D01*
X118908411Y-113158765D01*
X119025254Y-113042125D01*
X119088567Y-112889651D01*
X119088712Y-112724554D01*
X119025665Y-112571969D01*
X118909025Y-112455126D01*
X118756551Y-112391813D01*
X118591454Y-112391668D01*
X118438869Y-112454715D01*
X118322026Y-112571355D01*
X118258713Y-112723829D01*
X118258568Y-112888926D01*
X117871000Y-112888926D01*
X117871000Y-110976066D01*
X118243148Y-110976066D01*
X118306195Y-111128651D01*
X118422835Y-111245494D01*
X118575309Y-111308807D01*
X118740406Y-111308952D01*
X118892991Y-111245905D01*
X119009834Y-111129265D01*
X119073147Y-110976791D01*
X119073292Y-110811694D01*
X119010245Y-110659109D01*
X118893605Y-110542266D01*
X118741131Y-110478953D01*
X118576034Y-110478808D01*
X118423449Y-110541855D01*
X118306606Y-110658495D01*
X118243293Y-110810969D01*
X118243148Y-110976066D01*
X117871000Y-110976066D01*
X117871000Y-107901827D01*
X117878411Y-107898765D01*
X117995254Y-107782125D01*
X118051734Y-107646106D01*
X118342628Y-107646106D01*
X118405675Y-107798691D01*
X118522315Y-107915534D01*
X118674789Y-107978847D01*
X118839886Y-107978992D01*
X118992471Y-107915945D01*
X119109314Y-107799305D01*
X119172627Y-107646831D01*
X119172772Y-107481734D01*
X119109725Y-107329149D01*
X118993085Y-107212306D01*
X118840611Y-107148993D01*
X118675514Y-107148848D01*
X118522929Y-107211895D01*
X118406086Y-107328535D01*
X118342773Y-107481009D01*
X118342628Y-107646106D01*
X118051734Y-107646106D01*
X118058567Y-107629651D01*
X118058712Y-107464554D01*
X117995665Y-107311969D01*
X117879025Y-107195126D01*
X117871000Y-107191794D01*
X117871000Y-104835824D01*
X117971614Y-104735385D01*
X118034927Y-104582911D01*
X118034927Y-104582186D01*
X118344928Y-104582186D01*
X118407975Y-104734771D01*
X118524615Y-104851614D01*
X118677089Y-104914927D01*
X118842186Y-104915072D01*
X118994771Y-104852025D01*
X119111614Y-104735385D01*
X119174927Y-104582911D01*
X119175072Y-104417814D01*
X119112025Y-104265229D01*
X118995385Y-104148386D01*
X118842911Y-104085073D01*
X118677814Y-104084928D01*
X118525229Y-104147975D01*
X118408386Y-104264615D01*
X118345073Y-104417089D01*
X118344928Y-104582186D01*
X118034927Y-104582186D01*
X118035072Y-104417814D01*
X117972025Y-104265229D01*
X117871000Y-104164028D01*
X117871000Y-100755766D01*
X119862328Y-100755766D01*
X119925375Y-100908351D01*
X120042015Y-101025194D01*
X120194489Y-101088507D01*
X120359586Y-101088652D01*
X120512171Y-101025605D01*
X120629014Y-100908965D01*
X120692327Y-100756491D01*
X120692472Y-100591394D01*
X120629425Y-100438809D01*
X120512785Y-100321966D01*
X120360311Y-100258653D01*
X120195214Y-100258508D01*
X120042629Y-100321555D01*
X119925786Y-100438195D01*
X119862473Y-100590669D01*
X119862328Y-100755766D01*
X117871000Y-100755766D01*
X117871000Y-99984902D01*
X117974771Y-99942025D01*
X118091614Y-99825385D01*
X118154927Y-99672911D01*
X118154927Y-99672186D01*
X118274928Y-99672186D01*
X118337975Y-99824771D01*
X118454615Y-99941614D01*
X118607089Y-100004927D01*
X118772186Y-100005072D01*
X118924771Y-99942025D01*
X119041614Y-99825385D01*
X119104927Y-99672911D01*
X119105072Y-99507814D01*
X119042025Y-99355229D01*
X118925385Y-99238386D01*
X118772911Y-99175073D01*
X118607814Y-99174928D01*
X118455229Y-99237975D01*
X118338386Y-99354615D01*
X118275073Y-99507089D01*
X118274928Y-99672186D01*
X118154927Y-99672186D01*
X118155072Y-99507814D01*
X118092025Y-99355229D01*
X117975385Y-99238386D01*
X117871000Y-99195041D01*
X117871000Y-98437366D01*
X120017628Y-98437366D01*
X120080675Y-98589951D01*
X120197315Y-98706794D01*
X120349789Y-98770107D01*
X120514886Y-98770252D01*
X120667471Y-98707205D01*
X120784314Y-98590565D01*
X120847627Y-98438091D01*
X120847772Y-98272994D01*
X120784725Y-98120409D01*
X120668085Y-98003566D01*
X120515611Y-97940253D01*
X120350514Y-97940108D01*
X120197929Y-98003155D01*
X120081086Y-98119795D01*
X120017773Y-98272269D01*
X120017628Y-98437366D01*
X117871000Y-98437366D01*
X117871000Y-97768274D01*
X119790108Y-95849166D01*
X120238048Y-95849166D01*
X120301095Y-96001751D01*
X120417735Y-96118594D01*
X120570209Y-96181907D01*
X120735306Y-96182052D01*
X120887891Y-96119005D01*
X121004734Y-96002365D01*
X121068047Y-95849891D01*
X121068047Y-95849726D01*
X121410968Y-95849726D01*
X121474015Y-96002311D01*
X121590655Y-96119154D01*
X121743129Y-96182467D01*
X121908226Y-96182612D01*
X122060811Y-96119565D01*
X122177654Y-96002925D01*
X122235994Y-95862426D01*
X122475228Y-95862426D01*
X122538275Y-96015011D01*
X122654915Y-96131854D01*
X122807389Y-96195167D01*
X122972486Y-96195312D01*
X123125071Y-96132265D01*
X123241914Y-96015625D01*
X123290280Y-95899146D01*
X127249868Y-95899146D01*
X127312915Y-96051731D01*
X127429555Y-96168574D01*
X127582029Y-96231887D01*
X127747126Y-96232032D01*
X127899711Y-96168985D01*
X128016554Y-96052345D01*
X128079867Y-95899871D01*
X128080012Y-95734774D01*
X128016965Y-95582189D01*
X127900325Y-95465346D01*
X127747851Y-95402033D01*
X127582754Y-95401888D01*
X127430169Y-95464935D01*
X127313326Y-95581575D01*
X127250013Y-95734049D01*
X127249868Y-95899146D01*
X123290280Y-95899146D01*
X123305227Y-95863151D01*
X123305372Y-95698054D01*
X123242325Y-95545469D01*
X123125685Y-95428626D01*
X122973211Y-95365313D01*
X122808114Y-95365168D01*
X122655529Y-95428215D01*
X122538686Y-95544855D01*
X122475373Y-95697329D01*
X122475228Y-95862426D01*
X122235994Y-95862426D01*
X122240967Y-95850451D01*
X122241112Y-95685354D01*
X122178065Y-95532769D01*
X122061425Y-95415926D01*
X121908951Y-95352613D01*
X121743854Y-95352468D01*
X121591269Y-95415515D01*
X121474426Y-95532155D01*
X121411113Y-95684629D01*
X121410968Y-95849726D01*
X121068047Y-95849726D01*
X121068192Y-95684794D01*
X121005145Y-95532209D01*
X120888505Y-95415366D01*
X120736031Y-95352053D01*
X120570934Y-95351908D01*
X120418349Y-95414955D01*
X120301506Y-95531595D01*
X120238193Y-95684069D01*
X120238048Y-95849166D01*
X119790108Y-95849166D01*
X120580014Y-95059260D01*
X127807719Y-95059260D01*
X127813555Y-95058078D01*
X127818326Y-95054867D01*
X128119587Y-94753606D01*
X130884608Y-94753606D01*
X130947655Y-94906191D01*
X131064295Y-95023034D01*
X131216769Y-95086347D01*
X131381866Y-95086492D01*
X131534451Y-95023445D01*
X131651294Y-94906805D01*
X131714607Y-94754331D01*
X131714752Y-94589234D01*
X131679818Y-94504686D01*
X131804088Y-94504686D01*
X131867135Y-94657271D01*
X131983775Y-94774114D01*
X132136249Y-94837427D01*
X132301346Y-94837572D01*
X132453931Y-94774525D01*
X132570774Y-94657885D01*
X132634087Y-94505411D01*
X132634232Y-94340314D01*
X132571185Y-94187729D01*
X132454545Y-94070886D01*
X132302071Y-94007573D01*
X132136974Y-94007428D01*
X131984389Y-94070475D01*
X131867546Y-94187115D01*
X131804233Y-94339589D01*
X131804088Y-94504686D01*
X131679818Y-94504686D01*
X131651705Y-94436649D01*
X131535065Y-94319806D01*
X131382591Y-94256493D01*
X131217494Y-94256348D01*
X131064909Y-94319395D01*
X130948066Y-94436035D01*
X130884753Y-94588509D01*
X130884608Y-94753606D01*
X128119587Y-94753606D01*
X128837597Y-94035596D01*
X128887715Y-94156891D01*
X129004355Y-94273734D01*
X129156829Y-94337047D01*
X129321926Y-94337192D01*
X129474511Y-94274145D01*
X129591354Y-94157505D01*
X129645475Y-94027166D01*
X130066728Y-94027166D01*
X130129775Y-94179751D01*
X130246415Y-94296594D01*
X130398889Y-94359907D01*
X130563986Y-94360052D01*
X130716571Y-94297005D01*
X130833414Y-94180365D01*
X130896727Y-94027891D01*
X130896872Y-93862794D01*
X130852492Y-93755386D01*
X131067488Y-93755386D01*
X131130535Y-93907971D01*
X131247175Y-94024814D01*
X131399649Y-94088127D01*
X131564746Y-94088272D01*
X131717331Y-94025225D01*
X131834174Y-93908585D01*
X131897487Y-93756111D01*
X131897632Y-93591014D01*
X131834585Y-93438429D01*
X131827081Y-93430911D01*
X136849090Y-93430911D01*
X136893147Y-93537537D01*
X136974654Y-93619186D01*
X137081202Y-93663429D01*
X137196571Y-93663530D01*
X137303197Y-93619473D01*
X137384846Y-93537966D01*
X137429089Y-93431418D01*
X137429190Y-93316049D01*
X137385133Y-93209423D01*
X137303626Y-93127774D01*
X137197078Y-93083531D01*
X137081709Y-93083430D01*
X136975083Y-93127487D01*
X136893434Y-93208994D01*
X136849191Y-93315542D01*
X136849090Y-93430911D01*
X131827081Y-93430911D01*
X131717945Y-93321586D01*
X131565471Y-93258273D01*
X131400374Y-93258128D01*
X131247789Y-93321175D01*
X131130946Y-93437815D01*
X131067633Y-93590289D01*
X131067488Y-93755386D01*
X130852492Y-93755386D01*
X130833825Y-93710209D01*
X130717185Y-93593366D01*
X130564711Y-93530053D01*
X130399614Y-93529908D01*
X130247029Y-93592955D01*
X130130186Y-93709595D01*
X130066873Y-93862069D01*
X130066728Y-94027166D01*
X129645475Y-94027166D01*
X129654667Y-94005031D01*
X129654812Y-93839934D01*
X129591765Y-93687349D01*
X129475125Y-93570506D01*
X129353281Y-93519912D01*
X129844247Y-93028946D01*
X130249608Y-93028946D01*
X130312655Y-93181531D01*
X130429295Y-93298374D01*
X130581769Y-93361687D01*
X130746866Y-93361832D01*
X130899451Y-93298785D01*
X131016294Y-93182145D01*
X131079607Y-93029671D01*
X131079710Y-92912106D01*
X135956988Y-92912106D01*
X136020035Y-93064691D01*
X136136675Y-93181534D01*
X136289149Y-93244847D01*
X136454246Y-93244992D01*
X136606831Y-93181945D01*
X136723674Y-93065305D01*
X136786987Y-92912831D01*
X136787132Y-92747734D01*
X136724085Y-92595149D01*
X136607445Y-92478306D01*
X136454971Y-92414993D01*
X136289874Y-92414848D01*
X136137289Y-92477895D01*
X136020446Y-92594535D01*
X135957133Y-92747009D01*
X135956988Y-92912106D01*
X131079710Y-92912106D01*
X131079752Y-92864574D01*
X131016705Y-92711989D01*
X130900065Y-92595146D01*
X130747591Y-92531833D01*
X130582494Y-92531688D01*
X130429909Y-92594735D01*
X130313066Y-92711375D01*
X130249753Y-92863849D01*
X130249608Y-93028946D01*
X129844247Y-93028946D01*
X130718007Y-92155186D01*
X134646348Y-92155186D01*
X134709395Y-92307771D01*
X134826035Y-92424614D01*
X134978509Y-92487927D01*
X135143606Y-92488072D01*
X135296191Y-92425025D01*
X135413034Y-92308385D01*
X135452389Y-92213606D01*
X142083468Y-92213606D01*
X142146515Y-92366191D01*
X142263155Y-92483034D01*
X142415629Y-92546347D01*
X142580726Y-92546492D01*
X142733311Y-92483445D01*
X142850154Y-92366805D01*
X142913467Y-92214331D01*
X142913612Y-92049234D01*
X142850565Y-91896649D01*
X142733925Y-91779806D01*
X142581451Y-91716493D01*
X142416354Y-91716348D01*
X142263769Y-91779395D01*
X142146926Y-91896035D01*
X142083613Y-92048509D01*
X142083468Y-92213606D01*
X135452389Y-92213606D01*
X135476347Y-92155911D01*
X135476492Y-91990814D01*
X135413445Y-91838229D01*
X135296805Y-91721386D01*
X135144331Y-91658073D01*
X134979234Y-91657928D01*
X134826649Y-91720975D01*
X134709806Y-91837615D01*
X134646493Y-91990089D01*
X134646348Y-92155186D01*
X130718007Y-92155186D01*
X131373327Y-91499866D01*
X133676068Y-91499866D01*
X133739115Y-91652451D01*
X133855755Y-91769294D01*
X134008229Y-91832607D01*
X134173326Y-91832752D01*
X134325911Y-91769705D01*
X134442754Y-91653065D01*
X134506067Y-91500591D01*
X134506096Y-91467406D01*
X138370048Y-91467406D01*
X138433095Y-91619991D01*
X138549735Y-91736834D01*
X138702209Y-91800147D01*
X138867306Y-91800292D01*
X139019891Y-91737245D01*
X139136734Y-91620605D01*
X139162611Y-91558286D01*
X143053748Y-91558286D01*
X143116795Y-91710871D01*
X143233435Y-91827714D01*
X143385909Y-91891027D01*
X143551006Y-91891172D01*
X143703591Y-91828125D01*
X143820434Y-91711485D01*
X143883747Y-91559011D01*
X143883892Y-91393914D01*
X143820845Y-91241329D01*
X143704205Y-91124486D01*
X143551731Y-91061173D01*
X143386634Y-91061028D01*
X143234049Y-91124075D01*
X143117206Y-91240715D01*
X143053893Y-91393189D01*
X143053748Y-91558286D01*
X139162611Y-91558286D01*
X139200047Y-91468131D01*
X139200192Y-91303034D01*
X139137145Y-91150449D01*
X139020505Y-91033606D01*
X138868031Y-90970293D01*
X138702934Y-90970148D01*
X138550349Y-91033195D01*
X138433506Y-91149835D01*
X138370193Y-91302309D01*
X138370048Y-91467406D01*
X134506096Y-91467406D01*
X134506212Y-91335494D01*
X134443165Y-91182909D01*
X134326525Y-91066066D01*
X134174051Y-91002753D01*
X134008954Y-91002608D01*
X133856369Y-91065655D01*
X133739526Y-91182295D01*
X133676213Y-91334769D01*
X133676068Y-91499866D01*
X131373327Y-91499866D01*
X132015094Y-90858100D01*
X132727422Y-90858100D01*
X132728195Y-90859971D01*
X132844835Y-90976814D01*
X132997309Y-91040127D01*
X133162406Y-91040272D01*
X133314991Y-90977225D01*
X133431834Y-90860585D01*
X133432866Y-90858100D01*
X137949939Y-90858100D01*
X137955775Y-90856918D01*
X137956321Y-90856550D01*
X137956996Y-90856998D01*
G36*
X134419580Y-73170914D02*
X134419580Y-73543906D01*
X134380689Y-73559975D01*
X134263846Y-73676615D01*
X134200533Y-73829089D01*
X134200388Y-73994186D01*
X134263435Y-74146771D01*
X134380075Y-74263614D01*
X134419580Y-74280018D01*
X134419580Y-74784738D01*
X134309751Y-74739133D01*
X134144654Y-74738988D01*
X133992069Y-74802035D01*
X133875226Y-74918675D01*
X133811913Y-75071149D01*
X133811768Y-75236246D01*
X133874815Y-75388831D01*
X133991455Y-75505674D01*
X134143929Y-75568987D01*
X134309026Y-75569132D01*
X134419580Y-75523452D01*
X134419580Y-76077724D01*
X134404385Y-76040949D01*
X134287745Y-75924106D01*
X134135271Y-75860793D01*
X133970174Y-75860648D01*
X133817589Y-75923695D01*
X133700746Y-76040335D01*
X133637433Y-76192809D01*
X133637288Y-76357906D01*
X133700335Y-76510491D01*
X133816975Y-76627334D01*
X133969449Y-76690647D01*
X134134546Y-76690792D01*
X134287131Y-76627745D01*
X134403974Y-76511105D01*
X134419580Y-76473522D01*
X134419580Y-77370104D01*
X134404385Y-77333329D01*
X134287745Y-77216486D01*
X134135271Y-77153173D01*
X133970174Y-77153028D01*
X133817589Y-77216075D01*
X133700746Y-77332715D01*
X133637433Y-77485189D01*
X133637288Y-77650286D01*
X133700335Y-77802871D01*
X133816975Y-77919714D01*
X133969449Y-77983027D01*
X134134546Y-77983172D01*
X134287131Y-77920125D01*
X134403974Y-77803485D01*
X134419580Y-77765902D01*
X134419580Y-78670104D01*
X134404385Y-78633329D01*
X134287745Y-78516486D01*
X134135271Y-78453173D01*
X133970174Y-78453028D01*
X133817589Y-78516075D01*
X133700746Y-78632715D01*
X133637433Y-78785189D01*
X133637288Y-78950286D01*
X133700335Y-79102871D01*
X133816975Y-79219714D01*
X133969449Y-79283027D01*
X134134546Y-79283172D01*
X134287131Y-79220125D01*
X134403974Y-79103485D01*
X134419580Y-79065902D01*
X134419580Y-79636776D01*
X134406925Y-79606149D01*
X134290285Y-79489306D01*
X134137811Y-79425993D01*
X133972714Y-79425848D01*
X133820129Y-79488895D01*
X133703286Y-79605535D01*
X133639973Y-79758009D01*
X133639828Y-79923106D01*
X133702875Y-80075691D01*
X133819515Y-80192534D01*
X133971989Y-80255847D01*
X134137086Y-80255992D01*
X134289671Y-80192945D01*
X134406514Y-80076305D01*
X134419580Y-80044839D01*
X134419580Y-80889362D01*
X134415765Y-80880129D01*
X134299125Y-80763286D01*
X134146651Y-80699973D01*
X133981554Y-80699828D01*
X133828969Y-80762875D01*
X133712126Y-80879515D01*
X133648813Y-81031989D01*
X133648668Y-81197086D01*
X133711715Y-81349671D01*
X133828355Y-81466514D01*
X133980829Y-81529827D01*
X134145926Y-81529972D01*
X134298511Y-81466925D01*
X134415354Y-81350285D01*
X134419580Y-81340108D01*
X134419580Y-83588789D01*
X134373094Y-83635194D01*
X134328851Y-83741742D01*
X134328750Y-83857111D01*
X134372807Y-83963737D01*
X134419580Y-84010591D01*
X134419580Y-84223860D01*
X134420762Y-84229696D01*
X134423973Y-84234467D01*
X135336985Y-85147479D01*
X135210914Y-85147368D01*
X135058329Y-85210415D01*
X134941486Y-85327055D01*
X134878173Y-85479529D01*
X134878028Y-85644626D01*
X134941075Y-85797211D01*
X135057715Y-85914054D01*
X135210189Y-85977367D01*
X135375286Y-85977512D01*
X135527871Y-85914465D01*
X135644714Y-85797825D01*
X135708027Y-85645351D01*
X135708138Y-85518632D01*
X136344213Y-86154707D01*
X136349176Y-86157998D01*
X136354820Y-86159100D01*
X138396440Y-86159100D01*
X138370193Y-86222309D01*
X138370048Y-86387406D01*
X138433095Y-86539991D01*
X138549735Y-86656834D01*
X138702209Y-86720147D01*
X138867306Y-86720292D01*
X139019891Y-86657245D01*
X139136734Y-86540605D01*
X139200047Y-86388131D01*
X139200192Y-86223034D01*
X139173775Y-86159100D01*
X145359784Y-86159100D01*
X145312146Y-86206655D01*
X145248833Y-86359129D01*
X145248688Y-86524226D01*
X145311735Y-86676811D01*
X145428375Y-86793654D01*
X145580849Y-86856967D01*
X145745946Y-86857112D01*
X145898531Y-86794065D01*
X146015374Y-86677425D01*
X146078687Y-86524951D01*
X146078832Y-86359854D01*
X146015785Y-86207269D01*
X145967700Y-86159100D01*
X149350866Y-86159100D01*
X150866080Y-87674314D01*
X150866080Y-92517438D01*
X150856285Y-92507626D01*
X150703811Y-92444313D01*
X150538714Y-92444168D01*
X150386129Y-92507215D01*
X150269286Y-92623855D01*
X150205973Y-92776329D01*
X150205828Y-92941426D01*
X150268875Y-93094011D01*
X150385515Y-93210854D01*
X150537989Y-93274167D01*
X150703086Y-93274312D01*
X150855671Y-93211265D01*
X150866080Y-93200874D01*
X150866080Y-95027879D01*
X150811591Y-95005253D01*
X150646494Y-95005108D01*
X150493909Y-95068155D01*
X150377066Y-95184795D01*
X150313753Y-95337269D01*
X150313608Y-95502366D01*
X150376655Y-95654951D01*
X150493295Y-95771794D01*
X150645769Y-95835107D01*
X150810866Y-95835252D01*
X150866080Y-95812438D01*
X150866080Y-98385766D01*
X149790286Y-99461560D01*
X147418975Y-99461560D01*
X147369237Y-99428326D01*
X147286960Y-99411960D01*
X143069599Y-99411960D01*
X143038946Y-99381254D01*
X142932398Y-99337011D01*
X142817029Y-99336910D01*
X142710403Y-99380967D01*
X142628754Y-99462474D01*
X142584511Y-99569022D01*
X142584410Y-99684391D01*
X142628467Y-99791017D01*
X142709974Y-99872666D01*
X142816522Y-99916909D01*
X142931891Y-99917010D01*
X143038517Y-99872953D01*
X143069564Y-99841960D01*
X143857872Y-99841960D01*
X143844294Y-99855514D01*
X143800051Y-99962062D01*
X143799950Y-100077431D01*
X143844007Y-100184057D01*
X143900000Y-100240148D01*
X143900000Y-100440000D01*
X143914463Y-100512710D01*
X143955650Y-100574350D01*
X144878760Y-101497461D01*
X144878760Y-101629973D01*
X144852569Y-101629950D01*
X144745943Y-101674007D01*
X144664294Y-101755514D01*
X144620051Y-101862062D01*
X144619950Y-101977431D01*
X144664007Y-102084057D01*
X144745514Y-102165706D01*
X144852062Y-102209949D01*
X144878760Y-102209972D01*
X144878760Y-102454220D01*
X144218276Y-102454220D01*
X143375000Y-101610944D01*
X143375000Y-101090000D01*
X143358634Y-101007723D01*
X143312028Y-100937972D01*
X143022028Y-100647972D01*
X142952277Y-100601366D01*
X142870000Y-100585000D01*
X142695139Y-100585000D01*
X142664486Y-100554294D01*
X142557938Y-100510051D01*
X142442569Y-100509950D01*
X142335943Y-100554007D01*
X142254294Y-100635514D01*
X142210051Y-100742062D01*
X142209950Y-100857431D01*
X142254007Y-100964057D01*
X142335514Y-101045706D01*
X142384027Y-101065850D01*
X142344294Y-101105514D01*
X142300051Y-101212062D01*
X142299950Y-101327431D01*
X142315225Y-101364398D01*
X140712306Y-100235161D01*
X140696073Y-100195874D01*
X140593486Y-100093108D01*
X140459382Y-100037423D01*
X140431589Y-100037399D01*
X139774723Y-99574645D01*
X140021397Y-99574645D01*
X140076847Y-99708846D01*
X140179434Y-99811612D01*
X140313538Y-99867297D01*
X140458745Y-99867423D01*
X140592946Y-99811973D01*
X140695712Y-99709386D01*
X140751397Y-99575282D01*
X140751523Y-99430075D01*
X140696073Y-99295874D01*
X140593486Y-99193108D01*
X140459382Y-99137423D01*
X140314175Y-99137297D01*
X140179974Y-99192747D01*
X140077208Y-99295334D01*
X140021523Y-99429438D01*
X140021397Y-99574645D01*
X139774723Y-99574645D01*
X139651473Y-99487817D01*
X139651523Y-99430075D01*
X139596073Y-99295874D01*
X139493486Y-99193108D01*
X139359382Y-99137423D01*
X139214175Y-99137297D01*
X139176196Y-99152989D01*
X139044675Y-99060334D01*
X139095712Y-99009386D01*
X139151397Y-98875282D01*
X139151397Y-98874645D01*
X139421397Y-98874645D01*
X139476847Y-99008846D01*
X139579434Y-99111612D01*
X139713538Y-99167297D01*
X139858745Y-99167423D01*
X139992946Y-99111973D01*
X140095712Y-99009386D01*
X140151397Y-98875282D01*
X140151523Y-98730075D01*
X140096073Y-98595874D01*
X139993486Y-98493108D01*
X139859382Y-98437423D01*
X139714175Y-98437297D01*
X139579974Y-98492747D01*
X139477208Y-98595334D01*
X139421523Y-98729438D01*
X139421397Y-98874645D01*
X139151397Y-98874645D01*
X139151523Y-98730075D01*
X139096073Y-98595874D01*
X138993486Y-98493108D01*
X138859382Y-98437423D01*
X138714175Y-98437297D01*
X138579974Y-98492747D01*
X138477208Y-98595334D01*
X138456253Y-98645798D01*
X138187570Y-98456514D01*
X138213538Y-98467297D01*
X138358745Y-98467423D01*
X138492946Y-98411973D01*
X138595712Y-98309386D01*
X138651397Y-98175282D01*
X138651397Y-98174645D01*
X138921397Y-98174645D01*
X138976847Y-98308846D01*
X139079434Y-98411612D01*
X139213538Y-98467297D01*
X139358745Y-98467423D01*
X139492946Y-98411973D01*
X139595712Y-98309386D01*
X139616305Y-98259791D01*
X140996410Y-98259791D01*
X141040467Y-98366417D01*
X141121974Y-98448066D01*
X141228522Y-98492309D01*
X141343891Y-98492410D01*
X141450517Y-98448353D01*
X141532166Y-98366846D01*
X141576409Y-98260298D01*
X141576510Y-98144929D01*
X141532453Y-98038303D01*
X141454018Y-97959731D01*
X142147530Y-97959731D01*
X142191587Y-98066357D01*
X142273094Y-98148006D01*
X142379642Y-98192249D01*
X142495011Y-98192350D01*
X142601637Y-98148293D01*
X142683286Y-98066786D01*
X142716937Y-97985746D01*
X144073288Y-97985746D01*
X144136335Y-98138331D01*
X144252975Y-98255174D01*
X144405449Y-98318487D01*
X144570546Y-98318632D01*
X144723131Y-98255585D01*
X144839974Y-98138945D01*
X144903287Y-97986471D01*
X144903287Y-97985746D01*
X145597748Y-97985746D01*
X145660795Y-98138331D01*
X145777435Y-98255174D01*
X145929909Y-98318487D01*
X146095006Y-98318632D01*
X146247591Y-98255585D01*
X146364434Y-98138945D01*
X146427516Y-97987026D01*
X147077108Y-97987026D01*
X147140155Y-98139611D01*
X147256795Y-98256454D01*
X147409269Y-98319767D01*
X147574366Y-98319912D01*
X147726951Y-98256865D01*
X147843794Y-98140225D01*
X147906328Y-97989626D01*
X148377028Y-97989626D01*
X148440075Y-98142211D01*
X148556715Y-98259054D01*
X148709189Y-98322367D01*
X148874286Y-98322512D01*
X149026871Y-98259465D01*
X149143714Y-98142825D01*
X149207027Y-97990351D01*
X149207027Y-97989626D01*
X149647028Y-97989626D01*
X149710075Y-98142211D01*
X149826715Y-98259054D01*
X149979189Y-98322367D01*
X150144286Y-98322512D01*
X150296871Y-98259465D01*
X150413714Y-98142825D01*
X150477027Y-97990351D01*
X150477172Y-97825254D01*
X150414125Y-97672669D01*
X150297485Y-97555826D01*
X150145011Y-97492513D01*
X149979914Y-97492368D01*
X149827329Y-97555415D01*
X149710486Y-97672055D01*
X149647173Y-97824529D01*
X149647028Y-97989626D01*
X149207027Y-97989626D01*
X149207172Y-97825254D01*
X149144125Y-97672669D01*
X149027485Y-97555826D01*
X148875011Y-97492513D01*
X148709914Y-97492368D01*
X148557329Y-97555415D01*
X148440486Y-97672055D01*
X148377173Y-97824529D01*
X148377028Y-97989626D01*
X147906328Y-97989626D01*
X147907107Y-97987751D01*
X147907252Y-97822654D01*
X147844205Y-97670069D01*
X147727565Y-97553226D01*
X147575091Y-97489913D01*
X147409994Y-97489768D01*
X147257409Y-97552815D01*
X147140566Y-97669455D01*
X147077253Y-97821929D01*
X147077108Y-97987026D01*
X146427516Y-97987026D01*
X146427747Y-97986471D01*
X146427892Y-97821374D01*
X146364845Y-97668789D01*
X146248205Y-97551946D01*
X146095731Y-97488633D01*
X145930634Y-97488488D01*
X145778049Y-97551535D01*
X145661206Y-97668175D01*
X145597893Y-97820649D01*
X145597748Y-97985746D01*
X144903287Y-97985746D01*
X144903432Y-97821374D01*
X144840385Y-97668789D01*
X144723745Y-97551946D01*
X144571271Y-97488633D01*
X144406174Y-97488488D01*
X144253589Y-97551535D01*
X144136746Y-97668175D01*
X144073433Y-97820649D01*
X144073288Y-97985746D01*
X142716937Y-97985746D01*
X142727529Y-97960238D01*
X142727630Y-97844869D01*
X142683573Y-97738243D01*
X142602066Y-97656594D01*
X142495518Y-97612351D01*
X142380149Y-97612250D01*
X142273523Y-97656307D01*
X142191874Y-97737814D01*
X142147631Y-97844362D01*
X142147530Y-97959731D01*
X141454018Y-97959731D01*
X141450946Y-97956654D01*
X141344398Y-97912411D01*
X141229029Y-97912310D01*
X141122403Y-97956367D01*
X141040754Y-98037874D01*
X140996511Y-98144422D01*
X140996410Y-98259791D01*
X139616305Y-98259791D01*
X139651397Y-98175282D01*
X139651523Y-98030075D01*
X139596073Y-97895874D01*
X139493486Y-97793108D01*
X139359382Y-97737423D01*
X139214175Y-97737297D01*
X139079974Y-97792747D01*
X138977208Y-97895334D01*
X138921523Y-98029438D01*
X138921397Y-98174645D01*
X138651397Y-98174645D01*
X138651523Y-98030075D01*
X138596073Y-97895874D01*
X138493486Y-97793108D01*
X138359382Y-97737423D01*
X138214175Y-97737297D01*
X138079974Y-97792747D01*
X137977208Y-97895334D01*
X137921523Y-98029438D01*
X137921397Y-98174645D01*
X137976390Y-98307741D01*
X137651481Y-98078846D01*
X137651523Y-98030075D01*
X137596073Y-97895874D01*
X137493486Y-97793108D01*
X137359382Y-97737423D01*
X137214175Y-97737297D01*
X137184227Y-97749671D01*
X137049946Y-97655072D01*
X137095712Y-97609386D01*
X137151397Y-97475282D01*
X137151397Y-97474645D01*
X137421397Y-97474645D01*
X137476847Y-97608846D01*
X137579434Y-97711612D01*
X137713538Y-97767297D01*
X137858745Y-97767423D01*
X137992946Y-97711973D01*
X138095712Y-97609386D01*
X138151397Y-97475282D01*
X138151397Y-97474645D01*
X138421397Y-97474645D01*
X138476847Y-97608846D01*
X138579434Y-97711612D01*
X138713538Y-97767297D01*
X138858745Y-97767423D01*
X138992946Y-97711973D01*
X139095712Y-97609386D01*
X139151397Y-97475282D01*
X139151397Y-97474645D01*
X139321397Y-97474645D01*
X139376847Y-97608846D01*
X139479434Y-97711612D01*
X139613538Y-97767297D01*
X139758745Y-97767423D01*
X139892946Y-97711973D01*
X139995712Y-97609386D01*
X140051397Y-97475282D01*
X140051523Y-97330075D01*
X139996073Y-97195874D01*
X139893486Y-97093108D01*
X139759382Y-97037423D01*
X139614175Y-97037297D01*
X139479974Y-97092747D01*
X139377208Y-97195334D01*
X139321523Y-97329438D01*
X139321397Y-97474645D01*
X139151397Y-97474645D01*
X139151523Y-97330075D01*
X139096073Y-97195874D01*
X138993486Y-97093108D01*
X138859382Y-97037423D01*
X138714175Y-97037297D01*
X138579974Y-97092747D01*
X138477208Y-97195334D01*
X138421523Y-97329438D01*
X138421397Y-97474645D01*
X138151397Y-97474645D01*
X138151523Y-97330075D01*
X138096073Y-97195874D01*
X137993486Y-97093108D01*
X137859382Y-97037423D01*
X137714175Y-97037297D01*
X137579974Y-97092747D01*
X137477208Y-97195334D01*
X137421523Y-97329438D01*
X137421397Y-97474645D01*
X137151397Y-97474645D01*
X137151523Y-97330075D01*
X137096073Y-97195874D01*
X136993486Y-97093108D01*
X136859382Y-97037423D01*
X136714175Y-97037297D01*
X136579974Y-97092747D01*
X136477208Y-97195334D01*
X136421523Y-97329438D01*
X136421397Y-97474645D01*
X136421544Y-97475000D01*
X133796214Y-97475000D01*
X133095859Y-96774645D01*
X136921397Y-96774645D01*
X136976847Y-96908846D01*
X137079434Y-97011612D01*
X137213538Y-97067297D01*
X137358745Y-97067423D01*
X137492946Y-97011973D01*
X137595712Y-96909386D01*
X137651397Y-96775282D01*
X137651523Y-96630075D01*
X137596073Y-96495874D01*
X137493486Y-96393108D01*
X137359382Y-96337423D01*
X137214175Y-96337297D01*
X137079974Y-96392747D01*
X136977208Y-96495334D01*
X136921523Y-96629438D01*
X136921397Y-96774645D01*
X133095859Y-96774645D01*
X132975000Y-96653786D01*
X132975000Y-96459791D01*
X134196410Y-96459791D01*
X134240467Y-96566417D01*
X134321974Y-96648066D01*
X134428522Y-96692309D01*
X134543891Y-96692410D01*
X134650517Y-96648353D01*
X134732166Y-96566846D01*
X134776409Y-96460298D01*
X134776510Y-96344929D01*
X134732453Y-96238303D01*
X134650946Y-96156654D01*
X134544398Y-96112411D01*
X134429029Y-96112310D01*
X134322403Y-96156367D01*
X134240754Y-96237874D01*
X134196511Y-96344422D01*
X134196410Y-96459791D01*
X132975000Y-96459791D01*
X132975000Y-96249056D01*
X133364265Y-95859791D01*
X135596410Y-95859791D01*
X135640467Y-95966417D01*
X135721974Y-96048066D01*
X135828522Y-96092309D01*
X135943891Y-96092410D01*
X136050517Y-96048353D01*
X136132166Y-95966846D01*
X136176409Y-95860298D01*
X136176510Y-95744929D01*
X136132453Y-95638303D01*
X136050946Y-95556654D01*
X135944398Y-95512411D01*
X135829029Y-95512310D01*
X135722403Y-95556367D01*
X135640754Y-95637874D01*
X135596511Y-95744422D01*
X135596410Y-95859791D01*
X133364265Y-95859791D01*
X133629056Y-95595000D01*
X134860000Y-95595000D01*
X134942277Y-95578634D01*
X135012028Y-95532028D01*
X135219056Y-95325000D01*
X135850944Y-95325000D01*
X136053189Y-95527245D01*
X136059472Y-95536648D01*
X136221744Y-95698920D01*
X136221710Y-95737231D01*
X136265767Y-95843857D01*
X136347274Y-95925506D01*
X136453822Y-95969749D01*
X136569191Y-95969850D01*
X136675817Y-95925793D01*
X136757466Y-95844286D01*
X136801609Y-95737980D01*
X136896169Y-95737980D01*
X136938867Y-95841317D01*
X137020374Y-95922966D01*
X137126922Y-95967209D01*
X137242291Y-95967310D01*
X137348917Y-95923253D01*
X137430566Y-95841746D01*
X137473654Y-95737980D01*
X137781656Y-95737980D01*
X138699237Y-96458140D01*
X138704557Y-96460813D01*
X138708498Y-96461340D01*
X141063840Y-96461340D01*
X141063840Y-97414828D01*
X141040754Y-97437874D01*
X140996511Y-97544422D01*
X140996410Y-97659791D01*
X141040467Y-97766417D01*
X141121974Y-97848066D01*
X141228522Y-97892309D01*
X141343891Y-97892410D01*
X141450517Y-97848353D01*
X141532166Y-97766846D01*
X141576409Y-97660298D01*
X141576510Y-97544929D01*
X141532453Y-97438303D01*
X141493840Y-97399623D01*
X141493840Y-96531256D01*
X141563756Y-96461340D01*
X145953480Y-96461340D01*
X145959316Y-96460158D01*
X145964087Y-96456947D01*
X146428907Y-95992127D01*
X146432198Y-95987164D01*
X146433300Y-95981520D01*
X146433300Y-95502366D01*
X149081708Y-95502366D01*
X149144755Y-95654951D01*
X149261395Y-95771794D01*
X149413869Y-95835107D01*
X149578966Y-95835252D01*
X149731551Y-95772205D01*
X149848394Y-95655565D01*
X149911707Y-95503091D01*
X149911852Y-95337994D01*
X149848805Y-95185409D01*
X149732165Y-95068566D01*
X149579691Y-95005253D01*
X149414594Y-95005108D01*
X149262009Y-95068155D01*
X149145166Y-95184795D01*
X149081853Y-95337269D01*
X149081708Y-95502366D01*
X146433300Y-95502366D01*
X146433300Y-93920134D01*
X146436375Y-93923214D01*
X146588849Y-93986527D01*
X146753946Y-93986672D01*
X146906531Y-93923625D01*
X147023374Y-93806985D01*
X147086687Y-93654511D01*
X147086707Y-93630926D01*
X147498748Y-93630926D01*
X147561795Y-93783511D01*
X147678435Y-93900354D01*
X147830909Y-93963667D01*
X147996006Y-93963812D01*
X148148591Y-93900765D01*
X148265434Y-93784125D01*
X148328747Y-93631651D01*
X148328892Y-93466554D01*
X148265845Y-93313969D01*
X148149205Y-93197126D01*
X147996731Y-93133813D01*
X147831634Y-93133668D01*
X147679049Y-93196715D01*
X147562206Y-93313355D01*
X147498893Y-93465829D01*
X147498748Y-93630926D01*
X147086707Y-93630926D01*
X147086832Y-93489414D01*
X147023785Y-93336829D01*
X146907145Y-93219986D01*
X146754671Y-93156673D01*
X146589574Y-93156528D01*
X146436989Y-93219575D01*
X146433300Y-93223258D01*
X146433300Y-92942586D01*
X148761128Y-92942586D01*
X148824175Y-93095171D01*
X148940815Y-93212014D01*
X149093289Y-93275327D01*
X149258386Y-93275472D01*
X149410971Y-93212425D01*
X149527814Y-93095785D01*
X149591127Y-92943311D01*
X149591272Y-92778214D01*
X149528225Y-92625629D01*
X149411585Y-92508786D01*
X149259111Y-92445473D01*
X149094014Y-92445328D01*
X148941429Y-92508375D01*
X148824586Y-92625015D01*
X148761273Y-92777489D01*
X148761128Y-92942586D01*
X146433300Y-92942586D01*
X146433300Y-92209620D01*
X146432118Y-92203784D01*
X146428907Y-92199013D01*
X144894756Y-90664862D01*
X144894812Y-90601434D01*
X144831765Y-90448849D01*
X144715125Y-90332006D01*
X144562651Y-90268693D01*
X144397554Y-90268548D01*
X144244969Y-90331595D01*
X144128126Y-90448235D01*
X144102230Y-90510600D01*
X138914964Y-90510600D01*
X139019891Y-90467245D01*
X139136734Y-90350605D01*
X139200047Y-90198131D01*
X139200192Y-90033034D01*
X139137145Y-89880449D01*
X139020505Y-89763606D01*
X138868031Y-89700293D01*
X138702934Y-89700148D01*
X138550349Y-89763195D01*
X138433506Y-89879835D01*
X138370193Y-90032309D01*
X138370048Y-90197406D01*
X138433095Y-90349991D01*
X138549735Y-90466834D01*
X138655135Y-90510600D01*
X135421234Y-90510600D01*
X134472480Y-89561846D01*
X144084988Y-89561846D01*
X144148035Y-89714431D01*
X144264675Y-89831274D01*
X144417149Y-89894587D01*
X144582246Y-89894732D01*
X144734831Y-89831685D01*
X144851674Y-89715045D01*
X144914987Y-89562571D01*
X144915132Y-89397474D01*
X144852085Y-89244889D01*
X144735445Y-89128046D01*
X144582971Y-89064733D01*
X144417874Y-89064588D01*
X144265289Y-89127635D01*
X144148446Y-89244275D01*
X144085133Y-89396749D01*
X144084988Y-89561846D01*
X134472480Y-89561846D01*
X133838040Y-88927406D01*
X138370048Y-88927406D01*
X138433095Y-89079991D01*
X138549735Y-89196834D01*
X138702209Y-89260147D01*
X138867306Y-89260292D01*
X139019891Y-89197245D01*
X139136734Y-89080605D01*
X139200047Y-88928131D01*
X139200192Y-88763034D01*
X139183918Y-88723646D01*
X144880008Y-88723646D01*
X144943055Y-88876231D01*
X145059695Y-88993074D01*
X145212169Y-89056387D01*
X145377266Y-89056532D01*
X145529851Y-88993485D01*
X145646694Y-88876845D01*
X145710007Y-88724371D01*
X145710152Y-88559274D01*
X145647105Y-88406689D01*
X145530465Y-88289846D01*
X145377991Y-88226533D01*
X145212894Y-88226388D01*
X145060309Y-88289435D01*
X144943466Y-88406075D01*
X144880153Y-88558549D01*
X144880008Y-88723646D01*
X139183918Y-88723646D01*
X139137145Y-88610449D01*
X139020505Y-88493606D01*
X138868031Y-88430293D01*
X138702934Y-88430148D01*
X138550349Y-88493195D01*
X138433506Y-88609835D01*
X138370193Y-88762309D01*
X138370048Y-88927406D01*
X133838040Y-88927406D01*
X132568040Y-87657406D01*
X138370048Y-87657406D01*
X138433095Y-87809991D01*
X138549735Y-87926834D01*
X138702209Y-87990147D01*
X138867306Y-87990292D01*
X139019891Y-87927245D01*
X139136734Y-87810605D01*
X139186869Y-87689866D01*
X145253388Y-87689866D01*
X145316435Y-87842451D01*
X145433075Y-87959294D01*
X145585549Y-88022607D01*
X145750646Y-88022752D01*
X145903231Y-87959705D01*
X146020074Y-87843065D01*
X146083387Y-87690591D01*
X146083532Y-87525494D01*
X146020485Y-87372909D01*
X145903845Y-87256066D01*
X145751371Y-87192753D01*
X145586274Y-87192608D01*
X145433689Y-87255655D01*
X145316846Y-87372295D01*
X145253533Y-87524769D01*
X145253388Y-87689866D01*
X139186869Y-87689866D01*
X139200047Y-87658131D01*
X139200192Y-87493034D01*
X139137145Y-87340449D01*
X139020505Y-87223606D01*
X138868031Y-87160293D01*
X138702934Y-87160148D01*
X138550349Y-87223195D01*
X138433506Y-87339835D01*
X138370193Y-87492309D01*
X138370048Y-87657406D01*
X132568040Y-87657406D01*
X132256483Y-87345849D01*
X132243525Y-87314489D01*
X132126885Y-87197646D01*
X132095069Y-87184435D01*
X131898280Y-86987646D01*
X134872228Y-86987646D01*
X134935275Y-87140231D01*
X135051915Y-87257074D01*
X135204389Y-87320387D01*
X135369486Y-87320532D01*
X135522071Y-87257485D01*
X135638914Y-87140845D01*
X135665347Y-87077186D01*
X141870648Y-87077186D01*
X141933695Y-87229771D01*
X142050335Y-87346614D01*
X142202809Y-87409927D01*
X142367906Y-87410072D01*
X142520491Y-87347025D01*
X142637334Y-87230385D01*
X142700647Y-87077911D01*
X142700792Y-86912814D01*
X142637745Y-86760229D01*
X142521105Y-86643386D01*
X142368631Y-86580073D01*
X142203534Y-86579928D01*
X142050949Y-86642975D01*
X141934106Y-86759615D01*
X141870793Y-86912089D01*
X141870648Y-87077186D01*
X135665347Y-87077186D01*
X135702227Y-86988371D01*
X135702372Y-86823274D01*
X135639325Y-86670689D01*
X135522685Y-86553846D01*
X135370211Y-86490533D01*
X135205114Y-86490388D01*
X135052529Y-86553435D01*
X134935686Y-86670075D01*
X134872373Y-86822549D01*
X134872228Y-86987646D01*
X131898280Y-86987646D01*
X131376440Y-86465806D01*
X131481128Y-86465806D01*
X131544175Y-86618391D01*
X131660815Y-86735234D01*
X131813289Y-86798547D01*
X131978386Y-86798692D01*
X132130971Y-86735645D01*
X132247814Y-86619005D01*
X132311127Y-86466531D01*
X132311272Y-86301434D01*
X132248225Y-86148849D01*
X132131585Y-86032006D01*
X131979111Y-85968693D01*
X131814014Y-85968548D01*
X131661429Y-86031595D01*
X131544586Y-86148235D01*
X131481273Y-86300709D01*
X131481128Y-86465806D01*
X131376440Y-86465806D01*
X131061141Y-86150507D01*
X131061272Y-86001014D01*
X130998225Y-85848429D01*
X130881585Y-85731586D01*
X130729111Y-85668273D01*
X130680220Y-85668230D01*
X130680220Y-85319201D01*
X130715266Y-85319232D01*
X130867851Y-85256185D01*
X130920701Y-85203426D01*
X131483668Y-85203426D01*
X131546715Y-85356011D01*
X131663355Y-85472854D01*
X131815829Y-85536167D01*
X131980926Y-85536312D01*
X132133511Y-85473265D01*
X132250354Y-85356625D01*
X132313667Y-85204151D01*
X132313812Y-85039054D01*
X132250765Y-84886469D01*
X132134125Y-84769626D01*
X131981651Y-84706313D01*
X131816554Y-84706168D01*
X131663969Y-84769215D01*
X131547126Y-84885855D01*
X131483813Y-85038329D01*
X131483668Y-85203426D01*
X130920701Y-85203426D01*
X130984694Y-85139545D01*
X131048007Y-84987071D01*
X131048152Y-84821974D01*
X130985105Y-84669389D01*
X130868465Y-84552546D01*
X130715991Y-84489233D01*
X130680220Y-84489202D01*
X130680220Y-84334746D01*
X132453948Y-84334746D01*
X132516995Y-84487331D01*
X132633635Y-84604174D01*
X132786109Y-84667487D01*
X132951206Y-84667632D01*
X133103791Y-84604585D01*
X133220634Y-84487945D01*
X133283947Y-84335471D01*
X133284092Y-84170374D01*
X133221045Y-84017789D01*
X133104405Y-83900946D01*
X132951931Y-83837633D01*
X132786834Y-83837488D01*
X132634249Y-83900535D01*
X132517406Y-84017175D01*
X132454093Y-84169649D01*
X132453948Y-84334746D01*
X130680220Y-84334746D01*
X130680220Y-83986987D01*
X130759751Y-83954125D01*
X130876594Y-83837485D01*
X130939907Y-83685011D01*
X130939954Y-83630406D01*
X133440388Y-83630406D01*
X133503435Y-83782991D01*
X133620075Y-83899834D01*
X133772549Y-83963147D01*
X133937646Y-83963292D01*
X134090231Y-83900245D01*
X134207074Y-83783605D01*
X134270387Y-83631131D01*
X134270532Y-83466034D01*
X134207485Y-83313449D01*
X134090845Y-83196606D01*
X133938371Y-83133293D01*
X133773274Y-83133148D01*
X133620689Y-83196195D01*
X133503846Y-83312835D01*
X133440533Y-83465309D01*
X133440388Y-83630406D01*
X130939954Y-83630406D01*
X130940052Y-83519914D01*
X130877005Y-83367329D01*
X130760365Y-83250486D01*
X130680220Y-83217207D01*
X130680220Y-82776456D01*
X130762291Y-82742545D01*
X130879134Y-82625905D01*
X130942447Y-82473431D01*
X130942492Y-82421366D01*
X133475948Y-82421366D01*
X133538995Y-82573951D01*
X133655635Y-82690794D01*
X133808109Y-82754107D01*
X133973206Y-82754252D01*
X134125791Y-82691205D01*
X134242634Y-82574565D01*
X134305947Y-82422091D01*
X134306092Y-82256994D01*
X134243045Y-82104409D01*
X134126405Y-81987566D01*
X133973931Y-81924253D01*
X133808834Y-81924108D01*
X133656249Y-81987155D01*
X133539406Y-82103795D01*
X133476093Y-82256269D01*
X133475948Y-82421366D01*
X130942492Y-82421366D01*
X130942592Y-82308334D01*
X130879545Y-82155749D01*
X130762905Y-82038906D01*
X130680220Y-82004572D01*
X130680220Y-81518653D01*
X130724191Y-81500485D01*
X130841034Y-81383845D01*
X130904347Y-81231371D01*
X130904492Y-81066274D01*
X130841445Y-80913689D01*
X130724805Y-80796846D01*
X130680220Y-80778333D01*
X130680220Y-80211113D01*
X130706414Y-80184965D01*
X130769727Y-80032491D01*
X130769872Y-79867394D01*
X130706825Y-79714809D01*
X130680220Y-79688158D01*
X130680220Y-78917029D01*
X130701147Y-78866631D01*
X130701292Y-78701534D01*
X130680220Y-78650536D01*
X130680220Y-73348714D01*
X131347074Y-72681860D01*
X133930526Y-72681860D01*
X134419580Y-73170914D01*
X134419580Y-73170914D01*
G37*
X134419580Y-73170914D02*
X134419580Y-73543906D01*
X134380689Y-73559975D01*
X134263846Y-73676615D01*
X134200533Y-73829089D01*
X134200388Y-73994186D01*
X134263435Y-74146771D01*
X134380075Y-74263614D01*
X134419580Y-74280018D01*
X134419580Y-74784738D01*
X134309751Y-74739133D01*
X134144654Y-74738988D01*
X133992069Y-74802035D01*
X133875226Y-74918675D01*
X133811913Y-75071149D01*
X133811768Y-75236246D01*
X133874815Y-75388831D01*
X133991455Y-75505674D01*
X134143929Y-75568987D01*
X134309026Y-75569132D01*
X134419580Y-75523452D01*
X134419580Y-76077724D01*
X134404385Y-76040949D01*
X134287745Y-75924106D01*
X134135271Y-75860793D01*
X133970174Y-75860648D01*
X133817589Y-75923695D01*
X133700746Y-76040335D01*
X133637433Y-76192809D01*
X133637288Y-76357906D01*
X133700335Y-76510491D01*
X133816975Y-76627334D01*
X133969449Y-76690647D01*
X134134546Y-76690792D01*
X134287131Y-76627745D01*
X134403974Y-76511105D01*
X134419580Y-76473522D01*
X134419580Y-77370104D01*
X134404385Y-77333329D01*
X134287745Y-77216486D01*
X134135271Y-77153173D01*
X133970174Y-77153028D01*
X133817589Y-77216075D01*
X133700746Y-77332715D01*
X133637433Y-77485189D01*
X133637288Y-77650286D01*
X133700335Y-77802871D01*
X133816975Y-77919714D01*
X133969449Y-77983027D01*
X134134546Y-77983172D01*
X134287131Y-77920125D01*
X134403974Y-77803485D01*
X134419580Y-77765902D01*
X134419580Y-78670104D01*
X134404385Y-78633329D01*
X134287745Y-78516486D01*
X134135271Y-78453173D01*
X133970174Y-78453028D01*
X133817589Y-78516075D01*
X133700746Y-78632715D01*
X133637433Y-78785189D01*
X133637288Y-78950286D01*
X133700335Y-79102871D01*
X133816975Y-79219714D01*
X133969449Y-79283027D01*
X134134546Y-79283172D01*
X134287131Y-79220125D01*
X134403974Y-79103485D01*
X134419580Y-79065902D01*
X134419580Y-79636776D01*
X134406925Y-79606149D01*
X134290285Y-79489306D01*
X134137811Y-79425993D01*
X133972714Y-79425848D01*
X133820129Y-79488895D01*
X133703286Y-79605535D01*
X133639973Y-79758009D01*
X133639828Y-79923106D01*
X133702875Y-80075691D01*
X133819515Y-80192534D01*
X133971989Y-80255847D01*
X134137086Y-80255992D01*
X134289671Y-80192945D01*
X134406514Y-80076305D01*
X134419580Y-80044839D01*
X134419580Y-80889362D01*
X134415765Y-80880129D01*
X134299125Y-80763286D01*
X134146651Y-80699973D01*
X133981554Y-80699828D01*
X133828969Y-80762875D01*
X133712126Y-80879515D01*
X133648813Y-81031989D01*
X133648668Y-81197086D01*
X133711715Y-81349671D01*
X133828355Y-81466514D01*
X133980829Y-81529827D01*
X134145926Y-81529972D01*
X134298511Y-81466925D01*
X134415354Y-81350285D01*
X134419580Y-81340108D01*
X134419580Y-83588789D01*
X134373094Y-83635194D01*
X134328851Y-83741742D01*
X134328750Y-83857111D01*
X134372807Y-83963737D01*
X134419580Y-84010591D01*
X134419580Y-84223860D01*
X134420762Y-84229696D01*
X134423973Y-84234467D01*
X135336985Y-85147479D01*
X135210914Y-85147368D01*
X135058329Y-85210415D01*
X134941486Y-85327055D01*
X134878173Y-85479529D01*
X134878028Y-85644626D01*
X134941075Y-85797211D01*
X135057715Y-85914054D01*
X135210189Y-85977367D01*
X135375286Y-85977512D01*
X135527871Y-85914465D01*
X135644714Y-85797825D01*
X135708027Y-85645351D01*
X135708138Y-85518632D01*
X136344213Y-86154707D01*
X136349176Y-86157998D01*
X136354820Y-86159100D01*
X138396440Y-86159100D01*
X138370193Y-86222309D01*
X138370048Y-86387406D01*
X138433095Y-86539991D01*
X138549735Y-86656834D01*
X138702209Y-86720147D01*
X138867306Y-86720292D01*
X139019891Y-86657245D01*
X139136734Y-86540605D01*
X139200047Y-86388131D01*
X139200192Y-86223034D01*
X139173775Y-86159100D01*
X145359784Y-86159100D01*
X145312146Y-86206655D01*
X145248833Y-86359129D01*
X145248688Y-86524226D01*
X145311735Y-86676811D01*
X145428375Y-86793654D01*
X145580849Y-86856967D01*
X145745946Y-86857112D01*
X145898531Y-86794065D01*
X146015374Y-86677425D01*
X146078687Y-86524951D01*
X146078832Y-86359854D01*
X146015785Y-86207269D01*
X145967700Y-86159100D01*
X149350866Y-86159100D01*
X150866080Y-87674314D01*
X150866080Y-92517438D01*
X150856285Y-92507626D01*
X150703811Y-92444313D01*
X150538714Y-92444168D01*
X150386129Y-92507215D01*
X150269286Y-92623855D01*
X150205973Y-92776329D01*
X150205828Y-92941426D01*
X150268875Y-93094011D01*
X150385515Y-93210854D01*
X150537989Y-93274167D01*
X150703086Y-93274312D01*
X150855671Y-93211265D01*
X150866080Y-93200874D01*
X150866080Y-95027879D01*
X150811591Y-95005253D01*
X150646494Y-95005108D01*
X150493909Y-95068155D01*
X150377066Y-95184795D01*
X150313753Y-95337269D01*
X150313608Y-95502366D01*
X150376655Y-95654951D01*
X150493295Y-95771794D01*
X150645769Y-95835107D01*
X150810866Y-95835252D01*
X150866080Y-95812438D01*
X150866080Y-98385766D01*
X149790286Y-99461560D01*
X147418975Y-99461560D01*
X147369237Y-99428326D01*
X147286960Y-99411960D01*
X143069599Y-99411960D01*
X143038946Y-99381254D01*
X142932398Y-99337011D01*
X142817029Y-99336910D01*
X142710403Y-99380967D01*
X142628754Y-99462474D01*
X142584511Y-99569022D01*
X142584410Y-99684391D01*
X142628467Y-99791017D01*
X142709974Y-99872666D01*
X142816522Y-99916909D01*
X142931891Y-99917010D01*
X143038517Y-99872953D01*
X143069564Y-99841960D01*
X143857872Y-99841960D01*
X143844294Y-99855514D01*
X143800051Y-99962062D01*
X143799950Y-100077431D01*
X143844007Y-100184057D01*
X143900000Y-100240148D01*
X143900000Y-100440000D01*
X143914463Y-100512710D01*
X143955650Y-100574350D01*
X144878760Y-101497461D01*
X144878760Y-101629973D01*
X144852569Y-101629950D01*
X144745943Y-101674007D01*
X144664294Y-101755514D01*
X144620051Y-101862062D01*
X144619950Y-101977431D01*
X144664007Y-102084057D01*
X144745514Y-102165706D01*
X144852062Y-102209949D01*
X144878760Y-102209972D01*
X144878760Y-102454220D01*
X144218276Y-102454220D01*
X143375000Y-101610944D01*
X143375000Y-101090000D01*
X143358634Y-101007723D01*
X143312028Y-100937972D01*
X143022028Y-100647972D01*
X142952277Y-100601366D01*
X142870000Y-100585000D01*
X142695139Y-100585000D01*
X142664486Y-100554294D01*
X142557938Y-100510051D01*
X142442569Y-100509950D01*
X142335943Y-100554007D01*
X142254294Y-100635514D01*
X142210051Y-100742062D01*
X142209950Y-100857431D01*
X142254007Y-100964057D01*
X142335514Y-101045706D01*
X142384027Y-101065850D01*
X142344294Y-101105514D01*
X142300051Y-101212062D01*
X142299950Y-101327431D01*
X142315225Y-101364398D01*
X140712306Y-100235161D01*
X140696073Y-100195874D01*
X140593486Y-100093108D01*
X140459382Y-100037423D01*
X140431589Y-100037399D01*
X139774723Y-99574645D01*
X140021397Y-99574645D01*
X140076847Y-99708846D01*
X140179434Y-99811612D01*
X140313538Y-99867297D01*
X140458745Y-99867423D01*
X140592946Y-99811973D01*
X140695712Y-99709386D01*
X140751397Y-99575282D01*
X140751523Y-99430075D01*
X140696073Y-99295874D01*
X140593486Y-99193108D01*
X140459382Y-99137423D01*
X140314175Y-99137297D01*
X140179974Y-99192747D01*
X140077208Y-99295334D01*
X140021523Y-99429438D01*
X140021397Y-99574645D01*
X139774723Y-99574645D01*
X139651473Y-99487817D01*
X139651523Y-99430075D01*
X139596073Y-99295874D01*
X139493486Y-99193108D01*
X139359382Y-99137423D01*
X139214175Y-99137297D01*
X139176196Y-99152989D01*
X139044675Y-99060334D01*
X139095712Y-99009386D01*
X139151397Y-98875282D01*
X139151397Y-98874645D01*
X139421397Y-98874645D01*
X139476847Y-99008846D01*
X139579434Y-99111612D01*
X139713538Y-99167297D01*
X139858745Y-99167423D01*
X139992946Y-99111973D01*
X140095712Y-99009386D01*
X140151397Y-98875282D01*
X140151523Y-98730075D01*
X140096073Y-98595874D01*
X139993486Y-98493108D01*
X139859382Y-98437423D01*
X139714175Y-98437297D01*
X139579974Y-98492747D01*
X139477208Y-98595334D01*
X139421523Y-98729438D01*
X139421397Y-98874645D01*
X139151397Y-98874645D01*
X139151523Y-98730075D01*
X139096073Y-98595874D01*
X138993486Y-98493108D01*
X138859382Y-98437423D01*
X138714175Y-98437297D01*
X138579974Y-98492747D01*
X138477208Y-98595334D01*
X138456253Y-98645798D01*
X138187570Y-98456514D01*
X138213538Y-98467297D01*
X138358745Y-98467423D01*
X138492946Y-98411973D01*
X138595712Y-98309386D01*
X138651397Y-98175282D01*
X138651397Y-98174645D01*
X138921397Y-98174645D01*
X138976847Y-98308846D01*
X139079434Y-98411612D01*
X139213538Y-98467297D01*
X139358745Y-98467423D01*
X139492946Y-98411973D01*
X139595712Y-98309386D01*
X139616305Y-98259791D01*
X140996410Y-98259791D01*
X141040467Y-98366417D01*
X141121974Y-98448066D01*
X141228522Y-98492309D01*
X141343891Y-98492410D01*
X141450517Y-98448353D01*
X141532166Y-98366846D01*
X141576409Y-98260298D01*
X141576510Y-98144929D01*
X141532453Y-98038303D01*
X141454018Y-97959731D01*
X142147530Y-97959731D01*
X142191587Y-98066357D01*
X142273094Y-98148006D01*
X142379642Y-98192249D01*
X142495011Y-98192350D01*
X142601637Y-98148293D01*
X142683286Y-98066786D01*
X142716937Y-97985746D01*
X144073288Y-97985746D01*
X144136335Y-98138331D01*
X144252975Y-98255174D01*
X144405449Y-98318487D01*
X144570546Y-98318632D01*
X144723131Y-98255585D01*
X144839974Y-98138945D01*
X144903287Y-97986471D01*
X144903287Y-97985746D01*
X145597748Y-97985746D01*
X145660795Y-98138331D01*
X145777435Y-98255174D01*
X145929909Y-98318487D01*
X146095006Y-98318632D01*
X146247591Y-98255585D01*
X146364434Y-98138945D01*
X146427516Y-97987026D01*
X147077108Y-97987026D01*
X147140155Y-98139611D01*
X147256795Y-98256454D01*
X147409269Y-98319767D01*
X147574366Y-98319912D01*
X147726951Y-98256865D01*
X147843794Y-98140225D01*
X147906328Y-97989626D01*
X148377028Y-97989626D01*
X148440075Y-98142211D01*
X148556715Y-98259054D01*
X148709189Y-98322367D01*
X148874286Y-98322512D01*
X149026871Y-98259465D01*
X149143714Y-98142825D01*
X149207027Y-97990351D01*
X149207027Y-97989626D01*
X149647028Y-97989626D01*
X149710075Y-98142211D01*
X149826715Y-98259054D01*
X149979189Y-98322367D01*
X150144286Y-98322512D01*
X150296871Y-98259465D01*
X150413714Y-98142825D01*
X150477027Y-97990351D01*
X150477172Y-97825254D01*
X150414125Y-97672669D01*
X150297485Y-97555826D01*
X150145011Y-97492513D01*
X149979914Y-97492368D01*
X149827329Y-97555415D01*
X149710486Y-97672055D01*
X149647173Y-97824529D01*
X149647028Y-97989626D01*
X149207027Y-97989626D01*
X149207172Y-97825254D01*
X149144125Y-97672669D01*
X149027485Y-97555826D01*
X148875011Y-97492513D01*
X148709914Y-97492368D01*
X148557329Y-97555415D01*
X148440486Y-97672055D01*
X148377173Y-97824529D01*
X148377028Y-97989626D01*
X147906328Y-97989626D01*
X147907107Y-97987751D01*
X147907252Y-97822654D01*
X147844205Y-97670069D01*
X147727565Y-97553226D01*
X147575091Y-97489913D01*
X147409994Y-97489768D01*
X147257409Y-97552815D01*
X147140566Y-97669455D01*
X147077253Y-97821929D01*
X147077108Y-97987026D01*
X146427516Y-97987026D01*
X146427747Y-97986471D01*
X146427892Y-97821374D01*
X146364845Y-97668789D01*
X146248205Y-97551946D01*
X146095731Y-97488633D01*
X145930634Y-97488488D01*
X145778049Y-97551535D01*
X145661206Y-97668175D01*
X145597893Y-97820649D01*
X145597748Y-97985746D01*
X144903287Y-97985746D01*
X144903432Y-97821374D01*
X144840385Y-97668789D01*
X144723745Y-97551946D01*
X144571271Y-97488633D01*
X144406174Y-97488488D01*
X144253589Y-97551535D01*
X144136746Y-97668175D01*
X144073433Y-97820649D01*
X144073288Y-97985746D01*
X142716937Y-97985746D01*
X142727529Y-97960238D01*
X142727630Y-97844869D01*
X142683573Y-97738243D01*
X142602066Y-97656594D01*
X142495518Y-97612351D01*
X142380149Y-97612250D01*
X142273523Y-97656307D01*
X142191874Y-97737814D01*
X142147631Y-97844362D01*
X142147530Y-97959731D01*
X141454018Y-97959731D01*
X141450946Y-97956654D01*
X141344398Y-97912411D01*
X141229029Y-97912310D01*
X141122403Y-97956367D01*
X141040754Y-98037874D01*
X140996511Y-98144422D01*
X140996410Y-98259791D01*
X139616305Y-98259791D01*
X139651397Y-98175282D01*
X139651523Y-98030075D01*
X139596073Y-97895874D01*
X139493486Y-97793108D01*
X139359382Y-97737423D01*
X139214175Y-97737297D01*
X139079974Y-97792747D01*
X138977208Y-97895334D01*
X138921523Y-98029438D01*
X138921397Y-98174645D01*
X138651397Y-98174645D01*
X138651523Y-98030075D01*
X138596073Y-97895874D01*
X138493486Y-97793108D01*
X138359382Y-97737423D01*
X138214175Y-97737297D01*
X138079974Y-97792747D01*
X137977208Y-97895334D01*
X137921523Y-98029438D01*
X137921397Y-98174645D01*
X137976390Y-98307741D01*
X137651481Y-98078846D01*
X137651523Y-98030075D01*
X137596073Y-97895874D01*
X137493486Y-97793108D01*
X137359382Y-97737423D01*
X137214175Y-97737297D01*
X137184227Y-97749671D01*
X137049946Y-97655072D01*
X137095712Y-97609386D01*
X137151397Y-97475282D01*
X137151397Y-97474645D01*
X137421397Y-97474645D01*
X137476847Y-97608846D01*
X137579434Y-97711612D01*
X137713538Y-97767297D01*
X137858745Y-97767423D01*
X137992946Y-97711973D01*
X138095712Y-97609386D01*
X138151397Y-97475282D01*
X138151397Y-97474645D01*
X138421397Y-97474645D01*
X138476847Y-97608846D01*
X138579434Y-97711612D01*
X138713538Y-97767297D01*
X138858745Y-97767423D01*
X138992946Y-97711973D01*
X139095712Y-97609386D01*
X139151397Y-97475282D01*
X139151397Y-97474645D01*
X139321397Y-97474645D01*
X139376847Y-97608846D01*
X139479434Y-97711612D01*
X139613538Y-97767297D01*
X139758745Y-97767423D01*
X139892946Y-97711973D01*
X139995712Y-97609386D01*
X140051397Y-97475282D01*
X140051523Y-97330075D01*
X139996073Y-97195874D01*
X139893486Y-97093108D01*
X139759382Y-97037423D01*
X139614175Y-97037297D01*
X139479974Y-97092747D01*
X139377208Y-97195334D01*
X139321523Y-97329438D01*
X139321397Y-97474645D01*
X139151397Y-97474645D01*
X139151523Y-97330075D01*
X139096073Y-97195874D01*
X138993486Y-97093108D01*
X138859382Y-97037423D01*
X138714175Y-97037297D01*
X138579974Y-97092747D01*
X138477208Y-97195334D01*
X138421523Y-97329438D01*
X138421397Y-97474645D01*
X138151397Y-97474645D01*
X138151523Y-97330075D01*
X138096073Y-97195874D01*
X137993486Y-97093108D01*
X137859382Y-97037423D01*
X137714175Y-97037297D01*
X137579974Y-97092747D01*
X137477208Y-97195334D01*
X137421523Y-97329438D01*
X137421397Y-97474645D01*
X137151397Y-97474645D01*
X137151523Y-97330075D01*
X137096073Y-97195874D01*
X136993486Y-97093108D01*
X136859382Y-97037423D01*
X136714175Y-97037297D01*
X136579974Y-97092747D01*
X136477208Y-97195334D01*
X136421523Y-97329438D01*
X136421397Y-97474645D01*
X136421544Y-97475000D01*
X133796214Y-97475000D01*
X133095859Y-96774645D01*
X136921397Y-96774645D01*
X136976847Y-96908846D01*
X137079434Y-97011612D01*
X137213538Y-97067297D01*
X137358745Y-97067423D01*
X137492946Y-97011973D01*
X137595712Y-96909386D01*
X137651397Y-96775282D01*
X137651523Y-96630075D01*
X137596073Y-96495874D01*
X137493486Y-96393108D01*
X137359382Y-96337423D01*
X137214175Y-96337297D01*
X137079974Y-96392747D01*
X136977208Y-96495334D01*
X136921523Y-96629438D01*
X136921397Y-96774645D01*
X133095859Y-96774645D01*
X132975000Y-96653786D01*
X132975000Y-96459791D01*
X134196410Y-96459791D01*
X134240467Y-96566417D01*
X134321974Y-96648066D01*
X134428522Y-96692309D01*
X134543891Y-96692410D01*
X134650517Y-96648353D01*
X134732166Y-96566846D01*
X134776409Y-96460298D01*
X134776510Y-96344929D01*
X134732453Y-96238303D01*
X134650946Y-96156654D01*
X134544398Y-96112411D01*
X134429029Y-96112310D01*
X134322403Y-96156367D01*
X134240754Y-96237874D01*
X134196511Y-96344422D01*
X134196410Y-96459791D01*
X132975000Y-96459791D01*
X132975000Y-96249056D01*
X133364265Y-95859791D01*
X135596410Y-95859791D01*
X135640467Y-95966417D01*
X135721974Y-96048066D01*
X135828522Y-96092309D01*
X135943891Y-96092410D01*
X136050517Y-96048353D01*
X136132166Y-95966846D01*
X136176409Y-95860298D01*
X136176510Y-95744929D01*
X136132453Y-95638303D01*
X136050946Y-95556654D01*
X135944398Y-95512411D01*
X135829029Y-95512310D01*
X135722403Y-95556367D01*
X135640754Y-95637874D01*
X135596511Y-95744422D01*
X135596410Y-95859791D01*
X133364265Y-95859791D01*
X133629056Y-95595000D01*
X134860000Y-95595000D01*
X134942277Y-95578634D01*
X135012028Y-95532028D01*
X135219056Y-95325000D01*
X135850944Y-95325000D01*
X136053189Y-95527245D01*
X136059472Y-95536648D01*
X136221744Y-95698920D01*
X136221710Y-95737231D01*
X136265767Y-95843857D01*
X136347274Y-95925506D01*
X136453822Y-95969749D01*
X136569191Y-95969850D01*
X136675817Y-95925793D01*
X136757466Y-95844286D01*
X136801609Y-95737980D01*
X136896169Y-95737980D01*
X136938867Y-95841317D01*
X137020374Y-95922966D01*
X137126922Y-95967209D01*
X137242291Y-95967310D01*
X137348917Y-95923253D01*
X137430566Y-95841746D01*
X137473654Y-95737980D01*
X137781656Y-95737980D01*
X138699237Y-96458140D01*
X138704557Y-96460813D01*
X138708498Y-96461340D01*
X141063840Y-96461340D01*
X141063840Y-97414828D01*
X141040754Y-97437874D01*
X140996511Y-97544422D01*
X140996410Y-97659791D01*
X141040467Y-97766417D01*
X141121974Y-97848066D01*
X141228522Y-97892309D01*
X141343891Y-97892410D01*
X141450517Y-97848353D01*
X141532166Y-97766846D01*
X141576409Y-97660298D01*
X141576510Y-97544929D01*
X141532453Y-97438303D01*
X141493840Y-97399623D01*
X141493840Y-96531256D01*
X141563756Y-96461340D01*
X145953480Y-96461340D01*
X145959316Y-96460158D01*
X145964087Y-96456947D01*
X146428907Y-95992127D01*
X146432198Y-95987164D01*
X146433300Y-95981520D01*
X146433300Y-95502366D01*
X149081708Y-95502366D01*
X149144755Y-95654951D01*
X149261395Y-95771794D01*
X149413869Y-95835107D01*
X149578966Y-95835252D01*
X149731551Y-95772205D01*
X149848394Y-95655565D01*
X149911707Y-95503091D01*
X149911852Y-95337994D01*
X149848805Y-95185409D01*
X149732165Y-95068566D01*
X149579691Y-95005253D01*
X149414594Y-95005108D01*
X149262009Y-95068155D01*
X149145166Y-95184795D01*
X149081853Y-95337269D01*
X149081708Y-95502366D01*
X146433300Y-95502366D01*
X146433300Y-93920134D01*
X146436375Y-93923214D01*
X146588849Y-93986527D01*
X146753946Y-93986672D01*
X146906531Y-93923625D01*
X147023374Y-93806985D01*
X147086687Y-93654511D01*
X147086707Y-93630926D01*
X147498748Y-93630926D01*
X147561795Y-93783511D01*
X147678435Y-93900354D01*
X147830909Y-93963667D01*
X147996006Y-93963812D01*
X148148591Y-93900765D01*
X148265434Y-93784125D01*
X148328747Y-93631651D01*
X148328892Y-93466554D01*
X148265845Y-93313969D01*
X148149205Y-93197126D01*
X147996731Y-93133813D01*
X147831634Y-93133668D01*
X147679049Y-93196715D01*
X147562206Y-93313355D01*
X147498893Y-93465829D01*
X147498748Y-93630926D01*
X147086707Y-93630926D01*
X147086832Y-93489414D01*
X147023785Y-93336829D01*
X146907145Y-93219986D01*
X146754671Y-93156673D01*
X146589574Y-93156528D01*
X146436989Y-93219575D01*
X146433300Y-93223258D01*
X146433300Y-92942586D01*
X148761128Y-92942586D01*
X148824175Y-93095171D01*
X148940815Y-93212014D01*
X149093289Y-93275327D01*
X149258386Y-93275472D01*
X149410971Y-93212425D01*
X149527814Y-93095785D01*
X149591127Y-92943311D01*
X149591272Y-92778214D01*
X149528225Y-92625629D01*
X149411585Y-92508786D01*
X149259111Y-92445473D01*
X149094014Y-92445328D01*
X148941429Y-92508375D01*
X148824586Y-92625015D01*
X148761273Y-92777489D01*
X148761128Y-92942586D01*
X146433300Y-92942586D01*
X146433300Y-92209620D01*
X146432118Y-92203784D01*
X146428907Y-92199013D01*
X144894756Y-90664862D01*
X144894812Y-90601434D01*
X144831765Y-90448849D01*
X144715125Y-90332006D01*
X144562651Y-90268693D01*
X144397554Y-90268548D01*
X144244969Y-90331595D01*
X144128126Y-90448235D01*
X144102230Y-90510600D01*
X138914964Y-90510600D01*
X139019891Y-90467245D01*
X139136734Y-90350605D01*
X139200047Y-90198131D01*
X139200192Y-90033034D01*
X139137145Y-89880449D01*
X139020505Y-89763606D01*
X138868031Y-89700293D01*
X138702934Y-89700148D01*
X138550349Y-89763195D01*
X138433506Y-89879835D01*
X138370193Y-90032309D01*
X138370048Y-90197406D01*
X138433095Y-90349991D01*
X138549735Y-90466834D01*
X138655135Y-90510600D01*
X135421234Y-90510600D01*
X134472480Y-89561846D01*
X144084988Y-89561846D01*
X144148035Y-89714431D01*
X144264675Y-89831274D01*
X144417149Y-89894587D01*
X144582246Y-89894732D01*
X144734831Y-89831685D01*
X144851674Y-89715045D01*
X144914987Y-89562571D01*
X144915132Y-89397474D01*
X144852085Y-89244889D01*
X144735445Y-89128046D01*
X144582971Y-89064733D01*
X144417874Y-89064588D01*
X144265289Y-89127635D01*
X144148446Y-89244275D01*
X144085133Y-89396749D01*
X144084988Y-89561846D01*
X134472480Y-89561846D01*
X133838040Y-88927406D01*
X138370048Y-88927406D01*
X138433095Y-89079991D01*
X138549735Y-89196834D01*
X138702209Y-89260147D01*
X138867306Y-89260292D01*
X139019891Y-89197245D01*
X139136734Y-89080605D01*
X139200047Y-88928131D01*
X139200192Y-88763034D01*
X139183918Y-88723646D01*
X144880008Y-88723646D01*
X144943055Y-88876231D01*
X145059695Y-88993074D01*
X145212169Y-89056387D01*
X145377266Y-89056532D01*
X145529851Y-88993485D01*
X145646694Y-88876845D01*
X145710007Y-88724371D01*
X145710152Y-88559274D01*
X145647105Y-88406689D01*
X145530465Y-88289846D01*
X145377991Y-88226533D01*
X145212894Y-88226388D01*
X145060309Y-88289435D01*
X144943466Y-88406075D01*
X144880153Y-88558549D01*
X144880008Y-88723646D01*
X139183918Y-88723646D01*
X139137145Y-88610449D01*
X139020505Y-88493606D01*
X138868031Y-88430293D01*
X138702934Y-88430148D01*
X138550349Y-88493195D01*
X138433506Y-88609835D01*
X138370193Y-88762309D01*
X138370048Y-88927406D01*
X133838040Y-88927406D01*
X132568040Y-87657406D01*
X138370048Y-87657406D01*
X138433095Y-87809991D01*
X138549735Y-87926834D01*
X138702209Y-87990147D01*
X138867306Y-87990292D01*
X139019891Y-87927245D01*
X139136734Y-87810605D01*
X139186869Y-87689866D01*
X145253388Y-87689866D01*
X145316435Y-87842451D01*
X145433075Y-87959294D01*
X145585549Y-88022607D01*
X145750646Y-88022752D01*
X145903231Y-87959705D01*
X146020074Y-87843065D01*
X146083387Y-87690591D01*
X146083532Y-87525494D01*
X146020485Y-87372909D01*
X145903845Y-87256066D01*
X145751371Y-87192753D01*
X145586274Y-87192608D01*
X145433689Y-87255655D01*
X145316846Y-87372295D01*
X145253533Y-87524769D01*
X145253388Y-87689866D01*
X139186869Y-87689866D01*
X139200047Y-87658131D01*
X139200192Y-87493034D01*
X139137145Y-87340449D01*
X139020505Y-87223606D01*
X138868031Y-87160293D01*
X138702934Y-87160148D01*
X138550349Y-87223195D01*
X138433506Y-87339835D01*
X138370193Y-87492309D01*
X138370048Y-87657406D01*
X132568040Y-87657406D01*
X132256483Y-87345849D01*
X132243525Y-87314489D01*
X132126885Y-87197646D01*
X132095069Y-87184435D01*
X131898280Y-86987646D01*
X134872228Y-86987646D01*
X134935275Y-87140231D01*
X135051915Y-87257074D01*
X135204389Y-87320387D01*
X135369486Y-87320532D01*
X135522071Y-87257485D01*
X135638914Y-87140845D01*
X135665347Y-87077186D01*
X141870648Y-87077186D01*
X141933695Y-87229771D01*
X142050335Y-87346614D01*
X142202809Y-87409927D01*
X142367906Y-87410072D01*
X142520491Y-87347025D01*
X142637334Y-87230385D01*
X142700647Y-87077911D01*
X142700792Y-86912814D01*
X142637745Y-86760229D01*
X142521105Y-86643386D01*
X142368631Y-86580073D01*
X142203534Y-86579928D01*
X142050949Y-86642975D01*
X141934106Y-86759615D01*
X141870793Y-86912089D01*
X141870648Y-87077186D01*
X135665347Y-87077186D01*
X135702227Y-86988371D01*
X135702372Y-86823274D01*
X135639325Y-86670689D01*
X135522685Y-86553846D01*
X135370211Y-86490533D01*
X135205114Y-86490388D01*
X135052529Y-86553435D01*
X134935686Y-86670075D01*
X134872373Y-86822549D01*
X134872228Y-86987646D01*
X131898280Y-86987646D01*
X131376440Y-86465806D01*
X131481128Y-86465806D01*
X131544175Y-86618391D01*
X131660815Y-86735234D01*
X131813289Y-86798547D01*
X131978386Y-86798692D01*
X132130971Y-86735645D01*
X132247814Y-86619005D01*
X132311127Y-86466531D01*
X132311272Y-86301434D01*
X132248225Y-86148849D01*
X132131585Y-86032006D01*
X131979111Y-85968693D01*
X131814014Y-85968548D01*
X131661429Y-86031595D01*
X131544586Y-86148235D01*
X131481273Y-86300709D01*
X131481128Y-86465806D01*
X131376440Y-86465806D01*
X131061141Y-86150507D01*
X131061272Y-86001014D01*
X130998225Y-85848429D01*
X130881585Y-85731586D01*
X130729111Y-85668273D01*
X130680220Y-85668230D01*
X130680220Y-85319201D01*
X130715266Y-85319232D01*
X130867851Y-85256185D01*
X130920701Y-85203426D01*
X131483668Y-85203426D01*
X131546715Y-85356011D01*
X131663355Y-85472854D01*
X131815829Y-85536167D01*
X131980926Y-85536312D01*
X132133511Y-85473265D01*
X132250354Y-85356625D01*
X132313667Y-85204151D01*
X132313812Y-85039054D01*
X132250765Y-84886469D01*
X132134125Y-84769626D01*
X131981651Y-84706313D01*
X131816554Y-84706168D01*
X131663969Y-84769215D01*
X131547126Y-84885855D01*
X131483813Y-85038329D01*
X131483668Y-85203426D01*
X130920701Y-85203426D01*
X130984694Y-85139545D01*
X131048007Y-84987071D01*
X131048152Y-84821974D01*
X130985105Y-84669389D01*
X130868465Y-84552546D01*
X130715991Y-84489233D01*
X130680220Y-84489202D01*
X130680220Y-84334746D01*
X132453948Y-84334746D01*
X132516995Y-84487331D01*
X132633635Y-84604174D01*
X132786109Y-84667487D01*
X132951206Y-84667632D01*
X133103791Y-84604585D01*
X133220634Y-84487945D01*
X133283947Y-84335471D01*
X133284092Y-84170374D01*
X133221045Y-84017789D01*
X133104405Y-83900946D01*
X132951931Y-83837633D01*
X132786834Y-83837488D01*
X132634249Y-83900535D01*
X132517406Y-84017175D01*
X132454093Y-84169649D01*
X132453948Y-84334746D01*
X130680220Y-84334746D01*
X130680220Y-83986987D01*
X130759751Y-83954125D01*
X130876594Y-83837485D01*
X130939907Y-83685011D01*
X130939954Y-83630406D01*
X133440388Y-83630406D01*
X133503435Y-83782991D01*
X133620075Y-83899834D01*
X133772549Y-83963147D01*
X133937646Y-83963292D01*
X134090231Y-83900245D01*
X134207074Y-83783605D01*
X134270387Y-83631131D01*
X134270532Y-83466034D01*
X134207485Y-83313449D01*
X134090845Y-83196606D01*
X133938371Y-83133293D01*
X133773274Y-83133148D01*
X133620689Y-83196195D01*
X133503846Y-83312835D01*
X133440533Y-83465309D01*
X133440388Y-83630406D01*
X130939954Y-83630406D01*
X130940052Y-83519914D01*
X130877005Y-83367329D01*
X130760365Y-83250486D01*
X130680220Y-83217207D01*
X130680220Y-82776456D01*
X130762291Y-82742545D01*
X130879134Y-82625905D01*
X130942447Y-82473431D01*
X130942492Y-82421366D01*
X133475948Y-82421366D01*
X133538995Y-82573951D01*
X133655635Y-82690794D01*
X133808109Y-82754107D01*
X133973206Y-82754252D01*
X134125791Y-82691205D01*
X134242634Y-82574565D01*
X134305947Y-82422091D01*
X134306092Y-82256994D01*
X134243045Y-82104409D01*
X134126405Y-81987566D01*
X133973931Y-81924253D01*
X133808834Y-81924108D01*
X133656249Y-81987155D01*
X133539406Y-82103795D01*
X133476093Y-82256269D01*
X133475948Y-82421366D01*
X130942492Y-82421366D01*
X130942592Y-82308334D01*
X130879545Y-82155749D01*
X130762905Y-82038906D01*
X130680220Y-82004572D01*
X130680220Y-81518653D01*
X130724191Y-81500485D01*
X130841034Y-81383845D01*
X130904347Y-81231371D01*
X130904492Y-81066274D01*
X130841445Y-80913689D01*
X130724805Y-80796846D01*
X130680220Y-80778333D01*
X130680220Y-80211113D01*
X130706414Y-80184965D01*
X130769727Y-80032491D01*
X130769872Y-79867394D01*
X130706825Y-79714809D01*
X130680220Y-79688158D01*
X130680220Y-78917029D01*
X130701147Y-78866631D01*
X130701292Y-78701534D01*
X130680220Y-78650536D01*
X130680220Y-73348714D01*
X131347074Y-72681860D01*
X133930526Y-72681860D01*
X134419580Y-73170914D01*
G36*
X122475284Y-58745055D02*
X122648135Y-58918208D01*
X122874092Y-59012033D01*
X123118754Y-59012247D01*
X123344875Y-58918816D01*
X123518028Y-58745965D01*
X123575706Y-58607060D01*
X133492986Y-58607060D01*
X134439900Y-59553974D01*
X134439900Y-61405906D01*
X133414906Y-62430900D01*
X127901700Y-62430900D01*
X127895864Y-62432082D01*
X127891093Y-62435293D01*
X125010926Y-65315460D01*
X124639545Y-65315460D01*
X124639540Y-65315459D01*
X124526998Y-65337846D01*
X124518995Y-65339438D01*
X124416801Y-65407721D01*
X124416799Y-65407724D01*
X115487261Y-74337261D01*
X115418978Y-74439455D01*
X115394999Y-74560000D01*
X115395000Y-74560005D01*
X115395000Y-74931386D01*
X115203793Y-75122593D01*
X115200502Y-75127556D01*
X115199400Y-75133200D01*
X115199400Y-79011748D01*
X115062911Y-78955073D01*
X114897814Y-78954928D01*
X114745229Y-79017975D01*
X114628386Y-79134615D01*
X114565073Y-79287089D01*
X114564928Y-79452186D01*
X114627975Y-79604771D01*
X114744615Y-79721614D01*
X114897089Y-79784927D01*
X115062186Y-79785072D01*
X115199400Y-79728376D01*
X115199400Y-79785123D01*
X114627261Y-80357261D01*
X114558978Y-80459455D01*
X114534999Y-80580000D01*
X114535000Y-80580005D01*
X114535000Y-89697072D01*
X114512784Y-89730321D01*
X114485000Y-89870000D01*
X114485000Y-91476852D01*
X114435073Y-91597089D01*
X114434928Y-91762186D01*
X114497975Y-91914771D01*
X114614615Y-92031614D01*
X114767089Y-92094927D01*
X114932186Y-92095072D01*
X115084771Y-92032025D01*
X115199400Y-91917595D01*
X115199400Y-122834400D01*
X115200582Y-122840236D01*
X115203793Y-122845007D01*
X118385000Y-126026214D01*
X118385000Y-126930000D01*
X118401366Y-127012277D01*
X118447972Y-127082028D01*
X123363517Y-131997573D01*
X123290691Y-131967333D01*
X123125594Y-131967188D01*
X122973009Y-132030235D01*
X122856166Y-132146875D01*
X122792853Y-132299349D01*
X122792708Y-132464446D01*
X122855755Y-132617031D01*
X122972395Y-132733874D01*
X123124869Y-132797187D01*
X123289966Y-132797332D01*
X123442551Y-132734285D01*
X123559394Y-132617645D01*
X123622707Y-132465171D01*
X123622852Y-132300074D01*
X123592457Y-132226513D01*
X124045892Y-132679948D01*
X123907911Y-132622653D01*
X123742814Y-132622508D01*
X123590229Y-132685555D01*
X123473386Y-132802195D01*
X123410073Y-132954669D01*
X123409928Y-133119766D01*
X123472975Y-133272351D01*
X123589615Y-133389194D01*
X123742089Y-133452507D01*
X123907186Y-133452652D01*
X124059771Y-133389605D01*
X124176614Y-133272965D01*
X124239927Y-133120491D01*
X124240072Y-132955394D01*
X124182850Y-132816906D01*
X124387972Y-133022028D01*
X124457723Y-133068634D01*
X124540000Y-133085000D01*
X126234861Y-133085000D01*
X126265514Y-133115706D01*
X126372062Y-133159949D01*
X126487431Y-133160050D01*
X126594057Y-133115993D01*
X126675706Y-133034486D01*
X126719949Y-132927938D01*
X126719989Y-132882400D01*
X131178344Y-132882400D01*
X131547972Y-133252028D01*
X131617723Y-133298634D01*
X131700000Y-133315000D01*
X132800000Y-133315000D01*
X132882277Y-133298634D01*
X132952028Y-133252028D01*
X133243821Y-132960235D01*
X134503400Y-134219814D01*
X134503400Y-136823586D01*
X133020546Y-138306440D01*
X123646166Y-138306440D01*
X123592296Y-138176065D01*
X123419445Y-138002912D01*
X123193488Y-137909087D01*
X122948826Y-137908873D01*
X122722705Y-138002304D01*
X122549552Y-138175155D01*
X122471103Y-138364082D01*
X122393416Y-138176065D01*
X122220565Y-138002912D01*
X121994608Y-137909087D01*
X121749946Y-137908873D01*
X121523825Y-138002304D01*
X121350672Y-138175155D01*
X121272223Y-138364082D01*
X121194536Y-138176065D01*
X121021685Y-138002912D01*
X120795728Y-137909087D01*
X120551066Y-137908873D01*
X120324945Y-138002304D01*
X120151792Y-138175155D01*
X120073343Y-138364082D01*
X119995656Y-138176065D01*
X119822805Y-138002912D01*
X119596848Y-137909087D01*
X119352186Y-137908873D01*
X119126065Y-138002304D01*
X118952912Y-138175155D01*
X118897343Y-138308980D01*
X114571728Y-138308980D01*
X113278320Y-138052589D01*
X112293688Y-137395614D01*
X112159517Y-137261443D01*
X111501602Y-136278206D01*
X111246020Y-134997706D01*
X111246020Y-134186970D01*
X112772190Y-134186970D01*
X113272007Y-135396621D01*
X114196691Y-136322920D01*
X115405467Y-136824848D01*
X116714310Y-136825990D01*
X117893907Y-136338591D01*
X119409990Y-136338591D01*
X119454047Y-136445217D01*
X119535554Y-136526866D01*
X119642102Y-136571109D01*
X119757471Y-136571210D01*
X119864097Y-136527153D01*
X119945746Y-136445646D01*
X119989989Y-136339098D01*
X119990090Y-136223729D01*
X119946033Y-136117103D01*
X119864526Y-136035454D01*
X119757978Y-135991211D01*
X119642609Y-135991110D01*
X119535983Y-136035167D01*
X119454334Y-136116674D01*
X119410091Y-136223222D01*
X119409990Y-136338591D01*
X117893907Y-136338591D01*
X117923961Y-136326173D01*
X118850260Y-135401489D01*
X119352188Y-134192713D01*
X119352218Y-134157431D01*
X125499950Y-134157431D01*
X125544007Y-134264057D01*
X125625514Y-134345706D01*
X125732062Y-134389949D01*
X125847431Y-134390050D01*
X125954057Y-134345993D01*
X126035706Y-134264486D01*
X126079949Y-134157938D01*
X126080050Y-134042569D01*
X126035993Y-133935943D01*
X125954486Y-133854294D01*
X125847938Y-133810051D01*
X125732569Y-133809950D01*
X125625943Y-133854007D01*
X125544294Y-133935514D01*
X125500051Y-134042062D01*
X125499950Y-134157431D01*
X119352218Y-134157431D01*
X119352625Y-133691286D01*
X122769428Y-133691286D01*
X122832475Y-133843871D01*
X122949115Y-133960714D01*
X123101589Y-134024027D01*
X123266686Y-134024172D01*
X123419271Y-133961125D01*
X123536114Y-133844485D01*
X123599427Y-133692011D01*
X123599572Y-133526914D01*
X123536525Y-133374329D01*
X123419885Y-133257486D01*
X123267411Y-133194173D01*
X123102314Y-133194028D01*
X122949729Y-133257075D01*
X122832886Y-133373715D01*
X122769573Y-133526189D01*
X122769428Y-133691286D01*
X119352625Y-133691286D01*
X119353330Y-132883870D01*
X118853513Y-131674219D01*
X117928829Y-130747920D01*
X116720053Y-130245992D01*
X115411210Y-130244850D01*
X114201559Y-130744667D01*
X113275260Y-131669351D01*
X112773332Y-132878127D01*
X112772190Y-134186970D01*
X111246020Y-134186970D01*
X111246020Y-120544871D01*
X113900730Y-120544871D01*
X113944787Y-120651497D01*
X114026294Y-120733146D01*
X114132842Y-120777389D01*
X114248211Y-120777490D01*
X114354837Y-120733433D01*
X114436486Y-120651926D01*
X114480729Y-120545378D01*
X114480830Y-120430009D01*
X114436773Y-120323383D01*
X114355266Y-120241734D01*
X114248718Y-120197491D01*
X114133349Y-120197390D01*
X114026723Y-120241447D01*
X113945074Y-120322954D01*
X113900831Y-120429502D01*
X113900730Y-120544871D01*
X111246020Y-120544871D01*
X111246020Y-116264044D01*
X111386555Y-116205976D01*
X111559708Y-116033125D01*
X111653533Y-115807168D01*
X111653747Y-115562506D01*
X111560316Y-115336385D01*
X111387465Y-115163232D01*
X111198538Y-115084783D01*
X111386555Y-115007096D01*
X111559708Y-114834245D01*
X111653533Y-114608288D01*
X111653747Y-114363626D01*
X111560316Y-114137505D01*
X111387465Y-113964352D01*
X111198538Y-113885903D01*
X111386555Y-113808216D01*
X111559708Y-113635365D01*
X111653533Y-113409408D01*
X111653747Y-113164746D01*
X111560316Y-112938625D01*
X111387465Y-112765472D01*
X111198538Y-112687023D01*
X111386555Y-112609336D01*
X111559708Y-112436485D01*
X111653533Y-112210528D01*
X111653747Y-111965866D01*
X111560316Y-111739745D01*
X111387465Y-111566592D01*
X111248560Y-111508914D01*
X111248560Y-109912186D01*
X114144928Y-109912186D01*
X114207975Y-110064771D01*
X114324615Y-110181614D01*
X114477089Y-110244927D01*
X114642186Y-110245072D01*
X114794771Y-110182025D01*
X114911614Y-110065385D01*
X114974927Y-109912911D01*
X114975072Y-109747814D01*
X114912025Y-109595229D01*
X114795385Y-109478386D01*
X114642911Y-109415073D01*
X114477814Y-109414928D01*
X114325229Y-109477975D01*
X114208386Y-109594615D01*
X114145073Y-109747089D01*
X114144928Y-109912186D01*
X111248560Y-109912186D01*
X111248560Y-108912186D01*
X114144928Y-108912186D01*
X114207975Y-109064771D01*
X114324615Y-109181614D01*
X114477089Y-109244927D01*
X114642186Y-109245072D01*
X114794771Y-109182025D01*
X114911614Y-109065385D01*
X114974927Y-108912911D01*
X114975072Y-108747814D01*
X114912025Y-108595229D01*
X114795385Y-108478386D01*
X114642911Y-108415073D01*
X114477814Y-108414928D01*
X114325229Y-108477975D01*
X114208386Y-108594615D01*
X114145073Y-108747089D01*
X114144928Y-108912186D01*
X111248560Y-108912186D01*
X111248560Y-88972671D01*
X113832150Y-88972671D01*
X113876207Y-89079297D01*
X113957714Y-89160946D01*
X114064262Y-89205189D01*
X114179631Y-89205290D01*
X114286257Y-89161233D01*
X114367906Y-89079726D01*
X114412149Y-88973178D01*
X114412250Y-88857809D01*
X114387200Y-88797183D01*
X114387200Y-80472855D01*
X114465706Y-80394486D01*
X114509949Y-80287938D01*
X114510050Y-80172569D01*
X114465993Y-80065943D01*
X114384486Y-79984294D01*
X114277938Y-79940051D01*
X114162569Y-79939950D01*
X114055943Y-79984007D01*
X113974294Y-80065514D01*
X113949138Y-80126096D01*
X113934817Y-80140417D01*
X113877372Y-80226389D01*
X113857200Y-80327800D01*
X113857200Y-88797219D01*
X113832251Y-88857302D01*
X113832150Y-88972671D01*
X111248560Y-88972671D01*
X111248560Y-78052186D01*
X114014928Y-78052186D01*
X114077975Y-78204771D01*
X114194615Y-78321614D01*
X114347089Y-78384927D01*
X114512186Y-78385072D01*
X114664771Y-78322025D01*
X114781614Y-78205385D01*
X114844927Y-78052911D01*
X114845072Y-77887814D01*
X114782025Y-77735229D01*
X114665385Y-77618386D01*
X114512911Y-77555073D01*
X114347814Y-77554928D01*
X114195229Y-77617975D01*
X114078386Y-77734615D01*
X114015073Y-77887089D01*
X114014928Y-78052186D01*
X111248560Y-78052186D01*
X111248560Y-68037846D01*
X111556728Y-68037846D01*
X111619775Y-68190431D01*
X111736415Y-68307274D01*
X111888889Y-68370587D01*
X112053986Y-68370732D01*
X112206571Y-68307685D01*
X112323414Y-68191045D01*
X112386727Y-68038571D01*
X112386872Y-67873474D01*
X112323825Y-67720889D01*
X112207185Y-67604046D01*
X112054711Y-67540733D01*
X111889614Y-67540588D01*
X111737029Y-67603635D01*
X111620186Y-67720275D01*
X111556873Y-67872749D01*
X111556728Y-68037846D01*
X111248560Y-68037846D01*
X111248560Y-66637846D01*
X111556728Y-66637846D01*
X111619775Y-66790431D01*
X111736415Y-66907274D01*
X111888889Y-66970587D01*
X112053986Y-66970732D01*
X112206571Y-66907685D01*
X112323414Y-66791045D01*
X112386727Y-66638571D01*
X112386872Y-66473474D01*
X112323825Y-66320889D01*
X112207185Y-66204046D01*
X112054711Y-66140733D01*
X111889614Y-66140588D01*
X111737029Y-66203635D01*
X111620186Y-66320275D01*
X111556873Y-66472749D01*
X111556728Y-66637846D01*
X111248560Y-66637846D01*
X111248560Y-65337846D01*
X111556728Y-65337846D01*
X111619775Y-65490431D01*
X111736415Y-65607274D01*
X111888889Y-65670587D01*
X112053986Y-65670732D01*
X112206571Y-65607685D01*
X112323414Y-65491045D01*
X112386727Y-65338571D01*
X112386872Y-65173474D01*
X112323825Y-65020889D01*
X112207185Y-64904046D01*
X112054711Y-64840733D01*
X111889614Y-64840588D01*
X111737029Y-64903635D01*
X111620186Y-65020275D01*
X111556873Y-65172749D01*
X111556728Y-65337846D01*
X111248560Y-65337846D01*
X111248560Y-64037846D01*
X111556728Y-64037846D01*
X111619775Y-64190431D01*
X111736415Y-64307274D01*
X111888889Y-64370587D01*
X112053986Y-64370732D01*
X112206571Y-64307685D01*
X112323414Y-64191045D01*
X112386220Y-64039790D01*
X112726470Y-64039790D01*
X113226287Y-65249441D01*
X114150971Y-66175740D01*
X115359747Y-66677668D01*
X116668590Y-66678810D01*
X117878241Y-66178993D01*
X118804540Y-65254309D01*
X119306468Y-64045533D01*
X119307610Y-62736690D01*
X118807793Y-61527039D01*
X117883109Y-60600740D01*
X116674333Y-60098812D01*
X115365490Y-60097670D01*
X114155839Y-60597487D01*
X113229540Y-61522171D01*
X112727612Y-62730947D01*
X112726470Y-64039790D01*
X112386220Y-64039790D01*
X112386727Y-64038571D01*
X112386872Y-63873474D01*
X112323825Y-63720889D01*
X112207185Y-63604046D01*
X112054711Y-63540733D01*
X111889614Y-63540588D01*
X111737029Y-63603635D01*
X111620186Y-63720275D01*
X111556873Y-63872749D01*
X111556728Y-64037846D01*
X111248560Y-64037846D01*
X111248560Y-62637846D01*
X111556728Y-62637846D01*
X111619775Y-62790431D01*
X111736415Y-62907274D01*
X111888889Y-62970587D01*
X112053986Y-62970732D01*
X112206571Y-62907685D01*
X112323414Y-62791045D01*
X112386727Y-62638571D01*
X112386872Y-62473474D01*
X112323825Y-62320889D01*
X112207185Y-62204046D01*
X112054711Y-62140733D01*
X111889614Y-62140588D01*
X111737029Y-62203635D01*
X111620186Y-62320275D01*
X111556873Y-62472749D01*
X111556728Y-62637846D01*
X111248560Y-62637846D01*
X111248560Y-61919899D01*
X111335271Y-61482466D01*
X111776548Y-61482466D01*
X111839595Y-61635051D01*
X111956235Y-61751894D01*
X112108709Y-61815207D01*
X112273806Y-61815352D01*
X112426391Y-61752305D01*
X112543234Y-61635665D01*
X112606547Y-61483191D01*
X112606692Y-61318094D01*
X112543645Y-61165509D01*
X112427005Y-61048666D01*
X112274531Y-60985353D01*
X112109434Y-60985208D01*
X111956849Y-61048255D01*
X111840006Y-61164895D01*
X111776693Y-61317369D01*
X111776548Y-61482466D01*
X111335271Y-61482466D01*
X111501141Y-60645708D01*
X111610061Y-60482466D01*
X112376548Y-60482466D01*
X112439595Y-60635051D01*
X112556235Y-60751894D01*
X112708709Y-60815207D01*
X112873806Y-60815352D01*
X113026391Y-60752305D01*
X113143234Y-60635665D01*
X113206547Y-60483191D01*
X113206692Y-60318094D01*
X113143645Y-60165509D01*
X113027005Y-60048666D01*
X112874531Y-59985353D01*
X112709434Y-59985208D01*
X112556849Y-60048255D01*
X112440006Y-60164895D01*
X112376693Y-60317369D01*
X112376548Y-60482466D01*
X111610061Y-60482466D01*
X111862729Y-60103785D01*
X112197488Y-59769026D01*
X113250708Y-59769026D01*
X113313755Y-59921611D01*
X113430395Y-60038454D01*
X113582869Y-60101767D01*
X113747966Y-60101912D01*
X113900551Y-60038865D01*
X114017394Y-59922225D01*
X114080707Y-59769751D01*
X114080852Y-59604654D01*
X114017805Y-59452069D01*
X113901165Y-59335226D01*
X113862152Y-59319026D01*
X114350708Y-59319026D01*
X114413755Y-59471611D01*
X114530395Y-59588454D01*
X114682869Y-59651767D01*
X114847966Y-59651912D01*
X115000551Y-59588865D01*
X115117394Y-59472225D01*
X115180707Y-59319751D01*
X115180707Y-59319026D01*
X115650708Y-59319026D01*
X115713755Y-59471611D01*
X115830395Y-59588454D01*
X115982869Y-59651767D01*
X116147966Y-59651912D01*
X116300551Y-59588865D01*
X116417394Y-59472225D01*
X116480707Y-59319751D01*
X116480707Y-59319026D01*
X117050708Y-59319026D01*
X117113755Y-59471611D01*
X117230395Y-59588454D01*
X117382869Y-59651767D01*
X117547966Y-59651912D01*
X117700551Y-59588865D01*
X117817394Y-59472225D01*
X117880707Y-59319751D01*
X117880852Y-59154654D01*
X117817805Y-59002069D01*
X117701165Y-58885226D01*
X117548691Y-58821913D01*
X117383594Y-58821768D01*
X117231009Y-58884815D01*
X117114166Y-59001455D01*
X117050853Y-59153929D01*
X117050708Y-59319026D01*
X116480707Y-59319026D01*
X116480852Y-59154654D01*
X116417805Y-59002069D01*
X116301165Y-58885226D01*
X116148691Y-58821913D01*
X115983594Y-58821768D01*
X115831009Y-58884815D01*
X115714166Y-59001455D01*
X115650853Y-59153929D01*
X115650708Y-59319026D01*
X115180707Y-59319026D01*
X115180852Y-59154654D01*
X115117805Y-59002069D01*
X115001165Y-58885226D01*
X114848691Y-58821913D01*
X114683594Y-58821768D01*
X114531009Y-58884815D01*
X114414166Y-59001455D01*
X114350853Y-59153929D01*
X114350708Y-59319026D01*
X113862152Y-59319026D01*
X113748691Y-59271913D01*
X113583594Y-59271768D01*
X113431009Y-59334815D01*
X113314166Y-59451455D01*
X113250853Y-59603929D01*
X113250708Y-59769026D01*
X112197488Y-59769026D01*
X112737541Y-59228973D01*
X113275524Y-58868992D01*
X114562387Y-58612140D01*
X118823725Y-58612140D01*
X118878644Y-58745055D01*
X119051495Y-58918208D01*
X119277452Y-59012033D01*
X119522114Y-59012247D01*
X119748235Y-58918816D01*
X119921388Y-58745965D01*
X119999837Y-58557038D01*
X120077524Y-58745055D01*
X120250375Y-58918208D01*
X120476332Y-59012033D01*
X120720994Y-59012247D01*
X120947115Y-58918816D01*
X121120268Y-58745965D01*
X121198717Y-58557038D01*
X121276404Y-58745055D01*
X121449255Y-58918208D01*
X121675212Y-59012033D01*
X121919874Y-59012247D01*
X122145995Y-58918816D01*
X122319148Y-58745965D01*
X122397597Y-58557038D01*
X122475284Y-58745055D01*
X122475284Y-58745055D01*
G37*
X122475284Y-58745055D02*
X122648135Y-58918208D01*
X122874092Y-59012033D01*
X123118754Y-59012247D01*
X123344875Y-58918816D01*
X123518028Y-58745965D01*
X123575706Y-58607060D01*
X133492986Y-58607060D01*
X134439900Y-59553974D01*
X134439900Y-61405906D01*
X133414906Y-62430900D01*
X127901700Y-62430900D01*
X127895864Y-62432082D01*
X127891093Y-62435293D01*
X125010926Y-65315460D01*
X124639545Y-65315460D01*
X124639540Y-65315459D01*
X124526998Y-65337846D01*
X124518995Y-65339438D01*
X124416801Y-65407721D01*
X124416799Y-65407724D01*
X115487261Y-74337261D01*
X115418978Y-74439455D01*
X115394999Y-74560000D01*
X115395000Y-74560005D01*
X115395000Y-74931386D01*
X115203793Y-75122593D01*
X115200502Y-75127556D01*
X115199400Y-75133200D01*
X115199400Y-79011748D01*
X115062911Y-78955073D01*
X114897814Y-78954928D01*
X114745229Y-79017975D01*
X114628386Y-79134615D01*
X114565073Y-79287089D01*
X114564928Y-79452186D01*
X114627975Y-79604771D01*
X114744615Y-79721614D01*
X114897089Y-79784927D01*
X115062186Y-79785072D01*
X115199400Y-79728376D01*
X115199400Y-79785123D01*
X114627261Y-80357261D01*
X114558978Y-80459455D01*
X114534999Y-80580000D01*
X114535000Y-80580005D01*
X114535000Y-89697072D01*
X114512784Y-89730321D01*
X114485000Y-89870000D01*
X114485000Y-91476852D01*
X114435073Y-91597089D01*
X114434928Y-91762186D01*
X114497975Y-91914771D01*
X114614615Y-92031614D01*
X114767089Y-92094927D01*
X114932186Y-92095072D01*
X115084771Y-92032025D01*
X115199400Y-91917595D01*
X115199400Y-122834400D01*
X115200582Y-122840236D01*
X115203793Y-122845007D01*
X118385000Y-126026214D01*
X118385000Y-126930000D01*
X118401366Y-127012277D01*
X118447972Y-127082028D01*
X123363517Y-131997573D01*
X123290691Y-131967333D01*
X123125594Y-131967188D01*
X122973009Y-132030235D01*
X122856166Y-132146875D01*
X122792853Y-132299349D01*
X122792708Y-132464446D01*
X122855755Y-132617031D01*
X122972395Y-132733874D01*
X123124869Y-132797187D01*
X123289966Y-132797332D01*
X123442551Y-132734285D01*
X123559394Y-132617645D01*
X123622707Y-132465171D01*
X123622852Y-132300074D01*
X123592457Y-132226513D01*
X124045892Y-132679948D01*
X123907911Y-132622653D01*
X123742814Y-132622508D01*
X123590229Y-132685555D01*
X123473386Y-132802195D01*
X123410073Y-132954669D01*
X123409928Y-133119766D01*
X123472975Y-133272351D01*
X123589615Y-133389194D01*
X123742089Y-133452507D01*
X123907186Y-133452652D01*
X124059771Y-133389605D01*
X124176614Y-133272965D01*
X124239927Y-133120491D01*
X124240072Y-132955394D01*
X124182850Y-132816906D01*
X124387972Y-133022028D01*
X124457723Y-133068634D01*
X124540000Y-133085000D01*
X126234861Y-133085000D01*
X126265514Y-133115706D01*
X126372062Y-133159949D01*
X126487431Y-133160050D01*
X126594057Y-133115993D01*
X126675706Y-133034486D01*
X126719949Y-132927938D01*
X126719989Y-132882400D01*
X131178344Y-132882400D01*
X131547972Y-133252028D01*
X131617723Y-133298634D01*
X131700000Y-133315000D01*
X132800000Y-133315000D01*
X132882277Y-133298634D01*
X132952028Y-133252028D01*
X133243821Y-132960235D01*
X134503400Y-134219814D01*
X134503400Y-136823586D01*
X133020546Y-138306440D01*
X123646166Y-138306440D01*
X123592296Y-138176065D01*
X123419445Y-138002912D01*
X123193488Y-137909087D01*
X122948826Y-137908873D01*
X122722705Y-138002304D01*
X122549552Y-138175155D01*
X122471103Y-138364082D01*
X122393416Y-138176065D01*
X122220565Y-138002912D01*
X121994608Y-137909087D01*
X121749946Y-137908873D01*
X121523825Y-138002304D01*
X121350672Y-138175155D01*
X121272223Y-138364082D01*
X121194536Y-138176065D01*
X121021685Y-138002912D01*
X120795728Y-137909087D01*
X120551066Y-137908873D01*
X120324945Y-138002304D01*
X120151792Y-138175155D01*
X120073343Y-138364082D01*
X119995656Y-138176065D01*
X119822805Y-138002912D01*
X119596848Y-137909087D01*
X119352186Y-137908873D01*
X119126065Y-138002304D01*
X118952912Y-138175155D01*
X118897343Y-138308980D01*
X114571728Y-138308980D01*
X113278320Y-138052589D01*
X112293688Y-137395614D01*
X112159517Y-137261443D01*
X111501602Y-136278206D01*
X111246020Y-134997706D01*
X111246020Y-134186970D01*
X112772190Y-134186970D01*
X113272007Y-135396621D01*
X114196691Y-136322920D01*
X115405467Y-136824848D01*
X116714310Y-136825990D01*
X117893907Y-136338591D01*
X119409990Y-136338591D01*
X119454047Y-136445217D01*
X119535554Y-136526866D01*
X119642102Y-136571109D01*
X119757471Y-136571210D01*
X119864097Y-136527153D01*
X119945746Y-136445646D01*
X119989989Y-136339098D01*
X119990090Y-136223729D01*
X119946033Y-136117103D01*
X119864526Y-136035454D01*
X119757978Y-135991211D01*
X119642609Y-135991110D01*
X119535983Y-136035167D01*
X119454334Y-136116674D01*
X119410091Y-136223222D01*
X119409990Y-136338591D01*
X117893907Y-136338591D01*
X117923961Y-136326173D01*
X118850260Y-135401489D01*
X119352188Y-134192713D01*
X119352218Y-134157431D01*
X125499950Y-134157431D01*
X125544007Y-134264057D01*
X125625514Y-134345706D01*
X125732062Y-134389949D01*
X125847431Y-134390050D01*
X125954057Y-134345993D01*
X126035706Y-134264486D01*
X126079949Y-134157938D01*
X126080050Y-134042569D01*
X126035993Y-133935943D01*
X125954486Y-133854294D01*
X125847938Y-133810051D01*
X125732569Y-133809950D01*
X125625943Y-133854007D01*
X125544294Y-133935514D01*
X125500051Y-134042062D01*
X125499950Y-134157431D01*
X119352218Y-134157431D01*
X119352625Y-133691286D01*
X122769428Y-133691286D01*
X122832475Y-133843871D01*
X122949115Y-133960714D01*
X123101589Y-134024027D01*
X123266686Y-134024172D01*
X123419271Y-133961125D01*
X123536114Y-133844485D01*
X123599427Y-133692011D01*
X123599572Y-133526914D01*
X123536525Y-133374329D01*
X123419885Y-133257486D01*
X123267411Y-133194173D01*
X123102314Y-133194028D01*
X122949729Y-133257075D01*
X122832886Y-133373715D01*
X122769573Y-133526189D01*
X122769428Y-133691286D01*
X119352625Y-133691286D01*
X119353330Y-132883870D01*
X118853513Y-131674219D01*
X117928829Y-130747920D01*
X116720053Y-130245992D01*
X115411210Y-130244850D01*
X114201559Y-130744667D01*
X113275260Y-131669351D01*
X112773332Y-132878127D01*
X112772190Y-134186970D01*
X111246020Y-134186970D01*
X111246020Y-120544871D01*
X113900730Y-120544871D01*
X113944787Y-120651497D01*
X114026294Y-120733146D01*
X114132842Y-120777389D01*
X114248211Y-120777490D01*
X114354837Y-120733433D01*
X114436486Y-120651926D01*
X114480729Y-120545378D01*
X114480830Y-120430009D01*
X114436773Y-120323383D01*
X114355266Y-120241734D01*
X114248718Y-120197491D01*
X114133349Y-120197390D01*
X114026723Y-120241447D01*
X113945074Y-120322954D01*
X113900831Y-120429502D01*
X113900730Y-120544871D01*
X111246020Y-120544871D01*
X111246020Y-116264044D01*
X111386555Y-116205976D01*
X111559708Y-116033125D01*
X111653533Y-115807168D01*
X111653747Y-115562506D01*
X111560316Y-115336385D01*
X111387465Y-115163232D01*
X111198538Y-115084783D01*
X111386555Y-115007096D01*
X111559708Y-114834245D01*
X111653533Y-114608288D01*
X111653747Y-114363626D01*
X111560316Y-114137505D01*
X111387465Y-113964352D01*
X111198538Y-113885903D01*
X111386555Y-113808216D01*
X111559708Y-113635365D01*
X111653533Y-113409408D01*
X111653747Y-113164746D01*
X111560316Y-112938625D01*
X111387465Y-112765472D01*
X111198538Y-112687023D01*
X111386555Y-112609336D01*
X111559708Y-112436485D01*
X111653533Y-112210528D01*
X111653747Y-111965866D01*
X111560316Y-111739745D01*
X111387465Y-111566592D01*
X111248560Y-111508914D01*
X111248560Y-109912186D01*
X114144928Y-109912186D01*
X114207975Y-110064771D01*
X114324615Y-110181614D01*
X114477089Y-110244927D01*
X114642186Y-110245072D01*
X114794771Y-110182025D01*
X114911614Y-110065385D01*
X114974927Y-109912911D01*
X114975072Y-109747814D01*
X114912025Y-109595229D01*
X114795385Y-109478386D01*
X114642911Y-109415073D01*
X114477814Y-109414928D01*
X114325229Y-109477975D01*
X114208386Y-109594615D01*
X114145073Y-109747089D01*
X114144928Y-109912186D01*
X111248560Y-109912186D01*
X111248560Y-108912186D01*
X114144928Y-108912186D01*
X114207975Y-109064771D01*
X114324615Y-109181614D01*
X114477089Y-109244927D01*
X114642186Y-109245072D01*
X114794771Y-109182025D01*
X114911614Y-109065385D01*
X114974927Y-108912911D01*
X114975072Y-108747814D01*
X114912025Y-108595229D01*
X114795385Y-108478386D01*
X114642911Y-108415073D01*
X114477814Y-108414928D01*
X114325229Y-108477975D01*
X114208386Y-108594615D01*
X114145073Y-108747089D01*
X114144928Y-108912186D01*
X111248560Y-108912186D01*
X111248560Y-88972671D01*
X113832150Y-88972671D01*
X113876207Y-89079297D01*
X113957714Y-89160946D01*
X114064262Y-89205189D01*
X114179631Y-89205290D01*
X114286257Y-89161233D01*
X114367906Y-89079726D01*
X114412149Y-88973178D01*
X114412250Y-88857809D01*
X114387200Y-88797183D01*
X114387200Y-80472855D01*
X114465706Y-80394486D01*
X114509949Y-80287938D01*
X114510050Y-80172569D01*
X114465993Y-80065943D01*
X114384486Y-79984294D01*
X114277938Y-79940051D01*
X114162569Y-79939950D01*
X114055943Y-79984007D01*
X113974294Y-80065514D01*
X113949138Y-80126096D01*
X113934817Y-80140417D01*
X113877372Y-80226389D01*
X113857200Y-80327800D01*
X113857200Y-88797219D01*
X113832251Y-88857302D01*
X113832150Y-88972671D01*
X111248560Y-88972671D01*
X111248560Y-78052186D01*
X114014928Y-78052186D01*
X114077975Y-78204771D01*
X114194615Y-78321614D01*
X114347089Y-78384927D01*
X114512186Y-78385072D01*
X114664771Y-78322025D01*
X114781614Y-78205385D01*
X114844927Y-78052911D01*
X114845072Y-77887814D01*
X114782025Y-77735229D01*
X114665385Y-77618386D01*
X114512911Y-77555073D01*
X114347814Y-77554928D01*
X114195229Y-77617975D01*
X114078386Y-77734615D01*
X114015073Y-77887089D01*
X114014928Y-78052186D01*
X111248560Y-78052186D01*
X111248560Y-68037846D01*
X111556728Y-68037846D01*
X111619775Y-68190431D01*
X111736415Y-68307274D01*
X111888889Y-68370587D01*
X112053986Y-68370732D01*
X112206571Y-68307685D01*
X112323414Y-68191045D01*
X112386727Y-68038571D01*
X112386872Y-67873474D01*
X112323825Y-67720889D01*
X112207185Y-67604046D01*
X112054711Y-67540733D01*
X111889614Y-67540588D01*
X111737029Y-67603635D01*
X111620186Y-67720275D01*
X111556873Y-67872749D01*
X111556728Y-68037846D01*
X111248560Y-68037846D01*
X111248560Y-66637846D01*
X111556728Y-66637846D01*
X111619775Y-66790431D01*
X111736415Y-66907274D01*
X111888889Y-66970587D01*
X112053986Y-66970732D01*
X112206571Y-66907685D01*
X112323414Y-66791045D01*
X112386727Y-66638571D01*
X112386872Y-66473474D01*
X112323825Y-66320889D01*
X112207185Y-66204046D01*
X112054711Y-66140733D01*
X111889614Y-66140588D01*
X111737029Y-66203635D01*
X111620186Y-66320275D01*
X111556873Y-66472749D01*
X111556728Y-66637846D01*
X111248560Y-66637846D01*
X111248560Y-65337846D01*
X111556728Y-65337846D01*
X111619775Y-65490431D01*
X111736415Y-65607274D01*
X111888889Y-65670587D01*
X112053986Y-65670732D01*
X112206571Y-65607685D01*
X112323414Y-65491045D01*
X112386727Y-65338571D01*
X112386872Y-65173474D01*
X112323825Y-65020889D01*
X112207185Y-64904046D01*
X112054711Y-64840733D01*
X111889614Y-64840588D01*
X111737029Y-64903635D01*
X111620186Y-65020275D01*
X111556873Y-65172749D01*
X111556728Y-65337846D01*
X111248560Y-65337846D01*
X111248560Y-64037846D01*
X111556728Y-64037846D01*
X111619775Y-64190431D01*
X111736415Y-64307274D01*
X111888889Y-64370587D01*
X112053986Y-64370732D01*
X112206571Y-64307685D01*
X112323414Y-64191045D01*
X112386220Y-64039790D01*
X112726470Y-64039790D01*
X113226287Y-65249441D01*
X114150971Y-66175740D01*
X115359747Y-66677668D01*
X116668590Y-66678810D01*
X117878241Y-66178993D01*
X118804540Y-65254309D01*
X119306468Y-64045533D01*
X119307610Y-62736690D01*
X118807793Y-61527039D01*
X117883109Y-60600740D01*
X116674333Y-60098812D01*
X115365490Y-60097670D01*
X114155839Y-60597487D01*
X113229540Y-61522171D01*
X112727612Y-62730947D01*
X112726470Y-64039790D01*
X112386220Y-64039790D01*
X112386727Y-64038571D01*
X112386872Y-63873474D01*
X112323825Y-63720889D01*
X112207185Y-63604046D01*
X112054711Y-63540733D01*
X111889614Y-63540588D01*
X111737029Y-63603635D01*
X111620186Y-63720275D01*
X111556873Y-63872749D01*
X111556728Y-64037846D01*
X111248560Y-64037846D01*
X111248560Y-62637846D01*
X111556728Y-62637846D01*
X111619775Y-62790431D01*
X111736415Y-62907274D01*
X111888889Y-62970587D01*
X112053986Y-62970732D01*
X112206571Y-62907685D01*
X112323414Y-62791045D01*
X112386727Y-62638571D01*
X112386872Y-62473474D01*
X112323825Y-62320889D01*
X112207185Y-62204046D01*
X112054711Y-62140733D01*
X111889614Y-62140588D01*
X111737029Y-62203635D01*
X111620186Y-62320275D01*
X111556873Y-62472749D01*
X111556728Y-62637846D01*
X111248560Y-62637846D01*
X111248560Y-61919899D01*
X111335271Y-61482466D01*
X111776548Y-61482466D01*
X111839595Y-61635051D01*
X111956235Y-61751894D01*
X112108709Y-61815207D01*
X112273806Y-61815352D01*
X112426391Y-61752305D01*
X112543234Y-61635665D01*
X112606547Y-61483191D01*
X112606692Y-61318094D01*
X112543645Y-61165509D01*
X112427005Y-61048666D01*
X112274531Y-60985353D01*
X112109434Y-60985208D01*
X111956849Y-61048255D01*
X111840006Y-61164895D01*
X111776693Y-61317369D01*
X111776548Y-61482466D01*
X111335271Y-61482466D01*
X111501141Y-60645708D01*
X111610061Y-60482466D01*
X112376548Y-60482466D01*
X112439595Y-60635051D01*
X112556235Y-60751894D01*
X112708709Y-60815207D01*
X112873806Y-60815352D01*
X113026391Y-60752305D01*
X113143234Y-60635665D01*
X113206547Y-60483191D01*
X113206692Y-60318094D01*
X113143645Y-60165509D01*
X113027005Y-60048666D01*
X112874531Y-59985353D01*
X112709434Y-59985208D01*
X112556849Y-60048255D01*
X112440006Y-60164895D01*
X112376693Y-60317369D01*
X112376548Y-60482466D01*
X111610061Y-60482466D01*
X111862729Y-60103785D01*
X112197488Y-59769026D01*
X113250708Y-59769026D01*
X113313755Y-59921611D01*
X113430395Y-60038454D01*
X113582869Y-60101767D01*
X113747966Y-60101912D01*
X113900551Y-60038865D01*
X114017394Y-59922225D01*
X114080707Y-59769751D01*
X114080852Y-59604654D01*
X114017805Y-59452069D01*
X113901165Y-59335226D01*
X113862152Y-59319026D01*
X114350708Y-59319026D01*
X114413755Y-59471611D01*
X114530395Y-59588454D01*
X114682869Y-59651767D01*
X114847966Y-59651912D01*
X115000551Y-59588865D01*
X115117394Y-59472225D01*
X115180707Y-59319751D01*
X115180707Y-59319026D01*
X115650708Y-59319026D01*
X115713755Y-59471611D01*
X115830395Y-59588454D01*
X115982869Y-59651767D01*
X116147966Y-59651912D01*
X116300551Y-59588865D01*
X116417394Y-59472225D01*
X116480707Y-59319751D01*
X116480707Y-59319026D01*
X117050708Y-59319026D01*
X117113755Y-59471611D01*
X117230395Y-59588454D01*
X117382869Y-59651767D01*
X117547966Y-59651912D01*
X117700551Y-59588865D01*
X117817394Y-59472225D01*
X117880707Y-59319751D01*
X117880852Y-59154654D01*
X117817805Y-59002069D01*
X117701165Y-58885226D01*
X117548691Y-58821913D01*
X117383594Y-58821768D01*
X117231009Y-58884815D01*
X117114166Y-59001455D01*
X117050853Y-59153929D01*
X117050708Y-59319026D01*
X116480707Y-59319026D01*
X116480852Y-59154654D01*
X116417805Y-59002069D01*
X116301165Y-58885226D01*
X116148691Y-58821913D01*
X115983594Y-58821768D01*
X115831009Y-58884815D01*
X115714166Y-59001455D01*
X115650853Y-59153929D01*
X115650708Y-59319026D01*
X115180707Y-59319026D01*
X115180852Y-59154654D01*
X115117805Y-59002069D01*
X115001165Y-58885226D01*
X114848691Y-58821913D01*
X114683594Y-58821768D01*
X114531009Y-58884815D01*
X114414166Y-59001455D01*
X114350853Y-59153929D01*
X114350708Y-59319026D01*
X113862152Y-59319026D01*
X113748691Y-59271913D01*
X113583594Y-59271768D01*
X113431009Y-59334815D01*
X113314166Y-59451455D01*
X113250853Y-59603929D01*
X113250708Y-59769026D01*
X112197488Y-59769026D01*
X112737541Y-59228973D01*
X113275524Y-58868992D01*
X114562387Y-58612140D01*
X118823725Y-58612140D01*
X118878644Y-58745055D01*
X119051495Y-58918208D01*
X119277452Y-59012033D01*
X119522114Y-59012247D01*
X119748235Y-58918816D01*
X119921388Y-58745965D01*
X119999837Y-58557038D01*
X120077524Y-58745055D01*
X120250375Y-58918208D01*
X120476332Y-59012033D01*
X120720994Y-59012247D01*
X120947115Y-58918816D01*
X121120268Y-58745965D01*
X121198717Y-58557038D01*
X121276404Y-58745055D01*
X121449255Y-58918208D01*
X121675212Y-59012033D01*
X121919874Y-59012247D01*
X122145995Y-58918816D01*
X122319148Y-58745965D01*
X122397597Y-58557038D01*
X122475284Y-58745055D01*
M02*
