M48
;DRILL file {KiCad 4.0.7-e2-6376~61~ubuntu18.04.1} date Mon Jul 28 12:51:01 2025
;FORMAT={-:-/ absolute / inch / decimal}
FMAT,2
INCH,TZ
T1C0.008
T2C0.012
T3C0.016
T4C0.030
T5C0.040
T6C0.125
%
G90
G05
M72
T1
X4.493Y-3.5006
X4.4957Y-4.7436
X4.4969Y-3.1587
X4.5802Y-3.5419
X4.6189Y-3.6213
X4.619Y-3.4722
X4.637Y-2.763
X4.6693Y-4.9413
X4.7126Y-5.3654
X4.7256Y-4.4
X4.7264Y-5.0043
X4.7467Y-3.6853
X4.7484Y-5.0484
X4.7793Y-4.1021
X4.8043Y-4.1127
X4.8043Y-4.1128
X4.8118Y-3.302
X4.8253Y-4.1001
X4.8253Y-4.1002
X4.8449Y-4.3594
X4.8465Y-4.2835
X4.8512Y-4.9563
X4.8661Y-4.8185
X4.8965Y-3.4429
X4.8988Y-4.5563
X4.9091Y-4.6539
X4.9102Y-3.3039
X4.9185Y-5.1201
X4.9232Y-5.1425
X4.9303Y-4.8091
X4.9512Y-4.9921
X4.9524Y-5.2795
X4.9776Y-4.4921
X4.9776Y-5.2311
X4.9787Y-4.6602
X4.9972Y-4.5118
X4.9984Y-5.2039
X4.9988Y-4.1197
X5.003Y-4.9696
X5.0169Y-4.5358
X5.0366Y-4.5598
X5.0366Y-5.2169
X5.0379Y-4.8285
X5.0528Y-4.6783
X5.0539Y-4.9894
X5.0563Y-4.652
X5.0693Y-4.4429
X5.08Y-5.158
X5.0878Y-4.3437
X5.1051Y-4.4165
X5.1154Y-5.0945
X5.124Y-4.2217
X5.1634Y-4.937
X5.2415Y-3.9608
X5.248Y-4.7398
X5.2484Y-4.7004
X5.2526Y-4.8582
X5.2531Y-4.6398
X5.2539Y-4.7205
X5.2555Y-4.8933
X5.2645Y-3.9583
X5.2658Y-3.7737
X5.2825Y-3.9733
X5.2947Y-3.7954
X5.2984Y-3.9921
X5.2987Y-3.8702
X5.2995Y-4.4566
X5.3Y-3.2992
X5.3Y-3.7235
X5.3043Y-4.9646
X5.3167Y-4.4566
X5.3172Y-3.2991
X5.3229Y-4.0094
X5.3358Y-4.4566
X5.3363Y-3.2992
X5.3435Y-4.0348
X5.3459Y-3.8584
X5.3459Y-3.882
X5.3499Y-3.7717
X5.3529Y-4.4566
X5.3534Y-3.2991
X5.3656Y-3.9843
X5.3745Y-3.7669
X5.3774Y-3.7206
X5.3846Y-3.6973
X5.3855Y-4.0363
X5.3892Y-3.9843
X5.3991Y-4.0799
X5.3992Y-3.6761
X5.401Y-3.7668
X5.4247Y-3.9877
X5.4502Y-4.0799
X5.4503Y-3.6761
X5.4522Y-3.7717
X5.4522Y-3.9843
X5.4531Y-3.7219
X5.4533Y-4.0341
X5.4657Y-2.6201
X5.4747Y-3.7219
X5.475Y-4.0341
X5.4758Y-3.7717
X5.4758Y-3.9843
X5.4778Y-4.0799
X5.4779Y-3.6761
X5.5192Y-3.7698
X5.5289Y-4.0799
X5.529Y-3.6761
X5.537Y-4.0368
X5.5388Y-3.7698
X5.5388Y-3.9843
X5.5585Y-3.7698
X5.56Y-4.0383
X5.5625Y-3.8426
X5.5625Y-3.8662
X5.5743Y-4.0237
X5.5909Y-3.66
X5.594Y-3.756
X5.5952Y-4.0989
X5.6078Y-3.8544
X5.6102Y-3.9685
X5.6138Y-3.987
X5.6176Y-3.7599
X5.625Y-3.9223
X5.6399Y-3.758
X5.6605Y-3.9962
X5.6688Y-3.6812
X5.6688Y-3.7127
X5.6688Y-3.7363
X5.6728Y-3.9378
X5.7026Y-3.6913
X5.7051Y-4.0126
X5.711Y-3.662
X5.7209Y-2.6492
X5.7231Y-3.6809
X5.7315Y-2.6976
X5.7642Y-2.7626
X5.7894Y-4.3606
X5.7972Y-2.7626
X5.8213Y-4.3224
X5.8307Y-2.7626
X5.8504Y-4.378
X5.9358Y-2.7244
X5.9362Y-2.4866
X6.0042Y-3.7298
X6.0042Y-3.7661
X6.0042Y-3.747
X6.0042Y-3.7832
X6.0045Y-3.9259
X6.0045Y-3.9622
X6.0046Y-3.9431
X6.0046Y-3.9793
X6.0197Y-4.2402
X6.0197Y-4.3874
X6.0504Y-4.2008
X6.0504Y-4.3886
X6.0811Y-4.1791
X6.0811Y-4.3886
X6.0969Y-4.3744
X6.1071Y-5.2598
X6.1102Y-5.2402
X6.1118Y-4.1563
X6.1118Y-4.3898
X6.126Y-5.1236
X6.1299Y-5.2598
X6.1425Y-4.1339
X6.1425Y-4.3224
X6.1437Y-4.4614
X6.1457Y-5.2402
X6.1732Y-4.1622
X6.1732Y-4.3224
X6.1783Y-4.372
X6.2039Y-4.1724
X6.2039Y-4.3228
X6.2346Y-4.1909
X6.2346Y-4.3228
X6.2591Y-4.5457
T2
X5.3853Y-3.8347
X5.405Y-3.8072
X5.405Y-3.8623
X5.405Y-3.9174
X5.4247Y-3.8347
X5.4247Y-3.8899
X5.4443Y-3.8623
X5.4443Y-3.9174
X5.464Y-3.8347
X5.464Y-3.8899
X5.4837Y-3.8623
X5.4837Y-3.9174
X5.4995Y-3.8347
X5.5034Y-3.8899
X5.527Y-3.9174
X5.527Y-3.9528
T3
X4.4083Y-2.4628
X4.4083Y-2.5179
X4.4083Y-2.5691
X4.4083Y-2.6203
X4.4083Y-2.6754
X4.417Y-2.4173
X4.4406Y-2.378
X4.475Y-2.3499
X4.5051Y-3.0697
X4.5102Y-4.2846
X4.5102Y-4.324
X4.5183Y-2.3322
X4.5217Y-3.6094
X4.5268Y-3.1248
X4.5695Y-2.3322
X4.5705Y-2.6768
X4.5885Y-3.8633
X4.589Y-3.7461
X4.589Y-3.7843
X4.589Y-3.9008
X4.5894Y-4.6004
X4.5897Y-3.942
X4.5898Y-3.9783
X4.5898Y-4.0575
X4.5898Y-4.0949
X4.6246Y-2.3322
X4.6287Y-3.7276
X4.6307Y-4.1142
X4.6316Y-4.2341
X4.6354Y-3.9209
X4.6716Y-4.3659
X4.672Y-3.7276
X4.6722Y-4.4412
X4.6728Y-3.9209
X4.6755Y-4.2348
X4.6756Y-4.1142
X4.6776Y-4.5787
X4.6776Y-4.622
X4.7157Y-4.5996
X4.7224Y-2.9878
X4.7224Y-3.0364
X4.7353Y-3.9635
X4.7414Y-3.8723
X4.7501Y-3.7704
X4.7591Y-4.9992
X4.7663Y-2.9343
X4.7668Y-3.0794
X4.7833Y-3.9558
X4.7845Y-3.8832
X4.7865Y-4.0683
X4.7931Y-3.7209
X4.7934Y-3.6813
X4.7963Y-3.7704
X4.815Y-2.9344
X4.819Y-3.0797
X4.8285Y-3.9585
X4.8297Y-3.8728
X4.8382Y-3.7709
X4.8387Y-3.6807
X4.8403Y-4.0684
X4.8433Y-4.5091
X4.8441Y-3.1748
X4.8498Y-5.2602
X4.8507Y-5.2119
X4.8721Y-3.8736
X4.875Y-5.2377
X4.883Y-4.0675
X4.885Y-3.6809
X4.885Y-3.1756
X4.8906Y-4.4961
X4.8906Y-4.5299
X4.913Y-3.8692
X4.9285Y-4.0686
X4.9316Y-3.6706
X4.9338Y-3.1808
X4.9338Y-3.2308
X4.9338Y-3.2808
X4.9338Y-3.3308
X4.9338Y-3.3808
X4.9532Y-3.0592
X4.954Y-2.9628
X4.9554Y-3.87
X4.9785Y-4.0686
X4.9789Y-3.4082
X4.9789Y-3.4448
X4.9796Y-3.4816
X4.9804Y-3.1425
X4.9816Y-3.6706
X4.983Y-3.275
X4.9996Y-3.5103
X5.0021Y-3.0664
X5.0054Y-3.87
X5.0067Y-2.3591
X5.0074Y-2.9694
X5.021Y-3.2762
X5.0232Y-3.9678
X5.0233Y-3.5409
X5.0262Y-3.7723
X5.0315Y-3.0976
X5.0354Y-4.0685
X5.0366Y-3.1424
X5.0385Y-3.6706
X5.0494Y-3.5682
X5.0554Y-3.87
X5.0563Y-2.9847
X5.0584Y-3.2762
X5.0851Y-4.0414
X5.0882Y-3.6977
X5.0891Y-3.6019
X5.0926Y-3.0168
X5.0984Y-3.2762
X5.1066Y-3.8701
X5.1163Y-3.0594
X5.1181Y-3.6314
X5.1294Y-3.1017
X5.1321Y-3.1476
X5.134Y-4.0405
X5.1371Y-3.6986
X5.1374Y-3.1948
X5.1388Y-3.2914
X5.1389Y-3.2437
X5.1429Y-3.4327
X5.143Y-3.3427
X5.1436Y-3.3891
X5.1443Y-3.6593
X5.1456Y-3.4722
X5.1648Y-3.8702
X5.1662Y-4.0119
X5.1693Y-3.7272
X5.1739Y-5.1383
X5.1754Y-3.5076
X5.1765Y-3.6879
X5.1822Y-4.6017
X5.1843Y-5.4118
X5.185Y-5.3705
X5.1858Y-2.9264
X5.1913Y-2.3591
X5.1926Y-3.4468
X5.1928Y-3.4009
X5.1929Y-3.3512
X5.1929Y-4.307
X5.1931Y-4.3529
X5.1932Y-4.4026
X5.1946Y-3.9833
X5.1952Y-5.173
X5.1977Y-3.7558
X5.2049Y-5.2095
X5.2055Y-3.538
X5.2055Y-3.7174
X5.2073Y-3.4875
X5.2076Y-4.2663
X5.2114Y-2.8949
X5.2137Y-5.0002
X5.2173Y-5.1383
X5.2222Y-4.4475
X5.224Y-5.4122
X5.2248Y-5.3709
X5.2248Y-3.8702
X5.2311Y-3.317
X5.237Y-2.9272
X5.2386Y-3.5205
X5.2389Y-4.2333
X5.2394Y-3.5679
X5.2397Y-4.1859
X5.2698Y-4.4636
X5.2699Y-3.2893
X5.27Y-4.5095
X5.2713Y-3.2417
X5.2751Y-4.5594
X5.2776Y-4.5976
X5.2776Y-4.6485
X5.2776Y-4.6996
X5.2777Y-3.003
X5.2777Y-3.0539
X5.2777Y-3.105
X5.2777Y-4.7442
X5.2778Y-3.1433
X5.2781Y-3.1935
X5.2792Y-3.5991
X5.2795Y-4.1547
X5.2822Y-4.7866
X5.2845Y-2.9588
X5.2953Y-4.8289
X5.2998Y-2.9099
X5.3174Y-3.6249
X5.3177Y-4.1289
X5.319Y-4.8715
X5.3262Y-4.3347
X5.3263Y-3.4215
X5.3263Y-4.3874
X5.3265Y-3.3686
X5.3319Y-2.8736
X5.3343Y-2.7823
X5.3553Y-4.9036
X5.369Y-3.6547
X5.3691Y-4.099
X5.3745Y-2.8499
X5.3748Y-2.7819
X5.3756Y-4.5981
X5.3756Y-4.649
X5.3756Y-4.7001
X5.3757Y-3.003
X5.3757Y-3.0539
X5.3757Y-3.105
X5.3757Y-4.7447
X5.3758Y-3.1433
X5.3775Y-3.1922
X5.3777Y-4.5592
X5.3801Y-4.7907
X5.3802Y-3.2381
X5.3815Y-2.9641
X5.3832Y-4.4645
X5.3834Y-4.5104
X5.384Y-3.2858
X5.4042Y-4.9189
X5.4095Y-4.8219
X5.4127Y-2.9347
X5.4168Y-2.8368
X5.4201Y-3.3165
X5.428Y-4.4456
X5.4411Y-3.0648
X5.4411Y-3.116
X5.4413Y-3.0136
X5.4414Y-2.9678
X5.4639Y-4.1583
X5.4639Y-4.2083
X5.4639Y-4.2583
X5.4639Y-4.3083
X5.4639Y-4.3583
X5.4639Y-4.4083
X5.464Y-3.3478
X5.464Y-3.3978
X5.464Y-3.4478
X5.464Y-3.4978
X5.464Y-3.5478
X5.464Y-3.5978
X5.4646Y-4.8282
X5.4646Y-4.9262
X5.4657Y-2.8326
X5.4657Y-2.9306
X5.5024Y-3.3047
X5.5029Y-3.1802
X5.5029Y-3.2644
X5.503Y-3.137
X5.5031Y-3.2219
X5.5126Y-4.4499
X5.5128Y-4.5473
X5.5134Y-4.4985
X5.5142Y-2.336
X5.516Y-4.8281
X5.516Y-4.9261
X5.5171Y-2.8325
X5.5171Y-2.9305
X5.5401Y-4.7402
X5.5401Y-4.7914
X5.5402Y-4.6376
X5.5403Y-4.689
X5.5541Y-4.5697
X5.5588Y-3.6571
X5.5591Y-4.1013
X5.5654Y-2.336
X5.5663Y-3.7025
X5.5671Y-4.8281
X5.5671Y-4.9261
X5.5682Y-2.8325
X5.5682Y-2.9305
X5.5913Y-5.2677
X5.5979Y-3.6989
X5.6001Y-3.1874
X5.6003Y-3.2291
X5.6008Y-3.1453
X5.6015Y-4.5666
X5.6018Y-4.3346
X5.6018Y-4.3347
X5.6018Y-3.425
X5.6019Y-4.6164
X5.6019Y-4.5198
X5.6102Y-3.6272
X5.6105Y-4.1312
X5.6165Y-2.3361
X5.6183Y-4.8281
X5.6183Y-4.9261
X5.6194Y-2.8325
X5.6194Y-2.9305
X5.6484Y-3.6014
X5.6487Y-4.157
X5.6501Y-3.1874
X5.662Y-3.0672
X5.662Y-3.1184
X5.6622Y-3.016
X5.6624Y-2.9723
X5.6695Y-4.8281
X5.6695Y-4.9261
X5.6706Y-2.8325
X5.6706Y-2.9305
X5.6716Y-2.3361
X5.6732Y-2.7362
X5.6882Y-3.5702
X5.6885Y-4.1882
X5.6885Y-3.8545
X5.689Y-3.5228
X5.6893Y-4.2356
X5.6893Y-3.3161
X5.6895Y-4.4457
X5.6937Y-3.1888
X5.6938Y-3.2725
X5.6939Y-3.2305
X5.7004Y-4.5466
X5.7006Y-4.6099
X5.701Y-4.4978
X5.7139Y-3.7411
X5.7157Y-3.9688
X5.7203Y-3.4898
X5.7206Y-4.2686
X5.7207Y-4.8283
X5.7207Y-4.9263
X5.7218Y-2.8327
X5.7218Y-2.9307
X5.7228Y-2.3361
X5.7347Y-3.3535
X5.7348Y-3.4032
X5.735Y-3.4491
X5.735Y-4.4049
X5.7351Y-4.3552
X5.7353Y-4.3093
X5.7423Y-3.7125
X5.7441Y-3.9974
X5.7485Y-3.8545
X5.7604Y-4.7376
X5.7604Y-4.7888
X5.7605Y-4.635
X5.7606Y-4.6864
X5.7721Y-4.8282
X5.7721Y-4.9262
X5.7732Y-2.8326
X5.7732Y-2.9306
X5.774Y-2.3361
X5.7745Y-3.6839
X5.7763Y-4.026
X5.8068Y-3.8545
X5.8232Y-4.8282
X5.8232Y-4.9262
X5.8234Y-3.683
X5.8243Y-2.8326
X5.8243Y-2.9306
X5.8252Y-4.0269
X5.8291Y-2.336
X5.858Y-3.8546
X5.8731Y-3.6559
X5.8744Y-4.8282
X5.8744Y-4.9262
X5.8749Y-4.054
X5.8755Y-2.8326
X5.8755Y-2.9306
X5.8842Y-2.336
X5.885Y-3.9522
X5.8857Y-3.7567
X5.908Y-3.8546
X5.9256Y-4.8282
X5.9256Y-4.9262
X5.9267Y-2.8326
X5.9267Y-2.9306
X5.93Y-3.6559
X5.9318Y-4.0541
X5.9342Y-3.7567
X5.9351Y-3.9518
X5.9354Y-2.336
X5.958Y-3.8546
X5.9773Y-4.8283
X5.9773Y-4.9263
X5.9784Y-2.8327
X5.9784Y-2.9307
X5.98Y-3.6559
X5.9818Y-4.0541
X5.9865Y-2.3361
X6.003Y-3.8546
X6.0169Y-3.894
X6.0183Y-4.0105
X6.0237Y-3.8172
X6.0239Y-3.6973
X6.0287Y-4.8282
X6.0287Y-4.9262
X6.0298Y-2.8326
X6.0298Y-2.9306
X6.0318Y-4.0541
X6.0416Y-2.3361
X6.0553Y-2.5839
X6.0669Y-3.894
X6.0683Y-4.0105
X6.0739Y-3.6973
X6.0739Y-3.8129
X6.0798Y-4.8282
X6.0798Y-4.9262
X6.0809Y-2.8326
X6.0809Y-2.9306
X6.0818Y-4.0541
X6.0928Y-2.3361
X6.1146Y-3.9039
X6.1151Y-4.0033
X6.118Y-3.8067
X6.1234Y-3.7045
X6.131Y-4.8282
X6.131Y-4.9262
X6.1321Y-2.8326
X6.1321Y-2.9306
X6.144Y-2.3361
X6.1664Y-3.8074
X6.1669Y-3.9037
X6.169Y-4.0035
X6.1744Y-3.7053
X6.1822Y-4.8282
X6.1822Y-4.9262
X6.1833Y-2.8326
X6.1833Y-2.9306
X6.1991Y-2.3361
X6.2183Y-4.0074
X6.2209Y-3.9036
X6.2216Y-3.6994
X6.222Y-3.8041
X6.2333Y-4.8283
X6.2333Y-4.9263
X6.2344Y-2.8327
X6.2344Y-2.9307
X6.2542Y-2.3361
X6.2621Y-4.0348
X6.2653Y-3.7923
X6.2675Y-3.6732
X6.2679Y-3.9176
X6.2847Y-4.8282
X6.2847Y-4.9262
X6.2858Y-2.8326
X6.2858Y-2.9306
X6.3059Y-2.3537
X6.3085Y-4.08
X6.3099Y-3.626
X6.3169Y-3.9476
X6.3184Y-3.7604
X6.3358Y-4.8282
X6.3358Y-4.9262
X6.3369Y-2.8326
X6.3369Y-2.9306
X6.3504Y-3.5871
X6.3509Y-4.1209
X6.357Y-2.3538
X6.3589Y-3.9904
X6.3604Y-3.7215
X6.387Y-4.8282
X6.387Y-4.9262
X6.3881Y-2.8326
X6.3881Y-2.9306
X6.3905Y-4.1461
X6.3966Y-3.5606
X6.3989Y-4.0276
X6.4023Y-3.6765
X6.4121Y-2.3538
X6.4284Y-5.4207
X6.4381Y-4.1585
X6.4382Y-4.8282
X6.4382Y-4.9262
X6.4388Y-4.0547
X6.4393Y-2.8326
X6.4393Y-2.9306
X6.4414Y-5.4255
X6.4416Y-3.5507
X6.4437Y-3.6533
X6.4776Y-5.4221
X6.4887Y-5.0389
X6.4887Y-5.0901
X6.4888Y-4.9878
X6.4898Y-4.0606
X6.4898Y-4.1586
X6.4899Y-4.8283
X6.4899Y-4.9263
X6.49Y-3.7583
X6.49Y-3.8095
X6.4901Y-2.7169
X6.4901Y-2.7681
X6.4901Y-3.7072
X6.4902Y-2.6658
X6.4903Y-4.7151
X6.4903Y-4.7663
X6.4904Y-4.664
X6.4907Y-3.0422
X6.4907Y-3.0934
X6.4907Y-3.4363
X6.4907Y-3.4875
X6.4907Y-3.9494
X6.4907Y-4.0006
X6.4908Y-3.55
X6.4908Y-3.648
X6.4908Y-2.9911
X6.4908Y-3.3852
X6.4908Y-3.8983
X6.4909Y-4.2675
X6.4909Y-4.3187
X6.491Y-2.8327
X6.491Y-2.9307
X6.491Y-4.2164
X6.514Y-2.3362
X6.5327Y-5.4221
X6.541Y-4.0009
X6.5411Y-4.7686
X6.5412Y-4.0605
X6.5412Y-4.1585
X6.5412Y-4.2179
X6.5412Y-4.3238
X6.5413Y-4.8282
X6.5413Y-4.9262
X6.5413Y-4.9856
X6.5413Y-5.0915
X6.5414Y-3.895
X6.5415Y-4.6627
X6.542Y-3.4903
X6.5422Y-3.5499
X6.5422Y-3.6479
X6.5422Y-3.7073
X6.5422Y-3.8132
X6.5422Y-2.773
X6.5424Y-2.8326
X6.5424Y-2.9306
X6.5424Y-2.99
X6.5424Y-3.0959
X6.5424Y-3.3844
X6.5426Y-2.6671
X6.5691Y-2.3362
X6.5839Y-5.4221
X6.5922Y-4.0009
X6.5923Y-4.7686
X6.5923Y-4.0605
X6.5923Y-4.1585
X6.5923Y-4.2179
X6.5923Y-4.3238
X6.5924Y-4.8282
X6.5924Y-4.9262
X6.5924Y-4.9856
X6.5924Y-5.0915
X6.5926Y-3.895
X6.5927Y-4.6627
X6.5932Y-3.4903
X6.5933Y-3.5499
X6.5933Y-3.6479
X6.5933Y-3.7073
X6.5933Y-3.8132
X6.5934Y-2.773
X6.5935Y-2.8326
X6.5935Y-2.9306
X6.5935Y-2.99
X6.5935Y-3.0959
X6.5936Y-3.3844
X6.5938Y-2.6671
X6.6146Y-2.3449
X6.6272Y-5.4044
X6.6434Y-4.0009
X6.6435Y-4.7686
X6.6435Y-4.0605
X6.6435Y-4.1585
X6.6435Y-4.2179
X6.6435Y-4.3238
X6.6436Y-4.8282
X6.6436Y-4.9262
X6.6436Y-4.9856
X6.6436Y-5.0915
X6.6438Y-3.895
X6.6439Y-4.6627
X6.6444Y-3.4903
X6.6445Y-3.5499
X6.6445Y-3.6479
X6.6445Y-3.7073
X6.6445Y-3.8132
X6.6446Y-2.773
X6.6447Y-2.8326
X6.6447Y-2.9306
X6.6447Y-2.99
X6.6447Y-3.0959
X6.6448Y-3.3844
X6.645Y-2.6671
X6.6539Y-2.3685
X6.6616Y-5.3763
X6.682Y-2.4029
X6.6852Y-5.337
X6.6939Y-5.134
X6.6939Y-5.1852
X6.6939Y-5.2364
X6.6939Y-5.2915
X6.6943Y-4.4313
X6.6943Y-4.4825
X6.6943Y-4.5376
X6.6943Y-4.5927
X6.6944Y-4.3802
X6.6946Y-4.0009
X6.6947Y-4.7686
X6.6947Y-4.0605
X6.6947Y-4.1585
X6.6947Y-4.2179
X6.6947Y-4.3238
X6.6948Y-4.8282
X6.6948Y-4.9262
X6.6948Y-4.9856
X6.6948Y-5.0915
X6.695Y-3.895
X6.6951Y-4.6627
X6.6956Y-3.4903
X6.6957Y-3.5499
X6.6957Y-3.6479
X6.6957Y-3.7073
X6.6957Y-3.8132
X6.6957Y-3.1469
X6.6957Y-3.1981
X6.6957Y-3.2532
X6.6957Y-3.3083
X6.6958Y-2.773
X6.6959Y-2.8326
X6.6959Y-2.9306
X6.6959Y-2.99
X6.6959Y-3.0959
X6.696Y-3.3844
X6.6962Y-2.6671
X6.6997Y-2.4462
X6.6997Y-2.4974
X6.6997Y-2.5525
X6.6997Y-2.6037
T5
X5.5734Y-5.0154
X5.6734Y-5.0154
X5.7734Y-5.0154
T6
X4.5676Y-2.4956
X4.5694Y-5.2573
X6.5363Y-2.4955
X6.5381Y-5.2572
T4
X5.9598Y-5.1535G85X5.9598Y-5.2008
G05
X5.9598Y-5.3504G85X5.9598Y-5.4016
G05
X6.3Y-5.1535G85X6.3Y-5.2008
G05
X6.3Y-5.3504G85X6.3Y-5.4016
G05
T0
M30
